<?xml version="1.0" encoding="UTF-8" standalone="no"?>
<svg
   xmlns:dc="http://purl.org/dc/elements/1.1/"
   xmlns:cc="http://creativecommons.org/ns#"
   xmlns:rdf="http://www.w3.org/1999/02/22-rdf-syntax-ns#"
   xmlns:svg="http://www.w3.org/2000/svg"
   xmlns="http://www.w3.org/2000/svg"
   xmlns:sodipodi="http://sodipodi.sourceforge.net/DTD/sodipodi-0.dtd"
   xmlns:inkscape="http://www.inkscape.org/namespaces/inkscape"
   width="1000pt"
   height="356pt"
   viewBox="0 0 1000 356"
   version="1.1"
   id="svg62"
   sodipodi:docname="zync.svg"
   inkscape:version="0.92.4 (5da689c313, 2019-01-14)">
  <metadata
     id="metadata68">
    <rdf:RDF>
      <cc:Work
         rdf:about="">
        <dc:format>image/svg+xml</dc:format>
        <dc:type
           rdf:resource="http://purl.org/dc/dcmitype/StillImage" />
      </cc:Work>
    </rdf:RDF>
  </metadata>
  <defs
     id="defs66" />
  <sodipodi:namedview
     pagecolor="#ffffff"
     bordercolor="#666666"
     borderopacity="1"
     objecttolerance="10"
     gridtolerance="10"
     guidetolerance="10"
     inkscape:pageopacity="0"
     inkscape:pageshadow="2"
     inkscape:window-width="1441"
     inkscape:window-height="884"
     id="namedview64"
     showgrid="false"
     inkscape:zoom="0.5235"
     inkscape:cx="577.75223"
     inkscape:cy="82.23831"
     inkscape:window-x="0"
     inkscape:window-y="0"
     inkscape:window-maximized="0"
     inkscape:current-layer="svg62" />
  <g
     id="g907"
     transform="matrix(0.8,0,0,0.8,99.349454,36.534927)">
    <g
       id="#009accff">
      <path
         id="path2"
         d="m 690.29,11.16 c 7.04,-2.52 15.15,-2.74 21.6,1.47 2.17,2.02 4.11,4.26 6.05,6.5 2.66,6.01 3.23,12.61 4.38,19.01 2.66,15.53 5.28,31.07 7.92,46.61 1.87,-1 3.73,-2.01 5.63,-2.97 1.49,-0.76 3,-1.5 4.52,-2.21 23.11,-10.55 49.02,-13.22 74.17,-11.89 21.56,1.6 43.05,6.02 62.86,14.86 0.47,-1.26 0.95,-2.52 1.44,-3.78 0.78,-2.09 1.59,-4.17 2.37,-6.26 3.04,-8.58 5.34,-17.51 9.82,-25.51 5.87,-11.27 15.21,-20.76 26.71,-26.27 14.69,-6.56 31.29,-6.55 47.02,-5.12 3.55,1.67 6.94,3.76 9.72,6.56 2.95,4.29 4.77,9.51 4.12,14.76 -0.45,5.94 -3.91,10.93 -6.52,16.08 -6.86,13.4 -12.93,27.23 -17.72,41.52 -3.24,9.84 -5.98,20.04 -5.71,30.49 0.16,4.92 -0.43,9.9 0.39,14.78 2.31,7.66 5.98,14.81 8.9,22.24 3.31,9.39 -2.22,19.95 -10.95,24.04 -12.18,5.71 -24.78,10.46 -37.13,15.78 -4.25,1.96 -8.97,2.45 -13.59,2.37 -3.44,-1.19 -7.01,-2.32 -9.85,-4.68 -5.41,-4.26 -7.74,-10.98 -11.58,-16.47 -14.68,-22.44 -34.35,-42.81 -59.5,-53.18 -11.44,-4.9 -24.02,-7.01 -36.43,-6.44 -4.38,0.18 -8.86,1.35 -12.3,4.16 -5.35,4.3 -8.05,10.92 -9.81,17.36 -2.91,11.08 -3.48,22.62 -3.56,34.03 -0.08,14.58 2.69,29.34 9.32,42.4 6.36,12.67 16.11,23.55 27.78,31.57 11.87,8.49 25.56,14.23 39.68,17.76 13.19,3.16 26.94,4.65 40.46,2.97 6.98,-0.79 14.29,-1.93 20.12,-6.15 12.42,-7.98 24.75,-16.19 38.04,-22.68 5.37,-2.16 11.17,-3.41 16.97,-2.52 6.37,1.67 11.78,5.59 16.09,10.47 2.12,3.79 4.32,7.73 4.85,12.12 1.03,9.11 -2.36,18.39 -8.48,25.12 -8.32,9.3 -19.67,15.02 -30.7,20.43 -34.29,16.17 -72.56,24.41 -110.49,22.2 -21.38,-1.34 -42.46,-6.68 -61.95,-15.56 -2.32,5.31 -6.65,9.58 -12.06,11.69 -12.84,5.11 -25.69,10.22 -38.45,15.53 -4.72,2.21 -9.93,3.08 -15.12,2.89 -4.24,-1.26 -8.49,-2.77 -11.95,-5.61 C 624.56,299.92 571.79,258.16 519,216.42 c -3.84,-3.08 -7.7,-6.14 -11.59,-9.16 3.74,23 7.48,46 11.39,68.98 0.9,5.37 2.5,11.02 0.5,16.35 -2.42,6.9 -8.66,11.53 -15.02,14.57 -11.15,5.31 -22.37,10.45 -33.68,15.38 -4.67,2.1 -9.84,2.56 -14.89,2.77 -7.71,-1.01 -14.91,-4.72 -19.68,-10.93 -1.48,-3.18 -2.79,-6.46 -3.32,-9.94 -0.04,-1.29 -0.09,-2.57 -0.17,-3.84 -1.66,-24.54 -4.27,-49.02 -7.76,-73.36 -1.62,-11.3 -3.88,-22.5 -6.84,-33.52 -2.95,-11.17 -6.65,-22.13 -10.71,-32.95 -2.74,-7.51 -5.89,-14.85 -9.06,-22.18 1.13,4.06 2.61,8.12 2.58,12.39 0.15,5.37 -1.76,10.65 -0.91,16.01 4.62,31.31 9.2,62.61 13.9,93.91 0.62,4.68 1.74,9.34 1.54,14.09 -0.44,8.16 -6.02,15.56 -13.41,18.84 -5.26,2.32 -10.75,4.05 -16.12,6.08 -11.44,4 -22.93,8.45 -35.12,9.38 -0.62,8.02 -3.28,17.35 -11.31,20.88 -7,2.58 -14.33,4.14 -21.44,6.39 -7.55,1.94 -14.96,5.2 -22.89,4.96 -8.4,-0.03 -16.8,-0.37 -25.17,-1.06 -42.09,-10.16 -84.01,-20.99 -125.83,-32.2 -21.92,-6.03 -43.89,-11.93 -65.56,-18.82 -18.68,-6.08 -37.4,-12.59 -54.56,-22.28 -5.59,-3.08 -10.6,-7.1 -15.05,-11.65 -3.37,-4.7 -5.15,-10.32 -4.93,-16.11 0.88,-3.09 1.55,-6.34 3.44,-9 3.68,-5.36 9.21,-9.03 14.61,-12.47 12.87,-7.85 26.58,-14.18 40.08,-20.84 23.85,-11.46 48.2,-21.84 72.45,-32.42 33.17,-14.51 66.57,-28.64 98.54,-45.68 16.13,-8.84 32.17,-18.07 46.6,-29.55 1.79,-1.47 3.56,-2.98 5.29,-4.53 1.98,-1.83 3.76,-3.86 5.52,-5.89 -9.09,-5.83 -19.83,-8.23 -30.35,-9.97 -22.17,-3.43 -44.68,-2.65 -67.02,-2.17 -27.94,1 -56.26,2.67 -83.13,10.97 -4.36,1.26 -8.53,3.12 -12.49,5.32 3.94,3.88 8.13,7.48 12.4,10.98 8.18,7.07 17.28,12.95 25.68,19.72 2.92,4.48 5.09,9.75 4.32,15.21 -0.71,6.92 -5.58,12.97 -11.87,15.76 -8.78,3.98 -17.41,8.38 -26.5,11.63 -7.82,2.69 -16.31,3.13 -24.42,1.58 -4.21,-1.2 -8.36,-2.67 -12.15,-4.88 C 55.28,147.66 46.2,141.28 37.43,134.54 28.62,127.66 19.96,120.36 13.32,111.28 9.06,103.64 7.43,94.76 8.78,86.1 c 1.54,-4.66 3.1,-9.39 5.91,-13.48 7.3,-11.07 18.66,-18.55 30.02,-24.95 15.35,-8.34 32.04,-13.83 48.88,-18.29 32.89,-8.64 66.63,-13.82 100.48,-16.82 42.08,-3.57 85.15,-3.73 126.24,7.23 14.47,4.03 29.06,9.17 41.02,18.52 9.93,-0.91 20.22,-1.06 29.79,2.16 5.42,2.79 10.22,6.86 13.17,12.27 3.47,8.02 3.1,17.06 0.75,25.32 2.42,-1.04 4.85,-2.07 7.28,-3.11 1.43,-0.61 2.87,-1.23 4.32,-1.85 4.28,-1.84 8.6,-3.6 12.88,-5.45 1.41,-0.58 2.81,-1.23 4.22,-1.85 5,-2.32 10.57,-3.68 16.09,-2.76 4.11,1.11 7.91,3.12 11.23,5.77 67.97,52.74 135.91,105.53 203.87,158.3 -0.46,-4.83 -1.01,-9.65 -1.84,-14.42 -7.94,-51.11 -17.82,-101.89 -27.92,-152.61 -1.25,-7.42 -4.39,-14.77 -2.79,-22.4 1.63,-5.06 5.02,-9.26 9.2,-12.47 2.98,-1.35 6.08,-2.44 9.25,-3.29 13.14,-3.63 26.32,-7.13 39.46,-10.76 m -40.93,19.39 c -6.18,1.62 -10.7,8.09 -9.41,14.47 1.6,7.28 3.18,14.56 4.59,21.88 8.83,44.65 17.47,89.34 24.72,134.27 2.08,14.05 4.67,28.15 4.09,42.41 -71.51,-55.44 -142.94,-111 -214.42,-166.48 -3.08,-2.35 -6.07,-5.14 -9.95,-6.06 -3.27,-0.86 -6.76,-0.29 -9.82,1.05 -13.3,5.79 -26.75,11.21 -40.04,17.02 -4.89,1.99 -9,6.46 -9.29,11.91 -0.48,5.24 2.92,9.54 5.26,13.9 9.93,18.23 17.92,37.48 24.49,57.17 4.87,14.96 9.22,30.15 11.65,45.73 4.13,25.59 6.81,51.4 8.85,77.24 0.54,5.44 -0.22,11.66 3.67,16.09 5.82,6.93 16.46,7.47 24.3,3.97 11.72,-5.2 23.45,-10.41 34.95,-16.1 5.25,-2.51 10.2,-7.67 9.34,-13.92 -5.44,-32.12 -10.66,-64.27 -15.92,-96.42 60.03,47.21 119.81,94.73 179.78,142.02 3.85,2.86 7.31,6.57 12.03,7.99 3.78,1.18 7.9,0.65 11.5,-0.89 11.61,-4.78 23.24,-9.52 34.93,-14.1 4.27,-1.65 9.28,-2.98 11.75,-7.23 2.41,-3.7 1.54,-8.28 0.98,-12.37 22.39,12.81 47.97,19.73 73.69,20.95 36,1.37 72.18,-6.77 104.56,-22.41 9.66,-4.85 19.67,-9.89 26.91,-18.16 4.89,-5.54 7.68,-13.38 5.78,-20.71 -2.33,-7.43 -9.27,-13.85 -17.33,-13.84 -5.17,0.05 -9.84,2.56 -14.35,4.8 -11.54,6.15 -22.45,13.39 -33.4,20.52 -4.14,2.7 -8.97,4.03 -13.75,5.05 -16.72,3.3 -34.08,2.08 -50.58,-1.86 -19.07,-4.6 -37.47,-13.08 -52.23,-26.15 -12.03,-10.46 -21.31,-24.12 -26.21,-39.31 -5.94,-17.82 -5.82,-36.99 -3.82,-55.47 1.49,-11.17 3.82,-22.86 10.88,-31.97 4.85,-6.33 12.85,-9.37 20.62,-9.81 18.01,-1.21 36.16,3.57 51.79,12.44 24.75,14.13 43.89,36.54 57.76,61.15 3.2,5.8 10.71,8.59 16.91,6.15 10.39,-4.17 20.69,-8.57 31.03,-12.86 4.01,-1.81 8.39,-3.19 11.68,-6.25 3.6,-3.3 4.79,-8.92 2.66,-13.34 -3.22,-6.98 -6.15,-14.1 -8.68,-21.36 -0.96,-5.15 -0.21,-10.44 -0.44,-15.65 -0.55,-14.31 3.94,-28.14 8.69,-41.45 5.45,-14.65 12.17,-28.79 19.5,-42.58 1.93,-3.63 2.56,-8.13 0.89,-11.97 -1.65,-3.93 -5.62,-6.76 -9.89,-6.97 -12.88,-0.27 -26.41,-0.98 -38.34,4.76 -14.3,6.18 -23.92,19.76 -28.71,34.19 -3.35,10.63 -7.22,21.1 -11.58,31.36 -15.55,-8.3 -32.7,-13.25 -50.06,-15.95 -19.14,-2.81 -38.76,-3.02 -57.86,0.3 -17.54,3.05 -34.64,9.59 -49.03,20.21 -3.89,-23.52 -7.88,-47.04 -11.99,-70.52 -1.12,-6.95 -8.61,-11.86 -15.43,-9.85 -15.91,4.29 -31.85,8.51 -47.7,13.01 M 203.46,19.76 c -32.92,2.48 -65.71,7.13 -97.85,14.68 -20.32,4.93 -40.7,10.82 -58.98,21.23 -9.29,5.28 -18.44,11.5 -24.71,20.32 -4.92,6.87 -7.19,15.9 -4.71,24.13 2.05,7.82 7.91,13.76 13.76,18.98 9.28,8.16 19.26,15.52 29.59,22.31 7.07,4.7 14.79,9.14 23.48,9.61 9.81,0.92 18.98,-3.27 27.65,-7.29 4.95,-2.38 10.09,-4.4 14.9,-7.07 4.86,-2.82 6.96,-9.43 4.56,-14.53 -2.06,-4.86 -7.23,-6.94 -11.12,-10.02 C 109.8,104.39 99.69,96.43 90.56,87.43 89.1,85.81 86.42,83.66 88.45,81.39 c 3.97,-5.45 10.56,-8.12 16.74,-10.22 27.61,-9.13 56.92,-10.96 85.77,-12.06 24,-0.55 48.2,-1.43 71.98,2.49 9.36,1.62 18.75,3.86 27.26,8.19 3.56,1.95 7.26,4.17 9.45,7.71 -0.35,3.05 -2.54,5.48 -4.36,7.81 -7.38,8.44 -16.63,14.96 -25.87,21.2 -33.39,21.98 -70.05,38.25 -106.52,54.32 -38.67,17.15 -77.89,33.13 -115.62,52.29 -8.55,4.39 -17.17,8.72 -25.18,14.05 -4.5,3.06 -9.15,7.07 -10.02,12.76 -0.88,4.62 1.4,9.18 4.65,12.35 5.23,5.11 11.77,8.61 18.24,11.9 14.81,7.28 30.42,12.75 46.1,17.81 21.04,6.68 42.37,12.4 63.65,18.26 40.51,10.88 81.12,21.38 121.88,31.31 7.29,1.82 14.87,1.8 22.34,2.04 4.66,-0.01 9.44,0.47 13.98,-0.89 10.05,-2.81 20.04,-5.85 30.1,-8.64 3.89,-0.91 7.16,-3.83 8.44,-7.62 1.75,-5.17 1.26,-10.73 1.52,-16.1 3.22,0.95 6.6,1.42 9.95,0.83 12.61,-1.66 24.4,-6.77 36.34,-10.89 5.22,-2.12 11.35,-3.29 15.07,-7.9 2.86,-3.35 3.67,-8.01 2.86,-12.26 -5.18,-34.38 -10.19,-68.79 -15.27,-103.18 -0.96,-5.71 1.41,-11.3 0.95,-17.02 -0.17,-5.07 -2.89,-9.94 -7.12,-12.75 -6.08,-4.14 -14.08,-4.51 -21,-2.52 -11.59,3.39 -23.21,6.72 -34.78,10.18 -4.27,1.18 -8.16,4.07 -9.89,8.22 -2.32,5.04 -0.5,10.63 -0.13,15.88 -14.27,1.93 -27.92,6.73 -41.47,11.39 -5.02,1.7 -10.43,4.58 -12.08,10.01 -1.74,4.73 0.85,9.34 2.21,13.77 7.53,25.07 11.95,51.45 9.32,77.65 -40.59,-10.42 -81.05,-21.31 -121.48,-32.31 -20.19,-5.63 -40.15,-12.03 -60.04,-18.61 37.23,-17.57 74.84,-34.36 112.67,-50.6 33.92,-14.81 67.97,-29.42 100.97,-46.21 14.69,-7.63 29.72,-15.58 40.97,-28.04 5.64,0.23 11.39,0.28 16.86,-1.34 14.79,-4.01 26.56,-16.72 30.22,-31.49 1.47,-6.28 1.57,-13.47 -2.27,-18.96 -3.26,-4.87 -9.05,-7.36 -14.71,-8.03 -7.51,-0.79 -15.11,-0.6 -22.56,0.65 C 351.95,40.08 343.14,36.11 334.48,32.67 316.06,25.69 296.55,22.05 277.02,20 252.58,17.42 227.93,18.06 203.46,19.76 m 150.69,94.25 c -6.81,6.76 -14.57,12.52 -22.84,17.36 -13.71,8 -28.01,14.89 -42.32,21.73 -22.79,10.73 -45.85,20.9 -68.97,30.92 -34.29,14.78 -68.49,29.77 -102.35,45.53 4.89,1.53 9.77,3.08 14.67,4.58 22.34,7.15 45.1,12.87 67.72,19.03 23.16,6.17 46.29,12.45 69.52,18.36 0.25,0.08 0.76,0.25 1.01,0.33 0.99,-17.08 -1.59,-34.13 -5.52,-50.71 -1.65,-6.83 -3.41,-13.66 -5.89,-20.25 -1.14,-2.97 -1.22,-6.19 -1.26,-9.33 0.55,-2.08 1.22,-4.12 1.89,-6.17 1.41,-2.29 3.01,-4.46 4.7,-6.56 2.08,-0.88 3.78,-2.47 5.8,-3.48 4.39,-2.27 9.22,-3.48 13.81,-5.27 l 0.12,-0.17 c 8.92,-2.76 17.81,-5.67 26.98,-7.54 -0.1,-1.78 -0.17,-3.55 -0.2,-5.32 0.4,-1.7 0.85,-3.4 0.92,-5.15 l 0.61,-0.23 c 1.27,-5.3 5.2,-9.59 9.89,-12.17 7.54,-3.66 16.04,-4.77 23.82,-7.79 4.53,-1.1 9.04,-2.31 13.45,-3.85 8.77,-2.93 18.73,-3.32 27.17,0.84 1.1,0.69 2.19,1.37 3.35,1.99 3.29,2.26 5.69,5.45 8,8.65 -1.29,-3.66 -3.42,-7 -4.23,-10.82 -0.17,0.01 -0.5,0.03 -0.66,0.04 l 0.21,-0.37 c -1.29,-1.9 -2.41,-3.9 -3.46,-5.93 l 0.17,-0.48 c -0.16,-0.07 -0.49,-0.21 -0.65,-0.28 -1.03,-2.15 -2.15,-4.26 -3.38,-6.3 -1.58,-2.62 -2.79,-5.42 -3.76,-8.31 -8.55,4.99 -18.42,7.47 -28.32,7.12 z"
         inkscape:connector-curvature="0"
         style="opacity:1;fill:#009acc" />
    </g>
    <g
       id="#00040575">
      <path
         id="path5"
         d="m 711.89,12.63 c 5.09,-1.23 9.68,1.97 12.84,5.63 4.55,5.58 7.08,12.58 7.75,19.71 1.57,6.93 2.02,14.03 3.63,20.95 0.78,6.97 1.74,14.07 4.28,20.65 -1.52,0.71 -3.03,1.45 -4.52,2.21 -0.55,-0.43 -1.65,-1.3 -2.2,-1.73 0.49,-5.82 -1.86,-11.27 -2.3,-16.99 -0.4,-4.43 -1.9,-8.66 -2.38,-13.07 -0.35,-3.14 -0.79,-6.27 -1.55,-9.34 -1.1,-4.15 -0.6,-8.68 -2.66,-12.56 -1.45,-3.55 -4.02,-6.44 -6.84,-8.96 -1.94,-2.24 -3.88,-4.48 -6.05,-6.5 z"
         inkscape:connector-curvature="0"
         style="opacity:0.46000001;fill:#000405" />
      <path
         id="path7"
         d="m 964.78,15.6 c 8.39,0.06 17.11,3.97 21.41,11.43 3.34,4.93 4.08,11.19 2.92,16.94 -4.66,12.23 -11.52,23.5 -16.24,35.71 -4.53,11.6 -9.78,23.05 -12.21,35.33 -0.47,8.99 -0.05,18.01 -0.2,27.02 -0.31,7.09 4.18,12.97 6.62,19.31 2.03,4.25 1.74,9.06 1.68,13.64 0.08,5.46 -2.91,10.44 -6.35,14.46 -4.62,4.1 -10.31,6.78 -15.92,9.22 -9.18,3.52 -18.2,7.43 -27.41,10.88 -3.58,1.35 -7.11,3.24 -11.04,3.21 -7.69,0.55 -14.56,-3.82 -20.41,-8.29 -5.38,-5.22 -8.53,-12.19 -12.93,-18.17 -4.85,-6.44 -9.25,-13.29 -15.18,-18.83 -5.15,-4.86 -9.71,-10.39 -15.48,-14.56 -8.33,-5.91 -17.12,-11.33 -26.76,-14.82 -6.24,-2.22 -12.53,-5.02 -19.32,-4.65 -5.55,0.25 -11.23,-0.59 -16.69,0.67 -7.44,2.63 -10.81,10.43 -13.19,17.34 -2.07,4.9 -1.15,10.36 -2.5,15.42 -1.79,6.22 -0.93,12.73 -1.15,19.1 -0.27,6.45 1.97,12.61 2.6,18.98 2.67,10.04 6.13,20.15 12.38,28.58 3.36,4.92 7.93,8.79 12.04,13.04 5.77,5.96 13.12,10.04 20.45,13.78 7.44,3.6 14.81,7.55 22.9,9.56 4.62,1.48 9.53,1.32 14.23,2.43 6.96,2.17 14.32,0.89 21.47,1.37 -13.52,1.68 -27.27,0.19 -40.46,-2.97 -14.12,-3.53 -27.81,-9.27 -39.68,-17.76 -4.78,-4.36 -9.73,-8.62 -13.71,-13.76 -7.17,-9.04 -11.91,-19.77 -15.13,-30.78 -1.3,-4.37 -0.86,-9.01 -2.09,-13.39 -1.01,-3.58 -1.14,-7.31 -1.06,-11.01 0.16,-5.67 -0.6,-11.5 1.22,-16.99 1.6,-5.01 0.14,-10.44 1.97,-15.41 2.58,-8.07 5.91,-16.94 13.66,-21.41 6.46,-4.34 14.52,-2.27 21.79,-2.79 6.3,-0.64 12.08,2.55 18.35,2.46 25.15,10.37 44.82,30.74 59.5,53.18 3.84,5.49 6.17,12.21 11.58,16.47 2.84,2.36 6.41,3.49 9.85,4.68 6.06,3.24 13.51,3.08 19.9,0.88 9.37,-3.69 18.66,-7.58 28.03,-11.26 6.46,-2.81 13.56,-5.79 17.31,-12.14 2.43,-3.41 2.22,-7.77 2.1,-11.75 -0.13,-7.25 -5.02,-13.12 -6.98,-19.86 -1.87,-6.5 -2.2,-13.36 -1.99,-20.09 0.12,-4.66 -0.2,-9.36 0.56,-13.99 0.69,-5.23 2.94,-10.07 4.16,-15.18 1.41,-6.18 4.2,-11.89 6.49,-17.77 2.64,-6.09 4.55,-12.53 8.09,-18.2 3.54,-5.76 6.26,-11.97 9.23,-18.03 0.65,-4.25 1.21,-8.58 0.35,-12.85 -0.55,-5.34 -5.51,-8.4 -9.04,-11.82 -2.78,-2.8 -6.17,-4.89 -9.72,-6.56 z"
         inkscape:connector-curvature="0"
         style="opacity:0.46000001;fill:#000405" />
      <path
         id="path9"
         d="m 391.12,40.47 c 3.18,-0.1 6.5,-0.03 9.33,1.65 7.17,3.79 13.22,10.34 15.28,18.31 1.14,4.12 0.86,8.44 0.91,12.67 -1.45,0.62 -2.89,1.24 -4.32,1.85 -1.39,-5.25 -0.12,-10.96 -2.49,-15.98 -1.02,-2.7 -2.91,-4.99 -5.54,-6.23 -2.95,-5.41 -7.75,-9.48 -13.17,-12.27 z"
         inkscape:connector-curvature="0"
         style="opacity:0.46000001;fill:#000405" />
      <path
         id="path11"
         d="m 449.83,63.04 c 7.14,0.33 14.79,0.97 20.54,5.73 6.97,5.77 14.24,11.15 21.42,16.65 4.01,3.05 7.19,7.15 11.76,9.46 10.35,6.66 19.25,15.3 29.32,22.36 7.25,5.06 13.59,11.28 20.97,16.16 7.6,5.63 14.64,11.97 22.37,17.43 18.65,15.12 37.99,29.36 56.77,44.31 9.7,6.74 17.97,15.47 28.39,21.18 0.58,-1.21 1.16,-2.41 1.72,-3.63 0.83,4.77 1.38,9.59 1.84,14.42 -67.96,-52.77 -135.9,-105.56 -203.87,-158.3 -3.32,-2.65 -7.12,-4.66 -11.23,-5.77 z"
         inkscape:connector-curvature="0"
         style="opacity:0.46000001;fill:#000405" />
      <path
         id="path13"
         d="m 814.56,67.68 c 7.05,0.14 14.24,-0.94 21.18,0.8 8.02,1.66 16.03,3.4 24.09,4.9 6.53,1.15 12.48,4.34 19.03,5.38 -0.49,1.26 -0.97,2.52 -1.44,3.78 -19.81,-8.84 -41.3,-13.26 -62.86,-14.86 z"
         inkscape:connector-curvature="0"
         style="opacity:0.46000001;fill:#000405" />
      <path
         id="path15"
         d="m 196.41,69.77 c 12.5,-0.86 25.08,-0.1 37.62,-0.36 5.34,-0.02 10.78,-0.36 15.99,1.09 5.63,1.67 11.62,0.24 17.25,1.84 7.72,2.23 15.79,3.33 23.15,6.68 -1.76,2.03 -3.54,4.06 -5.52,5.89 -0.42,-0.54 -1.25,-1.61 -1.66,-2.14 -5.35,-1.61 -10.83,-2.71 -16.19,-4.26 -5.42,-1.67 -11.23,-0.36 -16.64,-2.03 -5.01,-1.51 -10.26,-0.97 -15.4,-1.01 -11.68,0 -23.36,0.04 -35.03,-0.04 -4.45,-0.18 -8.59,1.77 -12.99,2.02 -8.68,0.41 -17.49,-0.85 -26.06,1.01 -5.81,1.35 -11.92,0.73 -17.62,2.63 -8.65,2.53 -18.42,2.18 -26.03,7.53 0,0.91 -0.02,2.72 -0.02,3.63 7.47,7.13 16.37,12.52 24.22,19.19 3.63,3.14 7.2,6.75 8.52,11.51 3.44,8.75 0.74,19.5 -6.37,25.65 -7.51,7.45 -17.96,10.27 -27.4,14.38 -6.11,2.46 -12.52,4.79 -19.22,4.53 C 90.96,167.24 84.62,168.35 78.84,166 69.05,162.64 60.4,156.83 51.9,151.05 45.1,147 39.1,141.84 32.94,136.92 24.49,130.21 16.12,122.06 13.32,111.28 c 6.64,9.08 15.3,16.38 24.11,23.26 8.77,6.74 17.85,13.12 27.46,18.63 3.79,2.21 7.94,3.68 12.15,4.88 0.9,0.78 1.8,1.58 2.69,2.38 7.1,0.23 14.2,0.19 21.3,0.18 4.66,0.06 9.02,-1.75 13.29,-3.41 7.63,-3.15 15.49,-6 22.44,-10.55 6.02,-3.96 9.83,-11.38 8.55,-18.62 -1.12,-5.82 -5,-10.82 -9.8,-14.16 -8.4,-6.77 -17.5,-12.65 -25.68,-19.72 -1.13,-2.38 -2.27,-5.4 -0.79,-7.88 2.25,-3.26 6.26,-4.51 9.84,-5.72 9.45,-3.17 19.35,-4.59 29.05,-6.74 3.27,-0.52 6.62,0.01 9.88,-0.58 12.53,-4.03 26.01,0.46 38.6,-3.46 z"
         inkscape:connector-curvature="0"
         style="opacity:0.46000001;fill:#000405" />
      <path
         id="path17"
         d="m 386.23,115.2 c 1.23,2.04 2.35,4.15 3.38,6.3 -2.89,-1.25 -6.09,-2.79 -9.26,-1.55 -3.68,1.25 -7.53,1.67 -11.39,1.69 -4.11,-0.17 -6.89,3.36 -9.25,6.22 -4.41,1.54 -8.92,2.75 -13.45,3.85 4.12,-5.79 9.83,-10.29 16,-13.71 7.56,-3.12 15.97,-2.47 23.97,-2.8 z"
         inkscape:connector-curvature="0"
         style="opacity:0.46000001;fill:#000405" />
      <path
         id="path19"
         d="m 390.09,122.26 c 1.05,2.03 2.17,4.03 3.46,5.93 l -0.21,0.37 c -0.48,1.42 -1.68,2 -3.11,2.13 -1.16,-0.62 -2.25,-1.3 -3.35,-1.99 1.44,-1.95 2.45,-4.15 3.21,-6.44 z"
         inkscape:connector-curvature="0"
         style="opacity:0.46000001;fill:#000405" />
      <path
         id="path21"
         d="m 266.97,169.55 c 13.2,-4.7 24.99,-12.58 38.12,-17.45 2.2,-0.96 4.58,-0.62 6.85,-0.2 -0.07,1.75 -0.52,3.45 -0.92,5.15 -9.51,1.48 -18.05,6.58 -25.99,11.78 -0.2,0.27 -0.59,0.81 -0.79,1.08 l -0.12,0.17 c -4.59,1.79 -9.42,3 -13.81,5.27 -2.02,1.01 -3.72,2.6 -5.8,3.48 -2.74,0.58 -5.51,1.15 -8.08,2.29 -14.74,6.17 -29.13,13.15 -44.02,18.96 -11.38,5.1 -22.91,9.85 -34.35,14.82 -9.84,5.1 -20.49,8.45 -30.09,14.03 -1.84,1.21 -4.51,2.56 -3.55,5.23 3.8,3.2 8.97,3.61 13.56,5.02 16.81,5.34 33.97,9.5 51.02,14.01 12.41,3.75 25.08,6.57 37.52,10.22 7.72,1.79 15.23,4.55 23.15,5.4 -0.04,0.9 -0.06,1.8 -0.09,2.71 -23.23,-5.91 -46.36,-12.19 -69.52,-18.36 -22.62,-6.16 -45.38,-11.88 -67.72,-19.03 0,-0.75 0,-2.23 0,-2.97 6.62,-5.69 15.05,-8.33 22.55,-12.56 5.49,-3.15 11.85,-4.28 17.31,-7.51 4.66,-2.68 9.65,-4.71 14.75,-6.41 13.46,-6.36 27.4,-11.62 40.92,-17.86 7.53,-2.38 14.18,-6.76 21.57,-9.49 6.17,-1.84 11.59,-5.4 17.53,-7.78 z"
         inkscape:connector-curvature="0"
         style="opacity:0.46000001;fill:#000405" />
      <path
         id="path23"
         d="m 403.73,167.98 c 0.68,-2.61 2.2,-4.88 3.5,-7.21 4.06,10.82 7.76,21.78 10.71,32.95 -0.36,0.44 -1.08,1.32 -1.44,1.75 -0.04,4.38 -0.34,8.79 0.15,13.15 2.23,12.52 3.81,25.14 5.63,37.72 1.66,6.34 0.98,12.9 1.55,19.36 2.28,4.06 1.71,8.84 1.74,13.31 0.26,8.4 -3.96,16.93 -11.15,21.4 -5.15,3.27 -10.93,5.4 -16.56,7.68 -11.06,3.22 -21.67,8.15 -33.18,9.64 -5.74,4.56 -5.79,12.92 -11.44,17.55 -5.56,5.36 -13.5,6.43 -20.54,8.77 -6.04,2.18 -12.52,2.73 -18.55,4.94 -5.49,1.97 -11.39,1.48 -17.1,1.49 -5.56,-0.15 -11.13,0.34 -16.67,-0.23 -17.74,-2.82 -34.88,-8.4 -52.38,-12.33 -12.74,-2.92 -25.28,-6.67 -38.05,-9.48 -4.7,-1.05 -9.29,-2.57 -13.91,-3.95 -9.53,-2.9 -19.42,-4.52 -28.84,-7.82 -18.03,-5.06 -36.12,-9.84 -54.05,-15.26 -19.85,-6.58 -40.04,-12.5 -58.73,-22 -4.33,-2.6 -8.57,-5.36 -12.95,-7.86 -6,-3.49 -10.87,-9.27 -12.65,-16.04 4.45,4.55 9.46,8.57 15.05,11.65 17.16,9.69 35.88,16.2 54.56,22.28 21.67,6.89 43.64,12.79 65.56,18.82 41.82,11.21 83.74,22.04 125.83,32.2 4.64,3.52 10.68,3.21 16.17,3.97 11.13,0.3 22.77,0.78 33.23,-3.66 4.47,-1.81 9.23,-2.71 13.83,-4.14 5.45,-1.71 11.46,-2.76 15.76,-6.83 3.38,-3.02 4.31,-7.62 5.94,-11.65 1.91,-4.95 7.03,-8.35 12.3,-8.47 7.78,-0.5 15.09,-3.57 22.17,-6.63 9.58,-2.43 20.11,-5.43 26.54,-13.5 4,-4.6 2.75,-11.02 2.96,-16.6 0.33,-5.13 -2.58,-9.79 -2.11,-14.92 0.56,-5.17 -2.52,-9.82 -2.02,-14.98 0.52,-5.15 -2.07,-9.89 -1.99,-14.99 0.05,-3.47 -0.41,-6.91 -1.4,-10.24 -1.44,-4.79 -1.34,-9.88 -2.78,-14.68 -1.68,-5.07 0.35,-10.82 -2.58,-15.55 -0.37,-4.38 0.23,-8.9 -1.14,-13.16 -0.53,-2.1 -1.52,-4.25 -0.97,-6.45 z"
         inkscape:connector-curvature="0"
         style="opacity:0.46000001;fill:#000405" />
      <path
         id="path25"
         d="m 514.6,223.96 c -0.72,-3.34 2.47,-5.38 4.4,-7.54 52.79,41.74 105.56,83.5 158.37,125.21 3.46,2.84 7.71,4.35 11.95,5.61 3.1,1.33 6.31,2.38 9.62,3.06 9.66,-1.42 18.77,-5.06 27.66,-8.93 8.42,-3.63 17.31,-6.22 25.32,-10.77 3.16,-1.72 5.72,-4.4 9,-5.91 5.28,-0.55 11.97,-1.62 15.45,3.44 4.34,0.1 8.71,0.5 12.82,2.03 8,2.86 16.55,3.32 24.76,5.29 14,0.29 28.03,-0.04 42.04,0.15 5.41,0.29 10.42,-2.26 15.81,-2.37 14.14,-2.42 28.09,-5.99 41.51,-11.09 11.72,-3.32 22.17,-9.67 33.1,-14.84 7.55,-3.67 13.4,-9.83 19.06,-15.86 2.98,-3.14 4.63,-7.25 5.54,-11.43 0.6,-2.91 1.96,-5.95 0.91,-8.92 -0.88,-2.91 -1.5,-5.89 -1.75,-8.92 -2.48,-3.41 -5.09,-6.77 -8.45,-9.35 -4.31,-4.88 -9.72,-8.8 -16.09,-10.47 5.61,0.33 11.39,1.11 16.4,3.82 8.43,5.14 14.34,14.19 15.54,24 0.82,10.24 -2.61,21.14 -10.14,28.31 -4.17,4.08 -8.05,8.64 -13.25,11.44 -8.73,4.76 -17.68,9.06 -26.57,13.5 -4.96,2.41 -10.27,3.94 -15.52,5.57 -7.02,2.18 -13.78,5.27 -21.05,6.59 -8,1.6 -15.98,3.54 -24.12,4.24 -4,0.43 -7.87,1.72 -11.91,1.68 -12.02,-0.03 -24.05,-0.04 -36.07,0 -4.36,0.04 -8.56,-1.26 -12.87,-1.7 -8.93,-0.84 -17.73,-2.94 -26.15,-6.01 -5.15,-1.66 -10.41,-4.4 -15.97,-3.2 -3.42,1.39 -6.14,4.03 -9.43,5.66 -11.64,5.99 -24.23,9.77 -36.23,14.96 -3.63,1.51 -7.6,2.33 -10.76,4.79 H 692.6 c -5.81,-3.31 -11.96,-6.12 -17.12,-10.44 -5.47,-4.65 -11.23,-8.95 -17,-13.22 -11.62,-9.33 -23.21,-18.71 -34.89,-27.97 -16.5,-12.03 -31.81,-25.59 -48.22,-37.75 -16.06,-12.29 -31.13,-25.92 -47.89,-37.27 -1.89,-1.83 -3.81,-0.16 -5.33,1.17 0.95,11.27 3.38,22.34 5.34,33.45 0.89,5.74 0.43,11.68 2.21,17.28 2.08,9.06 1.47,19.97 -5.78,26.66 -9.74,7.36 -21.05,12.24 -32.11,17.25 -8.83,3.15 -17.1,9.01 -26.85,8.6 -7.17,0.23 -13.86,-2.98 -19.83,-6.62 -4.66,-2.8 -7.58,-7.67 -9.1,-12.76 4.77,6.21 11.97,9.92 19.68,10.93 4.21,2.87 9.51,2.61 14.34,2 7.23,-1.35 13.35,-5.74 20.19,-8.2 7.06,-2.22 13.34,-6.26 20.02,-9.35 7.83,-3.75 15.4,-11.45 14.33,-20.78 -0.99,-11.46 -4.45,-22.55 -5.56,-33.99 -1.21,-4.18 -1.45,-8.51 -1.96,-12.79 -1.55,-5.97 -1.79,-12.14 -2.47,-18.24 z"
         inkscape:connector-curvature="0"
         style="opacity:0.46000001;fill:#000405" />
    </g>
    <g
       id="#000000ff">
      <path
         id="path28"
         d="m 649.36,30.55 c 15.85,-4.5 31.79,-8.72 47.7,-13.01 6.82,-2.01 14.31,2.9 15.43,9.85 4.11,23.48 8.1,47 11.99,70.52 14.39,-10.62 31.49,-17.16 49.03,-20.21 19.1,-3.32 38.72,-3.11 57.86,-0.3 17.36,2.7 34.51,7.65 50.06,15.95 4.36,-10.26 8.23,-20.73 11.58,-31.36 4.79,-14.43 14.41,-28.01 28.71,-34.19 11.93,-5.74 25.46,-5.03 38.34,-4.76 4.27,0.21 8.24,3.04 9.89,6.97 1.67,3.84 1.04,8.34 -0.89,11.97 -7.33,13.79 -14.05,27.93 -19.5,42.58 -4.75,13.31 -9.24,27.14 -8.69,41.45 0.23,5.21 -0.52,10.5 0.44,15.65 2.53,7.26 5.46,14.38 8.68,21.36 2.13,4.42 0.94,10.04 -2.66,13.34 -3.29,3.06 -7.67,4.44 -11.68,6.25 -10.34,4.29 -20.64,8.69 -31.03,12.86 -6.2,2.44 -13.71,-0.35 -16.91,-6.15 -13.87,-24.61 -33.01,-47.02 -57.76,-61.15 -15.63,-8.87 -33.78,-13.65 -51.79,-12.44 -7.77,0.44 -15.77,3.48 -20.62,9.81 -7.06,9.11 -9.39,20.8 -10.88,31.97 -2,18.48 -2.12,37.65 3.82,55.47 4.9,15.19 14.18,28.85 26.21,39.31 14.76,13.07 33.16,21.55 52.23,26.15 16.5,3.94 33.86,5.16 50.58,1.86 4.78,-1.02 9.61,-2.35 13.75,-5.05 10.95,-7.13 21.86,-14.37 33.4,-20.52 4.51,-2.24 9.18,-4.75 14.35,-4.8 8.06,-0.01 15,6.41 17.33,13.84 1.9,7.33 -0.89,15.17 -5.78,20.71 -7.24,8.27 -17.25,13.31 -26.91,18.16 -32.38,15.64 -68.56,23.78 -104.56,22.41 -25.72,-1.22 -51.3,-8.14 -73.69,-20.95 0.56,4.09 1.43,8.67 -0.98,12.37 -2.47,4.25 -7.48,5.58 -11.75,7.23 -11.69,4.58 -23.32,9.32 -34.93,14.1 -3.6,1.54 -7.72,2.07 -11.5,0.89 -4.72,-1.42 -8.18,-5.13 -12.03,-7.99 -59.97,-47.29 -119.75,-94.81 -179.78,-142.02 5.26,32.15 10.48,64.3 15.92,96.42 0.86,6.25 -4.09,11.41 -9.34,13.92 -11.5,5.69 -23.23,10.9 -34.95,16.1 -7.84,3.5 -18.48,2.96 -24.3,-3.97 -3.89,-4.43 -3.13,-10.65 -3.67,-16.09 -2.04,-25.84 -4.72,-51.65 -8.85,-77.24 -2.43,-15.58 -6.78,-30.77 -11.65,-45.73 -6.57,-19.69 -14.56,-38.94 -24.49,-57.17 -2.34,-4.36 -5.74,-8.66 -5.26,-13.9 0.29,-5.45 4.4,-9.92 9.29,-11.91 13.29,-5.81 26.74,-11.23 40.04,-17.02 3.06,-1.34 6.55,-1.91 9.82,-1.05 3.88,0.92 6.87,3.71 9.95,6.06 71.48,55.48 142.91,111.04 214.42,166.48 0.58,-14.26 -2.01,-28.36 -4.09,-42.41 -7.25,-44.93 -15.89,-89.62 -24.72,-134.27 -1.41,-7.32 -2.99,-14.6 -4.59,-21.88 -1.29,-6.38 3.23,-12.85 9.41,-14.47 m 2.81,9.7 c -3.74,0.9 -1.81,5.13 -1.29,7.66 8.07,38.52 15.27,77.21 22.29,115.94 3.32,19.04 6.67,38.08 9.11,57.26 1.82,12.57 1,25.29 1.12,37.93 0.44,2.09 -1.98,3.65 -3.58,2.17 -12.19,-9.18 -24.15,-18.67 -36.25,-27.96 C 578.88,183 514.16,132.77 449.46,82.51 c -1.69,-1.49 -4.07,-2.47 -6.19,-1.19 -13.06,5.56 -26.16,11.01 -39.21,16.6 -1.74,0.83 -4.23,1.79 -4.2,4.09 0.35,2.07 1.68,3.77 2.65,5.58 6.04,10.67 11.29,21.77 16.04,33.06 11.07,26.81 19.9,54.74 23.89,83.53 3.57,24.53 6.14,49.21 7.93,73.94 0.35,2.51 -0.39,5.82 2.05,7.49 3.83,2.48 8.85,1.67 12.77,-0.22 11.07,-4.97 22.17,-9.87 33.04,-15.25 1.85,-1.13 5,-2.46 3.92,-5.16 -6.26,-36.29 -11.94,-72.67 -18.1,-108.98 -0.57,-3.58 -1.45,-7.15 -1.45,-10.8 7.81,5.09 14.71,11.46 22.15,17.07 61.22,48.5 122.51,96.93 183.8,145.34 2.1,1.88 5.11,2.06 7.58,0.78 13.92,-5.87 28.09,-11.19 41.99,-17.1 -0.74,-9.63 -3.93,-18.9 -4.08,-28.59 26.44,21.77 61,32.43 95.02,32.46 35.81,-0.21 71.57,-9.64 102.8,-27.18 6.61,-4.03 14.12,-8.63 16.6,-16.43 1.72,-4.79 -1.66,-10.12 -6.34,-11.46 -3.3,-0.37 -6.3,1.45 -9.2,2.75 -12.11,6.24 -23.4,13.89 -34.83,21.26 -6.6,4.17 -14.38,5.8 -21.98,7 -20.47,2.91 -41.47,0.2 -61.07,-6.11 -19.05,-6.24 -37.05,-16.42 -51.08,-30.88 -11.46,-11.75 -19.9,-26.39 -24.33,-42.19 -5.13,-17.78 -4.97,-36.58 -3.07,-54.82 1.67,-13.6 4.8,-27.85 13.77,-38.63 6.3,-7.65 15.98,-11.89 25.74,-12.67 23.27,-2.05 46.72,5.21 66.06,18.01 22.74,15.04 40.75,36.46 54.07,60.09 1.1,2.56 4.2,2.87 6.41,1.56 11.44,-4.78 22.92,-9.44 34.3,-14.37 1.46,-0.83 3.66,-1.39 4.11,-3.25 -3.5,-8.13 -7.1,-16.26 -9.81,-24.7 -0.89,-6 -0.16,-12.12 -0.4,-18.17 -0.37,-11.99 2.6,-23.74 6.24,-35.07 5.99,-18.26 14.15,-35.72 23.12,-52.69 0.86,-1.28 1.24,-4.13 -0.96,-4.12 -11.62,-0.16 -23.95,-1.04 -34.63,4.47 -11.43,5.53 -18.62,16.98 -22.4,28.73 -3.89,12.81 -9.11,25.16 -14.03,37.6 -0.55,1.27 -1.08,2.62 -2.11,3.58 -2.13,-0.29 -3.67,-2.05 -5.5,-3.02 C 864.08,94.68 845.27,89.48 826.42,86.87 804.64,84.17 782.14,84.7 761,91 c -16.49,4.89 -32,13.86 -43.37,26.9 -4.8,-29.28 -9.84,-58.52 -14.84,-87.76 -0.07,-1.89 -1.68,-3.59 -3.63,-2.72 -15.69,4.16 -31.37,8.42 -46.99,12.83 z"
         inkscape:connector-curvature="0"
         style="opacity:1;fill:#000000" />
      <path
         id="path30"
         d="m 203.46,19.76 c 24.47,-1.7 49.12,-2.34 73.56,0.24 19.53,2.05 39.04,5.69 57.46,12.67 8.66,3.44 17.47,7.41 24.09,14.15 7.45,-1.25 15.05,-1.44 22.56,-0.65 5.66,0.67 11.45,3.16 14.71,8.03 3.84,5.49 3.74,12.68 2.27,18.96 -3.66,14.77 -15.43,27.48 -30.22,31.49 -5.47,1.62 -11.22,1.57 -16.86,1.34 -11.25,12.46 -26.28,20.41 -40.97,28.04 -33,16.79 -67.05,31.4 -100.97,46.21 -37.83,16.24 -75.44,33.03 -112.67,50.6 19.89,6.58 39.85,12.98 60.04,18.61 40.43,11 80.89,21.89 121.48,32.31 2.63,-26.2 -1.79,-52.58 -9.32,-77.65 -1.36,-4.43 -3.95,-9.04 -2.21,-13.77 1.65,-5.43 7.06,-8.31 12.08,-10.01 13.55,-4.66 27.2,-9.46 41.47,-11.39 -0.37,-5.25 -2.19,-10.84 0.13,-15.88 1.73,-4.15 5.62,-7.04 9.89,-8.22 11.57,-3.46 23.19,-6.79 34.78,-10.18 6.92,-1.99 14.92,-1.62 21,2.52 4.23,2.81 6.95,7.68 7.12,12.75 0.46,5.72 -1.91,11.31 -0.95,17.02 5.08,34.39 10.09,68.8 15.27,103.18 0.81,4.25 0,8.91 -2.86,12.26 -3.72,4.61 -9.85,5.78 -15.07,7.9 -11.94,4.12 -23.73,9.23 -36.34,10.89 -3.35,0.59 -6.73,0.12 -9.95,-0.83 -0.26,5.37 0.23,10.93 -1.52,16.1 -1.28,3.79 -4.55,6.71 -8.44,7.62 -10.06,2.79 -20.05,5.83 -30.1,8.64 -4.54,1.36 -9.32,0.88 -13.98,0.89 -7.47,-0.24 -15.05,-0.22 -22.34,-2.04 -40.76,-9.93 -81.37,-20.43 -121.88,-31.31 -21.28,-5.86 -42.61,-11.58 -63.65,-18.26 -15.68,-5.06 -31.29,-10.53 -46.1,-17.81 -6.47,-3.29 -13.01,-6.79 -18.24,-11.9 -3.25,-3.17 -5.53,-7.73 -4.65,-12.35 0.87,-5.69 5.52,-9.7 10.02,-12.76 8.01,-5.33 16.63,-9.66 25.18,-14.05 37.73,-19.16 76.95,-35.14 115.62,-52.29 36.47,-16.07 73.13,-32.34 106.52,-54.32 9.24,-6.24 18.49,-12.76 25.87,-21.2 1.82,-2.33 4.01,-4.76 4.36,-7.81 -2.19,-3.54 -5.89,-5.76 -9.45,-7.71 -8.51,-4.33 -17.9,-6.57 -27.26,-8.19 -23.78,-3.92 -47.98,-3.04 -71.98,-2.49 -28.85,1.1 -58.16,2.93 -85.77,12.06 -6.18,2.1 -12.77,4.77 -16.74,10.22 -2.03,2.27 0.65,4.42 2.11,6.04 9.13,9 19.24,16.96 29.47,24.68 3.89,3.08 9.06,5.16 11.12,10.02 2.4,5.1 0.3,11.71 -4.56,14.53 -4.81,2.67 -9.95,4.69 -14.9,7.07 -8.67,4.02 -17.84,8.21 -27.65,7.29 -8.69,-0.47 -16.41,-4.91 -23.48,-9.61 C 50.23,134.62 40.25,127.26 30.97,119.1 25.12,113.88 19.26,107.94 17.21,100.12 14.73,91.89 17,82.86 21.92,75.99 28.19,67.17 37.34,60.95 46.63,55.67 64.91,45.26 85.29,39.37 105.61,34.44 c 32.14,-7.55 64.93,-12.2 97.85,-14.68 m -1.37,10.21 C 166.94,32.76 131.89,37.91 97.74,46.82 77.85,52.09 57.96,58.98 41.11,71.1 35.03,75.66 28.91,81.22 26.8,88.79 c -1.76,6.42 1.03,13.22 5.64,17.72 9.52,9.7 20.64,17.66 31.85,25.28 6.3,4.11 12.84,8.8 20.64,9.18 8.83,0.64 16.75,-3.9 24.56,-7.31 4.08,-2.03 8.43,-3.54 12.3,-5.95 0.94,-1.26 -0.44,-2.38 -1.37,-3.04 -11.2,-7.65 -21.76,-16.22 -31.88,-25.24 -3.43,-3.28 -7.19,-6.42 -9.6,-10.58 -2.51,-4.47 -1.23,-10.11 1.8,-14 4.47,-5.87 11.21,-9.49 17.98,-12.09 14.01,-5.04 28.67,-8.1 43.41,-10.07 24.82,-3.24 49.88,-3.96 74.89,-4.13 17.88,-0.12 35.88,0.61 53.44,4.19 10.55,2.26 21.21,5.37 30.16,11.6 4.17,3.08 8.49,7.13 9.16,12.55 0.07,6.73 -4.46,12.32 -8.7,17.09 -10.1,10.55 -22.38,18.68 -34.68,26.42 -34.81,21.58 -72.55,37.79 -109.95,54.27 -40.45,17.76 -81.44,34.55 -120.3,55.71 -4.65,2.79 -9.75,5.25 -13.35,9.44 -2.07,2.24 0.34,4.85 2.11,6.32 6.42,5.35 14.1,8.89 21.64,12.34 25.14,10.98 51.63,18.34 77.98,25.76 46.95,12.99 94.11,25.17 141.42,36.78 10.39,2.88 21.32,2.53 32,2.42 11.32,-2.86 22.56,-6.22 33.71,-9.67 1.79,-4.72 0.75,-9.92 1.38,-14.83 1.91,-19.91 4.99,-39.93 3.01,-59.96 -1.76,-16.82 -5.15,-33.42 -8.91,-49.9 -0.88,-3.17 -1.23,-6.54 -2.66,-9.54 -2.05,-1.12 -4.47,-0.31 -6.63,-0.09 -12.59,2.16 -24.68,6.47 -36.71,10.63 -1.87,0.94 -4.94,1.48 -5.19,3.96 7.44,22.54 12.52,46.12 12.79,69.94 -0.14,8.37 -0.01,16.88 -1.94,25.08 -0.47,2.16 -1.95,5.41 -4.7,4.09 -30.3,-7.51 -60.42,-15.78 -90.6,-23.78 -22.91,-6.21 -45.9,-12.14 -68.52,-19.37 -16.6,-5.32 -33.3,-10.48 -49.72,-16.29 -0.29,-2.78 2.97,-4.27 5.02,-5.46 25.11,-12.14 50.59,-23.52 75.98,-35.07 38.54,-17.14 77.49,-33.36 115.8,-51.02 17.15,-7.96 34.27,-16.03 50.7,-25.39 9.88,-5.6 19.1,-12.61 26.2,-21.54 4.66,0.69 9.41,1.13 14.11,0.53 14.66,-1.81 26.92,-15.06 27.92,-29.73 0.62,-4.49 -2.54,-8.88 -7.06,-9.51 -9.11,-1.36 -18.75,-1.21 -27.41,2.27 -1.73,-4.12 -5.09,-7.22 -8.84,-9.52 -8.56,-5.32 -18.16,-8.69 -27.79,-11.51 -37.58,-10.54 -77.15,-10.72 -115.8,-7.8 m 166.1,114.21 c -11.72,3.35 -23.41,6.79 -35.1,10.24 -2.15,0.48 -4.47,2.14 -4.07,4.64 1.81,16.69 3.04,33.48 5.82,50.05 4.5,26.6 7.71,53.4 11.47,80.11 -0.02,1.4 1.23,2.32 2.6,2.15 8.95,-0.39 17.39,-3.74 25.79,-6.54 6.64,-2.43 13.38,-4.64 19.9,-7.38 2.12,-0.83 3.33,-3.16 2.7,-5.37 -5.19,-35.04 -10.45,-70.07 -15.5,-105.13 -1.21,-6.22 2.07,-12.39 0.64,-18.54 -2.42,-5.2 -9.39,-5.45 -14.25,-4.23 z"
         inkscape:connector-curvature="0"
         style="opacity:1;fill:#000000" />
      <path
         id="path32"
         d="m 717.94,19.13 c 2.82,2.52 5.39,5.41 6.84,8.96 2.06,3.88 1.56,8.41 2.66,12.56 0.76,3.07 1.2,6.2 1.55,9.34 0.48,4.41 1.98,8.64 2.38,13.07 0.44,5.72 2.79,11.17 2.3,16.99 0.55,0.43 1.65,1.3 2.2,1.73 -1.9,0.96 -3.76,1.97 -5.63,2.97 -2.64,-15.54 -5.26,-31.08 -7.92,-46.61 -1.15,-6.4 -1.72,-13 -4.38,-19.01 z"
         inkscape:connector-curvature="0"
         style="opacity:1;fill:#000000" />
      <path
         id="path34"
         d="m 974.5,22.16 c 3.53,3.42 8.49,6.48 9.04,11.82 0.86,4.27 0.3,8.6 -0.35,12.85 -2.97,6.06 -5.69,12.27 -9.23,18.03 -3.54,5.67 -5.45,12.11 -8.09,18.2 -2.29,5.88 -5.08,11.59 -6.49,17.77 -1.22,5.11 -3.47,9.95 -4.16,15.18 -0.76,4.63 -0.44,9.33 -0.56,13.99 -0.21,6.73 0.12,13.59 1.99,20.09 1.96,6.74 6.85,12.61 6.98,19.86 0.12,3.98 0.33,8.34 -2.1,11.75 -3.75,6.35 -10.85,9.33 -17.31,12.14 -9.37,3.68 -18.66,7.57 -28.03,11.26 -6.39,2.2 -13.84,2.36 -19.9,-0.88 4.62,0.08 9.34,-0.41 13.59,-2.37 12.35,-5.32 24.95,-10.07 37.13,-15.78 8.73,-4.09 14.26,-14.65 10.95,-24.04 -2.92,-7.43 -6.59,-14.58 -8.9,-22.24 -0.82,-4.88 -0.23,-9.86 -0.39,-14.78 -0.27,-10.45 2.47,-20.65 5.71,-30.49 4.79,-14.29 10.86,-28.12 17.72,-41.52 2.61,-5.15 6.07,-10.14 6.52,-16.08 0.65,-5.25 -1.17,-10.47 -4.12,-14.76 z"
         inkscape:connector-curvature="0"
         style="opacity:1;fill:#000000" />
      <path
         id="path36"
         d="m 404.29,52.74 c 2.63,1.24 4.52,3.53 5.54,6.23 2.37,5.02 1.1,10.73 2.49,15.98 -2.43,1.04 -4.86,2.07 -7.28,3.11 2.35,-8.26 2.72,-17.3 -0.75,-25.32 z"
         inkscape:connector-curvature="0"
         style="opacity:1;fill:#000000" />
      <path
         id="path38"
         d="m 109.92,77.85 c 26.87,-8.3 55.19,-9.97 83.13,-10.97 22.34,-0.48 44.85,-1.26 67.02,2.17 10.52,1.74 21.26,4.14 30.35,9.97 -7.36,-3.35 -15.43,-4.45 -23.15,-6.68 -5.63,-1.6 -11.62,-0.17 -17.25,-1.84 -5.21,-1.45 -10.65,-1.11 -15.99,-1.09 -12.54,0.26 -25.12,-0.5 -37.62,0.36 -12.59,3.92 -26.07,-0.57 -38.6,3.46 -3.26,0.59 -6.61,0.06 -9.88,0.58 -9.7,2.15 -19.6,3.57 -29.05,6.74 -3.58,1.21 -7.59,2.46 -9.84,5.72 -1.48,2.48 -0.34,5.5 0.79,7.88 -4.27,-3.5 -8.46,-7.1 -12.4,-10.98 3.96,-2.2 8.13,-4.06 12.49,-5.32 z"
         inkscape:connector-curvature="0"
         style="opacity:1;fill:#000000" />
      <path
         id="path40"
         d="m 354.15,114.01 c 9.9,0.35 19.77,-2.13 28.32,-7.12 0.97,2.89 2.18,5.69 3.76,8.31 -8,0.33 -16.41,-0.32 -23.97,2.8 -6.17,3.42 -11.88,7.92 -16,13.71 -7.78,3.02 -16.28,4.13 -23.82,7.79 -4.69,2.58 -8.62,6.87 -9.89,12.17 l -0.61,0.23 c -2.27,-0.42 -4.65,-0.76 -6.85,0.2 -13.13,4.87 -24.92,12.75 -38.12,17.45 -5.94,2.38 -11.36,5.94 -17.53,7.78 -7.39,2.73 -14.04,7.11 -21.57,9.49 -13.52,6.24 -27.46,11.5 -40.92,17.86 -5.1,1.7 -10.09,3.73 -14.75,6.41 -5.46,3.23 -11.82,4.36 -17.31,7.51 -7.5,4.23 -15.93,6.87 -22.55,12.56 0,0.74 0,2.22 0,2.97 -4.9,-1.5 -9.78,-3.05 -14.67,-4.58 33.86,-15.76 68.06,-30.75 102.35,-45.53 23.12,-10.02 46.18,-20.19 68.97,-30.92 14.31,-6.84 28.61,-13.73 42.32,-21.73 8.27,-4.84 16.03,-10.6 22.84,-17.36 z"
         inkscape:connector-curvature="0"
         style="opacity:1;fill:#000000" />
      <path
         id="path42"
         d="m 135.51,113.87 c 4.8,3.34 8.68,8.34 9.8,14.16 1.28,7.24 -2.53,14.66 -8.55,18.62 -6.95,4.55 -14.81,7.4 -22.44,10.55 -4.27,1.66 -8.63,3.47 -13.29,3.41 -7.1,0.01 -14.2,0.05 -21.3,-0.18 -0.89,-0.8 -1.79,-1.6 -2.69,-2.38 8.11,1.55 16.6,1.11 24.42,-1.58 9.09,-3.25 17.72,-7.65 26.5,-11.63 6.29,-2.79 11.16,-8.84 11.87,-15.76 0.77,-5.46 -1.4,-10.73 -4.32,-15.21 z"
         inkscape:connector-curvature="0"
         style="opacity:1;fill:#000000" />
      <path
         id="path44"
         d="m 766.63,127.61 c 3.44,-2.81 7.92,-3.98 12.3,-4.16 12.41,-0.57 24.99,1.54 36.43,6.44 -6.27,0.09 -12.05,-3.1 -18.35,-2.46 -7.27,0.52 -15.33,-1.55 -21.79,2.79 -7.75,4.47 -11.08,13.34 -13.66,21.41 -1.83,4.97 -0.37,10.4 -1.97,15.41 -1.82,5.49 -1.06,11.32 -1.22,16.99 -0.08,3.7 0.05,7.43 1.06,11.01 1.23,4.38 0.79,9.02 2.09,13.39 3.22,11.01 7.96,21.74 15.13,30.78 3.98,5.14 8.93,9.4 13.71,13.76 -11.67,-8.02 -21.42,-18.9 -27.78,-31.57 -6.63,-13.06 -9.4,-27.82 -9.32,-42.4 0.08,-11.41 0.65,-22.95 3.56,-34.03 1.76,-6.44 4.46,-13.06 9.81,-17.36 z"
         inkscape:connector-curvature="0"
         style="opacity:1;fill:#000000" />
      <path
         id="path46"
         d="m 393.34,128.56 c 0.16,-0.01 0.49,-0.03 0.66,-0.04 0.81,3.82 2.94,7.16 4.23,10.82 -2.31,-3.2 -4.71,-6.39 -8,-8.65 1.43,-0.13 2.63,-0.71 3.11,-2.13 z"
         inkscape:connector-curvature="0"
         style="opacity:1;fill:#000000" />
      <path
         id="path48"
         d="m 400.75,150.98 c 0.03,-4.27 -1.45,-8.33 -2.58,-12.39 3.17,7.33 6.32,14.67 9.06,22.18 -1.3,2.33 -2.82,4.6 -3.5,7.21 -0.55,2.2 0.44,4.35 0.97,6.45 1.37,4.26 0.77,8.78 1.14,13.16 2.93,4.73 0.9,10.48 2.58,15.55 1.44,4.8 1.34,9.89 2.78,14.68 0.99,3.33 1.45,6.77 1.4,10.24 -0.08,5.1 2.51,9.84 1.99,14.99 -0.5,5.16 2.58,9.81 2.02,14.98 -0.47,5.13 2.44,9.79 2.11,14.92 -0.21,5.58 1.04,12 -2.96,16.6 -6.43,8.07 -16.96,11.07 -26.54,13.5 -7.08,3.06 -14.39,6.13 -22.17,6.63 -5.27,0.12 -10.39,3.52 -12.3,8.47 -1.63,4.03 -2.56,8.63 -5.94,11.65 -4.3,4.07 -10.31,5.12 -15.76,6.83 -4.6,1.43 -9.36,2.33 -13.83,4.14 -10.46,4.44 -22.1,3.96 -33.23,3.66 -5.49,-0.76 -11.53,-0.45 -16.17,-3.97 8.37,0.69 16.77,1.03 25.17,1.06 7.93,0.24 15.34,-3.02 22.89,-4.96 7.11,-2.25 14.44,-3.81 21.44,-6.39 8.03,-3.53 10.69,-12.86 11.31,-20.88 12.19,-0.93 23.68,-5.38 35.12,-9.38 5.37,-2.03 10.86,-3.76 16.12,-6.08 7.39,-3.28 12.97,-10.68 13.41,-18.84 0.2,-4.75 -0.92,-9.41 -1.54,-14.09 -4.7,-31.3 -9.28,-62.6 -13.9,-93.91 -0.85,-5.36 1.06,-10.64 0.91,-16.01 z"
         inkscape:connector-curvature="0"
         style="opacity:1;fill:#000000" />
      <path
         id="path50"
         d="m 507.41,207.26 c 3.89,3.02 7.75,6.08 11.59,9.16 -1.93,2.16 -5.12,4.2 -4.4,7.54 0.68,6.1 0.92,12.27 2.47,18.24 0.51,4.28 0.75,8.61 1.96,12.79 1.11,11.44 4.57,22.53 5.56,33.99 1.07,9.33 -6.5,17.03 -14.33,20.78 -6.68,3.09 -12.96,7.13 -20.02,9.35 -6.84,2.46 -12.96,6.85 -20.19,8.2 -4.83,0.61 -10.13,0.87 -14.34,-2 5.05,-0.21 10.22,-0.67 14.89,-2.77 11.31,-4.93 22.53,-10.07 33.68,-15.38 6.36,-3.04 12.6,-7.67 15.02,-14.57 2,-5.33 0.4,-10.98 -0.5,-16.35 -3.91,-22.98 -7.65,-45.98 -11.39,-68.98 z"
         inkscape:connector-curvature="0"
         style="opacity:1;fill:#000000" />
      <path
         id="path52"
         d="m 961.72,252.82 c 3.36,2.58 5.97,5.94 8.45,9.35 0.25,3.03 0.87,6.01 1.75,8.92 1.05,2.97 -0.31,6.01 -0.91,8.92 -0.91,4.18 -2.56,8.29 -5.54,11.43 -5.66,6.03 -11.51,12.19 -19.06,15.86 -10.93,5.17 -21.38,11.52 -33.1,14.84 -13.42,5.1 -27.37,8.67 -41.51,11.09 -5.39,0.11 -10.4,2.66 -15.81,2.37 -14.01,-0.19 -28.04,0.14 -42.04,-0.15 -8.21,-1.97 -16.76,-2.43 -24.76,-5.29 -4.11,-1.53 -8.48,-1.93 -12.82,-2.03 -3.48,-5.06 -10.17,-3.99 -15.45,-3.44 -3.28,1.51 -5.84,4.19 -9,5.91 -8.01,4.55 -16.9,7.14 -25.32,10.77 -8.89,3.87 -18,7.51 -27.66,8.93 -3.31,-0.68 -6.52,-1.73 -9.62,-3.06 5.19,0.19 10.4,-0.68 15.12,-2.89 12.76,-5.31 25.61,-10.42 38.45,-15.53 5.41,-2.11 9.74,-6.38 12.06,-11.69 19.49,8.88 40.57,14.22 61.95,15.56 37.93,2.21 76.2,-6.03 110.49,-22.2 11.03,-5.41 22.38,-11.13 30.7,-20.43 6.12,-6.73 9.51,-16.01 8.48,-25.12 -0.53,-4.39 -2.73,-8.33 -4.85,-12.12 z"
         inkscape:connector-curvature="0"
         style="opacity:1;fill:#000000" />
    </g>
    <g
       id="#ffffffff">
      <path
         id="path55"
         d="m 652.17,40.25 c 15.62,-4.41 31.3,-8.67 46.99,-12.83 1.95,-0.87 3.56,0.83 3.63,2.72 5,29.24 10.04,58.48 14.84,87.76 C 729,104.86 744.51,95.89 761,91 c 21.14,-6.3 43.64,-6.83 65.42,-4.13 18.85,2.61 37.66,7.81 54.12,17.58 1.83,0.97 3.37,2.73 5.5,3.02 1.03,-0.96 1.56,-2.31 2.11,-3.58 4.92,-12.44 10.14,-24.79 14.03,-37.6 3.78,-11.75 10.97,-23.2 22.4,-28.73 10.68,-5.51 23.01,-4.63 34.63,-4.47 2.2,-0.01 1.82,2.84 0.96,4.12 -8.97,16.97 -17.13,34.43 -23.12,52.69 -3.64,11.33 -6.61,23.08 -6.24,35.07 0.24,6.05 -0.49,12.17 0.4,18.17 2.71,8.44 6.31,16.57 9.81,24.7 -0.45,1.86 -2.65,2.42 -4.11,3.25 -11.38,4.93 -22.86,9.59 -34.3,14.37 -2.21,1.31 -5.31,1 -6.41,-1.56 -13.32,-23.63 -31.33,-45.05 -54.07,-60.09 -19.34,-12.8 -42.79,-20.06 -66.06,-18.01 -9.76,0.78 -19.44,5.02 -25.74,12.67 -8.97,10.78 -12.1,25.03 -13.77,38.63 -1.9,18.24 -2.06,37.04 3.07,54.82 4.43,15.8 12.87,30.44 24.33,42.19 14.03,14.46 32.03,24.64 51.08,30.88 19.6,6.31 40.6,9.02 61.07,6.11 7.6,-1.2 15.38,-2.83 21.98,-7 11.43,-7.37 22.72,-15.02 34.83,-21.26 2.9,-1.3 5.9,-3.12 9.2,-2.75 4.68,1.34 8.06,6.67 6.34,11.46 -2.48,7.8 -9.99,12.4 -16.6,16.43 -31.23,17.54 -66.99,26.97 -102.8,27.18 -34.02,-0.03 -68.58,-10.69 -95.02,-32.46 0.15,9.69 3.34,18.96 4.08,28.59 -13.9,5.91 -28.07,11.23 -41.99,17.1 -2.47,1.28 -5.48,1.1 -7.58,-0.78 -61.29,-48.41 -122.58,-96.84 -183.8,-145.34 -7.44,-5.61 -14.34,-11.98 -22.15,-17.07 0,3.65 0.88,7.22 1.45,10.8 6.16,36.31 11.84,72.69 18.1,108.98 1.08,2.7 -2.07,4.03 -3.92,5.16 -10.87,5.38 -21.97,10.28 -33.04,15.25 -3.92,1.89 -8.94,2.7 -12.77,0.22 -2.44,-1.67 -1.7,-4.98 -2.05,-7.49 -1.79,-24.73 -4.36,-49.41 -7.93,-73.94 -3.99,-28.79 -12.82,-56.72 -23.89,-83.53 -4.75,-11.29 -10,-22.39 -16.04,-33.06 -0.97,-1.81 -2.3,-3.51 -2.65,-5.58 -0.03,-2.3 2.46,-3.26 4.2,-4.09 13.05,-5.59 26.15,-11.04 39.21,-16.6 2.12,-1.28 4.5,-0.3 6.19,1.19 64.7,50.26 129.42,100.49 194.11,150.74 12.1,9.29 24.06,18.78 36.25,27.96 1.6,1.48 4.02,-0.08 3.58,-2.17 -0.12,-12.64 0.7,-25.36 -1.12,-37.93 -2.44,-19.18 -5.79,-38.22 -9.11,-57.26 -7.02,-38.73 -14.22,-77.42 -22.29,-115.94 -0.52,-2.53 -2.45,-6.76 1.29,-7.66 z"
         inkscape:connector-curvature="0"
         style="opacity:1;fill:#ffffff" />
      <path
         id="path57"
         d="m 202.09,29.97 c 38.65,-2.92 78.22,-2.74 115.8,7.8 9.63,2.82 19.23,6.19 27.79,11.51 3.75,2.3 7.11,5.4 8.84,9.52 8.66,-3.48 18.3,-3.63 27.41,-2.27 4.52,0.63 7.68,5.02 7.06,9.51 -1,14.67 -13.26,27.92 -27.92,29.73 -4.7,0.6 -9.45,0.16 -14.11,-0.53 -7.1,8.93 -16.32,15.94 -26.2,21.54 -16.43,9.36 -33.55,17.43 -50.7,25.39 -38.31,17.66 -77.26,33.88 -115.8,51.02 -25.39,11.55 -50.87,22.93 -75.98,35.07 -2.05,1.19 -5.31,2.68 -5.02,5.46 16.42,5.81 33.12,10.97 49.72,16.29 22.62,7.23 45.61,13.16 68.52,19.37 30.18,8 60.3,16.27 90.6,23.78 2.75,1.32 4.23,-1.93 4.7,-4.09 1.93,-8.2 1.8,-16.71 1.94,-25.08 -0.27,-23.82 -5.35,-47.4 -12.79,-69.94 0.25,-2.48 3.32,-3.02 5.19,-3.96 12.03,-4.16 24.12,-8.47 36.71,-10.63 2.16,-0.22 4.58,-1.03 6.63,0.09 1.43,3 1.78,6.37 2.66,9.54 3.76,16.48 7.15,33.08 8.91,49.9 1.98,20.03 -1.1,40.05 -3.01,59.96 -0.63,4.91 0.41,10.11 -1.38,14.83 -11.15,3.45 -22.39,6.81 -33.71,9.67 -10.68,0.11 -21.61,0.46 -32,-2.42 -47.31,-11.61 -94.47,-23.79 -141.42,-36.78 -26.35,-7.42 -52.84,-14.78 -77.98,-25.76 -7.54,-3.45 -15.22,-6.99 -21.64,-12.34 -1.77,-1.47 -4.18,-4.08 -2.11,-6.32 3.6,-4.19 8.7,-6.65 13.35,-9.44 38.86,-21.16 79.85,-37.95 120.3,-55.71 37.4,-16.48 75.14,-32.69 109.95,-54.27 12.3,-7.74 24.58,-15.87 34.68,-26.42 4.24,-4.77 8.77,-10.36 8.7,-17.09 -0.67,-5.42 -4.99,-9.47 -9.16,-12.55 -8.95,-6.23 -19.61,-9.34 -30.16,-11.6 -17.56,-3.58 -35.56,-4.31 -53.44,-4.19 -25.01,0.17 -50.07,0.89 -74.89,4.13 -14.74,1.97 -29.4,5.03 -43.41,10.07 -6.77,2.6 -13.51,6.22 -17.98,12.09 -3.03,3.89 -4.31,9.53 -1.8,14 2.41,4.16 6.17,7.3 9.6,10.58 10.12,9.02 20.68,17.59 31.88,25.24 0.93,0.66 2.31,1.78 1.37,3.04 -3.87,2.41 -8.22,3.92 -12.3,5.95 -7.81,3.41 -15.73,7.95 -24.56,7.31 -7.8,-0.38 -14.34,-5.07 -20.64,-9.18 C 53.08,124.17 41.96,116.21 32.44,106.51 27.83,102.01 25.04,95.21 26.8,88.79 28.91,81.22 35.03,75.66 41.11,71.1 57.96,58.98 77.85,52.09 97.74,46.82 131.89,37.91 166.94,32.76 202.09,29.97 Z"
         inkscape:connector-curvature="0"
         style="opacity:1;fill:#ffffff" />
      <path
         id="path59"
         d="m 368.19,144.18 c 4.86,-1.22 11.83,-0.97 14.25,4.23 1.43,6.15 -1.85,12.32 -0.64,18.54 5.05,35.06 10.31,70.09 15.5,105.13 0.63,2.21 -0.58,4.54 -2.7,5.37 -6.52,2.74 -13.26,4.95 -19.9,7.38 -8.4,2.8 -16.84,6.15 -25.79,6.54 -1.37,0.17 -2.62,-0.75 -2.6,-2.15 -3.76,-26.71 -6.97,-53.51 -11.47,-80.11 -2.78,-16.57 -4.01,-33.36 -5.82,-50.05 -0.4,-2.5 1.92,-4.16 4.07,-4.64 11.69,-3.45 23.38,-6.89 35.1,-10.24 z"
         inkscape:connector-curvature="0"
         style="opacity:1;fill:#ffffff" />
    </g>
  </g>
</svg>
