<?xml version="1.0" encoding="UTF-8" standalone="no"?>
<svg
   xmlns:dc="http://purl.org/dc/elements/1.1/"
   xmlns:cc="http://creativecommons.org/ns#"
   xmlns:rdf="http://www.w3.org/1999/02/22-rdf-syntax-ns#"
   xmlns:svg="http://www.w3.org/2000/svg"
   xmlns="http://www.w3.org/2000/svg"
   xmlns:sodipodi="http://sodipodi.sourceforge.net/DTD/sodipodi-0.dtd"
   xmlns:inkscape="http://www.inkscape.org/namespaces/inkscape"
   width="980pt"
   height="248pt"
   viewBox="0 0 980 248"
   version="1.1"
   id="svg1826"
   sodipodi:docname="system.svg"
   inkscape:version="0.92.4 (5da689c313, 2019-01-14)">
  <metadata
     id="metadata1832">
    <rdf:RDF>
      <cc:Work
         rdf:about="">
        <dc:format>image/svg+xml</dc:format>
        <dc:type
           rdf:resource="http://purl.org/dc/dcmitype/StillImage" />
      </cc:Work>
    </rdf:RDF>
  </metadata>
  <defs
     id="defs1830" />
  <sodipodi:namedview
     pagecolor="#ffffff"
     bordercolor="#666666"
     borderopacity="1"
     objecttolerance="10"
     gridtolerance="10"
     guidetolerance="10"
     inkscape:pageopacity="0"
     inkscape:pageshadow="2"
     inkscape:window-width="1920"
     inkscape:window-height="1017"
     id="namedview1828"
     showgrid="false"
     inkscape:zoom="1.0683673"
     inkscape:cx="653.33333"
     inkscape:cy="165.33333"
     inkscape:window-x="-8"
     inkscape:window-y="-8"
     inkscape:window-maximized="1"
     inkscape:current-layer="svg1826" />
  <g
     id="g2024"
     transform="matrix(0.9,0,0,0.9,49.330339,12.4075)">
    <g
       id="#151515ff">
      <path
         style="opacity:1;fill:#151515"
         inkscape:connector-curvature="0"
         id="path1516"
         d="m 366.76,85.09 c 22.85,-22.96 45.82,-45.8 68.63,-68.8 0.01,37.74 -0.02,75.48 0.02,113.22 C 472.68,92 510.19,54.74 547.45,17.23 c -0.05,42.49 0.01,84.98 -0.03,127.48 42.46,-42.53 84.91,-85.08 127.4,-127.57 -0.06,22.91 -0.02,45.82 -0.02,68.72 22.81,-22.85 45.59,-45.74 68.42,-68.58 -0.04,35.41 -0.03,70.83 -0.01,106.24 35.21,-35.35 70.53,-70.59 105.71,-105.98 40.24,-0.09 80.49,0.08 120.73,-0.09 -13.53,12.6 -26.19,26.14 -39.43,39.04 -21.18,0 -42.35,-0.02 -63.52,0.02 -7.33,7.41 -14.68,14.8 -22.11,22.11 10.65,0.06 21.31,0.02 31.97,0.02 -13.03,12.95 -25.98,26 -38.98,38.97 -10.61,0 -21.2,0.01 -31.8,-0.01 -7.35,7.27 -14.58,14.65 -21.94,21.9 37.93,0.09 75.87,0.01 113.8,0.03 -12.75,12.87 -25.84,25.42 -38.26,38.59 -0.46,-0.71 -1.37,-2.12 -1.82,-2.83 11.33,-10.84 21.92,-22.48 33.53,-33.02 -34.36,0.38 -68.74,0.01 -103.1,0.18 -2.24,-0.19 -5.21,0.3 -6.67,-1.83 -1.12,-1.7 0.74,-3.33 1.73,-4.56 6.58,-6.79 13.52,-13.23 19.93,-20.18 3.37,-1.82 7.3,-1.27 10.97,-1.34 7.49,-0.01 14.98,0.13 22.47,-0.03 0.31,-0.29 0.93,-0.87 1.24,-1.16 10.77,-10.63 21.14,-21.7 32.28,-31.94 -8.77,0.57 -17.6,-0.46 -26.34,0.64 -1.37,-1.44 -2.45,-3.77 -0.86,-5.48 3.95,-4.67 8.62,-8.7 12.85,-13.12 3.46,-3.14 6.31,-6.98 10.15,-9.67 2.69,-0.67 5.52,-0.36 8.29,-0.42 18.29,0.07 36.6,-0.03 54.9,0.05 11.15,-10.94 21.96,-22.23 33.25,-33.04 -37.26,0.08 -74.53,0.01 -111.8,0.04 -12.9,12.96 -25.86,25.86 -38.75,38.83 -20.18,20.27 -40.44,40.46 -60.62,60.72 -2.05,1.98 -3.86,4.26 -6.28,5.8 -1.58,0.79 -4.29,0.25 -4.56,-1.77 0.15,-23.04 0.02,-46.1 0.09,-69.16 0.05,-10.15 -0.05,-20.3 0.05,-30.45 -9.62,9.88 -19.49,19.5 -29.16,29.33 -5.44,5.56 -11.03,10.97 -16.45,16.55 -4.89,4.73 -9.61,9.62 -14.47,14.37 -1.1,1.15 -2.11,2.38 -3.18,3.54 -1.8,-0.11 -4.86,0.32 -5.04,-2.2 -0.44,-11.01 0.01,-22.06 -0.12,-33.08 0.01,-9.57 0.02,-19.13 -0.01,-28.7 -9.37,9.55 -18.92,18.93 -28.32,28.45 -2.1,2.09 -4.21,4.18 -6.31,6.26 -4.68,4.68 -9.25,9.46 -14,14.06 -2.85,2.87 -5.69,5.77 -8.57,8.61 -3.08,3.08 -6.12,6.17 -9.21,9.23 -14.74,14.83 -29.55,29.58 -44.3,44.4 -3.72,3.97 -7.94,7.5 -11.22,11.85 -2.84,0.6 -5.83,-0.68 -5.42,-4.05 -0.08,-39.66 -0.17,-79.32 0.17,-118.98 -0.31,0.34 -0.62,0.67 -0.91,1 -9.75,10.23 -19.95,20.02 -29.85,30.1 -25.11,25.04 -50.13,50.17 -75.22,75.22 -0.46,0.39 -1.37,1.18 -1.82,1.57 -1.86,0.33 -5,0.03 -4.69,-2.54 0.52,-8.12 0.18,-16.25 0.27,-24.37 0.03,-27.3 -0.07,-54.6 0.16,-81.9 -0.2,0.23 -0.61,0.67 -0.81,0.89 -13.44,13.9 -27.31,27.4 -40.91,41.15 -3.72,3.65 -7.38,7.35 -11.06,11.04 -3.73,3.51 -7,7.53 -11.02,10.7 -0.68,0.04 -2.05,0.13 -2.73,0.18 -1.5,-0.25 -2.43,-1.53 -2.2,-3.02 -0.23,-4.25 -0.04,-8.52 -0.06,-12.78 0,-15.58 -0.08,-31.16 -0.08,-46.75 -9.71,10.04 -19.84,19.66 -29.59,29.67 -4.34,4.46 -8.82,8.79 -13.21,13.21 -3.49,3.6 -7.14,7.04 -10.58,10.67 -3.29,3.26 -6.56,6.54 -9.76,9.88 -5.8,5.77 -11.56,11.59 -17.32,17.4 -1.32,1.25 -2.66,2.59 -4.41,3.19 -3.41,-0.65 -6.19,-2.91 -9.4,-4.08 -2.63,-1.2 -6.05,-1.56 -7.51,-4.39 -0.31,-2.37 2.04,-3.6 3.81,-4.49 7.94,-3.89 15.32,-10.37 17.88,-19.09 2.21,-9.21 2.1,-19.73 -3.22,-27.9 -4.81,-7.72 -13,-12.82 -21.59,-15.34 -7.08,-2.17 -14.54,-2.58 -21.89,-2.69 -24.42,-0.01 -48.84,0.02 -73.25,-0.01 l -0.82,-0.04 c -0.36,-0.91 -0.75,-1.8 -1.16,-2.68 25.4,-0.35 50.82,-0.06 76.23,-0.15 12.64,-0.05 25.96,2.26 36.29,10.02 7.93,5.87 13.33,15.31 13.54,25.26 0.44,7.59 -0.56,15.58 -4.84,22.04 -4.35,6.56 -10.95,11.25 -17.99,14.57 4.64,1.64 9.16,3.64 13.36,6.23 29.53,-29.44 58.9,-59.04 88.41,-88.48 0,22.59 -0.01,45.18 0.01,67.78 z" />
    </g>
    <g
       id="#dbec4dff">
      <path
         style="opacity:1;fill:#dbec4d"
         inkscape:connector-curvature="0"
         id="path1519"
         d="m 850.38,20.41 c 37.27,-0.03 74.54,0.04 111.8,-0.04 -11.29,10.81 -22.1,22.1 -33.25,33.04 -18.3,-0.08 -36.61,0.02 -54.9,-0.05 -2.77,0.06 -5.6,-0.25 -8.29,0.42 -3.84,2.69 -6.69,6.53 -10.15,9.67 -14.63,-1.64 -29.3,-2.94 -43.96,-4.21 12.89,-12.97 25.85,-25.87 38.75,-38.83 z" />
    </g>
    <g
       id="#3fb400ff">
      <path
         style="opacity:1;fill:#3fb400"
         inkscape:connector-curvature="0"
         id="path1522"
         d="m 432.64,23.1 c -0.23,27.3 -0.13,54.6 -0.16,81.9 -0.09,8.12 0.25,16.25 -0.27,24.37 -0.63,-5.19 1.06,-11.09 -2.27,-15.61 -0.66,2.46 -1.28,4.94 -1.87,7.43 -5.81,-4.59 -10.58,-10.29 -15.78,-15.52 -8.42,-8.22 -16.38,-16.89 -24.69,-25.23 -2.12,-2.14 -5,-3.18 -7.74,-4.26 3.68,-3.69 7.34,-7.39 11.06,-11.04 -0.99,1.05 -1.95,2.13 -2.91,3.22 14.73,-1.49 29.43,-3.31 44.19,-4.51 -0.13,-13.28 0.55,-26.61 -0.37,-39.86 0.2,-0.22 0.61,-0.66 0.81,-0.89 z" />
    </g>
    <g
       id="#4ac400ff">
      <path
         style="opacity:1;fill:#4ac400"
         inkscape:connector-curvature="0"
         id="path1525"
         d="m 543.79,25.02 c 0.29,-0.33 0.6,-0.66 0.91,-1 -0.34,39.66 -0.25,79.32 -0.17,118.98 -0.41,3.37 2.58,4.65 5.42,4.05 -0.57,0.94 -1.11,1.89 -1.62,2.86 -1.8,-0.42 -4.38,0.06 -5.28,-2 -1.37,-2.75 -1.2,-5.94 -1.3,-8.93 0.19,-27.75 -0.08,-55.5 0.17,-83.24 0.54,-0.05 1.63,-0.14 2.17,-0.19 0.44,-4.85 0.22,-9.73 0.23,-14.59 -0.06,-5.31 0.46,-10.67 -0.53,-15.94 z" />
    </g>
    <g
       id="#8ad14dff">
      <path
         style="opacity:1;fill:#8ad14d"
         inkscape:connector-curvature="0"
         id="path1528"
         d="m 334.18,54.18 c 9.75,-10.01 19.88,-19.63 29.59,-29.67 0,15.59 0.08,31.17 0.08,46.75 -3.45,0.44 -6.9,0.84 -10.34,1.26 -6.04,-6.48 -11.65,-13.72 -19.33,-18.34 z" />
    </g>
    <g
       id="#77ca4dff">
      <path
         style="opacity:1;fill:#77ca4d"
         inkscape:connector-curvature="0"
         id="path1531"
         d="m 431.83,23.99 c 0.92,13.25 0.24,26.58 0.37,39.86 -14.76,1.2 -29.46,3.02 -44.19,4.51 0.96,-1.09 1.92,-2.17 2.91,-3.22 13.6,-13.75 27.47,-27.25 40.91,-41.15 z" />
      <path
         style="opacity:1;fill:#77ca4d"
         inkscape:connector-curvature="0"
         id="path1533"
         d="m 513.94,55.12 c 9.9,-10.08 20.1,-19.87 29.85,-30.1 0.99,5.27 0.47,10.63 0.53,15.94 -0.01,4.86 0.21,9.74 -0.23,14.59 -0.54,0.05 -1.63,0.14 -2.17,0.19 -10,0.49 -20,1.02 -30,1.63 0.51,-0.56 1.52,-1.69 2.02,-2.25 z" />
    </g>
    <g
       id="#d9eb4dff">
      <path
         style="opacity:1;fill:#d9eb4d"
         inkscape:connector-curvature="0"
         id="path1536"
         d="m 643.56,52.64 c 9.4,-9.52 18.95,-18.9 28.32,-28.45 0.03,9.57 0.02,19.13 0.01,28.7 -4.81,-0.02 -9.63,-0.04 -14.44,-0.06 -3.99,-0.02 -7.98,-0.01 -11.97,-0.12 -0.48,-0.02 -1.44,-0.05 -1.92,-0.07 z" />
    </g>
    <g
       id="#dbed4dff">
      <path
         style="opacity:1;fill:#dbed4d"
         inkscape:connector-curvature="0"
         id="path1539"
         d="m 711.15,53.71 c 9.67,-9.83 19.54,-19.45 29.16,-29.33 -0.1,10.15 0,20.3 -0.05,30.45 -9.7,-0.44 -19.41,-0.83 -29.11,-1.12 z" />
      <path
         style="opacity:1;fill:#dbed4d"
         inkscape:connector-curvature="0"
         id="path1541"
         d="m 116.64,30.63 c 11.76,-0.14 23.53,-0.04 35.3,-0.08 -0.02,9.99 -0.01,19.98 0,29.96 -10.69,-0.1 -21.39,0.1 -32.07,0.54 l -1.29,0.07 c 0.09,-7.4 0.07,-14.8 0.11,-22.19 0.1,-2.91 -0.57,-5.79 -2.05,-8.3 z" />
      <path
         style="opacity:1;fill:#dbed4d"
         inkscape:connector-curvature="0"
         id="path1543"
         d="m 163.73,30.54 c 24.41,0.03 48.83,0 73.25,0.01 7.35,0.11 14.81,0.52 21.89,2.69 8.59,2.52 16.78,7.62 21.59,15.34 5.32,8.17 5.43,18.69 3.22,27.9 -10.28,-2.16 -20.61,-4.07 -30.95,-5.89 -0.18,-0.04 -0.54,-0.1 -0.72,-0.14 -1.06,-3.39 -2.12,-7.09 -5.05,-9.37 -5.51,-4.58 -13.05,-5.34 -19.95,-5.49 -8.33,0.08 -16.65,-0.09 -24.97,0.13 -0.81,0.89 -1.62,1.77 -2.42,2.66 -0.5,0.55 -0.97,1.11 -1.42,1.69 l -0.25,0.57 c -0.23,0.56 -0.71,1.67 -0.95,2.22 -10.46,-0.75 -20.91,-1.67 -31.39,-2.02 -0.04,-7.28 0.02,-14.56 0.05,-21.84 0.08,-2.94 -0.7,-5.81 -1.93,-8.46 z" />
    </g>
    <g
       id="#1c1c1c9c">
      <path
         style="opacity:0.61000001;fill:#1c1c1c"
         inkscape:connector-curvature="0"
         id="path1546"
         d="M 17.1,27.19 C 31.36,27.15 45.62,27.07 59.88,27.23 59.89,40.3 60.49,53.44 59.53,66.49 58.52,53.67 59.28,40.79 59.07,27.95 45.33,27.9 31.59,27.82 17.86,27.98 17.81,43.34 18.07,58.7 17.74,74.05 l -0.18,0.89 C 16.61,70.35 17.09,65.65 17,61.01 17.06,49.73 16.87,38.46 17.1,27.19 Z" />
    </g>
    <g
       id="#161617ff">
      <path
         style="opacity:1;fill:#161617"
         inkscape:connector-curvature="0"
         id="path1549"
         d="m 17.86,27.98 c 13.73,-0.16 27.47,-0.08 41.21,-0.03 0.21,12.84 -0.55,25.72 0.46,38.54 0.19,5.87 -0.02,11.75 0.08,17.63 17.85,0.16 35.74,-0.3 53.57,0.22 0.92,0.18 1.84,0.37 2.75,0.58 -0.2,0.46 -0.6,1.39 -0.8,1.85 -3.63,0.4 -7.29,0.29 -10.93,0.32 C 92.92,86.97 81.64,87 70.36,87.12 66.34,87.01 62.28,87.34 58.28,86.74 56.71,85.73 56.85,83.69 56.71,82.06 56.59,77 56.81,71.95 56.72,66.89 c 0,-12.21 -0.01,-24.41 0.1,-36.61 -12.17,0.16 -24.35,0.03 -36.53,0.16 l -0.13,0.01 -0.82,0.06 c -0.5,8.83 -0.06,17.68 -0.2,26.53 -0.21,5.67 1.13,11.67 -1.4,17.01 0.33,-15.35 0.07,-30.71 0.12,-46.07 z" />
    </g>
    <g
       id="#0c0d0cff">
      <path
         style="opacity:1;fill:#0c0d0c"
         inkscape:connector-curvature="0"
         id="path1552"
         d="m 113.18,84.34 c 0.02,-18.87 0.1,-37.74 -0.04,-56.6 1,0.83 2,1.67 3.01,2.49 0.18,10.22 0.06,20.43 0.08,30.65 -0.2,8.01 0.47,16.05 -0.3,24.04 -0.91,-0.21 -1.83,-0.4 -2.75,-0.58 z" />
      <path
         style="opacity:1;fill:#0c0d0c"
         inkscape:connector-curvature="0"
         id="path1554"
         d="m 160.11,27.43 c 0.41,0.1 1.23,0.29 1.64,0.39 0.41,0.88 0.8,1.77 1.16,2.68 0.47,10.09 0.06,20.21 0.22,30.32 -0.02,25.49 0.12,50.98 0,76.46 -0.18,12.69 0.1,25.38 0.07,38.06 36.12,-0.06 72.25,0.34 108.37,-0.07 19.38,-19.62 39.08,-38.92 58.36,-58.64 0.25,-0.41 0.74,-1.22 0.98,-1.62 1.96,0.02 3.91,0.09 5.87,0.2 -0.18,20.92 0.05,41.85 -0.14,62.77 0.85,-0.97 1.72,-1.94 2.61,-2.88 7.19,-7.37 14.56,-14.56 21.79,-21.88 4.86,-4.75 9.57,-9.65 14.42,-14.41 3.07,-3.06 6.1,-6.18 9.22,-9.2 2.18,-2.17 4.44,-4.28 6.35,-6.7 1.49,-0.11 2.99,-0.23 4.49,-0.35 0.59,2.44 1.02,4.93 0.91,7.45 -0.29,14.36 0.1,28.73 -0.38,43.08 -1.92,1.73 -3.65,3.65 -5.47,5.47 -16.36,16.34 -32.64,32.76 -49.05,49.04 -0.58,0.32 -1.16,0.65 -1.73,0.98 19.83,-0.29 39.68,0.08 59.51,-0.19 l 0.8,-0.71 c 7.8,-7.82 15.59,-15.66 23.37,-23.5 4.42,-4.29 8.56,-8.87 12.91,-13.23 3.37,-3.37 6.7,-6.78 10.09,-10.13 2.03,-2.05 4.07,-4.1 6.14,-6.12 2.95,-2.95 5.89,-5.93 8.87,-8.87 1.66,-1.69 3.33,-3.37 5.03,-5.03 11.35,-11.73 23.37,-22.83 34.35,-34.89 1.36,-0.57 2.75,-1.07 4.2,-1.36 2.89,0.77 2.36,4.09 2.51,6.38 -0.12,14.87 0.03,29.73 -0.1,44.6 23.91,-0.27 47.84,0.27 71.73,-0.27 18.74,-18.34 37.01,-37.15 55.61,-55.63 1.92,-1.91 3.77,-3.91 5.94,-5.55 1.32,0.06 2.65,0.14 3.98,0.26 0.58,21.31 0.22,42.64 0.27,63.95 0.86,-0.91 1.75,-1.81 2.63,-2.71 7.06,-7.26 14.33,-14.33 21.47,-21.51 2.53,-2.55 5.06,-5.1 7.6,-7.64 3.31,-3.37 6.69,-6.67 10.02,-10.02 3.73,-3.91 7.78,-7.52 11.34,-11.59 1.77,-0.98 3.79,-0.77 5.73,-0.66 0.66,14.14 0.22,28.3 0.47,42.45 -2.01,2.15 -4.08,4.26 -6.14,6.36 -0.92,0.87 -1.96,1.67 -2.86,2.53 23.55,-0.4 47.12,0.04 70.69,-0.04 30.43,0.05 60.88,0.06 91.32,0.03 l 0.28,-0.2 c 0.45,0.71 1.36,2.12 1.82,2.83 -3.11,0.62 -6.29,0.37 -9.42,0.38 -53.91,0 -107.81,0.01 -161.72,0 4.18,-4.26 8.63,-8.27 12.57,-12.74 0.65,-13.1 0.07,-26.29 0.28,-39.42 -19.81,19.7 -39.47,39.56 -59.25,59.29 0.05,-22.89 -0.05,-45.77 0.05,-68.65 -20.56,20.46 -40.98,41.08 -61.55,61.54 -25.28,-0.05 -50.56,0.01 -75.84,-0.03 0.03,-17.15 0,-34.29 0.01,-51.44 -34.69,34.78 -69.41,69.54 -103.97,104.46 -22.32,-0.06 -44.64,0.06 -66.95,-0.06 19.83,-19.95 39.75,-39.82 59.63,-59.73 0.04,-15.47 0,-30.93 0.02,-46.4 -19.81,19.92 -39.72,39.75 -59.53,59.68 0,-22.6 -0.02,-45.19 0.01,-67.79 -20.43,20.39 -40.74,40.91 -61.24,61.22 -37.47,-0.14 -74.94,0 -112.4,-0.07 0.08,-50.31 0.02,-100.62 0.03,-150.93 z" />
      <path
         style="opacity:1;fill:#0c0d0c"
         inkscape:connector-curvature="0"
         id="path1556"
         d="m 19.34,30.51 0.82,-0.06 c 0.08,2.17 0.15,4.34 0.18,6.52 0.11,55.35 0.06,110.7 0.07,166.05 -0.02,7.43 0.11,14.87 -0.17,22.3 0.48,-0.62 0.96,-1.23 1.44,-1.84 11.56,-11.72 23.21,-23.34 34.91,-34.93 0.01,-20.85 0.05,-41.71 -0.02,-62.56 0,-2.5 0.25,-5 0.69,-7.45 4.52,-0.92 9.14,-0.73 13.72,-0.65 12.06,0.01 24.12,0.22 36.18,-0.04 2.88,0.02 5.75,0.18 8.62,0.39 0.07,0.67 0.22,1.99 0.3,2.66 0.24,18.14 0.06,36.29 0.18,54.44 11.35,0 22.71,0.04 34.06,0.01 0.39,0.02 1.18,0.06 1.57,0.08 0.87,0.95 1.74,1.91 2.61,2.88 -13.78,0.15 -27.55,0.04 -41.32,0.05 0.07,-19.09 0.01,-38.17 0.03,-57.26 -17.92,0.01 -35.83,-0.01 -53.75,0.02 0.01,22.93 0.03,45.85 -0.01,68.78 -14.01,13.94 -27.99,27.92 -41.9,41.96 -0.33,-4.93 -0.13,-9.88 -0.17,-14.81 -0.01,-44.69 0,-89.38 0,-134.07 0.03,-2.68 -0.21,-5.38 0.18,-8.04 l 0.18,-0.89 c 2.53,-5.34 1.19,-11.34 1.4,-17.01 0.14,-8.85 -0.3,-17.7 0.2,-26.53 z" />
      <path
         style="opacity:1;fill:#0c0d0c"
         inkscape:connector-curvature="0"
         id="path1558"
         d="m 199.62,58.38 c 10.61,-0.17 21.23,-0.26 31.83,0.02 7.49,0.22 15.68,3.77 17.97,11.5 0.54,4.5 0.31,9.26 -2.26,13.16 -0.83,-0.07 -2.49,-0.21 -3.33,-0.28 3.91,-5.02 3.99,-13.3 -1.1,-17.55 -4.05,-3.36 -9.59,-3.83 -14.65,-3.97 -9.12,-0.18 -18.26,0.23 -27.38,-0.18 -0.84,-0.33 -1.67,-0.66 -2.5,-1.01 0.45,-0.58 0.92,-1.14 1.42,-1.69 z" />
      <path
         style="opacity:1;fill:#0c0d0c"
         inkscape:connector-curvature="0"
         id="path1560"
         d="m 198.65,114.39 c 6.04,-1.04 12.19,-0.33 18.27,-0.52 7.81,0.16 15.67,-0.5 23.42,0.7 5.14,0.83 10.53,3.11 13.39,7.69 1.92,3.42 3.04,7.8 1.15,11.49 -3.46,3.53 -7.05,6.93 -10.47,10.49 -1.05,-0.01 -3.16,-0.03 -4.21,-0.04 4.15,-4.52 8.59,-8.75 12.91,-13.1 -0.42,-3.12 -0.97,-6.48 -3.34,-8.78 -4.25,-4.6 -10.94,-5.11 -16.8,-5.37 -10.77,-0.17 -21.54,-0.03 -32.31,-0.06 -0.67,-0.83 -1.34,-1.67 -2.01,-2.5 z" />
    </g>
    <g
       id="#161616ff">
      <path
         style="opacity:1;fill:#161616"
         inkscape:connector-curvature="0"
         id="path1563"
         d="m 113.14,27.74 c 13.92,-0.14 27.84,-0.07 41.75,-0.07 -0.05,50.35 -0.04,100.71 -0.01,151.06 l -0.38,-0.42 c -0.87,-0.97 -1.74,-1.93 -2.61,-2.88 0.02,-2.56 0,-5.12 0.01,-7.68 0.04,-12.74 0.2,-25.48 -0.07,-38.22 0.17,-23.01 0.09,-46.01 0.11,-69.02 -0.01,-9.98 -0.02,-19.97 0,-29.96 -11.77,0.04 -23.54,-0.06 -35.3,0.08 l -0.49,-0.4 c -1.01,-0.82 -2.01,-1.66 -3.01,-2.49 z" />
      <path
         style="opacity:1;fill:#161616"
         inkscape:connector-curvature="0"
         id="path1565"
         d="m 198.2,60.07 c 0.83,0.35 1.66,0.68 2.5,1.01 -0.08,8.85 0,17.7 -0.04,26.54 9.12,0.03 18.25,0.05 27.38,0.01 5.57,-0.03 11.47,-1.09 15.79,-4.85 0.84,0.07 2.5,0.21 3.33,0.28 -0.32,0.55 -0.97,1.66 -1.3,2.21 -5.96,4.51 -13.6,5.49 -20.87,5.3 -7.34,-0.04 -14.69,0.05 -22.03,-0.01 -2.21,0.05 -5.48,-0.71 -5.09,-3.58 -0.15,-8.77 -0.22,-17.57 0.08,-26.34 z" />
      <path
         style="opacity:1;fill:#161616"
         inkscape:connector-curvature="0"
         id="path1567"
         d="m 198.53,114.68 0.12,-0.29 c 0.67,0.83 1.34,1.67 2.01,2.5 0.02,9.3 0,18.59 0.01,27.88 13.18,-0.26 26.39,0.61 39.53,-0.57 1.05,0.01 3.16,0.03 4.21,0.04 -2.86,3.92 -8.16,3.15 -12.43,3.49 -9.69,0 -19.38,0 -29.07,0.01 -2.25,0.12 -5.48,-0.97 -5.07,-3.77 -0.18,-6.97 0.03,-13.96 -0.07,-20.94 0.08,-2.78 -0.36,-5.72 0.76,-8.35 z" />
    </g>
    <g
       id="#2b8700ff">
      <path
         style="opacity:1;fill:#2b8700"
         inkscape:connector-curvature="0"
         id="path1570"
         d="m 20.16,30.45 0.13,-0.01 0.26,0.48 0.29,0.56 c -0.44,13.72 -0.01,27.44 -0.09,41.16 0.43,0.08 1.3,0.24 1.73,0.32 0.15,0.66 0.43,1.98 0.58,2.65 -1.17,10.46 0.73,20.94 -0.31,31.41 -0.14,30.99 0.05,61.99 -0.07,92.99 -0.2,7.82 1.25,15.81 -1,23.47 -0.48,0.61 -0.96,1.22 -1.44,1.84 0.28,-7.43 0.15,-14.87 0.17,-22.3 -0.01,-55.35 0.04,-110.7 -0.07,-166.05 -0.03,-2.18 -0.1,-4.35 -0.18,-6.52 z" />
    </g>
    <g
       id="#cfe94dff">
      <path
         style="opacity:1;fill:#cfe94d"
         inkscape:connector-curvature="0"
         id="path1573"
         d="m 20.29,30.44 c 12.18,-0.13 24.36,0 36.53,-0.16 -0.11,12.2 -0.1,24.4 -0.1,36.61 l -0.5,0.06 C 56.04,56.03 54.38,45.2 52.54,34.46 41.98,32.51 31.29,31.3 20.55,30.92 Z" />
    </g>
    <g
       id="#b1dd4dff">
      <path
         style="opacity:1;fill:#b1dd4d"
         inkscape:connector-curvature="0"
         id="path1576"
         d="m 20.55,30.92 c 10.74,0.38 21.43,1.59 31.99,3.54 1.84,10.74 3.5,21.57 3.68,32.49 -0.68,0.08 -2.06,0.25 -2.75,0.33 C 52.26,59.46 45.23,55.11 40.26,49.73 34.29,44.06 29.02,37.59 22.22,32.87 21.87,32.52 21.19,31.83 20.84,31.48 Z" />
    </g>
    <g
       id="#b5c64dff">
      <path
         style="opacity:1;fill:#b5c64d"
         inkscape:connector-curvature="0"
         id="path1579"
         d="m 116.15,30.23 0.49,0.4 c 1.48,2.51 2.15,5.39 2.05,8.3 -0.04,7.39 -0.02,14.79 -0.11,22.19 -0.58,-0.06 -1.76,-0.18 -2.35,-0.24 -0.02,-10.22 0.1,-20.43 -0.08,-30.65 z" />
      <path
         style="opacity:1;fill:#b5c64d"
         inkscape:connector-curvature="0"
         id="path1581"
         d="m 162.91,30.5 0.82,0.04 c 1.23,2.65 2.01,5.52 1.93,8.46 -0.03,7.28 -0.09,14.56 -0.05,21.84 -0.62,-0.01 -1.86,-0.02 -2.48,-0.02 -0.16,-10.11 0.25,-20.23 -0.22,-30.32 z" />
    </g>
    <g
       id="#7fb74cff">
      <path
         style="opacity:1;fill:#7fb74c"
         inkscape:connector-curvature="0"
         id="path1584"
         d="m 20.84,31.48 c 0.35,0.35 1.03,1.04 1.38,1.39 0.37,4.58 0.58,9.18 1.05,13.76 -0.68,8.67 0.03,17.35 0.63,26.01 -0.36,0.08 -1.06,0.24 -1.42,0.32 -0.43,-0.08 -1.3,-0.24 -1.73,-0.32 C 20.83,58.92 20.4,45.2 20.84,31.48 Z" />
    </g>
    <g
       id="#9cd74dff">
      <path
         style="opacity:1;fill:#9cd74d"
         inkscape:connector-curvature="0"
         id="path1587"
         d="m 22.22,32.87 c 6.8,4.72 12.07,11.19 18.04,16.86 4.97,5.38 12,9.73 13.21,17.55 -2.79,0.35 -5.57,0.72 -8.34,1.19 -1.76,0.32 -3.52,0.67 -5.27,1.01 C 34.61,67.28 31.15,62.63 27.3,58.68 24.07,55.54 24.05,50.76 23.27,46.63 22.8,42.05 22.59,37.45 22.22,32.87 Z" />
    </g>
    <g
       id="#88d04dff">
      <path
         style="opacity:1;fill:#88d04d"
         inkscape:connector-curvature="0"
         id="path1590"
         d="m 23.27,46.63 c 0.78,4.13 0.8,8.91 4.03,12.05 3.85,3.95 7.31,8.6 12.56,10.8 -3.61,0.67 -7.24,1.23 -10.84,1.95 -1.71,0.38 -3.42,0.8 -5.12,1.21 C 23.3,63.98 22.59,55.3 23.27,46.63 Z" />
    </g>
    <g
       id="#a4d600ff">
      <path
         style="opacity:1;fill:#a4d600"
         inkscape:connector-curvature="0"
         id="path1593"
         d="m 637.25,58.9 c 2.1,-2.08 4.21,-4.17 6.31,-6.26 0.48,0.02 1.44,0.05 1.92,0.07 2.37,6.14 8.06,9.87 12.41,14.49 3.01,3.23 6.49,6.05 9.09,9.63 1.48,3.34 1.66,7.09 2.97,10.49 1.11,3.15 5.53,4.3 7.1,0.85 1.07,-1.16 2.08,-2.39 3.18,-3.54 0.13,2.48 -0.09,5.35 2.02,7.13 4.79,4.78 9.27,9.86 14.11,14.59 6.69,5.71 12.53,12.32 18.8,18.48 12.17,12.17 23.89,24.8 36.59,36.43 2.96,2.71 5.33,6.01 8.44,8.56 2.43,1.65 5.49,1.89 8.31,2.44 l 1.19,0.18 c -8.42,0.67 -16.86,0 -25.29,0.02 -4.02,-0.82 -8.77,-0.81 -11.8,-3.97 -4.33,-4.41 -8.73,-8.75 -12.95,-13.25 -2.87,-3.09 -6.44,-5.46 -9.09,-8.74 -1.92,-3.03 -2.76,-6.59 -3.88,-9.96 -0.2,-3.96 0.2,-7.97 -0.46,-11.89 -0.63,-2.73 -3.68,-3.37 -6.08,-3.08 -2.46,-0.05 -5.43,0.62 -7.17,-1.63 C 685.51,112.1 677.7,104.6 670.11,96.88 660.26,86.4 649.72,76.6 639.59,66.4 c -2.22,-1.88 -2.39,-4.81 -2.34,-7.5 z" />
    </g>
    <g
       id="#b6dc00ff">
      <path
         style="opacity:1;fill:#b6dc00"
         inkscape:connector-curvature="0"
         id="path1596"
         d="m 645.48,52.71 c 3.99,0.11 7.98,0.1 11.97,0.12 3.8,4.46 9.36,8.01 10.66,14.09 1.52,6.68 1.86,13.57 1.84,20.4 -1.31,-3.4 -1.49,-7.15 -2.97,-10.49 -2.6,-3.58 -6.08,-6.4 -9.09,-9.63 -4.35,-4.62 -10.04,-8.35 -12.41,-14.49 z" />
    </g>
    <g
       id="#c6e300ff">
      <path
         style="opacity:1;fill:#c6e300"
         inkscape:connector-curvature="0"
         id="path1599"
         d="m 657.45,52.83 c 4.81,0.02 9.63,0.04 14.44,0.06 0.13,11.02 -0.32,22.07 0.12,33.08 0.18,2.52 3.24,2.09 5.04,2.2 -1.57,3.45 -5.99,2.3 -7.1,-0.85 0.02,-6.83 -0.32,-13.72 -1.84,-20.4 -1.3,-6.08 -6.86,-9.63 -10.66,-14.09 z" />
    </g>
    <g
       id="#cce400ff">
      <path
         style="opacity:1;fill:#cce400"
         inkscape:connector-curvature="0"
         id="path1602"
         d="m 694.7,70.26 c 5.42,-5.58 11.01,-10.99 16.45,-16.55 9.7,0.29 19.41,0.68 29.11,1.12 -0.07,23.06 0.06,46.12 -0.09,69.16 0.27,2.02 2.98,2.56 4.56,1.77 2.42,-1.54 4.23,-3.82 6.28,-5.8 20.18,-20.26 40.44,-40.45 60.62,-60.72 14.66,1.27 29.33,2.57 43.96,4.21 -4.23,4.42 -8.9,8.45 -12.85,13.12 -1.59,1.71 -0.51,4.04 0.86,5.48 8.74,-1.1 17.57,-0.07 26.34,-0.64 -11.14,10.24 -21.51,21.31 -32.28,31.94 -3.16,-0.84 -6.42,-1.22 -9.68,-1.09 -7.98,0.22 -15.97,-0.26 -23.93,0.38 -0.34,1.08 -0.7,2.16 -1.07,3.24 -6.41,6.95 -13.35,13.39 -19.93,20.18 -0.99,1.23 -2.85,2.86 -1.73,4.56 1.46,2.13 4.43,1.64 6.67,1.83 34.36,-0.17 68.74,0.2 103.1,-0.18 -11.61,10.54 -22.2,22.18 -33.53,33.02 l -0.28,0.2 c -0.37,-0.52 -1.11,-1.57 -1.48,-2.1 -22.26,-0.02 -44.51,0.03 -66.77,-0.03 -6.45,-0.31 -12.88,-1 -19.34,-0.92 l -1.19,-0.18 c 6.82,-0.39 13.66,-0.48 20.49,-0.62 -2.66,-0.48 -5.44,-0.66 -7.92,-1.79 -2.79,-1.8 -4.69,-4.6 -7.08,-6.85 -9.78,-8.87 -18.33,-19.01 -28.28,-27.71 -6.12,-5.22 -11.25,-11.45 -16.98,-17.07 -8.13,-9.8 -18.34,-17.6 -26.56,-27.34 -3.26,-4.13 -7.39,-7.39 -11.77,-10.25 1.62,-3.38 2.99,-6.87 4.3,-10.37 z" />
      <path
         style="opacity:1;fill:#cce400"
         inkscape:connector-curvature="0"
         id="path1604"
         d="m 119.87,61.05 c 10.68,-0.44 21.38,-0.64 32.07,-0.54 -0.02,23.01 0.06,46.01 -0.11,69.02 l -0.04,1.07 c -1.51,-6.93 -1.61,-14.09 -3.26,-20.99 -1.25,-5.41 -6.26,-8.51 -9.78,-12.37 -4.83,-5.18 -9.97,-10.05 -14.87,-15.15 -5.8,-5.43 -3.15,-14.04 -4.01,-21.04 z" />
      <path
         style="opacity:1;fill:#cce400"
         inkscape:connector-curvature="0"
         id="path1606"
         d="m 165.61,60.84 c 10.48,0.35 20.93,1.27 31.39,2.02 0.24,-0.55 0.72,-1.66 0.95,-2.22 -0.3,8.77 -0.23,17.57 -0.08,26.34 -0.39,2.87 2.88,3.63 5.09,3.58 7.34,0.06 14.69,-0.03 22.03,0.01 7.27,0.19 14.91,-0.79 20.87,-5.3 1.61,-1.08 3.73,-1.69 4.71,-3.49 1.98,-3.38 1.87,-7.42 2.16,-11.19 10.34,1.82 20.67,3.73 30.95,5.89 -2.56,8.72 -9.94,15.2 -17.88,19.09 -1.77,0.89 -4.12,2.12 -3.81,4.49 1.46,2.83 4.88,3.19 7.51,4.39 3.21,1.17 5.99,3.43 9.4,4.08 1.75,-0.6 3.09,-1.94 4.41,-3.19 5.76,-5.81 11.52,-11.63 17.32,-17.4 2.45,-0.79 4.93,-1.84 7.54,-1.86 5.4,4.15 9.39,9.85 14.51,14.35 2.66,2.81 6.16,4.74 8.59,7.76 -0.09,2.86 -0.95,5.62 -1.34,8.44 -19.28,19.72 -38.98,39.02 -58.36,58.64 -1.08,-0.71 -2.03,-1.91 -3.46,-1.75 -22.83,-0.19 -45.67,0.3 -68.49,-0.32 l 1.14,-0.2 c 1.96,-0.33 3.89,-0.79 5.84,-1.21 -3.45,-1.02 -7.48,-1.44 -9.85,-4.5 -7.97,-9.39 -17.06,-17.74 -25.95,-26.24 -2.94,-2.68 -3.66,-6.76 -4.42,-10.47 -0.1,-5.22 -0.79,-10.41 -0.77,-15.63 0,-18.04 -0.03,-36.08 0,-54.11 m 33.16,50.87 c -0.08,0.99 -0.16,1.98 -0.24,2.97 -1.12,2.63 -0.68,5.57 -0.76,8.35 0.1,6.98 -0.11,13.97 0.07,20.94 -0.41,2.8 2.82,3.89 5.07,3.77 9.69,-0.01 19.38,-0.01 29.07,-0.01 4.27,-0.34 9.57,0.43 12.43,-3.49 3.42,-3.56 7.01,-6.96 10.47,-10.49 1.47,-0.4 3.39,-1.08 3.54,-2.87 0.46,-4.62 -1.35,-9.39 -4.45,-12.8 -5.45,-5.39 -13.53,-6.79 -20.92,-6.65 -11.43,0.18 -22.87,-0.3 -34.28,0.28 z" />
      <path
         style="opacity:1;fill:#cce400"
         inkscape:connector-curvature="0"
         id="path1608"
         d="m 390.58,178.56 c 2.43,-0.52 5.52,-1.92 7.58,0.24 8.92,7.96 17.03,16.77 25.32,25.38 -7.78,7.84 -15.57,15.68 -23.37,23.5 -2.22,-1.11 -4.55,-2.21 -7.1,-2.05 -13.35,0.04 -26.71,0.08 -40.05,0 -3.89,-0.01 -7.76,0.69 -11.43,1.97 16.41,-16.28 32.69,-32.7 49.05,-49.04 z" />
    </g>
    <g
       id="#a4d94dff">
      <path
         style="opacity:1;fill:#a4d94d"
         inkscape:connector-curvature="0"
         id="path1611"
         d="m 320.97,67.39 c 4.39,-4.42 8.87,-8.75 13.21,-13.21 7.68,4.62 13.29,11.86 19.33,18.34 -6.48,0.81 -12.93,1.87 -19.42,2.61 -0.38,0.05 -1.12,0.14 -1.49,0.18 -2.83,-3.86 -6.22,-8.46 -11.63,-7.92 z" />
    </g>
    <g
       id="#3cb300ff">
      <path
         style="opacity:1;fill:#3cb300"
         inkscape:connector-curvature="0"
         id="path1614"
         d="m 438.72,130.34 c 25.09,-25.05 50.11,-50.18 75.22,-75.22 -0.5,0.56 -1.51,1.69 -2.02,2.25 10,-0.61 20,-1.14 30,-1.63 -0.25,27.74 0.02,55.49 -0.17,83.24 0.1,2.99 -0.07,6.18 1.3,8.93 0.9,2.06 3.48,1.58 5.28,2 0.51,-0.97 1.05,-1.92 1.62,-2.86 3.28,-4.35 7.5,-7.88 11.22,-11.85 14.75,-14.82 29.56,-29.57 44.3,-44.4 0.87,2.79 1.69,5.79 3.94,7.83 3.2,3.11 5.92,6.69 9.39,9.51 3.17,2.5 5.11,6.3 8.6,8.43 2.25,1.48 4.86,2.26 7.42,3.06 -18.6,18.48 -36.87,37.29 -55.61,55.63 -1.51,-1.18 -3.07,-2.63 -5.14,-2.48 -8.02,-0.35 -16.04,0.1 -24.06,0.2 -13.2,-0.66 -26.43,-0.05 -39.64,-0.33 -0.15,-13.56 -0.02,-27.12 -0.02,-40.67 -0.14,-2.72 -0.11,-5.6 -1.36,-8.08 -0.95,-1.72 -3.17,-1.67 -4.85,-1.51 -2.02,-0.13 -2.29,2.28 -3.27,3.52 -10.98,12.06 -23,23.16 -34.35,34.89 -0.37,-1.93 -0.29,-4.1 -1.62,-5.68 -4.71,-6.08 -11.3,-10.38 -15.85,-16.61 -2.62,-3.64 -6.31,-6.27 -10.33,-8.17 z" />
      <path
         style="opacity:1;fill:#3cb300"
         inkscape:connector-curvature="0"
         id="path1616"
         d="m 23.06,75.61 c 0.79,3.23 1.11,6.66 2.68,9.65 4.02,6.21 10.45,10.19 15.49,15.47 3.6,3.76 7.35,7.38 10.78,11.3 1.5,1.78 3.45,3.26 5.84,3.49 -0.2,1 -0.41,2 -0.59,3.02 -0.44,2.45 -0.69,4.95 -0.69,7.45 0.07,20.85 0.03,41.71 0.02,62.56 -11.7,11.59 -23.35,23.21 -34.91,34.93 2.25,-7.66 0.8,-15.65 1,-23.47 0.12,-31 -0.07,-62 0.07,-92.99 1.04,-10.47 -0.86,-20.95 0.31,-31.41 z" />
    </g>
    <g
       id="#afc14dff">
      <path
         style="opacity:1;fill:#afc14d"
         inkscape:connector-curvature="0"
         id="path1619"
         d="m 199.62,58.38 c 0.8,-0.89 1.61,-1.77 2.42,-2.66 8.32,-0.22 16.64,-0.05 24.97,-0.13 6.9,0.15 14.44,0.91 19.95,5.49 2.93,2.28 3.99,5.98 5.05,9.37 -0.65,-0.14 -1.94,-0.41 -2.59,-0.55 -2.29,-7.73 -10.48,-11.28 -17.97,-11.5 -10.6,-0.28 -21.22,-0.19 -31.83,-0.02 z" />
    </g>
    <g
       id="#87cb00ff">
      <path
         style="opacity:1;fill:#87cb00"
         inkscape:connector-curvature="0"
         id="path1622"
         d="m 623.25,72.96 c 4.75,-4.6 9.32,-9.38 14,-14.06 -0.05,2.69 0.12,5.62 2.34,7.5 10.13,10.2 20.67,20 30.52,30.48 7.59,7.72 15.4,15.22 22.86,23.06 1.74,2.25 4.71,1.58 7.17,1.63 -0.68,1.09 -1.36,2.19 -2.07,3.25 -3.56,4.07 -7.61,7.68 -11.34,11.59 -8.95,-2.86 -13.95,-11.43 -20.74,-17.29 -13.42,-13.3 -26.62,-26.82 -40.09,-40.07 -1.8,-1.54 -2.32,-3.86 -2.65,-6.09 z" />
    </g>
    <g
       id="#8fac00ff">
      <path
         style="opacity:1;fill:#8fac00"
         inkscape:connector-curvature="0"
         id="path1625"
         d="m 116.23,60.88 c 0.59,0.06 1.77,0.18 2.35,0.24 -0.23,8.37 0.39,16.75 -0.22,25.11 -1.07,0.19 -2.15,0.37 -3.23,0.54 0.2,-0.46 0.6,-1.39 0.8,-1.85 0.77,-7.99 0.1,-16.03 0.3,-24.04 z" />
    </g>
    <g
       id="#b9dd00ff">
      <path
         style="opacity:1;fill:#b9dd00"
         inkscape:connector-curvature="0"
         id="path1628"
         d="m 118.58,61.12 1.29,-0.07 c 0.86,7 -1.79,15.61 4.01,21.04 4.9,5.1 10.04,9.97 14.87,15.15 3.52,3.86 8.53,6.96 9.78,12.37 1.65,6.9 1.75,14.06 3.26,20.99 -0.33,5.94 0.2,11.96 -1.21,17.79 -0.9,-4 -1.4,-8.08 -1.61,-12.17 -0.27,-5.26 0.48,-11.48 -3.66,-15.52 -7.58,-7.76 -15.68,-15.01 -23.03,-23 -2.1,-2.17 -4.07,-4.56 -6.7,-6.1 -3.62,-1.94 -7.85,-1.33 -11.79,-1.51 -4.44,-0.16 -8.86,-0.74 -13.21,-1.7 4.49,-0.83 9.05,-1.25 13.62,-1.3 3.64,-0.03 7.3,0.08 10.93,-0.32 1.08,-0.17 2.16,-0.35 3.23,-0.54 0.61,-8.36 -0.01,-16.74 0.22,-25.11 z" />
    </g>
    <g
       id="#95ae00ff">
      <path
         style="opacity:1;fill:#95ae00"
         inkscape:connector-curvature="0"
         id="path1631"
         d="m 163.13,60.82 c 0.62,0 1.86,0.01 2.48,0.02 -0.03,18.03 0,36.07 0,54.11 -0.02,5.22 0.67,10.41 0.77,15.63 -0.33,1.58 -0.71,3.14 -1.03,4.72 -0.17,-0.57 -0.52,-1.73 -0.69,-2.3 -0.53,1.42 -1.06,2.84 -1.53,4.28 0.12,-25.48 -0.02,-50.97 0,-76.46 z" />
    </g>
    <g
       id="#78c800ff">
      <path
         style="opacity:1;fill:#78c800"
         inkscape:connector-curvature="0"
         id="path1634"
         d="m 45.13,68.47 c 2.77,-0.47 5.55,-0.84 8.34,-1.19 0.69,-0.08 2.07,-0.25 2.75,-0.33 l 0.5,-0.06 c 0.09,5.06 -0.13,10.11 -0.01,15.17 0.14,1.63 0,3.67 1.57,4.68 4,0.6 8.06,0.27 12.08,0.38 -2.43,0.43 -4.84,1.01 -7.26,1.55 5.79,0.58 11.63,0.75 17.36,1.76 3.06,0.43 5.45,2.52 7.48,4.7 4.81,5.18 9.78,10.21 14.82,15.19 2.6,2.65 6.21,3.87 9.72,4.78 -5.08,0.33 -10.17,0.39 -15.26,0.15 -7.03,-1.53 -11.08,-7.8 -16,-12.42 C 77.79,99.56 74.73,95.91 71.16,92.78 66.99,89.23 60.86,91.27 56.27,88.78 52.22,84.02 54.28,76.59 50.31,71.71 48.9,70.19 46.92,69.42 45.13,68.47 Z" />
    </g>
    <g
       id="#b9e04dff">
      <path
         style="opacity:1;fill:#b9e04d"
         inkscape:connector-curvature="0"
         id="path1637"
         d="m 320.97,67.39 c 5.41,-0.54 8.8,4.06 11.63,7.92 -4.4,0.53 -8.76,1.25 -13.13,1.87 -3.02,0.4 -6.05,0.64 -9.08,0.88 3.44,-3.63 7.09,-7.07 10.58,-10.67 z" />
    </g>
    <g
       id="#5cbe00ff">
      <path
         style="opacity:1;fill:#5cbe00"
         inkscape:connector-curvature="0"
         id="path1640"
         d="m 39.86,69.48 c 1.75,-0.34 3.51,-0.69 5.27,-1.01 1.79,0.95 3.77,1.72 5.18,3.24 3.97,4.88 1.91,12.31 5.96,17.07 4.59,2.49 10.72,0.45 14.89,4 3.57,3.13 6.63,6.78 10.06,10.05 4.92,4.62 8.97,10.89 16,12.42 -3.86,-0.05 -7.71,0.24 -11.57,0.33 -2.46,-0.07 -4.92,-0.11 -7.39,-0.19 -3.79,-1.43 -7.63,-3.13 -10.5,-6.09 C 61.09,102.25 54.07,95.55 47.34,88.56 40.96,83.13 36.04,76.12 29.02,71.43 c 3.6,-0.72 7.23,-1.28 10.84,-1.95 z" />
    </g>
    <g
       id="#a1b900ff">
      <path
         style="opacity:1;fill:#a1b900"
         inkscape:connector-curvature="0"
         id="path1643"
         d="m 249.42,69.9 c 0.65,0.14 1.94,0.41 2.59,0.55 0.18,0.04 0.54,0.1 0.72,0.14 -0.29,3.77 -0.18,7.81 -2.16,11.19 -0.98,1.8 -3.1,2.41 -4.71,3.49 0.33,-0.55 0.98,-1.66 1.3,-2.21 2.57,-3.9 2.8,-8.66 2.26,-13.16 z" />
    </g>
    <g
       id="#7bc800ff">
      <path
         style="opacity:1;fill:#7bc800"
         inkscape:connector-curvature="0"
         id="path1646"
         d="m 353.51,72.52 c 3.44,-0.42 6.89,-0.82 10.34,-1.26 0.02,4.26 -0.17,8.53 0.06,12.78 -0.23,1.49 0.7,2.77 2.2,3.02 5.29,0.89 8.07,5.75 11.65,9.17 23.79,23.54 47.17,47.48 71.09,70.89 2.29,1.91 3.23,4.75 3.77,7.58 -2.07,2.02 -4.11,4.07 -6.14,6.12 -1.08,-5.58 -5.97,-8.81 -9.69,-12.58 -9.4,-8.94 -18.09,-18.59 -27.62,-27.4 -2.88,-2.89 -5.62,-5.93 -8.58,-8.74 -0.44,1.4 -0.89,2.8 -1.27,4.21 -0.15,-4.54 0.48,-9.28 -0.97,-13.66 -1.01,-2.43 -3.93,-2.15 -6.08,-2.38 -0.31,0.66 -0.93,1.98 -1.24,2.64 -1.91,2.42 -4.17,4.53 -6.35,6.7 -2.09,-7.46 -9.67,-11.18 -14.25,-16.97 -11.15,-13.43 -25.56,-23.76 -36.34,-37.51 6.49,-0.74 12.94,-1.8 19.42,-2.61 z" />
    </g>
    <g
       id="#bade00ff">
      <path
         style="opacity:1;fill:#bade00"
         inkscape:connector-curvature="0"
         id="path1649"
         d="m 680.23,84.63 c 4.86,-4.75 9.58,-9.64 14.47,-14.37 -1.31,3.5 -2.68,6.99 -4.3,10.37 4.38,2.86 8.51,6.12 11.77,10.25 8.22,9.74 18.43,17.54 26.56,27.34 5.73,5.62 10.86,11.85 16.98,17.07 9.95,8.7 18.5,18.84 28.28,27.71 2.39,2.25 4.29,5.05 7.08,6.85 2.48,1.13 5.26,1.31 7.92,1.79 -6.83,0.14 -13.67,0.23 -20.49,0.62 -2.82,-0.55 -5.88,-0.79 -8.31,-2.44 -3.11,-2.55 -5.48,-5.85 -8.44,-8.56 -12.7,-11.63 -24.42,-24.26 -36.59,-36.43 -6.27,-6.16 -12.11,-12.77 -18.8,-18.48 -4.84,-4.73 -9.32,-9.81 -14.11,-14.59 -2.11,-1.78 -1.89,-4.65 -2.02,-7.13 z" />
    </g>
    <g
       id="#47b600ff">
      <path
         style="opacity:1;fill:#47b600"
         inkscape:connector-curvature="0"
         id="path1652"
         d="m 23.9,72.64 c 1.7,-0.41 3.41,-0.83 5.12,-1.21 7.02,4.69 11.94,11.7 18.32,17.13 6.73,6.99 13.75,13.69 20.42,20.74 2.87,2.96 6.71,4.66 10.5,6.09 -6.8,0.03 -13.61,-0.12 -20.41,0.13 -2.39,-0.23 -4.34,-1.71 -5.84,-3.49 -3.43,-3.92 -7.18,-7.54 -10.78,-11.3 -5.04,-5.28 -11.47,-9.26 -15.49,-15.47 -1.57,-2.99 -1.89,-6.42 -2.68,-9.65 -0.15,-0.67 -0.43,-1.99 -0.58,-2.65 0.36,-0.08 1.06,-0.24 1.42,-0.32 z" />
    </g>
    <g
       id="#66c100ff">
      <path
         style="opacity:1;fill:#66c100"
         inkscape:connector-curvature="0"
         id="path1655"
         d="m 614.68,81.57 c 2.88,-2.84 5.72,-5.74 8.57,-8.61 0.33,2.23 0.85,4.55 2.65,6.09 13.47,13.25 26.67,26.77 40.09,40.07 6.79,5.86 11.79,14.43 20.74,17.29 -3.33,3.35 -6.71,6.65 -10.02,10.02 -2.95,-0.71 -5.84,-1.91 -7.8,-4.34 -5.15,-5.84 -10.98,-11.02 -16.35,-16.66 -3.17,-3.02 -3.8,-7.5 -5.35,-11.39 -0.4,-0.5 -1.2,-1.51 -1.6,-2.01 -10.87,-3.95 -16.23,-14.9 -24.88,-21.77 -2.88,-2.21 -4.57,-5.46 -6.05,-8.69 z" />
    </g>
    <g
       id="#9cd300ff">
      <path
         style="opacity:1;fill:#9cd300"
         inkscape:connector-curvature="0"
         id="path1658"
         d="m 319.47,77.18 c 4.37,-0.62 8.73,-1.34 13.13,-1.87 0.37,-0.04 1.11,-0.13 1.49,-0.18 10.78,13.75 25.19,24.08 36.34,37.51 4.58,5.79 12.16,9.51 14.25,16.97 -3.12,3.02 -6.15,6.14 -9.22,9.2 -0.63,-3.32 -1.86,-6.58 -4.51,-8.81 -10.32,-9.66 -19.5,-20.44 -29.56,-30.35 -6.8,-8 -15.9,-13.79 -21.92,-22.47 z" />
    </g>
    <g
       id="#b3db00ff">
      <path
         style="opacity:1;fill:#b3db00"
         inkscape:connector-curvature="0"
         id="path1661"
         d="m 310.39,78.06 c 3.03,-0.24 6.06,-0.48 9.08,-0.88 6.02,8.68 15.12,14.47 21.92,22.47 10.06,9.91 19.24,20.69 29.56,30.35 2.65,2.23 3.88,5.49 4.51,8.81 -4.85,4.76 -9.56,9.66 -14.42,14.41 1.11,-2.34 2.02,-4.77 2.96,-7.19 -2.22,-3.42 -5.06,-6.38 -8.29,-8.84 -5.35,-4.1 -9.15,-9.8 -14.45,-13.96 -0.27,2.6 -0.53,5.2 -0.76,7.8 -0.11,-4.47 -0.36,-8.95 -0.93,-13.4 -0.12,-1.99 -0.79,-4.35 -2.95,-4.98 -1.47,-0.2 -2.95,-0.12 -4.42,-0.11 -0.32,0.62 -0.97,1.85 -1.29,2.47 -0.24,0.4 -0.73,1.21 -0.98,1.62 0.39,-2.82 1.25,-5.58 1.34,-8.44 -2.43,-3.02 -5.93,-4.95 -8.59,-7.76 -5.12,-4.5 -9.11,-10.2 -14.51,-14.35 -2.61,0.02 -5.09,1.07 -7.54,1.86 3.2,-3.34 6.47,-6.62 9.76,-9.88 z" />
    </g>
    <g
       id="#5dbe00ff">
      <path
         style="opacity:1;fill:#5dbe00"
         inkscape:connector-curvature="0"
         id="path1664"
         d="m 368.84,86.88 c 4.02,-3.17 7.29,-7.19 11.02,-10.7 2.74,1.08 5.62,2.12 7.74,4.26 8.31,8.34 16.27,17.01 24.69,25.23 5.2,5.23 9.97,10.93 15.78,15.52 0.59,-2.49 1.21,-4.97 1.87,-7.43 3.33,4.52 1.64,10.42 2.27,15.61 -0.31,2.57 2.83,2.87 4.69,2.54 0.23,2.23 -0.19,4.85 1.62,6.56 6.49,7.17 13.73,13.62 20.34,20.67 1.93,1.72 2.81,4.14 2.63,6.69 -2.98,2.94 -5.92,5.92 -8.87,8.87 -0.54,-2.83 -1.48,-5.67 -3.77,-7.58 -23.92,-23.41 -47.3,-47.35 -71.09,-70.89 -3.58,-3.42 -6.36,-8.28 -11.65,-9.17 0.68,-0.05 2.05,-0.14 2.73,-0.18 z" />
    </g>
    <g
       id="#50ba00ff">
      <path
         style="opacity:1;fill:#50ba00"
         inkscape:connector-curvature="0"
         id="path1667"
         d="m 605.47,90.8 c 3.09,-3.06 6.13,-6.15 9.21,-9.23 1.48,3.23 3.17,6.48 6.05,8.69 8.65,6.87 14.01,17.82 24.88,21.77 -1.73,0.39 -3.51,0.8 -4.85,2.05 -2.17,1.64 -4.02,3.64 -5.94,5.55 -2.56,-0.8 -5.17,-1.58 -7.42,-3.06 -3.49,-2.13 -5.43,-5.93 -8.6,-8.43 -3.47,-2.82 -6.19,-6.4 -9.39,-9.51 -2.25,-2.04 -3.07,-5.04 -3.94,-7.83 z" />
    </g>
    <g
       id="#94d000ff">
      <path
         style="opacity:1;fill:#94d000"
         inkscape:connector-curvature="0"
         id="path1670"
         d="M 70.36,87.12 C 81.64,87 92.92,86.97 104.2,87.09 c -4.57,0.05 -9.13,0.47 -13.62,1.3 4.35,0.96 8.77,1.54 13.21,1.7 5.27,2.08 8.22,7.16 12.32,10.75 6.48,5.87 12.52,12.17 18.49,18.55 5,5.4 11.61,9.72 14.37,16.83 0.21,4.09 0.71,8.17 1.61,12.17 1.41,-5.83 0.88,-11.85 1.21,-17.79 l 0.04,-1.07 c 0.27,12.74 0.11,25.48 0.07,38.22 -0.51,1.8 -1.12,3.56 -1.72,5.32 -1.39,-6.66 0.12,-14.82 -5.26,-19.96 -6.6,-6.39 -12.82,-13.16 -19.4,-19.58 -2.87,-2.72 -5.25,-6 -6.32,-9.84 -0.41,-2.38 -0.43,-5 -1.88,-7.04 -1.45,-0.92 -3.2,-1.16 -4.84,-1.55 -3.51,-0.91 -7.12,-2.13 -9.72,-4.78 -5.04,-4.98 -10.01,-10.01 -14.82,-15.19 -2.03,-2.18 -4.42,-4.27 -7.48,-4.7 -5.73,-1.01 -11.57,-1.18 -17.36,-1.76 2.42,-0.54 4.83,-1.12 7.26,-1.55 z" />
    </g>
    <g
       id="#aad800ff">
      <path
         style="opacity:1;fill:#aad800"
         inkscape:connector-curvature="0"
         id="path1673"
         d="m 103.79,90.09 c 3.94,0.18 8.17,-0.43 11.79,1.51 2.63,1.54 4.6,3.93 6.7,6.1 7.35,7.99 15.45,15.24 23.03,23 4.14,4.04 3.39,10.26 3.66,15.52 -2.76,-7.11 -9.37,-11.43 -14.37,-16.83 -5.97,-6.38 -12.01,-12.68 -18.49,-18.55 -4.1,-3.59 -7.05,-8.67 -12.32,-10.75 z" />
    </g>
    <g
       id="#90a900ff">
      <path
         style="opacity:1;fill:#90a900"
         inkscape:connector-curvature="0"
         id="path1676"
         d="m 198.77,111.71 c 11.41,-0.58 22.85,-0.1 34.28,-0.28 7.39,-0.14 15.47,1.26 20.92,6.65 3.1,3.41 4.91,8.18 4.45,12.8 -0.15,1.79 -2.07,2.47 -3.54,2.87 1.89,-3.69 0.77,-8.07 -1.15,-11.49 -2.86,-4.58 -8.25,-6.86 -13.39,-7.69 -7.75,-1.2 -15.61,-0.54 -23.42,-0.7 -6.08,0.19 -12.23,-0.52 -18.27,0.52 l -0.12,0.29 c 0.08,-0.99 0.16,-1.98 0.24,-2.97 z" />
    </g>
    <g
       id="#89aa00ff">
      <path
         style="opacity:1;fill:#89aa00"
         inkscape:connector-curvature="0"
         id="path1679"
         d="m 332.2,112.54 c 1.47,-0.01 2.95,-0.09 4.42,0.11 2.16,0.63 2.83,2.99 2.95,4.98 -0.27,15.13 -0.26,30.25 -0.19,45.38 0,4.03 -0.97,8.08 -0.13,12.09 -0.89,0.94 -1.76,1.91 -2.61,2.88 0.19,-20.92 -0.04,-41.85 0.14,-62.77 -1.96,-0.11 -3.91,-0.18 -5.87,-0.2 0.32,-0.62 0.97,-1.85 1.29,-2.47 z" />
    </g>
    <g
       id="#2d8900ff">
      <path
         style="opacity:1;fill:#2d8900"
         inkscape:connector-curvature="0"
         id="path1682"
         d="m 640.76,114.08 c 1.34,-1.25 3.12,-1.66 4.85,-2.05 0.4,0.5 1.2,1.51 1.6,2.01 0.22,6.56 0.17,13.11 0.34,19.67 0.03,13.96 0.03,27.91 0.09,41.87 -0.88,0.9 -1.77,1.8 -2.63,2.71 -0.05,-21.31 0.31,-42.64 -0.27,-63.95 -1.33,-0.12 -2.66,-0.2 -3.98,-0.26 z" />
    </g>
    <g
       id="#94ad00ff">
      <path
         style="opacity:1;fill:#94ad00"
         inkscape:connector-curvature="0"
         id="path1685"
         d="m 804.05,112.64 c 7.96,-0.64 15.95,-0.16 23.93,-0.38 3.26,-0.13 6.52,0.25 9.68,1.09 -0.31,0.29 -0.93,0.87 -1.24,1.16 -7.49,0.16 -14.98,0.02 -22.47,0.03 -3.67,0.07 -7.6,-0.48 -10.97,1.34 0.37,-1.08 0.73,-2.16 1.07,-3.24 z" />
    </g>
    <g
       id="#4eb900ff">
      <path
         style="opacity:1;fill:#4eb900"
         inkscape:connector-curvature="0"
         id="path1688"
         d="m 647.21,114.04 c 1.55,3.89 2.18,8.37 5.35,11.39 5.37,5.64 11.2,10.82 16.35,16.66 1.96,2.43 4.85,3.63 7.8,4.34 -2.54,2.54 -5.07,5.09 -7.6,7.64 -2.45,-0.34 -5.37,0.03 -7.22,-1.93 -5.52,-5.52 -11.94,-10.67 -14.34,-18.43 -0.17,-6.56 -0.12,-13.11 -0.34,-19.67 z" />
    </g>
    <g
       id="#398e00ff">
      <path
         style="opacity:1;fill:#398e00"
         inkscape:connector-curvature="0"
         id="path1691"
         d="m 57.85,115.52 c 6.8,-0.25 13.61,-0.1 20.41,-0.13 2.47,0.08 4.93,0.12 7.39,0.19 7.15,0.9 14.29,2.06 21.51,2.27 -12.06,0.26 -24.12,0.05 -36.18,0.04 -4.58,-0.08 -9.2,-0.27 -13.72,0.65 0.18,-1.02 0.39,-2.02 0.59,-3.02 z" />
    </g>
    <g
       id="#629b00ff">
      <path
         style="opacity:1;fill:#629b00"
         inkscape:connector-curvature="0"
         id="path1694"
         d="m 85.65,115.58 c 3.86,-0.09 7.71,-0.38 11.57,-0.33 5.09,0.24 10.18,0.18 15.26,-0.15 1.64,0.39 3.39,0.63 4.84,1.55 1.45,2.04 1.47,4.66 1.88,7.04 -0.45,4.31 -0.55,8.66 -0.12,12.99 -0.19,6.19 -0.31,12.39 -0.49,18.58 -1.13,-11.43 -1.95,-22.89 -2.51,-34.36 -0.08,-0.67 -0.23,-1.99 -0.3,-2.66 -2.87,-0.21 -5.74,-0.37 -8.62,-0.39 -7.22,-0.21 -14.36,-1.37 -21.51,-2.27 z" />
    </g>
    <g
       id="#c8e300ff">
      <path
         style="opacity:1;fill:#c8e300"
         inkscape:connector-curvature="0"
         id="path1697"
         d="m 339.38,163.01 c -0.07,-15.13 -0.08,-30.25 0.19,-45.38 0.57,4.45 0.82,8.93 0.93,13.4 0.23,-2.6 0.49,-5.2 0.76,-7.8 5.3,4.16 9.1,9.86 14.45,13.96 3.23,2.46 6.07,5.42 8.29,8.84 -0.94,2.42 -1.85,4.85 -2.96,7.19 -7.23,7.32 -14.6,14.51 -21.79,21.88 -0.84,-4.01 0.13,-8.06 0.13,-12.09 z" />
    </g>
    <g
       id="#358b00ff">
      <path
         style="opacity:1;fill:#358b00"
         inkscape:connector-curvature="0"
         id="path1700"
         d="m 116.08,120.9 c 0.56,11.47 1.38,22.93 2.51,34.36 0.2,5.72 0.91,11.41 1.01,17.14 9.75,-0.3 19.43,0.96 29.16,0.93 0.5,0.68 1.02,1.36 1.56,2.02 -11.35,0.03 -22.71,-0.01 -34.06,-0.01 -0.12,-18.15 0.06,-36.3 -0.18,-54.44 z" />
    </g>
    <g
       id="#7ba400ff">
      <path
         style="opacity:1;fill:#7ba400"
         inkscape:connector-curvature="0"
         id="path1703"
         d="m 391.03,122.91 c 0.31,-0.66 0.93,-1.98 1.24,-2.64 2.15,0.23 5.07,-0.05 6.08,2.38 1.45,4.38 0.82,9.12 0.97,13.66 -0.17,4.42 -0.07,8.84 0,13.25 -0.06,7.21 0.39,14.51 -0.98,21.64 -0.78,0.61 -1.54,1.25 -2.29,1.89 0.48,-14.35 0.09,-28.72 0.38,-43.08 0.11,-2.52 -0.32,-5.01 -0.91,-7.45 -1.5,0.12 -3,0.24 -4.49,0.35 z" />
    </g>
    <g
       id="#6b9e00ff">
      <path
         style="opacity:1;fill:#6b9e00"
         inkscape:connector-curvature="0"
         id="path1706"
         d="m 700.14,121.57 c 2.4,-0.29 5.45,0.35 6.08,3.08 0.66,3.92 0.26,7.93 0.46,11.89 -0.09,4.74 -0.16,9.47 0.04,14.2 -0.12,4.11 -0.04,8.23 -0.4,12.33 -0.05,1.45 -1.27,2.45 -2.05,3.54 -0.25,-14.15 0.19,-28.31 -0.47,-42.45 -1.94,-0.11 -3.96,-0.32 -5.73,0.66 0.71,-1.06 1.39,-2.16 2.07,-3.25 z" />
    </g>
    <g
       id="#2a8500ff">
      <path
         style="opacity:1;fill:#2a8500"
         inkscape:connector-curvature="0"
         id="path1709"
         d="m 500.87,125.91 c 0.98,-1.24 1.25,-3.65 3.27,-3.52 1.68,-0.16 3.9,-0.21 4.85,1.51 1.25,2.48 1.22,5.36 1.36,8.08 0,13.55 -0.13,27.11 0.02,40.67 13.21,0.28 26.44,-0.33 39.64,0.33 8.02,-0.1 16.04,-0.55 24.06,-0.2 2.07,-0.15 3.63,1.3 5.14,2.48 -23.89,0.54 -47.82,0 -71.73,0.27 0.13,-14.87 -0.02,-29.73 0.1,-44.6 -0.15,-2.29 0.38,-5.61 -2.51,-6.38 -1.45,0.29 -2.84,0.79 -4.2,1.36 z" />
    </g>
    <g
       id="#75c700ff">
      <path
         style="opacity:1;fill:#75c700"
         inkscape:connector-curvature="0"
         id="path1712"
         d="m 119.2,123.69 c 1.07,3.84 3.45,7.12 6.32,9.84 6.58,6.42 12.8,13.19 19.4,19.58 5.38,5.14 3.87,13.3 5.26,19.96 0.6,-1.76 1.21,-3.52 1.72,-5.32 -0.01,2.56 0.01,5.12 -0.01,7.68 -0.39,-0.02 -1.18,-0.06 -1.57,-0.08 -0.54,-0.66 -1.06,-1.34 -1.56,-2.02 -6.84,-10.29 -16.62,-18.11 -25.54,-26.48 -2.77,-2.66 -3.44,-6.58 -4.14,-10.17 -0.43,-4.33 -0.33,-8.68 0.12,-12.99 z" />
    </g>
    <g
       id="#acd800ff">
      <path
         style="opacity:1;fill:#acd800"
         inkscape:connector-curvature="0"
         id="path1715"
         d="m 166.38,130.58 c 0.76,3.71 1.48,7.79 4.42,10.47 8.89,8.5 17.98,16.85 25.95,26.24 2.37,3.06 6.4,3.48 9.85,4.5 -1.95,0.42 -3.88,0.88 -5.84,1.21 -5.57,-1.21 -11.32,-0.86 -16.9,-1.88 -3.55,-0.55 -5.44,-3.9 -7.72,-6.28 -2.38,-2.89 -5.54,-5.08 -7.71,-8.16 -1.33,-2.71 -1.43,-5.82 -1.94,-8.75 -0.31,3.12 -0.69,6.23 -0.92,9.36 -0.02,-7.33 -0.15,-14.66 -0.22,-21.99 0.32,-1.58 0.7,-3.14 1.03,-4.72 z" />
    </g>
    <g
       id="#4eba00ff">
      <path
         style="opacity:1;fill:#4eba00"
         inkscape:connector-curvature="0"
         id="path1718"
         d="m 436.9,131.91 c 0.45,-0.39 1.36,-1.18 1.82,-1.57 4.02,1.9 7.71,4.53 10.33,8.17 4.55,6.23 11.14,10.53 15.85,16.61 1.33,1.58 1.25,3.75 1.62,5.68 -1.7,1.66 -3.37,3.34 -5.03,5.03 0.18,-2.55 -0.7,-4.97 -2.63,-6.69 -6.61,-7.05 -13.85,-13.5 -20.34,-20.67 -1.81,-1.71 -1.39,-4.33 -1.62,-6.56 z" />
    </g>
    <g
       id="#8dce00ff">
      <path
         style="opacity:1;fill:#8dce00"
         inkscape:connector-curvature="0"
         id="path1721"
         d="m 400.59,132.1 c 2.96,2.81 5.7,5.85 8.58,8.74 9.53,8.81 18.22,18.46 27.62,27.4 3.72,3.77 8.61,7 9.69,12.58 -3.39,3.35 -6.72,6.76 -10.09,10.13 -0.08,-2.29 0.32,-4.97 -1.65,-6.63 -7.01,-7.02 -13.9,-14.16 -21.06,-21.02 -4.72,-4.65 -9.15,-9.61 -14.36,-13.74 -0.07,-4.41 -0.17,-8.83 0,-13.25 0.38,-1.41 0.83,-2.81 1.27,-4.21 z" />
    </g>
    <g
       id="#679d00ff">
      <path
         style="opacity:1;fill:#679d00"
         inkscape:connector-curvature="0"
         id="path1724"
         d="m 164.66,133 c 0.17,0.57 0.52,1.73 0.69,2.3 0.07,7.33 0.2,14.66 0.22,21.99 -0.18,5.1 -0.16,10.25 1.18,15.21 10.97,-0.35 21.9,1.82 32.87,0.7 22.82,0.62 45.66,0.13 68.49,0.32 1.43,-0.16 2.38,1.04 3.46,1.75 -36.12,0.41 -72.25,0.01 -108.37,0.07 0.03,-12.68 -0.25,-25.37 -0.07,-38.06 0.47,-1.44 1,-2.86 1.53,-4.28 z" />
    </g>
    <g
       id="#3db300ff">
      <path
         style="opacity:1;fill:#3db300"
         inkscape:connector-curvature="0"
         id="path1727"
         d="m 647.55,133.71 c 2.4,7.76 8.82,12.91 14.34,18.43 1.85,1.96 4.77,1.59 7.22,1.93 -7.14,7.18 -14.41,14.25 -21.47,21.51 -0.06,-13.96 -0.06,-27.91 -0.09,-41.87 z" />
    </g>
    <g
       id="#5bbd00ff">
      <path
         style="opacity:1;fill:#5bbd00"
         inkscape:connector-curvature="0"
         id="path1730"
         d="m 119.08,136.68 c 0.7,3.59 1.37,7.51 4.14,10.17 8.92,8.37 18.7,16.19 25.54,26.48 -9.73,0.03 -19.41,-1.23 -29.16,-0.93 -0.1,-5.73 -0.81,-11.42 -1.01,-17.14 0.18,-6.19 0.3,-12.39 0.49,-18.58 z" />
    </g>
    <g
       id="#7fc900ff">
      <path
         style="opacity:1;fill:#7fc900"
         inkscape:connector-curvature="0"
         id="path1733"
         d="m 706.68,136.54 c 1.12,3.37 1.96,6.93 3.88,9.96 2.65,3.28 6.22,5.65 9.09,8.74 4.22,4.5 8.62,8.84 12.95,13.25 3.03,3.16 7.78,3.15 11.8,3.97 -6.23,0.25 -12.47,0.15 -18.7,0.18 -5.35,-1.37 -11.54,-0.02 -16.33,-3.03 -2.43,-5.89 -1.63,-12.63 -2.65,-18.87 -0.2,-4.73 -0.13,-9.46 -0.04,-14.2 z" />
    </g>
    <g
       id="#95d000ff">
      <path
         style="opacity:1;fill:#95d000"
         inkscape:connector-curvature="0"
         id="path1736"
         d="m 166.49,147.93 c 0.51,2.93 0.61,6.04 1.94,8.75 2.17,3.08 5.33,5.27 7.71,8.16 2.28,2.38 4.17,5.73 7.72,6.28 5.58,1.02 11.33,0.67 16.9,1.88 l -1.14,0.2 c -10.97,1.12 -21.9,-1.05 -32.87,-0.7 -1.34,-4.96 -1.36,-10.11 -1.18,-15.21 0.23,-3.13 0.61,-6.24 0.92,-9.36 z" />
    </g>
    <g
       id="#add900ff">
      <path
         style="opacity:1;fill:#add900"
         inkscape:connector-curvature="0"
         id="path1739"
         d="m 399.32,149.56 c 5.21,4.13 9.64,9.09 14.36,13.74 7.16,6.86 14.05,14 21.06,21.02 1.97,1.66 1.57,4.34 1.65,6.63 -4.35,4.36 -8.49,8.94 -12.91,13.23 -8.29,-8.61 -16.4,-17.42 -25.32,-25.38 -2.06,-2.16 -5.15,-0.76 -7.58,-0.24 1.82,-1.82 3.55,-3.74 5.47,-5.47 0.75,-0.64 1.51,-1.28 2.29,-1.89 1.37,-7.13 0.92,-14.43 0.98,-21.64 z" />
    </g>
    <g
       id="#60bd00ff">
      <path
         style="opacity:1;fill:#60bd00"
         inkscape:connector-curvature="0"
         id="path1742"
         d="m 706.32,163.07 c 0.36,-4.1 0.28,-8.22 0.4,-12.33 1.02,6.24 0.22,12.98 2.65,18.87 4.79,3.01 10.98,1.66 16.33,3.03 -6.48,1.53 -13.14,1.08 -19.73,1.31 -2.66,0.12 -5.28,-0.37 -7.84,-0.98 2.06,-2.1 4.13,-4.21 6.14,-6.36 0.78,-1.09 2,-2.09 2.05,-3.54 z" />
    </g>
    <g
       id="#81aa00ff">
      <path
         style="opacity:1;fill:#81aa00"
         inkscape:connector-curvature="0"
         id="path1745"
         d="m 695.27,175.5 c 0.9,-0.86 1.94,-1.66 2.86,-2.53 2.56,0.61 5.18,1.1 7.84,0.98 6.59,-0.23 13.25,0.22 19.73,-1.31 6.23,-0.03 12.47,0.07 18.7,-0.18 8.43,-0.02 16.87,0.65 25.29,-0.02 6.46,-0.08 12.89,0.61 19.34,0.92 22.26,0.06 44.51,0.01 66.77,0.03 0.37,0.53 1.11,1.58 1.48,2.1 -30.44,0.03 -60.89,0.02 -91.32,-0.03 -23.57,0.08 -47.14,-0.36 -70.69,0.04 z" />
    </g>
    <g
       id="#000000ff">
      <path
         style="opacity:1;fill:#000000"
         inkscape:connector-curvature="0"
         id="path1748"
         d="m 94.52,193.53 c 1.07,-0.01 2.15,-0.03 3.22,-0.04 -0.01,4.84 -0.01,9.67 -0.01,14.51 -1.07,-0.01 -2.13,-0.01 -3.2,-0.01 0,-1.91 0,-3.82 0.01,-5.72 -1.94,0 -3.87,0 -5.81,0 0,1.91 0.01,3.81 0.01,5.72 -0.8,0 -2.4,0.01 -3.2,0.01 -0.01,-4.82 0,-9.64 -0.02,-14.46 0.8,-0.02 2.41,-0.04 3.21,-0.05 0,1.92 0.01,3.84 0.01,5.77 1.93,0 3.86,0 5.79,0 0,-1.91 0,-3.82 -0.01,-5.73 z" />
      <path
         style="opacity:1;fill:#000000"
         inkscape:connector-curvature="0"
         id="path1750"
         d="m 107.37,193.47 c 5.1,-1.58 10.91,3.08 9.82,8.47 -0.85,6.32 -9.96,8.58 -13.88,3.71 -3.78,-3.97 -1.33,-11.26 4.06,-12.18 m 0.08,3.13 c -2.56,1.05 -3.6,4.61 -1.86,6.83 2.03,3.02 7.45,2.16 8.24,-1.47 1.26,-3.64 -3.06,-6.96 -6.38,-5.36 z" />
      <path
         style="opacity:1;fill:#000000"
         inkscape:connector-curvature="0"
         id="path1752"
         d="m 251.27,193.49 c 1.07,0.01 2.14,0.03 3.22,0.04 0.01,3.14 -0.21,6.3 0.1,9.43 0.39,2.86 4.87,3.19 5.87,0.64 0.6,-3.31 0.17,-6.72 0.26,-10.07 0.82,0 2.45,0 3.27,0 -0.12,3.69 0.45,7.49 -0.48,11.1 -1.74,5.25 -10.98,4.79 -12.04,-0.71 -0.42,-3.46 -0.15,-6.96 -0.2,-10.43 z" />
      <path
         style="opacity:1;fill:#000000"
         inkscape:connector-curvature="0"
         id="path1754"
         d="m 268.26,193.49 c 1.07,0.01 2.15,0.03 3.22,0.04 -0.02,3.82 -0.02,7.64 -0.01,11.46 2.42,0.01 4.85,0.01 7.27,0.02 0,0.75 0,2.23 0,2.98 -3.49,0.01 -6.99,0.01 -10.48,0 0.01,-4.83 0.01,-9.67 0,-14.5 z" />
      <path
         style="opacity:1;fill:#000000"
         inkscape:connector-curvature="0"
         id="path1756"
         d="m 319.26,193.49 c 1.07,0.01 2.14,0.03 3.22,0.04 -0.02,3.82 -0.02,7.64 -0.01,11.46 2.42,0.01 4.84,0.01 7.27,0.02 0,0.74 0,2.23 0.01,2.97 -3.5,0.02 -7,0.03 -10.49,0.01 0.01,-4.83 0.01,-9.67 0,-14.5 z" />
      <path
         style="opacity:1;fill:#000000"
         inkscape:connector-curvature="0"
         id="path1758"
         d="m 449.46,193.3 c 1,-0.01 2,-0.03 3.01,-0.05 1.99,4.96 4.12,9.85 6.2,14.77 -0.86,-0.01 -2.57,-0.05 -3.43,-0.07 -0.41,-1.08 -0.82,-2.15 -1.23,-3.21 -2.08,-0.01 -4.16,-0.01 -6.23,-0.01 -0.41,1.06 -0.81,2.12 -1.2,3.18 -1.11,0.03 -2.22,0.08 -3.33,0.13 2.03,-4.93 4.14,-9.83 6.21,-14.74 m 1.43,3.65 c -0.63,1.59 -1.26,3.17 -1.88,4.76 1.29,0.01 2.58,0.01 3.88,0.02 -0.68,-1.59 -1.34,-3.19 -2,-4.78 z" />
      <path
         style="opacity:1;fill:#000000"
         inkscape:connector-curvature="0"
         id="path1760"
         d="m 479.93,194.96 c 2.98,-2.77 7.55,-1.82 10.65,0.25 -0.65,0.84 -1.3,1.68 -1.93,2.53 -1.78,-0.92 -3.93,-2.21 -5.9,-0.99 -3.3,1.5 -2.93,6.89 0.38,8.17 1.94,1.13 3.83,-0.38 5.57,-1.17 0.64,0.71 1.29,1.41 1.95,2.11 -2.56,2.13 -6.16,3.3 -9.3,1.69 -4.82,-2.06 -5.55,-9.46 -1.42,-12.59 z" />
      <path
         style="opacity:1;fill:#000000"
         inkscape:connector-curvature="0"
         id="path1762"
         d="m 498.99,193.27 c 0.73,-0.01 2.2,-0.02 2.93,-0.02 2.08,4.92 4.13,9.85 6.24,14.76 -0.83,0 -2.5,-0.01 -3.33,-0.01 -0.47,-1.1 -0.95,-2.2 -1.41,-3.29 -2.04,0.01 -4.07,0.03 -6.1,0.04 -0.45,1.08 -0.9,2.16 -1.33,3.25 -0.81,0 -2.42,0 -3.23,0 2.06,-4.92 4.13,-9.83 6.23,-14.73 m -0.48,8.48 c 0.95,-0.01 2.87,-0.02 3.82,-0.03 -0.65,-1.6 -1.3,-3.19 -1.93,-4.79 -0.64,1.61 -1.26,3.21 -1.89,4.82 z" />
      <path
         style="opacity:1;fill:#000000"
         inkscape:connector-curvature="0"
         id="path1764"
         d="m 511.26,193.5 c 3.76,0.18 8.19,-0.79 11.26,2.02 3.15,2.69 2.94,8.18 -0.33,10.69 -3.05,2.56 -7.29,1.64 -10.93,1.79 0,-4.83 0.01,-9.67 0,-14.5 m 3.22,2.85 c -0.02,2.93 -0.02,5.85 -0.01,8.78 2.94,0.15 6.85,-0.4 7.17,-4.08 0.16,-3.94 -4,-5.03 -7.16,-4.7 z" />
      <path
         style="opacity:1;fill:#000000"
         inkscape:connector-curvature="0"
         id="path1766"
         d="m 574.47,193.29 c 0.99,-0.01 1.99,-0.02 3,-0.04 1.99,4.96 4.12,9.86 6.2,14.78 -0.86,-0.02 -2.58,-0.07 -3.44,-0.09 -0.41,-1.07 -0.81,-2.14 -1.21,-3.2 -2.1,-0.01 -4.18,-0.01 -6.26,-0.01 -0.38,1.04 -0.74,2.07 -1.09,3.11 -1.15,0.07 -2.29,0.14 -3.42,0.21 2.02,-4.94 4.14,-9.84 6.22,-14.76 m 1.42,3.66 c -0.63,1.59 -1.26,3.17 -1.88,4.76 1.29,0.01 2.58,0.01 3.88,0.02 -0.68,-1.59 -1.34,-3.19 -2,-4.78 z" />
      <path
         style="opacity:1;fill:#000000"
         inkscape:connector-curvature="0"
         id="path1768"
         d="m 588.95,194.95 c 2.97,-2.77 7.51,-1.79 10.62,0.23 -0.48,0.65 -1.43,1.94 -1.9,2.59 -1.79,-0.94 -3.94,-2.25 -5.91,-1.02 -3.31,1.49 -2.94,6.91 0.38,8.17 1.94,1.12 3.83,-0.39 5.56,-1.17 0.64,0.71 1.29,1.41 1.95,2.12 -2.57,2.13 -6.18,3.29 -9.32,1.67 -4.82,-2.07 -5.52,-9.48 -1.38,-12.59 z" />
      <path
         style="opacity:1;fill:#000000"
         inkscape:connector-curvature="0"
         id="path1770"
         d="m 637.51,193.53 c 1.07,-0.01 2.15,-0.03 3.23,-0.04 -0.01,4.83 -0.01,9.67 0,14.5 -0.69,0.01 -2.06,0.01 -2.75,0.01 -2.29,-3.08 -4.62,-6.13 -6.97,-9.16 -0.03,3.05 -0.03,6.11 -0.02,9.16 -0.82,0 -2.45,0 -3.26,0 -0.01,-4.88 -0.02,-9.75 0,-14.62 0.76,0.1 2.3,0.3 3.06,0.4 2.42,2.74 4.38,5.84 6.73,8.63 0,-2.96 0,-5.92 -0.02,-8.88 z" />
      <path
         style="opacity:1;fill:#000000"
         inkscape:connector-curvature="0"
         id="path1772"
         d="m 710.25,193.49 c 1.06,0.01 2.14,0.03 3.23,0.04 -0.12,3.55 0.32,7.16 -0.32,10.67 -1.41,5.53 -10.83,5.46 -12.16,-0.09 -0.54,-3.5 -0.21,-7.06 -0.26,-10.58 0.82,0 2.45,0 3.27,0 0.02,3.13 -0.2,6.26 0.12,9.38 0.33,3.19 5.8,3.21 6,0 0.32,-3.13 0.1,-6.28 0.12,-9.42 z" />
      <path
         style="opacity:1;fill:#000000"
         inkscape:connector-curvature="0"
         id="path1774"
         d="m 736.46,193.3 c 1,-0.01 2,-0.03 3.01,-0.05 1.99,4.96 4.12,9.85 6.2,14.77 -0.86,-0.02 -2.58,-0.05 -3.44,-0.07 -0.41,-1.08 -0.81,-2.15 -1.21,-3.21 -2.1,-0.01 -4.19,-0.01 -6.27,-0.01 -0.36,1.02 -0.71,2.04 -1.05,3.07 -0.86,0.07 -2.59,0.2 -3.45,0.26 2.01,-4.94 4.14,-9.84 6.21,-14.76 m 1.43,3.65 c -0.63,1.59 -1.26,3.17 -1.88,4.76 1.28,0.01 2.58,0.01 3.88,0.02 -0.68,-1.59 -1.34,-3.19 -2,-4.78 z" />
      <path
         style="opacity:1;fill:#000000"
         inkscape:connector-curvature="0"
         id="path1776"
         d="m 768.35,193.47 c 5.09,-1.58 10.92,3.05 9.85,8.45 -0.85,6.34 -9.99,8.6 -13.91,3.71 -3.75,-3.96 -1.32,-11.22 4.06,-12.16 m 0.07,3.14 c -2.58,1.08 -3.58,4.68 -1.78,6.89 2.09,2.96 7.47,2.04 8.21,-1.61 1.19,-3.64 -3.14,-6.89 -6.43,-5.28 z" />
      <path
         style="opacity:1;fill:#000000"
         inkscape:connector-curvature="0"
         id="path1778"
         d="m 120.73,193.54 c 0.88,-0.01 2.63,-0.01 3.5,-0.02 1.26,2.05 2.51,4.09 3.77,6.14 1.25,-2.05 2.51,-4.09 3.77,-6.14 0.87,0.01 2.62,0.01 3.5,0.02 0,4.82 0,9.64 -0.01,14.46 -0.81,0 -2.44,0 -3.26,0 0,-3.14 0,-6.27 -0.02,-9.41 -1.35,2.07 -2.68,4.14 -4,6.22 -1.3,-2.06 -2.62,-4.1 -3.95,-6.14 -0.03,3.11 -0.04,6.22 -0.03,9.33 -0.82,0 -2.45,0 -3.26,0 -0.01,-4.82 -0.01,-9.64 -0.01,-14.46 z" />
      <path
         style="opacity:1;fill:#000000"
         inkscape:connector-curvature="0"
         id="path1780"
         d="m 139.73,193.54 c 3.67,0 7.34,0 11.01,-0.03 0,0.74 0.01,2.24 0.01,2.98 -2.58,-0.02 -5.16,-0.03 -7.74,-0.03 0,0.7 -0.01,2.1 -0.01,2.8 2.25,0 4.49,0.01 6.75,0.02 -0.02,0.99 -0.03,1.99 -0.03,2.99 -2.24,0 -4.48,0 -6.72,0 0,0.68 0,2.04 0,2.73 2.67,0 5.33,0 8,0 0,0.75 0,2.25 0,3 -3.76,0 -7.51,0 -11.26,0 -0.01,-4.82 -0.01,-9.64 -0.01,-14.46 z" />
      <path
         style="opacity:1;fill:#000000"
         inkscape:connector-curvature="0"
         id="path1782"
         d="m 154.52,193.53 c 3.47,0.38 7.68,-1.1 10.58,1.37 1.78,1.63 0.55,3.97 -0.59,5.55 2.51,1.02 3.48,4.52 1.3,6.36 -3.37,2.04 -7.55,0.94 -11.28,1.18 0,-4.82 0.01,-9.64 -0.01,-14.46 m 3.2,2.68 c 0.01,1.05 0.02,2.1 0.03,3.15 1.62,-0.11 3.28,-0.05 4.85,-0.56 1.16,-3.17 -3.03,-2.47 -4.88,-2.59 m 0.02,9.13 c 2.05,-0.08 4.1,-0.19 6.14,-0.42 0.4,-3.72 -3.75,-2.85 -6.15,-2.99 0,1.13 0.01,2.27 0.01,3.41 z" />
      <path
         style="opacity:1;fill:#000000"
         inkscape:connector-curvature="0"
         id="path1784"
         d="m 170.52,193.52 c 3.65,0.38 8.27,-1.19 11.09,1.86 1.99,2.6 0.55,6 -1.84,7.73 1.06,1.64 2.14,3.27 3.22,4.9 -1.24,-0.01 -2.49,-0.03 -3.73,-0.04 -1.48,-1.95 -2.51,-5.01 -5.5,-4.71 -0.02,1.57 -0.03,3.15 -0.03,4.73 -0.8,0.01 -2.39,0.01 -3.19,0.01 -0.01,-4.82 0,-9.65 -0.02,-14.48 m 3.22,2.88 c -0.01,1.4 -0.01,2.8 0,4.2 1.81,-0.34 4.76,0.69 5.53,-1.62 0.42,-3.22 -3.56,-2.38 -5.53,-2.58 z" />
      <path
         style="opacity:1;fill:#000000"
         inkscape:connector-curvature="0"
         id="path1786"
         d="m 186.52,193.52 c 3.65,0.02 7.31,0.02 10.96,0 0,0.74 0,2.22 0,2.96 -2.58,-0.01 -5.17,-0.01 -7.75,0 0,0.69 0.01,2.08 0.01,2.78 2.26,0 4.53,0 6.8,0.01 -0.05,0.99 -0.08,2 -0.11,3 -2.23,-0.01 -4.47,0 -6.7,0 0,0.68 0,2.04 0,2.72 2.67,0.01 5.34,0.01 8.01,0.02 0,0.75 0,2.23 0,2.98 -3.73,0.01 -7.47,0.01 -11.2,0.01 -0.01,-4.83 0,-9.66 -0.02,-14.48 z" />
      <path
         style="opacity:1;fill:#000000"
         inkscape:connector-curvature="0"
         id="path1788"
         d="m 200.09,193.44 c 0.88,0.03 2.63,0.1 3.51,0.13 0.97,3.25 1.96,6.48 2.96,9.72 1.11,-3.18 1.91,-6.48 3.32,-9.55 0.65,-0.11 1.95,-0.33 2.6,-0.43 1.09,3.32 2.2,6.64 3.32,9.96 1,-3.25 1.99,-6.51 3.03,-9.74 0.83,0 2.48,0 3.31,0.01 -1.6,4.84 -3.31,9.64 -4.95,14.47 -0.71,-0.01 -2.13,-0.03 -2.84,-0.04 -1.03,-3.15 -2.11,-6.28 -3.22,-9.41 -1.06,3.16 -2.16,6.3 -3.26,9.44 -0.71,0 -2.13,0 -2.83,0 -1.61,-4.87 -3.29,-9.71 -4.95,-14.56 z" />
      <path
         style="opacity:1;fill:#000000"
         inkscape:connector-curvature="0"
         id="path1790"
         d="m 232.73,193.54 c 0.88,-0.01 2.63,-0.01 3.5,-0.02 1.26,2.05 2.51,4.09 3.77,6.14 1.25,-2.05 2.51,-4.09 3.77,-6.14 0.87,0.01 2.62,0.01 3.5,0.02 0,4.82 0,9.64 -0.01,14.46 -0.81,0 -2.44,0 -3.26,0 0,-3.14 0,-6.27 -0.02,-9.41 -1.35,2.07 -2.68,4.14 -4,6.22 -1.3,-2.06 -2.61,-4.1 -3.94,-6.13 -0.04,3.1 -0.05,6.21 -0.04,9.32 -0.82,0 -2.45,0 -3.26,0 -0.01,-4.82 -0.01,-9.64 -0.01,-14.46 z" />
      <path
         style="opacity:1;fill:#000000"
         inkscape:connector-curvature="0"
         id="path1792"
         d="m 280.73,193.54 c 4.09,-0.01 8.18,-0.01 12.27,0 0,0.73 0,2.19 0,2.91 -1.51,0.01 -3.02,0.02 -4.52,0.03 -0.01,3.84 -0.02,7.68 -0.02,11.52 -0.8,0 -2.4,0 -3.2,-0.01 0.01,-3.83 0,-7.67 0,-11.5 -1.51,-0.02 -3.02,-0.03 -4.53,-0.04 0,-0.73 0,-2.18 0,-2.91 z" />
      <path
         style="opacity:1;fill:#000000"
         inkscape:connector-curvature="0"
         id="path1794"
         d="m 296.52,193.52 c 0.81,0 2.43,0 3.24,0 -0.04,4.82 -0.03,9.65 -0.02,14.47 -0.8,0.01 -2.4,0.01 -3.2,0.01 -0.01,-4.82 0,-9.65 -0.02,-14.48 z" />
      <path
         style="opacity:1;fill:#000000"
         inkscape:connector-curvature="0"
         id="path1796"
         d="m 304.52,193.52 c 2.78,0.09 5.64,-0.32 8.37,0.39 3.54,1.05 4.16,6.28 1.49,8.55 -1.86,1.5 -4.42,1.12 -6.64,1.41 -0.01,1.37 -0.01,2.74 -0.01,4.12 -0.8,0.01 -2.39,0.01 -3.19,0.01 -0.01,-4.82 0,-9.65 -0.02,-14.48 m 3.23,2.82 c -0.02,1.49 -0.02,2.98 -0.02,4.48 1.3,-0.08 2.62,-0.11 3.93,-0.29 1.12,-0.77 0.98,-2.26 1.23,-3.42 -1.69,-0.4 -3.42,-0.62 -5.14,-0.77 z" />
      <path
         style="opacity:1;fill:#000000"
         inkscape:connector-curvature="0"
         id="path1798"
         d="m 333,193.54 c 3.67,-0.01 7.34,-0.01 11.02,0 -0.02,0.74 -0.04,2.21 -0.06,2.94 -2.57,-0.01 -5.14,-0.02 -7.7,-0.02 0,0.71 0.01,2.11 0.02,2.81 2.23,-0.01 4.47,0 6.71,-0.01 0,0.75 0.01,2.25 0.01,3 -2.24,0 -4.48,0.01 -6.72,0.01 -0.01,0.68 -0.03,2.03 -0.04,2.71 2.67,0.02 5.35,0.02 8.03,0.03 0,0.74 0,2.24 0,2.98 -3.76,0.01 -7.52,0.01 -11.27,0.01 0,-4.82 0,-9.64 0,-14.46 z" />
      <path
         style="opacity:1;fill:#000000"
         inkscape:connector-curvature="0"
         id="path1800"
         d="m 461.73,193.55 c 3.62,0.33 8.12,-1.18 11.02,1.68 2.12,2.54 0.77,6.18 -1.76,7.85 1.08,1.65 2.17,3.3 3.27,4.95 -1.29,-0.04 -2.58,-0.09 -3.87,-0.14 -1.36,-2.04 -2.4,-4.86 -5.35,-4.67 -0.03,1.59 -0.05,3.19 -0.05,4.78 -0.82,0 -2.44,0 -3.25,0 -0.01,-4.82 -0.01,-9.64 -0.01,-14.45 m 3.28,2.82 c -0.01,1.42 0,2.84 0.01,4.27 2.04,-0.25 5.88,0.56 5.58,-2.66 -0.99,-2.17 -3.74,-1.3 -5.59,-1.61 z" />
      <path
         style="opacity:1;fill:#000000"
         inkscape:connector-curvature="0"
         id="path1802"
         d="m 528.52,193.52 c 3.65,0.02 7.3,0.02 10.96,0 0,0.74 0,2.22 0,2.96 -2.59,-0.02 -5.17,-0.01 -7.75,0 0,0.69 0.01,2.08 0.01,2.78 2.26,0 4.53,0 6.8,0.01 -0.05,0.99 -0.09,1.98 -0.11,2.98 -2.21,0.01 -4.42,-0.08 -6.61,0.17 -0.05,0.64 -0.16,1.93 -0.21,2.57 2.71,0.01 5.42,0.01 8.13,0.02 0,0.75 0,2.23 0,2.98 -3.74,0.01 -7.47,0.01 -11.2,0.01 -0.01,-4.83 0,-9.66 -0.02,-14.48 z" />
      <path
         style="opacity:1;fill:#000000"
         inkscape:connector-curvature="0"
         id="path1804"
         d="m 550.52,193.51 c 0.86,0.01 2.57,0.02 3.43,0.03 1.28,2.04 2.56,4.08 3.82,6.15 1.25,-2.09 2.52,-4.16 3.81,-6.22 0.86,0.02 2.57,0.07 3.42,0.09 0,4.82 0,9.63 0,14.44 -0.82,0 -2.45,0 -3.27,0 0,-3.15 0,-6.3 0.01,-9.44 -1.36,2.07 -2.69,4.14 -4.01,6.23 -1.35,-2.06 -2.69,-4.13 -4,-6.21 0,3.13 0,6.27 0.01,9.41 -0.8,0 -2.4,0.01 -3.2,0.02 -0.02,-4.84 0,-9.67 -0.02,-14.5 z" />
      <path
         style="opacity:1;fill:#000000"
         inkscape:connector-curvature="0"
         id="path1806"
         d="m 603.01,193.53 c 0.81,0 2.44,0 3.25,0.01 0,1.91 0,3.81 0.01,5.73 1.9,-0.01 3.81,0 5.72,-0.01 0,-1.91 0,-3.82 0.02,-5.73 0.81,0 2.44,0 3.26,0 -0.01,4.82 0,9.65 -0.01,14.47 -0.81,0 -2.44,0 -3.25,0 -0.01,-1.91 -0.02,-3.83 -0.02,-5.74 -1.91,0 -3.82,0.01 -5.72,0.01 -0.01,1.91 -0.01,3.82 -0.01,5.73 -0.81,0 -2.44,0 -3.26,0 0,-4.82 -0.01,-9.65 0.01,-14.47 z" />
      <path
         style="opacity:1;fill:#000000"
         inkscape:connector-curvature="0"
         id="path1808"
         d="m 619.73,193.54 c 0.82,-0.01 2.45,-0.01 3.27,-0.01 0,4.82 0,9.65 0,14.47 -0.82,0 -2.45,0 -3.26,0 -0.01,-4.82 -0.01,-9.64 -0.01,-14.46 z" />
      <path
         style="opacity:1;fill:#000000"
         inkscape:connector-curvature="0"
         id="path1810"
         d="m 645,193.54 c 3.67,-0.01 7.33,-0.01 11,0 0,0.73 -0.01,2.2 -0.01,2.93 -2.58,0 -5.16,-0.01 -7.73,0 0,0.7 0.01,2.1 0.02,2.8 2.23,-0.01 4.47,0 6.71,-0.01 0,0.75 0.01,2.25 0.01,3 -2.25,0 -4.49,0.01 -6.72,0.01 -0.01,0.68 -0.03,2.03 -0.04,2.71 2.67,0.02 5.35,0.02 8.03,0.03 0,0.74 0,2.24 0,2.98 -3.76,0.01 -7.52,0.01 -11.27,0.01 0,-4.82 -0.01,-9.64 0,-14.46 z" />
      <path
         style="opacity:1;fill:#000000"
         inkscape:connector-curvature="0"
         id="path1812"
         d="m 667.26,207.99 c 0,-4.83 0.01,-9.66 0,-14.49 3.67,0.04 7.34,0.04 11.01,0.04 0,0.73 0,2.19 0,2.92 -2.61,0 -5.21,0.01 -7.8,0.02 0,0.92 0,1.85 0.01,2.78 2.26,0 4.53,0.01 6.81,0.02 -0.03,0.99 -0.04,1.98 -0.04,2.98 -2.27,0 -4.52,0.01 -6.78,0.01 -0.01,0.67 -0.03,2.02 -0.04,2.69 2.67,0.03 5.35,0.04 8.04,0.05 0,0.75 0,2.24 0,2.98 -3.74,0.01 -7.48,0.01 -11.21,0 z" />
      <path
         style="opacity:1;fill:#000000"
         inkscape:connector-curvature="0"
         id="path1814"
         d="m 682,193.55 c 0.86,-0.01 2.6,-0.04 3.46,-0.06 1.26,2.06 2.51,4.13 3.76,6.2 1.26,-2.06 2.54,-4.11 3.83,-6.15 0.86,-0.01 2.57,-0.03 3.43,-0.03 -0.02,4.83 -0.01,9.66 -0.02,14.5 -0.8,-0.01 -2.4,-0.02 -3.2,-0.02 0.01,-3.16 0,-6.32 -0.02,-9.47 -1.34,2.08 -2.67,4.17 -3.96,6.28 -1.34,-2.05 -2.67,-4.1 -3.98,-6.17 -0.04,3.12 -0.04,6.25 -0.04,9.37 -0.81,0 -2.44,0 -3.26,0 0,-4.82 0,-9.63 0,-14.45 z" />
      <path
         style="opacity:1;fill:#000000"
         inkscape:connector-curvature="0"
         id="path1816"
         d="m 717.73,193.54 c 0.82,-0.01 2.45,-0.01 3.27,-0.01 -0.01,3.82 0,7.64 0,11.47 2.42,0 4.84,0 7.27,0.01 0,0.74 0,2.24 0,2.98 -3.52,0.01 -7.03,0.01 -10.54,0 0,-4.82 0,-9.64 0,-14.45 z" />
      <path
         style="opacity:1;fill:#000000"
         inkscape:connector-curvature="0"
         id="path1818"
         d="m 747.52,193.52 c 4.07,0.02 8.14,0.02 12.23,-0.01 -0.01,0.75 -0.01,2.24 -0.01,2.99 -1.5,-0.02 -2.99,-0.04 -4.47,-0.05 -0.01,3.85 -0.01,7.7 0,11.55 -0.82,0 -2.45,0 -3.27,0 0,-3.85 0,-7.7 -0.01,-11.55 -1.5,0.01 -2.99,0.02 -4.47,0.04 0,-0.74 0,-2.23 0,-2.97 z" />
      <path
         style="opacity:1;fill:#000000"
         inkscape:connector-curvature="0"
         id="path1820"
         d="m 781.73,193.55 c 3.63,0.33 8.15,-1.19 11.04,1.71 2.09,2.54 0.74,6.15 -1.79,7.82 1.08,1.65 2.17,3.3 3.28,4.95 -1.31,-0.04 -2.61,-0.08 -3.9,-0.13 -0.91,-1.43 -1.8,-2.87 -2.69,-4.3 -0.66,-0.05 -1.99,-0.15 -2.65,-0.2 -0.02,1.53 -0.03,3.07 -0.03,4.6 -0.81,0 -2.44,0 -3.25,0 -0.01,-4.82 -0.01,-9.64 -0.01,-14.45 m 3.28,2.82 c -0.01,1.42 -0.01,2.84 0,4.26 1.82,-0.33 4.66,0.58 5.57,-1.62 0.34,-3.22 -3.58,-2.41 -5.57,-2.64 z" />
    </g>
    <g
       id="#93ab00ff">
      <path
         style="opacity:1;fill:#93ab00"
         inkscape:connector-curvature="0"
         id="path1823"
         d="m 341.53,227.6 c 3.67,-1.28 7.54,-1.98 11.43,-1.97 13.34,0.08 26.7,0.04 40.05,0 2.55,-0.16 4.88,0.94 7.1,2.05 l -0.8,0.71 c -19.83,0.27 -39.68,-0.1 -59.51,0.19 0.57,-0.33 1.15,-0.66 1.73,-0.98 z" />
    </g>
  </g>
</svg>
