<?xml version="1.0" encoding="UTF-8" standalone="no"?>
<!-- Generator: Adobe Illustrator 13.0.0, SVG Export Plug-In . SVG Version: 6.00 Build 14948)  -->

<svg
   xmlns:dc="http://purl.org/dc/elements/1.1/"
   xmlns:cc="http://creativecommons.org/ns#"
   xmlns:rdf="http://www.w3.org/1999/02/22-rdf-syntax-ns#"
   xmlns:svg="http://www.w3.org/2000/svg"
   xmlns="http://www.w3.org/2000/svg"
   xmlns:sodipodi="http://sodipodi.sourceforge.net/DTD/sodipodi-0.dtd"
   xmlns:inkscape="http://www.inkscape.org/namespaces/inkscape"
   version="1.1"
   id="Layer_1"
   x="0px"
   y="0px"
   width="214.56631"
   height="48.87886"
   viewBox="0 0 214.56631 48.87886"
   enable-background="new 0 0 220 162"
   xml:space="preserve"
   sodipodi:docname="system.svg"
   inkscape:version="0.92.3 (2405546, 2018-03-11)"><metadata
   id="metadata29"><rdf:RDF><cc:Work
       rdf:about=""><dc:format>image/svg+xml</dc:format><dc:type
         rdf:resource="http://purl.org/dc/dcmitype/StillImage" /><dc:title></dc:title></cc:Work></rdf:RDF></metadata><defs
   id="defs27" /><sodipodi:namedview
   pagecolor="#ffffff"
   bordercolor="#666666"
   borderopacity="1"
   objecttolerance="10"
   gridtolerance="10"
   guidetolerance="10"
   inkscape:pageopacity="0"
   inkscape:pageshadow="2"
   inkscape:window-width="1920"
   inkscape:window-height="1015"
   id="namedview25"
   showgrid="false"
   inkscape:zoom="4.1204247"
   inkscape:cx="62.243159"
   inkscape:cy="20.276362"
   inkscape:window-x="0"
   inkscape:window-y="0"
   inkscape:window-maximized="1"
   inkscape:current-layer="Layer_1"
   fit-margin-top="0"
   fit-margin-left="0"
   fit-margin-right="0"
   fit-margin-bottom="0" />









<g
   id="g846"
   transform="matrix(0.75,0,0,0.75,52.059312,-77.262813)"
   style="fill:#ffffff"><polygon
     id="polygon2"
     points="210.531,155.271 213.133,155.271 213.133,155.648 212.05,155.648 212.05,158.587 211.623,158.587 211.623,155.648 210.531,155.648 "
     style="fill:#ffffff" /><polygon
     id="polygon4"
     points="216.676,155.271 216.676,158.587 216.24,158.587 216.24,155.894 215.335,158.587 214.898,158.587 213.993,155.894 213.993,158.587 213.557,158.587 213.557,155.271 214.161,155.271 215.116,158.091 216.071,155.271 "
     style="fill:#ffffff" /><path
     id="path6"
     d="m 4.406,127.169 c 0,-1.152 -0.219,-2.644 -0.728,-3.271 3.333,0 10.534,0.022 13.621,0.022 7.102,0 17.816,3.942 17.816,17.23 0,9.863 -7.563,17.211 -17.816,17.211 -2.249,0 -10.836,-0.026 -13.882,-0.026 0.625,-1.153 0.989,-2.717 0.989,-3.952 z m 5.107,27.818 c 3.278,0.424 6.304,0.555 9.042,0.163 2.649,-0.378 11.55,-2.294 11.495,-14.113 -0.053,-11.2 -6.969,-13.759 -12.299,-14.073 -2.781,-0.164 -5.466,-0.06 -8.238,0.421 z"
     inkscape:connector-curvature="0"
     style="fill:#ffffff" /><path
     id="path8"
     d="m 38.041,134.481 5.103,-0.797 c 0,1.044 0,4.108 0,4.493 1.309,-3.234 5.381,-5.833 11.169,-3.581 l -1.357,3.552 c -5.297,-2.513 -9.812,-0.308 -9.812,5.574 v 12.138 c 0,0.577 0.125,1.744 0.471,2.492 h -5.301 c 0.536,-0.66 0.783,-1.915 0.783,-2.492 v -17.509 c 0,-1.27 -0.258,-3.236 -1.056,-3.87 z"
     inkscape:connector-curvature="0"
     style="fill:#ffffff" /><path
     id="path10"
     d="m 199.368,136.916 c 0,0.331 0,14.448 0,15.504 0,4.865 3.354,6.167 5.84,6.167 1.052,0.052 2.539,-0.194 3.579,-0.425 l 0.641,-3.004 c -1.213,0.462 -2.622,0.572 -3.466,0.572 -1.558,0 -2.685,-1.034 -2.685,-2.651 0,-1.452 -0.037,-15.682 0,-16.138 h -0.017 c 0.208,0 3.439,-0.011 3.765,0 1.061,0.038 1.875,0.103 2.575,0.384 l 0.004,-2.829 c 0,0 -6.208,-0.008 -6.328,-0.008 l 0.025,-7.256 -4.704,1.3 c 0.65,0.606 0.86,2.382 0.86,3.552 0,0 -0.003,2.168 -0.003,2.43 -0.212,0 -2.598,0.011 -2.994,0.011 v 2.391 c 0.418,-0.001 2.908,0 2.908,0 z"
     inkscape:connector-curvature="0"
     style="fill:#ffffff" /><path
     id="path12"
     d="m 179.042,153.31 c 2.022,1.444 5.194,2.726 7.521,2.726 3.228,0 5.538,-1.57 5.538,-4.525 0,-5.456 -12.439,-4.553 -12.439,-11.475 0,-4.68 4.185,-6.44 8.174,-6.44 1.281,0 4.207,0.278 6.069,0.998 l -0.016,3.196 c -1.652,-1.412 -4.175,-1.754 -5.837,-1.754 -2.64,0 -4.62,1.309 -4.62,3.877 0,3.771 12.428,3.553 12.428,11.291 0,5.004 -4.337,7.338 -9.108,7.338 -2.326,0 -4.749,-0.413 -6.768,-0.99 z"
     inkscape:connector-curvature="0"
     style="fill:#ffffff" /><path
     id="path14"
     d="m 103.961,136.965 c 0,-0.283 0.011,-2.818 0.011,-3.143 l -5.166,0.799 c 0.622,0.652 1.1,2.688 1.1,4.142 v 16.929 c 0,0.577 -0.247,1.978 -0.783,2.638 h 5.633 c -0.536,-0.66 -0.783,-2.061 -0.783,-2.638 v -12.738 c 0,-4.66 2.883,-6.291 5.752,-6.291 2.597,0 4.944,1.124 4.944,6.291 v 12.738 c 0,0.577 -0.248,1.978 -0.783,2.638 h 5.463 c -0.536,-0.66 -0.783,-2.061 -0.783,-2.638 v -12.738 c 0,-5.167 3.193,-6.291 5.793,-6.291 2.596,0 5.313,1.63 5.313,6.291 v 12.738 c 0,0.577 -0.247,1.978 -0.783,2.638 h 5.259 c -0.536,-0.66 -0.783,-2.061 -0.783,-2.638 v -15.156 c 0,-2.583 -2.634,-6.721 -8.79,-6.721 -3.58,0 -5.647,1.592 -7.217,2.963 -1.335,-1.558 -3.509,-3.02 -7.001,-3.02 -3.405,0 -5.414,1.994 -6.396,3.207 z"
     inkscape:connector-curvature="0"
     style="fill:#ffffff" /><path
     id="path16"
     d="m 91.779,144.906 c -0.737,0.693 -2.281,1.232 -3.875,1.441 -4.187,0.549 -7.814,1.245 -7.814,5.324 0,2.419 2.636,4.324 4.726,4.324 5.534,0 6.964,-3.992 6.964,-7.138 v -3.951 z m -13.072,-9.982 c 2.112,-0.847 5.521,-1.235 7.657,-1.235 5.458,0 9.084,2.727 9.084,9.058 v 10.501 c 0,1.946 0.029,3.787 0.723,5.081 h -4.388 l -0.157,-2.762 c -1.662,2.144 -3.646,3.104 -7.016,3.104 -6.647,0 -8.099,-4.542 -8.099,-6.726 0,-7.789 7.414,-7.881 10.633,-8.339 1.781,-0.253 4.074,-0.756 4.418,-2.426 0.569,-2.763 -1.407,-4.834 -5.442,-4.834 -2.961,0 -5.387,0.9 -7.413,2.113 z m 94.303,9.982 c -0.737,0.693 -2.282,1.232 -3.876,1.441 -4.186,0.549 -7.814,1.245 -7.814,5.324 0,2.419 2.636,4.324 4.726,4.324 5.534,0 6.964,-3.992 6.964,-7.138 z m -13.072,-9.982 c 2.112,-0.847 5.521,-1.235 7.657,-1.235 5.458,0 9.084,2.727 9.084,9.058 v 10.501 c 0,1.946 -0.424,3.748 0.722,5.081 h -4.388 l -0.157,-2.762 c -1.662,2.144 -3.646,3.104 -7.015,3.104 -6.646,0 -8.099,-4.542 -8.099,-6.726 0,-7.789 7.414,-7.881 10.633,-8.339 1.782,-0.253 4.075,-0.756 4.418,-2.426 0.568,-2.763 -1.407,-4.834 -5.442,-4.834 -2.961,0 -5.387,0.9 -7.413,2.113 z"
     inkscape:connector-curvature="0"
     style="fill:#ffffff" /><path
     id="path18"
     d="m 155.268,138.145 c -1.647,-0.961 -4.245,-1.724 -6.057,-1.724 -6.361,0 -9.277,3.913 -9.277,9.548 0,5.583 2.849,9.857 9.072,9.857 2.133,0 5.037,-0.957 7.29,-2.342 l -0.917,4.107 c -2.293,0.682 -4.226,1.007 -6.785,1.007 -8.745,0 -12.843,-6.201 -12.843,-12.654 0,-7.134 5.498,-12.149 12.938,-12.149 3.252,0 5.627,0.798 6.586,1.07 z"
     inkscape:connector-curvature="0"
     style="fill:#ffffff" /><path
     id="path20"
     d="m 57.38,146.268 c 0.003,-0.59 0.081,-1.152 0.148,-1.696 h 16.919 c 0,-5.817 -2.908,-10.807 -9.8,-10.807 -7.153,0 -11.399,5.594 -11.399,12.729 0,6.453 4.728,12.217 12.825,12.217 2.56,0 4.701,-0.631 7.011,-1.439 l 0.813,-4.125 c -1.976,1.627 -5.171,2.59 -8.053,2.59 -5.183,-0.001 -8.488,-3.752 -8.464,-9.469 z m 0.683,-4.276 c 0.549,-2.831 3.167,-5.713 6.301,-5.713 4.789,0 6.175,3.737 6.175,5.714 -0.001,-0.001 -12.476,0.007 -12.476,-0.001 z"
     inkscape:connector-curvature="0"
     style="fill:#ffffff" /></g>
<path
   d="m 29.432172,6.5841763 c 1.796643,0.269764 3.631497,0.897176 4.588281,1.189866 1.927704,0.589201 5.057117,2.4206157 6.162156,3.2990697 0.522716,0.415344 1.622023,1.503189 2.047685,2.050742 0.414581,0.533414 1.206677,1.688891 1.712199,2.400748 0.804325,1.174965 1.751553,2.924992 2.555115,4.535552 0.897561,1.799318 0.959076,2.320505 1.230369,3.824841 l 0.593405,2.651788 c 0.05579,0.458522 0.10202,2.140535 -0.885329,2.376292 -0.986971,0.235757 -1.899431,-0.219709 -2.329675,-0.88533 -0.595316,-0.921248 -0.513164,-2.228801 -1.186427,-3.725495 -0.525011,-1.209735 -0.754653,-2.967786 -1.592985,-4.232162 l -0.657598,-1.111917 c -1.1635,-1.791294 -2.376292,-3.213096 -3.099611,-4.140459 -0.636964,-0.779106 -1.826445,-1.838294 -2.954028,-2.591799 -1.042757,-0.632378 -2.728591,-1.353406 -3.944439,-1.724809 -0.387452,-0.126094 -2.045775,-0.6136557 -3.076304,-0.7508307 -1.398493,-0.157043 -2.318595,-0.37828 -3.647545,-0.471895 -1.640746,-0.115777 -2.427876,-0.26174 -4.556185,-0.01299 -0.806235,0.218563 -2.083602,0.3053 -3.233347,0.7450987 -0.928508,0.378663 -2.220012,0.99041 -3.485152,1.733598 -1.361429,0.746627 -3.428219,2.273508 -4.7988194,3.577241 C 7.492639,16.797387 6.801799,17.589484 5.849219,19.460638 5.427378,20.386471 4.61159,21.818589 4.2826,22.829631 c -0.224676,1.026326 -0.653394,2.940657 -0.581177,3.870311 0.03248,1.665583 -0.113102,2.008711 0.01185,3.37014 0.0046,1.225783 0.406938,2.075578 0.574299,3.078214 0.143288,0.692751 0.807764,3.089676 1.218905,3.646017 1.868861,4.026591 4.3773606,5.770503 7.172819,7.028382 0.787894,0.401208 3.253599,1.061098 3.966983,1.250234 1.216231,0.21933 2.816856,0.36568 4.357491,0.39548 1.620877,0.0317 3.855027,-0.18799 5.210725,-0.68702 1.467272,-0.539528 3.163805,-1.306406 3.144318,-1.285009 0.680905,-0.375224 1.719841,-0.987733 2.043481,-1.257115 0.625501,-0.400825 1.002254,-0.555959 1.372893,-0.941882 0.53456,-0.467691 0.858201,-0.737073 1.263229,-1.316721 0.22544,-0.326698 0.583469,-0.826869 0.932329,-1.268961 0.375224,-0.614802 0.590729,-1.262847 0.957165,-2.064497 0.438271,-1.185663 0.370257,-1.12873 0.453555,-2.388138 0.07871,-0.364907 -0.0084,-1.591455 -0.07451,-1.7997 -0.197546,-1.131786 -0.127622,-2.130219 -0.386687,-3.229144 -0.350005,-1.486759 -0.640785,-2.59944 -1.087462,-4.025827 -0.41993,-1.605975 -1.653356,-3.09388 -2.579189,-4.156505 -0.573535,-0.658744 -2.352984,-2.214664 -4.821745,-3.186349 -0.695043,-0.233846 -1.832943,-0.499025 -2.555498,-0.63085 -1.542546,-0.161247 -1.793587,-0.0577 -3.270411,0.05044 -0.508196,0.08865 -1.688127,0.329754 -2.121812,0.482213 -1.268579,0.445531 -1.735126,0.728668 -3.03198,1.523058 -0.603721,0.350388 -1.058804,0.618623 -1.675899,1.197126 -0.49253,0.455847 -0.844446,1.23075 -1.24336,1.68507 -0.546406,0.74357 -1.154712,1.735507 -1.562797,2.805392 -0.442474,1.064155 -0.584998,2.562377 -0.517748,3.52642 0,0.734782 0.199839,2.079781 0.279316,2.374 0.0791,0.2946 0.277788,1.207824 0.320966,1.391233 0.04318,0.183027 0.51813,1.149363 0.58347,1.289212 0.267853,0.570096 0.780634,1.389323 1.644567,2.225744 0.637346,0.69619 1.869625,1.379388 2.792019,1.644185 0.827251,0.453937 2.222305,0.531122 2.994151,0.53265 0.379809,-0.02293 1.349966,-0.08253 1.856252,-0.204042 1.026708,-0.246456 1.21623,-0.252952 2.274271,-0.71262 0.949523,-0.440182 1.593747,-0.598754 2.255166,-1.087463 0,0 0.907874,-0.711474 1.320544,-1.231896 0.217798,-0.274732 0.591112,-1.583813 0.524626,-2.394634 -0.03095,-1.110006 0.130679,-1.73971 -0.09591,-2.652934 -0.226587,-0.913224 -0.613274,-1.971646 -1.03244,-2.623894 -0.424515,-0.660655 -1.337357,-1.304497 -2.376292,-1.816895 -0.58156,-0.287341 -1.959801,-0.553666 -2.544417,-0.622827 -1.110771,-0.131825 -2.039661,0.372168 -2.603644,0.94876 -0.48909,0.559015 -1.455808,1.720223 -1.070649,2.920787 0.348477,1.086316 0.769171,2.243703 2.398454,2.15773 1.11803,0.2327 2.411446,-0.105078 2.842075,0.09323 0.639256,0.362997 0.884948,1.164647 0.65263,1.723662 -0.162011,1.07791 -1.194451,1.207061 -2.296433,1.289212 -0.985823,0.165069 -3.489738,-0.317526 -4.039965,-0.729814 -0.369112,-0.219328 -0.934241,-0.746247 -1.332392,-1.101984 -0.286194,-0.256008 -0.610216,-0.826868 -0.831453,-1.236864 -0.271675,-0.50361 -0.40885,-0.874249 -0.478774,-1.202475 -0.08292,-0.389744 -0.253716,-1.133696 -0.189141,-1.877649 0.04356,-0.5017 0.17806,-0.715295 0.311795,-1.448931 0.266326,-0.831836 0.597226,-1.464979 1.129494,-2.186387 0.693515,-0.703832 1.57426,-1.541782 2.43399,-1.931144 0.75809,-0.400443 2.086277,-0.547934 3.287987,-0.477627 0.974743,0.09323 2.127926,0.212066 2.89022,0.467692 1.304878,0.466165 1.67781,0.559016 2.748842,1.234572 0.905199,0.560162 1.815748,1.590691 2.323944,2.444306 1.080967,2.211989 1.701118,4.672726 1.250238,7.985168 -0.03706,0.559779 -0.211303,1.106567 -0.560162,1.847463 -0.322112,0.683963 -0.887241,1.515799 -1.735125,2.142064 -0.341599,0.315998 -0.879981,0.704978 -1.318252,0.932711 -0.622062,0.377517 -1.040464,0.573917 -1.690037,0.900232 -0.570096,0.267854 -1.234571,0.5743 -2.101179,0.815024 -0.939207,0.371403 -1.659851,0.386687 -2.840928,0.562836 -1.162737,0.291544 -4.343736,0.0833 -6.23858,-0.752359 -1.293415,-0.543731 -2.744638,-1.502425 -3.847767,-2.670893 -0.612891,-0.642313 -1.212409,-1.807724 -1.3885584,-2.046156 -0.877307,-1.686598 -1.049252,-3.273086 -1.189866,-3.606279 -0.191051,-0.45279 -0.286194,-1.468035 -0.414199,-2.162697 -0.144434,-0.778724 -0.05502,-4.04455 0.731344,-6.140761 0.443238,-0.834511 0.702685,-1.578463 1.0026354,-1.969354 0.539146,-0.766879 0.79974,-1.246034 1.258262,-1.789766 0.691223,-0.838331 1.194451,-1.522294 1.867715,-2.004507 1.715638,-1.395054 3.148902,-2.130984 5.087306,-3.05185 2.408771,-0.980856 3.13209,-0.77796 5.41171,-0.74166 1.025562,0.0088 2.518053,0.331282 3.251688,0.465018 1.362576,0.181498 2.143211,0.509724 3.064841,0.76688 0.985441,0.275113 1.555155,0.714148 2.363683,1.202858 0.665621,0.429864 1.44893,1.018684 1.966296,1.496693 1.323602,0.970539 1.962094,1.990752 2.773297,3.243664 0.147109,0.210156 1.110386,2.26319 1.263991,2.834815 0.07107,0.286194 0.289251,1.108096 0.429101,1.588398 0.17997,0.761911 0.267089,1.436703 0.467692,2.296433 0.179588,0.885712 0.48527,2.558173 0.617859,4.121352 0.222766,1.340796 -0.134118,4.077793 -0.344656,4.918035 -0.468839,1.566618 -1.28883,3.478656 -2.908176,5.320004 -0.687783,0.815406 -1.419127,1.447403 -2.263954,2.133276 -0.646135,0.539146 -1.200565,0.852852 -2.198615,1.448932 -1.355698,0.80891 -2.387373,1.32551 -4.287567,2.06832 -0.773756,0.24837 -1.748498,0.57506 -2.799279,0.79248 -2.035457,0.18799 -4.127084,0.36834 -6.410143,0.097 -2.283442,-0.27167 -4.570704,-0.91514 -5.921817,-1.3301 -0.745481,-0.2797 -2.189826,-0.88533 -2.7954584,-1.21126 -0.393947,-0.20022 -1.714874,-1.10351 -1.939168,-1.320928 C 7.134609,44.31823 5.108704,42.413069 3.800769,40.637061 3.514192,40.088362 2.483663,38.441885 2.260133,37.720476 1.665965,36.500424 1.251766,35.024746 1.008367,34.394278 0.751595,32.922803 0.317909,31.97519 0.148638,30.497984 0.168128,30.150271 0.078718,29.332191 0,28.8794 0.115013,27.868358 -0.03859,26.915396 0.162011,25.814942 0.33816,24.886052 0.571625,24.498218 0.62703,23.65874 0.68129,23.299564 1.143631,22.219362 1.266668,21.738678 1.6396,20.946962 1.732451,20.294714 2.219249,19.410148 2.920788,18.031524 3.654042,16.445419 4.78086,15.059916 c 0.32173,-0.429484 1.23419,-1.460013 1.545221,-1.817278 0.735164,-0.734783 1.166557,-0.850942 2.0003036,-1.588399 0.08674,-0.05464 0.637346,-0.682435 1.213938,-0.898323 0.9556374,-0.738221 1.7813594,-1.0091307 2.6907624,-1.6804847 1.822627,-0.907874 2.487102,-1.21432 4.296355,-1.967061 1.045431,-0.372931 2.503532,-0.579266 3.02854,-0.782927 0.998815,-0.0619 2.012532,-0.380573 3.063312,-0.317144 1.179549,-0.01108 2.368268,0.07298 3.553549,0.180734 0.802032,0.04929 1.844788,0.08826 3.25933,0.395093 z"
   id="path22"
   inkscape:connector-curvature="0"
   style="fill:#cf3311;stroke-width:0.38210198" />
<g
   transform="matrix(0.42666664,0,0,0.42666664,-52.653474,-29.778351)"
   aria-label="Romset"
   style="font-style:normal;font-variant:normal;font-weight:normal;font-stretch:normal;font-size:37.5px;line-height:1.25;font-family:'Glass TTY VT220';-inkscape-font-specification:'Glass TTY VT220';letter-spacing:0px;word-spacing:0px;fill:#000000;fill-opacity:1;stroke:none;stroke-width:0.9375"
   id="text916-3"><path
     d="m 437.87414,124.96826 q -0.63,-0.35 -0.63,-1.47 0,-1.12 0.63,-1.4 0.7,-0.35 2.87,-0.35 2.17,0 2.8,0.35 0.7,0.28 0.7,1.4 0,1.12 -0.7,1.47 -0.63,0.28 -2.8,0.28 -2.17,0 -2.87,-0.28 z m -21,0 q -0.63,-0.35 -0.63,-1.47 0,-1.12 0.63,-1.4 0.7,-0.35 2.87,-0.35 2.17,0 2.8,0.35 0.7,0.28 0.7,1.4 0,1.12 -0.7,1.47 -0.63,0.28 -2.8,0.28 -2.17,0 -2.87,-0.28 z m 17.5,-7 q -0.63,-0.35 -0.63,-1.47 0,-1.12 0.63,-1.4 0.7,-0.35 2.87,-0.35 2.17,0 2.8,0.35 0.7,0.28 0.7,1.4 0,1.12 -0.7,1.47 -0.63,0.28 -2.8,0.28 -2.17,0 -2.87,-0.28 z m -17.5,0 q -0.63,-0.35 -0.63,-1.47 0,-1.12 0.63,-1.4 0.7,-0.35 2.87,-0.35 2.17,0 2.8,0.35 0.7,0.28 0.7,1.4 0,1.12 -0.7,1.47 -0.63,0.28 -2.8,0.28 -2.17,0 -2.87,-0.28 z m 14,-7 q -0.63,-0.35 -0.63,-1.47 0,-1.12 0.63,-1.4 0.7,-0.35 2.87,-0.35 2.17,0 2.8,0.35 0.7,0.28 0.7,1.4 0,1.12 -0.7,1.47 -0.63,0.28 -2.8,0.28 -2.17,0 -2.87,-0.28 z m -14,0 q -0.63,-0.35 -0.63,-1.47 0,-1.12 0.63,-1.4 0.7,-0.35 2.87,-0.35 2.17,0 2.8,0.35 0.7,0.28 0.7,1.4 0,1.12 -0.7,1.47 -0.63,0.28 -2.8,0.28 -2.17,0 -2.87,-0.28 z m -0.63,-8.47 q 0,-1.05 1.05,-1.33 1.54,-0.42 11.2,-0.42 10.57,0 11.69,0.63 0.56,0.28 0.56,1.12 0,1.05 -1.05,1.33 -1.54,0.42 -11.2,0.42 -10.57,0 -11.69,-0.63 -0.56,-0.28 -0.56,-1.12 z m 21.63,-5.53 q -0.63,-0.35 -0.63,-1.47 0,-1.12 0.63,-1.4 0.7,-0.35 2.87,-0.35 2.17,0 2.8,0.35 0.7,0.28 0.7,1.4 0,1.12 -0.7,1.47 -0.63,0.28 -2.8,0.28 -2.17,0 -2.87,-0.28 z m -21,0 q -0.63,-0.35 -0.63,-1.47 0,-1.12 0.63,-1.4 0.7,-0.35 2.87,-0.35 2.17,0 2.8,0.35 0.7,0.28 0.7,1.4 0,1.12 -0.7,1.47 -0.63,0.28 -2.8,0.28 -2.17,0 -2.87,-0.28 z m 21,-7 q -0.63,-0.35 -0.63,-1.47 0,-1.12 0.63,-1.4 0.7,-0.35 2.87,-0.35 2.17,0 2.8,0.35 0.7,0.28 0.7,1.4 0,1.12 -0.7,1.47 -0.63,0.28 -2.8,0.28 -2.17,0 -2.87,-0.28 z m -21,0 q -0.63,-0.35 -0.63,-1.47 0,-1.12 0.63,-1.4 0.7,-0.35 2.87,-0.35 2.17,0 2.8,0.35 0.7,0.28 0.7,1.4 0,1.12 -0.7,1.47 -0.63,0.28 -2.8,0.28 -2.17,0 -2.87,-0.28 z m -0.63,-8.47 q 0,-1.05 1.05,-1.33 1.54,-0.42 11.2,-0.42 10.57,0 11.69,0.63 0.56,0.28 0.56,1.12 0,1.05 -1.05,1.33 -1.54,0.42 -11.2,0.42 -10.57,0 -11.69,-0.63 -0.56,-0.28 -0.56,-1.12 z"
     style="font-size:70px;fill:#ff0000;stroke-width:0.9375"
     id="path916"
     inkscape:connector-curvature="0" /><path
     d="m 454.74414,123.49826 q 0,-1.12 1.05,-1.4 1.33,-0.35 9.45,-0.35 9.03,0 10.01,0.63 0.49,0.28 0.49,1.12 0,1.12 -1.05,1.4 -1.33,0.35 -9.45,0.35 -9.03,0 -10.01,-0.63 -0.49,-0.28 -0.49,-1.12 z m 18.13,-5.53 q -0.63,-0.35 -0.63,-1.47 0,-1.12 0.63,-1.4 0.7,-0.35 2.87,-0.35 2.17,0 2.8,0.35 0.7,0.28 0.7,1.4 0,1.12 -0.7,1.47 -0.63,0.28 -2.8,0.28 -2.17,0 -2.87,-0.28 z m -21,0 q -0.63,-0.35 -0.63,-1.47 0,-1.12 0.63,-1.4 0.7,-0.35 2.87,-0.35 2.17,0 2.8,0.35 0.7,0.28 0.7,1.4 0,1.12 -0.7,1.47 -0.63,0.28 -2.8,0.28 -2.17,0 -2.87,-0.28 z m 21,-7 q -0.63,-0.35 -0.63,-1.47 0,-1.12 0.63,-1.4 0.7,-0.35 2.87,-0.35 2.17,0 2.8,0.35 0.7,0.28 0.7,1.4 0,1.12 -0.7,1.47 -0.63,0.28 -2.8,0.28 -2.17,0 -2.87,-0.28 z m -21,0 q -0.63,-0.35 -0.63,-1.47 0,-1.12 0.63,-1.4 0.7,-0.35 2.87,-0.35 2.17,0 2.8,0.35 0.7,0.28 0.7,1.4 0,1.12 -0.7,1.47 -0.63,0.28 -2.8,0.28 -2.17,0 -2.87,-0.28 z m 21,-7 q -0.63,-0.35 -0.63,-1.47 0,-1.12 0.63,-1.4 0.7,-0.35 2.87,-0.35 2.17,0 2.8,0.35 0.7,0.28 0.7,1.4 0,1.12 -0.7,1.47 -0.63,0.28 -2.8,0.28 -2.17,0 -2.87,-0.28 z m -21,0 q -0.63,-0.35 -0.63,-1.47 0,-1.12 0.63,-1.4 0.7,-0.35 2.87,-0.35 2.17,0 2.8,0.35 0.7,0.28 0.7,1.4 0,1.12 -0.7,1.47 -0.63,0.28 -2.8,0.28 -2.17,0 -2.87,-0.28 z m 2.87,-8.47 q 0,-1.12 1.05,-1.4 1.33,-0.35 9.45,-0.35 9.03,0 10.01,0.63 0.49,0.28 0.49,1.12 0,1.12 -1.05,1.4 -1.33,0.35 -9.45,0.35 -9.03,0 -10.01,-0.63 -0.49,-0.28 -0.49,-1.12 z"
     style="font-size:70px;fill:#ff0000;stroke-width:0.9375"
     id="path918"
     inkscape:connector-curvature="0" /><path
     d="m 507.87414,124.96826 q -0.63,-0.35 -0.63,-1.47 0,-1.12 0.63,-1.4 0.7,-0.35 2.87,-0.35 2.17,0 2.8,0.35 0.7,0.28 0.7,1.4 0,1.12 -0.7,1.47 -0.63,0.28 -2.8,0.28 -2.17,0 -2.87,-0.28 z m -21,0 q -0.63,-0.35 -0.63,-1.47 0,-1.12 0.63,-1.4 0.7,-0.35 2.87,-0.35 2.17,0 2.8,0.35 0.7,0.28 0.7,1.4 0,1.12 -0.7,1.47 -0.63,0.28 -2.8,0.28 -2.17,0 -2.87,-0.28 z m 21,-7 q -0.63,-0.35 -0.63,-1.47 0,-1.12 0.63,-1.4 0.7,-0.35 2.87,-0.35 2.17,0 2.8,0.35 0.7,0.28 0.7,1.4 0,1.12 -0.7,1.47 -0.63,0.28 -2.8,0.28 -2.17,0 -2.87,-0.28 z m -10.5,0 q -0.63,-0.35 -0.63,-1.47 0,-1.12 0.63,-1.4 0.7,-0.35 2.87,-0.35 2.17,0 2.8,0.35 0.7,0.28 0.7,1.4 0,1.12 -0.7,1.47 -0.63,0.28 -2.8,0.28 -2.17,0 -2.87,-0.28 z m -10.5,0 q -0.63,-0.35 -0.63,-1.47 0,-1.12 0.63,-1.4 0.7,-0.35 2.87,-0.35 2.17,0 2.8,0.35 0.7,0.28 0.7,1.4 0,1.12 -0.7,1.47 -0.63,0.28 -2.8,0.28 -2.17,0 -2.87,-0.28 z m 21,-7 q -0.63,-0.35 -0.63,-1.47 0,-1.12 0.63,-1.4 0.7,-0.35 2.87,-0.35 2.17,0 2.8,0.35 0.7,0.28 0.7,1.4 0,1.12 -0.7,1.47 -0.63,0.28 -2.8,0.28 -2.17,0 -2.87,-0.28 z m -10.5,0 q -0.63,-0.35 -0.63,-1.47 0,-1.12 0.63,-1.4 0.7,-0.35 2.87,-0.35 2.17,0 2.8,0.35 0.7,0.28 0.7,1.4 0,1.12 -0.7,1.47 -0.63,0.28 -2.8,0.28 -2.17,0 -2.87,-0.28 z m -10.5,0 q -0.63,-0.35 -0.63,-1.47 0,-1.12 0.63,-1.4 0.7,-0.35 2.87,-0.35 2.17,0 2.8,0.35 0.7,0.28 0.7,1.4 0,1.12 -0.7,1.47 -0.63,0.28 -2.8,0.28 -2.17,0 -2.87,-0.28 z m -0.63,-8.47 q 0,-1.05 1.05,-1.33 1.68,-0.42 12.95,-0.42 12.11,0 13.37,0.63 0.63,0.28 0.63,1.12 0,1.05 -1.05,1.33 -1.68,0.42 -12.95,0.42 -12.11,0 -13.37,-0.63 -0.63,-0.28 -0.63,-1.12 z m 18.13,-5.53 q -0.63,-0.35 -0.63,-1.47 0,-1.12 0.63,-1.4 0.7,-0.35 2.87,-0.35 2.17,0 2.8,0.35 0.7,0.28 0.7,1.4 0,1.12 -0.7,1.47 -0.63,0.28 -2.8,0.28 -2.17,0 -2.87,-0.28 z m -17.22,0 q -0.91,-0.28 -0.91,-1.47 0,-1.19 0.91,-1.47 0.91,-0.28 4.34,-0.28 3.43,0 4.34,0.28 0.91,0.28 0.91,1.47 0,1.19 -0.91,1.47 -0.91,0.28 -4.34,0.28 -3.43,0 -4.34,-0.28 z"
     style="font-size:70px;fill:#ff0000;stroke-width:0.9375"
     id="path920"
     inkscape:connector-curvature="0" /><path
     d="m 521.24414,123.49826 q 0,-1.05 1.05,-1.33 1.54,-0.42 11.2,-0.42 10.57,0 11.69,0.63 0.56,0.28 0.56,1.12 0,1.05 -1.05,1.33 -1.54,0.42 -11.2,0.42 -10.57,0 -11.69,-0.63 -0.56,-0.28 -0.56,-1.12 z m 21.63,-5.53 q -0.63,-0.35 -0.63,-1.47 0,-1.12 0.63,-1.4 0.7,-0.35 2.87,-0.35 2.17,0 2.8,0.35 0.7,0.28 0.7,1.4 0,1.12 -0.7,1.47 -0.63,0.28 -2.8,0.28 -2.17,0 -2.87,-0.28 z m -18.13,-8.47 q 0,-1.12 1.05,-1.4 1.33,-0.35 9.45,-0.35 9.03,0 10.01,0.63 0.49,0.28 0.49,1.12 0,1.12 -1.05,1.4 -1.33,0.35 -9.45,0.35 -9.03,0 -10.01,-0.63 -0.49,-0.28 -0.49,-1.12 z m -2.87,-5.53 q -0.63,-0.35 -0.63,-1.47 0,-1.12 0.63,-1.4 0.7,-0.35 2.87,-0.35 2.17,0 2.8,0.35 0.7,0.28 0.7,1.4 0,1.12 -0.7,1.47 -0.63,0.28 -2.8,0.28 -2.17,0 -2.87,-0.28 z m 2.87,-8.47 q 0,-1.12 1.05,-1.4 1.33,-0.35 9.45,-0.35 9.03,0 10.01,0.63 0.49,0.28 0.49,1.12 0,1.12 -1.05,1.4 -1.33,0.35 -9.45,0.35 -9.03,0 -10.01,-0.63 -0.49,-0.28 -0.49,-1.12 z"
     style="font-size:70px;fill:#ff0000;stroke-width:0.9375"
     id="path922"
     inkscape:connector-curvature="0" /><path
     d="m 559.74414,123.49826 q 0,-1.12 1.05,-1.4 1.33,-0.35 9.45,-0.35 9.03,0 10.01,0.63 0.49,0.28 0.49,1.12 0,1.12 -1.05,1.4 -1.33,0.35 -9.45,0.35 -9.03,0 -10.01,-0.63 -0.49,-0.28 -0.49,-1.12 z m -2.87,-5.53 q -0.63,-0.35 -0.63,-1.47 0,-1.12 0.63,-1.4 0.7,-0.35 2.87,-0.35 2.17,0 2.8,0.35 0.7,0.28 0.7,1.4 0,1.12 -0.7,1.47 -0.63,0.28 -2.8,0.28 -2.17,0 -2.87,-0.28 z m -0.63,-8.47 q 0,-1.05 1.05,-1.33 1.68,-0.42 12.95,-0.42 12.11,0 13.37,0.63 0.63,0.28 0.63,1.12 0,1.05 -1.05,1.33 -1.68,0.42 -12.95,0.42 -12.11,0 -13.37,-0.63 -0.63,-0.28 -0.63,-1.12 z m 21.63,-5.53 q -0.63,-0.35 -0.63,-1.47 0,-1.12 0.63,-1.4 0.7,-0.35 2.87,-0.35 2.17,0 2.8,0.35 0.7,0.28 0.7,1.4 0,1.12 -0.7,1.47 -0.63,0.28 -2.8,0.28 -2.17,0 -2.87,-0.28 z m -21,0 q -0.63,-0.35 -0.63,-1.47 0,-1.12 0.63,-1.4 0.7,-0.35 2.87,-0.35 2.17,0 2.8,0.35 0.7,0.28 0.7,1.4 0,1.12 -0.7,1.47 -0.63,0.28 -2.8,0.28 -2.17,0 -2.87,-0.28 z m 2.87,-8.47 q 0,-1.12 1.05,-1.4 1.33,-0.35 9.45,-0.35 9.03,0 10.01,0.63 0.49,0.28 0.49,1.12 0,1.12 -1.05,1.4 -1.33,0.35 -9.45,0.35 -9.03,0 -10.01,-0.63 -0.49,-0.28 -0.49,-1.12 z"
     style="font-size:70px;fill:#ff0000;stroke-width:0.9375"
     id="path924"
     inkscape:connector-curvature="0" /><path
     d="m 602.65414,124.96826 q -0.91,-0.28 -0.91,-1.47 0,-1.19 0.91,-1.47 0.91,-0.28 4.34,-0.28 3.43,0 4.34,0.28 0.91,0.28 0.91,1.47 0,1.19 -0.91,1.47 -0.91,0.28 -4.34,0.28 -3.43,0 -4.34,-0.28 z m 6.72,-7 q -0.63,-0.35 -0.63,-1.47 0,-1.12 0.63,-1.4 0.7,-0.35 2.87,-0.35 2.17,0 2.8,0.35 0.7,0.28 0.7,1.4 0,1.12 -0.7,1.47 -0.63,0.28 -2.8,0.28 -2.17,0 -2.87,-0.28 z m -10.5,0 q -0.63,-0.35 -0.63,-1.47 0,-1.12 0.63,-1.4 0.7,-0.35 2.87,-0.35 2.17,0 2.8,0.35 0.7,0.28 0.7,1.4 0,1.12 -0.7,1.47 -0.63,0.28 -2.8,0.28 -2.17,0 -2.87,-0.28 z m 0,-7 q -0.63,-0.35 -0.63,-1.47 0,-1.12 0.63,-1.4 0.7,-0.35 2.87,-0.35 2.17,0 2.8,0.35 0.7,0.28 0.7,1.4 0,1.12 -0.7,1.47 -0.63,0.28 -2.8,0.28 -2.17,0 -2.87,-0.28 z m 0,-7 q -0.63,-0.35 -0.63,-1.47 0,-1.12 0.63,-1.4 0.7,-0.35 2.87,-0.35 2.17,0 2.8,0.35 0.7,0.28 0.7,1.4 0,1.12 -0.7,1.47 -0.63,0.28 -2.8,0.28 -2.17,0 -2.87,-0.28 z m -7.63,-8.47 q 0,-1.12 1.05,-1.4 1.33,-0.35 9.45,-0.35 9.03,0 10.01,0.63 0.49,0.28 0.49,1.12 0,1.12 -1.05,1.4 -1.33,0.35 -9.45,0.35 -9.03,0 -10.01,-0.63 -0.49,-0.28 -0.49,-1.12 z m 7.63,-5.53 q -0.63,-0.35 -0.63,-1.47 0,-1.12 0.63,-1.4 0.7,-0.35 2.87,-0.35 2.17,0 2.8,0.35 0.7,0.28 0.7,1.4 0,1.12 -0.7,1.47 -0.63,0.28 -2.8,0.28 -2.17,0 -2.87,-0.28 z m 0,-7 q -0.63,-0.35 -0.63,-1.47 0,-1.12 0.63,-1.4 0.7,-0.35 2.87,-0.35 2.17,0 2.8,0.35 0.7,0.28 0.7,1.4 0,1.12 -0.7,1.47 -0.63,0.28 -2.8,0.28 -2.17,0 -2.87,-0.28 z"
     style="font-size:70px;fill:#ff0000;stroke-width:0.9375"
     id="path926"
     inkscape:connector-curvature="0" /></g></svg>