<?xml version="1.0" encoding="UTF-8" standalone="no"?>
<svg
   xmlns:dc="http://purl.org/dc/elements/1.1/"
   xmlns:cc="http://creativecommons.org/ns#"
   xmlns:rdf="http://www.w3.org/1999/02/22-rdf-syntax-ns#"
   xmlns:svg="http://www.w3.org/2000/svg"
   xmlns="http://www.w3.org/2000/svg"
   xmlns:sodipodi="http://sodipodi.sourceforge.net/DTD/sodipodi-0.dtd"
   xmlns:inkscape="http://www.inkscape.org/namespaces/inkscape"
   width="335.14206"
   height="127.40268"
   viewBox="0 0 335.14206 127.40268"
   version="1.1"
   xml:space="preserve"
   style="clip-rule:evenodd;fill-rule:evenodd;stroke-linejoin:round;stroke-miterlimit:1.41420996"
   id="svg11"
   sodipodi:docname="system.svg"
   inkscape:version="0.92.3 (2405546, 2018-03-11)"><metadata
     id="metadata17"><rdf:RDF><cc:Work
         rdf:about=""><dc:format>image/svg+xml</dc:format><dc:type
           rdf:resource="http://purl.org/dc/dcmitype/StillImage" /><dc:title /></cc:Work></rdf:RDF></metadata><defs
     id="defs15" /><sodipodi:namedview
     pagecolor="#ffffff"
     bordercolor="#666666"
     borderopacity="1"
     objecttolerance="10"
     gridtolerance="10"
     guidetolerance="10"
     inkscape:pageopacity="0"
     inkscape:pageshadow="2"
     inkscape:window-width="1920"
     inkscape:window-height="1015"
     id="namedview13"
     showgrid="false"
     units="px"
     inkscape:zoom="2.1580756"
     inkscape:cx="166.19535"
     inkscape:cy="-30.468611"
     inkscape:window-x="0"
     inkscape:window-y="0"
     inkscape:window-maximized="1"
     inkscape:current-layer="g4180"
     fit-margin-top="0"
     fit-margin-left="0"
     fit-margin-right="0"
     fit-margin-bottom="0" /><g
     id="g4180"
     transform="matrix(1.1526871,0,0,1.1526871,0,3.0783984e-4)"><g
       id="g5052"
       transform="matrix(0.72,0,0,0.72,40.704793,15.473661)"><path
         sodipodi:nodetypes="ccccccccccccccccccccccccccccccccccccccccccccc"
         inkscape:connector-curvature="0"
         style="fill-rule:nonzero"
         d="m 244.172,0.002 c -7.536,0.289 -12.292,8.279 -12.36,15.261 -0.402,2.214 -1.656,2.841 -4.846,2.552 -8.716,-0.572 -16.669,4.478 -22.437,10.596 -0.725,-6.498 -7.402,-9.478 -13.186,-9.778 -9.714,-2.257 -21.177,-0.411 -27.971,7.406 -1.763,-6.879 -9.67,-9.365 -16.033,-8.539 -5.019,0.336 -9.7,2.305 -14.264,4.253 -4.044,-5.823 -12.752,-4.98 -18.047,-1.41 C 108.947,15.951 98.65,18.968 97.08,26.658 95.788,30.263 93.791,33.551 91.825,36.816 88.924,26.597 91.015,15.332 86.32,5.613 79.887,-2.16 66.26,0.255 61.776,8.94 56.776,16.673 52.901,25.144 46.899,32.207 33.907,49.954 21.474,68.129 8.048,85.55 4.647,90.03 0.731,95.072 0,100.894 c 1.612,7.625 11.231,10.417 17.888,7.86 9.439,-3.109 14.368,-12.525 18.505,-20.768 2.114,-3.677 4.298,-7.323 6.783,-10.765 10.855,-0.445 21.774,-0.447 32.56,1.004 2.997,10.111 2.771,22.438 11.307,29.905 6.512,5.517 18.674,0.943 18.831,-7.957 18.235,-80.825 164.067,27.73 184.835,-34.923 0.526,-4.614 -4.303,-6.978 -8.255,-6.735 -1.839,0.411 -3.673,-1.872 -1.666,-3.051 4.993,-3.586 10.625,-9.782 8.357,-16.399 -0.684,-2.282 -4.043,-2.676 -4.752,-4.083 2.642,-8.883 -4.63,-18.14 -15.039,-17.516 -7.719,0.167 -14.465,4.466 -20.186,9.32 1.21,-7.834 6.181,-20.2667007 5.095,-23.198 -2.136,-3.31 -6.538,-3.62 -10.091,-3.586 z M 101.716,89.156 c -3.376,6.902 -1.758,17.001 5.921,20.229 6.19,2.652 13.355,0.245 18.753,-3.064 4.757,4.102 12.26,2.701 16.628,-0.936 4.552,3.911 11.538,2.227 15.896,-0.936 3.981,3.282 10.358,2.783 13.936,-0.643 6.14,3.521 14.402,1.976 19.771,-2.12 5.919,4.271 14.222,2.682 20.139,-0.748 0.864,-0.512 1.588,-1.936 2.376,-0.529 4.581,3.616 11.778,2.515 15.599,-1.602 6.194,4.17 14.753,2.941 20.661,-1.151 7.378,4.452 18.461,2.639 23.354,-4.654 2.032,-3.195 2.266,-7.359 0.642,-10.752 -2.433,-18.04 -151.21,-33.715 -173.676,6.906 z"
         id="path5366" /></g><path
       id="path5328"
       d="m 105.39751,90.825261 c -2.32848,-1.41984 -3.96072,-5.35968 -5.571357,-13.44744 -0.76896,-3.86352 -1.65312,-7.3728 -1.96488,-7.79832 -0.93672,-1.28232 -5.0328,-1.85112 -16.84656,-1.8288 -3.744,0.0065 -10.86624,-0.56736 -11.53512,0.70632 -1.13328,2.15712 -4.37832,6.74784 -5.94864,9.68472 -3.90384,7.3224 -5.1912,9.12456 -7.94736,11.12112 -3.66192,2.652482 -8.88408,2.486882 -11.11824,-0.35424 -0.95688,-1.2168 -0.9684,-1.38384 -0.1944,-2.89872 0.45144,-0.88488 2.12616,-3.33216 3.72096,-5.43816 1.5948,-2.10672 5.10984,-6.74136 7.812,-10.2996 2.70144,-3.55824 5.3028,-7.23528 5.77944,-8.17056 0.47736,-0.936 4.19904,-6.14952 8.26992,-11.58552 8.99064,-12.006 14.3388,-19.8576 16.65504,-24.45264 1.99512,-3.95928 3.04848,-5.05872 5.77584,-6.03144 5.53608,-1.97424 9.343437,0.57312 9.350637,6.25536 0.006,3.71952 1.314,13.53816 2.81232,21.09096 1.87992,9.47952 2.33208,10.7748 4.09752,11.74896 1.00729,0.55656 117.61273,1.82592 118.91665,1.82304 23.48856,-0.04392 20.93472,-1.44576 16.5024,5.95368 -5.22,8.71344 -13.31784,5.39712 -22.87224,5.49792 -14.48568,-0.70992 -83.27232,-5.60592 -110.26152,-5.10768 -2.08873,1.48752 -1.99153,2.99952 0.56448,8.78616 4.05216,9.1764 2.97144,15.729842 -2.59345,15.724082 -0.99072,-0.0016 -2.52216,-0.44208 -3.40344,-0.979202 z m -9.133197,-31.26312 c 0.17928,-0.18 -0.288,-3.85632 -1.03752,-8.17056 -1.3896,-7.99128 -2.9484,-13.9536 -3.78288,-14.46984 -0.72504,-0.44784 -15.54264,19.764 -15.9624,21.77352 -0.10296,0.49176 0.7884,0.77184 3.17664,0.9972 4.22424,0.39816 17.1756,0.3024 17.60616,-0.13032 z M 218.25248,18.731661 c -1.46232,-0.12096 -3.09024,0.13392 -4.38552,0.94392 -1.88784,1.728 -2.60712,4.66632 -3.132,6.92784 -0.28008,1.22328 -0.50616,2.54808 -0.79128,3.6612 -0.28512,1.1124 -0.6732,1.99368 -1.02312,2.30256 -0.17496,0.1548 -0.29736,0.20088 -0.522,0.17928 -0.50688,-0.18432 -0.78624,-0.40536 -1.20672,-0.59616 -3.87792,-1.38528 -7.8444,-0.558 -11.20032,1.41768 -3.35592,1.97496 -6.14016,5.08896 -7.78896,8.40528 -0.009,0.01728 -0.0166,0.03528 -0.023,0.05328 -1.52424,3.9816 -4.14288,8.54352 -8.17848,9.81288 -0.3636,-1.82664 0.11304,-3.90168 0.9072,-6.10632 0.86904,-2.40984 2.03112,-4.91328 2.48256,-7.36128 0.936,-1.44288 1.22256,-2.64024 0.81648,-3.60936 -0.4176,-0.9936 -1.41624,-1.50624 -2.51712,-1.84176 -2.20248,-0.67176 -5.19984,-0.74952 -6.8184,-1.28376 -0.0281,-0.0094 -0.0569,-0.01656 -0.0864,-0.0216 -8.49816,-1.48248 -16.38,4.74048 -19.40688,12.24144 -0.0137,0.0324 -0.0238,0.06552 -0.031,0.09936 -0.96696,4.49568 -5.67144,7.29432 -10.03896,8.27712 -0.0202,0.0043 -0.0403,0.01008 -0.0598,0.01656 -2.40048,0.80496 -4.18608,-0.04608 -5.31432,-1.6236 -1.12824,-1.57752 -1.49184,-3.924 -0.7092,-5.98608 0.0202,-0.054 0.0331,-0.11088 0.0374,-0.16848 0.14328,-1.83312 1.52064,-4.9356 3.28464,-6.82128 0.882,-0.9432 1.84608,-1.57176 2.71512,-1.70928 0.8532,-0.13464 1.66752,0.12024 2.56032,1.16136 0.10296,0.18288 0.16992,0.62136 0.13464,1.18944 -0.0367,0.57888 -0.14544,1.25712 -0.20016,1.91088 -0.0547,0.65304 -0.0914,1.29168 0.21312,1.8792 0.15264,0.29376 0.42624,0.5616 0.76968,0.69192 0.34344,0.13032 0.7236,0.13824 1.14192,0.06624 l -0.2304,-0.0043 c 1.37232,0.29448 2.574,0.18432 3.43584,-0.50472 0.8352,-0.66744 1.22184,-1.78632 1.26288,-3.204 1.2312,-2.25792 1.13976,-4.41432 -0.0266,-5.85864 -1.17648,-1.45656 -3.29544,-2.1096 -5.75568,-1.75752 -4.33008,-0.54576 -8.29224,1.0512 -11.3688,3.73608 -3.0852,2.69208 -5.31,6.4692 -6.24888,10.37376 -0.7236,2.2536 -0.66168,4.84992 0.24984,7.04016 0.91512,2.19744 2.74824,3.99384 5.43888,4.41288 l 0.004,7.2e-4 c 5.4864,0.82728 11.5128,0.04464 15.97824,-3.67128 0.0374,-0.03096 0.0706,-0.06624 0.0994,-0.10512 0.62928,-0.8496 1.09224,-1.13472 1.25856,-1.16784 0.0828,-0.01656 0.108,-0.01152 0.18648,0.03168 0.0778,0.04248 0.19656,0.144 0.32688,0.3096 0.52056,0.66312 1.06488,2.20824 2.08152,3.27024 0.018,0.01872 0.0374,0.03672 0.0576,0.05328 2.19528,1.7676 4.90968,1.98432 7.38936,1.2888 2.4804,-0.69624 4.77216,-2.27448 6.34104,-4.18176 l -0.0166,0.02016 c 0.42696,-0.4752 0.85248,-0.9252 1.21752,-1.26 0.14976,-0.13824 0.18288,-0.13824 0.30744,-0.22824 -0.036,0.30528 -0.0562,0.6012 -0.27144,1.29888 -0.0223,0.07344 -0.031,0.14976 -0.0245,0.2268 0.13752,1.75824 0.8964,3.024 2.00808,3.726 1.11168,0.702 2.49912,0.85464 3.90456,0.68256 2.8116,-0.34344 5.7888,-1.94328 7.27632,-3.95136 0.005,-0.0072 0.0108,-0.0144 0.0158,-0.0216 0.63648,-0.9432 1.11096,-1.25784 1.22976,-1.28448 0.0598,-0.01368 0.0497,-0.01584 0.11664,0.02592 0.067,0.04176 0.18432,0.15552 0.31248,0.3384 0.51264,0.7308 1.03824,2.39688 2.22624,3.39984 0.008,0.0065 0.0158,0.01224 0.023,0.018 2.21112,1.69272 4.8996,1.87704 7.35336,1.17288 2.45448,-0.70488 4.716,-2.2716 6.27696,-4.16304 l -0.0166,0.01944 c 0.42696,-0.4752 0.8532,-0.9252 1.21752,-1.26 0.15048,-0.13896 0.18432,-0.13824 0.30816,-0.22824 -0.0353,0.30528 -0.0562,0.6012 -0.27072,1.29888 -0.023,0.07272 -0.031,0.14904 -0.0252,0.22464 0.1332,1.75032 0.8856,3.01392 1.99008,3.71808 1.1052,0.70344 2.48616,0.86256 3.88656,0.69768 2.80008,-0.32904 5.77008,-1.908 7.25904,-3.906 0.006,-0.0086 0.0122,-0.01728 0.018,-0.02664 0.39312,-0.58968 0.72792,-0.9756 0.98064,-1.18944 0.25272,-0.21384 0.39384,-0.24408 0.4644,-0.24408 0.0706,0 0.14976,0.02376 0.30096,0.16056 0.1512,0.1368 0.3384,0.378 0.53568,0.6804 0.39456,0.60624 0.8316,1.44432 1.42416,2.19672 0.58968,0.74952 1.37808,1.44 2.4588,1.62 4.54032,1.2312 9.74664,0.99936 14.0472,-1.17936 0.0274,-0.01368 0.0533,-0.0288 0.0778,-0.04608 1.68048,-1.1916 3.88656,-2.48616 5.73048,-4.08672 1.84392,-1.60056 3.36528,-3.55896 3.48984,-6.05592 0.0209,-0.41688 -0.37584,-0.7308 -0.77688,-0.61416 -2.0052,0.58104 -3.61872,2.22192 -5.29272,3.75552 -1.67328,1.53432 -3.38184,2.9664 -5.364,3.37824 -0.0533,0.0108 -0.1044,0.0288 -0.15264,0.05328 -1.83672,0.93744 -4.14792,0.81288 -5.81832,-0.1152 -1.55304,-0.86328 -2.50416,-2.34144 -2.23272,-4.392 4.72824,-0.23832 10.1268,-0.468 13.8348,-4.22136 2.07504,-2.00304 2.5092,-5.11704 1.63224,-7.63776 -0.8676,-2.49552 -3.84048,-4.13784 -6.36984,-4.122 -4.27608,0.02664 -8.22024,1.48392 -11.22768,4.23144 -2.97936,2.72232 -5.09904,6.46272 -5.9976,10.3392 -0.70488,1.0764 -2.36592,3.31992 -3.95208,4.69584 -0.8028,0.69624 -1.59408,1.1304 -2.06424,1.16856 -0.23472,0.01872 -0.378,-0.02088 -0.54144,-0.15624 -0.13968,-0.11592 -0.2952,-0.40176 -0.43488,-0.76896 3.04272,-10.27152 6.5412,-20.41992 9.666,-30.7008 0.0806,-0.26424 -0.0274,-0.54936 -0.26208,-0.69408 -0.70704,-0.43704 -1.61136,-0.68328 -2.58624,-0.76464 z m -88.11432,12.56688 c -2.22624,0.0043 -4.24368,1.23984 -5.92992,2.48256 -0.68832,0.50616 -1.27728,0.98568 -1.84104,1.43064 0.10584,-0.34848 0.17352,-0.68472 0.16056,-1.00296 -0.0374,-0.92736 -0.70488,-1.61856 -1.50408,-1.92096 -1.5984,-0.6048 -3.87648,-0.25992 -5.79312,0.41832 -0.16416,0.05832 -0.2952,0.1836 -0.36072,0.34488 -2.73744,6.76512 -7.45201,13.24584 -7.18993,20.47464 0.44856,4.82184 1.39392,4.26888 6.45625,4.18824 0.28008,-0.07416 0.99288,-1.08792 1.09152,-1.3608 0.90504,-2.5092 2.44872,-7.17336 4.194,-10.48032 0.0122,-0.0216 0.0223,-0.04464 0.031,-0.06768 0.39384,-1.0368 2.26656,-3.93192 3.95136,-5.64912 0.84312,-0.85824 1.70352,-1.38456 2.0016,-1.41048 0.14904,-0.01224 0.1332,-0.03168 0.2304,0.1188 0.0936,0.144 0.20808,0.5436 0.23616,1.15776 -0.28368,0.76968 -0.36,1.44144 -0.0734,1.98072 0.31392,0.58968 0.94104,0.8316 1.5336,0.90648 1.1844,0.14976 2.58552,-0.20592 3.53736,-0.41904 0.2484,-0.05544 0.4356,-0.2592 0.47016,-0.51048 0.0756,-0.54864 0.40968,-1.43784 0.82584,-2.40912 0.41688,-0.97128 0.9072,-2.04048 1.27584,-3.07368 0.36792,-1.03392 0.63576,-2.0268 0.50616,-2.94768 -0.0648,-0.46008 -0.24912,-0.91296 -0.59112,-1.26216 -0.33984,-0.34632 -0.81216,-0.57024 -1.37304,-0.67608 -0.61704,-0.21312 -1.23768,-0.31392 -1.84536,-0.31248 z m 41.90976,4.14792 c 1.4256,0.11088 2.60064,0.8064 3.27384,2.46024 -1.83384,4.88232 -4.45968,9.72864 -8.57952,12.8844 l -0.7488,0.35712 -0.7452,0.19872 c -1.278,-0.14832 -1.92312,-0.6552 -2.30688,-1.43136 -0.39384,-0.79632 -0.46728,-1.95192 -0.2808,-3.23568 0.37296,-2.5668 1.75392,-5.58648 2.736,-7.14096 0.018,-0.02808 0.0338,-0.0576 0.0468,-0.08856 0.99144,-2.34576 4.12848,-4.19616 6.60456,-4.00392 z m 31.68576,0.0014 c 1.52208,0.0144 2.78712,0.69048 3.5424,2.54736 -1.89288,4.83192 -4.46184,9.65592 -8.56152,12.78288 -0.87768,0.40824 -1.58328,0.58824 -2.10672,0.60192 -0.53568,0.01368 -0.87912,-0.11664 -1.15488,-0.34416 -0.55224,-0.45576 -0.86904,-1.49976 -0.8676,-2.8548 0.004,-2.71008 1.2708,-6.44688 2.20536,-7.74072 0.0331,-0.04608 0.0598,-0.09648 0.0792,-0.14976 0.45792,-1.27224 1.49544,-2.51208 2.76984,-3.40992 1.2744,-0.89784 2.77632,-1.44504 4.09392,-1.4328 z m 29.92896,0.25056 c 0.69552,-0.0086 0.92952,0.22752 1.11024,0.75312 0.18144,0.52488 0.15768,1.37952 -0.1044,2.268 -0.5256,1.77624 -1.91088,3.27456 -3.38256,3.80592 -1.80864,0.65304 -3.51432,0.82656 -3.59712,0.71784 -0.0929,-0.072 -0.18648,-0.13824 -0.2232,-0.24192 -0.0518,-0.144 -0.067,-0.36504 -0.013,-0.65736 0.10872,-0.58536 0.50184,-1.4076 1.04472,-2.23704 1.0728,-1.64016 2.72808,-3.34728 3.55752,-3.9636 0.67968,-0.31032 1.22328,-0.44064 1.60776,-0.44496 z"
       style="fill:#f4c401;fill-rule:nonzero;stroke-width:0.71999997"
       inkscape:connector-curvature="0" /><path
       id="circle5423"
       d="m 210.308,61.142541 c 0,3.82392 -3.1464,6.97032 -6.97032,6.97032 -3.82392,0 -6.97032,-3.1464 -6.97032,-6.97032 0,-3.82392 3.1464,-6.97032 6.97032,-6.97032 3.82392,0 6.97032,3.1464 6.97032,6.97032 z"
       style="fill:#ffffff;stroke-width:0.71999997"
       inkscape:connector-curvature="0" /><g
       id="g5416"
       transform="matrix(0.72,0,0,0.72,40.704793,15.473661)"><path
         id="path5376"
         d="m 221.178,71.439 c -1.617,0.584 -2.634,2.58 -3.634,3.392 -2.896,-4.939 -9.817,-4.666 -14.608,-3.19 -2.5,0.931 -4.658,2.838 -6.19,4.881 -2.243,-4.454 -7.999,-4.242 -12.229,-3.912 -4.797,0.439 -10.069,4.404 -9.633,9.586 0.312,1.242 1.368,3.139 -0.579,3.504 -1.788,1.104 -2.897,2.953 -3.991,4.686 0.685,-4.204 3.748,-8.776 1.878,-12.966 -2.923,-3.297 -7.765,-2.006 -11.592,-2.889 -9.341,-0.067 -17.332,7.502 -19.599,16.27 -0.44,1.222 -3.034,5.467 -2.955,3.455 0.615,-7.399 6.984,-11.928 10.249,-18.054 2.496,-3.968 3.245,-10.747 -1.728,-13.138 -5.388,-2.92 -12.92,0.406 -14.213,6.463 -1.503,3.64 -2.113,8.46 -3.221,11.621 -1.604,-4.162 -6.999,-4.065 -10.701,-3.722 -10.767,1.563 -19.518,14.132 -14.781,24.534 2.871,5.499 10.076,6.485 15.427,4.429 2.767,-0.622 5.441,-2.579 7.617,-3.772 4.235,5.103 12.707,3.227 16.299,-1.422 3.145,4.546 9.929,4.21 13.808,0.839 1.173,-1.105 2.763,-2.047 3.763,-0.18 3.352,3.19 9.585,1.807 11.779,-2.157 5.168,4.617 13.635,3.385 18.766,-0.675 0.92,-0.995 1.66,-1.702 2.509,-0.313 5.309,4.148 12.992,2.339 18.368,-0.677 0.974,-0.804 1.65,-2.14 2.389,-2.96 3.006,6.273 12.721,5.316 15.991,-0.178 3.582,3.25 8.89,4.044 13.515,2.817 2.855,-0.545 5.404,-2.342 7.808,-3.594 2.066,1.456 4.241,2.916 6.922,2.693 6.381,0.638 14.247,-2.407 15.545,-9.363 0.84,-2.497 -1.234,-4.96 -1.493,-7.029 4.041,-1.768 4.841,-7.484 2.657,-10.957 -2.723,-3.51 -7.899,-2.665 -11.804,-2.383 -3.123,0.346 -6.108,2.243 -8.047,4.386 -1.562,-0.309 -2.374,-2.466 -4.327,-2.508 -9.84,-2.971 -20.629,4.713 -22.429,14.529 -0.455,0.79 -0.978,3.153 -1.638,3.031 0.463,-4.941 4.163,-9.841 2.358,-14.888 -1.132,-1.879 -5.904,-1.959 -8.256,-0.189 z m 22.694,5.898 c -0.924,3.652 2.72,7.785 6.417,6.204 -0.971,3.536 -6.153,6.914 -9.499,4.266 -0.935,-3.662 0,-8.148 3.082,-10.47 z m 11.263,1.032 c 1.065,1.156 -1.983,1.863 -0.375,0.102 0.122,0.057 0.297,-0.151 0.375,-0.102 z m -47.266,1.075 c 0.435,0.244 0.155,0.21 0,0 z m -11.47,3.108 c 0.626,0.868 -1.201,1.63 -0.368,0.399 0.088,-0.03 0.277,-0.54 0.368,-0.399 z m -37.739,0.274 c 2.311,1.473 0.266,4.782 -1.149,6.28 -1.208,1.524 -2.55,4.697 -4.358,4.569 -0.324,-4.019 1.293,-9.541 5.507,-10.849 z m 57.222,0.853 c 0.654,2.384 -2.17,3.869 -1.709,1.041 0.293,-0.71 1.646,-0.561 1.709,-1.041 z m 44.165,1.838 c 1.686,0.342 2.074,3.438 -0.186,2.742 -1.766,-0.447 -1.041,-2.397 0.186,-2.742 z m -67.132,0.601 c -0.414,0.674 0.086,-0.272 0,0 z m -74.891,0.191 c -0.785,3.39 2.338,7.686 6.031,6.207 1.573,-0.614 2.69,-0.989 0.823,0.73 -2.346,2.611 -5.832,5.356 -9.523,4.083 -1.724,-3.686 -0.568,-8.67 2.669,-11.02 z m 83.619,2.647 c 1.895,0.791 1.171,5.176 -0.936,3.344 -0.184,-1.085 0.644,-2.76 0.936,-3.344 z m -21.474,1.527 c 1.711,0.421 2.352,4.629 -0.088,3.489 -0.621,-1.016 -0.132,-2.464 0.088,-3.489 z"
         style="fill:#ffffff;fill-rule:nonzero"
         inkscape:connector-curvature="0" /><path
         id="path5361"
         d="m 142.245,64.296 c -2.383,-0.028 -4.936,0.974 -6.428,3.208 -0.009,0.014 -0.018,0.028 -0.026,0.043 -2.801,5.389 -3.472,11.562 -5.093,17.233 l 0.011,-0.033 c -0.561,1.505 -0.748,3.142 -1.076,4.652 -0.328,1.51 -0.785,2.871 -1.807,3.902 -0.011,0.011 -0.022,0.023 -0.032,0.035 -1.647,2.05 -3.922,4.274 -6.404,5.574 -2.451,1.283 -5.045,1.668 -7.598,0.231 -1.557,-2.327 -1.881,-5.611 -1.095,-8.603 0.794,-3.018 2.688,-5.687 5.403,-6.803 0.607,-0.152 1.042,-0.153 1.324,-0.071 0.288,0.084 0.453,0.229 0.596,0.473 0.286,0.486 0.36,1.41 0.365,2.38 0.006,0.97 -0.055,1.966 0.227,2.766 0.141,0.401 0.408,0.779 0.833,0.958 0.409,0.172 0.895,0.141 1.455,-0.031 1.135,0.176 2.056,-0.086 2.645,-0.705 0.621,-0.653 0.902,-1.572 1.061,-2.556 0.317,-1.968 0.147,-4.324 0.402,-5.476 0.045,-0.205 -0.055,-0.414 -0.243,-0.508 -7.767,-3.848 -17.689,0.847 -20.581,8.824 0,0.003 -0.005,0.007 -0.005,0.011 -2.031,3.264 -2.152,7.526 -0.632,10.736 1.515,3.199 4.789,5.325 9.25,4.163 5.094,0.216 9.752,-3.231 12.867,-6.359 0.037,1.449 0.507,2.613 1.309,3.433 1.008,1.032 2.456,1.528 3.993,1.612 3.074,0.168 6.603,-1.259 8.206,-3.869 v -0.003 c 0.667,-1.1 1.197,-1.697 1.538,-1.907 0.171,-0.105 0.275,-0.122 0.371,-0.113 0.095,0.01 0.209,0.056 0.359,0.174 0.598,0.474 1.432,2.074 2.761,3.684 0.044,0.053 0.099,0.096 0.162,0.125 3.155,1.44 6.292,0.688 8.894,-1.034 1.741,-1.152 3.241,-2.742 4.463,-4.421 0.016,0.257 -0.044,0.519 0.014,0.769 0.289,1.257 1.059,2.412 2.113,3.247 1.053,0.834 2.401,1.35 3.846,1.284 1.444,-0.066 2.968,-0.723 4.335,-2.155 0.029,-0.03 0.053,-0.065 0.073,-0.102 0.778,-1.467 1.406,-1.954 1.875,-2.033 0.47,-0.079 1.023,0.216 1.717,0.755 0.694,0.539 1.479,1.272 2.437,1.811 0.958,0.538 2.119,0.871 3.46,0.563 l -0.107,0.012 0.758,0.006 c 0.005,0.001 0.011,0.001 0.017,0 l 0.752,-0.02 -0.038,-0.001 c 2.879,0.16 6.108,-0.791 8.421,-2.636 2.313,-1.845 3.687,-4.675 2.655,-8.023 -0.329,-1.118 -1.31,-2.169 -2.441,-3.257 -1.132,-1.088 -2.435,-2.192 -3.443,-3.232 -1.008,-1.041 -1.668,-2.028 -1.683,-2.701 -0.008,-0.337 0.096,-0.619 0.437,-0.943 0.331,-0.315 0.917,-0.642 1.789,-0.936 1.024,-0.045 1.474,0.265 1.8,0.788 0.333,0.533 0.483,1.349 0.614,2.166 0.131,0.818 0.217,1.642 0.717,2.246 0.249,0.302 0.636,0.517 1.082,0.55 0.434,0.031 0.92,-0.091 1.494,-0.334 0.667,-0.193 1.128,-0.775 1.477,-1.476 0.354,-0.709 0.595,-1.575 0.707,-2.454 0.112,-0.88 0.098,-1.771 -0.102,-2.538 -0.2,-0.767 -0.611,-1.455 -1.33,-1.73 -0.015,-0.006 -0.03,-0.01 -0.046,-0.015 -2.557,-0.679 -5.827,-1.121 -8.805,-0.644 -2.978,0.478 -5.708,1.929 -6.92,4.998 0,0.006 -0.005,0.012 -0.007,0.018 -0.624,1.794 -0.013,3.5 1.011,5.019 1.024,1.518 2.469,2.919 3.671,4.255 1.202,1.335 2.126,2.604 2.237,3.701 0.055,0.549 -0.061,1.066 -0.459,1.635 -0.389,0.554 -1.076,1.15 -2.128,1.763 -1.568,0.327 -2.53,0.093 -3.133,-0.415 -0.613,-0.516 -0.93,-1.383 -1.014,-2.437 -0.167,-2.11 0.654,-4.857 1.249,-6.04 0.145,-0.288 -0.046,-0.633 -0.368,-0.661 -1.572,-0.139 -2.813,0.482 -3.777,1.42 -0.964,0.938 -1.698,2.179 -2.422,3.385 -0.723,1.206 -1.437,2.377 -2.278,3.179 -0.733,0.699 -1.574,1.053 -2.637,1.061 0.011,-4.521 1.738,-8.976 2.712,-13.558 l -0.036,0.102 c 0.438,-0.91 0.692,-1.67 0.746,-2.335 0.054,-0.665 -0.121,-1.264 -0.532,-1.679 -0.808,-0.816 -2.221,-0.902 -4.137,-0.758 -7.402,-2.295 -15.867,0.568 -19.89,7.328 v 0.004 c -1.364,2.334 -2.558,5.985 -4.222,8.816 -0.832,1.416 -1.776,2.613 -2.862,3.34 -1.003,0.67 -2.125,0.94 -3.502,0.672 -0.347,-3.414 1.103,-6.857 1.807,-10.419 3.357,-4.754 7.973,-9.098 9.924,-15.013 l -0.029,0.067 c 1.265,-2.448 1.044,-4.546 -0.07,-5.966 -1.113,-1.42 -3.019,-2.15 -5.005,-2.174 z m 0.308,4.326 c 0.448,0.273 0.71,0.637 0.776,1.219 0.083,0.744 -0.122,1.764 -0.501,2.845 -0.754,2.15 -2.137,4.523 -2.848,5.934 l -0.413,0.666 c 0.008,-0.123 -0.006,-0.185 0.012,-0.327 0.102,-0.911 0.353,-2.17 0.687,-3.519 0.621,-2.502 1.531,-5.229 2.287,-6.818 z m 126.872,0.543 c -1.042,-0.081 -2.14,-0.047 -3.188,0.032 -1.397,0.104 -2.703,0.3 -3.637,0.452 l -0.01,0.002 c -2.341,0.44 -3.905,1.431 -4.772,2.758 -0.867,1.327 -1.016,2.944 -0.688,4.556 0.644,3.174 3.082,6.413 5.94,8.111 1.155,1.859 1.066,3.121 0.47,3.981 -0.602,0.87 -1.843,1.386 -3.14,1.417 -1.298,0.031 -2.597,-0.424 -3.3,-1.292 -0.7,-0.864 -0.922,-2.168 0.053,-4.163 1.04,-1.078 1.537,-1.885 1.479,-2.633 -0.031,-0.385 -0.271,-0.73 -0.581,-0.904 -0.31,-0.174 -0.666,-0.223 -1.044,-0.208 -0.756,0.03 -1.63,0.327 -2.435,0.845 -0.805,0.519 -1.54,1.268 -1.917,2.241 v 0.007 c -0.904,2.458 -3.416,4.886 -6.184,6.043 -2.743,1.146 -5.625,1.077 -7.626,-1.185 -0.836,-2.504 -0.89,-5.597 -0.063,-8.312 0.835,-2.739 2.536,-5.066 5.164,-6.128 0.609,-0.153 1.045,-0.153 1.328,-0.07 0.288,0.084 0.453,0.229 0.596,0.472 0.286,0.487 0.361,1.411 0.366,2.381 0.005,0.97 -0.055,1.965 0.227,2.766 0.141,0.4 0.408,0.779 0.833,0.957 0.408,0.172 0.895,0.141 1.455,-0.03 1.135,0.175 2.055,-0.087 2.644,-0.706 0.621,-0.652 0.902,-1.571 1.061,-2.555 0.317,-1.968 0.147,-4.323 0.402,-5.475 0.045,-0.205 -0.055,-0.415 -0.243,-0.508 -7.295,-3.618 -16.642,0.325 -20.004,7.553 -0.006,0.013 -0.01,0.025 -0.014,0.038 -0.814,2.251 -1.813,5.431 -3.271,7.954 -0.728,1.262 -1.57,2.355 -2.531,3.088 -0.832,0.634 -1.769,0.939 -2.825,0.958 0.28,-5.131 2.235,-10.218 3.328,-15.427 l -0.036,0.105 c 0.359,-0.742 0.57,-1.355 0.625,-1.891 0.054,-0.535 -0.074,-1.041 -0.432,-1.361 -0.358,-0.321 -0.846,-0.412 -1.39,-0.393 -0.526,0.018 -1.141,0.153 -1.839,0.363 -1.743,0.064 -3.002,0.816 -3.824,1.951 -0.831,1.149 -1.258,2.646 -1.559,4.25 -0.601,3.207 -0.72,6.896 -1.905,9.044 l -0.006,0.005 c -1.764,3.31 -0.806,6.379 1.332,7.926 2.138,1.547 5.412,1.59 8.08,-0.772 l -0.206,0.104 c 0.784,-0.167 1.383,-0.817 1.984,-1.541 0.6,-0.724 1.176,-1.562 1.691,-2.193 0.258,-0.316 0.502,-0.579 0.702,-0.742 0.2,-0.164 0.34,-0.201 0.368,-0.2 0.029,0.001 0.068,-0.011 0.191,0.207 0.123,0.218 0.263,0.638 0.375,1.271 0.012,0.07 0.041,0.136 0.083,0.193 1.999,2.694 5.122,3.573 8.284,3.442 3.161,-0.132 6.406,-1.244 8.87,-2.579 0.059,-0.032 0.11,-0.077 0.15,-0.132 0.921,-1.252 1.645,-1.683 2.251,-1.755 0.606,-0.071 1.224,0.215 1.95,0.699 1.451,0.968 3.223,2.685 5.826,2.324 l -0.064,0.005 c 2.065,0.006 4.485,-0.148 6.7,-0.822 2.212,-0.673 4.24,-1.884 5.404,-3.992 0.979,-1.642 1.224,-3.176 0.95,-4.568 -0.275,-1.393 -1.046,-2.625 -2.004,-3.758 -1.877,-2.221 -4.487,-4.134 -5.921,-6.068 0,-1.301 0.366,-1.96 0.838,-2.232 0.493,-0.283 1.227,-0.232 1.99,0.149 0.763,0.381 1.513,1.077 1.965,1.91 0.452,0.834 0.616,1.782 0.278,2.756 -0.099,0.286 0.103,0.588 0.406,0.605 1.296,0.076 2.442,-0.053 3.281,-0.664 0.806,-0.587 1.182,-1.637 1.082,-3.031 0.49,-1.244 0.582,-2.286 0.294,-3.13 -0.294,-0.86 -0.967,-1.462 -1.789,-1.844 -0.822,-0.381 -1.806,-0.576 -2.848,-0.657 z m -58.677,3.981 c -0.59,-0.009 -1.228,0.052 -1.904,0.175 -3.031,-0.595 -6.532,0.606 -8.698,2.728 -1.098,1.075 -1.856,2.404 -1.965,3.87 -0.109,1.467 0.452,3.036 1.853,4.518 0.04,0.041 0.086,0.075 0.138,0.099 2.189,1.033 4.328,3.956 4.823,6.403 0.247,1.224 0.099,2.279 -0.514,2.984 -0.607,0.7 -1.746,1.147 -3.726,0.99 -1.408,-0.332 -1.987,-0.893 -2.237,-1.594 -0.252,-0.706 -0.142,-1.65 0.123,-2.653 0.264,-1.004 0.669,-2.045 0.895,-2.985 0.113,-0.471 0.184,-0.918 0.151,-1.346 -0.033,-0.429 -0.194,-0.859 -0.537,-1.16 -0.109,-0.096 -0.257,-0.134 -0.398,-0.104 -3.959,0.858 -5.782,4.516 -5.485,7.802 0.148,1.642 0.817,3.217 2.023,4.325 1.206,1.108 2.949,1.72 5.115,1.465 l -0.064,0.004 c 3.282,0.069 6.756,-0.414 9.666,-2.183 l 0.006,-0.004 c 2.982,-1.87 3.77,-4.921 3.092,-7.732 -0.678,-2.808 -2.744,-5.432 -5.449,-6.748 l -0.007,-0.004 c -1.718,-0.878 -2.264,-1.806 -2.291,-2.558 -0.027,-0.754 0.485,-1.477 1.241,-1.917 0.755,-0.439 1.698,-0.554 2.42,-0.186 0.722,0.368 1.334,1.224 1.377,3.034 l 0.033,-0.182 c -0.304,0.75 -0.209,1.456 0.203,1.888 0.412,0.432 1.009,0.574 1.602,0.58 0.592,0.007 1.203,-0.129 1.716,-0.396 0.513,-0.267 0.971,-0.699 1.031,-1.31 l -0.036,0.139 c 0.92,-2.105 1.012,-4.059 0.266,-5.533 -0.746,-1.473 -2.333,-2.377 -4.463,-2.409 z m -50.968,7.362 c 1.508,0.803 2.14,1.853 2.266,3.123 0.13,1.297 -0.314,2.848 -1.105,4.427 -1.576,3.147 -4.488,6.371 -6.373,8.097 -0.625,0.457 -1.16,0.577 -1.63,0.513 -0.474,-0.066 -0.911,-0.33 -1.284,-0.747 -0.745,-0.833 -1.154,-2.269 -0.932,-3.397 0.005,-0.017 0.005,-0.034 0.007,-0.051 0.216,-2.61 0.989,-5.777 2.471,-8.177 1.466,-2.376 3.555,-3.979 6.581,-3.788 z"
         style="fill:#98a6af;fill-rule:nonzero"
         inkscape:connector-curvature="0" /></g><path
       id="path5396"
       d="m 209.2532,61.120221 c 0,3.30264 -2.71728,6.01992 -6.01992,6.01992 -3.30192,0 -6.0192,-2.71728 -6.0192,-6.01992 0,-3.30192 2.71728,-6.0192 6.0192,-6.0192 3.30264,0 6.01992,2.71728 6.01992,6.0192 z"
       style="fill:#db0123;stroke-width:0.71999997"
       inkscape:connector-curvature="0" /><path
       id="circle5398"
       d="m 202.55792,58.374141 c 0,0.76896 -0.63288,1.40184 -1.40184,1.40184 -0.76896,0 -1.40256,-0.63288 -1.40256,-1.40184 0,-0.76968 0.6336,-1.40256 1.40256,-1.40256 0.76896,0 1.40184,0.63288 1.40184,1.40256 z"
       style="fill:#ffffff;stroke-width:0.71999997"
       inkscape:connector-curvature="0" /></g></svg>