<?xml version="1.0" encoding="UTF-8" standalone="no"?>
<!-- Created with Inkscape (http://www.inkscape.org/) -->

<svg
   xmlns:dc="http://purl.org/dc/elements/1.1/"
   xmlns:cc="http://creativecommons.org/ns#"
   xmlns:rdf="http://www.w3.org/1999/02/22-rdf-syntax-ns#"
   xmlns:svg="http://www.w3.org/2000/svg"
   xmlns="http://www.w3.org/2000/svg"
   xmlns:sodipodi="http://sodipodi.sourceforge.net/DTD/sodipodi-0.dtd"
   xmlns:inkscape="http://www.inkscape.org/namespaces/inkscape"
   width="112mm"
   height="30mm"
   viewBox="0 0 112 30"
   version="1.1"
   id="svg5216"
   inkscape:version="0.92.3 (2405546, 2018-03-11)"
   sodipodi:docname="system.svg">
  <defs
     id="defs5210" />
  <sodipodi:namedview
     id="base"
     pagecolor="#ffffff"
     bordercolor="#666666"
     borderopacity="1.0"
     inkscape:pageopacity="0.0"
     inkscape:pageshadow="2"
     inkscape:zoom="2.2580819"
     inkscape:cx="208.22779"
     inkscape:cy="56.692913"
     inkscape:document-units="mm"
     inkscape:current-layer="layer1"
     showgrid="false"
     inkscape:pagecheckerboard="true"
     showguides="true"
     inkscape:guide-bbox="true"
     inkscape:window-width="1920"
     inkscape:window-height="1015"
     inkscape:window-x="0"
     inkscape:window-y="0"
     inkscape:window-maximized="1" />
  <metadata
     id="metadata5213">
    <rdf:RDF>
      <cc:Work
         rdf:about="">
        <dc:format>image/svg+xml</dc:format>
        <dc:type
           rdf:resource="http://purl.org/dc/dcmitype/StillImage" />
        <dc:title />
      </cc:Work>
    </rdf:RDF>
  </metadata>
  <g
     inkscape:label="Capa 1"
     inkscape:groupmode="layer"
     id="layer1"
     transform="translate(0,-267)">
    <g
       id="g830">
      <g
         transform="matrix(0.01012775,0,0,0.00297342,-67.297463,267.54145)"
         id="g1542"
         style="isolation:isolate;fill:#3771c8;fill-opacity:1;stroke:none;stroke-width:241.07261658;stroke-linecap:round;stroke-linejoin:bevel;stroke-miterlimit:4;stroke-dasharray:none;stroke-opacity:1;paint-order:stroke markers fill">
        <path
           inkscape:connector-curvature="0"
           d="m 10568.6,5134.4 c -189.4,-159.2 -230.1,-403.8 -341.8,-607.1 -40.4,-73.5 -81.1,-131 -152.7,-168.8 67.9,-15.3 135.8,-30.7 203.7,-46 149.2,257.8 338.7,499.4 331.2,820.5 0,0 -20.1,2.1 -20.1,2.1 z m 3821,-2588.8 c -7.9,39.9 -15.8,79.9 -23.7,119.8 -12.2,49.1 -52.8,66.3 -93.7,83.2 17.9,-64.9 35.7,-129.9 53.6,-194.8 21.4,-2.8 42.6,-5.5 63.8,-8.2 z m -569.2,1931.1 c -82.3,-1.1 -164.5,-2.2 -246.8,-3.4 -145.9,-442.4 -390.7,-839.9 -574.4,-1265.2 -99.7,-230.7 -203.2,-459.8 -304.7,-689.7 -22.9,-51.8 -48.9,-99.4 -115.2,-101.9 29.4,-32.7 58.8,-65.4 88.1,-98.2 55,-4.5 110,-9 165,-13.5 -1.3,202.7 130.4,353.4 205.5,526.2 272.9,469.2 472.5,973.5 693.7,1467.1 27.5,61.1 57.9,119.7 88.8,178.6 z M 11268.1,2792.2 c 145.7,292.5 295.2,583.2 436.3,878 173.2,361.8 339.4,727 508.6,1090.7 -52.2,3.1 -104.5,6.2 -156.7,9.4 -134.4,-33.3 -126.1,-167.7 -170.1,-257.6 -236.2,-483 -461.1,-971.6 -687.9,-1459.3 -13.6,-29.3 -9.8,-66.6 -14.1,-100.2 15.9,-49.6 31.8,-99.3 47.7,-148.8 11.4,-6 23.5,-10.1 36.2,-12.2 z m 2635,1685 c 41.3,-1 82.6,-2 123.8,-3 28.9,2.9 57.9,5.8 86.8,8.7 5,26.5 10,52.9 15.1,79.3 -217.8,-77.5 -445.2,-26.8 -667.1,-50.2 -7.2,-9 -13.1,-18.7 -17.7,-29.3 43.1,-3.1 86.3,-6.3 129.5,-9.4 83.2,-65.3 165.2,-43.2 246.8,3.5 27.7,0 55.3,0.2 82.8,0.4 z m -825,-1810.2 c -59.2,43.4 -34.1,107.5 -40.1,164 -163.7,-113.8 -258.2,-355.8 -205.5,-526.2 41.1,-1.9 82.1,-3.8 123.2,-5.6 5.5,82.9 72.5,131.4 109.8,196.4 -17.2,58.8 -17.7,116.2 12.6,171.4 z m 1446.8,340.8 c -36.5,-121.8 -49.2,-254.6 -158.9,-342.4 -45.6,-50.5 6.1,-81.8 23.7,-119.8 0,0 18.6,-3.1 18.6,-3.1 185.3,78.1 167.7,291.9 280,418.8 -13.2,44 -53.7,41.8 -87.2,51.6 -25.5,-1.7 -50.8,-3.4 -76.2,-5.1 z m -621.8,1469.4 c -28.1,-219.1 -174.7,-398.5 -206.1,-616.4 13.7,0 27.5,0 41.2,0 96.2,204.5 192.5,408.9 288.7,613.4 -40.4,35.3 -81.8,31.8 -123.8,3 z m -825,-1810.2 c 28,14.4 55.9,28.8 83.9,43.2 78.5,339 281.1,622.1 420.6,933.6 33.3,74.4 76.1,144.6 114.5,216.8 85.9,201.2 240.1,378.1 220,617.1 -27.4,22.5 -58.9,21.2 -91.1,15.4 -54.7,-19.1 -93.7,-56.1 -115.4,-109.1 -216.8,-530.9 -474.3,-1043.1 -713.3,-1564.2 1.5,-64.2 -22.4,-142.3 80.8,-152.8 z m 1849.6,-579.8 c 4.9,-9.4 7,-19.4 6.3,-30 60,14.5 163,-65.2 165.5,75.4 -25.9,3.8 -51.8,7.6 -77.6,11.5 -17.6,-42 -54,-52.6 -94.2,-56.9 z M 8757,6158.6 c -13.4,-53.1 -26.7,-106.2 -40.1,-159.4 73.6,-49.3 1.8,-153.7 76.7,-202.5 -15.2,120.4 43.4,248.2 -36.6,361.9 z m -86.4,-1064.1 c 28,-26.8 56,-53.6 84,-80.3 64.4,174.6 135,346 249.3,495.5 -27.9,13.4 -55.8,26.7 -83.6,40.1 -234.8,-68.6 -221.3,-273.4 -249.7,-455.3 z m 4697.1,-657.7 c 13.3,11.9 26.7,23.8 40,35.7 -54.5,2 -109,4 -163.5,6 -91.1,33.3 -167.8,30 -214.8,-72.9 -270.7,-592.6 -542.7,-1184.6 -814.2,-1776.8 25.6,-9.9 51.1,-19.7 76.7,-29.6 29.3,-4.5 58.6,-9 87.8,-13.5 113.2,266.6 213.5,539.6 343.2,797.9 133,264.9 266.7,528.3 380.3,802.6 47.3,114.5 67.8,283.2 264.5,250.6 z m -861.5,-1978.5 c 24.4,-13.9 48.8,-27.9 73.1,-41.8 104.8,-52.2 136.7,33.9 164.9,97.7 261.6,593.5 546,1176.3 820.7,1763.7 30.5,65.2 65.3,139.6 6.4,211.9 -43.1,9.9 -86.1,17.3 -127.3,-7.2 -13.2,0.6 -25.4,-2.8 -36.4,-10.1 -17.9,-6.8 -31.2,-18.7 -40,-35.7 -187.7,-416 -384.7,-828.1 -559.4,-1249.5 -100.5,-242.9 -274.3,-456.1 -302,-729 z m 1856.2,623.3 c 11.8,-1.4 23.7,-2.1 35.5,-2 14,13.6 27.9,27.3 41.9,40.9 -14.2,27.1 -28.4,54.2 -42.7,81.2 -14.8,16.3 -29.7,32.7 -44.5,49 -165.5,-66.2 -11.5,-113.8 9.8,-169.1 z m 162.5,-73.8 c -17.6,67.7 -104.4,12.9 -126.9,71.8 -11,15.8 -22.8,16.5 -35.5,2 -178.8,-70.9 -147.2,-199.8 -92.5,-335.1 0,0 2.4,2.1 2.4,2.1 36.3,-33.5 48,-96.8 114.1,-94.3 131.4,84.3 185.9,199 138.4,353.5 z m -2309.7,-378.9 c -41.5,-1.3 -83,-2.5 -124.4,-3.8 0,-12.1 -0.1,-24.2 -0.2,-36.3 67.1,3.5 134.2,7 201.3,10.5 -9,53.1 -38.3,53.2 -76.7,29.6 z m 946.2,1972.9 c -24.5,14.8 -49.1,29.6 -73.6,44.4 -92.4,-1.1 -128.6,-67 -157.3,-139.1 -234.7,-590.1 -538.1,-1148.3 -802.4,-1724.6 -23.4,-51 -40.8,-101 -37.4,-157.3 36.4,-31.2 77.9,-19 118.5,-14 99.4,80.9 146.1,196 192.7,308.9 190.4,461 432.6,898.1 626.9,1357 44.2,104.3 117.5,162.2 215.3,201.5 -26.1,42 -81.1,64.6 -82.7,123.2 z M 9992.6,4390.7 c 27.2,-10.7 54.3,-21.4 81.5,-32.1 55.5,29.1 131.9,5.7 167.9,86.9 103.1,232.3 227.2,454.8 326.7,689 0,0 0.6,-0.1 0.7,-0.1 -56.8,11.9 -113.5,23.8 -170.3,35.6 -103.3,-33.1 -165.2,-103.2 -195.7,-207.2 -57.5,-195.4 -234.7,-346.7 -210.8,-572.1 z m 1528.9,1119.1 c -4.6,94.6 -50,190.1 6.4,283.4 -126.9,-39.4 -167.6,-156.8 -215.4,-257.6 -194.5,-410.5 -377.1,-826.7 -571.5,-1237.3 -43.9,-92.7 -59.2,-273.1 -245.1,-142.7 -5.2,3.6 -38.5,-32.8 -58.8,-50.6 -7.7,-18.4 -7.7,-36.7 1,-54.9 64.8,-54.9 70.8,-190.7 205.4,-150.4 236.3,79.4 260.1,314.6 351,494.6 153.3,303.5 286.2,617.2 426.7,927.1 27.5,60.6 65.2,103.9 136.8,105.4 -12.2,27.8 -24.3,55.4 -36.5,83 z m -253.4,-2717.6 c -6.3,-70.6 53.4,-111.1 76.6,-168.2 199.1,247.4 295.6,549.4 434.5,828.3 194.9,391.5 374.4,790.9 549.4,1191.7 30.6,70.1 93.3,71.5 130.4,116.2 -82,0.2 -164,0.4 -246,0.7 -52.7,-22.5 -91.2,-60.6 -113,-112.7 -249.9,-596.8 -567,-1162.2 -819.6,-1757.6 -13.1,-30.9 -25.6,-63.5 -12.3,-98.4 z m -243.8,282.4 c 72.2,-6.8 115.4,-42.7 119.2,-118.4 13.6,-0.6 27.2,-1.6 40.7,-3 175.8,190.6 239.1,440.9 344.7,667.1 178.4,382 366.3,760 527.4,1150 -2.7,10.6 -5.3,21.3 -7.7,32 -13.4,3.2 -26.7,6.4 -40.1,9.6 -26.6,-1 -53.2,-1.9 -79.8,-2.9 -98.6,11.4 -163.4,-21.8 -208.1,-118.9 -221.2,-480.4 -448,-958.2 -674.3,-1436.2 -27.9,-58.8 -27,-118.1 -22,-179.3 z M 13898,2546.4 c 84.7,-0.7 169.4,-1.5 254,-2.2 -83.2,21 -166.5,42 -249.7,63 -1.4,-20.3 -2.9,-40.5 -4.3,-60.8 z m 253.6,-79.4 c -85.3,71 -187.4,21.5 -280.1,39.2 21.2,-56.3 73.1,-42.1 115.3,-50.4 54.9,3.8 109.8,7.5 164.8,11.2 z m 454.3,1112.7 c -0.5,13.8 -0.9,27.5 -1.4,41.4 -97.3,-3.1 -194.6,-6.4 -291.9,-9.6 2.5,-9.1 4.8,-18.2 7.1,-27.3 95.4,-1.5 190.8,-3 286.2,-4.5 z M 14236,2466.9 c -28,25.8 -56,51.5 -84,77.3 -84.4,29.8 -169.1,27 -254,2.2 -21.6,-5 -38.8,-12.8 -26.5,-40.1 86.9,-59.1 191,4 280.1,-39.2 15,-15.4 30,-30.7 45,-46.1 13.2,15.2 26.3,30.6 39.4,45.9 z m -374.5,-336 c 54.8,-14.4 109.6,-28.8 164.3,-43.2 30.7,112.1 61.1,224.4 168.8,291.9 0.7,13.8 1.3,27.6 2,41.4 4.3,41.2 -21.5,60.1 -54.5,73.9 -58.5,13.7 -113.5,13.4 -155.4,-38.9 -66,-99.1 -158.4,-187.9 -125.2,-325.1 z m 201.8,1897.3 c 29.4,-14.9 58.7,-29.7 88.1,-44.6 26.4,-21.6 52.9,-43.2 79.3,-64.8 -0.8,17.8 -1.5,35.5 -2.3,53.2 -40.8,60.8 -82.1,120 -165.1,56.2 z m 336.5,41.4 c -64.1,70.3 -50.2,157.9 -53.7,241.6 -25.5,-90.1 -98.9,-191 53.7,-241.6 z m -209,-251.5 c -14.6,-13.6 -29.1,-27.2 -43.7,-40.9 -1.9,-13.9 -3.8,-27.8 -5.7,-41.7 37.8,-69.9 109.5,-89.9 175,-119.3 13.7,24.4 27.4,48.8 41.1,73.2 -96,-9.6 -112.5,84 -166.7,128.7 z m 0,0 c 1.6,58.7 -66.9,100.7 -39.5,165.5 -21.3,30.8 -38.4,69.9 -88.1,44.6 -109.3,-129.5 24.8,-177.7 83.9,-251 38.1,-11.4 56.6,-2 43.7,40.9 z m 49.2,622.3 c -32.4,42.7 -80.9,37.8 -126.1,42.4 -28,20.5 -58.1,17.4 -88.8,8.1 -145.4,-187.4 -261.3,-388.2 -286.7,-630.2 24.6,-111 -107,-177.3 -82.4,-288.3 96.1,35.7 88.3,154.5 164.7,205.9 69.3,167.3 178.2,315.2 218.8,498.3 18.8,85.2 79.6,175.8 200.5,163.8 z m -3594.6,695.8 c -1.5,13.1 -3.6,26.2 -6.6,39 -19.2,0.1 -38.4,0.2 -57.3,0.4 -3.9,-13.8 -8.1,-27.6 -12.2,-41.3 6.4,-4.7 12.9,-9.4 19.3,-14.2 6.8,4.3 13.5,8.5 20.3,12.8 12.1,1.7 24.3,2.8 36.5,3.3 z M 8913.5,6333.8 c -60.3,-68.4 -33.1,-148.3 -29.9,-225.2 10,75 19.9,150.1 29.9,225.2 z m -31,-439.6 c 2.7,-75 -31.5,-155.7 34.1,-221 -11.3,73.6 -22.7,147.3 -34.1,221 z m 620.2,398.6 c 11.5,-1.9 23.2,-2.6 34.8,-2 77,71.9 -0.8,91.9 -41.7,124.3 -10.4,-13.2 -20.8,-26.3 -31.2,-39.5 12.7,-27.6 25.4,-55.2 38.1,-82.8 z m 74.8,-49.3 c 0.2,-24.2 0.5,-48.5 0.7,-72.7 74.3,16.9 162.3,-5.9 214.9,73.9 -71.8,-0.4 -143.7,-0.8 -215.6,-1.2 z m 0,0 c -13.3,15.8 -26.6,31.5 -39.9,47.3 -11,11.2 -22.6,12.3 -34.8,2 -17.3,-49.1 -70.1,-100 -30.4,-148.6 27.4,-33.5 71.5,9.3 105.9,26.6 24.1,24.5 24.3,48.7 -0.8,72.7 z m 1067.9,-1107.3 c 98.2,27.8 154.6,74.6 81.8,180.2 -29.5,-47 -59,-94.1 -88.5,-141.2 -9.6,-15 -8,-28.1 6.7,-39 z m -1403.2,324.9 c 15.6,13.6 31.3,27.3 46.9,40.9 -40.3,14.1 -64.2,67 -117.7,50 -29.6,-14.7 -59.3,-29.3 -88.9,-44 42.9,-50.6 104.9,-36.5 159.7,-46.9 z m 1611.3,128.7 c -22.2,12.4 -44.3,24.9 -66.5,37.3 36.8,-84.6 -11.2,-165.8 -10,-249 128.5,33.3 66.4,135.5 76.5,211.7 z M 9537.1,5343.6 c 20.4,36.4 58.2,37.5 92.5,45.6 -100.9,75.6 -230.6,64.4 -340.5,112.8 -19.4,-9.3 -43.6,-13.2 -46.9,-40.9 2.2,-11.7 4.7,-23.3 7.6,-34.9 27.2,-13.9 54.3,-27.8 81.5,-41.8 41.2,-13.5 82.4,-27 123.6,-40.4 27.3,-0.1 54.8,-0.3 82.2,-0.4 z m 449.7,-127.4 c 16.6,18.5 33.2,36.9 49.8,55.4 -126.2,72 -265.3,99 -407,117.6 -44.6,12.8 -95.3,38 -92.5,-45.6 104.8,-98.7 261.1,-42.1 371.6,-123.3 26.1,-1.4 52.1,-2.7 78.1,-4.1 z m 0,0 c 2.6,-11.7 5.7,-23.3 9.5,-34.7 134.3,-3.9 268.5,-7.7 402.7,-11.6 38.7,-61.8 90.9,-78.4 157.5,-47.4 15.5,14.3 23.6,32.2 25.2,53.1 -160.1,154.7 -363.5,63.6 -545.1,96 -27.3,-8.9 -44.8,-26.5 -49.8,-55.4 z m 41.1,939.2 c 2.6,86.6 18.3,167.7 93.4,224.2 -19.4,41 -107,40.1 -70.5,115.3 -59.6,-12.3 -119.3,-24.5 -179,-36.8 -100.8,-46.4 -199.7,-93.5 -76.9,-218.6 73.3,-40 146.9,-79.3 233,-84.1 z m 374.5,-192.9 c 0.7,105 30.4,195 128.9,249.6 -2.4,13.2 -4.4,26.5 -5.9,39.9 -73.8,12 -146.6,26.5 -205.6,77.7 -66.2,16.7 -132.4,33.4 -198.5,50 -140.7,-29.1 -141.5,-116.5 -93.4,-224.3 124.8,-64.3 249.7,-128.6 374.5,-192.9 z m 288.3,-248.5 c 45,167.7 43.7,372.1 297.2,374.3 -30.4,13.5 -60.9,27 -91.5,40.5 -132.8,-21 -243,57.4 -365.1,83.1 -159.1,-23.2 -185.3,-115 -128.9,-249.6 96.1,-82.7 192.2,-165.5 288.3,-248.3 z m 162.8,-124.2 c 84.1,36.6 114.8,119.1 134.1,192.8 45.8,175.3 149.6,245.7 324.9,221.5 -3.2,10.2 -5.9,20.5 -8.2,30.9 -81.5,9 -163.1,18 -244.6,27.1 -23.9,8.8 -47.7,17.5 -71.6,26.2 -239.4,25.6 -355.9,-121.2 -297.3,-374.4 19.6,-42.7 51.4,-72.1 96.2,-86.9 11.4,-31.5 29.6,-50.9 66.5,-37.2 z m 625.4,373.9 c -3.8,10.7 -7.7,21.4 -11.8,32 -51.6,2.8 -103.1,5.6 -154.7,8.4 -180.1,58.6 -300.8,-1.5 -364.7,-180.1 -27.5,-76.8 -77,-142.9 -111.3,-216.5 -8.1,-79.4 5.9,-164.7 -59.4,-229.5 -16.6,-20.5 -33.2,-41 -49.7,-61.5 7.2,-81 -21.2,-139.4 -104.5,-162.7 -18.9,-6.9 -32.8,-19.4 -42.9,-36.6 -34.4,-298.8 -239.9,-530.3 -319,-811.5 20.2,-47.6 50.1,-67.2 98.1,-33.8 136.3,-34.4 199.4,28.4 254.5,152.5 211.9,476.7 439.1,946.6 655,1421.6 45.2,99.1 114.1,125.3 210.4,117.7 z M 13859.3,651.5 c 1.7,-28.3 17,-43.6 44.7,-47.4 5.8,35.2 -16.8,43.8 -44.7,47.4 z m -1850.6,4198.7 c 72,1.9 144,3.7 216.1,5.6 -68.1,39.2 -142.7,34.5 -216.9,32.5 0,-12.6 0.3,-25.3 0.8,-38.1 z m 3171.1,-2723.7 c 27,-24.7 54,-49.3 81,-74 17.5,15.3 52.3,39.7 49.8,44.4 -30.6,58.2 -87.2,16 -130.8,29.6 z M 13822.5,447.9 c -0.6,-14.8 -1.2,-29.6 -1.7,-44.3 37.1,-24.7 72.5,-54.3 122.2,-43.1 0.3,84.8 -59.3,87.2 -120.5,87.4 z m 1273.6,2012 c -53.7,-68 -53.5,-136.2 -1,-204.6 17.9,68.1 17.6,136.3 1,204.6 z m -162.9,-451.3 c 0.3,16.2 0.5,32.4 0.8,48.6 12,9.5 15.1,17.1 9.2,22.8 -4.8,4.8 -10,7.2 -15.5,7.2 -54.2,3.1 -108.4,6.3 -162.7,9.4 35.2,-69.1 99.7,-82.4 168.2,-88 z m -3921.9,1061.6 c 17.2,-67.9 75.9,-89.8 129.7,-117.1 0,0 2.5,3.1 2.5,3.1 34.3,113.9 -7.1,151.7 -119.1,118.4 z m 3247.2,-1318.7 c 31.4,13.6 62.9,27.1 94.3,40.7 -12.6,5.8 -25.3,11.6 -37.9,17.5 -54.7,10.7 -109.4,21.4 -164,32.1 16.8,-52.8 53.8,-81.7 107.6,-90.3 z M 13285.4,649.7 c -13.6,29.3 -27.1,58.6 -40.7,87.9 -42.9,1.1 -85.8,2.3 -128.7,3.5 25.1,-88.7 105.5,-74.6 169.4,-91.4 z M 8508.6,5964.2 c 15.7,16.5 31.5,33 47.2,49.6 20.8,52.3 13.3,103.2 -7.8,153.3 -67,-57.1 -31.2,-134.3 -39.4,-202.9 z m 6556.6,-2138.5 c 13.5,16.3 27.1,32.6 40.6,48.9 5.2,58 1.4,113.2 -48,154.1 -49.8,-69.5 2.1,-135.4 7.4,-203 z m -6720,2005.8 c -12.9,3 -25.9,5.3 -39,7 -2.3,-39.6 -4.6,-79.2 -7,-118.8 2.8,-33.8 7.7,-66.6 40.2,-86.4 2,66 3.9,132.1 5.8,198.2 z m 7614.9,-3341.7 c -12.1,-34.7 -24.3,-69.3 -36.4,-104 93.8,-19.9 120.6,47.1 127.5,113.9 5.8,55.8 -45.6,54.6 -88,47.6 -1,-19.1 -2.1,-38.3 -3.1,-57.5 z m -1361.8,674.7 c -69.8,-2.7 -127.2,62.3 -201.2,37.2 -22.1,-46.2 11.2,-63.2 42.7,-81.2 55.3,0.8 110.6,1.6 165.9,2.5 -2.5,13.8 -5,27.7 -7.4,41.5 z M 8754.9,4977.9 c -0.4,12.1 -0.5,24.2 -0.2,36.3 -28.3,26.5 -34,76.6 -84,80.3 -38,1.1 -75.9,2.3 -113.9,3.5 48.3,-69.1 114.7,-108.6 198.1,-120.1 z m 7205.2,-2488.1 c -63.4,17.4 -111,7.9 -119.2,-69.5 17,-36.9 46.8,-43.2 82.8,-34.5 39.2,25.2 84.3,48.3 36.4,104 z m -2798.7,2112 c 14.5,15.2 29,30.4 43.5,45.6 -6.1,47 -33,73.5 -79.7,80.4 -14.9,-13.7 -29.9,-27.4 -44.8,-41.2 1.9,-13.6 4.4,-27.1 7.4,-40.5 10,-38.9 28.2,-64.1 73.6,-44.3 z M 9907.6,6950.1 c 18.3,-15.3 36.6,-30.6 54.9,-45.9 22.5,52.5 106.8,-6.4 120.7,70 -65.4,35.6 -122.7,25 -175.6,-24.1 z M 8468.7,6372 c 25.6,-13.6 51.2,-27.2 76.8,-40.9 0,52.9 0,105.9 0,163.7 -76.3,-17.2 -78.5,-68.9 -76.8,-122.8 z M 14720,3980.4 c -39.4,-17.1 -60.3,-125.2 -123.5,-25 -22.9,-12.3 -58.4,-35.6 -33,-54.9 51.2,-38.8 114.2,-57.2 174.8,-8.3 -6.1,29.4 -12.2,58.8 -18.3,88.2 z M 11219.2,2733.6 c 4.2,23.6 8.5,47.2 12.7,70.8 44,64.5 19.9,114 -34.6,156.8 -9.8,2.1 -19.8,4.2 -29.6,6.2 -8.9,-4.8 -17.8,-9.5 -26.7,-14.3 0.3,-82.3 26.5,-155.5 78.2,-219.5 z m 3383.9,916.7 c 0.2,-9.7 0.7,-19.5 1.4,-29.2 -24.4,-14.6 -23.9,-28.5 1.4,-41.4 11.7,-7.1 24.2,-9.6 37.7,-7.5 43.6,9.2 96.2,-7.5 125.1,43.8 -49.9,36.6 -106.5,41.7 -165.6,34.3 z M 12871.3,885.9 c -35.1,70.8 -99.3,85 -169.7,87 23.6,-93.4 86,-110.8 169.7,-87 z m 1731.8,2764.4 c -79.7,34 -175.1,-4.4 -249.5,54.1 l 4,-15 c -27.9,-16.4 -64.1,-28.1 -41.1,-73.2 l -3.8,-4.8 c 88.9,-36 181.1,-12 271.8,-14.9 25.6,11.2 31.8,29.1 18.6,53.8 z m -950.9,-2925 c 18.3,17.9 36.6,35.7 54.9,53.6 -30,48.7 -75.9,73.1 -130,84.8 -14.5,-28.6 -29,-57.2 -43.4,-85.8 17.4,-13.7 34.8,-27.3 52.2,-41 22.1,-3.9 44.2,-7.8 66.3,-11.6 z m -327.5,287.8 c -13.3,-26.3 -26.6,-52.7 -39.9,-79 24.6,-54 82.8,-26.5 120.2,-49.7 17.8,18.4 35.5,36.8 53.3,55.3 -38.6,35.1 -75.1,74.3 -133.6,73.4 z m 1177.6,745.9 c -39.4,58.1 -96.1,38 -149.5,33.3 -28.2,-21 -75.3,1.7 -94.3,-40.7 82.8,-48.2 164.5,-57.3 243.8,7.4 z m -24.1,211.3 c -15.8,-64.7 10.1,-119.2 42,-172.2 27.6,8.4 79.1,-24.9 79.2,29.2 0.1,75.8 -66.6,106.9 -121.2,143 z m -2754.5,3945.1 c -45.6,154.4 -168.3,62.4 -256.6,80.2 -9.2,-15.5 -5.9,-26.4 11.9,-31.9 73.1,-16.3 176.8,48.1 207.9,-78.9 23.1,-2.9 34.8,8 36.8,30.6 z m -3047.8,45.5 c -19.8,3.3 -39.6,6.7 -59.3,10 -20.2,14.3 -40.4,28.6 -60.6,42.8 -26.4,-6.3 -29.6,-34.9 -47.2,-49.6 0,0 -3.7,-6.4 -3.8,-6.5 9.5,-78.2 64.6,-81.1 124.8,-75.7 15.3,26.4 30.7,52.7 46.1,79 z M 14861.5,2962 c -20.2,-3.1 -40.4,-6.2 -60.6,-9.3 3.6,-12.8 7.3,-25.5 11,-38.3 29.5,-27.7 59.1,-55.4 88.6,-83.1 33.4,1.7 60.7,13.5 75.5,45.8 -23.5,48 -58.8,80.2 -114.5,84.9 z m -1004.8,-859.7 c 2,-18.8 4,-37.6 6.1,-56.4 68.5,-14.7 136.9,-29.5 205.4,-44.2 -14.1,28.7 -28.2,57.3 -42.3,86 -46.8,44.7 -91.5,97.4 -164.3,43.2 -2.9,-9.3 -4.5,-18.9 -4.9,-28.6 z m 1368.4,728.7 c 12.8,-0.2 25.6,0 38.3,0.5 58.3,74.2 143.1,20.2 211.8,43.9 -13.4,13.5 -26.9,26.9 -40.3,40.4 -87.1,-2 -174.2,-4 -261.2,-6 17.1,-26.3 34.3,-52.6 51.4,-78.8 z m -1787.7,-419.1 c -47.8,-63.2 -7.6,-140.9 -34,-207.6 4.7,-43.3 -5.1,-92.9 50.1,-114.1 1.3,81.4 2.6,162.9 3.9,244.3 -6.7,25.8 -13.4,51.6 -20,77.4 z m -203.8,4.7 c -23.3,-12.8 -46.7,-25.5 -70,-38.3 13.5,-56.5 27.1,-113.1 40.6,-169.6 176.4,45.7 13.1,139.5 29.4,207.9 z m -1078.3,-110 c 21.7,26.9 43.3,53.9 65,80.8 -11.9,26.3 -23.9,52.7 -35.8,79 -24,-28.4 -48,-56.8 -72,-85.1 -4.8,-9.8 -9.5,-19.8 -13.9,-29.9 18.8,-14.9 37.7,-29.9 56.7,-44.8 z m 484.3,-7.1 c 11.6,2.7 20.9,8.9 27.9,18.8 9.4,54.4 -28.1,84.4 -60.5,117.2 -30.4,21.2 -60.4,45.1 -100.8,22.9 0,0 -10.3,-0.7 -10.3,-0.7 15.6,-82.2 21.4,-173.1 143.7,-158.2 z M 11309,2578 c 11.9,15.3 23.7,30.6 35.6,45.9 36.8,82.6 -27.4,124 -70.9,173.9 -19.8,6.4 -38.6,3.8 -56.6,-6.5 -6.3,-19.5 -5.6,-38.8 2.1,-57.8 13.7,-61.1 40.6,-114.7 89.8,-155.5 z m -1198.7,786.4 c 79.9,58.5 28.8,139.5 36.3,210.5 -48.7,-29.6 -18.4,-131.2 -110.5,-121.2 -13.3,-61.4 33,-73.2 74.2,-89.3 z m 123.4,2.1 c -75.6,51.3 -1,161.1 -82,210.4 0,0 -5.2,-2 -5.2,-2 -12.8,-70 -22.9,-140.5 -36.2,-210.5 16.8,-34.3 32.5,-78.8 77.3,-71.6 27.2,4.4 58.1,31.9 46.1,73.7 z M 8225.9,5466.9 c 13.1,-0.1 26.1,-0.6 39.2,-1.4 50.6,44.4 70.8,102.4 74.4,167.6 -26.6,22.7 -7.7,66.5 -40.2,86.4 -24.5,-84.1 -48.9,-168.3 -73.4,-252.6 z m 531.1,691.7 c -3.2,22.8 -6.3,45.7 -9.5,68.5 -43.7,-85.4 -87.3,-170.8 -131,-256.2 16.1,-24.9 35.9,-28.3 59.3,-10 13.7,12.8 27.4,25.5 41.1,38.3 34.7,47.8 75.4,94.1 40.1,159.4 z M 13652.2,725.3 c 29.1,-24.2 58.2,-48.5 87.4,-72.7 41.9,-2.2 83.7,-4.4 125.6,-6.6 -7.4,98.2 -119.4,71.9 -158.1,132.9 -45.7,10.2 -61,-10.7 -54.9,-53.6 z m -898.9,4043.5 c 53.3,34.3 110.1,53.7 174.5,41.8 -82,45.6 -171.1,44.6 -260.8,39.8 0.3,-24.9 0.6,-49.9 0.8,-74.8 28.5,-2.2 57,-4.5 85.5,-6.8 z M 9417.7,6538.9 c 49.1,43.9 73.7,100.2 82.5,164.4 -107.9,-1.5 -123.3,-80.5 -135.6,-162 17.7,-0.8 35.4,-1.6 53.1,-2.4 z m 5926.2,-4005.7 c 6.3,108.4 18.8,218.4 -80.5,298.3 -13,16.1 -25.8,16.8 -38.3,-0.5 50.2,-95.1 38.5,-214.8 118.8,-297.8 z m -1071.5,-67.9 c 39.8,-22.3 44.1,-88.2 104.6,-85.2 20.1,13.9 40.2,27.9 60.4,41.8 -22.4,37.1 -46.7,73.8 -28.9,120.6 -6.7,6.1 -13.3,12.2 -19.9,18.4 -26.8,10.3 -53.1,9.1 -79.1,-2.8 -30.1,-23.9 -53,-50.7 -37.1,-92.8 z m 29.7,-2069.4 c -10.4,-14 -20.9,-28 -31.3,-42 20.8,-36.9 68.2,-58.4 63.8,-109.9 17.8,42.9 61.9,46.6 96.4,64.4 -22.6,59.1 -72.9,77.5 -128.9,87.5 z M 8425.5,6079.5 c -2.3,34 -4.6,68 -6.9,102.1 -56.9,-77.4 -60.8,-172.1 -84.6,-260.2 -6.4,-17 -1.8,-30 14,-39.1 92.8,39.4 78,121.1 77.5,197.2 z M 14933.7,3250 c 14.1,35.8 28.2,71.5 42.3,107.3 -54.8,-61.2 -182,15 -204.3,-107.7 54,0.2 108,0.3 162,0.4 z m -4882.8,3244.9 c 11,-4.7 20.6,-2.7 29,5.8 -59.2,55.8 -140.3,56.4 -210.9,83.3 -15.4,-17.1 -30.8,-34.1 -46.3,-51.2 16.4,-24.9 32.8,-49.8 49.1,-74.7 76.8,-70.8 123.2,6.2 179.1,36.8 z m 4265.2,-4236 c -0.1,39.8 14.6,70 54.7,83.5 -1.2,13.1 0.8,25.6 6.1,37.6 -15.4,43.5 -36.9,81.8 -82.8,100.2 -18,4.1 -36.1,4.4 -54.2,0.5 -27,-10.2 -46.7,-28.6 -60.3,-53.9 -5.5,-19.1 -0.5,-34.9 15,-47.4 37.3,-10.8 41.1,-41.2 42.4,-73 26.4,-15.7 52.8,-31.6 79.1,-47.5 z m 330.2,946.1 c -92.3,51.2 -189.3,72.2 -293.7,45.6 -17.3,-38.5 6.1,-58.7 34.4,-76.7 70.4,-1.7 138.7,-54.2 211.3,-9.4 16,13.5 32,27 48,40.5 z m -1208.9,-793.1 c -9.5,59.2 -18,118.9 -76.4,153.8 -42.5,-127.1 37.3,-239.9 42.4,-361.4 54.3,62.2 5.7,141.2 34,207.6 z m -1428.7,2438.3 c -0.1,-12.8 -0.1,-25.5 -0.2,-38.3 10.3,-15.9 23.7,-19.1 40.2,-9.7 123.4,31.5 262.3,-46 375.9,53.6 -66.6,0 -133.2,0 -199.8,0 -72.6,17.3 -144.9,26.6 -216.1,-5.6 z m -949.1,1212 c 37.2,43.4 79.3,76.3 141.5,66.7 -51.5,35.1 -109.5,45.9 -170.5,45 -43.4,-18.9 -100.9,4.1 -134.2,-45 15.3,-35.4 45.8,-55.2 76.4,-75.1 29.8,-6.6 63.4,-49.9 86.8,8.4 z m 2186,-5121.1 c 12.9,-3.3 26,-5.6 39.2,-7 36,14.9 57.1,37.3 39.9,79 -67.4,31.6 -134.9,63.3 -202.3,94.9 0.2,-25.2 0.4,-50.4 0.5,-75.7 40.9,-30.4 81.8,-60.8 122.7,-91.2 z M 9696.5,4054 c 62,114.1 17.9,194.1 -82.3,256.1 -8.7,-97 24.6,-180.5 82.3,-256.1 z m 3734,511.6 c 157.5,7.3 318.7,-41.7 471.9,31.2 -158.5,7.2 -318.1,31.5 -471.9,-31.2 z m 800.2,-646.7 c 41.8,-58.7 102.3,-64.8 166.9,-59.4 -0.5,42.4 -1,84.7 -1.6,127.1 -55.9,-4.8 -111.8,-9.7 -167.7,-14.5 -5,-18 -4.2,-35.8 2.4,-53.2 z M 13738.3,524.1 c -59.6,-13.6 -120.4,71.3 -179.4,-2 77.7,-60.7 168.8,-91.7 261.8,-118.5 23.4,13.9 24,28.7 1.7,44.3 -28,25.4 -56,50.8 -84.1,76.2 z M 11304.2,6035 c 17.7,18.1 35.5,36.1 53.2,54.2 -45.5,38.9 -100,42.5 -156.1,39.8 -85.4,26 -145.2,14.3 -139.7,-94.4 80.9,-55.9 161.8,-55.9 242.6,0.4 z M 13404.9,884.3 c -1.2,-10.8 -3.7,-21.2 -7.4,-31.4 45.4,-25 90.7,-50.1 136.1,-75.1 38,16.7 68.8,37.1 43.4,85.8 -29.8,40.6 -68.1,68.1 -118.8,76 -52.3,14.9 -65.2,-8.1 -53.3,-55.3 z m 1402.9,3267.6 c 17.5,-38.4 54.1,-42.2 89,-49 56.7,-20.3 85.9,-99.6 163,-76.2 -70.3,69.3 -90.6,239.3 -252,125.2 z M 15435,2915.8 c -139.2,119.1 -229.7,117.1 -261.2,-6 87.7,-28.3 174.9,-30.7 261.2,6 z m 324.2,-321.6 c 15.1,-42.1 30.3,-84.2 -1.4,-125.8 27.7,-16 55.4,-32 83,-48.1 40.9,31.4 86.7,54.9 132.2,78.9 7.2,18.3 3.9,34.3 -9.9,48.1 -67.9,15.7 -135.9,31.3 -203.9,46.9 z m -4327.3,3485.4 c 138.7,-97.5 308.3,10.2 450,-67.7 -3.5,60.5 -3.4,61.7 -30.2,62.1 -139.9,2.2 -279.9,3.8 -419.8,5.6 z M 10362.2,3497.1 c -4.1,105.3 -93,116.6 -163.8,147.9 -15.6,-22.8 -31.2,-45.4 -46.8,-68.1 23.5,-71.6 -45.4,-179.2 82,-210.4 33.4,53 -81.5,251.8 128.6,130.6 z m 4281.4,75.1 c 102.6,-41.7 205.2,-83.5 307.9,-125.2 -19,101.7 -70.4,168.3 -182.7,169 -34.7,-34.9 -96,6.7 -125.2,-43.8 z m 290.1,-322.2 c 53.1,-37 102.7,-81.8 193,-81.7 -30.2,97.6 -46.2,188.3 -154.5,221.5 7.1,-10.2 8.4,-21 3.7,-32.5 -25.7,-31.1 -62.4,-58 -42.2,-107.3 z m -4527.2,3124.6 c -28.9,-15 -57.8,-30 -86.7,-45 35.9,-112.3 110.7,-121.6 205.6,-77.7 24.8,36.7 64.3,39.9 102.8,45.1 -66.6,46.7 -139.2,76.2 -221.7,77.6 z m 4773.3,-4248.1 c -27.9,0.1 -55.9,0.2 -83.8,0.2 0,0 3.5,5.9 3.5,5.9 -43.3,-55.3 -109.8,-58.7 -170.2,-75.9 -11.8,-17.1 -9.8,-33.1 3.9,-48.1 115.1,-29.3 226.6,-32.2 327.6,43.9 21.8,78.1 -60.3,42.5 -81,74 z m -1717.9,2385.4 c -17.9,17.3 -35.8,34.6 -53.7,52 -75.6,8.8 -145.1,32.5 -203.2,83.6 -30.6,-7.5 -49.5,-26.9 -57.6,-57.2 3.8,-65.8 43.2,-103.5 100.6,-126.9 46.2,-10 94.3,1.4 140.2,-12.9 19.3,-0.7 37.5,3.4 54.9,11.6 14.9,13.2 21.2,29.9 18.8,49.8 z m 1239.4,-1428.4 c -50.2,0.3 -75.5,-34.8 -100.2,-70.6 7.5,-53.7 47.3,-52.7 87.2,-51.6 37.6,-2.9 75.1,-5.7 112.7,-8.6 23.5,-18.1 43.7,-15 60.6,9.3 -2.8,107.5 -78,119.2 -160.3,121.5 z m -844.6,-981.2 c -104.6,-33.7 -209.2,-67.5 -313.8,-101.2 123.5,-106.1 216.9,3.8 319.8,44.8 15.3,20.6 13.2,39.4 -6,56.4 z m 305.8,2463 -17.2,3.1 -16.3,-6.2 c -35.9,-14.7 -42.4,-42.5 -33.9,-76.8 37.6,-49.3 103.2,-8.8 144.9,-45 39.9,-0.5 79.8,-1 119.6,-1.5 -7.6,132.7 -104.9,125.6 -197.1,126.4 z M 12381.2,1849.4 c 13.5,39.9 26.9,79.9 40.4,119.8 -8.6,80.2 -51.3,134.5 -125,165.4 0.3,-56.2 0.6,-112.4 0.9,-168.5 27.9,-39 55.8,-77.8 83.7,-116.7 z m 944.7,-1200 c 0.8,76 -11.2,156.4 71.6,203.6 17.3,9.8 23.9,24.3 19.8,43.8 -31.8,37.2 -76.6,46.9 -120.9,57.8 -18.7,2.2 -35.7,-2.1 -50.9,-13.5 14.3,-67.9 -49,-135.4 -0.9,-203.5 -2.2,-36.6 13.4,-64.9 40.7,-87.9 13.6,-2.1 27.1,-2.2 40.6,-0.3 z m -1170.6,1657.2 c 5,-93.5 38.7,-163.7 143.1,-176.7 14.9,98.3 -8,185 -78.1,257.5 -42.1,-10.6 -62.5,-38.6 -65,-80.8 z m 2546,776.9 c -20,42 -64.3,24.9 -95.6,39.4 -47.2,36.8 -99.6,48.8 -157.8,32.9 -32.6,-11.3 -57.4,-31 -67.7,-65.4 -0.4,-86.4 70.9,-95.7 128.6,-119.8 31.2,-7.5 62.2,-6.8 92.9,2.6 48.2,23.1 86.8,55.1 99.6,110.3 z m 18.7,896.9 c 31.8,80.1 120.7,77.6 176.9,122.5 -17.2,38.9 -52.7,44.7 -89.1,49.1 -135.5,4.4 -132.3,-140.3 -211.3,-196.6 -19.8,-42.8 6.2,-64.8 41,-68.4 65.5,-6.7 62.4,55.3 82.5,93.4 z m 345.2,-154.7 c -19.7,-41.3 -39.4,-82.7 -59.2,-124 77,-37.4 153.6,-77.6 259.5,-54.5 -57,81.1 -108.3,154.3 -159.7,227.4 -27.2,-4.9 -29,-31 -40.6,-48.9 z M 13008.1,2251 c -17.5,16.1 -35,32.1 -52.4,48.2 -31.9,25.8 -67.7,42 -109,44.9 -58.9,3.1 -117.6,19.6 -177.1,4.4 -16.5,-12.3 -26.1,-28.9 -30,-49 111.9,-99 234.8,-115 368.5,-48.5 z m -1486.6,3258.8 c 129.2,32.9 37.9,148.8 80.7,214.2 -1.8,27.1 -3.7,54.2 -5.5,81.4 -22.9,-4 -45.8,-8.1 -68.7,-12.2 -104.9,-92.1 -114,-186.4 -6.5,-283.4 z m 3468.2,-2923.9 c 96.3,22.9 47.1,105.2 65.5,160 -26.4,43.7 -52.7,87.5 -79.1,131.2 -32.3,-3.5 -58.9,-16.4 -75.5,-45.8 -6.6,-12.6 -7.6,-25.7 -2.8,-39.1 37,-65.9 89.6,-124.9 91.9,-206.3 z M 11760,5013.7 c -10.8,-1.4 -21.6,-2 -32.5,-1.8 -13.4,-13.8 -26.9,-27.7 -40.3,-41.5 30.1,-129.3 173.8,-88.5 241.5,-161.3 21.6,-22.9 47.4,-25.8 75.8,-15.7 13.8,13 23.2,28.5 27.5,47 -2.1,19 -9.9,35.1 -24.2,48 -82.4,42.2 -193.6,27.5 -247.8,125.3 z m 993.3,-244.9 c 0.6,-10.3 1.2,-20.6 1.9,-30.8 82.2,-17.7 173.9,10.1 247.1,-51.3 26.1,0 52.1,0 78.2,0 23.7,4.2 39.2,17.2 44.8,41.1 -48.7,68.3 -120.6,81.6 -197.4,82.8 -67.3,24 -131.8,36.4 -174.6,-41.8 z M 12389.5,2541 c -3.3,14.9 -6.5,29.9 -9.8,44.8 -27.5,21.4 -56.5,39.7 -91.8,45.5 -70.8,9.3 -138.7,4.9 -197.3,-42.5 -81.8,-78.6 -36.4,-143.8 21.9,-207.6 52.3,4.5 59.8,46.7 71.9,85.1 23.1,149.3 147.1,21.2 205.1,74.7 z m 1967.6,1899.8 c -3.7,-43.2 -7.4,-86.4 -11.1,-129.6 -5,-85.6 -49.8,-180.1 53.7,-241.6 0,0 -2.8,-11.9 -2.8,-12 13.6,130.6 174.3,276.4 -39.8,383.2 z M 12840.4,1311.6 c 13.3,17 26.6,34 39.9,51 -83.8,79.4 -167.5,158.7 -251.2,238.1 -15,-15.5 -30.1,-30.9 -45.1,-46.4 29.1,-40.8 58.1,-81.6 87.2,-122.4 42.5,-40.3 85.1,-80.6 127.6,-120.9 13.9,0.3 27.7,0.4 41.6,0.6 z m 1546.7,695.5 c 16.1,-51.2 54,-50.8 96,-40.6 0.2,136.6 -54.5,256.7 -112.3,376 -72.1,7.5 -82.4,-25.6 -54.7,-83.5 -0.7,-15.3 -1.4,-30.5 -2.1,-45.8 24.4,-68.7 48.7,-137.4 73.1,-206.1 z m -1346.9,-946.4 c 29.8,-2.9 44.5,-49.9 82.7,-28.5 21.4,25.4 22.1,50.6 -0.5,75.7 -80.7,84.9 -161.4,169.8 -242.1,254.7 -26.6,-6.6 -37.8,-25.2 -39.9,-51 37.1,-107.1 148.4,-155.2 199.8,-250.9 z m -532.4,578 c 31.3,0 62.7,0 94,0 -35.4,123.6 -108.5,226.7 -180.2,330.5 -51.7,-27.1 -84,-60.6 -40.4,-119.8 42.2,-70.3 84.4,-140.5 126.6,-210.7 z M 8425.5,6079.5 c 26.5,-40.6 52.9,-81.2 79.4,-121.8 6.8,6.5 13.7,12.9 20.6,19.3 22.2,61.6 -17.4,130.6 22.7,190.1 -0.9,54.7 -1.8,109.4 -2.7,164 -19.9,24.3 -31,65.2 -76.8,40.9 -16.7,-63.5 -33.4,-126.9 -50.1,-190.4 -13.5,-35.1 -19.5,-69.7 6.9,-102.1 z m 1981,295.1 c -101.8,60.5 -212.5,97.7 -326.7,126.2 -19.7,14.5 -39.1,14 -58.1,-1.4 -32.3,-81.7 24.6,-117.2 79.3,-154.2 66.6,-35.4 135.4,-62.3 213.4,-49.4 43.9,10.8 78.1,33.1 92.1,78.8 z m 2137.6,-1614 c 27.4,0 54.8,0.1 82.2,0.1 13.8,5 27.7,10 41.6,14.9 24.4,25.2 23.6,50.1 -0.8,74.8 -80.3,23.1 -160.9,33.3 -242.4,5.4 -116.6,-73.6 -248.6,26.3 -366.6,-32.7 -18.6,-18.9 -22.3,-40.3 -11.3,-64.4 49,-43.1 109.2,-45.1 169.5,-47.4 82.7,6.7 160.3,39.1 242.6,48.7 28.4,0.3 56.8,0.5 85.2,0.6 z M 9417.7,6538.9 c -12.2,-44.5 -24.4,-89 -36.6,-133.4 27.9,-9.9 55.7,-19.9 83.5,-29.9 27.7,-0.5 51.4,2.1 31.2,39.5 9.4,126 127.4,215 118.7,347.2 -38.1,-19.7 -76.2,-39.3 -114.4,-59 -50.8,-43 -90,-92 -82.4,-164.4 z m 4527,-5973.4 c 23.8,-113.2 177.3,-94.3 206.1,-202.3 40,-3.1 79.9,-6.2 119.9,-9.3 16.8,9.3 27.6,23.1 31.3,42 -99.6,97.5 -199.5,194.5 -357.3,169.6 z m 442.4,1441.6 c -114.3,-32.8 -98.5,-113.2 -72.1,-197.4 9.5,-17.8 23.2,-31.2 41.6,-39.6 47.8,-13.2 97.1,-7.8 145.7,-11.2 6,13 11.9,26.1 17.9,39.1 34.6,69.3 -15.5,117.8 -42,172.2 l 4.9,-3.8 c -26.9,25.8 -55.6,47 -96,40.7 z m -6044,3303.6 c 2.8,66.1 -90.8,83.7 -78,154.9 -12.5,17.1 -25.6,16.8 -39.2,1.4 -21.1,-42 -50.3,-82 -61.3,-126.5 -13.5,-54.4 -124.8,-106.5 -33.4,-160.4 74.5,-43.9 111.5,37.7 144,99.1 9.2,17.5 44.5,21.4 67.9,31.5 z m 4722.3,-2815.1 c 25.2,-45.4 39.8,-99.8 98.2,-117.3 43,-23.2 56,8.6 70,38.3 -56.1,77.9 -115.3,155.5 -18.5,245 -17.7,16.3 -35.4,32.5 -53.2,48.7 -44.7,19.4 -76,-5.3 -106.9,-32 -50.9,-63.9 -60.7,-125.6 10.4,-182.7 z m 365.1,2070 -11.7,6.6 -10.6,-8.4 c -11.5,-47.4 20.9,-65.2 54.9,-82.2 218.1,-20.2 436.9,-52.3 650.8,28.8 21.2,13.8 37.3,32.2 48.6,54.8 -82.6,44.2 -171,40.7 -260.1,31.5 -155.2,-42.2 -316.7,9.9 -471.9,-31.1 z m -1998.6,1514 c -24.8,3.2 -49.7,6.4 -74.5,9.6 -43.1,19.3 -58.4,-7.1 -68.8,-41.6 -0.5,-23 7.6,-42.5 24.3,-58.3 52.9,-11.7 106.7,-5 160,-6.8 86.6,-10.9 189.2,37.4 250.9,-67.1 85.4,-21.4 99.7,73.8 158.2,96.5 -48.1,104.3 -139.5,35.1 -209.4,49.6 -78.4,16.2 -162.1,-13.9 -240.7,18.1 z M 13498.3,562.7 c -6.8,76.1 -26.2,158.6 87.5,174.1 -0.9,32.7 -19,55.1 -43.5,74 -52.5,32 -103.8,67.9 -170.9,54.2 -92,-55.7 -107.8,-127.5 -45.4,-215.7 57.4,-28.8 114.8,-57.7 172.3,-86.6 z m 738.8,1743.9 c -83.3,-118.4 -135.5,-247.3 -132.1,-394.8 11.4,-12.8 22.9,-25.4 34.3,-38.2 102.5,90.3 65.9,252.3 174.8,339.5 11.6,14.5 14.6,30.7 10.3,48.6 -20.4,31.9 -46.5,52.7 -87.3,44.9 z m 1111.2,194.8 c 63.1,107.5 27,291.9 227.3,293.1 5.5,75.4 -34.6,94.2 -100.4,81 -76.6,28.4 -154.5,73.2 -221.1,-18.1 37.8,-105.8 68.5,-213.7 89.8,-324.1 -3.8,-11.4 -2.4,-22.1 4.4,-31.9 z m -1610,-1977.3 c -26.9,43.1 -22.8,85.9 1.3,128.5 4.5,72 -58.2,81.7 -101.6,109.5 -33.7,9.4 -67.4,9.7 -101.4,0.9 -97.9,-50.5 -100.1,-119.3 -38.3,-200.3 20.2,-13.5 40.5,-27.1 60.7,-40.6 59.5,22.4 120.2,-57 179.3,2 z m 329.9,1477.6 c -9,-38.7 -0.1,-70 36.8,-90 77,116.3 95.3,257.1 158.5,379.3 1.2,47.3 -11.3,86.7 -60.7,104.7 -164.5,-29.7 -186.7,-160.8 -208.5,-292.3 5.9,-47.4 44.2,-71.4 73.9,-101.7 z m -3037.6,4172.2 c -124.7,71.9 -281.6,38.6 -402.4,123.1 -44.7,11.7 -89.6,24.2 -118.1,-29.4 -5.8,-22.7 -4,-44.8 5.5,-66.3 107.4,-96.6 233.1,-131 375.2,-110.6 53.1,16.7 108.4,29.9 139.8,83.2 z m -2013.2,192.5 c 127.9,-48.6 247.2,-17.4 363.8,39.2 30.3,40.6 77.9,76.1 39.8,136.6 -19,14.4 -37.8,14.1 -56.4,-0.8 -115.8,-58.4 -231.5,-116.7 -347.2,-175 z m 396.2,-1146.5 c -127.8,-142.3 -176,-324.4 -247.3,-494.9 17.8,-30.1 27.5,-69.6 75.1,-65.8 40.8,151.5 77,304.2 169.4,436.5 25.1,35.9 62.2,81.7 2.8,124.2 z M 13008.1,2251 c 56.6,-55 118.5,-85 196.1,-42.3 52.1,59.5 11.2,114.6 -8,170.8 -33.5,50.8 -66.4,102.4 -122.6,132.5 -105.4,-30.7 -145,-104.6 -137.4,-209.5 14.6,-30.2 38.9,-47 71.9,-51.5 z m -634,-1083.7 c 61.2,133.8 48.3,307.7 209.8,387.1 40,-8.8 58.2,3.5 45.1,46.4 -9.1,12.7 -18.2,25.3 -27.3,38 -31.4,24.3 -62.7,25.6 -94,-0.1 -149,-116.7 -169.1,-281.7 -170.3,-453.9 11,-8.5 23.2,-14.3 36.7,-17.5 z m 3220.4,1610.9 c -6.5,-24.5 -26.2,-63 -17.4,-71.4 134.8,-128.7 -3.5,-175.5 -70.1,-243.7 83.6,1.8 167.2,3.5 250.8,5.3 91.3,40.9 32.4,83.5 1.4,125.8 -57.5,59 -55.9,170.9 -164.7,184 z m -1455.3,-904.7 c 0.4,-11.9 4.3,-22.5 11.7,-31.7 48.3,-27.5 90.7,-71.7 154.6,-55.8 67.9,67.6 12.8,191.9 112.8,245.3 -6.9,82.8 -22.6,160.2 -113.2,193.9 -151.4,-71.8 -138.6,-221.2 -165.9,-351.7 z m -3489.6,1945.2 c -170,-43.3 -233.7,-166.9 -247.6,-328 25.4,-19.2 50.7,-38.5 76.1,-57.7 60.7,127 161.4,236.2 171.5,385.7 z m 4340.1,-1232.8 c -3.6,-148.3 -2.5,-296.3 32.2,-441.9 2.5,-36.2 27.7,-34 53.1,-31.4 7,4.7 14,9.4 21,14.1 -0.3,42.9 -0.6,85.7 -0.9,128.6 -29.6,68.3 -31.1,136.6 1,204.6 4.7,98 16.4,196.9 -40.9,286 -56.8,-39 -28,-113.1 -65.5,-160 z M 14516,2326.4 c 32.7,229.2 73,454.6 295.9,588 13.6,20.1 11.6,38.5 -6,55.2 -38.6,22.6 -78.6,23 -119.6,7.4 -154.1,-105.9 -167.9,-309 -298.6,-431.6 -22.9,-57 -8,-98.9 49.6,-123.5 9.3,-45.8 40.1,-73.8 78.7,-95.5 z m -2888.6,2810.8 c 33.3,-41.8 66.7,-83.6 100,-125.4 11.7,-14.9 22.5,-14.3 32.5,1.8 -5,247.4 -128.9,468.3 -157.8,710.4 -70.4,-50 -51.1,-142.7 -97.4,-204.3 -13.8,-49 18.4,-71.7 53.2,-92.8 37.8,-93 73.9,-186.5 69.5,-289.7 z M 14334.5,243.9 c -9.7,-130.9 109.1,-94.3 169.6,-117.8 92,-35.7 195.5,-41.7 300,-46.7 -111.8,99.2 -215.6,206.9 -373.2,228.8 -49.7,5 -85,-11.7 -96.4,-64.3 z M 9653.9,6789.3 c 49,-9.4 93.6,-15.2 69.5,-89.3 -28,-86.2 16.4,-140.9 99.2,-167.2 41.1,-6.1 57.5,10.1 46.3,51.2 -77.6,138.5 15.2,227.2 93.5,320.2 -0.1,37.1 -12.2,59.8 -54.9,45.9 -83.9,-54.5 -214.7,-35.1 -253.6,-160.8 z M 12496.8,1079 c 20.5,136.2 28.4,278.7 174.3,352.9 11.5,83.1 -38.2,121.1 -106.9,145.2 -187,-79.2 -175.8,-250.5 -190.2,-409.9 22.7,-54.9 70.4,-74.8 122.8,-88.2 z m 1484.5,-475.6 c -13.6,12.8 -27.1,25.7 -40.7,38.5 -15.5,15.2 -30,31.4 -44.7,47.4 l 5.9,-5.5 c -34.2,29.1 -73,36.9 -116.2,25.5 -67.1,-36.1 -76.5,-90 -48.2,-155.7 23.2,-44.8 65.1,-65.8 108.9,-84.3 49,-15 98.7,-28.9 133.3,-71.2 53.9,4.4 98.1,-15.9 142.4,-45.9 57.7,-39.1 59.6,10.6 65.5,48.7 16.6,154.6 -138.9,133.6 -206.2,202.5 z m 1367,1898 c 32.2,-98.6 77.2,-144.2 158.7,-38.3 191.7,78.6 191.7,78.6 87.5,315.1 l -3.5,14.9 -15.3,1.3 c -198.4,10.4 -227.3,-26.9 -227.4,-293 z M 13040.2,1060.7 c -107.5,-49.1 -82.8,-145.3 -82.9,-232.8 52.9,-29.1 105.8,-58 158.7,-86.9 29.4,-37.3 70.3,-32.4 110.4,-30.2 61.9,63.4 54.7,142.7 51,221.3 -16.8,65.6 -72.9,89.7 -124.9,118.3 -36.9,8.8 -72.5,32.2 -112.3,10.3 z m -372.7,-82.6 c -53.4,149.3 42.1,239.9 131.2,333 -2.6,100.8 -60.6,140.9 -155,141.1 -158.3,-81.2 -211.3,-204.1 -147,-373.1 42.8,-57.8 84.8,-116.7 170.8,-101 z M 9331.2,5384.4 c -51.4,-212 -238.1,-366.5 -253,-594.1 21.7,-32.1 45.3,-61.7 88.1,-65.4 124,144.2 171.7,326.5 247.3,494.9 13.7,41.4 27.5,82.7 41.2,124.1 -27.2,56.4 -65.2,79.6 -123.6,40.5 z m 5407.1,-1492.1 c 69.7,-90.9 178.5,-126.8 267.6,-190.5 55.7,13.4 82.6,49.7 84.7,105.9 -19.6,72.3 -16.4,148.2 -32.9,221.1 l 2.1,-2.1 c -65.5,23.5 -100.2,103.3 -181.1,99.2 -86.5,-20.3 -165.1,-50.2 -183.2,-152.7 0.5,-34.3 9.3,-64.2 42.8,-80.9 z m -4452.9,53.1 c -29,-100.2 -57.9,-200.3 -86.9,-300.5 40.9,-64.4 130.7,-74.7 163.7,-147.8 13.2,-2.1 26.5,-4.3 39.7,-6.4 80.7,110.7 142.4,235.8 247.6,328 28.4,15.2 27.2,29.3 -1.5,42.4 -110.5,72.2 -228.5,112.7 -362.6,84.3 z M 9004,5509.7 c 26.2,-0.5 52.3,-1.1 78.5,-1.6 35.9,1.9 70.1,7.5 88.9,44 -84.9,40.4 -169.8,80.8 -254.7,121.2 -41.9,68.9 1.6,151.1 -34.1,221 0.4,71.5 0.7,142.9 1.1,214.4 31.4,72.2 -4.5,153.4 29.9,225.2 0,0 13.3,-4 13.3,-4 -93,112.7 -93,112.7 -179.3,-102.6 -7.8,-21.7 -9.4,-43.8 -4.7,-66.4 11.5,-122.1 32,-242.9 50.8,-364 -19.6,-114 39.3,-187.8 126.7,-247 18.1,-33.7 59.5,-18.9 83.6,-40.2 z M 14599.2,2243 c 65.7,201.5 122.5,407.8 298.6,549.3 12.9,18.8 17.3,39.5 13.3,62 -22.4,58.1 -67.7,83.5 -127,89.2 -217.5,-124.1 -329.2,-381.4 -268,-617 27.6,-27.9 55.3,-55.7 83.1,-83.5 z M 12667.5,978.1 c 10.6,-6.9 22,-8.7 34.1,-5.2 49.2,-43.3 115.1,-54 169.7,-87 11.8,-44.3 52.6,-45.9 86.1,-58.2 58.8,60.5 62.8,144.7 94.6,217.1 -3.3,144.2 -127.4,196.9 -212.1,279.7 -19.9,6.9 -40.3,8.3 -61.1,4.7 -112.2,-93.1 -242.1,-180.9 -111.3,-351.1 z M 8380.6,5292.5 c 22.7,222 153.1,398.5 249.1,589.5 -34.1,36.1 -81.5,58.4 -107.8,102.9 -23.7,44 -20.3,111.9 -96.8,108.7 -50.6,-56.5 -24,-145.1 -82.4,-198.3 -12.8,-13.8 -18.1,-30.2 -17,-48.8 15.4,-72.4 -15.2,-139.8 -23.1,-209.7 0.3,-65.6 -22.5,-123.7 -58.3,-177.5 -25.6,-88.5 49.2,-110.2 98.8,-148.6 12.5,-6.1 25,-12.1 37.5,-18.2 z m 1273.3,1496.8 c -13.1,-9 -26.2,-18 -39.3,-27 -58.6,-101.9 -148.6,-189.5 -146.7,-319.2 23.5,-61.6 71.1,-115.3 62.4,-187.9 18.2,-27.5 44.9,-39.6 76.6,-43.1 64.4,-2.2 125.4,14.8 186.2,32.6 l 1.7,-5.2 c -14,87.6 35.7,150.6 83.3,214.5 7.5,41.6 -10.5,73.7 -38,102.2 -47.3,41.3 -72.1,89.3 -72.4,156.3 -0.2,68.8 -29.6,119.8 -113.8,76.8 z M 8915.6,4920.6 c 64.1,199.7 82.6,429.6 334.1,505.6 11.8,18.2 11.1,35.9 -2.1,53.1 -51.9,32 -114,35.2 -168.7,59.7 -30.6,6.7 -61.2,6.5 -91.7,-0.9 -153.9,-134.3 -214,-317.4 -262.7,-506.5 5.2,-20.7 15.3,-38.6 30.3,-53.7 53.7,-19.1 107.2,-38.2 160.8,-57.3 z m 0,0 c 40.4,-60.7 100.9,-96.2 162.6,-130.3 121.2,183.3 256.7,360.1 267.3,593.4 -21.6,43.5 -57.3,67.2 -104.7,74.7 -232.1,-62.8 -376.9,-302.5 -325.2,-537.8 z m 4740.2,-1348.2 c -139.7,-308.1 -279.4,-616.2 -419.1,-924.4 14,-35 43.1,-45.3 77.1,-47.6 161.4,326.2 322.5,652.7 485,978.4 32.4,64.9 17,132.8 21.7,199.5 -111.5,-23.2 -106.8,-139.6 -164.7,-205.9 z m -440.7,-910.8 c 4.5,-8.8 11.7,-13.3 21.6,-13.6 196.7,196.7 257.3,467.2 381.2,703.3 34.7,66.2 52,139.2 73.1,210.5 10.8,100.1 119.5,180.5 60.2,294.8 -16.6,15.1 -35.9,20.4 -58,16 -79.7,-39.8 -108.6,-120.6 -149.3,-190.3 -137.9,-236 -235.4,-492.2 -362.2,-734 -37.5,-71.6 -75,-148.2 -42.9,-235 16.8,-30 42.3,-47.1 76.3,-51.7 z M 9366.7,4545.1 c 91.6,197.4 184,394.4 274.6,592.3 58.9,128.7 174.8,66.8 267.5,82.9 -1.8,109.6 -91.9,67.8 -147,84.9 -69.8,21.7 -141.7,37 -210,63.9 -32.6,8.1 -64.7,6.5 -96.1,-5.5 -51.4,-29.4 -72.1,-76.6 -76.8,-133 8,-93.8 -53.8,-162.9 -85.7,-242.9 -41.9,-105.1 -94.1,-209.8 -51.8,-328.6 11.5,-71.2 80.2,-79.7 125.3,-114 z m 2677.5,-3005.4 c 55.1,159.5 98,326.3 253.2,426.3 51.7,56.4 40.1,112.6 -0.9,168.5 l 1.7,-4.7 c -56.2,50.4 -84.7,120.8 -128.8,180 -18.2,23.2 -40.3,39.8 -71,41.5 -45.8,-199 -180,-353.2 -268.1,-530.8 53.9,-106.9 122.9,-202.3 213.9,-280.8 z M 10073,4025.6 c -69.3,12.9 -137.1,-41.9 -212.1,13.1 -62.3,45.7 -71.6,-24.9 -83.6,-68.7 36.6,-197 144.8,-358.1 258.8,-516.3 91.1,-65.3 98.4,26.2 131.7,69.8 9.4,15.2 17.9,31 26.5,46.7 18.8,31.6 34.9,64.4 47.7,98.9 32.2,100.4 78.4,198.8 44.2,308.8 -61.3,59.6 -126.4,102.6 -213.2,47.7 z m 1971.2,-2485.9 c 33.3,-171.5 162.2,-264.1 293.2,-354.9 86.3,140.1 81.9,317.1 183.8,451 1.7,95.8 -59,161.4 -111.6,231.1 -38.9,45.2 -65.7,105 -135.4,113.5 -173.2,-96.5 -256.3,-240.1 -230,-440.7 z m 2591.5,741.1 c 55.3,-48.8 110.5,-97.5 165.8,-146.3 44.1,-39.5 101.1,-34.8 153.7,-45 44.5,0.1 84.7,9.9 110.6,50.6 29.4,169.7 11.7,338.4 -11.3,507.4 -22.3,82.4 -29.8,174.2 -130.4,207.4 -172.9,-71.9 -323.7,-372.1 -288.4,-574.1 z M 9574.4,4344.2 c 120.4,289.3 237.5,580.3 421.9,837.3 8.6,23.5 2.9,42.8 -16.8,58.2 -29.4,17.4 -62.7,21.4 -95.4,27.7 -166.8,28.4 -263.2,-41.7 -328.4,-198.6 -71.5,-172.1 -202.7,-320.9 -188.9,-523.7 53.1,-83.5 128.6,-144 207.6,-200.9 z m -1193.8,948.3 c 58.7,-64.8 117.4,-129.7 176.1,-194.5 32.5,-29.1 70.5,-26.9 109.4,-19.6 95.2,153 97.5,358 263.6,471.7 -26.8,86.6 -100.4,154.2 -102,251.3 -29.6,70 -9.8,160.6 -87.3,210.6 -34.3,6.2 -58,-10.4 -77.8,-35.8 -21.3,-35.8 -59.9,-56.2 -81.8,-91.6 -83.4,-125 -155.3,-255.8 -204.1,-398.7 -22.4,-65.8 -45.3,-129.8 3.9,-193.4 z M 11551.1,2204 c -34.4,274.7 158.7,471.4 254.2,697.3 219,518.7 474.6,1022 715.7,1531.4 49.6,104.8 100.2,209 105.3,328 -27.4,26.9 -54.8,26.9 -82.2,-0.1 -83.2,-310.9 -246.1,-588.3 -374,-880.1 -224.2,-511.4 -511.5,-993.7 -706.6,-1518.9 -5.3,-71.7 13.8,-129.9 87.6,-157.6 z m 39.4,-48.4 c 91.3,314.7 250.9,601 388.2,895.2 261.8,561.1 535,1116.8 776.6,1687.2 5.3,22.8 -2.5,39.6 -23.4,50.4 -30.4,12.2 -60.9,12.3 -91.8,1.6 -19.6,-9.5 -34.2,-24.1 -44,-43.5 -128.8,-375.4 -308.7,-728.9 -483.1,-1083.3 -196.1,-398.4 -365.8,-809.2 -572.7,-1202.4 -45.1,-85.7 -28.2,-172.7 10.8,-256.8 13.1,-16.1 26.3,-32.2 39.4,-48.4 z m 799,385.4 c 21.4,-45.8 53.5,-77.9 106.5,-83.5 8.7,5.7 17.5,11.4 26.4,17 294.6,585.2 560.6,1183.9 831.4,1780.3 27.9,61.4 63.6,124 18.4,193.3 -162.8,80.5 -228.3,-35.7 -274.3,-150.6 -182.1,-455.1 -439.5,-875.2 -613.9,-1333.2 -47.3,-124.1 -164.4,-223.9 -136.2,-375.3 8.7,-20.3 22.7,-36.3 41.7,-48 z m 1930.1,1043.2 c -111.4,-230.6 -222.9,-461.2 -334.2,-691.9 -35.2,-72.9 -34.5,-143.1 18.2,-208.5 91.4,-11.9 176.8,8.8 258.8,47.8 33.6,111.2 -2,243.3 100.6,333.8 25.5,42.9 -26.7,100.8 27.3,137.8 85.8,5.5 170.9,-1 256,1.8 41.8,14.9 83.6,29.7 125.4,44.6 54.7,54.6 149.5,19.8 198,88.6 11.1,16.7 11.9,33.9 2.6,51.6 19.5,28.6 13.8,48.1 -20.8,57.1 -86.2,83.9 -191.5,130.9 -306.7,159.2 -21.7,3.8 -43.4,5.8 -65.4,6.2 -86.6,-9.4 -178.2,27.3 -259.8,-28.1 z m -1317.2,1102.5 c -176,-93.6 -186.7,-289.2 -260.6,-441.3 -278.1,-572.6 -539.9,-1153.1 -810,-1729.6 -80.5,-171.9 -140.9,-354 -254.4,-509.5 46.1,-66 74.9,-146.3 153.1,-185.8 174.2,117.2 237.8,302.4 300.5,488.2 2.2,19.6 1.9,39.4 0,59 -15.5,72.5 -36.9,145.1 -6.4,219.4 6.4,18.3 11.1,36.9 15.7,55.7 116.2,278.2 234.9,555.2 368.2,825.4 154.7,313.6 315,624.6 445.1,949.6 31.2,78.1 77.5,144.4 129.3,208.6 10.3,19.2 11.6,39.1 4,59.5 -28,20.8 -56.2,22.9 -84.5,0.8 z m -1375,450.5 c -110.1,126.2 -124.9,-2.5 -153.6,-62.3 -167,-348.2 -310,-709.8 -501.3,-1043.8 -131.6,-229.9 -184.6,-491.5 -331.9,-710.6 29.3,-81.3 112.2,-82.1 173.4,-115.5 -0.8,209.2 144.1,362.4 217.5,542 141.1,345.4 328.3,671.3 464.3,1020.3 35.6,91.2 96.9,164.2 191.3,203 35.4,-0.5 50.3,19 50.9,52.4 -15.5,58.8 -38.4,110.5 -110.6,114.5 z M 10478,3433 c 33.4,-67.6 92.9,-97.4 162.6,-112.5 109.9,-13.1 108.8,85.8 133.6,144.7 213.8,507.4 473.4,993.2 700.1,1494.5 38.4,85 75.8,173.4 183.7,194.1 20.8,109.5 -3.9,206.7 -78.3,290.4 -170.8,36.5 -202,-102.6 -253.1,-207.9 -171.7,-354.3 -332.2,-714 -499.3,-1070.6 -40.9,-87.3 -96.3,-163.8 -168.5,-227.8 -13.1,-15.2 -21.7,-32.7 -25.5,-52.3 21.1,-32.2 18.9,-60.4 -15.6,-82.8 -48.8,-122.5 -154.9,-223.3 -139.7,-369.8 z m -781.5,621 c 26.9,-28 53.9,-56 80.8,-84 100.7,25.8 221.7,-46.1 304.9,63.8 -23.4,17.9 -46,129.2 -36.2,177.6 12.4,61 -2.1,120.8 -7.9,181.1 37.1,261.2 166,480.7 312.9,691.8 27.1,39 103.8,67.7 20.3,124.4 -120.1,21.3 -241.1,7.2 -361.5,10 -42.5,-5.6 -84,-22 -103.9,-58.4 -127.5,-233.4 -249.1,-470 -347.2,-717.6 -12.6,-31.8 -1,-67.4 15.8,-98.5 13.3,-11.4 26.5,-22.8 39.8,-34.2 55,-76.4 75.8,-163.9 82.2,-256 z m 1900.1,1751.5 c 30.1,26.4 60.2,52.8 90.3,79.2 11.5,149.7 -105.5,114.7 -187.1,130.8 -151.3,12.4 -237.5,-66.7 -302.3,-196.6 -226.2,-453.3 -442,-911.6 -636.4,-1379 -43.5,-104.7 -100.9,-145 -200.5,-154 -24.2,-24.4 -32.5,-54.5 -31.4,-87.9 9.5,-57.5 42,-94.9 97.8,-111.6 202.8,-72.3 298.3,38.9 372.3,207.4 172.9,393.4 369.2,776.2 538.9,1171.2 46,107 93.5,213.7 198.2,279.3 23.4,17.1 44.3,36.7 60.2,61.2 z M 11309,2578 c 32.1,-86 75.8,-163.7 154.5,-216.5 111.6,82.1 142.7,215.6 195.4,330.1 278,603.4 584.9,1193.3 848.2,1803.5 37.1,86 103.2,167.4 50.4,270.5 -24.3,23.8 -54.2,31.1 -87.2,29.5 -117.8,-13.1 -167.4,-96.6 -214.7,-193.3 -314.1,-642.1 -585.7,-1304.5 -922.9,-1935.6 -15.4,-27.2 -22.2,-57 -23.7,-88.2 z m -495,627 c 65.8,-44.9 131.5,-89.9 197.3,-134.8 8.5,5.5 17,11.1 25.6,16.5 216.8,488.4 428,979.2 666.6,1457.8 53.5,107.3 114.9,201.3 224.9,256.1 -34.6,129.9 -183.2,105.6 -253.6,187.3 -128.6,-14.1 -183.6,-111.8 -227.9,-212.4 -201.7,-457.4 -419.6,-907.3 -633.2,-1359.2 -34.3,-72.4 -53.8,-140.8 0.3,-211.3 z m 3327.5,530.5 c -263,-449.9 -436.6,-943.6 -684.1,-1401 -67.2,-80.4 -29.6,-162.4 -3.8,-244.3 29.8,-29.7 59.6,-59.4 89.4,-89.1 106.5,2.6 211.8,10.9 305.9,68.4 17.3,9.2 29,23 34.5,41.9 5.2,121.4 90.6,215.1 115.6,329.6 -6.8,34.4 -39.1,47.4 -58.6,70.6 -5.4,13.2 -6.7,26.6 -1.7,40.7 7.2,13.8 13.7,27.2 21.2,40.5 27,43.3 54.5,86 56,139.2 13.4,217.8 145.1,390.1 223.2,582.9 33,81.4 79,157.4 101.9,243.1 0.1,9.7 0,19.4 0.1,29.1 -2.5,9.4 -5.2,18.8 -7.7,28.3 -46.5,67.9 -108,111.9 -191.9,120.1 z m -827.7,-1135.1 c 2.1,-30.1 16.6,-43.4 47.2,-34.6 -0.5,-61.1 38,-110.6 49.4,-168.2 6,-31 20,-56.4 49.9,-70.4 131.3,45.5 136.1,181.2 184.8,278.5 182.6,365.2 351,737.6 524.9,1107 3.8,18.7 3.9,37.8 1.5,56.7 -10.3,72.8 -103.8,120.7 -62.7,208.5 58.2,26.3 101.6,-22.6 152.9,-28.8 50.8,-8.9 97.6,-3.5 134.3,37.7 0.3,23.7 0.7,47.4 1,71.1 -2.1,8.4 -4.2,16.8 -6.2,25.2 -38.9,84.5 -23.5,169.2 -1.1,254.2 4.9,39.6 -4.7,74.5 -32.6,103.7 l 2.5,-2 c -35.8,28.7 -75.6,47 -122.4,47.2 -117.3,2.7 -196.2,-64 -229.2,-164 -61.2,-185.7 -166.3,-351.5 -228.2,-536.1 -76.6,-335.9 -254.6,-629.2 -395.5,-938 -36.2,-79.4 -102.8,-149.3 -70.5,-247.7 z m -1723.3,-444.8 c -2,-67.7 66.5,-94.5 86.7,-149.3 123.4,9.6 138.4,123.7 172.3,201.2 322.6,736.9 690.9,1452.5 1013.6,2189.2 46.1,105.3 124,196.2 142.1,314 -69,81.4 -154.2,69.9 -242.2,42.4 -173.3,-174.4 -236.4,-412.3 -335.1,-624.7 -269.8,-580.9 -549.9,-1156.9 -818.2,-1738.5 -36.8,-80.2 -51.2,-152.9 -19.2,-234.3 z"
           style="fill:#3771c8;fill-opacity:1;stroke:none;stroke-width:241.07261658;stroke-linecap:round;stroke-linejoin:bevel;stroke-miterlimit:4;stroke-dasharray:none;stroke-opacity:1;paint-order:stroke markers fill"
           id="XMLID_1235_" />
      </g>
      <path
         d="m 17.174663,291.8696 q 0,1.08379 -0.186783,1.53684 -0.171217,0.44862 -1.120694,0.82172 -0.933912,0.37311 -2.537127,0.57299 -1.603216,0.19987 -3.7356487,0.19987 -2.0234758,0 -3.6422571,-0.18655 -1.603215,-0.19099 -2.583822,-0.56854 -0.980608,-0.37755 -1.16739,-0.82172 -0.186783,-0.44417 -0.186783,-1.55461 v -1.23035 q 0,-1.08379 0.171217,-1.5324 0.186783,-0.45306 1.120695,-0.82616 0.949477,-0.37311 2.552692,-0.57299 1.6032163,-0.19987 3.7356481,-0.19987 2.0234767,0 3.6266917,0.19099 1.618781,0.18655 2.599388,0.5641 0.980608,0.37755 1.16739,0.82172 0.186783,0.44417 0.186783,1.55461 z m -6.552949,-2.363 q 0,-0.50191 -0.202349,-0.63961 -0.186782,-0.14213 -0.7938247,-0.14213 -0.5136508,0 -0.7938248,0.11548 -0.264608,0.11105 -0.264608,0.66626 v 3.35795 q 0,0.62629 0.171217,0.77286 0.186782,0.14658 0.8405208,0.14658 0.6693027,0 0.8560857,-0.16879 0.186783,-0.16878 0.186783,-0.80395 z"
         style="font-style:normal;font-variant:normal;font-weight:normal;font-stretch:normal;font-size:medium;line-height:0;font-family:Impact;-inkscape-font-specification:Impact;letter-spacing:-1.09000003px;word-spacing:0px;isolation:isolate;fill:#c87137;fill-opacity:1;stroke:none;stroke-width:0.66145831;stroke-miterlimit:4;stroke-dasharray:none;stroke-opacity:1"
         id="path5172"
         inkscape:connector-curvature="0" />
      <path
         d="m 25.304607,288.95583 -0.108956,0.51968 q 0.840521,-0.31536 1.852258,-0.47082 1.011738,-0.15546 2.210258,-0.15546 1.46313,0 2.521564,0.22653 1.073999,0.22208 1.338606,0.51524 0.26461,0.29315 0.26461,0.99494 v 2.48293 q 0,0.80396 -0.342434,1.14597 -0.326872,0.33757 -1.36974,0.54189 -1.027303,0.19988 -2.490431,0.19988 -1.167389,0 -2.163564,-0.15546 -0.996171,-0.15546 -1.821127,-0.46194 v 1.35028 h -6.28834 v -6.73366 z m 1.789998,1.71451 q 0,-0.54634 -0.140086,-0.66182 -0.140086,-0.11549 -0.77826,-0.11549 -0.622608,0 -0.809391,0.13326 -0.171217,0.13325 -0.171217,0.64405 v 2.44295 q 0,0.53301 0.186782,0.66626 0.186783,0.13325 0.809391,0.13325 0.607043,0 0.74713,-0.11993 0.155651,-0.12436 0.155651,-0.59519 z"
         style="font-style:normal;font-variant:normal;font-weight:normal;font-stretch:normal;font-size:medium;line-height:0;font-family:Impact;-inkscape-font-specification:Impact;letter-spacing:-1.09000003px;word-spacing:0px;isolation:isolate;fill:#c87137;fill-opacity:1;stroke:none;stroke-width:0.66145831;stroke-miterlimit:4;stroke-dasharray:none;stroke-opacity:1"
         id="path5174"
         inkscape:connector-curvature="0" />
      <path
         d="m 49.170968,292.0073 h -8.1406 v 1.27478 q 0,0.39975 0.202348,0.51524 0.202348,0.11548 0.778261,0.11548 0.715997,0 0.949476,-0.15102 0.249045,-0.15546 0.249045,-0.59519 v -0.7773 h 5.96147 v 0.43529 q 0,0.54633 -0.249045,0.83948 -0.233476,0.29316 -1.120693,0.62629 -0.887217,0.33313 -2.256954,0.50191 -1.354172,0.16435 -3.408778,0.16435 -1.992347,0 -3.517736,-0.16435 -1.525389,-0.16434 -2.381474,-0.44861 -0.840521,-0.28871 -1.16739,-0.63073 -0.326869,-0.34645 -0.326869,-1.00383 v -1.71895 q 0,-0.77286 0.731563,-1.21703 0.731565,-0.44862 2.397043,-0.68403 1.665475,-0.23985 3.829036,-0.23985 2.646085,0 4.358257,0.28871 1.727737,0.28427 2.412605,0.75954 0.700435,0.47082 0.700435,1.32807 z m -6.303905,-0.95941 v -0.43085 q 0,-0.4575 -0.171217,-0.59075 -0.17122,-0.13326 -0.700434,-0.13326 -0.65374,0 -0.809392,0.11549 -0.155652,0.11104 -0.155652,0.60852 v 0.43085 z"
         style="font-style:normal;font-variant:normal;font-weight:normal;font-stretch:normal;font-size:medium;line-height:0;font-family:Impact;-inkscape-font-specification:Impact;letter-spacing:-1.09000003px;word-spacing:0px;isolation:isolate;fill:#c87137;fill-opacity:1;stroke:none;stroke-width:0.66145831;stroke-miterlimit:4;stroke-dasharray:none;stroke-opacity:1"
         id="path5176"
         inkscape:connector-curvature="0" />
      <path
         d="m 57.098561,288.95583 -0.108955,0.54189 q 0.684869,-0.32425 1.665478,-0.48415 0.996172,-0.16434 2.288085,-0.16434 1.618779,0 2.646082,0.21764 1.027305,0.21765 1.323041,0.55078 0.295741,0.32868 0.295741,1.10155 v 4.13081 h -6.288342 v -4.08195 q 0,-0.60852 -0.140084,-0.74177 -0.140088,-0.13326 -0.778263,-0.13326 -0.669301,0 -0.840518,0.15547 -0.17122,0.15101 -0.17122,0.81727 v 3.98424 h -6.288341 v -5.89418 z"
         style="font-style:normal;font-variant:normal;font-weight:normal;font-stretch:normal;font-size:medium;line-height:0;font-family:Impact;-inkscape-font-specification:Impact;letter-spacing:-1.09000003px;word-spacing:0px;isolation:isolate;fill:#c87137;fill-opacity:1;stroke:none;stroke-width:0.66145831;stroke-miterlimit:4;stroke-dasharray:none;stroke-opacity:1"
         id="path5178"
         inkscape:connector-curvature="0" />
      <path
         d="m 67.03407,287.65884 h 6.537381 q 3.09748,0 4.68513,0.1377 1.60321,0.13769 2.58382,0.55966 0.98061,0.41752 0.98061,1.35028 0,0.63073 -0.70043,0.87946 -0.68487,0.24874 -2.72392,0.38199 2.27252,0.14658 3.08192,0.48859 0.80938,0.33758 0.80938,1.03937 v 0.66626 q 0,0.72844 -0.59147,1.07934 -0.57591,0.3509 -1.85226,0.47971 -1.27635,0.12881 -5.22991,0.12881 H 67.03407 Z m 6.552951,1.23036 v 1.59903 q 0.42026,-0.004 0.65374,-0.004 0.96504,0 1.22965,-0.13325 0.2646,-0.1377 0.2646,-0.77731 0,-0.33757 -0.21791,-0.47082 -0.21791,-0.13769 -0.57591,-0.17323 -0.34244,-0.0355 -1.35417,-0.04 z m 0,2.71834 v 2.01211 q 1.3853,-0.0133 1.75887,-0.12437 0.38912,-0.11105 0.38912,-0.54633 v -0.67071 q 0,-0.46194 -0.34243,-0.55965 -0.34243,-0.0977 -1.80556,-0.11105 z"
         style="font-style:normal;font-variant:normal;font-weight:normal;font-stretch:normal;font-size:medium;line-height:0;font-family:Impact;-inkscape-font-specification:Impact;letter-spacing:-1.09000003px;word-spacing:0px;isolation:isolate;fill:#c87137;fill-opacity:1;stroke:none;stroke-width:0.66145831;stroke-miterlimit:4;stroke-dasharray:none;stroke-opacity:1"
         id="path5180"
         inkscape:connector-curvature="0" />
      <path
         d="m 98.153824,291.02568 v 1.44356 q 0,0.79507 -0.28018,1.16817 -0.28017,0.36867 -1.198523,0.69291 -0.91835,0.31981 -2.36591,0.47527 -1.432,0.15102 -3.29982,0.15102 -2.08574,0 -3.5333,-0.12881 -1.44756,-0.13326 -2.25695,-0.39532 -0.79383,-0.2665 -1.13627,-0.63961 -0.34243,-0.37754 -0.34243,-1.1282 v -1.51018 q 0,-0.82172 0.62261,-1.28366 0.62261,-0.46194 2.24139,-0.74177 1.61878,-0.27983 4.14034,-0.27983 2.11687,0 3.62669,0.18211 1.52539,0.17767 2.35034,0.46638 0.824963,0.28871 1.120703,0.59519 0.31131,0.30648 0.31131,0.93277 z m -6.288353,-0.44418 q 0,-0.45305 -0.17121,-0.56854 -0.17122,-0.11993 -0.73157,-0.11993 -0.56035,0 -0.74713,0.11993 -0.18678,0.11549 -0.18678,0.56854 v 2.6606 q 0,0.41752 0.18678,0.54633 0.18678,0.12437 0.73157,0.12437 0.56035,0 0.73156,-0.11548 0.18678,-0.11549 0.18678,-0.49748 z"
         style="font-style:normal;font-variant:normal;font-weight:normal;font-stretch:normal;font-size:medium;line-height:0;font-family:Impact;-inkscape-font-specification:Impact;letter-spacing:-1.09000003px;word-spacing:0px;isolation:isolate;fill:#c87137;fill-opacity:1;stroke:none;stroke-width:0.66145831;stroke-miterlimit:4;stroke-dasharray:none;stroke-opacity:1"
         id="path5182"
         inkscape:connector-curvature="0" />
      <path
         d="m 105.98803,288.95583 -0.24904,0.77286 q 1.36974,-0.8306 3.96912,-0.87946 v 2.07429 q -1.72774,0 -2.53713,0.13325 -0.80939,0.13325 -0.99617,0.3731 -0.18678,0.23542 -0.18678,1.09267 v 2.32747 h -6.288347 v -5.89418 z"
         style="font-style:normal;font-variant:normal;font-weight:normal;font-stretch:normal;font-size:medium;line-height:0;font-family:Impact;-inkscape-font-specification:Impact;letter-spacing:-1.09000003px;word-spacing:0px;isolation:isolate;fill:#c87137;fill-opacity:1;stroke:none;stroke-width:0.66145831;stroke-miterlimit:4;stroke-dasharray:none;stroke-opacity:1"
         id="path5184"
         inkscape:connector-curvature="0" />
    </g>
  </g>
</svg>
