<?xml version="1.0" encoding="UTF-8" standalone="no"?>
<!-- Generator: Gravit.io -->

<svg
   xmlns:dc="http://purl.org/dc/elements/1.1/"
   xmlns:cc="http://creativecommons.org/ns#"
   xmlns:rdf="http://www.w3.org/1999/02/22-rdf-syntax-ns#"
   xmlns:svg="http://www.w3.org/2000/svg"
   xmlns="http://www.w3.org/2000/svg"
   xmlns:sodipodi="http://sodipodi.sourceforge.net/DTD/sodipodi-0.dtd"
   xmlns:inkscape="http://www.inkscape.org/namespaces/inkscape"
   style="isolation:isolate"
   viewBox="0 0 239.76 78.763"
   width="239.76"
   height="78.763"
   version="1.1"
   id="svg20"
   sodipodi:docname="system.svg"
   inkscape:version="0.92.3 (2405546, 2018-03-11)">
  <metadata
     id="metadata26">
    <rdf:RDF>
      <cc:Work
         rdf:about="">
        <dc:format>image/svg+xml</dc:format>
        <dc:type
           rdf:resource="http://purl.org/dc/dcmitype/StillImage" />
        <dc:title />
      </cc:Work>
    </rdf:RDF>
  </metadata>
  <defs
     id="defs24" />
  <sodipodi:namedview
     pagecolor="#ffffff"
     bordercolor="#666666"
     borderopacity="1"
     objecttolerance="10"
     gridtolerance="10"
     guidetolerance="10"
     inkscape:pageopacity="0"
     inkscape:pageshadow="2"
     inkscape:window-width="1920"
     inkscape:window-height="1015"
     id="namedview22"
     showgrid="false"
     inkscape:pagecheckerboard="true"
     inkscape:zoom="1.5807475"
     inkscape:cx="-16.764214"
     inkscape:cy="39.3815"
     inkscape:window-x="0"
     inkscape:window-y="0"
     inkscape:window-maximized="1"
     inkscape:current-layer="svg20" />
  <g
     id="g5"
     transform="matrix(0.95,0,0,0.95,5.9939936,1.9690375)">
    <path
       d="m 159.353,16.817 c 0.404,0.026 0.81,0.051 1.215,0.079 3.107,0.214 6.078,0.943 8.853,2.385 1.982,1.031 3.741,2.365 5.309,3.955 1.703,1.728 3.111,3.664 4.171,5.848 0.779,1.603 1.319,3.286 1.694,5.025 0.458,2.134 0.609,4.293 0.518,6.466 -0.146,3.486 -0.917,6.818 -2.561,9.92 -1.147,2.164 -2.642,4.062 -4.42,5.742 -2.852,2.692 -6.193,4.448 -10.033,5.263 -1.421,0.3 -2.854,0.489 -4.306,0.534 -0.065,0.003 -0.131,0.022 -0.196,0.033 h -1.709 c -0.371,-0.027 -0.743,-0.052 -1.113,-0.08 -4.446,-0.322 -8.505,-1.695 -12.022,-4.494 -2.775,-2.208 -4.949,-4.902 -6.431,-8.137 -0.754,-1.643 -1.259,-3.367 -1.595,-5.141 -0.38,-2.007 -0.5,-4.035 -0.399,-6.07 0.215,-4.287 1.344,-8.29 3.831,-11.837 2.911,-4.15 6.717,-7.101 11.63,-8.528 1.498,-0.435 3.024,-0.725 4.58,-0.844 0.494,-0.038 0.988,-0.057 1.481,-0.087 0.081,-0.005 0.161,-0.02 0.241,-0.031 h 1.262 z m -0.676,39.432 c 1.58,-0.012 3.109,-0.142 4.61,-0.513 3.268,-0.807 5.985,-2.502 8.145,-5.087 2.206,-2.638 3.352,-5.703 3.663,-9.101 0.107,-1.163 0.119,-2.328 0.051,-3.495 -0.076,-1.266 -0.243,-2.519 -0.578,-3.744 -1.049,-3.824 -3.197,-6.875 -6.496,-9.083 -2.469,-1.65 -5.231,-2.405 -8.176,-2.551 -1.61,-0.079 -3.21,-0.007 -4.797,0.282 -2.773,0.503 -5.24,1.648 -7.367,3.511 -2.062,1.807 -3.553,4.001 -4.475,6.583 -0.699,1.952 -0.978,3.974 -1.007,6.038 -0.024,1.603 0.089,3.197 0.438,4.763 0.632,2.828 1.903,5.325 3.888,7.452 1.752,1.877 3.836,3.227 6.263,4.055 1.906,0.648 3.875,0.869 5.838,0.89 z"
       id="path2"
       inkscape:connector-curvature="0"
       style="fill:#ffffff" />
    <path
       d="m 239.759,61.049 c -0.167,0.405 -0.295,0.487 -0.752,0.487 -1.491,0 -2.984,10e-4 -4.477,0 -0.525,0 -0.718,-0.196 -0.718,-0.724 V 18.087 c 0,-0.548 0.193,-0.74 0.749,-0.74 1.492,0 2.984,-0.006 4.475,0.008 0.185,0.001 0.385,0.074 0.543,0.171 0.095,0.06 0.123,0.228 0.181,0.348 v 43.175 z"
       id="path4"
       inkscape:connector-curvature="0"
       style="fill:#ffffff" />
    <path
       d="m 118.07,35.272 c 0.753,0.999 1.498,1.99 2.243,2.98 1.581,2.1 3.161,4.201 4.742,6.303 2.033,2.702 4.065,5.403 6.099,8.104 1.992,2.648 3.982,5.296 5.977,7.941 0.149,0.195 0.212,0.393 0.107,0.619 -0.108,0.229 -0.317,0.303 -0.552,0.315 -0.108,0.007 -0.216,10e-4 -0.325,10e-4 -1.838,0 -3.676,-10e-4 -5.514,0.002 -0.314,10e-4 -0.545,-0.104 -0.742,-0.366 -3.466,-4.632 -6.94,-9.26 -10.413,-13.889 -1.972,-2.627 -3.945,-5.256 -5.918,-7.883 -0.016,-0.022 -0.035,-0.042 -0.063,-0.075 -0.239,0.224 -0.477,0.445 -0.714,0.665 -1.6,1.496 -3.198,2.992 -4.798,4.488 -0.881,0.823 -1.763,1.647 -2.65,2.466 -0.114,0.104 -0.161,0.209 -0.161,0.366 0.004,4.474 0.003,8.951 0.003,13.427 0,0.054 0.002,0.108 0,0.163 -0.011,0.41 -0.22,0.633 -0.63,0.635 -1.567,0.006 -3.133,0.003 -4.7,0 -0.397,-0.002 -0.606,-0.225 -0.615,-0.625 0,-0.045 0,-0.094 0,-0.141 V 18.126 18.085 c 0,-0.539 0.195,-0.737 0.731,-0.737 1.431,0 2.862,0 4.293,0 0.095,0 0.19,-0.003 0.285,0 0.414,0.019 0.618,0.224 0.636,0.636 0.003,0.061 0,0.122 0,0.183 v 20.671 0.286 c 0.355,-0.331 0.676,-0.628 0.994,-0.928 1.889,-1.772 3.776,-3.545 5.667,-5.317 2.478,-2.322 4.957,-4.643 7.436,-6.966 2.077,-1.948 4.153,-3.897 6.229,-5.845 0.876,-0.822 1.753,-1.641 2.626,-2.464 0.181,-0.172 0.389,-0.257 0.638,-0.257 2.192,10e-4 4.381,0 6.572,10e-4 0.373,0 0.584,0.135 0.663,0.415 0.065,0.23 -0.024,0.409 -0.185,0.564 -0.635,0.603 -1.268,1.205 -1.904,1.805 -1.125,1.06 -2.252,2.119 -3.376,3.179 -1.561,1.47 -3.119,2.938 -4.676,4.409 -1.598,1.507 -3.194,3.017 -4.791,4.523 -1.064,1.007 -2.131,2.008 -3.214,3.029 z"
       id="path6"
       inkscape:connector-curvature="0"
       style="fill:#ffffff" />
    <path
       d="M 187.91,39.447 V 18.166 c 0,-0.062 0,-0.123 0.001,-0.184 0.008,-0.402 0.211,-0.611 0.61,-0.634 0.027,-10e-4 0.054,-10e-4 0.08,-10e-4 6.085,10e-4 12.168,-0.014 18.252,0.01 2.798,0.009 5.474,0.638 8.029,1.781 2.222,0.993 4.174,2.379 5.869,4.122 2.764,2.837 4.599,6.185 5.5,10.046 0.52,2.223 0.735,4.474 0.688,6.751 -0.065,3.06 -0.596,6.031 -1.755,8.873 -0.968,2.373 -2.355,4.481 -4.103,6.351 -2.68,2.872 -5.938,4.76 -9.755,5.684 -1.647,0.399 -3.315,0.577 -5.01,0.575 -5.893,-0.008 -11.786,-0.003 -17.681,-0.004 -0.1,0 -0.203,-0.008 -0.302,-0.022 -0.218,-0.035 -0.353,-0.166 -0.392,-0.383 -0.02,-0.113 -0.029,-0.228 -0.029,-0.341 -0.002,-7.115 -0.002,-14.229 -0.002,-21.343 z m 5.953,16.401 h 0.262 c 3.961,0 7.921,0.004 11.882,-0.003 0.711,-0.003 1.423,-0.032 2.131,-0.086 1.471,-0.117 2.875,-0.506 4.215,-1.122 1.754,-0.802 3.228,-1.972 4.496,-3.418 1.183,-1.345 2.117,-2.843 2.806,-4.496 0.733,-1.759 1.127,-3.593 1.272,-5.492 0.135,-1.731 0.081,-3.454 -0.179,-5.169 -0.31,-2.026 -0.969,-3.938 -1.987,-5.719 -1.132,-1.98 -2.594,-3.675 -4.47,-4.985 -2.246,-1.568 -4.77,-2.298 -7.492,-2.311 -4.238,-0.02 -8.479,-0.006 -12.717,-0.007 h -0.22 v 32.808 z"
       id="path8"
       inkscape:connector-curvature="0"
       style="fill:#ffffff" />
  </g>
  <g
     id="g15"
     style="fill:#00ccff"
     transform="matrix(0.95,0,0,0.95,5.9939936,1.9690375)">
    <path
       d="m 79.067,40.037 c -0.256,0.827 -0.814,1.433 -1.413,2.03 -4.01,3.996 -8.008,8.007 -12.011,12.011 -1.442,1.444 -2.983,1.44 -4.43,-0.009 -4.131,-4.134 -8.262,-8.268 -12.39,-12.403 -1.407,-1.407 -1.406,-2.945 0.004,-4.356 4.152,-4.159 8.306,-8.316 12.459,-12.472 1.351,-1.353 2.94,-1.353 4.291,-0.002 4.027,4.028 8.048,8.061 12.082,12.082 0.599,0.596 1.156,1.204 1.408,2.033 z"
       id="path11"
       style="fill:#00ccff"
       inkscape:connector-curvature="0" />
    <path
       d="M 39.254,78.762 C 38.431,78.5 37.834,77.93 37.24,77.333 33.247,73.319 29.242,69.318 25.239,65.311 c -1.431,-1.434 -1.433,-2.963 -0.004,-4.393 4.141,-4.144 8.283,-8.29 12.425,-12.433 1.378,-1.379 2.955,-1.384 4.325,-0.013 4.142,4.144 8.284,8.29 12.424,12.434 1.423,1.426 1.427,2.987 0.01,4.403 -4.036,4.042 -8.079,8.078 -12.106,12.127 -0.576,0.578 -1.169,1.099 -1.972,1.326 z"
       id="path13"
       style="fill:#00ccff"
       inkscape:connector-curvature="0" />
    <path
       d="m 24.719,29.562 c 0,-4.609 0.042,-9.218 -0.026,-13.826 -0.019,-1.333 0.299,-2.375 1.318,-3.255 0.818,-0.708 1.545,-1.525 2.312,-2.294 3.037,-3.04 6.072,-6.078 9.109,-9.117 1.429,-1.428 2.969,-1.427 4.396,10e-4 4.131,4.132 8.261,8.264 12.391,12.398 1.42,1.421 1.418,2.982 0,4.402 -4.885,4.891 -9.771,9.781 -14.657,14.67 -4.314,4.32 -8.628,8.639 -12.943,12.956 -0.8,0.801 -1.508,0.615 -1.798,-0.495 -0.089,-0.343 -0.097,-0.714 -0.097,-1.072 -0.006,-4.789 -0.005,-9.579 -0.005,-14.368 z"
       id="path15"
       style="fill:#00ccff"
       inkscape:connector-curvature="0" />
    <path
       d="m 14.841,39.548 c 0,4.228 0.006,8.46 -0.009,12.688 -0.002,0.401 -0.065,0.827 -0.209,1.2 -0.282,0.734 -0.812,0.825 -1.366,0.272 C 11.312,51.766 9.372,49.819 7.431,47.874 5.186,45.626 2.942,43.379 0.699,41.129 -0.23,40.198 -0.234,38.907 0.691,37.971 4.822,33.794 8.953,29.617 13.086,25.44 c 0.273,-0.276 0.531,-0.651 0.996,-0.475 0.444,0.168 0.619,0.568 0.682,1.012 0.04,0.275 0.071,0.555 0.071,0.833 0.004,4.246 0.002,8.491 0.002,12.739 h 0.004 z"
       id="path17"
       style="fill:#00ccff"
       inkscape:connector-curvature="0" />
  </g>
</svg>
