<?xml version="1.0" encoding="UTF-8" standalone="no"?>
<!-- Generator: Adobe Illustrator 16.0.3, SVG Export Plug-In . SVG Version: 6.00 Build 0)  -->

<svg
   xmlns:dc="http://purl.org/dc/elements/1.1/"
   xmlns:cc="http://creativecommons.org/ns#"
   xmlns:rdf="http://www.w3.org/1999/02/22-rdf-syntax-ns#"
   xmlns:svg="http://www.w3.org/2000/svg"
   xmlns="http://www.w3.org/2000/svg"
   xmlns:sodipodi="http://sodipodi.sourceforge.net/DTD/sodipodi-0.dtd"
   xmlns:inkscape="http://www.inkscape.org/namespaces/inkscape"
   version="1.1"
   id="TEXT"
   x="0px"
   y="0px"
   width="566.929px"
   height="157.78px"
   viewBox="0 -0.001 566.929 157.78"
   enable-background="new 0 -0.001 566.929 157.78"
   xml:space="preserve"
   sodipodi:docname="system.svg"
   inkscape:version="0.92.3 (2405546, 2018-03-11)"><metadata
   id="metadata339"><rdf:RDF><cc:Work
       rdf:about=""><dc:format>image/svg+xml</dc:format><dc:type
         rdf:resource="http://purl.org/dc/dcmitype/StillImage" /><dc:title /></cc:Work></rdf:RDF></metadata><defs
   id="defs337" /><sodipodi:namedview
   pagecolor="#ffffff"
   bordercolor="#666666"
   borderopacity="1"
   objecttolerance="10"
   gridtolerance="10"
   guidetolerance="10"
   inkscape:pageopacity="0"
   inkscape:pageshadow="2"
   inkscape:window-width="1920"
   inkscape:window-height="1015"
   id="namedview335"
   showgrid="false"
   inkscape:zoom="1.8110187"
   inkscape:cx="212.48231"
   inkscape:cy="45.274436"
   inkscape:window-x="0"
   inkscape:window-y="0"
   inkscape:window-maximized="1"
   inkscape:current-layer="TEXT" />
<linearGradient
   id="SVGID_1_"
   gradientUnits="userSpaceOnUse"
   x1="558.1284"
   y1="955.5977"
   x2="11.77"
   y2="955.5977"
   gradientTransform="translate(-0.1797,-875.4102)">
	<stop
   offset="0"
   style="stop-color:#013A67"
   id="stop2" />
	<stop
   offset="1"
   style="stop-color:#6CD1FF"
   id="stop4" />
</linearGradient>
<polygon
   points="536.777,27.946 557.949,5.927 479.951,5.642 406.662,79.217 396.4,79.784 396.686,9.001 355.481,51.055 345.625,52.224 345.625,9.374 261.264,92.842 250.775,93.958 251.667,8.077 177.937,82.94 168.255,82.987 167.12,11.089 127.342,51.15 116.278,51.717 116.697,8.939 11.591,114.895 46.209,114.328 91.598,70.276 100.303,70.276 99.883,114.54 136.035,77.543 144.679,77.543 144.679,115.23 104.892,154.73 143.019,154.165 218.036,78.299 228.14,78.299 228.14,115.57 274.897,115.854 320.115,70.353 328.843,69.786 328.708,112.799 364.839,76.667 373.375,76.667 373.941,113.102 373.203,114.998 482.378,114.998 503.279,93.815 435.398,92.661 434.781,82.809 445.357,71.67 470.968,71.667 493.216,49.133 479.769,48.565 479.769,39.082 491.191,27.662 "
   id="polygon7"
   style="fill:url(#SVGID_1_)"
   transform="matrix(0.95,0,0,0.95,14.173228,3.9444156)" />
<linearGradient
   id="SVGID_2_"
   gradientUnits="userSpaceOnUse"
   x1="64.7095"
   y1="938.7891"
   x2="60.765"
   y2="934.8448"
   gradientTransform="matrix(0.95,0,0,0.95,14.002513,-827.69527)">
	<stop
   offset="0"
   style="stop-color:#08406F"
   id="stop9" />
	<stop
   offset="1"
   style="stop-color:#60C5F5"
   id="stop11" />
</linearGradient>
<path
   d="m 123.13063,16.496766 -96.059252,96.059254 -10.89745,4.09735 c 0,0 -0.5738,0.0371 -0.25745,-0.42275 0,0 111.397002,-111.4274044 111.598402,-111.5974544 0.2014,-0.17195 0.44365,-0.0266 0.44365,-0.0266 z"
   id="path14"
   style="fill:url(#SVGID_2_);stroke-width:0.94999999"
   inkscape:connector-curvature="0" />
<linearGradient
   id="SVGID_3_"
   gradientUnits="userSpaceOnUse"
   x1="123.2954"
   y1="1013.9102"
   x2="119.6701"
   y2="1010.2849"
   gradientTransform="matrix(0.95,0,0,0.95,14.002513,-827.69527)">
	<stop
   offset="0"
   style="stop-color:#08406F"
   id="stop16" />
	<stop
   offset="1"
   style="stop-color:#60C5F5"
   id="stop18" />
</linearGradient>
<path
   d="m 152.69653,113.95157 -35.6421,35.64495 -10.51175,4.23415 c 0,0 -0.5472,0.0617 -0.2242,-0.38665 l 41.73255,-41.56155 z"
   id="path21"
   style="fill:url(#SVGID_3_);stroke-width:0.94999999"
   inkscape:connector-curvature="0" />
<linearGradient
   id="SVGID_4_"
   gradientUnits="userSpaceOnUse"
   x1="25.7236"
   y1="994.0508"
   x2="25.7236"
   y2="989.7383"
   gradientTransform="translate(-0.1797,-875.4102)">
	<stop
   offset="0"
   style="stop-color:#08406F"
   id="stop23" />
	<stop
   offset="1"
   style="stop-color:#60C5F5"
   id="stop25" />
</linearGradient>
<polygon
   points="2.106,118.641 13.603,114.328 46.209,114.328 48.982,118.641 "
   id="polygon28"
   style="fill:url(#SVGID_4_)"
   transform="matrix(0.95,0,0,0.95,14.173228,3.9444156)" />
<linearGradient
   id="SVGID_5_"
   gradientUnits="userSpaceOnUse"
   x1="121.1855"
   y1="1033.1816"
   x2="121.1855"
   y2="1028.7246"
   gradientTransform="translate(-0.1797,-875.4102)">
	<stop
   offset="0"
   style="stop-color:#08406F"
   id="stop30" />
	<stop
   offset="1"
   style="stop-color:#60C5F5"
   id="stop32" />
</linearGradient>
<polygon
   points="97.23,157.771 108.296,153.314 142.168,153.314 144.781,157.771 "
   id="polygon35"
   style="fill:url(#SVGID_5_)"
   transform="matrix(0.95,0,0,0.95,14.173228,3.9444156)" />
<linearGradient
   id="SVGID_6_"
   gradientUnits="userSpaceOnUse"
   x1="427.6938"
   y1="994.0234"
   x2="427.6938"
   y2="989.5566"
   gradientTransform="translate(-0.1797,-875.4102)">
	<stop
   offset="0"
   style="stop-color:#08406F"
   id="stop37" />
	<stop
   offset="1"
   style="stop-color:#60C5F5"
   id="stop39" />
</linearGradient>
<polygon
   points="370.242,118.584 374.052,114.148 481.529,114.146 484.787,118.613 "
   id="polygon42"
   style="fill:url(#SVGID_6_)"
   transform="matrix(0.95,0,0,0.95,14.173228,3.9444156)" />
<linearGradient
   id="SVGID_7_"
   gradientUnits="userSpaceOnUse"
   x1="251.0645"
   y1="994.8945"
   x2="251.0645"
   y2="990.416"
   gradientTransform="matrix(0.95,0,0,0.95,14.002513,-827.69527)">
	<stop
   offset="0"
   style="stop-color:#08406F"
   id="stop44" />
	<stop
   offset="1"
   style="stop-color:#60C5F5"
   id="stop46" />
</linearGradient>
<path
   d="m 277.37358,117.45422 -48.95065,-0.0276 c -0.31635,0.005 -0.7695,-0.31825 -0.7695,-0.31825 l 4.33295,-3.90925 h 42.8013 z"
   id="path49"
   style="fill:url(#SVGID_7_);stroke-width:0.94999999"
   inkscape:connector-curvature="0" />
<linearGradient
   id="SVGID_8_"
   gradientUnits="userSpaceOnUse"
   x1="522.2808"
   y1="882.1875"
   x2="522.2808"
   y2="877.3242"
   gradientTransform="matrix(0.95,0,0,0.95,14.002513,-827.69527)">
	<stop
   offset="0"
   style="stop-color:#08406F"
   id="stop51" />
	<stop
   offset="1"
   style="stop-color:#60C5F5"
   id="stop53" />
</linearGradient>
<path
   d="m 467.68613,5.7617656 h 84.2194 c 0.74575,0 0.74575,0.29735 0.74575,0.29735 l -10.0434,4.3225004 h -71.4058 z"
   id="path56"
   style="fill:url(#SVGID_8_);stroke-width:0.94999999"
   inkscape:connector-curvature="0" />
<linearGradient
   id="SVGID_9_"
   gradientUnits="userSpaceOnUse"
   x1="515.0132"
   y1="906.7148"
   x2="515.0132"
   y2="902.5049"
   gradientTransform="translate(-0.1797,-875.4102)">
	<stop
   offset="0"
   style="stop-color:#08406F"
   id="stop58" />
	<stop
   offset="1"
   style="stop-color:#60C5F5"
   id="stop60" />
</linearGradient>
<polygon
   points="492.697,31.304 490.625,27.094 535.927,27.094 539.042,31.304 "
   id="polygon63"
   style="fill:url(#SVGID_9_)"
   transform="matrix(0.95,0,0,0.95,14.173228,3.9444156)" />
<linearGradient
   id="SVGID_10_"
   gradientUnits="userSpaceOnUse"
   x1="459.3696"
   y1="950.2305"
   x2="459.3696"
   y2="946.5117"
   gradientTransform="translate(-0.1797,-875.4102)">
	<stop
   offset="0"
   style="stop-color:#08406F"
   id="stop65" />
	<stop
   offset="1"
   style="stop-color:#60C5F5"
   id="stop67" />
</linearGradient>
<polygon
   points="448.91,74.82 444.791,71.102 470.402,71.1 473.589,74.82 "
   id="polygon70"
   style="fill:url(#SVGID_10_)"
   transform="matrix(0.95,0,0,0.95,14.173228,3.9444156)" />
<linearGradient
   id="SVGID_11_"
   gradientUnits="userSpaceOnUse"
   x1="490.1606"
   y1="925.1113"
   x2="490.1606"
   y2="919.5566"
   gradientTransform="matrix(0.95,0,0,0.95,14.002513,-827.69527)">
	<stop
   offset="0"
   style="stop-color:#08406F"
   id="stop72" />
	<stop
   offset="1"
   style="stop-color:#60C5F5"
   id="stop74" />
</linearGradient>
<path
   d="m 481.38323,51.159416 h -12.901 l -1.13335,-5.2706 h 24.19365 c 0.3287,-0.04085 0.41895,0.1387 0.41895,0.1387 z"
   id="path77"
   style="fill:url(#SVGID_11_);stroke-width:0.94999999"
   inkscape:connector-curvature="0" />
<linearGradient
   id="SVGID_12_"
   gradientUnits="userSpaceOnUse"
   x1="74.3892"
   y1="968.8252"
   x2="70.846"
   y2="965.282"
   gradientTransform="matrix(0.95,0,0,0.95,14.002513,-827.69527)">
	<stop
   offset="0"
   style="stop-color:#08406F"
   id="stop79" />
	<stop
   offset="1"
   style="stop-color:#60C5F5"
   id="stop81" />
</linearGradient>
<path
   d="m 106.20163,71.046716 -45.495502,45.608554 -2.63435,-4.09735 44.270952,-44.046754 c 1.9,-2.19735 4.44125,-1.64445 4.44125,-1.64445 z"
   id="path84"
   style="fill:url(#SVGID_12_);stroke-width:0.94999999"
   inkscape:connector-curvature="0" />
<linearGradient
   id="SVGID_13_"
   gradientUnits="userSpaceOnUse"
   x1="120.2554"
   y1="904.3691"
   x2="114.8892"
   y2="904.3691"
   gradientTransform="matrix(0.95,0,0,0.95,14.002513,-827.69527)">
	<stop
   offset="0"
   style="stop-color:#08406F"
   id="stop86" />
	<stop
   offset="1"
   style="stop-color:#60C5F5"
   id="stop88" />
</linearGradient>
<path
   d="m 123.14773,53.029966 v -36.5522 l 4.80985,-11.8740504 c 0,0 0.28785,0.07125 0.28785,0.54245 0,0.46835 0,50.9646504 0,50.9646504 l -0.29925,2.19545 c 0,9.5e-4 -4.2712,0.02375 -4.79845,-5.2763 z"
   id="path91"
   style="fill:url(#SVGID_13_);stroke-width:0.94999999"
   inkscape:connector-curvature="0" />
<linearGradient
   id="SVGID_14_"
   gradientUnits="userSpaceOnUse"
   x1="173.0811"
   y1="919.9609"
   x2="166.4209"
   y2="919.9609"
   gradientTransform="matrix(0.95,0,0,0.95,14.002513,-827.69527)">
	<stop
   offset="0"
   style="stop-color:#08406F"
   id="stop93" />
	<stop
   offset="1"
   style="stop-color:#60C5F5"
   id="stop95" />
</linearGradient>
<path
   d="m 178.43013,88.345266 c 0,0 -6.21205,1.8525 -6.28995,-5.34375 -0.076,-6.94735 -0.0123,-65.82645 -0.0123,-65.82645 l 4.9533,-13.2012004 c 0,0 0.1729,-0.02565 0.1729,0.68875 l -0.0162,77.7033504 z"
   id="path98"
   style="fill:url(#SVGID_14_);stroke-width:0.94999999"
   inkscape:connector-curvature="0" />
<linearGradient
   id="SVGID_15_"
   gradientUnits="userSpaceOnUse"
   x1="255.9883"
   y1="925.2158"
   x2="249.9951"
   y2="925.2158"
   gradientTransform="matrix(0.95,0,0,0.95,14.002513,-827.69527)">
	<stop
   offset="0"
   style="stop-color:#08406F"
   id="stop100" />
	<stop
   offset="1"
   style="stop-color:#60C5F5"
   id="stop102" />
</linearGradient>
<path
   d="m 257.19178,97.908916 c 0,0 -5.59455,0.54815 -5.662,-5.7836 l -0.0313,-76.05985 4.41845,-11.4674504 c 0,0 0.55385,0.14535 0.55385,0.86165 l -0.0152,86.5830004 z"
   id="path105"
   style="fill:url(#SVGID_15_);stroke-width:0.94999999"
   inkscape:connector-curvature="0" />
<linearGradient
   id="SVGID_16_"
   gradientUnits="userSpaceOnUse"
   x1="349.2769"
   y1="904.625"
   x2="343.5757"
   y2="904.625"
   gradientTransform="matrix(0.95,0,0,0.95,14.002513,-827.69527)">
	<stop
   offset="0"
   style="stop-color:#08406F"
   id="stop107" />
	<stop
   offset="1"
   style="stop-color:#60C5F5"
   id="stop109" />
</linearGradient>
<path
   d="m 345.81538,58.498166 c 0,0 -4.6246,0.4294 -5.41595,-4.33485 v -37.73685 l 4.17335,-11.5396504 c 0,0 0.53485,0.1273 0.53485,0.8417 V 52.912166 Z"
   id="path112"
   style="fill:url(#SVGID_16_);stroke-width:0.94999999"
   inkscape:connector-curvature="0" />
<linearGradient
   id="SVGID_17_"
   gradientUnits="userSpaceOnUse"
   x1="400.9604"
   y1="918.4463"
   x2="395.1636"
   y2="918.4463"
   gradientTransform="matrix(0.95,0,0,0.95,14.002513,-827.69527)">
	<stop
   offset="0"
   style="stop-color:#08406F"
   id="stop114" />
	<stop
   offset="1"
   style="stop-color:#60C5F5"
   id="stop116" />
</linearGradient>
<path
   d="m 394.91518,85.010766 c 0,0 -4.6911,0.61085 -5.50715,-4.15435 v -64.3207 l 4.6075,-11.9168004 c 0,0 0.2546,0.20995 0.2546,1.6226 V 79.606216 Z"
   id="path119"
   style="fill:url(#SVGID_17_);stroke-width:0.94999999"
   inkscape:connector-curvature="0" />
<linearGradient
   id="SVGID_18_"
   gradientUnits="userSpaceOnUse"
   x1="101.7651"
   y1="968.9385"
   x2="96.6543"
   y2="968.9385"
   gradientTransform="matrix(0.95,0,0,0.95,14.002513,-827.69527)">
	<stop
   offset="0"
   style="stop-color:#08406F"
   id="stop121" />
	<stop
   offset="1"
   style="stop-color:#60C5F5"
   id="stop123" />
</linearGradient>
<path
   d="m 107.04428,118.72342 c 0,0 -0.79135,-0.0656 -0.76855,-1.09155 -9.5e-4,-0.87115 -0.0741,-46.584204 -0.0741,-46.584204 0,0 -1.1571,-1.49815 0.58235,-4.18 0.51965,0.12445 3.32025,0.69065 3.89595,4.0432 v 38.351504 z"
   id="path126"
   style="fill:url(#SVGID_18_);stroke-width:0.94999999"
   inkscape:connector-curvature="0" />
<linearGradient
   id="SVGID_19_"
   gradientUnits="userSpaceOnUse"
   x1="121.2485"
   y1="973.8379"
   x2="117.6964"
   y2="970.2858"
   gradientTransform="matrix(0.95,0,0,0.95,14.002513,-827.69527)">
	<stop
   offset="0"
   style="stop-color:#08406F"
   id="stop128" />
	<stop
   offset="1"
   style="stop-color:#60C5F5"
   id="stop130" />
</linearGradient>
<path
   d="m 147.97408,78.612516 c 0,0 -39.41455,39.470604 -39.78885,39.841104 -0.3287,0.36005 -1.1419,0.2679 -1.1419,0.2679 l 3.63565,-9.46485 34.25605,-34.283604 c 0,0 1.273,-1.64065 3.63945,-1.55515 z"
   id="path133"
   style="fill:url(#SVGID_19_);stroke-width:0.94999999"
   inkscape:connector-curvature="0" />
<linearGradient
   id="SVGID_20_"
   gradientUnits="userSpaceOnUse"
   x1="553.436"
   y1="892.5"
   x2="549.7673"
   y2="888.8311"
   gradientTransform="matrix(0.95,0,0,0.95,14.002513,-827.69527)">
	<stop
   offset="0"
   style="stop-color:#08406F"
   id="stop135" />
	<stop
   offset="1"
   style="stop-color:#60C5F5"
   id="stop137" />
</linearGradient>
<path
   d="m 552.45178,7.4014656 -26.1877,26.2817504 -2.95925,-4.00045 19.2964,-19.3078 10.0529,-4.3149004 c 0,9.5e-4 0.33155,0.80465 -0.20235,1.3414 z"
   id="path140"
   style="fill:url(#SVGID_20_);stroke-width:0.94999999"
   inkscape:connector-curvature="0" />
<linearGradient
   id="SVGID_21_"
   gradientUnits="userSpaceOnUse"
   x1="145.9941"
   y1="969.8789"
   x2="140.5957"
   y2="969.8789"
   gradientTransform="matrix(0.95,0,0,0.95,14.002513,-827.69527)">
	<stop
   offset="0"
   style="stop-color:#08406F"
   id="stop142" />
	<stop
   offset="1"
   style="stop-color:#60C5F5"
   id="stop144" />
</linearGradient>
<path
   d="m 148.05103,111.87962 -0.0751,-33.273754 c 0,0 -1.23595,-2.50135 0.59945,-5.1832 0.56335,-0.0067 3.515,0.39995 4.12205,3.9387 l -9.5e-4,36.594004 z"
   id="path147"
   style="fill:url(#SVGID_21_);stroke-width:0.94999999"
   inkscape:connector-curvature="0" />
<linearGradient
   id="SVGID_22_"
   gradientUnits="userSpaceOnUse"
   x1="148.7769"
   y1="907.0098"
   x2="144.2891"
   y2="902.522"
   gradientTransform="matrix(0.95,0,0,0.95,14.002513,-827.69527)">
	<stop
   offset="0"
   style="stop-color:#08406F"
   id="stop149" />
	<stop
   offset="1"
   style="stop-color:#60C5F5"
   id="stop151" />
</linearGradient>
<path
   d="m 172.12878,17.174116 -39.3889,39.38985 c -1.88765,1.8867 -4.79275,1.7442 -4.79275,1.7442 -1.70525,-3.35445 0.29925,-5.76175 0.29925,-5.76175 0,0 47.97785,-47.9655004 48.32365,-48.3265004 0.31445,-0.39615 0.51395,-0.2508 0.51395,-0.2508 z"
   id="path154"
   style="fill:url(#SVGID_22_);stroke-width:0.94999999"
   inkscape:connector-curvature="0" />
<linearGradient
   id="SVGID_23_"
   gradientUnits="userSpaceOnUse"
   x1="215.8457"
   y1="922.3213"
   x2="211.688"
   y2="918.1636"
   gradientTransform="matrix(0.95,0,0,0.95,14.002513,-827.69527)">
	<stop
   offset="0"
   style="stop-color:#08406F"
   id="stop156" />
	<stop
   offset="1"
   style="stop-color:#60C5F5"
   id="stop158" />
</linearGradient>
<path
   d="m 251.49748,16.068316 -70.6572,70.65625 c -1.4725,1.47345 -2.41015,1.61785 -2.41015,1.61785 -3.59195,-1.7841 -1.15235,-5.94225 -1.15235,-5.94225 0,0 76.6194,-76.6032504 76.9652,-76.9642504 0.89585,-1.03835 1.67295,-0.83885 1.67295,-0.83885 z"
   id="path161"
   style="fill:url(#SVGID_23_);stroke-width:0.94999999"
   inkscape:connector-curvature="0" />
<linearGradient
   id="SVGID_24_"
   gradientUnits="userSpaceOnUse"
   x1="304.3159"
   y1="927.8105"
   x2="299.9317"
   y2="923.4263"
   gradientTransform="matrix(0.95,0,0,0.95,14.002513,-827.69527)">
	<stop
   offset="0"
   style="stop-color:#08406F"
   id="stop163" />
	<stop
   offset="1"
   style="stop-color:#60C5F5"
   id="stop165" />
</linearGradient>
<path
   d="m 340.39943,16.426466 -79.95485,79.95295 c -1.35755,1.3604 -3.2528,1.5276 -3.2528,1.5276 -2.95925,-1.4782 -0.7372,-5.86625 -0.7372,-5.86625 0,0 86.0795,-85.9750004 86.4253,-86.3369504 0.89395,-1.0431 1.69195,-0.8189 1.69195,-0.8189 z"
   id="path168"
   style="fill:url(#SVGID_24_);stroke-width:0.94999999"
   inkscape:connector-curvature="0" />
<linearGradient
   id="SVGID_25_"
   gradientUnits="userSpaceOnUse"
   x1="376.9712"
   y1="906.8613"
   x2="372.7633"
   y2="902.653"
   gradientTransform="matrix(0.95,0,0,0.95,14.002513,-827.69527)">
	<stop
   offset="0"
   style="stop-color:#08406F"
   id="stop170" />
	<stop
   offset="1"
   style="stop-color:#60C5F5"
   id="stop172" />
</linearGradient>
<path
   d="m 389.40803,16.535716 -40.38735,40.3883 c -1.35755,1.3604 -3.2053,1.57415 -3.2053,1.57415 -2.7854,-1.8126 -0.5586,-5.68385 -0.5586,-5.68385 0,0 47.1048,-47.2055004 47.44965,-47.5665004 0.99465,-0.98135 1.30815,-0.627 1.30815,-0.627 z"
   id="path175"
   style="fill:url(#SVGID_25_);stroke-width:0.94999999"
   inkscape:connector-curvature="0" />
<linearGradient
   id="SVGID_26_"
   gradientUnits="userSpaceOnUse"
   x1="488.7378"
   y1="935.2646"
   x2="485.2816"
   y2="931.8086"
   gradientTransform="matrix(0.95,0,0,0.95,14.002513,-827.69527)">
	<stop
   offset="0"
   style="stop-color:#08406F"
   id="stop177" />
	<stop
   offset="1"
   style="stop-color:#60C5F5"
   id="stop179" />
</linearGradient>
<path
   d="m 491.98333,47.124766 -27.90055,27.89865 -3.0286,-3.5359 20.32905,-20.3281 10.57825,-5.13095 c 0,0 0.3933,0.2793 0.0219,1.0963 z"
   id="path182"
   style="fill:url(#SVGID_26_);stroke-width:0.94999999"
   inkscape:connector-curvature="0" />
<linearGradient
   id="SVGID_27_"
   gradientUnits="userSpaceOnUse"
   x1="499.8081"
   y1="979.377"
   x2="495.8485"
   y2="975.4175"
   gradientTransform="matrix(0.95,0,0,0.95,14.002513,-827.69527)">
	<stop
   offset="0"
   style="stop-color:#08406F"
   id="stop184" />
	<stop
   offset="1"
   style="stop-color:#60C5F5"
   id="stop186" />
</linearGradient>
<path
   d="m 502.12553,89.406416 -27.4056,27.218454 -3.0951,-4.24175 19.04655,-19.046554 11.67455,-5.111 c 9.5e-4,0.0028 0.37715,0.41325 -0.2204,1.18085 z"
   id="path189"
   style="fill:url(#SVGID_27_);stroke-width:0.94999999"
   inkscape:connector-curvature="0" />
<linearGradient
   id="SVGID_28_"
   gradientUnits="userSpaceOnUse"
   x1="441.8374"
   y1="921.6133"
   x2="437.5547"
   y2="917.3306"
   gradientTransform="matrix(0.95,0,0,0.95,14.002513,-827.69527)">
	<stop
   offset="0"
   style="stop-color:#08406F"
   id="stop191" />
	<stop
   offset="1"
   style="stop-color:#60C5F5"
   id="stop193" />
</linearGradient>
<path
   d="m 471.20208,10.382566 -73.0664,73.06735 c -1.3585,1.3604 -3.22525,1.5618 -3.22525,1.5618 -2.32655,-2.9374 -0.6517,-5.68005 -0.6517,-5.68005 L 467.68328,5.7636656 Z"
   id="path196"
   style="fill:url(#SVGID_28_);stroke-width:0.94999999"
   inkscape:connector-curvature="0" />
<linearGradient
   id="SVGID_29_"
   gradientUnits="userSpaceOnUse"
   x1="486.8589"
   y1="916.6494"
   x2="481.7448"
   y2="911.5353"
   gradientTransform="matrix(0.95,0,0,0.95,14.002513,-827.69527)">
	<stop
   offset="0"
   style="stop-color:#08406F"
   id="stop198" />
	<stop
   offset="1"
   style="stop-color:#60C5F5"
   id="stop200" />
</linearGradient>
<path
   d="m 482.23538,33.683216 -12.0422,12.1467 c -2.63245,2.1679 -1.71095,5.3276 -1.71095,5.3276 -2.1375,-0.1995 -2.96875,-1.96175 -3.2414,-3.51025 -0.27075,-1.5485 0.28785,-3.2509 1.2806,-4.24365 l 13.74555,-13.718 z"
   id="path203"
   style="fill:url(#SVGID_29_);stroke-width:0.94999999"
   inkscape:connector-curvature="0" />
<linearGradient
   id="SVGID_30_"
   gradientUnits="userSpaceOnUse"
   x1="185.9771"
   y1="992.3301"
   x2="182.3352"
   y2="988.6882"
   gradientTransform="matrix(0.95,0,0,0.95,14.002513,-827.69527)">
	<stop
   offset="0"
   style="stop-color:#08406F"
   id="stop205" />
	<stop
   offset="1"
   style="stop-color:#60C5F5"
   id="stop207" />
</linearGradient>
<path
   d="m 149.23473,149.59462 74.01735,-74.045854 c 0,0 1.36515,-1.77935 4.05365,-1.68245 l -0.4332,4.96185 c 0,0 -74.7327,74.580704 -75.15735,75.000604 z"
   id="path210"
   style="fill:url(#SVGID_30_);stroke-width:0.94999999"
   inkscape:connector-curvature="0" />
<linearGradient
   id="SVGID_31_"
   gradientUnits="userSpaceOnUse"
   x1="303.0278"
   y1="969.1396"
   x2="299.3873"
   y2="965.4991"
   gradientTransform="matrix(0.95,0,0,0.95,14.002513,-827.69527)">
	<stop
   offset="0"
   style="stop-color:#08406F"
   id="stop212" />
	<stop
   offset="1"
   style="stop-color:#60C5F5"
   id="stop214" />
</linearGradient>
<path
   d="m 274.78673,113.19822 45.26085,-45.276054 c 0,0 1.36515,-1.77745 4.05365,-1.68245 l -0.81415,5.33995 -45.90875,45.875504 z"
   id="path217"
   style="fill:url(#SVGID_31_);stroke-width:0.94999999"
   inkscape:connector-curvature="0" />
<linearGradient
   id="SVGID_32_"
   gradientUnits="userSpaceOnUse"
   x1="349.8892"
   y1="973.085"
   x2="346.3799"
   y2="969.5756"
   gradientTransform="matrix(0.95,0,0,0.95,14.002513,-827.69527)">
	<stop
   offset="0"
   style="stop-color:#08406F"
   id="stop219" />
	<stop
   offset="1"
   style="stop-color:#60C5F5"
   id="stop221" />
</linearGradient>
<path
   d="m 327.79198,108.68192 34.94005,-34.949554 c 0.7999,-0.80085 1.69005,-1.68245 3.2262,-1.68245 l -0.10165,5.22595 -40.92695,40.890854 c -0.54055,0.53485 -0.96805,0.37905 -0.96805,0.37905 z"
   id="path224"
   style="fill:url(#SVGID_32_);stroke-width:0.94999999"
   inkscape:connector-curvature="0" />
<linearGradient
   id="SVGID_33_"
   gradientUnits="userSpaceOnUse"
   x1="370.8042"
   y1="993.6396"
   x2="366.3813"
   y2="989.2169"
   gradientTransform="matrix(0.95,0,0,0.95,14.002513,-827.69527)">
	<stop
   offset="0"
   style="stop-color:#08406F"
   id="stop226" />
	<stop
   offset="1"
   style="stop-color:#60C5F5"
   id="stop228" />
</linearGradient>
<path
   d="m 358.05803,116.09857 6.8875,-6.91695 5.27915,2.2097 -0.6973,0.99465 -3.62235,4.21515 -0.2584,0.285 h -7.334 c -0.323,0.0133 -0.49495,-0.25745 -0.49495,-0.25745 0,0 -0.14725,-0.13965 0.24035,-0.5301 z"
   id="path231"
   style="fill:url(#SVGID_33_);stroke-width:0.94999999"
   inkscape:connector-curvature="0" />
<linearGradient
   id="SVGID_34_"
   gradientUnits="userSpaceOnUse"
   x1="229.457"
   y1="971.7686"
   x2="223.4189"
   y2="971.7686"
   gradientTransform="matrix(0.95,0,0,0.95,14.002513,-827.69527)">
	<stop
   offset="0"
   style="stop-color:#08406F"
   id="stop233" />
	<stop
   offset="1"
   style="stop-color:#60C5F5"
   id="stop235" />
</linearGradient>
<path
   d="m 226.95708,115.41552 -0.0855,-36.589254 c 0,0 -1.6511,-1.9152 0.43415,-4.96185 0.63935,-0.0095 3.9919,0.4541 4.6816,4.47165 l -9.5e-4,34.859304 -4.33295,3.90925 c 0,0.003 -0.6935,-0.45125 -0.69635,-1.6891 z"
   id="path238"
   style="fill:url(#SVGID_34_);stroke-width:0.94999999"
   inkscape:connector-curvature="0" />
<linearGradient
   id="SVGID_35_"
   gradientUnits="userSpaceOnUse"
   x1="330.3042"
   y1="968.5186"
   x2="325.0923"
   y2="968.5186"
   gradientTransform="matrix(0.95,0,0,0.95,14.002513,-827.69527)">
	<stop
   offset="0"
   style="stop-color:#08406F"
   id="stop240" />
	<stop
   offset="1"
   style="stop-color:#60C5F5"
   id="stop242" />
</linearGradient>
<path
   d="m 323.34978,117.89217 -0.076,-46.312504 c 0,0 -1.3984,-2.54695 0.82745,-5.33995 0.5662,-0.0085 3.08085,0.4484 3.69075,4.4669 v 37.976254 l -3.8266,9.8705 c -0.004,-0.002 -0.57475,-0.13585 -0.6156,-0.6612 z"
   id="path245"
   style="fill:url(#SVGID_35_);stroke-width:0.94999999"
   inkscape:connector-curvature="0" />
<linearGradient
   id="SVGID_36_"
   gradientUnits="userSpaceOnUse"
   x1="374.9702"
   y1="967.8066"
   x2="368.7251"
   y2="967.8066"
   gradientTransform="matrix(0.95,0,0,0.95,14.002513,-827.69527)">
	<stop
   offset="0"
   style="stop-color:#08406F"
   id="stop247" />
	<stop
   offset="1"
   style="stop-color:#60C5F5"
   id="stop249" />
</linearGradient>
<path
   d="M 364.94553,109.18067 V 78.183116 c 0,0 -2.00735,-3.21005 1.0108,-6.1332 0.65835,-0.0076 3.9254,0.228 4.2674,4.10685 v 35.233604 z"
   id="path252"
   style="fill:url(#SVGID_36_);stroke-width:0.94999999"
   inkscape:connector-curvature="0" />
<linearGradient
   id="SVGID_37_"
   gradientUnits="userSpaceOnUse"
   x1="440.6372"
   y1="959.6748"
   x2="436.2191"
   y2="955.2568"
   gradientTransform="matrix(0.95,0,0,0.95,14.002513,-827.69527)">
	<stop
   offset="0"
   style="stop-color:#08406F"
   id="stop254" />
	<stop
   offset="1"
   style="stop-color:#60C5F5"
   id="stop256" />
</linearGradient>
<path
   d="m 440.63773,75.023416 -12.77845,12.80505 -3.6518,4.56855 c -3.7012,-2.3351 -1.85535,-6.5303 -0.8664,-7.52875 l 13.3836,-13.37505 z"
   id="path259"
   style="fill:url(#SVGID_37_);stroke-width:0.94999999"
   inkscape:connector-curvature="0" />
<linearGradient
   id="SVGID_38_"
   gradientUnits="userSpaceOnUse"
   x1="472.9204"
   y1="969.5098"
   x2="472.9204"
   y2="963.708"
   gradientTransform="matrix(0.95,0,0,0.95,14.002513,-827.69527)">
	<stop
   offset="0"
   style="stop-color:#08406F"
   id="stop261" />
	<stop
   offset="1"
   style="stop-color:#60C5F5"
   id="stop263" />
</linearGradient>
<path
   d="m 490.67423,93.337516 h -63.07145 c -2.3769,-0.1862 -3.3953,-0.9424 -3.3953,-0.9424 -0.0114,-3.39245 3.6518,-4.56855 3.6518,-4.56855 l 73.8587,9.5e-4 c 0.51585,-9.5e-4 0.6289,0.4009 0.6289,0.4009 z"
   id="path266"
   style="fill:url(#SVGID_38_);stroke-width:0.94999999"
   inkscape:connector-curvature="0" />
<g
   id="g284"
   style="fill:#ffffff"
   transform="matrix(0.95,0,0,0.95,14.173228,3.9444156)">
	<path
   d="m 0,142.055 v -9.521 h 2.876 l 1.728,6.494 1.708,-6.494 h 2.883 v 9.521 H 7.41 v -7.496 l -1.89,7.496 H 3.669 l -1.883,-7.496 v 7.496 z"
   id="path268"
   inkscape:connector-curvature="0"
   style="fill:#ffffff" />
	<path
   d="m 17.224,132.532 h 1.922 v 5.155 c 0,0.816 0.024,1.35 0.071,1.592 0.083,0.391 0.278,0.701 0.588,0.938 0.31,0.237 0.732,0.354 1.27,0.354 0.545,0 0.957,-0.11 1.234,-0.334 0.277,-0.223 0.443,-0.496 0.5,-0.821 0.056,-0.324 0.084,-0.863 0.084,-1.616 v -5.268 h 1.922 v 5.001 c 0,1.144 -0.052,1.95 -0.155,2.423 -0.104,0.472 -0.296,0.87 -0.575,1.193 -0.279,0.324 -0.652,0.582 -1.12,0.773 -0.468,0.192 -1.078,0.289 -1.832,0.289 -0.909,0 -1.599,-0.104 -2.068,-0.313 -0.47,-0.211 -0.841,-0.482 -1.114,-0.818 -0.273,-0.335 -0.452,-0.688 -0.539,-1.057 -0.125,-0.545 -0.188,-1.353 -0.188,-2.416 z"
   id="path270"
   inkscape:connector-curvature="0"
   style="fill:#ffffff" />
	<path
   d="m 33.025,142.055 v -9.443 h 1.922 v 7.84 h 4.78 v 1.604 h -6.702 z"
   id="path272"
   inkscape:connector-curvature="0"
   style="fill:#ffffff" />
	<path
   d="m 48.385,142.055 v -7.91 H 45.56 v -1.61 h 7.566 v 1.61 h -2.819 v 7.91 z"
   id="path274"
   inkscape:connector-curvature="0"
   style="fill:#ffffff" />
	<path
   d="m 60.438,142.055 v -9.521 h 1.922 v 9.521 z"
   id="path276"
   inkscape:connector-curvature="0"
   style="fill:#ffffff" />
	<path
   d="m 70.324,142.055 v -9.521 h 3.085 c 1.169,0 1.931,0.048 2.286,0.144 0.545,0.146 1.002,0.453 1.37,0.935 0.368,0.479 0.552,1.098 0.552,1.854 0,0.584 -0.106,1.075 -0.318,1.477 -0.212,0.396 -0.482,0.711 -0.809,0.938 -0.327,0.229 -0.659,0.378 -0.997,0.452 -0.459,0.09 -1.124,0.136 -1.994,0.136 h -1.253 v 3.594 z m 1.922,-7.91 v 2.701 h 1.052 c 0.757,0 1.264,-0.053 1.52,-0.15 0.256,-0.098 0.456,-0.254 0.601,-0.467 0.145,-0.213 0.217,-0.459 0.217,-0.74 0,-0.346 -0.102,-0.633 -0.305,-0.856 -0.204,-0.225 -0.461,-0.362 -0.773,-0.422 -0.229,-0.043 -0.691,-0.063 -1.383,-0.063 z"
   id="path278"
   inkscape:connector-curvature="0"
   style="fill:#ffffff" />
	<path
   d="m 85.378,142.055 v -9.443 H 87.3 v 7.84 h 4.78 v 1.604 h -6.702 z"
   id="path280"
   inkscape:connector-curvature="0"
   style="fill:#ffffff" />
	<path
   d="m 99.582,142.055 v -9.521 h 7.059 v 1.609 h -5.137 v 2.108 h 4.78 v 1.604 h -4.78 v 2.592 h 5.319 v 1.604 z"
   id="path282"
   inkscape:connector-curvature="0"
   style="fill:#ffffff" />
</g>
<g
   id="g298"
   style="fill:#ffffff"
   transform="matrix(0.95,0,0,0.95,14.173228,3.9444156)">
	<path
   d="m 189.966,142.055 h -2.091 l -0.831,-2.164 h -3.806 l -0.786,2.164 h -2.039 l 3.708,-9.521 h 2.032 z m -3.539,-3.769 -1.313,-3.532 -1.286,3.532 z"
   id="path286"
   inkscape:connector-curvature="0"
   style="fill:#ffffff" />
	<path
   d="m 197.124,142.055 v -9.521 h 4.046 c 1.018,0 1.757,0.086 2.218,0.258 0.461,0.171 0.83,0.477 1.107,0.912 0.277,0.438 0.416,0.938 0.416,1.5 0,0.714 -0.21,1.304 -0.63,1.771 -0.419,0.465 -1.047,0.758 -1.883,0.879 0.416,0.242 0.758,0.51 1.029,0.799 0.271,0.291 0.635,0.808 1.094,1.548 l 1.162,1.856 h -2.299 l -1.39,-2.072 c -0.493,-0.739 -0.832,-1.207 -1.013,-1.398 -0.181,-0.189 -0.375,-0.322 -0.578,-0.396 -0.203,-0.069 -0.526,-0.104 -0.968,-0.104 h -0.389 v 3.978 h -1.922 z m 1.922,-5.496 h 1.422 c 0.922,0 1.498,-0.037 1.727,-0.115 0.23,-0.077 0.409,-0.213 0.539,-0.402 0.13,-0.188 0.195,-0.43 0.195,-0.714 0,-0.32 -0.085,-0.579 -0.256,-0.776 -0.171,-0.193 -0.412,-0.318 -0.724,-0.371 -0.156,-0.021 -0.623,-0.031 -1.403,-0.031 h -1.5 z"
   id="path288"
   inkscape:connector-curvature="0"
   style="fill:#ffffff" />
	<path
   d="m 218.945,138.552 1.864,0.593 c -0.286,1.041 -0.761,1.813 -1.425,2.313 -0.664,0.504 -1.508,0.757 -2.53,0.757 -1.264,0 -2.303,-0.433 -3.117,-1.296 -0.814,-0.86 -1.221,-2.044 -1.221,-3.542 0,-1.585 0.409,-2.813 1.228,-3.689 0.818,-0.877 1.894,-1.313 3.228,-1.313 1.165,0 2.11,0.344 2.838,1.03 0.433,0.406 0.757,0.992 0.974,1.755 l -1.903,0.452 c -0.113,-0.491 -0.347,-0.881 -0.705,-1.168 -0.358,-0.284 -0.791,-0.428 -1.302,-0.428 -0.706,0 -1.278,0.252 -1.718,0.76 -0.44,0.507 -0.66,1.326 -0.66,2.461 0,1.203 0.217,2.062 0.65,2.572 0.433,0.51 0.996,0.767 1.688,0.767 0.511,0 0.95,-0.162 1.318,-0.486 0.369,-0.33 0.633,-0.84 0.793,-1.538 z"
   id="path290"
   inkscape:connector-curvature="0"
   style="fill:#ffffff" />
	<path
   d="m 237.175,142.055 h -2.091 l -0.832,-2.164 h -3.806 l -0.786,2.164 h -2.039 l 3.708,-9.521 h 2.033 z m -3.539,-3.769 -1.313,-3.532 -1.286,3.532 z"
   id="path292"
   inkscape:connector-curvature="0"
   style="fill:#ffffff" />
	<path
   d="m 244.32,132.532 h 3.514 c 0.792,0 1.396,0.062 1.812,0.183 0.559,0.165 1.037,0.457 1.435,0.877 0.398,0.419 0.702,0.936 0.91,1.542 0.208,0.608 0.312,1.358 0.312,2.251 0,0.782 -0.098,1.458 -0.292,2.025 -0.238,0.691 -0.578,1.254 -1.02,1.682 -0.333,0.325 -0.784,0.578 -1.351,0.762 -0.424,0.136 -0.991,0.203 -1.701,0.203 h -3.617 v -9.521 z m 1.922,1.613 v 6.307 h 1.435 c 0.537,0 0.924,-0.03 1.163,-0.092 0.312,-0.077 0.57,-0.211 0.776,-0.396 0.206,-0.188 0.374,-0.49 0.503,-0.92 0.13,-0.426 0.195,-1.007 0.195,-1.743 0,-0.733 -0.065,-1.301 -0.195,-1.692 -0.13,-0.396 -0.312,-0.701 -0.545,-0.924 -0.234,-0.223 -0.53,-0.369 -0.89,-0.447 -0.269,-0.063 -0.795,-0.09 -1.578,-0.09 z"
   id="path294"
   inkscape:connector-curvature="0"
   style="fill:#ffffff" />
	<path
   d="m 260.063,142.055 v -9.521 h 7.059 v 1.609 h -5.137 v 2.108 h 4.78 v 1.604 h -4.78 v 2.592 h 5.319 v 1.604 z"
   id="path296"
   inkscape:connector-curvature="0"
   style="fill:#ffffff" />
</g>
<g
   id="g314"
   style="fill:#ffffff"
   transform="matrix(0.95,0,0,0.95,14.173228,3.9444156)">
	<path
   d="m 283.18,142.055 v -9.521 h 2.877 l 1.729,6.494 1.707,-6.494 h 2.883 v 9.521 h -1.785 v -7.496 l -1.891,7.496 h -1.854 l -1.887,-7.496 v 7.496 z"
   id="path300"
   inkscape:connector-curvature="0"
   style="fill:#ffffff" />
	<path
   d="m 309.001,142.055 h -2.09 l -0.832,-2.164 h -3.809 l -0.782,2.164 h -2.04 l 3.709,-9.521 h 2.029 z m -3.539,-3.769 -1.313,-3.532 -1.286,3.532 z"
   id="path302"
   inkscape:connector-curvature="0"
   style="fill:#ffffff" />
	<path
   d="m 322.246,138.552 1.863,0.593 c -0.285,1.041 -0.761,1.813 -1.425,2.313 -0.665,0.505 -1.509,0.757 -2.53,0.757 -1.264,0 -2.303,-0.433 -3.115,-1.296 -0.813,-0.86 -1.223,-2.044 -1.223,-3.542 0,-1.585 0.409,-2.813 1.229,-3.689 0.818,-0.877 1.896,-1.313 3.229,-1.313 1.165,0 2.108,0.344 2.839,1.03 0.434,0.406 0.76,0.992 0.977,1.755 l -1.902,0.452 c -0.111,-0.491 -0.35,-0.881 -0.704,-1.168 -0.356,-0.284 -0.791,-0.428 -1.303,-0.428 -0.705,0 -1.277,0.252 -1.718,0.76 -0.439,0.507 -0.66,1.326 -0.66,2.461 0,1.203 0.218,2.062 0.648,2.572 0.434,0.51 0.994,0.767 1.688,0.767 0.51,0 0.946,-0.162 1.313,-0.486 0.369,-0.33 0.633,-0.84 0.794,-1.538 z"
   id="path304"
   inkscape:connector-curvature="0"
   style="fill:#ffffff" />
	<path
   d="m 331.897,142.055 v -9.521 h 1.923 v 3.748 h 3.766 v -3.748 h 1.924 v 9.521 h -1.924 v -4.164 h -3.766 v 4.164 z"
   id="path306"
   inkscape:connector-curvature="0"
   style="fill:#ffffff" />
	<path
   d="m 347.569,142.055 v -9.521 h 1.923 v 9.521 z"
   id="path308"
   inkscape:connector-curvature="0"
   style="fill:#ffffff" />
	<path
   d="m 357.472,142.055 v -9.521 h 1.871 l 3.896,6.357 v -6.357 h 1.786 v 9.521 h -1.929 l -3.839,-6.209 v 6.209 z"
   id="path310"
   inkscape:connector-curvature="0"
   style="fill:#ffffff" />
	<path
   d="m 373.19,142.055 v -9.521 h 7.06 v 1.609 h -5.138 v 2.108 h 4.78 v 1.604 h -4.78 v 2.592 h 5.319 v 1.604 z"
   id="path312"
   inkscape:connector-curvature="0"
   style="fill:#ffffff" />
</g>
<g
   id="g332"
   style="fill:#ffffff"
   transform="matrix(0.95,0,0,0.95,14.173228,3.9444156)">
	<path
   d="m 397.091,142.055 v -9.521 h 7.06 v 1.609 h -5.137 v 2.108 h 4.78 v 1.604 h -4.78 v 2.592 h 5.319 v 1.604 z"
   id="path316"
   inkscape:connector-curvature="0"
   style="fill:#ffffff" />
	<path
   d="m 412.069,142.055 v -9.521 h 2.877 l 1.728,6.494 1.709,-6.494 h 2.883 v 9.521 h -1.783 v -7.496 l -1.893,7.496 h -1.852 l -1.884,-7.496 v 7.496 z"
   id="path318"
   inkscape:connector-curvature="0"
   style="fill:#ffffff" />
	<path
   d="m 429.292,132.532 h 1.922 v 5.155 c 0,0.816 0.023,1.35 0.07,1.592 0.082,0.391 0.273,0.701 0.588,0.938 0.311,0.236 0.729,0.354 1.27,0.354 0.547,0 0.957,-0.11 1.234,-0.334 0.277,-0.223 0.443,-0.496 0.5,-0.821 0.057,-0.324 0.084,-0.863 0.084,-1.616 v -5.268 h 1.924 v 5.001 c 0,1.144 -0.053,1.95 -0.156,2.423 -0.104,0.472 -0.297,0.87 -0.574,1.193 -0.279,0.324 -0.652,0.582 -1.121,0.773 -0.467,0.192 -1.078,0.289 -1.83,0.289 -0.91,0 -1.6,-0.104 -2.068,-0.313 -0.471,-0.211 -0.842,-0.482 -1.109,-0.818 -0.271,-0.335 -0.451,-0.688 -0.537,-1.057 -0.127,-0.545 -0.189,-1.353 -0.189,-2.416 v -5.077 z"
   id="path320"
   inkscape:connector-curvature="0"
   style="fill:#ffffff" />
	<path
   d="m 445.093,142.055 v -9.443 h 1.922 v 7.84 h 4.781 v 1.604 h -6.703 z"
   id="path322"
   inkscape:connector-curvature="0"
   style="fill:#ffffff" />
	<path
   d="m 467.882,142.055 h -2.092 l -0.83,-2.164 h -3.807 l -0.785,2.164 h -2.039 l 3.707,-9.521 h 2.033 z m -3.539,-3.769 -1.313,-3.532 -1.285,3.532 z"
   id="path324"
   inkscape:connector-curvature="0"
   style="fill:#ffffff" />
	<path
   d="m 476.191,142.055 v -7.91 h -2.826 v -1.61 h 7.564 v 1.61 h -2.816 v 7.91 z"
   id="path326"
   inkscape:connector-curvature="0"
   style="fill:#ffffff" />
	<path
   d="m 487.671,137.352 c 0,-0.972 0.146,-1.783 0.438,-2.44 0.215,-0.484 0.51,-0.92 0.885,-1.308 0.375,-0.387 0.785,-0.67 1.23,-0.854 0.594,-0.251 1.277,-0.376 2.053,-0.376 1.402,0 2.525,0.438 3.367,1.305 0.842,0.87 1.264,2.081 1.264,3.633 0,1.535 -0.418,2.737 -1.254,3.605 -0.836,0.867 -1.953,1.302 -3.352,1.302 -1.416,0 -2.541,-0.433 -3.377,-1.296 -0.836,-0.863 -1.254,-2.057 -1.254,-3.571 z m 1.983,-0.066 c 0,1.078 0.248,1.896 0.746,2.45 0.498,0.558 1.131,0.834 1.896,0.834 0.768,0 1.396,-0.273 1.887,-0.825 0.492,-0.554 0.736,-1.381 0.736,-2.485 0,-1.09 -0.238,-1.902 -0.717,-2.439 -0.48,-0.535 -1.113,-0.805 -1.906,-0.805 -0.793,0 -1.43,0.271 -1.916,0.813 -0.486,0.542 -0.726,1.362 -0.726,2.457 z"
   id="path328"
   inkscape:connector-curvature="0"
   style="fill:#ffffff" />
	<path
   d="m 504.544,142.055 v -9.521 h 4.047 c 1.018,0 1.756,0.086 2.217,0.258 0.461,0.171 0.83,0.477 1.107,0.912 0.277,0.438 0.416,0.938 0.416,1.5 0,0.714 -0.211,1.304 -0.631,1.771 -0.42,0.465 -1.047,0.758 -1.883,0.879 0.416,0.242 0.76,0.51 1.021,0.799 0.271,0.291 0.645,0.808 1.102,1.548 l 1.156,1.856 H 510.8 l -1.391,-2.072 c -0.492,-0.739 -0.83,-1.207 -1.012,-1.398 -0.186,-0.189 -0.375,-0.322 -0.578,-0.396 -0.203,-0.069 -0.525,-0.104 -0.971,-0.104 h -0.391 v 3.978 h -1.92 v -0.006 h 0.004 v -0.002 h 0.003 z m 1.922,-5.496 h 1.424 c 0.922,0 1.498,-0.037 1.727,-0.115 0.23,-0.077 0.41,-0.213 0.541,-0.402 0.129,-0.188 0.193,-0.43 0.193,-0.714 0,-0.32 -0.086,-0.579 -0.258,-0.776 -0.17,-0.193 -0.41,-0.318 -0.723,-0.371 -0.156,-0.021 -0.623,-0.031 -1.402,-0.031 h -1.502 z"
   id="path330"
   inkscape:connector-curvature="0"
   style="fill:#ffffff" />
</g>
<g
   aria-label="Core"
   style="font-style:normal;font-variant:normal;font-weight:normal;font-stretch:normal;font-size:40px;line-height:1.25;font-family:'NES Cyrillic';-inkscape-font-specification:'NES Cyrillic';letter-spacing:0px;word-spacing:0px;fill:#000000;fill-opacity:1;stroke:none"
   id="text1791"><path
     d="m 419.10028,124.66134 q -0.14933,-0.37334 -0.14933,-1.04534 0,-0.672 0.14933,-0.97066 0.224,-0.37334 1.26934,-0.59734 1.12,-0.224 2.76266,-0.224 1.64267,-0.0747 5.152,-0.0747 3.50934,0 5.152,0.0747 1.64267,0 2.688,0.224 1.12,0.224 1.26934,0.59734 0.224,0.29866 0.224,0.97066 0,0.672 -0.224,1.04534 -0.14934,0.29866 -1.26934,0.52266 -1.04533,0.224 -2.688,0.29867 -1.64266,0 -5.152,0 -3.50933,0 -5.152,0 -1.64266,-0.0747 -2.76266,-0.29867 -1.04534,-0.224 -1.26934,-0.52266 z m 15.456,-6.944 q -0.672,-0.37334 -0.672,-1.568 0,-1.19467 0.672,-1.49334 0.74667,-0.37333 3.06134,-0.37333 2.31466,0 2.98666,0.37333 0.74667,0.29867 0.74667,1.49334 0,1.19466 -0.74667,1.568 -0.672,0.29866 -2.98666,0.29866 -2.31467,0 -3.06134,-0.29866 z m -18.66666,0 q -0.672,-0.37334 -0.672,-1.568 0,-1.19467 0.672,-1.49334 0.74666,-0.37333 3.06133,-0.37333 2.31467,0 2.98667,0.37333 0.74666,0.29867 0.74666,1.49334 0,1.19466 -0.74666,1.568 -0.672,0.29866 -2.98667,0.29866 -2.31467,0 -3.06133,-0.29866 z m -3.73334,-7.46667 q -0.672,-0.37333 -0.672,-1.568 0,-1.19467 0.672,-1.49333 0.74667,-0.37334 3.06134,-0.37334 2.31466,0 2.98666,0.37334 0.74667,0.29866 0.74667,1.49333 0,1.19467 -0.74667,1.568 -0.672,0.29867 -2.98666,0.29867 -2.31467,0 -3.06134,-0.29867 z m 0,-7.46667 q -0.672,-0.37333 -0.672,-1.568 0,-1.19466 0.672,-1.493329 0.74667,-0.373333 3.06134,-0.373333 2.31466,0 2.98666,0.373333 0.74667,0.298669 0.74667,1.493329 0,1.19467 -0.74667,1.568 -0.672,0.29867 -2.98666,0.29867 -2.31467,0 -3.06134,-0.29867 z m 0,-7.466662 q -0.672,-0.373333 -0.672,-1.568 0,-1.194667 0.672,-1.493333 0.74667,-0.373334 3.06134,-0.373334 2.31466,0 2.98666,0.373334 0.74667,0.298666 0.74667,1.493333 0,1.194667 -0.74667,1.568 -0.672,0.298667 -2.98666,0.298667 -2.31467,0 -3.06134,-0.298667 z m 22.4,-7.466667 q -0.672,-0.373333 -0.672,-1.567999 0,-1.194667 0.672,-1.493334 0.74667,-0.373333 3.06134,-0.373333 2.31466,0 2.98666,0.373333 0.74667,0.298667 0.74667,1.493334 0,1.194666 -0.74667,1.567999 -0.672,0.298667 -2.98666,0.298667 -2.31467,0 -3.06134,-0.298667 z m -18.66666,0 q -0.672,-0.373333 -0.672,-1.567999 0,-1.194667 0.672,-1.493334 0.74666,-0.373333 3.06133,-0.373333 2.31467,0 2.98667,0.373333 0.74666,0.298667 0.74666,1.493334 0,1.194666 -0.74666,1.567999 -0.672,0.298667 -2.98667,0.298667 -2.31467,0 -3.06133,-0.298667 z m 3.21066,-7.989333 q -0.14933,-0.373333 -0.14933,-1.045333 0,-0.672 0.14933,-0.970666 0.224,-0.373334 1.26934,-0.597334 1.12,-0.224 2.76266,-0.224 1.64267,-0.07467 5.152,-0.07467 3.50934,0 5.152,0.07467 1.64267,0 2.688,0.224 1.12,0.224 1.26934,0.597334 0.224,0.298666 0.224,0.970666 0,0.672 -0.224,1.045333 -0.14934,0.298667 -1.26934,0.522667 -1.04533,0.224 -2.688,0.298667 -1.64266,0 -5.152,0 -3.50933,0 -5.152,0 -1.64266,-0.07467 -2.76266,-0.298667 -1.04534,-0.224 -1.26934,-0.522667 z"
     style="font-style:normal;font-variant:normal;font-weight:normal;font-stretch:normal;font-size:74.66666412px;font-family:'Glass TTY VT220';-inkscape-font-specification:'Glass TTY VT220';fill:#ff0000"
     id="path998"
     inkscape:connector-curvature="0" /><path
     d="m 452.55095,123.616 q 0,-1.19466 1.12,-1.49333 1.41867,-0.37333 10.08,-0.37333 9.632,0 10.67733,0.672 0.52267,0.29866 0.52267,1.19466 0,1.19467 -1.12,1.49334 -1.41867,0.37333 -10.08,0.37333 -9.632,0 -10.67733,-0.672 -0.52267,-0.29867 -0.52267,-1.19467 z m 19.33866,-5.89866 q -0.672,-0.37334 -0.672,-1.568 0,-1.19467 0.672,-1.49334 0.74667,-0.37333 3.06134,-0.37333 2.31466,0 2.98666,0.37333 0.74667,0.29867 0.74667,1.49334 0,1.19466 -0.74667,1.568 -0.672,0.29866 -2.98666,0.29866 -2.31467,0 -3.06134,-0.29866 z m -22.39999,0 q -0.672,-0.37334 -0.672,-1.568 0,-1.19467 0.672,-1.49334 0.74666,-0.37333 3.06133,-0.37333 2.31467,0 2.98667,0.37333 0.74666,0.29867 0.74666,1.49334 0,1.19466 -0.74666,1.568 -0.672,0.29866 -2.98667,0.29866 -2.31467,0 -3.06133,-0.29866 z m 22.39999,-7.46667 q -0.672,-0.37333 -0.672,-1.568 0,-1.19467 0.672,-1.49333 0.74667,-0.37334 3.06134,-0.37334 2.31466,0 2.98666,0.37334 0.74667,0.29866 0.74667,1.49333 0,1.19467 -0.74667,1.568 -0.672,0.29867 -2.98666,0.29867 -2.31467,0 -3.06134,-0.29867 z m -22.39999,0 q -0.672,-0.37333 -0.672,-1.568 0,-1.19467 0.672,-1.49333 0.74666,-0.37334 3.06133,-0.37334 2.31467,0 2.98667,0.37334 0.74666,0.29866 0.74666,1.49333 0,1.19467 -0.74666,1.568 -0.672,0.29867 -2.98667,0.29867 -2.31467,0 -3.06133,-0.29867 z m 22.39999,-7.46667 q -0.672,-0.37333 -0.672,-1.568 0,-1.19466 0.672,-1.493329 0.74667,-0.373333 3.06134,-0.373333 2.31466,0 2.98666,0.373333 0.74667,0.298669 0.74667,1.493329 0,1.19467 -0.74667,1.568 -0.672,0.29867 -2.98666,0.29867 -2.31467,0 -3.06134,-0.29867 z m -22.39999,0 q -0.672,-0.37333 -0.672,-1.568 0,-1.19466 0.672,-1.493329 0.74666,-0.373333 3.06133,-0.373333 2.31467,0 2.98667,0.373333 0.74666,0.298669 0.74666,1.493329 0,1.19467 -0.74666,1.568 -0.672,0.29867 -2.98667,0.29867 -2.31467,0 -3.06133,-0.29867 z m 3.06133,-9.034662 q 0,-1.194667 1.12,-1.493333 1.41867,-0.373334 10.08,-0.373334 9.632,0 10.67733,0.672 0.52267,0.298667 0.52267,1.194667 0,1.194667 -1.12,1.493333 -1.41867,0.373334 -10.08,0.373334 -9.632,0 -10.67733,-0.672 -0.52267,-0.298667 -0.52267,-1.194667 z"
     style="font-style:normal;font-variant:normal;font-weight:normal;font-stretch:normal;font-size:74.66666412px;font-family:'Glass TTY VT220';-inkscape-font-specification:'Glass TTY VT220';fill:#ff0000"
     id="path1000"
     inkscape:connector-curvature="0" /><path
     d="m 490.55628,125.184 q -0.672,-0.37333 -0.672,-1.568 0,-1.19466 0.672,-1.49333 0.74667,-0.37333 3.06133,-0.37333 2.31467,0 2.98667,0.37333 0.74667,0.29867 0.74667,1.49333 0,1.19467 -0.74667,1.568 -0.672,0.29867 -2.98667,0.29867 -2.31466,0 -3.06133,-0.29867 z m 0,-7.46666 q -0.672,-0.37334 -0.672,-1.568 0,-1.19467 0.672,-1.49334 0.74667,-0.37333 3.06133,-0.37333 2.31467,0 2.98667,0.37333 0.74667,0.29867 0.74667,1.49334 0,1.19466 -0.74667,1.568 -0.672,0.29866 -2.98667,0.29866 -2.31466,0 -3.06133,-0.29866 z m 0,-7.46667 q -0.672,-0.37333 -0.672,-1.568 0,-1.19467 0.672,-1.49333 0.74667,-0.37334 3.06133,-0.37334 2.31467,0 2.98667,0.37334 0.74667,0.29866 0.74667,1.49333 0,1.19467 -0.74667,1.568 -0.672,0.29867 -2.98667,0.29867 -2.31466,0 -3.06133,-0.29867 z m 18.66667,-7.46667 q -0.672,-0.37333 -0.672,-1.568 0,-1.19466 0.672,-1.493329 0.74666,-0.373333 3.06133,-0.373333 2.31467,0 2.98667,0.373333 0.74666,0.298669 0.74666,1.493329 0,1.19467 -0.74666,1.568 -0.672,0.29867 -2.98667,0.29867 -2.31467,0 -3.06133,-0.29867 z m -18.368,0 q -0.97067,-0.29866 -0.97067,-1.568 0,-1.269329 0.97067,-1.567996 0.97066,-0.298666 4.62933,-0.298666 3.65867,0 4.62933,0.298666 0.97067,0.298667 0.97067,1.567996 0,1.26934 -0.97067,1.568 -0.97066,0.29867 -4.62933,0.29867 -3.65867,0 -4.62933,-0.29867 z m 7.69066,-7.466662 q -1.19466,-0.298667 -1.19466,-1.568 0,-1.269333 1.19466,-1.568 1.19467,-0.298667 6.272,-0.298667 5.07734,0 6.272,0.298667 1.19467,0.298667 1.19467,1.568 0,1.269333 -1.19467,1.568 -1.19466,0.298667 -6.272,0.298667 -5.07733,0 -6.272,-0.298667 z m -11.72266,0 q -0.672,-0.373333 -0.672,-1.568 0,-1.194667 0.672,-1.493333 0.74666,-0.373334 3.06133,-0.373334 2.31467,0 2.98667,0.373334 0.74666,0.298666 0.74666,1.493333 0,1.194667 -0.74666,1.568 -0.672,0.298667 -2.98667,0.298667 -2.31467,0 -3.06133,-0.298667 z"
     style="font-style:normal;font-variant:normal;font-weight:normal;font-stretch:normal;font-size:74.66666412px;font-family:'Glass TTY VT220';-inkscape-font-specification:'Glass TTY VT220';fill:#ff0000"
     id="path1002"
     inkscape:connector-curvature="0" /><path
     d="m 527.21762,123.616 q 0,-1.19466 1.12,-1.49333 1.41866,-0.37333 10.08,-0.37333 9.632,0 10.67733,0.672 0.52267,0.29866 0.52267,1.19466 0,1.19467 -1.12,1.49334 -1.41867,0.37333 -10.08,0.37333 -9.632,0 -10.67734,-0.672 -0.52266,-0.29867 -0.52266,-1.19467 z m -3.06134,-5.89866 q -0.672,-0.37334 -0.672,-1.568 0,-1.19467 0.672,-1.49334 0.74667,-0.37333 3.06134,-0.37333 2.31466,0 2.98666,0.37333 0.74667,0.29867 0.74667,1.49334 0,1.19466 -0.74667,1.568 -0.672,0.29866 -2.98666,0.29866 -2.31467,0 -3.06134,-0.29866 z m -0.672,-9.03467 q 0,-1.12 1.12,-1.41867 1.792,-0.448 13.81334,-0.448 12.91733,0 14.26133,0.672 0.672,0.29867 0.672,1.19467 0,1.12 -1.12,1.41867 -1.792,0.448 -13.81333,0.448 -12.91734,0 -14.26134,-0.672 -0.672,-0.29867 -0.672,-1.19467 z m 23.072,-5.89867 q -0.672,-0.37333 -0.672,-1.568 0,-1.19466 0.672,-1.493329 0.74667,-0.373333 3.06134,-0.373333 2.31466,0 2.98666,0.373333 0.74667,0.298669 0.74667,1.493329 0,1.19467 -0.74667,1.568 -0.672,0.29867 -2.98666,0.29867 -2.31467,0 -3.06134,-0.29867 z m -22.4,0 q -0.672,-0.37333 -0.672,-1.568 0,-1.19466 0.672,-1.493329 0.74667,-0.373333 3.06134,-0.373333 2.31466,0 2.98666,0.373333 0.74667,0.298669 0.74667,1.493329 0,1.19467 -0.74667,1.568 -0.672,0.29867 -2.98666,0.29867 -2.31467,0 -3.06134,-0.29867 z m 3.06134,-9.034662 q 0,-1.194667 1.12,-1.493333 1.41866,-0.373334 10.08,-0.373334 9.632,0 10.67733,0.672 0.52267,0.298667 0.52267,1.194667 0,1.194667 -1.12,1.493333 -1.41867,0.373334 -10.08,0.373334 -9.632,0 -10.67734,-0.672 -0.52266,-0.298667 -0.52266,-1.194667 z"
     style="font-style:normal;font-variant:normal;font-weight:normal;font-stretch:normal;font-size:74.66666412px;font-family:'Glass TTY VT220';-inkscape-font-specification:'Glass TTY VT220';fill:#ff0000"
     id="path1004"
     inkscape:connector-curvature="0" /></g>
</svg>