<?xml version="1.0" encoding="UTF-8" standalone="no"?>
<svg
   xmlns:dc="http://purl.org/dc/elements/1.1/"
   xmlns:cc="http://creativecommons.org/ns#"
   xmlns:rdf="http://www.w3.org/1999/02/22-rdf-syntax-ns#"
   xmlns:svg="http://www.w3.org/2000/svg"
   xmlns="http://www.w3.org/2000/svg"
   xmlns:sodipodi="http://sodipodi.sourceforge.net/DTD/sodipodi-0.dtd"
   xmlns:inkscape="http://www.inkscape.org/namespaces/inkscape"
   id="Layer_1"
   viewBox="0 0 242.4 29.6"
   width="2500"
   height="305"
   version="1.1"
   sodipodi:docname="system.svg"
   inkscape:version="0.92.3 (2405546, 2018-03-11)">
  <metadata
     id="metadata15">
    <rdf:RDF>
      <cc:Work
         rdf:about="">
        <dc:format>image/svg+xml</dc:format>
        <dc:type
           rdf:resource="http://purl.org/dc/dcmitype/StillImage" />
      </cc:Work>
    </rdf:RDF>
  </metadata>
  <defs
     id="defs13" />
  <sodipodi:namedview
     pagecolor="#ffffff"
     bordercolor="#666666"
     borderopacity="1"
     objecttolerance="10"
     gridtolerance="10"
     guidetolerance="10"
     inkscape:pageopacity="0"
     inkscape:pageshadow="2"
     inkscape:window-width="1657"
     inkscape:window-height="952"
     id="namedview11"
     showgrid="false"
     inkscape:zoom="0.41068762"
     inkscape:cx="1242.588"
     inkscape:cy="164.12607"
     inkscape:window-x="0"
     inkscape:window-y="0"
     inkscape:window-maximized="0"
     inkscape:current-layer="Layer_1" />
  <style
     id="style2">.st0{fill:#a09d9e}.st1{fill:#231f20}.st2{fill:#cf181f}</style>
  <g
     id="g828"
     transform="matrix(0.7,0,0,0.7,36.36,4.44)">
    <path
       sodipodi:nodetypes="ssssssssscsssssssc"
       style="fill:#a09d9e"
       inkscape:connector-curvature="0"
       id="path4"
       d="m 130.9,26.5 c 0,0.3 -0.3,0.6 -0.6,0.6 h -10.9 c -0.3,0 -0.6,-0.3 -0.6,-0.6 v -7.9 c 0,-0.3 0.3,-0.6 0.6,-0.6 h 10.9 c 0.3,0 0.6,0.3 0.6,0.6 z m -0.5,-10.9 h -11.1 c -1.6,0 -2.9,1.3 -2.9,2.9 v 7.9 c 0,1.6 1.3,2.9 2.9,2.9 h 11.1 c 1.6,0 2.9,-1.3 2.9,-2.9 v -7.9 c 0,-1.6 -1.3,-2.9 -2.9,-2.9"
       class="st0" />
    <path
       style="fill:#ffffff"
       id="path6"
       d="M 2.6,3.8 V 14 H 0 V 0.2 H 2.2 L 12.6,10.3 V 0.2 h 2.5 V 14 h -2 z m 25.7,0 V 14 H 25.7 V 0.2 h 2.2 L 38.3,10.3 V 0.2 h 2.5 V 14 h -2 z m 53.1,0 V 14 H 78.8 V 0.2 H 81 L 91.4,10.3 V 0.2 h 2.5 V 14 h -2 z M 21.2,0.2 h 0.5 V 14 H 19.1 V 0.2 Z m 37,0 h 0.5 V 2.6 H 52.5 V 14 H 49.8 V 2.6 H 43.6 V 0.2 Z m 16.3,0 H 75 V 2.6 H 64.1 v 3.1 h 8.5 v 2.4 h -8.5 v 3.6 H 75 v 2.4 H 61.5 V 0.3 h 13 z m 33.6,11.4 h -7.8 v -9 h 7.9 c 2.5,0 3.3,2.4 3.3,4.5 0,2.1 -0.9,4.5 -3.4,4.5 m 4.3,-9.4 c -1,-1.3 -2.5,-2 -4.3,-2 H 97.9 V 14 h 10.2 c 1.8,0 3.3,-0.7 4.3,-2 0.9,-1.2 1.4,-2.9 1.4,-4.9 0,-2 -0.5,-3.7 -1.4,-4.9 m 18.5,8.9 c 0,0.3 -0.3,0.6 -0.6,0.6 h -10.9 c -0.3,0 -0.6,-0.3 -0.6,-0.6 V 3.2 c 0,-0.3 0.3,-0.6 0.6,-0.6 h 10.9 c 0.3,0 0.6,0.3 0.6,0.6 z M 130.4,0.2 h -11.1 c -1.6,0 -2.9,1.3 -2.9,2.9 v 8 c 0,1.6 1.3,2.9 2.9,2.9 h 11.1 c 1.6,0 2.9,-1.3 2.9,-2.9 v -8 c 0,-1.6 -1.3,-2.9 -2.9,-2.9 m 83,23.5 c 2.6,1 8.2,1.9 12.6,1.9 4.8,0 6.8,-1.6 6.8,-3.7 0,-1.8 -1.8,-2.9 -7.1,-4.9 -7.1,-2.6 -12.2,-4.7 -12.2,-9.3 0,-4.8 6.2,-7.6 15.7,-7.6 5.1,0 6.8,0.3 10.1,0.9 V 5.6 C 236.1,5 233.3,4 228.9,4 c -4.7,0 -6.7,1.5 -6.7,3 0,2.2 3.1,3.3 8.5,5.2 7.5,2.7 11.7,4.8 11.7,9.3 0,4.7 -5.2,8 -17.1,8 -4.8,0 -8.2,-0.3 -11.9,-0.9 z M 188.3,4.1 h -5.6 v 21.3 h 5.6 c 8.6,0 14.1,-3.7 14.1,-10.6 0,-6.9 -5.4,-10.7 -14.1,-10.7 m 15.1,23.3 c -2.8,1.3 -8,2.1 -12.6,2.1 H 173.2 V 0.2 h 17.6 c 4.6,0 9.9,0.8 12.7,2.1 6.8,3.1 9,7.9 9,12.6 0,4.6 -2.2,9.5 -9,12.6"
       class="st1"
       inkscape:connector-curvature="0" />
    <path
       id="path8"
       d="m 160.8,13.4 c 0,0 8.2,-1.3 8.2,-6.4 0,-5 -8.7,-7 -18,-7 -8.4,0 -13.9,1 -13.9,1 v 4.5 c 3.8,-0.9 7.4,-1.7 12.4,-1.7 5.3,0 9.4,1.6 9.4,3.8 0,2.7 -4,4.3 -12.7,4.3 h -4 V 16 h 3.7 c 9.1,0 14.3,1.4 14.3,4.7 0,3 -4.6,4.8 -10.4,4.8 -5,0 -9.6,-1.1 -13.4,-2.1 v 4.9 c 1.8,0.3 6.6,1.3 15.4,1.3 9.8,0 18.4,-3.2 18.4,-8.7 0,-4.7 -5.9,-7.4 -9.4,-7.5"
       class="st2"
       inkscape:connector-curvature="0"
       style="fill:#cf181f" />
  </g>
</svg>
