<?xml version="1.0" encoding="UTF-8" standalone="no"?>
<!-- Created with Inkscape (http://www.inkscape.org/) -->

<svg
   xmlns:dc="http://purl.org/dc/elements/1.1/"
   xmlns:cc="http://creativecommons.org/ns#"
   xmlns:rdf="http://www.w3.org/1999/02/22-rdf-syntax-ns#"
   xmlns:svg="http://www.w3.org/2000/svg"
   xmlns="http://www.w3.org/2000/svg"
   xmlns:sodipodi="http://sodipodi.sourceforge.net/DTD/sodipodi-0.dtd"
   xmlns:inkscape="http://www.inkscape.org/namespaces/inkscape"
   version="1.1"
   id="svg2"
   xml:space="preserve"
   width="249.7906"
   height="39.059498"
   viewBox="0 0 249.79061 39.059498"
   sodipodi:docname="system.svg"
   inkscape:version="0.92.3 (2405546, 2018-03-11)"><metadata
     id="metadata8"><rdf:RDF><cc:Work
         rdf:about=""><dc:format>image/svg+xml</dc:format><dc:type
           rdf:resource="http://purl.org/dc/dcmitype/StillImage" /><dc:title></dc:title></cc:Work></rdf:RDF></metadata><defs
     id="defs6" /><sodipodi:namedview
     pagecolor="#ffffff"
     bordercolor="#666666"
     borderopacity="1"
     objecttolerance="10"
     gridtolerance="10"
     guidetolerance="10"
     inkscape:pageopacity="0"
     inkscape:pageshadow="2"
     inkscape:window-width="1867"
     inkscape:window-height="865"
     id="namedview4"
     showgrid="false"
     inkscape:zoom="3.6494847"
     inkscape:cx="98.691771"
     inkscape:cy="26.093339"
     inkscape:window-x="0"
     inkscape:window-y="0"
     inkscape:window-maximized="0"
     inkscape:current-layer="g10"
     fit-margin-top="0"
     fit-margin-left="0"
     fit-margin-right="0"
     fit-margin-bottom="0" /><g
     id="g10"
     inkscape:groupmode="layer"
     inkscape:label="ink_ext_XXXXXX"
     transform="matrix(1.3333333,0,0,-1.3333333,-3.7840615,148.14533)"><g
       id="g1166"><path
         d="m 139.646,83.2551 h 9.478 l 12.624,27.7609 h -9.477 L 139.646,83.2551"
         style="fill:#ed1c24;fill-opacity:1;fill-rule:evenodd;stroke:none;stroke-width:0.1"
         id="path16"
         inkscape:connector-curvature="0" /><path
         d="m 158.602,83.2551 h 9.477 l 12.625,27.7609 h -9.478 L 158.602,83.2551"
         style="fill:#00a650;fill-opacity:1;fill-rule:evenodd;stroke:none;stroke-width:0.1"
         id="path18"
         inkscape:connector-curvature="0" /><path
         d="m 149.124,83.2551 h 9.478 l 12.623,27.7609 h -9.477 L 149.124,83.2551"
         style="fill:#f47216;fill-opacity:1;fill-rule:evenodd;stroke:none;stroke-width:0.1"
         id="path20"
         inkscape:connector-curvature="0" /><path
         d="m 168.08,83.2551 h 9.477 l 12.624,27.7609 h -9.477 L 168.08,83.2551"
         style="fill:#00adef;fill-opacity:1;fill-rule:evenodd;stroke:none;stroke-width:0.1"
         id="path22"
         inkscape:connector-curvature="0" /><g
         style="fill:#ffffff"
         id="g1043"><path
           inkscape:connector-curvature="0"
           id="path24"
           style="fill:#ffffff;fill-opacity:1;fill-rule:evenodd;stroke:none;stroke-width:0.1"
           d="M 3.09453,106.5508 H 26.7305 v -4.0754 H 8.11875 c -0.43945,0 -0.42969,-1.2176 0,-1.2176 H 26.7305 V 91.968 H 3.09453 v 4.0133 H 21.5328 c 0.7027,0 0.7324,1.4207 0,1.4207 H 3.09453 v 9.1488" /><path
           inkscape:connector-curvature="0"
           id="path26"
           style="fill:#ffffff;fill-opacity:1;fill-rule:evenodd;stroke:none;stroke-width:0.1"
           d="M 82.0633,110.796 V 91.8738 h 4.5156 v 18.9222 h -4.5156" /><path
           inkscape:connector-curvature="0"
           id="path28"
           style="fill:#ffffff;fill-opacity:1;fill-rule:evenodd;stroke:none;stroke-width:0.1"
           d="M 111.791,106.5672 V 91.9844 h 4.515 v 14.5828 h -4.515" /><path
           inkscape:connector-curvature="0"
           id="path30"
           style="fill:#ffffff;fill-opacity:1;fill-rule:evenodd;stroke:none;stroke-width:0.1"
           d="m 111.791,111.109 h 4.515 v -3.8059 h -4.515 v 3.8059" /><path
           inkscape:connector-curvature="0"
           id="path32"
           style="fill:#ffffff;fill-opacity:1;fill-rule:evenodd;stroke:none;stroke-width:0.1"
           d="m 33.2586,91.968 v 14.5828 H 56.8508 V 91.968 h -4.7184 v 10.5074 H 38.0277 V 91.968 h -4.7691" /><path
           inkscape:connector-curvature="0"
           id="path34"
           style="fill:#ffffff;fill-opacity:1;fill-rule:evenodd;stroke:none;stroke-width:0.1"
           d="m 57.7047,106.5508 h 23.4402 v -4.0754 H 62.2711 V 95.9813 H 81.1449 V 91.968 H 57.7047 v 14.5828" /><path
           inkscape:connector-curvature="0"
           id="path36"
           style="fill:#ffffff;fill-opacity:1;fill-rule:evenodd;stroke:none;stroke-width:0.1"
           d="M 87.5711,106.5508 H 110.91 V 91.968 H 87.5711 v 9.2898 c 6.0742,0 12.1484,0 18.2219,0 0.478,0 0.486,1.2176 0,1.2176 H 87.5711 Z m 5.2273,-9.1488 c -0.8089,0 -0.741,-1.4207 0,-1.4207 h 12.7506 c 0.802,0 0.821,1.4207 0,1.4207 H 92.7984" /><path
           inkscape:connector-curvature="0"
           id="path38"
           style="fill:#ffffff;fill-opacity:1;fill-rule:evenodd;stroke:none;stroke-width:0.1"
           d="m 117.286,106.5508 h 22.932 v -4.0754 H 122.105 V 91.968 h -4.819 v 14.5828" /><path
           inkscape:connector-curvature="0"
           id="path40"
           style="fill:#ffffff;fill-opacity:1;fill-rule:evenodd;stroke:none;stroke-width:0.1"
           d="M 27.7371,106.5508 V 91.968 h 4.5152 v 14.5828 h -4.5152" /><path
           inkscape:connector-curvature="0"
           id="path42"
           style="fill:#ffffff;fill-opacity:1;fill-rule:evenodd;stroke:none;stroke-width:0.1"
           d="m 27.7371,111.092 h 4.5152 v -3.8053 h -4.5152 v 3.8053" /><path
           inkscape:connector-curvature="0"
           id="path44"
           style="fill:#ffffff;fill-opacity:1;fill-rule:evenodd;stroke:none;stroke-width:0.1"
           d="m 30.998,107.7629 c -0.0406,-0.0348 -0.0804,-0.0586 -0.1179,-0.0734 -0.0375,-0.0137 -0.077,-0.0211 -0.1203,-0.0211 -0.0719,0 -0.1262,0.0171 -0.1649,0.0523 -0.0211,0.0199 -0.0363,0.0422 -0.0457,0.0676 v -0.1055 h -0.1015 v 0.0824 c -0.0418,-0.0644 -0.1016,-0.0968 -0.1813,-0.0968 -0.0516,0 -0.0996,0.014 -0.1426,0.0433 -0.0433,0.0274 -0.0765,0.0672 -0.1,0.1188 -0.0117,0.0234 -0.0199,0.0492 -0.0261,0.0769 0.0011,-0.0754 0.0031,-0.1238 0.0066,-0.1465 0.0051,-0.0269 0.0141,-0.0531 0.0281,-0.0781 h -0.1152 c -0.0109,0.0235 -0.0184,0.05 -0.0219,0.0801 -0.0402,-0.0348 -0.0793,-0.0586 -0.1164,-0.0734 -0.0383,-0.0137 -0.0785,-0.0211 -0.1215,-0.0211 -0.0707,0 -0.1261,0.0171 -0.1644,0.0523 -0.0168,0.0156 -0.0293,0.0324 -0.0387,0.0512 -0.0109,-0.0149 -0.0238,-0.0278 -0.0383,-0.0399 -0.0476,-0.0425 -0.1074,-0.0636 -0.1785,-0.0636 -0.0891,0 -0.1594,0.0285 -0.2141,0.0875 -0.0402,0.0433 -0.066,0.1015 -0.0757,0.1746 v -0.2477 h -0.1098 v 0.4086 c 0,0.0434 -0.0035,0.0754 -0.0102,0.0945 -0.007,0.0196 -0.0203,0.034 -0.0386,0.0461 -0.0192,0.0118 -0.0414,0.0184 -0.0664,0.0184 -0.0454,0 -0.0836,-0.0156 -0.1137,-0.0461 -0.0293,-0.0301 -0.0449,-0.0785 -0.0449,-0.1453 v -0.3762 h -0.1098 v 0.4207 c 0,0.0492 -0.009,0.0852 -0.0262,0.1098 -0.0183,0.0242 -0.0465,0.0371 -0.0883,0.0371 -0.0304,0 -0.0585,-0.009 -0.0851,-0.0254 -0.0262,-0.0164 -0.0453,-0.0402 -0.0574,-0.0715 -0.0121,-0.0308 -0.0172,-0.0762 -0.0172,-0.1347 v -0.336 h -0.1094 v 0.6473 h 0.0969 v -0.091 c 0.0203,0.0324 0.0476,0.0582 0.082,0.0765 0.0332,0.0192 0.0719,0.0293 0.1149,0.0293 0.048,0 0.0875,-0.0101 0.1179,-0.0293 0.0301,-0.0203 0.0524,-0.048 0.0653,-0.0836 0.0511,0.0746 0.1175,0.1129 0.1992,0.1129 0.0648,0 0.114,-0.0183 0.148,-0.0535 0.0352,-0.0355 0.0528,-0.0894 0.0528,-0.1644 v -0.05 c 0.0054,0.0402 0.0156,0.0777 0.0296,0.1109 0.0231,0.0523 0.0594,0.0918 0.1059,0.1172 0.0477,0.0269 0.0992,0.0398 0.1543,0.0398 0.0711,0 0.1281,-0.0183 0.173,-0.0535 0.0274,-0.0219 0.0493,-0.0492 0.0645,-0.082 0.0082,0.0176 0.0172,0.0332 0.0277,0.0469 0.0231,0.0289 0.0551,0.0503 0.0973,0.0656 0.0426,0.0156 0.091,0.023 0.1457,0.023 0.0566,0 0.1008,-0.006 0.1359,-0.0191 0.0344,-0.0129 0.0598,-0.0297 0.0762,-0.05 0.0164,-0.0195 0.0277,-0.0438 0.034,-0.0738 0.0039,-0.018 0.0051,-0.0516 0.0055,-0.0981 0.0054,0.0274 0.0129,0.0535 0.0222,0.0781 0.0223,0.0528 0.0547,0.0934 0.0977,0.1207 0.043,0.0286 0.0914,0.0422 0.1441,0.0422 0.0391,0 0.0735,-0.008 0.1043,-0.0246 0.0301,-0.0168 0.0551,-0.0375 0.0746,-0.0644 v 0.3207 h 0.109 v -0.6618 c 0.0031,0.009 0.0067,0.0176 0.0106,0.0258 0.0144,0.0266 0.0332,0.0481 0.0566,0.0637 0.0238,0.0156 0.05,0.0273 0.0789,0.0352 0.0211,0.005 0.0543,0.0109 0.0973,0.0168 0.089,0.0101 0.1543,0.023 0.1961,0.0378 0,0.0149 4e-4,0.025 4e-4,0.0286 0,0.0449 -0.0106,0.0765 -0.0309,0.0949 -0.0285,0.0242 -0.0695,0.0363 -0.125,0.0363 -0.0516,0 -0.0891,-0.009 -0.1141,-0.0269 -0.0246,-0.0184 -0.0433,-0.0504 -0.055,-0.0961 l -0.1067,0.0144 c 0.009,0.0461 0.0258,0.0832 0.0485,0.111 0.0211,0.0289 0.0546,0.0503 0.0961,0.0656 0.0421,0.0156 0.0906,0.023 0.1464,0.023 0.0559,0 0.1004,-0.006 0.1356,-0.0191 0.0336,-0.0129 0.0594,-0.0297 0.0762,-0.05 0.0156,-0.0195 0.0277,-0.0438 0.0339,-0.0738 0.0039,-0.0184 0.0051,-0.0532 0.0051,-0.1012 v -0.1465 c 0,-0.102 0.0024,-0.166 0.0082,-0.1934 0.0012,-0.0113 0.0035,-0.0218 0.0074,-0.0324 v 0.6016 h 0.0981 v -0.091 c 0.0199,0.0324 0.0465,0.0582 0.0805,0.0765 0.0343,0.0192 0.0726,0.0293 0.1148,0.0293 0.0481,0 0.0871,-0.0101 0.118,-0.0293 0.0312,-0.0203 0.0523,-0.048 0.0648,-0.0836 0.052,0.0746 0.1176,0.1129 0.1996,0.1129 0.0645,0 0.1137,-0.0183 0.1496,-0.0535 0.0332,-0.0355 0.0508,-0.0894 0.0508,-0.1644 v -0.4442 h -0.1086 v 0.4086 c 0,0.0434 -0.0043,0.0754 -0.0109,0.0945 -0.007,0.0196 -0.0203,0.034 -0.0387,0.0461 -0.0195,0.0118 -0.0414,0.0184 -0.066,0.0184 -0.0457,0 -0.0836,-0.0156 -0.1129,-0.0461 -0.0305,-0.0301 -0.0453,-0.0785 -0.0453,-0.1453 v -0.3762 H 31.498 v 0.4207 c 0,0.0492 -0.0078,0.0852 -0.0265,0.1098 -0.0184,0.0242 -0.0469,0.0371 -0.0879,0.0371 -0.0305,0 -0.059,-0.009 -0.0848,-0.0254 -0.0269,-0.0164 -0.0457,-0.0402 -0.0578,-0.0715 -0.0113,-0.0308 -0.0176,-0.0762 -0.0176,-0.1347 v -0.336 h -0.0886 -0.02 -0.0949 c -0.0109,0.0235 -0.0199,0.05 -0.0219,0.0801 z m -0.8968,0.243 c 0,-0.0829 0.0172,-0.1446 0.0519,-0.186 0.0352,-0.041 0.0762,-0.0613 0.1231,-0.0613 0.048,0 0.0894,0.0187 0.1226,0.0582 0.034,0.0402 0.0504,0.1 0.0504,0.1797 0,0.0894 -0.0164,0.1543 -0.0519,0.1949 -0.0336,0.0422 -0.075,0.0625 -0.1258,0.0625 -0.0485,0 -0.0891,-0.0203 -0.1223,-0.059 -0.032,-0.0398 -0.048,-0.1023 -0.048,-0.189 z m -0.6547,-0.0918 c 0.0031,0.009 0.0066,0.0179 0.0109,0.0265 0.0149,0.0266 0.0332,0.0481 0.0559,0.0637 0.0242,0.0156 0.0508,0.0273 0.0805,0.0352 0.021,0.005 0.0531,0.0109 0.0972,0.0168 0.0883,0.0101 0.1535,0.023 0.1957,0.0378 0,0.0149 0,0.025 0,0.0286 0,0.0449 -0.0097,0.0765 -0.0312,0.0949 -0.0274,0.0242 -0.0696,0.0363 -0.125,0.0363 -0.0508,0 -0.0891,-0.009 -0.1137,-0.0269 -0.025,-0.0184 -0.0434,-0.0504 -0.0551,-0.0961 l -0.066,0.009 -0.1055,-0.0164 c -0.0109,0.0442 -0.0281,0.0766 -0.0539,0.0985 -0.0258,0.0219 -0.057,0.0328 -0.0937,0.0328 -0.0551,0 -0.1008,-0.0199 -0.1352,-0.0598 -0.034,-0.0394 -0.0515,-0.1019 -0.0515,-0.1871 0,-0.0875 0.0164,-0.1508 0.0504,-0.191 0.0328,-0.0395 0.0761,-0.0582 0.1296,-0.0582 0.0434,0 0.0793,0.0129 0.109,0.0394 0.0281,0.0266 0.0465,0.0665 0.0539,0.1223 z m 0.4402,0.0937 c -0.0402,-0.0164 -0.1,-0.0297 -0.1793,-0.0414 -0.0457,-0.006 -0.0769,-0.0144 -0.0965,-0.0223 -0.0179,-0.009 -0.0328,-0.0195 -0.0429,-0.0359 -0.0102,-0.0156 -0.0149,-0.032 -0.0149,-0.0512 0,-0.0293 0.011,-0.0535 0.0336,-0.0734 0.0215,-0.0195 0.0539,-0.0289 0.0969,-0.0289 0.0414,0 0.0797,0.008 0.1125,0.0273 0.0328,0.0188 0.0582,0.0438 0.0723,0.0754 0.0125,0.025 0.0183,0.0621 0.0183,0.1098 z m 1.102,0 c -0.0399,-0.0164 -0.0992,-0.0297 -0.1793,-0.0414 -0.0449,-0.006 -0.077,-0.0144 -0.0957,-0.0223 -0.0184,-0.009 -0.0328,-0.0195 -0.043,-0.0359 -0.0102,-0.0156 -0.0156,-0.032 -0.0156,-0.0512 0,-0.0293 0.0121,-0.0535 0.034,-0.0734 0.0218,-0.0195 0.0539,-0.0289 0.0964,-0.0289 0.0422,0 0.0797,0.008 0.1133,0.0273 0.0328,0.0188 0.0567,0.0438 0.0723,0.0754 0.0117,0.025 0.0176,0.0621 0.0176,0.1098 v 0.0406" /></g><g
         transform="matrix(0.35280001,0,0,-0.35280001,2.8380462,112.84843)"
         style="fill:#ffffff;fill-opacity:1;stroke:none;stroke-opacity:1"
         id="g25"><path
           style="fill:#ffffff;fill-opacity:1;stroke:none;stroke-opacity:1"
           id="path27"
           d="M 0,80.22 9.688,68.634 H 0.76 v -3.336 h 14.215 v 3.136 L 5.287,80.02 h 9.941 v 3.338 H 0 Z"
           inkscape:connector-curvature="0" /><path
           style="fill:#ffffff;fill-opacity:1;stroke:none;stroke-opacity:1"
           id="path29"
           d="m 21.985,73.897 -5.819,-8.601 h 4.604 l 3.542,5.768 3.668,-5.768 h 4.351 l -5.792,8.625 6.298,9.436 h -4.73 L 24.16,77.11 20.138,83.357 h -4.479 z"
           inkscape:connector-curvature="0" /><path
           style="fill:#ffffff;fill-opacity:1;stroke:none;stroke-opacity:1"
           id="path31"
           d="m 44.172,77.365 c 0,2.402 1.871,3.338 3.996,3.338 1.393,0 3.519,-0.404 3.519,-2.252 0,-1.947 -2.707,-2.275 -5.363,-2.984 -2.681,-0.709 -5.388,-1.745 -5.388,-5.137 0,-3.693 3.491,-5.463 6.754,-5.463 3.769,0 7.235,1.643 7.235,5.818 H 51.08 c -0.126,-2.176 -1.67,-2.73 -3.566,-2.73 -1.266,0 -2.732,0.531 -2.732,2.049 0,1.393 0.861,1.567 5.389,2.731 1.315,0.329 5.362,1.163 5.362,5.261 0,3.313 -2.605,5.793 -7.513,5.793 -3.997,0 -7.741,-1.974 -7.69,-6.424 z"
           inkscape:connector-curvature="0" /><path
           style="fill:#ffffff;fill-opacity:1;stroke:none;stroke-opacity:1"
           id="path33"
           d="m 57.503,70.281 h 3.416 v 1.67 h 0.052 c 0.858,-1.391 2.275,-2.023 3.895,-2.023 4.099,0 5.944,3.313 5.944,7.031 0,3.492 -1.922,6.754 -5.742,6.754 -1.569,0 -3.061,-0.684 -3.921,-1.973 h -0.051 v 6.225 h -3.593 z m 9.715,6.576 c 0,-2.074 -0.835,-4.225 -3.138,-4.225 -2.353,0 -3.11,2.101 -3.11,4.225 0,2.125 0.809,4.148 3.137,4.148 2.351,0 3.111,-2.022 3.111,-4.148 z"
           inkscape:connector-curvature="0" /><path
           style="fill:#ffffff;fill-opacity:1;stroke:none;stroke-opacity:1"
           id="path35"
           d="m 75.922,77.691 c 0.101,2.277 1.214,3.314 3.212,3.314 1.441,0 2.605,-0.885 2.833,-1.694 h 3.161 c -1.012,3.085 -3.161,4.399 -6.121,4.399 -4.124,0 -6.678,-2.832 -6.678,-6.881 0,-3.922 2.708,-6.906 6.678,-6.906 4.451,0 6.603,3.746 6.35,7.767 z m 5.842,-2.275 c -0.328,-1.822 -1.113,-2.781 -2.858,-2.781 -2.277,0 -2.935,1.769 -2.985,2.781 z"
           inkscape:connector-curvature="0" /><path
           style="fill:#ffffff;fill-opacity:1;stroke:none;stroke-opacity:1"
           id="path37"
           d="m 96.387,74.884 c -0.229,-1.467 -1.164,-2.25 -2.657,-2.25 -2.302,0 -3.062,2.326 -3.062,4.248 0,1.873 0.733,4.123 2.985,4.123 1.669,0 2.63,-1.062 2.858,-2.653 h 3.464 c -0.455,3.464 -2.858,5.36 -6.298,5.36 -3.946,0 -6.604,-2.781 -6.604,-6.703 0,-4.072 2.428,-7.084 6.678,-7.084 3.088,0 5.92,1.619 6.147,4.961 z"
           inkscape:connector-curvature="0" /><path
           style="fill:#ffffff;fill-opacity:1;stroke:none;stroke-opacity:1"
           id="path39"
           d="m 106.558,70.281 h 2.63 v 2.403 h -2.63 v 6.476 c 0,1.215 0.303,1.52 1.517,1.52 0.38,0 0.734,-0.025 1.113,-0.104 v 2.807 c -0.606,0.104 -1.391,0.129 -2.099,0.129 -2.201,0 -4.123,-0.508 -4.123,-3.112 v -7.714 h -2.177 v -2.404 h 2.177 V 66.36 h 3.592 z"
           inkscape:connector-curvature="0" /><path
           style="fill:#ffffff;fill-opacity:1;stroke:none;stroke-opacity:1"
           id="path41"
           d="m 110.909,70.281 h 3.415 v 2.43 h 0.051 c 0.657,-1.646 2.429,-2.783 4.175,-2.783 0.253,0 0.556,0.05 0.784,0.129 v 3.337 c -0.33,-0.075 -0.859,-0.126 -1.29,-0.126 -2.63,0 -3.542,1.896 -3.542,4.197 v 5.895 h -3.592 z"
           inkscape:connector-curvature="0" /><path
           style="fill:#ffffff;fill-opacity:1;stroke:none;stroke-opacity:1"
           id="path43"
           d="m 133.018,83.358 h -3.416 v -1.821 h -0.076 c -0.911,1.467 -2.479,2.176 -3.997,2.176 -3.82,0 -4.782,-2.148 -4.782,-5.387 v -8.045 h 3.594 v 7.387 c 0,2.149 0.632,3.213 2.301,3.213 1.949,0 2.783,-1.088 2.783,-3.744 v -6.855 h 3.592 z"
           inkscape:connector-curvature="0" /><path
           style="fill:#ffffff;fill-opacity:1;stroke:none;stroke-opacity:1"
           id="path45"
           d="m 135.852,70.281 h 3.391 v 1.771 h 0.05 c 0.937,-1.344 2.302,-2.127 3.997,-2.127 1.645,0 3.111,0.607 3.82,2.178 0.759,-1.141 2.125,-2.178 3.946,-2.178 2.783,0 4.782,1.289 4.782,4.681 v 8.752 h -3.593 v -7.412 c 0,-1.743 -0.15,-3.187 -2.2,-3.187 -2.024,0 -2.404,1.67 -2.404,3.313 v 7.286 h -3.592 v -7.335 c 0,-1.52 0.101,-3.264 -2.177,-3.264 -0.708,0 -2.428,0.455 -2.428,3.011 v 7.588 h -3.592 z"
           inkscape:connector-curvature="0" /></g></g></g></svg>