<?xml version="1.0" encoding="UTF-8" standalone="no"?>
<!-- Generator: Adobe Illustrator 13.0.0, SVG Export Plug-In . SVG Version: 6.00 Build 14948)  -->

<svg
   xmlns:ns="&amp;ns_sfw;"
   xmlns:dc="http://purl.org/dc/elements/1.1/"
   xmlns:cc="http://creativecommons.org/ns#"
   xmlns:rdf="http://www.w3.org/1999/02/22-rdf-syntax-ns#"
   xmlns:svg="http://www.w3.org/2000/svg"
   xmlns="http://www.w3.org/2000/svg"
   xmlns:sodipodi="http://sodipodi.sourceforge.net/DTD/sodipodi-0.dtd"
   xmlns:inkscape="http://www.inkscape.org/namespaces/inkscape"
   version="1.1"
   id="Ebene_1"
   x="0px"
   y="0px"
   width="290.5px"
   height="85.789px"
   viewBox="23.577 0 290.5 85.789"
   enable-background="new 23.577 0 290.5 85.789"
   xml:space="preserve"
   sodipodi:docname="system.svg"
   inkscape:version="0.92.3 (2405546, 2018-03-11)"><defs
   id="defs71" /><sodipodi:namedview
   pagecolor="#ffffff"
   bordercolor="#666666"
   borderopacity="1"
   objecttolerance="10"
   gridtolerance="10"
   guidetolerance="10"
   inkscape:pageopacity="0"
   inkscape:pageshadow="2"
   inkscape:window-width="1488"
   inkscape:window-height="816"
   id="namedview69"
   showgrid="false"
   inkscape:zoom="1.2495697"
   inkscape:cx="145.25"
   inkscape:cy="42.894501"
   inkscape:window-x="0"
   inkscape:window-y="0"
   inkscape:window-maximized="0"
   inkscape:current-layer="Ebene_1" />
<metadata
   id="metadata2">
	<ns:sfw>
		<ns:slices />
		<ns:sliceSourceBounds
   x="816.781"
   y="517.325"
   width="285.603"
   height="85.789"
   bottomLeftOrigin="true" />
	</ns:sfw>
<rdf:RDF><cc:Work
     rdf:about=""><dc:format>image/svg+xml</dc:format><dc:type
       rdf:resource="http://purl.org/dc/dcmitype/StillImage" /><dc:title></dc:title></cc:Work></rdf:RDF></metadata>
<g
   id="g26">
	<path
   fill="#D61616"
   d="M277.235,70.452H62.086c-19.423,0-35.228-15.804-35.228-35.228S42.665,0,62.086,0h215.146   c19.426,0,35.229,15.802,35.229,35.226C312.461,54.649,296.66,70.452,277.235,70.452z M62.086,8.333   c-14.829,0-26.895,12.063-26.895,26.895c0,14.828,12.064,26.895,26.895,26.895h215.146c14.826,0,26.896-12.065,26.896-26.895   c0-14.83-12.068-26.895-26.896-26.895H62.086z"
   id="path4" />
	<path
   fill="#D61616"
   d="M89.718,51.562V19.047H79.94v22.735L65.516,19.047H55.004v32.515h9.779V28.093l15.154,23.469H89.718z"
   id="path6" />
	<path
   fill="#D61616"
   d="M105.61,51.562V29.56h-9.778v22.002H105.61z"
   id="path8" />
	<path
   fill="#D61616"
   d="M105.61,24.914v-5.867h-9.778v5.867H105.61z"
   id="path10" />
	<path
   id="_x33_162"
   fill="#D61616"
   d="M139.834,51.562V36.403c0-3.178-6.112-7.577-9.289-7.577h-2.935   c-2.199,0-4.646,1.956-6.846,2.934V29.56h-9.778v22.002h9.778V36.403c0-1.467,3.422-3.178,4.891-3.178   c1.467,0,4.154,1.711,4.154,3.178v15.158L139.834,51.562L139.834,51.562z" />
	<path
   id="_x33_162_1_"
   fill="#D61616"
   d="M221.655,52.319V37.162c0-3.18-6.109-7.578-9.293-7.578h-2.932   c-2.201,0-4.646,1.956-6.849,2.933v-2.199h-9.776V52.32h9.776V37.162c0-1.467,3.425-3.18,4.892-3.18s4.154,1.713,4.154,3.18v15.156   H221.655z" />
	<path
   fill="#D61616"
   d="M155.725,51.562V29.56h5.135v-2.934h-5.135v-4.646h-10.021v4.646h-5.135v2.934h5.135v22.002H155.725z"
   id="path14" />
	<path
   fill="#D61616"
   d="M174.549,28.826c-7.823,0-14.423,5.378-14.423,11.979c0,6.846,6.6,12.223,14.423,12.223   c6.846,0,12.469-3.91,13.936-9.045h-10.021v2.935c0,2.444-1.709,3.18-3.91,3.18c-2.199,0-3.668-0.734-3.668-3.18v-6.111h18.094   C188.975,34.205,182.619,28.826,174.549,28.826z M174.549,31.026c2.201,0,3.912,1.468,3.912,3.912v2.199h-7.578v-2.199   C170.883,32.493,172.35,31.026,174.549,31.026z"
   id="path16" />
	<path
   fill="#D61616"
   d="M270.875,28.826c-8.07,0-14.427,5.378-14.427,11.979c0,6.846,6.354,12.223,14.427,12.223   c7.817,0,14.422-5.377,14.422-12.223C285.293,34.205,278.694,28.826,270.875,28.826z M270.875,31.026   c2.194,0,3.666,1.468,3.666,3.912v11.979c0,2.443-1.472,3.179-3.666,3.179c-2.445,0-3.914-0.734-3.914-3.179V34.938   C266.959,32.493,268.428,31.026,270.875,31.026z"
   id="path18" />
	<path
   fill="#D61616"
   d="M242.758,19.047v11.979c0,0-2.937-2.199-6.849-2.199c-6.11,0-11.244,5.378-11.244,11.246   c0,6.111,5.136,12.224,11.244,12.224c3.912,0,6.849-1.467,6.849-1.467v0.731h9.778V19.047H242.758z M239.09,32.493   c2.198,0,3.668,1.712,3.668,3.912v9.045c0,2.2-1.47,2.934-3.668,2.934c-2.443,0-3.912-0.732-3.912-2.934v-9.045   C235.178,34.205,236.647,32.493,239.09,32.493z"
   id="path20" />
	<g
   id="g24">
		<path
   fill="#D61616"
   d="M286.516,29.216c-2.773,0-5.035-2.258-5.035-5.035c0-2.959,2.213-5.28,5.035-5.28    c2.729,0,5.037,2.417,5.037,5.28C291.553,26.862,289.203,29.216,286.516,29.216z M286.516,19.683c-2.426,0-4.252,1.935-4.252,4.5    c0,2.344,1.908,4.254,4.252,4.254c2.229,0,4.254-2.027,4.254-4.254C290.77,21.784,288.787,19.683,286.516,19.683z M287.401,26.33    l-0.863-1.516h-1.096v1.321h-0.779V21.59h2.104c0.979,0,1.488,0.813,1.488,1.613c0,0.614-0.303,1.237-0.885,1.491l0.711,1.248    L287.401,26.33z M285.442,24.036h1.32c0.221,0,0.396-0.079,0.521-0.235c0.119-0.149,0.188-0.368,0.188-0.597    c0-0.312-0.15-0.832-0.709-0.832h-1.32V24.036L285.442,24.036z"
   id="path22" />
	</g>
</g>
<g
   id="g66"
   style="fill:#ffffff">
	<path
   d="m 48.071,85.789 h -9.103 c -2.601,0 -3.901,-1.301 -3.901,-3.901 v -7.803 h 13.004 v 2.602 H 37.667 v 1.95 H 48.07 v 2.601 H 37.667 v 0.65 c 0,0.867 0.434,1.301 1.301,1.301 h 9.103 z"
   id="path28"
   inkscape:connector-curvature="0"
   style="fill:#ffffff" />
	<path
   d="M 49.372,85.789 V 74.085 h 9.103 c 2.601,0 3.901,1.301 3.901,3.901 v 7.803 h -2.601 v -7.803 c 0,-0.866 -0.434,-1.3 -1.3,-1.3 h -6.502 v 9.103 z"
   id="path30"
   inkscape:connector-curvature="0"
   style="fill:#ffffff" />
	<path
   d="M 63.676,74.085 H 76.68 v 2.602 h -5.202 v 9.103 h -2.601 v -9.103 h -5.202 v -2.602 z"
   id="path32"
   inkscape:connector-curvature="0"
   style="fill:#ffffff" />
	<path
   d="m 90.984,85.789 h -9.103 c -2.601,0 -3.901,-1.301 -3.901,-3.901 v -7.803 h 13.004 v 2.602 H 80.581 v 1.95 h 10.403 v 2.601 H 80.581 v 0.65 c 0,0.867 0.434,1.301 1.301,1.301 h 9.103 v 2.6 z"
   id="path34"
   inkscape:connector-curvature="0"
   style="fill:#ffffff" />
	<path
   d="M 94.886,81.238 V 85.79 H 92.285 V 74.085 h 9.103 c 2.601,0 3.901,1.188 3.901,3.563 0,1.127 -0.187,1.955 -0.559,2.483 0.373,0.616 0.559,1.418 0.559,2.406 v 3.251 h -2.601 v -3.251 c 0,-0.867 -0.434,-1.301 -1.3,-1.301 h -6.502 z m 0,-2.601 h 7.803 v -1.95 h -7.803 z"
   id="path36"
   inkscape:connector-curvature="0"
   style="fill:#ffffff" />
	<path
   d="m 106.589,74.085 h 13.004 v 2.602 h -5.202 v 9.103 h -2.601 v -9.103 h -5.202 v -2.602 z"
   id="path38"
   inkscape:connector-curvature="0"
   style="fill:#ffffff" />
	<path
   d="m 123.495,82.538 v 3.251 h -2.601 v -7.803 c 0,-2.601 1.3,-3.901 3.901,-3.901 h 5.202 c 2.601,0 3.901,1.301 3.901,3.901 v 7.803 h -2.601 v -3.251 z m 7.802,-2.6 v -1.951 c 0,-0.866 -0.434,-1.3 -1.3,-1.3 h -5.202 c -0.867,0 -1.301,0.434 -1.301,1.3 v 1.951 z"
   id="path40"
   inkscape:connector-curvature="0"
   style="fill:#ffffff" />
	<path
   d="M 135.199,85.789 V 74.085 h 2.601 v 11.704 z"
   id="path42"
   inkscape:connector-curvature="0"
   style="fill:#ffffff" />
	<path
   d="M 139.1,85.789 V 74.085 h 9.103 c 2.601,0 3.901,1.301 3.901,3.901 v 7.803 h -2.601 v -7.803 c 0,-0.866 -0.434,-1.3 -1.3,-1.3 h -6.502 v 9.103 H 139.1 Z"
   id="path44"
   inkscape:connector-curvature="0"
   style="fill:#ffffff" />
	<path
   d="M 153.404,85.789 V 74.085 h 10.403 c 2.602,0 3.901,1.301 3.901,3.901 v 7.803 h -2.601 v -7.803 c 0,-0.866 -0.434,-1.3 -1.301,-1.3 h -1.95 v 9.103 h -2.601 v -9.103 h -3.251 v 9.103 z"
   id="path46"
   inkscape:connector-curvature="0"
   style="fill:#ffffff" />
	<path
   d="m 182.013,85.789 h -9.103 c -2.601,0 -3.901,-1.301 -3.901,-3.901 v -7.803 h 13.004 v 2.602 H 171.61 v 1.95 h 10.403 v 2.601 H 171.61 v 0.65 c 0,0.867 0.434,1.301 1.301,1.301 h 9.103 v 2.6 z"
   id="path48"
   inkscape:connector-curvature="0"
   style="fill:#ffffff" />
	<path
   d="M 183.314,85.789 V 74.085 h 9.103 c 2.602,0 3.901,1.301 3.901,3.901 v 7.803 h -2.601 v -7.803 c 0,-0.866 -0.434,-1.3 -1.301,-1.3 h -6.502 v 9.103 z"
   id="path50"
   inkscape:connector-curvature="0"
   style="fill:#ffffff" />
	<path
   d="m 197.619,74.085 h 13.004 v 2.602 h -5.201 v 9.103 h -2.602 v -9.103 h -5.201 z"
   id="path52"
   inkscape:connector-curvature="0"
   style="fill:#ffffff" />
	<path
   d="m 217.125,83.189 h 10.403 v -1.951 h -6.502 c -2.601,0 -3.901,-1.175 -3.901,-3.523 0,-2.419 1.301,-3.629 3.901,-3.629 h 9.103 v 2.602 h -10.403 v 1.95 h 6.502 c 2.602,0 3.901,1.192 3.901,3.576 0,2.384 -1.3,3.576 -3.901,3.576 h -9.103 z"
   id="path54"
   inkscape:connector-curvature="0"
   style="fill:#ffffff" />
	<path
   d="m 236.63,81.238 h -1.3 c -2.601,0 -3.901,-1.3 -3.901,-3.901 v -3.251 h 2.601 v 3.251 c 0,0.867 0.434,1.301 1.301,1.301 h 5.201 c 0.867,0 1.301,-0.434 1.301,-1.301 v -3.251 h 2.601 v 3.251 c 0,2.602 -1.3,3.901 -3.901,3.901 h -1.3 v 4.552 h -2.602 v -4.552 z"
   id="path56"
   inkscape:connector-curvature="0"
   style="fill:#ffffff" />
	<path
   d="m 245.734,83.189 h 10.403 v -1.951 h -6.502 c -2.601,0 -3.901,-1.175 -3.901,-3.523 0,-2.419 1.301,-3.629 3.901,-3.629 h 9.103 v 2.602 h -10.403 v 1.95 h 6.502 c 2.602,0 3.901,1.192 3.901,3.576 0,2.384 -1.3,3.576 -3.901,3.576 h -9.103 z"
   id="path58"
   inkscape:connector-curvature="0"
   style="fill:#ffffff" />
	<path
   d="m 260.039,74.085 h 13.004 v 2.602 h -5.201 v 9.103 h -2.602 v -9.103 h -5.201 z"
   id="path60"
   inkscape:connector-curvature="0"
   style="fill:#ffffff" />
	<path
   d="m 287.346,85.789 h -9.103 c -2.601,0 -3.901,-1.301 -3.901,-3.901 v -7.803 h 13.004 v 2.602 h -10.403 v 1.95 h 10.403 v 2.601 h -10.403 v 0.65 c 0,0.867 0.434,1.301 1.301,1.301 h 9.103 v 2.6 z"
   id="path62"
   inkscape:connector-curvature="0"
   style="fill:#ffffff" />
	<path
   d="M 288.647,85.789 V 74.085 h 10.403 c 2.601,0 3.901,1.301 3.901,3.901 v 7.803 h -2.601 v -7.803 c 0,-0.866 -0.434,-1.3 -1.301,-1.3 h -1.95 v 9.103 h -2.602 v -9.103 h -3.251 v 9.103 z"
   id="path64"
   inkscape:connector-curvature="0"
   style="fill:#ffffff" />
</g>
</svg>