<?xml version="1.0" encoding="UTF-8" standalone="no"?>
<svg
   xmlns:dc="http://purl.org/dc/elements/1.1/"
   xmlns:cc="http://creativecommons.org/ns#"
   xmlns:rdf="http://www.w3.org/1999/02/22-rdf-syntax-ns#"
   xmlns:svg="http://www.w3.org/2000/svg"
   xmlns="http://www.w3.org/2000/svg"
   xmlns:sodipodi="http://sodipodi.sourceforge.net/DTD/sodipodi-0.dtd"
   xmlns:inkscape="http://www.inkscape.org/namespaces/inkscape"
   id="Layer_1"
   viewBox="0 0 307.464 88.5"
   width="2300"
   height="662"
   version="1.1"
   sodipodi:docname="system.svg"
   inkscape:version="0.92.3 (2405546, 2018-03-11)">
  <metadata
     id="metadata31">
    <rdf:RDF>
      <cc:Work
         rdf:about="">
        <dc:format>image/svg+xml</dc:format>
        <dc:type
           rdf:resource="http://purl.org/dc/dcmitype/StillImage" />
        <dc:title></dc:title>
      </cc:Work>
    </rdf:RDF>
  </metadata>
  <defs
     id="defs29" />
  <sodipodi:namedview
     pagecolor="#ffffff"
     bordercolor="#666666"
     borderopacity="1"
     objecttolerance="10"
     gridtolerance="10"
     guidetolerance="10"
     inkscape:pageopacity="0"
     inkscape:pageshadow="2"
     inkscape:window-width="1920"
     inkscape:window-height="1015"
     id="namedview27"
     showgrid="false"
     inkscape:zoom="0.41068762"
     inkscape:cx="976.92188"
     inkscape:cy="236.42119"
     inkscape:window-x="0"
     inkscape:window-y="0"
     inkscape:window-maximized="1"
     inkscape:current-layer="Layer_1" />
  <style
     id="style2">.st0{display:none}.st1{display:inline}.st2{fill:#ed1c24}</style>
  <g
     class="st0"
     id="g6"
     style="display:none">
    <path
       class="st1"
       d="M 71.5,88.2 H 53 L 48.4,71.7 h -25 L 18.6,88.2 H 0 L 23.1,11.6 c 0.9,-3 2.4,-5.5 4.6,-7.6 2.1,-2.1 4.7,-3.2 7.7,-3.2 3.3,0 6.2,1.1 8.7,3.4 2.5,2.3 4.2,5.1 5.2,8.4 z M 43.4,55.7 36,18.3 27.8,55.7 Z M 119.1,18.5 H 102.9 V 88.2 H 84.7 V 18.5 H 68.3 V 2.1 h 50.8 z m 68.4,69.7 H 169 l -4.6,-16.5 h -25 l -4.8,16.5 H 116 l 23.1,-76.6 c 0.9,-3 2.4,-5.5 4.6,-7.6 2.1,-2.1 4.7,-3.2 7.7,-3.2 3.3,0 6.2,1.1 8.7,3.4 2.5,2.3 4.2,5.1 5.2,8.4 z M 159.4,55.7 152,18.3 143.8,55.7 Z m 93,32.5 h -21 L 213.7,54.3 c -0.8,-1.6 -1.5,-3.1 -2,-4.5 -0.5,-1.3 -0.8,-2.4 -0.8,-3.1 0,-3.8 2.9,-6.9 8.9,-9.3 5.9,-2.4 8.9,-5.5 8.9,-9.1 0,-2.2 -0.8,-4.4 -2.5,-6.6 -1.7,-2.1 -3.5,-3.2 -5.5,-3.2 H 210.3 V 88.2 H 192.7 V 13.8 c 0,-2.6 1.2,-5.2 3.6,-7.7 2.4,-2.5 4.8,-3.7 7.2,-3.7 H 221 c 6.8,0 12.8,2.5 17.9,7.4 5.1,5 7.7,10.7 7.7,17.2 0,5.2 -1.5,9.6 -4.4,13.2 -2.9,3.6 -7,6.6 -12.1,9 z m 25.1,0.3 H 259.2 V 2.4 h 18.3 z"
       id="path4"
       inkscape:connector-curvature="0"
       style="display:inline" />
  </g>
  <g
     class="st0"
     id="g12"
     style="display:none">
    <path
       class="st1"
       d="m 333.8,72.7 v 12.1 c 0,0.5 -0.3,1 -1,1.5 -0.7,0.4 -1.3,0.7 -2,0.7 -1.1,0 -2.5,-0.8 -4.1,-2.4 -1.7,-1.6 -3.4,-3.1 -5.1,-4.7 -1.7,-1.6 -3,-2.4 -4,-2.4 -0.5,0 -1,0.2 -1.5,0.7 -0.5,0.4 -0.7,1 -0.7,1.6 0,0.7 0.2,1.3 0.7,1.8 0.5,0.5 1.1,0.7 1.8,0.7 V 87 c -1.9,0 -3.6,-0.7 -5,-2.2 -1.4,-1.4 -2.1,-3.1 -2.1,-5.1 0,-1.9 0.7,-3.6 2.1,-4.9 1.4,-1.3 3.1,-2 4.9,-2 2,0 3.9,0.9 5.9,2.8 1.9,1.8 3.8,3.6 5.5,5.4 l 0.1,-8.1 h 4.5 z m -7.5,-18.6 c 2.2,0 4.1,0.8 5.6,2.5 1.5,1.6 2.3,3.6 2.3,5.9 0,2.1 -0.8,3.9 -2.5,5.3 -1.7,1.4 -3.6,2.1 -5.7,2.1 -0.8,0 -2.4,-0.5 -4.8,-1.6 -2.4,-1 -4.7,-2.1 -6.9,-3.3 -2.2,-1.1 -3.4,-1.7 -3.4,-1.8 v -5.3 l 8.3,4 c 0,-2.2 0.7,-4.1 2,-5.6 1.3,-1.5 3,-2.2 5.1,-2.2 z m 0.2,4.8 c -0.9,0 -1.6,0.3 -2.2,0.9 -0.6,0.6 -0.9,1.3 -0.9,2.1 0,0.8 0.3,1.5 1,2.1 0.7,0.6 1.4,0.9 2.1,0.9 0.9,0 1.7,-0.3 2.2,-0.8 0.5,-0.5 0.8,-1.3 0.8,-2.2 0,-0.9 -0.3,-1.7 -0.9,-2.2 -0.7,-0.6 -1.3,-0.8 -2.1,-0.8 z M 334,40.1 c 0,3.3 -1,6.1 -3.1,8.5 -2.1,2.4 -4.8,3.6 -8.2,3.6 -3.3,0 -6.2,-1.2 -8.5,-3.5 -2.3,-2.3 -3.5,-5.1 -3.5,-8.3 0,-3.1 1.2,-5.8 3.5,-8.2 2.3,-2.3 5,-3.5 8.1,-3.5 3,0 5.7,1.1 8.1,3.2 2.4,2.1 3.6,4.9 3.6,8.2 z m -11.7,-6.5 c -1.7,0 -3.3,0.7 -4.7,2 -1.4,1.3 -2.1,2.9 -2.1,4.7 0,2 0.7,3.7 2.2,5.1 1.5,1.4 3.1,2 5,2 2,0 3.6,-0.7 4.8,-2.1 1.3,-1.4 1.9,-3.1 1.9,-5 0,-1.9 -0.7,-3.5 -2,-4.8 -1.3,-1.2 -3,-1.9 -5.1,-1.9 z M 334,14.7 c 0,3.3 -1,6.1 -3.1,8.5 -2.1,2.4 -4.8,3.6 -8.2,3.6 -3.3,0 -6.2,-1.2 -8.5,-3.5 -2.3,-2.3 -3.5,-5.1 -3.5,-8.3 0,-3.1 1.2,-5.8 3.5,-8.2 2.3,-2.3 5,-3.5 8.1,-3.5 3,0 5.7,1.1 8.1,3.2 2.4,2.1 3.6,4.8 3.6,8.2 z M 322.3,8.1 c -1.7,0 -3.3,0.7 -4.7,2 -1.4,1.3 -2.1,2.9 -2.1,4.7 0,2 0.7,3.7 2.2,5.1 1.5,1.4 3.1,2 5,2 2,0 3.6,-0.7 4.8,-2.1 1.3,-1.4 1.9,-3.1 1.9,-5 0,-1.9 -0.7,-3.5 -2,-4.8 -1.3,-1.2 -3,-1.9 -5.1,-1.9 z"
       id="path10"
       inkscape:connector-curvature="0"
       style="display:inline" />
  </g>
  <g
     id="g831"
     transform="translate(14.705445)">
    <path
       id="path8"
       d="m 65.047032,79.41 h -14.8 l -3.68,-13.2 h -20 l -3.84,13.2 H 7.8470356 L 26.327032,18.13 c 0.72,-2.4 1.92,-4.4 3.68,-6.08 1.68,-1.68 3.76,-2.56 6.16,-2.56 2.64,0 4.96,0.88 6.96,2.72 2,1.84 3.36,4.08 4.16,6.72 z m -22.48,-26 -5.92,-29.92 -6.56,29.92 z M 103.12722,23.65 H 90.167146 V 79.41 H 75.607036 V 23.65 H 62.487032 V 10.53 h 40.640188 z m 54.72,55.76 h -14.8 l -3.68,-13.2 h -20 l -3.84,13.2 h -14.88 l 18.48,-61.28 c 0.72,-2.4 1.92,-4.4 3.68,-6.08 1.68,-1.68 3.76,-2.56 6.16,-2.56 2.64,0 4.96,0.88 6.96,2.72 2,1.84 3.36,4.08 4.16,6.72 z m -22.48,-26 -5.92,-29.92 -6.56,29.92 z m 74.4,26 h -16.8 l -14.16,-27.12 c -0.64,-1.28 -1.2,-2.48 -1.6,-3.6 -0.4,-1.04 -0.64,-1.92 -0.64,-2.48 0,-3.04 2.32,-5.52 7.12,-7.44 4.72,-1.92 7.12,-4.4 7.12,-7.28 0,-1.76 -0.64,-3.52 -2,-5.28 -1.36,-1.68 -2.8,-2.56 -4.4,-2.56 h -8.32 v 55.76 h -14.08 V 19.89 c 0,-2.08 0.96,-4.16 2.88,-6.16 1.92,-2 3.84,-2.96 5.76,-2.96 h 14 c 5.44,0 10.24,2 14.32,5.92 4.08,4 6.16,8.56 6.16,13.76 0,4.16 -1.2,7.68 -3.52,10.56 -2.32,2.88 -5.6,5.28 -9.68,7.2 z m 20.08,0.24 h -14.64 V 10.77 h 14.64 z"
       class="st2"
       inkscape:connector-curvature="0"
       style="fill:#942124;fill-opacity:1;stroke-width:0.80000001" />
    <g
       transform="matrix(0.8,0,0,0.8,7.8470356,8.85)"
       id="g20">
      <path
         inkscape:connector-curvature="0"
         id="path18"
         d="m 286,0 c 0.6,0 1.2,0.2 1.8,0.5 0.6,0.3 1,0.8 1.4,1.3 0.3,0.6 0.5,1.2 0.5,1.8 0,0.6 -0.2,1.2 -0.5,1.8 -0.3,0.6 -0.8,1 -1.3,1.4 -0.6,0.3 -1.2,0.5 -1.8,0.5 -0.6,0 -1.2,-0.2 -1.8,-0.5 -0.6,-0.3 -1,-0.8 -1.4,-1.4 -0.3,-0.6 -0.5,-1.2 -0.5,-1.8 0,-0.6 0.2,-1.2 0.5,-1.8 0.3,-0.6 0.8,-1 1.4,-1.3 C 284.8,0.2 285.4,0 286,0 Z m 0,0.6 c -0.5,0 -1,0.1 -1.5,0.4 -0.5,0.3 -0.9,0.6 -1.1,1.1 -0.3,0.5 -0.4,1 -0.4,1.5 0,0.5 0.1,1 0.4,1.5 0.3,0.5 0.6,0.9 1.1,1.1 0.5,0.3 1,0.4 1.5,0.4 0.5,0 1,-0.1 1.5,-0.4 0.5,-0.3 0.9,-0.6 1.1,-1.1 0.3,-0.5 0.4,-1 0.4,-1.5 0,-0.5 -0.1,-1 -0.4,-1.5 -0.3,-0.5 -0.7,-0.9 -1.1,-1.1 -0.4,-0.2 -1,-0.4 -1.5,-0.4 z m -1.6,5.1 v -4 h 1.3 c 0.5,0 0.8,0 1,0.1 0.2,0.1 0.4,0.2 0.5,0.4 0.1,0.2 0.2,0.4 0.2,0.6 0,0.3 -0.1,0.5 -0.3,0.7 -0.2,0.2 -0.5,0.3 -0.8,0.4 0.1,0.1 0.2,0.1 0.3,0.2 0.2,0.2 0.4,0.4 0.6,0.8 l 0.5,0.8 H 287 L 286.6,5 C 286.3,4.5 286.1,4.2 285.9,4.1 285.8,4 285.7,4 285.4,4 H 285 v 1.7 z m 0.7,-2.2 h 0.8 c 0.4,0 0.6,-0.1 0.8,-0.2 0.1,-0.1 0.2,-0.3 0.2,-0.4 0,-0.1 0,-0.2 -0.1,-0.3 -0.1,-0.1 -0.2,-0.2 -0.3,-0.2 -0.1,0 -0.3,-0.1 -0.6,-0.1 h -0.7 v 1.2 z" />
    </g>
    <g
       transform="matrix(0.8,0,0,0.8,10.52075,8.85)"
       id="g24">
      <path
         inkscape:connector-curvature="0"
         id="path22"
         d="M 322.3,6 V 2 h -1.5 V 1.3 h 3.9 V 2 H 323 v 4 z m 2.8,0 V 1.3 h 1.2 l 1.2,3.8 1.2,-3.8 h 1.1 V 6 h -0.7 V 2 l -1.2,4 h -0.7 l -1.3,-4 v 4 z" />
    </g>
    <text
       transform="matrix(0,-1.0023692,0.99763638,0,0,0)"
       id="text1041"
       y="264.98203"
       x="-80.939102"
       style="font-style:normal;font-variant:normal;font-weight:normal;font-stretch:normal;font-size:5.3601017px;line-height:1.25;font-family:'NES Cyrillic';-inkscape-font-specification:'NES Cyrillic';letter-spacing:0px;word-spacing:0px;fill:#9c2426;fill-opacity:1;stroke:none;stroke-width:0.13400254"
       xml:space="preserve"><tspan
         style="font-style:normal;font-variant:normal;font-weight:normal;font-stretch:normal;font-size:28.58720779px;font-family:'SF Atarian System Extended';-inkscape-font-specification:'SF Atarian System Extended';fill:#9c2426;fill-opacity:1;stroke-width:0.13400254"
         y="264.98203"
         x="-80.939102"
         id="tspan1039"
         sodipodi:role="line">7800</tspan></text>
  </g>
</svg>
