<?xml version="1.0" encoding="UTF-8" standalone="no"?>
<!-- Generator: Adobe Illustrator 16.0.3, SVG Export Plug-In . SVG Version: 6.00 Build 0)  -->

<svg
   xmlns:dc="http://purl.org/dc/elements/1.1/"
   xmlns:cc="http://creativecommons.org/ns#"
   xmlns:rdf="http://www.w3.org/1999/02/22-rdf-syntax-ns#"
   xmlns:svg="http://www.w3.org/2000/svg"
   xmlns="http://www.w3.org/2000/svg"
   xmlns:sodipodi="http://sodipodi.sourceforge.net/DTD/sodipodi-0.dtd"
   xmlns:inkscape="http://www.inkscape.org/namespaces/inkscape"
   version="1.1"
   id="Ebene_2"
   x="0px"
   y="0px"
   width="566.926px"
   height="179.318px"
   viewBox="0 0 566.926 179.318"
   enable-background="new 0 0 566.926 179.318"
   xml:space="preserve"
   sodipodi:docname="system.svg"
   inkscape:version="0.92.3 (2405546, 2018-03-11)"><metadata
   id="metadata43"><rdf:RDF><cc:Work
       rdf:about=""><dc:format>image/svg+xml</dc:format><dc:type
         rdf:resource="http://purl.org/dc/dcmitype/StillImage" /></cc:Work></rdf:RDF></metadata><defs
   id="defs41">
	
		<linearGradient
   gradientTransform="translate(-0.0898,-416.1621)"
   y2="513.92462"
   x2="478.70651"
   y1="416.1619"
   x1="478.70651"
   gradientUnits="userSpaceOnUse"
   id="SVGID_1_">
		<stop
   id="stop2"
   style="stop-color:#33438A"
   offset="0" />
		<stop
   id="stop4"
   style="stop-color:#0098DF"
   offset="1" />
	</linearGradient>
	
	
		<linearGradient
   gradientTransform="translate(-0.0898,-416.1621)"
   y2="513.92462"
   x2="270.46481"
   y1="416.1619"
   x1="270.46481"
   gradientUnits="userSpaceOnUse"
   id="SVGID_2_">
		<stop
   id="stop9"
   style="stop-color:#33438A"
   offset="0" />
		<stop
   id="stop11"
   style="stop-color:#0098DF"
   offset="1" />
	</linearGradient>
	
	
		<linearGradient
   gradientTransform="translate(-0.0898,-416.1621)"
   y2="513.92462"
   x2="88.399399"
   y1="416.1619"
   x1="88.399399"
   gradientUnits="userSpaceOnUse"
   id="SVGID_3_">
		<stop
   id="stop16"
   style="stop-color:#33438A"
   offset="0" />
		<stop
   id="stop18"
   style="stop-color:#0098DF"
   offset="1" />
	</linearGradient>
	
	
	
	
	
	
	
	
	
	
	
	
	
	
</defs><sodipodi:namedview
   pagecolor="#ffffff"
   bordercolor="#666666"
   borderopacity="1"
   objecttolerance="10"
   gridtolerance="10"
   guidetolerance="10"
   inkscape:pageopacity="0"
   inkscape:pageshadow="2"
   inkscape:window-width="1920"
   inkscape:window-height="1015"
   id="namedview39"
   showgrid="false"
   inkscape:zoom="0.64029518"
   inkscape:cx="-391.22581"
   inkscape:cy="89.658997"
   inkscape:window-x="0"
   inkscape:window-y="0"
   inkscape:window-maximized="1"
   inkscape:current-layer="Ebene_2" />
<g
   id="g891"
   transform="matrix(0.96,0,0,0.96,11.33852,3.56636)"><polygon
     points="397.297,52.375 566.926,52.375 566.926,0 390.307,0 390.307,6.986 559.93,6.986 559.93,45.387 390.307,45.387 390.307,97.762 566.926,97.762 566.926,90.777 397.297,90.777 "
     id="polygon7"
     style="fill:url(#SVGID_1_);stroke:#ffffff;stroke-width:2;stroke-miterlimit:4;stroke-dasharray:none;stroke-opacity:1" /><polygon
     points="266.713,0 364.131,0 364.131,6.986 274.038,6.986 274.038,97.762 176.62,97.762 176.62,90.777 266.713,90.777 "
     id="polygon14"
     style="fill:url(#SVGID_2_);stroke:#ffffff;stroke-width:2;stroke-miterlimit:4;stroke-dasharray:none;stroke-opacity:1" /><polygon
     points="169.639,45.387 0,45.387 0,97.762 6.986,97.762 6.986,52.375 176.62,52.375 176.62,0 0,0 0,6.873 169.639,6.986 "
     id="polygon21"
     style="fill:url(#SVGID_3_);stroke:#ffffff;stroke-width:2;stroke-miterlimit:4;stroke-dasharray:none;stroke-opacity:1" /><path
     id="path788"
     d="m 143.989,131.765 v 34.387 h 5.37 v -31.087 h 4.972 c 0,0 3.604,-0.015 4.842,1.604 1.046,1.375 1.238,3.858 1.238,5.541 0,1.803 -0.11,4.575 -0.717,5.594 -0.915,1.551 -2.41,1.859 -3.791,1.859 h -3.28 v 3.048 h 4.712 c 0,0 4.255,0.188 6.09,-1.676 2.243,-2.29 2.81,-5.348 2.81,-9.446 0,-3.736 -1.35,-7.494 -4.116,-8.763 -2.288,-1.063 -6.414,-1.063 -6.414,-1.063 z"
     inkscape:connector-curvature="0"
     style="fill:#ffffff" /><polygon
     id="polygon790"
     points="170.451,131.765 170.451,166.152 175.831,166.152 175.831,131.765 "
     style="fill:#ffffff" /><polygon
     id="polygon792"
     points="210.608,139.775 204.365,139.775 214.186,165.518 208.55,179.318 213.005,179.318 229.233,139.775 224.262,139.775 217.191,159.049 "
     style="fill:#ffffff" /><path
     id="path794"
     d="m 233.277,165.93 v -3.242 c 0,0 5.674,0.221 6.853,0.221 2.623,0 3.927,-0.563 4.909,-1.609 0.583,-0.627 1.111,-3.439 1.111,-4.433 0,-1.008 -0.187,-3.164 -0.579,-4.039 -0.404,-0.868 -1.316,-1.675 -2.692,-1.786 -0.973,-0.09 -2.494,-0.277 -4.253,-0.364 -2.478,-0.113 -4.115,-1.414 -4.91,-2.336 -0.776,-0.938 -1.827,-2.321 -1.827,-6.629 0,-4.286 1.11,-6.683 2.219,-7.805 1.118,-1.121 2.753,-1.612 3.999,-1.829 1.432,-0.254 3.791,-0.271 3.791,-0.271 l 7.516,0.225 v 3.245 c 0,0 -5.484,-0.211 -6.661,-0.211 -2.623,0 -3.408,0.552 -4.39,1.604 -0.574,0.634 -1.027,2.363 -1.027,3.368 0,0.988 0.117,3 0.506,3.868 0.392,0.875 1.312,1.676 2.679,1.799 0.975,0.073 2.495,0.271 4.256,0.357 2.49,0.124 4.124,1.407 4.908,2.344 0.784,0.935 1.836,2.898 1.836,7.187 0,4.289 -1.118,7.354 -2.229,8.458 -1.11,1.133 -2.74,1.626 -3.99,1.841 -1.44,0.261 -3.798,0.261 -3.798,0.261 z"
     inkscape:connector-curvature="0"
     style="fill:#ffffff" /><path
     id="path796"
     d="m 262.552,135.065 h -5.361 v 25.23 c 0,0 0.129,2.3 0.257,3.104 0.135,0.813 1.315,2.75 4.388,2.75 l 5.561,-0.12 v -3.237 c 0,0 -1.514,0.113 -2.418,0.113 -0.921,0 -2.041,-0.067 -2.229,-1.629 -0.199,-1.543 -0.199,-3.408 -0.199,-3.408 v -14.857 h 6.056 v -3.236 h -6.056 z"
     inkscape:connector-curvature="0"
     style="fill:#ffffff" /><polygon
     id="polygon798"
     points="314.328,139.775 314.328,166.152 319.696,166.152 319.696,139.775 "
     style="fill:#ffffff" /><polygon
     id="polygon800"
     points="314.328,131.765 314.328,136.551 319.696,136.551 319.696,131.765 "
     style="fill:#ffffff" /><path
     id="path802"
     d="m 336.653,139.557 c 3.65,0 6.482,0.821 8.005,2.052 1.535,1.236 3.418,3.829 3.418,11.353 0,7.524 -1.883,10.114 -3.418,11.363 -1.522,1.229 -4.354,2.049 -8.005,2.049 -3.658,0 -6.482,-0.82 -8.01,-2.049 -1.527,-1.249 -3.414,-3.839 -3.414,-11.363 0,-7.521 1.887,-10.114 3.414,-11.353 1.527,-1.229 4.352,-2.052 8.01,-2.052 z m -3.672,5.058 c -0.741,0.905 -1.637,2.824 -1.637,8.346 0,5.538 0.896,7.44 1.637,8.345 0.729,0.901 2.083,1.515 3.838,1.515 1.764,0 3.111,-0.611 3.859,-1.515 0.733,-0.902 1.636,-2.807 1.636,-8.345 0,-5.521 -0.901,-7.438 -1.636,-8.346 -0.748,-0.901 -2.097,-1.501 -3.859,-1.501 -1.755,0 -3.11,0.6 -3.838,1.501 z"
     inkscape:connector-curvature="0"
     style="fill:#ffffff" /><path
     id="path804"
     d="m 359.197,143.49 5.255,-0.225 c 1.385,0 2.997,0.373 3.778,1.361 0.737,0.941 1.198,2.056 1.198,3.858 v 17.626 h 5.371 v -18.065 c 0,-3.419 -1.049,-5.396 -2.627,-6.644 -2.254,-1.789 -6.279,-1.629 -6.279,-1.629 l -12.03,0.229 v 26.106 h 5.334 z"
     inkscape:connector-curvature="0"
     style="fill:#ffffff" /><path
     id="path806"
     d="m 303.66,135.065 h -5.374 v 25.23 c 0,0 0.127,2.3 0.26,3.104 0.131,0.813 1.303,2.75 4.381,2.75 l 5.566,-0.12 v -3.237 c 0,0 -1.509,0.113 -2.424,0.113 -0.907,0 -2.029,-0.067 -2.223,-1.629 -0.188,-1.543 -0.188,-3.408 -0.188,-3.408 v -14.857 h 6.042 v -3.236 h -6.041 v -4.71 z"
     inkscape:connector-curvature="0"
     style="fill:#ffffff" /><path
     id="path808"
     d="m 196.182,148.487 c 0,-1.803 -0.46,-2.917 -1.194,-3.858 -0.787,-0.988 -2.407,-1.359 -3.784,-1.359 l -7.079,0.223 v -3.486 l 8.522,-0.229 c 0,0 4.03,-0.16 6.284,1.629 1.565,1.245 2.621,3.225 2.621,6.644 v 17.813 l -10.288,0.221 c 0,0 -4.662,0.023 -7.001,-0.935 -2.29,-0.93 -3.537,-3.485 -3.537,-7.021 0,-3.415 1.052,-5.411 2.622,-6.659 2.255,-1.783 6.275,-1.61 6.275,-1.61 h 3.288 v 3.048 h -1.844 c -1.375,0 -2.795,0.253 -3.577,1.236 -0.744,0.944 -1.136,1.749 -1.136,3.55 0,2.362 0.46,3.422 1.572,4.227 0.981,0.714 2.741,0.87 4.71,0.87 l 3.546,-0.22 z"
     inkscape:connector-curvature="0"
     style="fill:#ffffff" /><path
     id="path810"
     d="m 286.663,148.487 c 0,-1.803 -0.453,-2.917 -1.188,-3.858 -0.793,-0.988 -2.409,-1.359 -3.782,-1.359 l -7.072,0.223 v -3.486 l 8.505,-0.229 c 0,0 4.032,-0.16 6.285,1.629 1.571,1.245 2.614,3.225 2.614,6.644 v 17.813 l -10.272,0.221 c 0,0 -4.664,0.023 -7.013,-0.935 -2.28,-0.93 -3.534,-3.485 -3.534,-7.021 0,-3.415 1.058,-5.411 2.619,-6.659 2.257,-1.783 6.288,-1.61 6.288,-1.61 h 3.278 v 3.048 h -1.843 c -1.367,0 -2.801,0.253 -3.58,1.236 -0.734,0.944 -1.135,1.749 -1.135,3.55 0,2.362 0.471,3.422 1.572,4.227 0.981,0.714 2.749,0.87 4.713,0.87 l 3.545,-0.22 z"
     inkscape:connector-curvature="0"
     style="fill:#ffffff" /><path
     id="path816"
     d="m 422.934,136.211 c 0.068,3.962 -0.125,6.048 -1.457,8.031 -1.174,1.742 -3.498,3.331 -8.635,3.331 l -6.373,-0.189 c -1.008,0.019 -3.607,0.313 -4.84,1.632 -1.055,1.14 -1.138,1.993 -1.244,5.026 v 8.896 h 21.66 v 4.357 h -23.678 l -1.138,-0.007 c -1.609,0 -3.191,-1.092 -3.191,-3.277 v -6.636 c 0.113,-7.752 0.667,-8.863 2.351,-10.897 1.168,-1.405 3.912,-2.979 7.24,-3.146 0.656,-0.029 1.885,-0.113 3.614,-0.066 1.259,0.056 2.519,0.092 3.071,0.102 2.951,0.03 4.025,-0.514 4.833,-1.571 0.921,-1.188 1.416,-2.595 1.416,-4.896 0,-2.156 -0.44,-4.188 -1.263,-5.131 -0.994,-1.093 -1.948,-1.822 -4.717,-1.822 -7.007,-0.019 -15.182,0.167 -15.182,0.167 v -4.116 c 0,0 7.99,-0.34 16.139,-0.46 5.074,-0.087 7.872,1.262 9.295,3.118 1.503,1.932 2.032,3.761 2.099,7.554 z"
     inkscape:connector-curvature="0"
     style="fill:#ffffff" /></g>
<g
   transform="matrix(0.68812796,0,0,0.68812796,-89.727005,43.416698)"
   aria-label="Arcade"
   style="font-style:normal;font-variant:normal;font-weight:normal;font-stretch:normal;font-size:37.5px;line-height:1.25;font-family:'Glass TTY VT220';-inkscape-font-specification:'Glass TTY VT220';letter-spacing:0px;word-spacing:0px;fill:#000000;fill-opacity:1;stroke:none;stroke-width:0.9375"
   id="text916"><path
     d="m 437.87414,124.96826 q -0.63,-0.35 -0.63,-1.47 0,-1.12 0.63,-1.4 0.7,-0.35 2.87,-0.35 2.17,0 2.8,0.35 0.7,0.28 0.7,1.4 0,1.12 -0.7,1.47 -0.63,0.28 -2.8,0.28 -2.17,0 -2.87,-0.28 z m -21,0 q -0.63,-0.35 -0.63,-1.47 0,-1.12 0.63,-1.4 0.7,-0.35 2.87,-0.35 2.17,0 2.8,0.35 0.7,0.28 0.7,1.4 0,1.12 -0.7,1.47 -0.63,0.28 -2.8,0.28 -2.17,0 -2.87,-0.28 z m 21,-7 q -0.63,-0.35 -0.63,-1.47 0,-1.12 0.63,-1.4 0.7,-0.35 2.87,-0.35 2.17,0 2.8,0.35 0.7,0.28 0.7,1.4 0,1.12 -0.7,1.47 -0.63,0.28 -2.8,0.28 -2.17,0 -2.87,-0.28 z m -21,0 q -0.63,-0.35 -0.63,-1.47 0,-1.12 0.63,-1.4 0.7,-0.35 2.87,-0.35 2.17,0 2.8,0.35 0.7,0.28 0.7,1.4 0,1.12 -0.7,1.47 -0.63,0.28 -2.8,0.28 -2.17,0 -2.87,-0.28 z m -0.63,-8.47 q 0,-1.05 1.05,-1.33 1.68,-0.42 12.95,-0.42 12.11,0 13.37,0.63 0.63,0.28 0.63,1.12 0,1.05 -1.05,1.33 -1.68,0.42 -12.95,0.42 -12.11,0 -13.37,-0.63 -0.63,-0.28 -0.63,-1.12 z m 21.63,-5.53 q -0.63,-0.35 -0.63,-1.47 0,-1.12 0.63,-1.4 0.7,-0.35 2.87,-0.35 2.17,0 2.8,0.35 0.7,0.28 0.7,1.4 0,1.12 -0.7,1.47 -0.63,0.28 -2.8,0.28 -2.17,0 -2.87,-0.28 z m -21,0 q -0.63,-0.35 -0.63,-1.47 0,-1.12 0.63,-1.4 0.7,-0.35 2.87,-0.35 2.17,0 2.8,0.35 0.7,0.28 0.7,1.4 0,1.12 -0.7,1.47 -0.63,0.28 -2.8,0.28 -2.17,0 -2.87,-0.28 z m 17.5,-7 q -0.63,-0.35 -0.63,-1.47 0,-1.12 0.63,-1.4 0.7,-0.35 2.87,-0.35 2.17,0 2.8,0.35 0.7,0.28 0.7,1.4 0,1.12 -0.7,1.47 -0.63,0.28 -2.8,0.28 -2.17,0 -2.87,-0.28 z m -14,0 q -0.63,-0.35 -0.63,-1.47 0,-1.12 0.63,-1.4 0.7,-0.35 2.87,-0.35 2.17,0 2.8,0.35 0.7,0.28 0.7,1.4 0,1.12 -0.7,1.47 -0.63,0.28 -2.8,0.28 -2.17,0 -2.87,-0.28 z m 3.99,-7 q -1.12,-0.28 -1.12,-1.47 0,-1.19 1.12,-1.47 1.12,-0.28 5.88,-0.28 4.76,0 5.88,0.28 1.12,0.28 1.12,1.47 0,1.19 -1.12,1.47 -1.12,0.28 -5.88,0.28 -4.76,0 -5.88,-0.28 z m 3.01,-7 q -0.63,-0.35 -0.63,-1.47 0,-1.12 0.63,-1.4 0.7,-0.35 2.87,-0.35 2.17,0 2.8,0.35 0.7,0.28 0.7,1.4 0,1.12 -0.7,1.47 -0.63,0.28 -2.8,0.28 -2.17,0 -2.87,-0.28 z"
     style="font-size:70px;fill:#ff0000;stroke-width:0.9375"
     id="path1555"
     inkscape:connector-curvature="0" /><path
     d="m 455.37414,124.96826 q -0.63,-0.35 -0.63,-1.47 0,-1.12 0.63,-1.4 0.7,-0.35 2.87,-0.35 2.17,0 2.8,0.35 0.7,0.28 0.7,1.4 0,1.12 -0.7,1.47 -0.63,0.28 -2.8,0.28 -2.17,0 -2.87,-0.28 z m 0,-7 q -0.63,-0.35 -0.63,-1.47 0,-1.12 0.63,-1.4 0.7,-0.35 2.87,-0.35 2.17,0 2.8,0.35 0.7,0.28 0.7,1.4 0,1.12 -0.7,1.47 -0.63,0.28 -2.8,0.28 -2.17,0 -2.87,-0.28 z m 0,-7 q -0.63,-0.35 -0.63,-1.47 0,-1.12 0.63,-1.4 0.7,-0.35 2.87,-0.35 2.17,0 2.8,0.35 0.7,0.28 0.7,1.4 0,1.12 -0.7,1.47 -0.63,0.28 -2.8,0.28 -2.17,0 -2.87,-0.28 z m 17.5,-7 q -0.63,-0.35 -0.63,-1.47 0,-1.12 0.63,-1.4 0.7,-0.35 2.87,-0.35 2.17,0 2.8,0.35 0.7,0.28 0.7,1.4 0,1.12 -0.7,1.47 -0.63,0.28 -2.8,0.28 -2.17,0 -2.87,-0.28 z m -17.22,0 q -0.91,-0.28 -0.91,-1.47 0,-1.19 0.91,-1.47 0.91,-0.28 4.34,-0.28 3.43,0 4.34,0.28 0.91,0.28 0.91,1.47 0,1.19 -0.91,1.47 -0.91,0.28 -4.34,0.28 -3.43,0 -4.34,-0.28 z m 7.21,-7 q -1.12,-0.28 -1.12,-1.47 0,-1.19 1.12,-1.47 1.12,-0.28 5.88,-0.28 4.76,0 5.88,0.28 1.12,0.28 1.12,1.47 0,1.19 -1.12,1.47 -1.12,0.28 -5.88,0.28 -4.76,0 -5.88,-0.28 z m -10.99,0 q -0.63,-0.35 -0.63,-1.47 0,-1.12 0.63,-1.4 0.7,-0.35 2.87,-0.35 2.17,0 2.8,0.35 0.7,0.28 0.7,1.4 0,1.12 -0.7,1.47 -0.63,0.28 -2.8,0.28 -2.17,0 -2.87,-0.28 z"
     style="font-size:70px;fill:#ff0000;stroke-width:0.9375"
     id="path1557"
     inkscape:connector-curvature="0" /><path
     d="m 489.74414,123.49826 q 0,-1.05 1.05,-1.33 1.54,-0.42 11.2,-0.42 10.57,0 11.69,0.63 0.56,0.28 0.56,1.12 0,1.05 -1.05,1.33 -1.54,0.42 -11.2,0.42 -10.57,0 -11.69,-0.63 -0.56,-0.28 -0.56,-1.12 z m -2.87,-5.53 q -0.63,-0.35 -0.63,-1.47 0,-1.12 0.63,-1.4 0.7,-0.35 2.87,-0.35 2.17,0 2.8,0.35 0.7,0.28 0.7,1.4 0,1.12 -0.7,1.47 -0.63,0.28 -2.8,0.28 -2.17,0 -2.87,-0.28 z m 0,-7 q -0.63,-0.35 -0.63,-1.47 0,-1.12 0.63,-1.4 0.7,-0.35 2.87,-0.35 2.17,0 2.8,0.35 0.7,0.28 0.7,1.4 0,1.12 -0.7,1.47 -0.63,0.28 -2.8,0.28 -2.17,0 -2.87,-0.28 z m 21,-7 q -0.63,-0.35 -0.63,-1.47 0,-1.12 0.63,-1.4 0.7,-0.35 2.87,-0.35 2.17,0 2.8,0.35 0.7,0.28 0.7,1.4 0,1.12 -0.7,1.47 -0.63,0.28 -2.8,0.28 -2.17,0 -2.87,-0.28 z m -21,0 q -0.63,-0.35 -0.63,-1.47 0,-1.12 0.63,-1.4 0.7,-0.35 2.87,-0.35 2.17,0 2.8,0.35 0.7,0.28 0.7,1.4 0,1.12 -0.7,1.47 -0.63,0.28 -2.8,0.28 -2.17,0 -2.87,-0.28 z m 2.87,-8.47 q 0,-1.12 1.05,-1.4 1.33,-0.35 9.45,-0.35 9.03,0 10.01,0.63 0.49,0.28 0.49,1.12 0,1.12 -1.05,1.4 -1.33,0.35 -9.45,0.35 -9.03,0 -10.01,-0.63 -0.49,-0.28 -0.49,-1.12 z"
     style="font-size:70px;fill:#ff0000;stroke-width:0.9375"
     id="path1559"
     inkscape:connector-curvature="0" /><path
     d="m 524.74414,123.49826 q 0,-1.05 1.05,-1.33 1.54,-0.42 11.2,-0.42 10.57,0 11.69,0.63 0.56,0.28 0.56,1.12 0,1.05 -1.05,1.33 -1.54,0.42 -11.2,0.42 -10.57,0 -11.69,-0.63 -0.56,-0.28 -0.56,-1.12 z m 14.91,-5.53 q -0.91,-0.28 -0.91,-1.47 0,-1.19 0.91,-1.47 0.91,-0.28 4.34,-0.28 3.5,0 4.34,0.28 0.91,0.28 0.91,1.47 0,1.19 -0.91,1.47 -0.84,0.28 -4.34,0.28 -3.43,0 -4.34,-0.28 z m -17.78,0 q -0.63,-0.35 -0.63,-1.47 0,-1.12 0.63,-1.4 0.7,-0.35 2.87,-0.35 2.17,0 2.8,0.35 0.7,0.28 0.7,1.4 0,1.12 -0.7,1.47 -0.63,0.28 -2.8,0.28 -2.17,0 -2.87,-0.28 z m 2.87,-8.47 q 0,-1.05 1.05,-1.33 1.54,-0.42 11.2,-0.42 10.57,0 11.69,0.63 0.56,0.28 0.56,1.12 0,1.05 -1.05,1.33 -1.54,0.42 -11.2,0.42 -10.57,0 -11.69,-0.63 -0.56,-0.28 -0.56,-1.12 z m 18.13,-5.53 q -0.63,-0.35 -0.63,-1.47 0,-1.12 0.63,-1.4 0.7,-0.35 2.87,-0.35 2.17,0 2.8,0.35 0.7,0.28 0.7,1.4 0,1.12 -0.7,1.47 -0.63,0.28 -2.8,0.28 -2.17,0 -2.87,-0.28 z m -18.13,-8.47 q 0,-1.12 1.05,-1.4 1.33,-0.35 9.45,-0.35 9.03,0 10.01,0.63 0.49,0.28 0.49,1.12 0,1.12 -1.05,1.4 -1.33,0.35 -9.45,0.35 -9.03,0 -10.01,-0.63 -0.49,-0.28 -0.49,-1.12 z"
     style="font-size:70px;fill:#ff0000;stroke-width:0.9375"
     id="path1561"
     inkscape:connector-curvature="0" /><path
     d="m 559.74414,123.49826 q 0,-1.05 1.05,-1.33 1.54,-0.42 11.2,-0.42 10.57,0 11.69,0.63 0.56,0.28 0.56,1.12 0,1.05 -1.05,1.33 -1.54,0.42 -11.2,0.42 -10.57,0 -11.69,-0.63 -0.56,-0.28 -0.56,-1.12 z m 14.91,-5.53 q -0.91,-0.28 -0.91,-1.47 0,-1.19 0.91,-1.47 0.91,-0.28 4.34,-0.28 3.5,0 4.34,0.28 0.91,0.28 0.91,1.47 0,1.19 -0.91,1.47 -0.84,0.28 -4.34,0.28 -3.43,0 -4.34,-0.28 z m -17.78,0 q -0.63,-0.35 -0.63,-1.47 0,-1.12 0.63,-1.4 0.7,-0.35 2.87,-0.35 2.17,0 2.8,0.35 0.7,0.28 0.7,1.4 0,1.12 -0.7,1.47 -0.63,0.28 -2.8,0.28 -2.17,0 -2.87,-0.28 z m 21,-7 q -0.63,-0.35 -0.63,-1.47 0,-1.12 0.63,-1.4 0.7,-0.35 2.87,-0.35 2.17,0 2.8,0.35 0.7,0.28 0.7,1.4 0,1.12 -0.7,1.47 -0.63,0.28 -2.8,0.28 -2.17,0 -2.87,-0.28 z m -21,0 q -0.63,-0.35 -0.63,-1.47 0,-1.12 0.63,-1.4 0.7,-0.35 2.87,-0.35 2.17,0 2.8,0.35 0.7,0.28 0.7,1.4 0,1.12 -0.7,1.47 -0.63,0.28 -2.8,0.28 -2.17,0 -2.87,-0.28 z m 17.78,-7 q -0.91,-0.28 -0.91,-1.47 0,-1.19 0.91,-1.47 0.91,-0.28 4.34,-0.28 3.5,0 4.34,0.28 0.91,0.28 0.91,1.47 0,1.19 -0.91,1.47 -0.84,0.28 -4.34,0.28 -3.43,0 -4.34,-0.28 z m -17.78,0 q -0.63,-0.35 -0.63,-1.47 0,-1.12 0.63,-1.4 0.7,-0.35 2.87,-0.35 2.17,0 2.8,0.35 0.7,0.28 0.7,1.4 0,1.12 -0.7,1.47 -0.63,0.28 -2.8,0.28 -2.17,0 -2.87,-0.28 z m 2.87,-8.47 q 0,-1.05 1.05,-1.33 1.54,-0.42 11.2,-0.42 10.57,0 11.69,0.63 0.56,0.28 0.56,1.12 0,1.05 -1.05,1.33 -1.54,0.42 -11.2,0.42 -10.57,0 -11.69,-0.63 -0.56,-0.28 -0.56,-1.12 z m 18.13,-5.53 q -0.63,-0.35 -0.63,-1.47 0,-1.12 0.63,-1.4 0.7,-0.35 2.87,-0.35 2.17,0 2.8,0.35 0.7,0.28 0.7,1.4 0,1.12 -0.7,1.47 -0.63,0.28 -2.8,0.28 -2.17,0 -2.87,-0.28 z m 0,-7 q -0.63,-0.35 -0.63,-1.47 0,-1.12 0.63,-1.4 0.7,-0.35 2.87,-0.35 2.17,0 2.8,0.35 0.7,0.28 0.7,1.4 0,1.12 -0.7,1.47 -0.63,0.28 -2.8,0.28 -2.17,0 -2.87,-0.28 z"
     style="font-size:70px;fill:#ff0000;stroke-width:0.9375"
     id="path1563"
     inkscape:connector-curvature="0" /><path
     d="m 594.74414,123.49826 q 0,-1.12 1.05,-1.4 1.33,-0.35 9.45,-0.35 9.03,0 10.01,0.63 0.49,0.28 0.49,1.12 0,1.12 -1.05,1.4 -1.33,0.35 -9.45,0.35 -9.03,0 -10.01,-0.63 -0.49,-0.28 -0.49,-1.12 z m -2.87,-5.53 q -0.63,-0.35 -0.63,-1.47 0,-1.12 0.63,-1.4 0.7,-0.35 2.87,-0.35 2.17,0 2.8,0.35 0.7,0.28 0.7,1.4 0,1.12 -0.7,1.47 -0.63,0.28 -2.8,0.28 -2.17,0 -2.87,-0.28 z m -0.63,-8.47 q 0,-1.05 1.05,-1.33 1.68,-0.42 12.95,-0.42 12.11,0 13.37,0.63 0.63,0.28 0.63,1.12 0,1.05 -1.05,1.33 -1.68,0.42 -12.95,0.42 -12.11,0 -13.37,-0.63 -0.63,-0.28 -0.63,-1.12 z m 21.63,-5.53 q -0.63,-0.35 -0.63,-1.47 0,-1.12 0.63,-1.4 0.7,-0.35 2.87,-0.35 2.17,0 2.8,0.35 0.7,0.28 0.7,1.4 0,1.12 -0.7,1.47 -0.63,0.28 -2.8,0.28 -2.17,0 -2.87,-0.28 z m -21,0 q -0.63,-0.35 -0.63,-1.47 0,-1.12 0.63,-1.4 0.7,-0.35 2.87,-0.35 2.17,0 2.8,0.35 0.7,0.28 0.7,1.4 0,1.12 -0.7,1.47 -0.63,0.28 -2.8,0.28 -2.17,0 -2.87,-0.28 z m 2.87,-8.47 q 0,-1.12 1.05,-1.4 1.33,-0.35 9.45,-0.35 9.03,0 10.01,0.63 0.49,0.28 0.49,1.12 0,1.12 -1.05,1.4 -1.33,0.35 -9.45,0.35 -9.03,0 -10.01,-0.63 -0.49,-0.28 -0.49,-1.12 z"
     style="font-size:70px;fill:#ff0000;stroke-width:0.9375"
     id="path1565"
     inkscape:connector-curvature="0" /></g></svg>