<?xml version="1.0" encoding="UTF-8" standalone="no"?>
<svg
   xmlns:dc="http://purl.org/dc/elements/1.1/"
   xmlns:cc="http://creativecommons.org/ns#"
   xmlns:rdf="http://www.w3.org/1999/02/22-rdf-syntax-ns#"
   xmlns:svg="http://www.w3.org/2000/svg"
   xmlns="http://www.w3.org/2000/svg"
   xmlns:sodipodi="http://sodipodi.sourceforge.net/DTD/sodipodi-0.dtd"
   xmlns:inkscape="http://www.inkscape.org/namespaces/inkscape"
   id="Layer_1"
   viewBox="0 0 334.2 88.5"
   width="2500"
   height="662"
   version="1.1"
   sodipodi:docname="system.svg"
   inkscape:version="0.92.3 (2405546, 2018-03-11)">
  <metadata
     id="metadata31">
    <rdf:RDF>
      <cc:Work
         rdf:about="">
        <dc:format>image/svg+xml</dc:format>
        <dc:type
           rdf:resource="http://purl.org/dc/dcmitype/StillImage" />
      </cc:Work>
    </rdf:RDF>
  </metadata>
  <defs
     id="defs29" />
  <sodipodi:namedview
     pagecolor="#ffffff"
     bordercolor="#666666"
     borderopacity="1"
     objecttolerance="10"
     gridtolerance="10"
     guidetolerance="10"
     inkscape:pageopacity="0"
     inkscape:pageshadow="2"
     inkscape:window-width="1698"
     inkscape:window-height="903"
     id="namedview27"
     showgrid="false"
     inkscape:zoom="0.1452"
     inkscape:cx="1250"
     inkscape:cy="331"
     inkscape:window-x="0"
     inkscape:window-y="0"
     inkscape:window-maximized="0"
     inkscape:current-layer="Layer_1" />
  <style
     id="style2">.st0{display:none}.st1{display:inline}.st2{fill:#ed1c24}</style>
  <g
     class="st0"
     id="g6">
    <path
       class="st1"
       d="M71.5 88.2H53l-4.6-16.5h-25l-4.8 16.5H0l23.1-76.6c.9-3 2.4-5.5 4.6-7.6C29.8 1.9 32.4.8 35.4.8c3.3 0 6.2 1.1 8.7 3.4 2.5 2.3 4.2 5.1 5.2 8.4l22.2 75.6zM43.4 55.7L36 18.3l-8.2 37.4h15.6zM119.1 18.5h-16.2v69.7H84.7V18.5H68.3V2.1h50.8v16.4zM187.5 88.2H169l-4.6-16.5h-25l-4.8 16.5H116l23.1-76.6c.9-3 2.4-5.5 4.6-7.6 2.1-2.1 4.7-3.2 7.7-3.2 3.3 0 6.2 1.1 8.7 3.4 2.5 2.3 4.2 5.1 5.2 8.4l22.2 75.6zm-28.1-32.5L152 18.3l-8.2 37.4h15.6zM252.4 88.2h-21l-17.7-33.9c-.8-1.6-1.5-3.1-2-4.5-.5-1.3-.8-2.4-.8-3.1 0-3.8 2.9-6.9 8.9-9.3 5.9-2.4 8.9-5.5 8.9-9.1 0-2.2-.8-4.4-2.5-6.6-1.7-2.1-3.5-3.2-5.5-3.2h-10.4v69.7h-17.6V13.8c0-2.6 1.2-5.2 3.6-7.7 2.4-2.5 4.8-3.7 7.2-3.7H221c6.8 0 12.8 2.5 17.9 7.4 5.1 5 7.7 10.7 7.7 17.2 0 5.2-1.5 9.6-4.4 13.2-2.9 3.6-7 6.6-12.1 9l22.3 39zM277.5 88.5h-18.3V2.4h18.3v86.1z"
       id="path4" />
  </g>
  <g
     class="st0"
     id="g12">
    <path
       class="st1"
       d="M333.8 72.7v12.1c0 .5-.3 1-1 1.5-.7.4-1.3.7-2 .7-1.1 0-2.5-.8-4.1-2.4-1.7-1.6-3.4-3.1-5.1-4.7-1.7-1.6-3-2.4-4-2.4-.5 0-1 .2-1.5.7-.5.4-.7 1-.7 1.6 0 .7.2 1.3.7 1.8s1.1.7 1.8.7V87c-1.9 0-3.6-.7-5-2.2-1.4-1.4-2.1-3.1-2.1-5.1 0-1.9.7-3.6 2.1-4.9 1.4-1.3 3.1-2 4.9-2 2 0 3.9.9 5.9 2.8 1.9 1.8 3.8 3.6 5.5 5.4l.1-8.1h4.5zM326.3 54.1c2.2 0 4.1.8 5.6 2.5 1.5 1.6 2.3 3.6 2.3 5.9 0 2.1-.8 3.9-2.5 5.3s-3.6 2.1-5.7 2.1c-.8 0-2.4-.5-4.8-1.6-2.4-1-4.7-2.1-6.9-3.3-2.2-1.1-3.4-1.7-3.4-1.8v-5.3l8.3 4c0-2.2.7-4.1 2-5.6s3-2.2 5.1-2.2zm.2 4.8c-.9 0-1.6.3-2.2.9s-.9 1.3-.9 2.1.3 1.5 1 2.1c.7.6 1.4.9 2.1.9.9 0 1.7-.3 2.2-.8.5-.5.8-1.3.8-2.2 0-.9-.3-1.7-.9-2.2-.7-.6-1.3-.8-2.1-.8zM334 40.1c0 3.3-1 6.1-3.1 8.5-2.1 2.4-4.8 3.6-8.2 3.6-3.3 0-6.2-1.2-8.5-3.5s-3.5-5.1-3.5-8.3c0-3.1 1.2-5.8 3.5-8.2 2.3-2.3 5-3.5 8.1-3.5 3 0 5.7 1.1 8.1 3.2 2.4 2.1 3.6 4.9 3.6 8.2zm-11.7-6.5c-1.7 0-3.3.7-4.7 2s-2.1 2.9-2.1 4.7c0 2 .7 3.7 2.2 5.1 1.5 1.4 3.1 2 5 2 2 0 3.6-.7 4.8-2.1 1.3-1.4 1.9-3.1 1.9-5s-.7-3.5-2-4.8c-1.3-1.2-3-1.9-5.1-1.9zM334 14.7c0 3.3-1 6.1-3.1 8.5-2.1 2.4-4.8 3.6-8.2 3.6-3.3 0-6.2-1.2-8.5-3.5s-3.5-5.1-3.5-8.3c0-3.1 1.2-5.8 3.5-8.2 2.3-2.3 5-3.5 8.1-3.5 3 0 5.7 1.1 8.1 3.2 2.4 2.1 3.6 4.8 3.6 8.2zm-11.7-6.6c-1.7 0-3.3.7-4.7 2s-2.1 2.9-2.1 4.7c0 2 .7 3.7 2.2 5.1 1.5 1.4 3.1 2 5 2 2 0 3.6-.7 4.8-2.1 1.3-1.4 1.9-3.1 1.9-5s-.7-3.5-2-4.8c-1.3-1.2-3-1.9-5.1-1.9z"
       id="path10" />
  </g>
  <g
     id="g845"
     transform="matrix(0.8,0,0,0.8,32.98,8.85)">
    <path
       id="path8"
       d="M 71.5,88.2 H 53 L 48.4,71.7 h -25 L 18.6,88.2 H 0 L 23.1,11.6 c 0.9,-3 2.4,-5.5 4.6,-7.6 2.1,-2.1 4.7,-3.2 7.7,-3.2 3.3,0 6.2,1.1 8.7,3.4 2.5,2.3 4.2,5.1 5.2,8.4 z M 43.4,55.7 36,18.3 27.8,55.7 Z M 119.1,18.5 H 102.9 V 88.2 H 84.7 V 18.5 H 68.3 V 2.1 h 50.8 z m 68.4,69.7 H 169 l -4.6,-16.5 h -25 l -4.8,16.5 H 116 l 23.1,-76.6 c 0.9,-3 2.4,-5.5 4.6,-7.6 2.1,-2.1 4.7,-3.2 7.7,-3.2 3.3,0 6.2,1.1 8.7,3.4 2.5,2.3 4.2,5.1 5.2,8.4 z M 159.4,55.7 152,18.3 143.8,55.7 Z m 93,32.5 h -21 L 213.7,54.3 c -0.8,-1.6 -1.5,-3.1 -2,-4.5 -0.5,-1.3 -0.8,-2.4 -0.8,-3.1 0,-3.8 2.9,-6.9 8.9,-9.3 5.9,-2.4 8.9,-5.5 8.9,-9.1 0,-2.2 -0.8,-4.4 -2.5,-6.6 -1.7,-2.1 -3.5,-3.2 -5.5,-3.2 H 210.3 V 88.2 H 192.7 V 13.8 c 0,-2.6 1.2,-5.2 3.6,-7.7 2.4,-2.5 4.8,-3.7 7.2,-3.7 H 221 c 6.8,0 12.8,2.5 17.9,7.4 5.1,5 7.7,10.7 7.7,17.2 0,5.2 -1.5,9.6 -4.4,13.2 -2.9,3.6 -7,6.6 -12.1,9 z m 25.1,0.3 H 259.2 V 2.4 h 18.3 z"
       class="st2"
       inkscape:connector-curvature="0"
       style="fill:#ed1c24" />
    <g
       id="g16">
      <path
         style="fill:#ed1c24"
         inkscape:connector-curvature="0"
         id="path14"
         d="m 318.8,73.7 v 12.4 c 0,0.5 -0.3,1 -1,1.5 -0.7,0.5 -1.4,0.7 -2.1,0.7 -1.1,0 -2.5,-0.8 -4.3,-2.4 -1.7,-1.6 -3.5,-3.2 -5.2,-4.9 -1.7,-1.6 -3.1,-2.5 -4.1,-2.5 -0.5,0 -1,0.2 -1.5,0.7 -0.5,0.4 -0.7,1 -0.7,1.7 0,0.7 0.2,1.3 0.7,1.8 0.5,0.5 1.1,0.7 1.9,0.7 v 4.8 c -2,0 -3.7,-0.7 -5.2,-2.2 -1.4,-1.5 -2.2,-3.2 -2.2,-5.2 0,-2 0.7,-3.7 2.2,-5.1 1.4,-1.4 3.1,-2.1 5.1,-2.1 2,0 4.1,1 6,2.9 2,1.9 3.9,3.7 5.7,5.5 l 0.1,-8.4 h 4.6 z M 311,54.6 c 2.3,0 4.2,0.8 5.8,2.5 1.6,1.7 2.3,3.7 2.3,6 0,2.2 -0.9,4 -2.6,5.4 -1.7,1.4 -3.7,2.2 -5.9,2.2 -0.9,0 -2.5,-0.5 -4.9,-1.6 -2.4,-1.1 -4.8,-2.2 -7.1,-3.4 -2.3,-1.2 -3.5,-1.8 -3.5,-1.8 v -5.5 l 8.6,4.1 c 0,-2.3 0.7,-4.2 2.1,-5.7 1.3,-1.4 3.1,-2.2 5.2,-2.2 z m 0.2,4.9 c -0.9,0 -1.7,0.3 -2.3,0.9 -0.6,0.6 -1,1.4 -1,2.2 0,0.8 0.3,1.6 1,2.2 0.7,0.6 1.4,0.9 2.2,0.9 1,0 1.7,-0.3 2.3,-0.8 0.5,-0.6 0.8,-1.3 0.8,-2.3 0,-1 -0.3,-1.7 -0.9,-2.3 -0.6,-0.5 -1.3,-0.8 -2.1,-0.8 z m 7.7,-19.2 c 0,3.3 -1.1,6.3 -3.2,8.7 -2.1,2.5 -4.9,3.7 -8.4,3.7 -3.4,0 -6.4,-1.2 -8.7,-3.6 -2.4,-2.4 -3.6,-5.3 -3.6,-8.5 0,-3.2 1.2,-6 3.6,-8.4 2.4,-2.4 5.2,-3.6 8.3,-3.6 3.1,0 5.9,1.1 8.4,3.3 2.4,2.1 3.6,4.9 3.6,8.4 z m -12,-6.8 c -1.8,0 -3.4,0.7 -4.8,2.1 -1.4,1.4 -2.1,3 -2.1,4.8 0,2.1 0.7,3.8 2.2,5.2 1.5,1.4 3.2,2.1 5.1,2.1 2,0 3.7,-0.7 5,-2.2 1.3,-1.4 1.9,-3.2 1.9,-5.2 0,-1.9 -0.7,-3.5 -2,-4.9 -1.4,-1.2 -3.1,-1.9 -5.3,-1.9 z m 12,-19.4 c 0,3.3 -1.1,6.3 -3.2,8.7 -2.1,2.5 -4.9,3.7 -8.4,3.7 -3.4,0 -6.4,-1.2 -8.7,-3.6 -2.4,-2.4 -3.6,-5.3 -3.6,-8.5 0,-3.2 1.2,-6 3.6,-8.4 2.4,-2.4 5.2,-3.6 8.3,-3.6 3.1,0 5.9,1.1 8.4,3.3 2.4,2.1 3.6,4.9 3.6,8.4 z m -12,-6.8 c -1.8,0 -3.4,0.7 -4.8,2.1 -1.4,1.4 -2.1,3 -2.1,4.8 0,2.1 0.7,3.8 2.2,5.2 1.5,1.4 3.2,2.1 5.1,2.1 2,0 3.7,-0.7 5,-2.2 1.3,-1.4 1.9,-3.2 1.9,-5.2 0,-1.9 -0.7,-3.5 -2,-4.9 -1.4,-1.2 -3.1,-1.9 -5.3,-1.9 z"
         class="st2" />
    </g>
    <g
       id="g20">
      <path
         inkscape:connector-curvature="0"
         id="path18"
         d="m 286,0 c 0.6,0 1.2,0.2 1.8,0.5 0.6,0.3 1,0.8 1.4,1.3 0.3,0.6 0.5,1.2 0.5,1.8 0,0.6 -0.2,1.2 -0.5,1.8 -0.3,0.6 -0.8,1 -1.3,1.4 -0.6,0.3 -1.2,0.5 -1.8,0.5 -0.6,0 -1.2,-0.2 -1.8,-0.5 -0.6,-0.3 -1,-0.8 -1.4,-1.4 -0.3,-0.6 -0.5,-1.2 -0.5,-1.8 0,-0.6 0.2,-1.2 0.5,-1.8 0.3,-0.6 0.8,-1 1.4,-1.3 C 284.8,0.2 285.4,0 286,0 Z m 0,0.6 c -0.5,0 -1,0.1 -1.5,0.4 -0.5,0.3 -0.9,0.6 -1.1,1.1 -0.3,0.5 -0.4,1 -0.4,1.5 0,0.5 0.1,1 0.4,1.5 0.3,0.5 0.6,0.9 1.1,1.1 0.5,0.3 1,0.4 1.5,0.4 0.5,0 1,-0.1 1.5,-0.4 0.5,-0.3 0.9,-0.6 1.1,-1.1 0.3,-0.5 0.4,-1 0.4,-1.5 0,-0.5 -0.1,-1 -0.4,-1.5 -0.3,-0.5 -0.7,-0.9 -1.1,-1.1 -0.4,-0.2 -1,-0.4 -1.5,-0.4 z m -1.6,5.1 v -4 h 1.3 c 0.5,0 0.8,0 1,0.1 0.2,0.1 0.4,0.2 0.5,0.4 0.1,0.2 0.2,0.4 0.2,0.6 0,0.3 -0.1,0.5 -0.3,0.7 -0.2,0.2 -0.5,0.3 -0.8,0.4 0.1,0.1 0.2,0.1 0.3,0.2 0.2,0.2 0.4,0.4 0.6,0.8 l 0.5,0.8 H 287 L 286.6,5 C 286.3,4.5 286.1,4.2 285.9,4.1 285.8,4 285.7,4 285.4,4 H 285 v 1.7 z m 0.7,-2.2 h 0.8 c 0.4,0 0.6,-0.1 0.8,-0.2 0.1,-0.1 0.2,-0.3 0.2,-0.4 0,-0.1 0,-0.2 -0.1,-0.3 -0.1,-0.1 -0.2,-0.2 -0.3,-0.2 -0.1,0 -0.3,-0.1 -0.6,-0.1 h -0.7 v 1.2 z" />
    </g>
    <g
       id="g24">
      <path
         inkscape:connector-curvature="0"
         id="path22"
         d="M 322.3,6 V 2 h -1.5 V 1.3 h 3.9 V 2 H 323 v 4 z m 2.8,0 V 1.3 h 1.2 l 1.2,3.8 1.2,-3.8 h 1.1 V 6 h -0.7 V 2 l -1.2,4 h -0.7 l -1.3,-4 v 4 z" />
    </g>
  </g>
</svg>
