<?xml version="1.0" encoding="UTF-8" standalone="no"?>
<!-- Generator: Gravit.io -->

<svg
   xmlns:dc="http://purl.org/dc/elements/1.1/"
   xmlns:cc="http://creativecommons.org/ns#"
   xmlns:rdf="http://www.w3.org/1999/02/22-rdf-syntax-ns#"
   xmlns:svg="http://www.w3.org/2000/svg"
   xmlns="http://www.w3.org/2000/svg"
   xmlns:sodipodi="http://sodipodi.sourceforge.net/DTD/sodipodi-0.dtd"
   xmlns:inkscape="http://www.inkscape.org/namespaces/inkscape"
   style="isolation:isolate"
   viewBox="0 0 545 82"
   width="545"
   height="82"
   version="1.1"
   id="svg63"
   sodipodi:docname="system.svg"
   inkscape:version="0.92.3 (2405546, 2018-03-11)">
  <metadata
     id="metadata69">
    <rdf:RDF>
      <cc:Work
         rdf:about="">
        <dc:format>image/svg+xml</dc:format>
        <dc:type
           rdf:resource="http://purl.org/dc/dcmitype/StillImage" />
      </cc:Work>
    </rdf:RDF>
  </metadata>
  <defs
     id="defs67" />
  <sodipodi:namedview
     pagecolor="#ffffff"
     bordercolor="#666666"
     borderopacity="1"
     objecttolerance="10"
     gridtolerance="10"
     guidetolerance="10"
     inkscape:pageopacity="0"
     inkscape:pageshadow="2"
     inkscape:window-width="1818"
     inkscape:window-height="814"
     id="namedview65"
     showgrid="false"
     inkscape:zoom="1.3321101"
     inkscape:cx="-138.20766"
     inkscape:cy="128.17245"
     inkscape:window-x="0"
     inkscape:window-y="0"
     inkscape:window-maximized="0"
     inkscape:current-layer="svg63" />
  <g
     id="g25"
     style="fill:#ff0000;stroke:none;stroke-width:0.5;stroke-miterlimit:4;stroke-dasharray:none;stroke-opacity:1">
    <g
       id="null"
       style="fill:#ff0000;stroke:none;stroke-width:0.5;stroke-miterlimit:4;stroke-dasharray:none;stroke-opacity:1">
      <path
         d="m 22.875,52.728 c -0.077,0 -0.156,-0.018 -0.229,-0.053 -7.506,-3.644 -11.381,-7.89 -11.208,-12.282 0.142,-3.616 3.092,-7.03 8.534,-9.874 5.162,-2.697 12.444,-4.838 21.058,-6.19 0.288,-0.046 0.557,0.15 0.602,0.438 0.045,0.286 -0.151,0.557 -0.438,0.602 -17.449,2.74 -28.447,8.514 -28.703,15.067 -0.153,3.886 3.616,7.896 10.615,11.294 0.262,0.127 0.371,0.439 0.244,0.703 -0.092,0.185 -0.279,0.295 -0.475,0.295 z"
         id="path2"
         inkscape:connector-curvature="0"
         style="fill:#ff0000;stroke:none;stroke-width:0.5;stroke-miterlimit:4;stroke-dasharray:none;stroke-opacity:1" />
    </g>
    <g
       id="g7"
       style="fill:#ff0000;stroke:none;stroke-width:0.5;stroke-miterlimit:4;stroke-dasharray:none;stroke-opacity:1">
      <path
         d="m 88.305,25.752 c -0.029,0 -0.058,-0.002 -0.086,-0.007 -5.544,-0.91 -11.397,-1.518 -17.396,-1.804 -0.291,-0.015 -0.515,-0.261 -0.5,-0.552 0.014,-0.29 0.265,-0.512 0.55,-0.5 6.04,0.289 11.933,0.9 17.518,1.817 0.286,0.047 0.481,0.318 0.433,0.604 -0.043,0.259 -0.266,0.442 -0.519,0.442 z"
         id="path5"
         inkscape:connector-curvature="0"
         style="fill:#ff0000;stroke:none;stroke-width:0.5;stroke-miterlimit:4;stroke-dasharray:none;stroke-opacity:1" />
    </g>
    <g
       id="g11"
       style="fill:#ff0000;stroke:none;stroke-width:0.5;stroke-miterlimit:4;stroke-dasharray:none;stroke-opacity:1">
      <path
         d="m 71.74,61.694 c -0.147,0 -0.293,0 -0.441,-0.001 -0.291,-10e-4 -0.525,-0.237 -0.524,-0.527 10e-4,-0.29 0.235,-0.524 0.525,-0.524 0.001,0 0.001,0 0.002,0 0.145,0 0.292,0 0.438,0 28.163,0 50.385,-7.319 50.678,-16.729 0.103,-3.293 -2.541,-6.633 -7.65,-9.658 -5.085,-3.015 -12.375,-5.583 -21.079,-7.429 -0.284,-0.062 -0.465,-0.34 -0.406,-0.624 0.06,-0.284 0.34,-0.465 0.624,-0.405 8.814,1.868 16.213,4.48 21.397,7.553 5.458,3.234 8.281,6.897 8.166,10.597 -0.156,5.003 -5.683,9.564 -15.563,12.841 -9.552,3.166 -22.381,4.906 -36.167,4.906 z"
         id="path9"
         inkscape:connector-curvature="0"
         style="fill:#ff0000;stroke:none;stroke-width:0.5;stroke-miterlimit:4;stroke-dasharray:none;stroke-opacity:1" />
    </g>
    <path
       d="m 81.27,34.297 13.893,-10.59 -16.317,6.514 -4.586,-4.773 1.462,6.614 -13.893,10.589 16.319,-6.516 4.584,4.774 z"
       id="path13"
       inkscape:connector-curvature="0"
       style="fill:#ff0000;stroke:none;stroke-width:0.5;stroke-miterlimit:4;stroke-dasharray:none;stroke-opacity:1" />
    <g
       id="g23"
       style="fill:#ff0000;stroke:none;stroke-width:0.5;stroke-miterlimit:4;stroke-dasharray:none;stroke-opacity:1">
      <path
         d="m 63.871,47.517 c 0.199,-0.979 0.563,-0.838 1.557,-0.996 l 0.926,-0.145 -0.289,1.542 -0.925,0.148 c -0.994,0.158 -1.432,0.424 -1.269,-0.549 z m -2.006,-1.413 -0.72,3.875 c -0.198,1.059 0.123,1.399 1.141,1.238 l 5.895,-0.936 1.264,-6.796 -5.895,0.935 c -1.02,0.161 -1.49,0.626 -1.685,1.684 z m 37.424,-6.117 -0.069,0.374 6.082,-0.964 c 0.48,-0.078 0.948,-0.563 1.045,-1.088 0.096,-0.524 -0.212,-0.887 -0.693,-0.811 l -1.562,0.246 -2.492,0.397 -0.631,0.099 c -0.73,0.117 -1.532,0.95 -1.68,1.747 z m -42.665,17.525 0.049,-0.271 c 0.209,0.016 0.49,0.097 0.734,0.06 l 6.32,-0.99 c -0.235,1.26 -1.9,1.575 -4.442,1.979 l -2.893,0.46 -1.551,8.34 3.8,-0.602 C 67.997,65.564 71.557,60.728 72.7,54.964 l 11.401,-1.809 1.837,-9.887 0.927,-0.147 c 1.016,-0.161 0.866,-0.346 0.671,0.711 l -1.682,9.044 8.185,-1.298 0.112,-0.6 c 0.617,0.272 1.339,0.368 2.104,0.248 l 14.155,-2.244 1.32,-7.106 -0.917,-0.652 c 0.795,-0.941 1.415,-2.094 1.594,-3.061 l 0.223,-1.121 c 0.706,-4.19 -3.158,-5.304 -4.921,-5.023 l -8.123,1.289 c -1.438,0.229 -3.023,1.231 -4.176,2.56 -1.066,-1.056 -2.711,-1.466 -3.668,-1.314 l -9.043,1.435 1.012,2.237 8.156,-1.292 c 1.176,-0.188 1.962,0.282 2.177,1.213 -0.086,0.246 -2.177,11.379 -2.177,11.379 l -2.925,0.465 1.568,-8.428 c 0.194,-1.056 -0.125,-1.396 -1.141,-1.235 l -5.604,0.89 -1.839,9.886 -3.215,0.512 2.104,-11.318 -2.646,-3.122 -9.526,3.443 4.515,-0.717 0.073,-0.01 -2.871,15.446 c -0.73,3.923 -4.917,7.675 -8.63,8.266 l -3.8,0.602 0.576,-3.09 2.891,-0.458 c 2.541,-0.405 5.402,-2.947 5.896,-5.607 l 0.312,-1.674 -7.527,1.193 c -1.614,0.257 -2.49,-0.724 -2.173,-2.429 l 1.35,-7.262 c 0.239,-1.289 1.044,-2.36 2.121,-2.918 l 0.019,-0.193 3.776,-2.906 -2.206,0.37 c -1.173,0.186 -3.35,1.065 -4.733,2.83 -1.046,-1.247 -2.875,-1.736 -3.905,-1.573 l -8.113,1.289 1.322,-7.107 5.919,-0.938 c 3.151,-0.499 6.638,-4.043 7.257,-7.372 l 0.89,-4.788 c 0.62,-3.332 -1.723,-5.95 -4.874,-5.45 l -12.936,2.052 -2.757,14.829 -11.912,1.892 c -1.008,0.159 -1.989,1.154 -2.186,2.22 l -4.452,23.942 c -0.198,1.066 0.459,1.801 1.468,1.643 l 22.729,-3.607 1.839,-9.886 0.925,-0.147 c 1.019,-0.16 0.869,-0.343 0.671,0.713 l -1.681,9.043 z m -16.866,-5.421 -7.6,1.206 0.286,-1.543 6.138,-0.977 1.494,-8.032 -6.139,0.975 0.286,-1.545 7.6,-1.206 z m -0.46,2.472 -0.631,3.397 -13.447,2.134 4.191,-22.554 11.109,-1.763 -0.575,3.09 -7.893,1.254 -1.205,6.487 6.43,-1.02 -0.574,3.088 -6.431,1.02 -1.208,6.49 z m 15.446,0.849 -3.216,0.509 1.567,-8.427 c 0.197,-1.056 -0.123,-1.397 -1.141,-1.237 l -5.604,0.89 -1.836,9.887 -3.217,0.511 2.412,-12.976 0.075,-0.012 10.669,-1.691 c 1.614,-0.258 2.49,0.722 2.172,2.429 z m 20.901,-15.91 3.144,-0.498 -2.413,12.976 -3.215,0.51 2.41,-12.974 z m 19.503,6.115 1.116,-6.002 c 0.354,-1.899 2.394,-3.763 4.132,-4.039 l 7.52,-1.191 c 1.267,-0.202 2.147,1.213 1.889,2.599 l -0.369,1.931 c -0.259,1.386 -1.673,2.857 -2.939,3.058 l -7.806,1.24 -0.112,0.701 c -0.148,0.796 0.38,1.419 1.111,1.302 l 8.724,-1.389 -0.588,3.166 -9.842,1.56 c -1.739,0.274 -3.187,-1.036 -2.836,-2.936 z M 48.627,28.796 49.718,22.925 53.81,22.278 c 0.537,-0.085 0.811,0.221 0.704,0.786 l -0.746,4.019 c -0.107,0.567 -0.513,0.979 -1.05,1.065 z"
         id="path15"
         inkscape:connector-curvature="0"
         style="fill:#ff0000;stroke:none;stroke-width:0.5;stroke-miterlimit:4;stroke-dasharray:none;stroke-opacity:1" />
      <g
         id="g21"
         style="fill:#ff0000;stroke:none;stroke-width:0.5;stroke-miterlimit:4;stroke-dasharray:none;stroke-opacity:1">
        <path
           d="m 74.785,31.542 -0.869,-3.44 -0.489,0.06 -0.158,0.848 c -0.109,0.589 -0.582,1.067 -1.138,1.157 l -3.362,0.532 c -0.555,0.089 -0.873,-0.267 -0.763,-0.854 L 69.7,20.731 c 0.109,-0.586 0.582,-1.065 1.136,-1.153 L 74.2,19.045 c 0.555,-0.088 0.872,0.267 0.762,0.853 l -0.216,1.16 6.797,-1.08 0.259,-1.389 c 0.651,-3.507 -1.733,-6.172 -5.052,-5.646 l -6.503,1.031 c -3.317,0.527 -6.868,4.135 -7.519,7.641 l -1.809,9.73 c -0.651,3.508 1.732,6.173 5.051,5.646 l 2.174,-0.343 z"
           id="path17"
           inkscape:connector-curvature="0"
           style="fill:#ff0000;stroke:none;stroke-width:0.5;stroke-miterlimit:4;stroke-dasharray:none;stroke-opacity:1" />
        <path
           d="m 79.603,29.466 c 0.177,-0.477 0.3,-0.658 0.391,-1.146 l 0.231,-1.238 -2.705,0.43 z"
           id="path19"
           inkscape:connector-curvature="0"
           style="fill:#ff0000;stroke:none;stroke-width:0.5;stroke-miterlimit:4;stroke-dasharray:none;stroke-opacity:1" />
      </g>
    </g>
  </g>
  <g
     id="g61"
     style="fill:#ff0000;stroke:none;stroke-width:0.5;stroke-miterlimit:4;stroke-dasharray:none;stroke-opacity:1">
    <g
       id="g29"
       style="fill:#ff0000;stroke:none;stroke-width:0.5;stroke-miterlimit:4;stroke-dasharray:none;stroke-opacity:1">
      <path
         d="m 195.345,61.031 c 0,0 -22.097,0 -35.514,0 -11.838,0 -19.73,-7.958 -19.73,-15.784 0,-7.826 7.892,-15.784 19.73,-15.784 8.944,0 22.098,0 35.514,0 V 21.57 c 0,0 -22.097,0 -35.514,0 -15.784,0 -27.622,10.26 -27.622,23.677 0,13.416 11.838,23.676 27.622,23.676 17.888,0 35.514,0 35.514,0 z"
         id="path27"
         inkscape:connector-curvature="0"
         style="fill:#ff0000;stroke:none;stroke-width:0.5;stroke-miterlimit:4;stroke-dasharray:none;stroke-opacity:1" />
    </g>
    <g
       id="g35"
       style="fill:#ff0000;stroke:none;stroke-width:0.5;stroke-miterlimit:4;stroke-dasharray:none;stroke-opacity:1">
      <g
         id="g33"
         style="fill:#ff0000;stroke:none;stroke-width:0.5;stroke-miterlimit:4;stroke-dasharray:none;stroke-opacity:1">
        <path
           d="m 403.607,21.57 h -23.676 c -15.785,0 -27.622,10.26 -27.622,23.677 0,13.416 11.837,23.676 27.622,23.676 h 23.676 c 15.784,0 27.621,-10.26 27.621,-23.676 0,-13.417 -11.837,-23.677 -27.621,-23.677 z m 0,39.461 h -23.676 c -11.838,0 -19.73,-7.958 -19.73,-15.784 0,-7.826 7.893,-15.784 19.73,-15.784 h 23.676 c 11.838,0 19.729,7.958 19.729,15.784 0,7.826 -7.891,15.784 -19.729,15.784 z"
           id="path31"
           inkscape:connector-curvature="0"
           style="fill:#ff0000;stroke:none;stroke-width:0.5;stroke-miterlimit:4;stroke-dasharray:none;stroke-opacity:1" />
      </g>
    </g>
    <g
       id="g41"
       style="fill:#ff0000;stroke:none;stroke-width:0.5;stroke-miterlimit:4;stroke-dasharray:none;stroke-opacity:1">
      <g
         id="g39"
         style="fill:#ff0000;stroke:none;stroke-width:0.5;stroke-miterlimit:4;stroke-dasharray:none;stroke-opacity:1">
        <path
           d="m 238.752,21.57 c -17.889,0 -35.515,0 -35.515,0 v 47.353 c 0,0 22.098,0 35.515,0 15.784,0 27.621,-10.26 27.621,-23.676 0,-13.417 -11.837,-23.677 -27.621,-23.677 z m 0,39.461 c -7.26,0 -15.947,0 -27.622,0 V 29.463 c 8.769,0 18.894,0 27.622,0 11.838,0 19.729,7.958 19.729,15.784 0,7.826 -7.891,15.784 -19.729,15.784 z"
           id="path37"
           inkscape:connector-curvature="0"
           style="fill:#ff0000;stroke:none;stroke-width:0.5;stroke-miterlimit:4;stroke-dasharray:none;stroke-opacity:1" />
      </g>
    </g>
    <g
       id="g47"
       style="fill:#ff0000;stroke:none;stroke-width:0.5;stroke-miterlimit:4;stroke-dasharray:none;stroke-opacity:1">
      <g
         id="g45"
         style="fill:#ff0000;stroke:none;stroke-width:0.5;stroke-miterlimit:4;stroke-dasharray:none;stroke-opacity:1">
        <path
           d="m 337.401,45.247 c 3.946,0 7.893,-5.7 7.893,-9.646 0,-7.892 -3.946,-14.03 -11.839,-14.03 -7.891,0 -47.352,0 -47.352,0 v 47.353 h 7.893 v -19.73 c 11.838,0 31.568,0 35.514,0 3.946,0 7.892,3.947 7.892,7.893 0,3.946 0,11.838 0,11.838 h 7.893 c 0,0 0,-3.945 0,-11.838 0,-7.893 -7.894,-11.84 -7.894,-11.84 z m -7.891,-3.946 c -7.892,0 -35.514,0 -35.514,0 V 29.463 c 0,0 27.622,0 35.514,0 3.945,0 7.892,2.192 7.892,6.138 -10e-4,3.946 -3.947,5.7 -7.892,5.7 z"
           id="path43"
           inkscape:connector-curvature="0"
           style="fill:#ff0000;stroke:none;stroke-width:0.5;stroke-miterlimit:4;stroke-dasharray:none;stroke-opacity:1" />
      </g>
    </g>
    <g
       id="g51"
       style="fill:#ff0000;stroke:none;stroke-width:0.5;stroke-miterlimit:4;stroke-dasharray:none;stroke-opacity:1">
      <path
         d="m 274.924,49.192 c -2.18,0 -3.946,-1.767 -3.946,-3.945 0,-2.178 1.767,-3.946 3.946,-3.946 h 2.959 c 2.18,0 3.946,1.768 3.946,3.946 0,2.178 -1.767,3.945 -3.946,3.945 z"
         id="path49"
         inkscape:connector-curvature="0"
         style="fill:#ff0000;stroke:none;stroke-width:0.5;stroke-miterlimit:4;stroke-dasharray:none;stroke-opacity:1" />
    </g>
    <g
       id="g55"
       style="fill:#ff0000;stroke:none;stroke-width:0.5;stroke-miterlimit:4;stroke-dasharray:none;stroke-opacity:1">
      <path
         d="m 466.744,29.463 v 39.46 h 7.892 v -39.46 h 7.893 c 3.945,0 11.837,0 11.837,7.892 0,7.893 0,31.568 0,31.568 h 7.893 V 33.409 c 0,-7.893 -7.893,-11.839 -15.784,-11.839 -3.945,0 -27.622,0 -31.568,0 -7.893,0 -15.784,3.946 -15.784,11.839 0,7.892 0,23.676 0,35.514 h 7.892 c 0,0 0,-23.676 0,-31.568 0,-7.892 7.893,-7.892 11.839,-7.892 z"
         id="path53"
         inkscape:connector-curvature="0"
         style="fill:#ff0000;stroke:none;stroke-width:0.5;stroke-miterlimit:4;stroke-dasharray:none;stroke-opacity:1" />
    </g>
    <g
       id="g59"
       style="fill:#ff0000;stroke:none;stroke-width:0.5;stroke-miterlimit:4;stroke-dasharray:none;stroke-opacity:1">
      <path
         d="m 522.795,28.236 c 0,0 -0.946,0 2.937,0 5.259,0 9.062,-2.685 9.062,-8.726 0,-3.883 -2.46,-8.39 -7.766,-8.39 -3.884,0 -12.514,0 -16.397,0 v 6.04 c 0,0 8.014,0 11.896,0 1.696,0 3.598,0.281 3.598,2.35 0,1.958 -1.512,2.685 -3.262,2.685 h -4.916 c -8.827,0 -9.896,6.299 -9.896,11.219 v 3.884 h 26.305 v -6.479 h -17.504 c -0.002,-3.02 3.354,-2.583 5.943,-2.583 z"
         id="path57"
         inkscape:connector-curvature="0"
         style="fill:#ff0000;stroke:none;stroke-width:0.5;stroke-miterlimit:4;stroke-dasharray:none;stroke-opacity:1" />
    </g>
  </g>
</svg>
