<?xml version="1.0" encoding="UTF-8" standalone="no"?>
<svg
   xmlns:dc="http://purl.org/dc/elements/1.1/"
   xmlns:cc="http://creativecommons.org/ns#"
   xmlns:rdf="http://www.w3.org/1999/02/22-rdf-syntax-ns#"
   xmlns:svg="http://www.w3.org/2000/svg"
   xmlns="http://www.w3.org/2000/svg"
   xmlns:sodipodi="http://sodipodi.sourceforge.net/DTD/sodipodi-0.dtd"
   xmlns:inkscape="http://www.inkscape.org/namespaces/inkscape"
   width="100%"
   height="100%"
   viewBox="0 0 240 81"
   version="1.1"
   xml:space="preserve"
   style="fill-rule:evenodd;clip-rule:evenodd;stroke-linejoin:round;stroke-miterlimit:1.41421;"
   id="svg982"
   sodipodi:docname="neo_geo_red.svg"
   inkscape:version="0.92.3 (2405546, 2018-03-11)"><metadata
   id="metadata988"><rdf:RDF><cc:Work
       rdf:about=""><dc:format>image/svg+xml</dc:format><dc:type
         rdf:resource="http://purl.org/dc/dcmitype/StillImage" /></cc:Work></rdf:RDF></metadata><defs
   id="defs986">
        
        
        
        
        
        
        
        
        
        
        
        
        
        
        
    </defs><sodipodi:namedview
   pagecolor="#ffffff"
   bordercolor="#666666"
   borderopacity="1"
   objecttolerance="10"
   gridtolerance="10"
   guidetolerance="10"
   inkscape:pageopacity="0"
   inkscape:pageshadow="2"
   inkscape:window-width="1920"
   inkscape:window-height="1015"
   id="namedview984"
   showgrid="false"
   inkscape:zoom="4.1130045"
   inkscape:cx="88.550794"
   inkscape:cy="38.488897"
   inkscape:window-x="0"
   inkscape:window-y="0"
   inkscape:window-maximized="1"
   inkscape:current-layer="svg982" />
    <g
   id="g1253"><path
     id="path16"
     d="m 179.42224,65.683433 h -21.42455 c -0.76113,0 -1.49408,-0.02819 -2.22702,-0.140951 -0.70476,-0.08457 -1.35313,-0.225522 -1.94512,-0.394663 -0.84571,-0.197331 -1.46589,-0.620184 -1.86056,-0.958466 -0.33828,-0.310093 -0.50742,-0.648375 -0.50742,-0.986657 v -3.721105 c 0.0846,-0.310092 0.31009,-0.704755 0.67657,-0.986657 0.36647,-0.281901 0.87389,-0.535613 1.46588,-0.704754 0.62019,-0.169141 1.29675,-0.310092 2.05789,-0.394663 0.78932,-0.08457 1.60684,-0.140951 2.50893,-0.140951 h 21.2554 v 1.127608 h -21.2554 c -0.90209,0 -1.69142,0.02819 -2.39617,0.11276 -0.67657,0.08457 -1.35313,0.225522 -1.97331,0.394663 -0.84571,0.253712 -1.01485,0.563804 -1.18399,0.986657 l -0.0282,0.873896 h 26.80887 l 0.0282,1.155797 h -26.80887 v 1.212178 c 0,0.310092 0.22552,0.620185 1.35313,0.930277 0.5638,0.140951 1.18399,0.253711 1.88874,0.338282 0.70475,0.112761 1.40951,0.140951 2.11426,0.140951 h 21.45274 z"
     style="fill:#f4171c;fill-opacity:1;fill-rule:nonzero;stroke-width:0.39153039"
     inkscape:connector-curvature="0" /><path
     id="path18"
     d="m 135.16364,65.683433 h -0.0564 z"
     style="fill:#f4171c;fill-opacity:1;fill-rule:nonzero;stroke-width:0.39153039"
     inkscape:connector-curvature="0" /><path
     id="path20"
     d="m 148.07475,58.438554 h -13.5031 v 7.244879 h -1.18399 v -7.244879 h -13.47491 v -1.183988 h 28.162 z"
     style="fill:#f4171c;fill-opacity:1;fill-rule:nonzero;stroke-width:0.39153039"
     inkscape:connector-curvature="0" /><path
     id="path22"
     d="m 80.728387,62.187849 h -7.808682 v 3.495584 H 71.735717 V 62.187849 H 61.643629 c -1.52227,0 -3.411013,-0.197331 -3.411013,-2.452546 v -2.480737 h 1.240368 v 2.367976 c 0,1.49408 1.4377,1.353129 2.367976,1.353129 h 21.227212 c 0.958467,0 2.396167,0.140951 2.396167,-1.353129 v -2.367976 h 1.183987 v 2.480737 c 0,2.255215 -1.888742,2.452546 -3.411012,2.452546 z"
     style="fill:#f4171c;fill-opacity:1;fill-rule:nonzero;stroke-width:0.39153039"
     inkscape:connector-curvature="0" /><path
     id="path24"
     d="M 55.188076,58.466744 H 32.635925 c -1.127608,0 -2.142455,0.197332 -2.8754,0.507424 -0.563803,0.225521 -0.902086,0.479233 -0.902086,0.704754 0,0.225522 0.338283,0.479234 0.902086,0.704755 0.732945,0.281902 1.747792,0.479233 2.8754,0.479233 h 17.590678 c 0.845705,0 1.663221,0.08457 2.339785,0.253712 0.366473,0.08457 0.676565,0.197331 0.986657,0.310092 0.310092,0.140951 0.591994,0.281902 0.817515,0.422853 0.535614,0.394663 0.845706,0.873896 0.845706,1.409509 v 0.02819 c 0,0.761135 -0.648374,1.409509 -1.663221,1.832362 -0.873896,0.338282 -2.057884,0.563804 -3.326442,0.563804 H 27.984544 v -1.212179 h 22.242059 c 1.127607,0 2.142454,-0.197331 2.875399,-0.479233 0.535613,-0.253711 0.902086,-0.507423 0.902086,-0.704754 v -0.02819 c 0,-0.11276 -0.140951,-0.253711 -0.338282,-0.394662 C 53.496664,62.751653 53.299333,62.667082 53.102002,62.554322 52.84829,62.469751 52.594578,62.38518 52.284486,62.30061 51.692492,62.159659 50.987738,62.075088 50.226603,62.075088 H 42.41792 32.635925 c -1.268559,0 -2.452547,-0.197331 -3.326443,-0.563803 -1.014846,-0.422853 -1.663221,-1.071228 -1.663221,-1.832363 0,-0.789325 0.648375,-1.437699 1.663221,-1.860552 0.873896,-0.338282 2.057884,-0.563804 3.326443,-0.563804 h 22.552151 z"
     style="fill:#f4171c;fill-opacity:1;fill-rule:nonzero;stroke-width:0.39153039"
     inkscape:connector-curvature="0" /><path
     id="path26"
     d="M 117.06554,58.466744 H 94.541579 c -1.127607,0 -2.142454,0.197332 -2.875399,0.507424 -0.563804,0.225521 -0.902086,0.479233 -0.902086,0.704754 0,0.225522 0.338282,0.479234 0.902086,0.704755 0.732945,0.281902 1.747792,0.479233 2.875399,0.479233 h 17.590681 c 0.8457,0 1.66322,0.08457 2.31159,0.253712 0.36648,0.08457 0.67657,0.197331 0.98666,0.310092 0.31009,0.140951 0.59199,0.281902 0.81751,0.422853 h -0.0282 c 0.56381,0.394663 0.8739,0.873896 0.8739,1.409509 v 0.02819 c 0,0.761135 -0.64837,1.409509 -1.66322,1.832362 -0.8739,0.338282 -2.02969,0.563804 -3.29825,0.563804 H 89.890198 v -1.212179 h 22.242062 c 1.1276,0 2.11426,-0.197331 2.81902,-0.479233 0.5638,-0.253711 0.93027,-0.507423 0.93027,-0.704754 v -0.02819 c 0,-0.11276 -0.14095,-0.253711 -0.33828,-0.394662 -0.16914,-0.112761 -0.36647,-0.197332 -0.5638,-0.310092 -0.25372,-0.08457 -0.50743,-0.169142 -0.78933,-0.253712 -0.59199,-0.140951 -1.29675,-0.225522 -2.05788,-0.225522 h -7.80869 -9.781991 c -1.268558,0 -2.452546,-0.197331 -3.326442,-0.563803 -1.014847,-0.422853 -1.663221,-1.071228 -1.663221,-1.832363 0,-0.789325 0.620184,-1.437699 1.663221,-1.860552 0.873896,-0.338282 2.057884,-0.563804 3.326442,-0.563804 h 22.523961 z"
     style="fill:#f4171c;fill-opacity:1;fill-rule:nonzero;stroke-width:0.39153039"
     inkscape:connector-curvature="0" /><path
     id="path28"
     d="m 211.05163,57.254566 c 0.31009,0 0.62018,0.225522 0.62018,0.591994 v 7.836873 h -1.15579 v -6.793836 l -12.79835,6.455553 -0.16914,0.05638 c -0.70476,0.281902 -0.90209,0.225521 -1.40951,0 l -0.16914,-0.08457 -12.68559,-6.455553 v 6.822026 h -1.21217 V 57.81837 c 0,-0.366473 0.31009,-0.563804 0.59199,-0.563804 0.16914,0 0.25371,0.02819 0.39466,0.112761 l 13.19301,6.793835 c 0.50742,0.225522 0.59199,0.338283 1.21218,0.02819 l 11.67074,-5.94813 1.66322,-0.902086 c 0.0846,-0.05638 0.19733,-0.08457 0.25371,-0.08457 z"
     style="fill:#f4171c;fill-opacity:1;fill-rule:nonzero;stroke-width:0.39153039"
     inkscape:connector-curvature="0" /><path
     id="path30"
     d="m 152.89527,19.141431 v 10.063897 h -0.78933 c -0.93027,-2.762638 -2.33978,-4.848712 -4.22852,-6.258222 -1.86056,-1.437699 -2.98816,-2.170644 -5.21519,-2.170644 -2.11426,0 -3.89024,0.620184 -5.29975,1.804172 -1.4377,1.212178 -2.42436,2.875399 -3.01635,5.017854 -0.592,2.142454 -0.8739,4.341289 -0.8739,6.596504 0,2.734448 0.31009,5.130614 0.95847,7.188498 0.64837,2.086074 1.69141,3.185491 3.12911,4.143958 1.4377,0.958466 2.59349,1.437699 4.56681,1.437699 0.70475,0 1.40951,-0.05638 2.11426,-0.197331 0.73295,-0.169141 1.29675,-0.366473 2.05789,-0.648374 v -7.273069 c 0,-1.127608 -0.0846,-1.860553 -0.22553,-2.198835 -0.16914,-0.310092 -0.47923,-0.620184 -0.95846,-0.873896 -0.47924,-0.281902 -1.07123,-0.422853 -1.77598,-0.422853 h -0.73295 v -0.761135 h 13.86957 v 0.761135 c -1.04303,0.08457 -1.77598,0.225522 -2.19883,0.451043 -0.42285,0.197332 -0.73295,0.563804 -0.95847,1.071228 -0.11276,0.281902 -0.16914,0.930276 -0.19733,1.973313 l -0.0564,7.047547 c -1.80417,0.789325 -3.46739,1.46589 -5.44071,1.888743 -1.97331,0.394662 -4.03119,0.732945 -6.14546,0.732945 -2.70625,0 -4.42586,-0.197332 -6.20184,-0.930277 -1.80417,-0.732945 -3.35463,-1.409509 -4.73595,-2.593497 -1.35313,-1.212178 -2.42436,-2.565307 -3.21368,-4.059387 -0.95847,-1.945123 -1.46589,-4.087578 -1.46589,-6.511934 0,-4.284909 1.52227,-7.893253 4.53862,-10.853222 2.98816,-2.95997 6.79383,-4.42586 11.36065,-4.42586 2.08607,0 3.94662,0.535613 5.89175,1.268558 1.38131,0.535614 2.19883,0.789326 2.45254,0.789326 0.39466,0 0.73295,-0.140951 1.07123,-0.422853 0.33828,-0.281902 0.64837,-0.817516 0.93027,-1.635031 z"
     style="fill:#f4171c;fill-opacity:1;fill-rule:nonzero;stroke-width:0.39153039"
     inkscape:connector-curvature="0" /><path
     id="path32"
     d="m 101.70189,20.973793 c -2.678071,0.02819 -4.679574,1.296749 -6.060893,3.833866 -1.155798,2.057884 -1.719602,5.074234 -1.719602,8.96448 0,4.651381 0.817516,8.146964 2.565307,10.345799 1.240369,1.550461 3.016351,2.283405 5.215188,2.283405 v 2.170645 h -0.0282 c -5.412519,0 -9.612857,-1.719602 -12.572827,-5.158805 -2.339786,-2.706258 -3.523774,-5.919939 -3.523774,-9.641044 0,-4.172148 1.52227,-7.667732 4.566811,-10.43037 3.04454,-2.790829 6.793835,-4.115768 11.24789,-3.946626 0.11276,0 0.19733,0 0.31009,0 z m 0.0564,0 c -0.0282,0 -0.0564,0 -0.0564,0 v -1.57865 c 4.65138,-0.112761 8.48524,1.212178 11.41702,3.918436 2.98816,2.790828 4.48224,6.258222 4.48224,10.43037 0,3.580154 -1.1276,6.709265 -3.35463,9.443713 -2.95997,3.580154 -7.13212,5.384326 -12.54463,5.384326 v -2.170645 c 1.49408,0 2.79083,-0.394662 3.77748,-1.071227 1.26856,-0.845705 2.08608,-2.227025 2.79083,-4.115767 0.70476,-1.860553 1.18399,-4.256719 1.18399,-7.273069 0,-3.608344 -0.36647,-6.286412 -1.09942,-8.062394 -0.70475,-1.804172 -1.63503,-3.04454 -2.73445,-3.805676 -1.1276,-0.732944 -2.42435,-1.099417 -3.86205,-1.099417 z"
     style="fill:#f4171c;fill-opacity:1;fill-rule:nonzero;stroke-width:0.39153039"
     inkscape:connector-curvature="0" /><path
     id="path34"
     d="m 70.579919,21.453026 v 11.247886 h 0.620184 c 1.945123,0 2.706258,-0.563804 3.580154,-1.719602 0.873896,-1.127607 1.4377,-2.790829 1.663221,-5.017853 h 0.873896 v 14.9408 h -0.873896 c -0.169141,-1.635031 -0.563804,-2.95997 -1.127607,-4.003007 -0.591994,-1.043037 -1.268559,-1.747792 -2.029694,-2.086074 -0.761135,-0.366473 -1.240368,-0.535614 -2.706258,-0.535614 v 8.372486 c 0,1.578651 0.08457,2.537117 0.225521,2.8754 0.140951,0.366472 0.394663,0.648374 0.789326,0.873895 0.394662,0.225522 1.014846,0.338283 1.916932,0.338283 h 1.832363 c 2.847209,0 3.664724,-0.620184 5.384326,-1.860553 1.719601,-1.212178 2.903589,-2.621687 3.664724,-5.158804 h 0.845706 l -1.324939,8.598007 H 58.8528 v -0.789325 h 1.043037 c 0.873896,0 1.606841,-0.140951 2.142455,-0.422853 0.394662,-0.197331 0.704754,-0.535613 0.902086,-1.014847 0.169141,-0.338282 0.253711,-1.212178 0.253711,-2.649877 V 24.666708 c 0,-1.268559 -0.02819,-2.057884 -0.11276,-2.367976 C 62.940378,21.819499 62.658476,21.424836 62.235623,21.171124 61.671819,20.776462 60.882494,20.57913 59.895837,20.57913 H 58.8528 v -0.789325 h 25.709453 v 8.428867 h -0.845706 c -0.451043,-2.057884 -1.043037,-3.523774 -1.860553,-4.42586 -0.789325,-0.902086 -1.888742,-1.55046 -3.354632,-1.973313 -0.845706,-0.253712 -2.424356,-0.366473 -4.764142,-0.366473 z"
     style="fill:#f4171c;fill-opacity:1;fill-rule:nonzero;stroke-width:0.39153039"
     inkscape:connector-curvature="0" /><path
     id="path36"
     d="M 37.259116,19.789805 53.073812,37.493244 V 25.230512 c 0,-1.719602 -0.253712,-2.8754 -0.817516,-3.467394 -0.761135,-0.817515 -1.663221,-1.212178 -3.467393,-1.183988 v -0.789325 h 9.556474 v 0.789325 c -1.353129,0.140951 -1.578651,0.366473 -2.029694,0.591994 -0.479233,0.253712 -0.845705,0.648375 -1.099417,1.212179 -0.253712,0.535613 -0.394663,1.49408 -0.394663,2.847209 V 48.966651 H 54.032278 L 32.325833,25.230512 v 18.126291 c 0,1.635031 0.422852,2.734448 1.268558,3.326442 0.845706,0.563804 1.804172,0.845706 2.90359,0.845706 h 0.761135 v 0.789325 H 25.870279 v -0.789325 c 1.775982,0 2.98816,-0.338282 3.692915,-0.958466 0.676565,-0.620185 1.043037,-1.691412 1.043037,-3.213682 V 23.229008 l -0.704755,-0.761135 c -0.676564,-0.761135 -1.268558,-1.240368 -1.775981,-1.49408 -0.535614,-0.225521 -0.05638,-0.366472 -1.014847,-0.394663 v -0.789325 z"
     style="fill:#f4171c;fill-opacity:1;fill-rule:nonzero;stroke-width:0.39153039"
     inkscape:connector-curvature="0" /><path
     id="path38"
     d="m 197.52034,20.973793 c -2.67807,0.02819 -4.67957,1.296749 -6.06089,3.833866 -1.1558,2.057884 -1.7196,5.074234 -1.7196,8.96448 0,4.651381 0.81751,8.146964 2.5653,10.345799 1.24037,1.550461 3.01635,2.283405 5.21519,2.283405 v 2.170645 h -0.0282 c -5.41252,0 -9.61286,-1.719602 -12.57283,-5.158805 -2.33978,-2.706258 -3.52377,-5.919939 -3.52377,-9.641044 0,-4.172148 1.52227,-7.667732 4.56681,-10.43037 3.04454,-2.790829 6.79384,-4.115768 11.24789,-3.946626 0.11276,0 0.19733,0 0.31009,0 z m 0.0564,0 c -0.0282,0 -0.0564,0 -0.0564,0 v -1.57865 c 4.65138,-0.112761 8.48525,1.212178 11.41703,3.918436 3.01635,2.790828 4.51043,6.258222 4.51043,10.43037 0,3.580154 -1.12761,6.709265 -3.35464,9.443713 -2.98816,3.580154 -7.1603,5.384326 -12.57282,5.384326 v -2.170645 c 1.49408,0 2.79083,-0.394662 3.77748,-1.071227 1.26856,-0.845705 2.08608,-2.227025 2.79083,-4.115767 0.70476,-1.860553 1.18399,-4.256719 1.18399,-7.273069 0,-3.608344 -0.36647,-6.286412 -1.09942,-8.062394 -0.70475,-1.804172 -1.63503,-3.04454 -2.73444,-3.805676 -1.12761,-0.732944 -2.42436,-1.099417 -3.86206,-1.099417 z"
     style="fill:#f4171c;fill-opacity:1;fill-rule:nonzero;stroke-width:0.39153039"
     inkscape:connector-curvature="0" /><path
     id="path40"
     d="m 166.39837,21.453026 v 11.247886 h 0.62018 c 1.94513,0 2.70626,-0.563804 3.58016,-1.719602 0.87389,-1.127607 1.4377,-2.790829 1.66322,-5.017853 h 0.8739 v 14.9408 h -0.8739 c -0.16914,-1.635031 -0.5638,-2.95997 -1.12761,-4.003007 -0.59199,-1.043037 -1.26856,-1.747792 -2.02969,-2.086074 -0.76114,-0.366473 -1.24037,-0.535614 -2.70626,-0.535614 v 8.372486 c 0,1.578651 0.0846,2.537117 0.22552,2.8754 0.14095,0.366472 0.39466,0.648374 0.78933,0.873895 0.39466,0.225522 1.01484,0.338283 1.91693,0.338283 h 1.83236 c 2.84721,0 3.66473,-0.620184 5.38433,-1.860553 1.7196,-1.212178 2.90359,-2.621687 3.66472,-5.158804 h 0.84571 l -1.32494,8.598007 h -25.06108 v -0.789325 h 1.04304 c 0.87389,0 1.60684,-0.140951 2.14245,-0.422853 0.39467,-0.197331 0.70476,-0.535613 0.90209,-1.014847 0.16914,-0.338282 0.25371,-1.212178 0.25371,-2.649877 V 24.666708 c 0,-1.268559 -0.0282,-2.057884 -0.11276,-2.367976 -0.14095,-0.479233 -0.42285,-0.873896 -0.84571,-1.127608 -0.5638,-0.394662 -1.35312,-0.591994 -2.33978,-0.591994 h -1.04304 v -0.789325 h 25.70945 v 8.428867 h -0.8457 c -0.45104,-2.057884 -1.04304,-3.523774 -1.86055,-4.42586 -0.78933,-0.902086 -1.88875,-1.55046 -3.35464,-1.973313 -0.8457,-0.253712 -2.42435,-0.366473 -4.76414,-0.366473 z"
     style="fill:#f4171c;fill-opacity:1;fill-rule:nonzero;stroke-width:0.39153039"
     inkscape:connector-curvature="0" /><path
     id="path42"
     d="m 121.54778,31.094071 h 0.16914 c 1.60684,0 2.90359,1.268558 2.90359,2.790829 0,1.52227 -1.29675,2.762638 -2.90359,2.762638 h -0.16914 c -1.60684,0 -2.90359,-1.240368 -2.90359,-2.762638 0,-1.522271 1.29675,-2.790829 2.90359,-2.790829 z"
     style="fill:#f4171c;fill-opacity:1;stroke-width:0.39153039"
     inkscape:connector-curvature="0" /></g>
</svg>