<?xml version="1.0" encoding="UTF-8" standalone="no"?>
<!-- Generator: Gravit.io -->

<svg
   xmlns:dc="http://purl.org/dc/elements/1.1/"
   xmlns:cc="http://creativecommons.org/ns#"
   xmlns:rdf="http://www.w3.org/1999/02/22-rdf-syntax-ns#"
   xmlns:svg="http://www.w3.org/2000/svg"
   xmlns="http://www.w3.org/2000/svg"
   xmlns:sodipodi="http://sodipodi.sourceforge.net/DTD/sodipodi-0.dtd"
   xmlns:inkscape="http://www.inkscape.org/namespaces/inkscape"
   style="isolation:isolate"
   viewBox="0 0 302.341 66.534"
   width="302.341"
   height="66.534"
   version="1.1"
   id="svg9"
   sodipodi:docname="system.svg"
   enable-background="new"
   inkscape:version="0.92.3 (2405546, 2018-03-11)">
  <metadata
     id="metadata15">
    <rdf:RDF>
      <cc:Work
         rdf:about="">
        <dc:format>image/svg+xml</dc:format>
        <dc:type
           rdf:resource="http://purl.org/dc/dcmitype/StillImage" />
      </cc:Work>
    </rdf:RDF>
  </metadata>
  <defs
     id="defs13" />
  <sodipodi:namedview
     pagecolor="#ffffff"
     bordercolor="#666666"
     borderopacity="1"
     objecttolerance="10"
     gridtolerance="10"
     guidetolerance="10"
     inkscape:pageopacity="0"
     inkscape:pageshadow="2"
     inkscape:window-width="1915"
     inkscape:window-height="914"
     id="namedview11"
     showgrid="false"
     inkscape:zoom="1.2006311"
     inkscape:cx="-28.734886"
     inkscape:cy="33.266999"
     inkscape:window-x="0"
     inkscape:window-y="0"
     inkscape:window-maximized="0"
     inkscape:current-layer="svg9" />
  <linearGradient
     id="_lgradient_0"
     x1="-4.7570861e-06"
     y1="70.915351"
     x2="141.83074"
     y2="70.915351"
     gradientTransform="matrix(2.0318712,0,0,0.39276654,-4.7490853e-7,10.827638)"
     gradientUnits="userSpaceOnUse">
    <stop
       offset="100%"
       stop-opacity="1"
       style="stop-color:rgb(255,255,255)"
       id="stop2" />
    <stop
       offset="100%"
       stop-opacity="1"
       style="stop-color:rgb(0,0,0)"
       id="stop4" />
  </linearGradient>
  <path
     d="m 77.640647,5.830266 c -0.17443,-8.38e-4 -0.342187,0.06028 -0.466099,0.168289 L 74.04911,8.743936 C 73.926151,8.851943 73.857523,8.999301 73.858476,9.15252 v 16.472284 c -9.53e-4,0.153219 0.06767,0.300577 0.190634,0.408584 l 3.125438,2.74538 c 0.123912,0.108007 0.291669,0.169127 0.466099,0.16829 h 18.751675 c 0.363157,0 0.656733,-0.258714 0.657686,-0.57771 v -5.489925 c -9.53e-4,-0.318996 -0.294529,-0.576873 -0.657686,-0.57771 H 81.422818 v -9.826102 h 11.844066 c 0.248777,0 0.476584,-0.123078 0.588105,-0.31816 L 96.980427,6.66669 c 0.101989,-0.179174 0.0915,-0.391839 -0.02859,-0.561803 -0.119146,-0.170801 -0.331703,-0.274621 -0.55951,-0.274621 z m 21.534926,0 c -0.362204,0 -0.656733,0.258713 -0.656733,0.57771 v 19.216828 c -9.53e-4,0.153219 0.06863,0.300577 0.191587,0.408584 l 3.124483,2.74538 c 0.12391,0.108007 0.29167,0.169127 0.4661,0.16829 h 15.62719 c 0.24878,0 0.47563,-0.123077 0.58811,-0.318159 l 3.12448,-5.490762 c 0.0457,-0.08038 0.0696,-0.169127 0.0696,-0.258714 V 6.407976 c 0,-0.318997 -0.29453,-0.57771 -0.65673,-0.57771 h -6.25087 c -0.36316,0 -0.65674,0.258713 -0.65769,0.57771 v 15.893737 h -8.06097 V 6.407976 c -9.5e-4,-0.318997 -0.29452,-0.57771 -0.65768,-0.57771 z m 27.786757,0 c -0.17443,-8.38e-4 -0.34219,0.06028 -0.4661,0.168289 l -3.12544,2.745381 c -0.12296,0.108007 -0.19158,0.255365 -0.19158,0.408584 v 8.236142 c 0,0.153219 0.0686,0.300577 0.19158,0.409421 l 3.12544,2.74538 c 0.12391,0.108007 0.29167,0.16829 0.4661,0.167453 h 11.84407 v 1.590797 h -14.96951 c -0.36316,8.37e-4 -0.65673,0.258714 -0.65768,0.57771 v 5.489925 c 9.5e-4,0.318996 0.29452,0.57771 0.65768,0.57771 h 15.62624 c 0.17443,8.37e-4 0.34219,-0.06028 0.4661,-0.16829 l 6.25087,-5.489924 c 0.12296,-0.108844 0.19159,-0.256202 0.19064,-0.409421 v -8.236142 c 0,-0.318997 -0.29358,-0.576873 -0.65674,-0.576873 h -14.9695 v -1.590797 h 14.9695 c 0.24878,0 0.47659,-0.123078 0.58811,-0.31816 l 3.12544,-5.490761 c 0.10199,-0.179174 0.0906,-0.391839 -0.0286,-0.561803 -0.1201,-0.170801 -0.3317,-0.274621 -0.55951,-0.274621 z m 24.66036,0 c -0.36315,0 -0.65673,0.258713 -0.65768,0.57771 V 11.8979 c 9.5e-4,0.318997 0.29453,0.576874 0.65768,0.577711 h 7.15639 v 15.893737 c 0,0.318996 0.29357,0.57771 0.65673,0.57771 h 6.25088 c 0.36316,0 0.65673,-0.258714 0.65673,-0.57771 V 12.475611 h 4.03095 c 0.17443,0 0.34219,-0.06028 0.4661,-0.16829 l 6.25087,-5.490761 c 0.18778,-0.164941 0.24497,-0.413607 0.14203,-0.629621 -0.10199,-0.216013 -0.34219,-0.356673 -0.60813,-0.356673 z m 30.91124,0 c -0.17443,-8.38e-4 -0.34218,0.06028 -0.4661,0.168289 l -3.12543,2.745381 c -0.12296,0.108007 -0.19159,0.255365 -0.19064,0.408584 v 16.472284 c -9.5e-4,0.153219 0.0677,0.300577 0.19064,0.408584 l 3.12543,2.74538 c 0.12392,0.108007 0.29167,0.169127 0.4661,0.16829 h 15.62624 c 0.17538,8.37e-4 0.34219,-0.06028 0.4661,-0.16829 l 3.12544,-2.74538 c 0.12296,-0.108007 0.19158,-0.255365 0.19158,-0.408584 V 9.15252 c 0,-0.153219 -0.0686,-0.300577 -0.19158,-0.408584 l -3.12544,-2.745381 c -0.12391,-0.108007 -0.29072,-0.169127 -0.4661,-0.168289 z m 24.66037,0 c -0.17443,-8.38e-4 -0.34219,0.06028 -0.46515,0.168289 l -3.12544,2.745381 c -0.12296,0.108007 -0.19254,0.255365 -0.19158,0.408584 v 19.216828 c 0,0.318996 0.29453,0.57771 0.65673,0.57771 h 6.25088 c 0.36315,0 0.65673,-0.258714 0.65768,-0.57771 V 12.475611 h 1.81102 v 15.893737 c 0,0.318996 0.29358,0.57771 0.65673,0.57771 h 6.25088 c 0.36316,0 0.65673,-0.258714 0.65673,-0.57771 V 12.475611 h 1.81102 v 15.893737 c 9.5e-4,0.318996 0.29453,0.57771 0.65769,0.57771 h 6.24992 c 0.36316,0 0.65769,-0.258714 0.65769,-0.57771 V 9.15252 c 9.5e-4,-0.153219 -0.0686,-0.300577 -0.19159,-0.408584 l -3.12544,-2.745381 c -0.12296,-0.108007 -0.29072,-0.169127 -0.46514,-0.168289 h -7.81408 c -0.24877,0 -0.47563,0.123077 -0.5881,0.318159 l -0.97414,1.7122 -0.97509,-1.7122 C 215.484,5.953343 215.25619,5.830266 215.00837,5.830266 Z m -20.8782,6.645345 h 8.0619 v 9.826102 h -8.0619 z M 11.742421,35.154515 c -0.17443,-8.37e-4 -0.342187,0.05945 -0.466099,0.167453 l -3.5886778,3.153127 c -0.1229586,0.108844 -0.1925399,0.256202 -0.1915867,0.409421 v 18.922112 c -9.532e-4,0.153219 0.068628,0.300577 0.1915867,0.408583 l 3.5886778,3.153127 c 0.123912,0.108007 0.291669,0.16829 0.466099,0.16829 h 21.541598 c 0.363157,-8.37e-4 0.656733,-0.258714 0.656733,-0.57771 v -6.307092 c 0,-0.318997 -0.293576,-0.576873 -0.656733,-0.577711 H 15.988785 V 42.616191 h 13.703697 c 0.248777,0 0.476584,-0.123078 0.588105,-0.31816 l 3.591537,-6.307091 c 0.101989,-0.179174 0.0915,-0.391839 -0.0286,-0.56264 -0.1201,-0.169964 -0.331703,-0.273785 -0.55951,-0.273785 z m 28.327201,0 c -0.174429,-8.37e-4 -0.342187,0.05945 -0.466099,0.167453 l -3.588678,3.153127 c -0.122958,0.108844 -0.192539,0.256202 -0.191586,0.409421 v 18.922112 c -9.53e-4,0.153219 0.06863,0.300577 0.191586,0.408583 l 3.588678,3.153127 c 0.123912,0.108007 0.29167,0.16829 0.466099,0.16829 h 17.950061 c 0.17443,0 0.342187,-0.06028 0.466099,-0.16829 l 3.591537,-3.153127 c 0.122959,-0.108006 0.191587,-0.255364 0.190634,-0.408583 V 38.884516 c 9.53e-4,-0.153219 -0.06768,-0.300577 -0.190634,-0.409421 l -3.591537,-3.153127 c -0.123912,-0.108007 -0.291669,-0.16829 -0.466099,-0.167453 z m 24.738524,0 c -0.363157,0 -0.657686,0.258714 -0.657686,0.576874 v 25.227529 c 0,0.318996 0.294529,0.576873 0.657686,0.57771 h 21.540645 c 0.248776,0 0.476584,-0.123077 0.588104,-0.318159 l 3.589631,-6.307929 c 0.101989,-0.178337 0.0915,-0.391839 -0.02859,-0.561803 -0.120099,-0.170801 -0.331702,-0.274622 -0.55951,-0.274622 H 72.645094 V 35.731389 c 0,-0.31816 -0.293576,-0.576874 -0.656733,-0.576874 z m 28.327201,0 c -0.363157,0 -0.657686,0.258714 -0.657686,0.576874 v 25.227529 c 0,0.318996 0.294529,0.576873 0.657686,0.57771 h 21.540643 c 0.24878,0 0.47659,-0.123077 0.58811,-0.318159 l 3.58963,-6.307929 c 0.10199,-0.178337 0.0915,-0.391839 -0.0286,-0.561803 -0.12009,-0.170801 -0.3317,-0.274622 -0.55951,-0.274622 H 100.97229 V 35.731389 c 0,-0.31816 -0.29357,-0.576874 -0.65673,-0.576874 z m 28.329113,0 c -0.36316,0 -0.65674,0.258714 -0.65769,0.576874 v 25.227529 c 9.5e-4,0.318996 0.29453,0.576873 0.65769,0.57771 h 21.53873 c 0.36316,-8.37e-4 0.65769,-0.258714 0.65769,-0.57771 v -6.307092 c 0,-0.318997 -0.29453,-0.576873 -0.65769,-0.577711 h -13.70083 v -1.997706 h 13.70083 c 0.36316,0 0.65769,-0.258713 0.65769,-0.57771 v -6.307092 c 0,-0.318996 -0.29453,-0.576873 -0.65769,-0.576873 h -13.70083 v -1.998543 h 13.70083 c 0.36316,0 0.65769,-0.258714 0.65769,-0.577711 v -6.307091 c 0,-0.31816 -0.29453,-0.576874 -0.65769,-0.576874 z m 28.3272,0 c -0.17443,-8.37e-4 -0.34219,0.05945 -0.4661,0.167453 l -3.58963,3.153127 c -0.12296,0.108844 -0.19159,0.256202 -0.19064,0.409421 v 18.922112 c -9.5e-4,0.153219 0.0677,0.300577 0.19064,0.408583 l 3.58963,3.153127 c 0.12391,0.108007 0.29167,0.16829 0.4661,0.16829 h 21.53874 c 0.36315,-8.37e-4 0.65768,-0.258714 0.65768,-0.57771 v -6.307092 c 0,-0.318997 -0.29453,-0.576873 -0.65768,-0.577711 H 154.03802 V 42.616191 h 13.7037 c 0.24878,0 0.47658,-0.123078 0.5881,-0.31816 l 3.58868,-6.307091 c 0.10199,-0.179174 0.0915,-0.391839 -0.0286,-0.56264 -0.11915,-0.169964 -0.33075,-0.273785 -0.55951,-0.273785 z m 24.73757,0 c -0.36221,0 -0.65673,0.258714 -0.65673,0.576874 v 6.307091 c 0,0.318997 0.29452,0.577711 0.65673,0.577711 h 8.3183 v 18.342727 c 0,0.318996 0.29452,0.576873 0.65673,0.57771 h 7.18117 c 0.3622,-8.37e-4 0.65673,-0.258714 0.65673,-0.57771 V 42.616191 h 8.3183 c 0.3622,0 0.65673,-0.258714 0.65673,-0.577711 v -6.307091 c 0,-0.31816 -0.29453,-0.576874 -0.65673,-0.576874 z m 28.3272,0 c -0.3622,0 -0.65673,0.258714 -0.65673,0.576874 v 25.227529 c 0,0.318996 0.29453,0.576873 0.65673,0.57771 h 7.18117 c 0.3622,-8.37e-4 0.65673,-0.258714 0.65673,-0.57771 V 35.731389 c 0,-0.31816 -0.29453,-0.576874 -0.65673,-0.576874 z m 13.96868,0 c -0.17443,-8.37e-4 -0.34219,0.05945 -0.4661,0.167453 l -3.59154,3.153127 c -0.12296,0.108844 -0.19159,0.256202 -0.19063,0.409421 v 18.922112 c -9.6e-4,0.153219 0.0677,0.300577 0.19063,0.408583 l 3.59154,3.153127 c 0.12391,0.108007 0.29167,0.16829 0.4661,0.16829 h 17.95006 c 0.17443,0 0.34218,-0.06028 0.4661,-0.16829 l 3.58867,-3.153127 c 0.12296,-0.108006 0.19254,-0.255364 0.19159,-0.408583 V 38.884516 c 9.5e-4,-0.153219 -0.0686,-0.300577 -0.19159,-0.409421 l -3.58867,-3.153127 c -0.12392,-0.108007 -0.29167,-0.16829 -0.4661,-0.167453 z m 24.73757,0 c -0.36221,0 -0.65674,0.258714 -0.65674,0.576874 v 25.227529 c 0,0.318996 0.29453,0.576873 0.65674,0.57771 h 7.17831 c 0.36315,-8.37e-4 0.65768,-0.258714 0.65768,-0.57771 V 47.638086 l 7.73019,13.580383 c 0.11153,0.195082 0.33933,0.318159 0.58716,0.318159 h 8.97598 c 0.3622,-8.37e-4 0.65673,-0.258714 0.65673,-0.57771 V 35.731389 c 0,-0.31816 -0.29453,-0.576874 -0.65673,-0.576874 h -7.17926 c -0.36221,0 -0.65673,0.258714 -0.65673,0.576874 V 49.05222 l -7.7302,-13.579545 c -0.11152,-0.195082 -0.33933,-0.31816 -0.5881,-0.31816 z m 31.91683,0 c -0.17443,-8.37e-4 -0.34219,0.05945 -0.4661,0.167453 l -3.58963,3.153127 c -0.12296,0.108844 -0.19159,0.256202 -0.19063,0.409421 v 9.461893 c -9.6e-4,0.153219 0.0677,0.300577 0.19063,0.409421 l 3.58963,3.15229 c 0.12391,0.108006 0.29167,0.168289 0.4661,0.168289 h 13.7037 v 1.997706 h -17.29333 c -0.36221,8.38e-4 -0.65673,0.258714 -0.65673,0.577711 v 6.307092 c 0,0.318996 0.29452,0.576873 0.65673,0.57771 h 17.95006 c 0.17538,0 0.34219,-0.06028 0.4661,-0.16829 l 7.18117,-6.307091 c 0.12296,-0.108844 0.19158,-0.256202 0.19063,-0.409421 v -9.460219 c 0,-0.318996 -0.29453,-0.576873 -0.65673,-0.576873 h -17.29333 v -1.998543 h 17.29333 c 0.3622,0 0.65673,-0.258714 0.65673,-0.577711 v -6.307091 c 0,-0.31816 -0.29453,-0.576874 -0.65673,-0.576874 z M 44.317892,42.616191 h 9.455427 v 11.457924 h -9.455427 z m 176.753578,0 h 9.45543 v 11.457924 h -9.45543 z"
     id="path7"
     style="fill:#ff0000;stroke:#ffffff;stroke-width:2.5;stroke-miterlimit:4;stroke-dasharray:none;stroke-opacity:1"
     inkscape:connector-curvature="0" />
</svg>
