<?xml version="1.0" encoding="UTF-8" standalone="no"?>
<svg
   xmlns:dc="http://purl.org/dc/elements/1.1/"
   xmlns:cc="http://creativecommons.org/ns#"
   xmlns:rdf="http://www.w3.org/1999/02/22-rdf-syntax-ns#"
   xmlns:svg="http://www.w3.org/2000/svg"
   xmlns="http://www.w3.org/2000/svg"
   xmlns:sodipodi="http://sodipodi.sourceforge.net/DTD/sodipodi-0.dtd"
   xmlns:inkscape="http://www.inkscape.org/namespaces/inkscape"
   width="2369.4983"
   height="477.45596"
   viewBox="0 0 182.69401 36.813001"
   version="1.1"
   id="svg10"
   sodipodi:docname="naomi.svg"
   inkscape:version="0.92.3 (2405546, 2018-03-11)">
  <metadata
     id="metadata16">
    <rdf:RDF>
      <cc:Work
         rdf:about="">
        <dc:format>image/svg+xml</dc:format>
        <dc:type
           rdf:resource="http://purl.org/dc/dcmitype/StillImage" />
        <dc:title></dc:title>
      </cc:Work>
    </rdf:RDF>
  </metadata>
  <defs
     id="defs14" />
  <sodipodi:namedview
     pagecolor="#ffffff"
     bordercolor="#666666"
     borderopacity="1"
     objecttolerance="10"
     gridtolerance="10"
     guidetolerance="10"
     inkscape:pageopacity="0"
     inkscape:pageshadow="2"
     inkscape:window-width="1664"
     inkscape:window-height="762"
     id="namedview12"
     showgrid="false"
     fit-margin-top="0"
     fit-margin-left="0"
     fit-margin-right="0"
     fit-margin-bottom="0"
     inkscape:zoom="0.3776"
     inkscape:cx="1111.8097"
     inkscape:cy="-96.793152"
     inkscape:window-x="0"
     inkscape:window-y="0"
     inkscape:window-maximized="0"
     inkscape:current-layer="svg10" />
  <path
     style="clip-rule:evenodd;fill:#ffffff;fill-rule:evenodd"
     inkscape:connector-curvature="0"
     id="path4"
     d="M 31.318,34.432 V 0.824 H 25.732 L 25.824,22.436 0,1.099 0.091,34.799 H 4.945 V 13.004 Z m 3.572,0.549 4.304,-7.326 h -3.938 v -5.127 h 6.502 L 53.571,1.099 72.436,34.981 H 65.751 L 61.905,27.655 H 45.147 l -4.029,7.326 z M 47.436,22.436 H 59.524 L 53.48,11.355 Z m 72.803,12.545 h -5.494 V 1.19 l 18.681,21.703 18.864,-22.16 v 34.248 h -5.862 l -0.09,-18.406 -13.004,15.66 -13.095,-15.569 z m 42.674,0 0.091,-34.615 h 5.586 l -0.091,34.615 z M 173.719,6.044 V 1.19 h -1.556 V 0.274 h 4.304 V 1.19 h -1.65 v 4.854 z m 3.022,-0.092 V 0.274 h 1.556 l 1.649,3.572 1.556,-3.572 h 1.192 v 5.77 h -1.1 V 2.289 l -1.556,3.755 -2.198,-3.755 v 3.755 z" />
  <path
     style="clip-rule:evenodd;fill:#cc2229;fill-rule:evenodd"
     inkscape:connector-curvature="0"
     id="path6"
     d="M 72.253,18.407 C 72.253,8.242 80.495,0 90.661,0 c 10.164,0 18.406,8.242 18.406,18.407 0,10.164 -8.242,18.406 -18.406,18.406 -10.166,0 -18.408,-8.242 -18.408,-18.406 z m 18.408,12.912 c 7.143,0 12.91,-5.77 12.91,-12.912 0,-7.051 -5.768,-12.821 -12.91,-12.821 -7.052,0 -12.822,5.77 -12.822,12.821 0,7.142 5.769,12.912 12.822,12.912 z" />
</svg>
