<?xml version="1.0" encoding="UTF-8" standalone="no"?>
<!-- Svg Vector Icons : http://www.onlinewebfonts.com/icon -->

<svg
   xmlns:dc="http://purl.org/dc/elements/1.1/"
   xmlns:cc="http://creativecommons.org/ns#"
   xmlns:rdf="http://www.w3.org/1999/02/22-rdf-syntax-ns#"
   xmlns:svg="http://www.w3.org/2000/svg"
   xmlns="http://www.w3.org/2000/svg"
   xmlns:sodipodi="http://sodipodi.sourceforge.net/DTD/sodipodi-0.dtd"
   xmlns:inkscape="http://www.inkscape.org/namespaces/inkscape"
   version="1.1"
   x="0px"
   y="0px"
   viewBox="0 0 2500 1000"
   enable-background="new 0 0 1000 1000"
   xml:space="preserve"
   id="svg939"
   sodipodi:docname="system.svg"
   width="2500"
   height="1000"
   inkscape:version="0.92.3 (2405546, 2018-03-11)"><defs
   id="defs943" /><sodipodi:namedview
   pagecolor="#ffffff"
   bordercolor="#666666"
   borderopacity="1"
   objecttolerance="10"
   gridtolerance="10"
   guidetolerance="10"
   inkscape:pageopacity="0"
   inkscape:pageshadow="2"
   inkscape:window-width="1920"
   inkscape:window-height="1015"
   id="namedview941"
   showgrid="false"
   inkscape:zoom="0.4135"
   inkscape:cx="958.61677"
   inkscape:cy="481.93416"
   inkscape:window-x="0"
   inkscape:window-y="0"
   inkscape:window-maximized="1"
   inkscape:current-layer="svg939" />
<metadata
   id="metadata907"> Svg Vector Icons : http://www.onlinewebfonts.com/icon <rdf:RDF><cc:Work
     rdf:about=""><dc:format>image/svg+xml</dc:format><dc:type
       rdf:resource="http://purl.org/dc/dcmitype/StillImage" /><dc:title /></cc:Work></rdf:RDF></metadata>
<path
   d="m 1246.5234,65.15775 -4.311,4.131 v 170.262 170.253 l -8.964,2.241 c -31.878,7.407 -59.796,35.325 -67.203,67.032 l -2.241,9.135 h -170.25299 -170.262 l -4.14,4.311 c -5.166,4.995 -5.508,12.753 -1.026,18.261 l 3.276,4.14 171.288,0.513 171.11699,0.342 2.241,9.135 c 7.236,31.365 35.676,59.796 67.203,67.032 l 8.964,2.241 v 170.253 170.262 l 4.311,4.14 c 4.995,5.166 12.753,5.517 18.261,1.035 l 4.14,-3.276 0.513,-171.297 0.342,-171.117 9.135,-2.241 c 31.365,-7.236 59.796,-35.667 67.032,-67.032 l 2.241,-9.135 171.117,-0.342 171.306,-0.513 3.276,-4.14 c 4.482,-5.517 4.14,-13.266 -1.035,-18.261 l -4.14,-4.311 h -170.262 -170.253 l -2.241,-9.135 c -7.236,-31.365 -35.667,-59.796 -67.032,-67.032 l -9.135,-2.241 -0.342,-171.117 -0.513,-171.297 -4.14,-3.276 c -5.517,-4.473 -13.275,-4.131 -18.27,1.044 z"
   id="path909"
   inkscape:connector-curvature="0"
   style="stroke-width:0.09;fill:#e11011;fill-opacity:1" /><path
   d="m 1206.0234,91.34775 c -31.194,3.276 -80.127,16.713 -115.11,31.707 -94.60799,40.5 -174.22199,120.627 -214.54199,215.406 -14.823,34.641 -27.747,82.719 -31.194,115.632 l -1.035,9.99 h 13.617 c 7.407,0 15.858,-0.513 18.612,-1.035 4.995,-1.035 5.346,-1.548 6.201,-11.205 3.618,-33.435 17.919,-80.307 35.496,-116.145 30.33,-61.173 73.413,-110.286 130.27499,-148.203 44.631,-29.637 109.431,-53.766 157.68,-58.932 l 10.341,-1.035 v -18.612 c 0,-13.959 -0.513,-18.783 -2.07,-18.441 -1.206,0.009 -4.995,0.531 -8.271,0.873 z"
   id="path911"
   inkscape:connector-curvature="0"
   style="stroke-width:0.09;fill:#e6e6e6;fill-opacity:1" /><path
   d="m 1293.9084,106.85475 c 0,9.306 0.693,17.748 1.377,18.783 0.693,1.035 5.859,2.412 11.547,3.105 31.536,3.618 76.689,16.884 108.396,31.878 94.437,44.46 166.293,125.451 198.342,223.335 7.758,23.265 13.959,50.319 15.858,68.067 l 1.035,10.341 h 18.783 18.954 l -1.035,-4.824 c -0.513,-2.583 -1.377,-8.964 -1.899,-14.13 -1.728,-15.336 -9.306,-47.736 -15.858,-68.067 -20.331,-62.901 -54.108,-118.215 -101.331,-165.429 -67.203,-67.203 -146.997,-105.633 -245.907,-118.908 l -8.271,-1.035 v 16.884 z"
   id="path913"
   inkscape:connector-curvature="0"
   style="stroke-width:0.09;fill:#e6e6e6;fill-opacity:1" /><path
   d="m 1193.0994,195.94575 c -59.967,12.582 -114.426,42.048 -157.851,85.302 -43.94699,44.118 -74.26799,100.98 -85.81499,161.127 -2.07,10.17 -3.618,18.783 -3.618,19.305 0,0.342 8.442,0.693 18.612,0.693 h 18.612 l 2.925,-15.507 c 6.723,-34.812 24.12899,-74.961 45.49499,-105.12 14.994,-20.853 43.425,-49.284 64.278,-64.278 30.159,-21.366 70.308,-38.772 105.12,-45.495 l 15.507,-2.925 v -18.612 c 0,-13.788 -0.513,-18.612 -2.07,-18.441 -1.206,-0.009 -10.683,1.89 -21.195,3.951 z"
   id="path915"
   inkscape:connector-curvature="0"
   style="stroke-width:0.09;fill:#e6e6e6;fill-opacity:1" /><path
   d="m 1295.6364,210.42675 v 18.612 l 15.678,3.105 c 22.401,4.131 44.118,11.718 67.896,23.607 27.225,13.437 49.284,29.466 71.514,51.525 22.059,22.23 38.088,44.289 51.525,71.514 11.889,23.778 19.476,45.495 23.607,67.896 l 3.105,15.678 h 18.441 18.612 l -1.035,-6.552 c -12.582,-85.644 -63.072,-165.087 -136.485,-214.029 -18.441,-12.411 -54.45,-29.817 -76.167,-36.882 -14.13,-4.653 -50.49,-13.095 -56.007,-13.095 -0.342,0.009 -0.684,8.451 -0.684,18.621 z"
   id="path917"
   inkscape:connector-curvature="0"
   style="stroke-width:0.09;fill:#e6e6e6;fill-opacity:1" /><path
   d="m 1198.6164,308.13075 c -51.525,15.336 -97.362,53.595 -122.175,101.844 -7.407,14.472 -14.994,34.461 -17.748,46.701 l -1.206,5.688 h 18.783 18.612 l 5.166,-14.994 c 7.929,-23.265 19.818,-41.877 39.636,-61.695 19.818,-19.818 38.43,-31.707 61.695,-39.636 l 14.994,-5.166 v -18.441 c 0,-13.788 -0.513,-18.612 -2.07,-18.441 -1.215,0.009 -8.28,1.899 -15.687,4.14 z"
   id="path919"
   inkscape:connector-curvature="0"
   style="stroke-width:0.09;fill:#e6e6e6;fill-opacity:1" /><path
   d="m 1295.6364,322.26075 v 18.612 l 14.994,5.166 c 23.265,7.929 41.877,19.818 61.695,39.636 19.818,19.818 31.707,38.43 39.636,61.695 l 5.166,14.994 h 18.441 c 11.205,0 18.612,-0.693 18.612,-1.728 0,-4.482 -11.376,-36.702 -16.713,-47.394 -19.647,-39.114 -51.183,-71.172 -89.433,-90.819 -14.472,-7.407 -34.47,-14.994 -46.701,-17.748 l -5.688,-1.206 v 18.792 z"
   id="path921"
   inkscape:connector-curvature="0"
   style="stroke-width:0.09;fill:#e6e6e6;fill-opacity:1" /><path
   d="m 861.71941,541.29375 -17.748,0.513 1.206,8.964 c 14.643,120.798 82.539,230.049 184.21199,296.739 41.706,27.225 83.403,45.153 131.832,56.871 14.301,3.447 48.942,9.306 55.665,9.477 1.377,0 1.719,-24.984 0.171,-32.229 -1.035,-4.995 -1.548,-5.337 -11.205,-6.201 -17.577,-1.899 -44.802,-8.271 -67.896,-15.858 -97.884,-32.049 -178.87499,-104.085 -223.33499,-198.351 -15.165,-32.049 -28.782,-78.579 -32.049,-109.422 -0.513,-5.688 -1.548,-10.512 -2.07,-10.683 -0.513,-0.171 -8.964,-0.171 -18.783,0.18 z"
   id="path923"
   inkscape:connector-curvature="0"
   style="stroke-width:0.09;fill:#e6e6e6;fill-opacity:1" /><path
   d="m 1632.3624,541.29375 c -1.035,0.693 -2.754,8.1 -3.969,16.713 -4.311,32.4 -16.2,72.036 -31.365,104.085 -53.253,113.049 -160.785,193.698 -283.131,211.959 l -18.783,2.925 0.342,17.919 c 0.171,9.99 0.522,18.261 0.864,18.441 0.864,1.035 38.259,-5.166 54.459,-8.964 75.654,-18.09 142.344,-55.485 197.316,-110.286 33.948,-34.119 58.248,-68.067 79.443,-112.014 21.366,-44.118 32.571,-81.684 39.465,-134.073 l 1.035,-8.1 h -16.884 c -9.315,0.009 -17.757,0.702 -18.792,1.395 z"
   id="path925"
   inkscape:connector-curvature="0"
   style="stroke-width:0.09;fill:#e6e6e6;fill-opacity:1" /><path
   d="m 945.81541,542.31975 c 0,5.517 8.442,41.877 13.095,56.007 6.894,21.195 24.471,57.726 36.018,75.132 12.58199,18.612 32.74199,42.741 45.32399,54.45 49.626,45.495 102.708,71.685 169.74,83.232 l 6.372,1.206 v -18.783 -18.612 l -15.507,-2.925 c -34.119,-6.552 -75.132,-24.471 -105.12,-45.666 -20.853,-14.823 -49.284,-43.254 -64.107,-64.107 -21.708,-30.501 -38.94299,-70.308 -45.66599,-105.12 l -2.925,-15.507 h -18.612 c -10.17,0.009 -18.612,0.351 -18.612,0.693 z"
   id="path927"
   inkscape:connector-curvature="0"
   style="stroke-width:0.09;fill:#e6e6e6;fill-opacity:1" /><path
   d="m 1058.6844,547.15275 c 12.231,56.178 54.63,109.251 108.567,136.305 10.683,5.337 42.912,16.713 47.394,16.713 1.035,0 1.719,-7.407 1.719,-18.612 v -18.441 l -14.994,-5.166 c -23.265,-7.929 -41.877,-19.818 -61.695,-39.636 -19.818,-19.818 -31.707,-38.43 -39.636,-61.695 l -5.166,-14.994 h -18.612 -18.783 z"
   id="path929"
   inkscape:connector-curvature="0"
   style="stroke-width:0.09;fill:#e6e6e6;fill-opacity:1" /><path
   d="m 1411.9524,556.62975 c -7.929,23.265 -19.818,41.877 -39.636,61.695 -19.818,19.818 -38.43,31.707 -61.695,39.636 l -14.994,5.166 v 18.441 c 0,11.205 0.684,18.612 1.728,18.612 4.482,0 36.702,-11.376 47.394,-16.713 39.114,-19.647 71.343,-51.183 90.819,-89.433 7.065,-13.788 14.823,-34.641 17.577,-47.736 l 1.035,-4.653 h -18.441 -18.612 z"
   id="path931"
   inkscape:connector-curvature="0"
   style="stroke-width:0.09;fill:#e6e6e6;fill-opacity:1" /><path
   d="m 1526.0364,557.14275 c -6.552,34.119 -24.471,75.132 -45.666,105.12 -14.823,20.853 -43.254,49.284 -64.107,64.107 -29.988,21.195 -71.001,39.114 -105.12,45.666 l -15.507,2.925 v 18.441 18.612 l 6.552,-1.035 c 72.891,-10.683 144.756,-50.661 191.457,-106.668 18.954,-22.743 29.466,-38.943 42.39,-65.313 14.814,-29.988 23.085,-55.656 29.115,-90.99 l 1.206,-6.372 h -18.783 -18.612 z"
   id="path933"
   inkscape:connector-curvature="0"
   style="stroke-width:0.09;fill:#e6e6e6;fill-opacity:1" />

<g
   id="g902"
   style="fill:#e11011;fill-opacity:1;stroke:#0044af;stroke-width:15;stroke-linecap:round;stroke-linejoin:round;stroke-miterlimit:4;stroke-dasharray:none;stroke-opacity:1"
   transform="translate(0,-32)"><path
     d="M 502.78249,381.91538 H 402.24916 l 66.4,-217.33333 h -53.86667 l -81.06666,265.33332 h 207.73332 z"
     style="font-style:normal;font-variant:normal;font-weight:bold;font-stretch:normal;font-size:266.66665649px;line-height:1.5;font-family:'BD SPACY 125';-inkscape-font-specification:'BD SPACY 125 Bold';font-variant-ligatures:normal;font-variant-caps:normal;font-variant-numeric:normal;font-feature-settings:normal;text-align:center;letter-spacing:0px;word-spacing:0px;writing-mode:lr-tb;text-anchor:middle;fill:#e11011;fill-opacity:1;stroke:#0044af;stroke-width:15;stroke-linecap:round;stroke-linejoin:round;stroke-miterlimit:4;stroke-dasharray:none;stroke-opacity:1"
     id="path854"
     inkscape:connector-curvature="0" /><path
     d="m 556.11166,429.91537 h 207.73332 l 15.2,-47.99999 h -77.33333 l 51.2,-166.93333 h 76.26666 l 15.73334,-50.4 h -207.2 l -15.73333,50.4 h 76.8 l -50.93333,166.93333 h -76.53333 z"
     style="font-style:normal;font-variant:normal;font-weight:bold;font-stretch:normal;font-size:266.66665649px;line-height:1.5;font-family:'BD SPACY 125';-inkscape-font-specification:'BD SPACY 125 Bold';font-variant-ligatures:normal;font-variant-caps:normal;font-variant-numeric:normal;font-feature-settings:normal;text-align:center;letter-spacing:0px;word-spacing:0px;writing-mode:lr-tb;text-anchor:middle;fill:#e11011;fill-opacity:1;stroke:#0044af;stroke-width:15;stroke-linecap:round;stroke-linejoin:round;stroke-miterlimit:4;stroke-dasharray:none;stroke-opacity:1"
     id="path856"
     inkscape:connector-curvature="0" /><path
     d="m 966.24081,320.04871 -18.66666,61.86667 H 847.04082 l 51.19999,-166.93333 h 101.33333 l 67.99996,-50.4 H 859.57415 l -81.06666,265.33332 h 179.73332 l 40.26667,-39.46666 25.33332,-79.2 10.9333,-40.53333 h -52.53329 -45.6 l -55.99999,49.33333 z"
     style="font-style:normal;font-variant:normal;font-weight:bold;font-stretch:normal;font-size:266.66665649px;line-height:1.5;font-family:'BD SPACY 125';-inkscape-font-specification:'BD SPACY 125 Bold';font-variant-ligatures:normal;font-variant-caps:normal;font-variant-numeric:normal;font-feature-settings:normal;text-align:center;letter-spacing:0px;word-spacing:0px;writing-mode:lr-tb;text-anchor:middle;fill:#e11011;fill-opacity:1;stroke:#0044af;stroke-width:15;stroke-linecap:round;stroke-linejoin:round;stroke-miterlimit:4;stroke-dasharray:none;stroke-opacity:1"
     id="path858"
     inkscape:connector-curvature="0" /><path
     d="m 1054.77,429.91537 33.3333,-109.86666 h 57.0667 l 50.9333,-49.33333 h -92.8 l 32.8,-106.13333 H 1081.97 l -81.0667,265.33332 z m 154.9333,0 81.3334,-265.33332 h -54.1334 l -81.0666,265.33332 z"
     style="font-style:normal;font-variant:normal;font-weight:bold;font-stretch:normal;font-size:266.66665649px;line-height:1.5;font-family:'BD SPACY 125';-inkscape-font-specification:'BD SPACY 125 Bold';font-variant-ligatures:normal;font-variant-caps:normal;font-variant-numeric:normal;font-feature-settings:normal;text-align:center;letter-spacing:0px;word-spacing:0px;writing-mode:lr-tb;text-anchor:middle;fill:#e11011;fill-opacity:1;stroke:#0044af;stroke-width:15;stroke-linecap:round;stroke-linejoin:round;stroke-miterlimit:4;stroke-dasharray:none;stroke-opacity:1"
     id="path860"
     inkscape:connector-curvature="0" /><path
     d="m 1353.9658,429.91537 66.1333,-214.93332 h 76.5334 l 15.2,-50.4 h -207.4667 l -14.6667,50.4 h 76.2667 l -65.8667,214.93332 z"
     style="font-style:normal;font-variant:normal;font-weight:bold;font-stretch:normal;font-size:266.66665649px;line-height:1.5;font-family:'BD SPACY 125';-inkscape-font-specification:'BD SPACY 125 Bold';font-variant-ligatures:normal;font-variant-caps:normal;font-variant-numeric:normal;font-feature-settings:normal;text-align:center;letter-spacing:0px;word-spacing:0px;writing-mode:lr-tb;text-anchor:middle;fill:#e11011;fill-opacity:1;stroke:#0044af;stroke-width:15;stroke-linecap:round;stroke-linejoin:round;stroke-miterlimit:4;stroke-dasharray:none;stroke-opacity:1"
     id="path862"
     inkscape:connector-curvature="0" /><path
     d="m 1633.4283,320.04871 -18.6667,61.86667 h -100.5333 l 51.2,-166.93333 h 101.3333 l 68,-50.4 h -208 l -81.0666,265.33332 h 179.7333 l 40.2666,-39.46666 25.3334,-79.2 10.9333,-40.53333 h -52.5333 -45.6 l -56,49.33333 z"
     style="font-style:normal;font-variant:normal;font-weight:bold;font-stretch:normal;font-size:266.66665649px;line-height:1.5;font-family:'BD SPACY 125';-inkscape-font-specification:'BD SPACY 125 Bold';font-variant-ligatures:normal;font-variant-caps:normal;font-variant-numeric:normal;font-feature-settings:normal;text-align:center;letter-spacing:0px;word-spacing:0px;writing-mode:lr-tb;text-anchor:middle;fill:#e11011;fill-opacity:1;stroke:#0044af;stroke-width:15;stroke-linecap:round;stroke-linejoin:round;stroke-miterlimit:4;stroke-dasharray:none;stroke-opacity:1"
     id="path864"
     inkscape:connector-curvature="0" /><path
     d="m 1848.0908,429.91537 40,-39.46666 70.1334,-225.86666 h -54.1334 l -66.4,217.33333 h -100.8 l 66.1334,-217.33333 h -53.6 l -66.6667,217.33333 39.7333,47.99999 z"
     style="font-style:normal;font-variant:normal;font-weight:bold;font-stretch:normal;font-size:266.66665649px;line-height:1.5;font-family:'BD SPACY 125';-inkscape-font-specification:'BD SPACY 125 Bold';font-variant-ligatures:normal;font-variant-caps:normal;font-variant-numeric:normal;font-feature-settings:normal;text-align:center;letter-spacing:0px;word-spacing:0px;writing-mode:lr-tb;text-anchor:middle;fill:#e11011;fill-opacity:1;stroke:#0044af;stroke-width:15;stroke-linecap:round;stroke-linejoin:round;stroke-miterlimit:4;stroke-dasharray:none;stroke-opacity:1"
     id="path866"
     inkscape:connector-curvature="0" /><path
     d="m 2111.8199,212.58205 -66.1333,217.33332 h 53.6 l 69.3333,-225.86665 -32.8,-39.46667 h -164.5333 l -80.8,265.33332 h 54.1333 l 66.4,-217.33332 z"
     style="font-style:normal;font-variant:normal;font-weight:bold;font-stretch:normal;font-size:266.66665649px;line-height:1.5;font-family:'BD SPACY 125';-inkscape-font-specification:'BD SPACY 125 Bold';font-variant-ligatures:normal;font-variant-caps:normal;font-variant-numeric:normal;font-feature-settings:normal;text-align:center;letter-spacing:0px;word-spacing:0px;writing-mode:lr-tb;text-anchor:middle;fill:#e11011;fill-opacity:1;stroke:#0044af;stroke-width:15;stroke-linecap:round;stroke-linejoin:round;stroke-miterlimit:4;stroke-dasharray:none;stroke-opacity:1"
     id="path868"
     inkscape:connector-curvature="0" /></g><g
   id="g909"
   style="fill:#0044af;fill-opacity:1;stroke:#e11011;stroke-width:15;stroke-linecap:round;stroke-linejoin:round;stroke-miterlimit:4;stroke-dasharray:none;stroke-opacity:1"
   transform="translate(0,44)"><path
     d="m 814.67831,720.0487 -18.66666,61.86666 H 695.47832 l 51.19999,-166.93333 h 101.33333 l 68,-50.39999 H 708.01165 l -81.06666,265.33332 h 179.73332 l 40.26667,-39.46667 25.33333,-79.19999 10.93333,-40.53333 h -52.53333 -45.6 l -56,49.33333 z"
     style="font-style:normal;font-variant:normal;font-weight:bold;font-stretch:normal;font-size:266.66665649px;line-height:1.5;font-family:'BD SPACY 125';-inkscape-font-specification:'BD SPACY 125 Bold';font-variant-ligatures:normal;font-variant-caps:normal;font-variant-numeric:normal;font-feature-settings:normal;text-align:center;letter-spacing:0px;word-spacing:0px;writing-mode:lr-tb;text-anchor:middle;fill:#0044af;fill-opacity:1;stroke:#e11011;stroke-width:15;stroke-linecap:round;stroke-linejoin:round;stroke-miterlimit:4;stroke-dasharray:none;stroke-opacity:1"
     id="path870"
     inkscape:connector-curvature="0" /><path
     d="m 1036.8075,695.78203 h -92.53336 l 24.53334,-80.8 h 100.26662 l -65.0666,214.93333 h 53.0666 l 65.3334,-214.93333 -37.3334,-50.39999 H 930.67414 l -81.33333,265.33332 h 53.86667 l 25.86666,-83.46666 h 57.33333 z"
     style="font-style:normal;font-variant:normal;font-weight:bold;font-stretch:normal;font-size:266.66665649px;line-height:1.5;font-family:'BD SPACY 125';-inkscape-font-specification:'BD SPACY 125 Bold';font-variant-ligatures:normal;font-variant-caps:normal;font-variant-numeric:normal;font-feature-settings:normal;text-align:center;letter-spacing:0px;word-spacing:0px;writing-mode:lr-tb;text-anchor:middle;fill:#0044af;fill-opacity:1;stroke:#e11011;stroke-width:15;stroke-linecap:round;stroke-linejoin:round;stroke-miterlimit:4;stroke-dasharray:none;stroke-opacity:1"
     id="path872"
     inkscape:connector-curvature="0" /><path
     d="m 1373.07,612.58203 -66.1334,217.33333 h 53.6 l 69.3334,-225.86666 -32.8,-39.46666 h -244.5334 l -80.8,265.33332 h 54.1334 l 66.4,-217.33333 h 63.7333 l -43.2,141.06667 63.7333,-33.6 32.5334,-107.46667 z"
     style="font-style:normal;font-variant:normal;font-weight:bold;font-stretch:normal;font-size:266.66665649px;line-height:1.5;font-family:'BD SPACY 125';-inkscape-font-specification:'BD SPACY 125 Bold';font-variant-ligatures:normal;font-variant-caps:normal;font-variant-numeric:normal;font-feature-settings:normal;text-align:center;letter-spacing:0px;word-spacing:0px;writing-mode:lr-tb;text-anchor:middle;fill:#0044af;fill-opacity:1;stroke:#e11011;stroke-width:15;stroke-linecap:round;stroke-linejoin:round;stroke-miterlimit:4;stroke-dasharray:none;stroke-opacity:1"
     id="path874"
     inkscape:connector-curvature="0" /><path
     d="m 1543.9283,781.91536 h -100.5334 l 18.6667,-61.86666 h 100.5333 l 35.2,-30.93334 -19.2,-18.39999 h -101.3333 l 17.3333,-55.73334 h 100.5334 l 68.2666,-50.39999 h -207.4666 l -81.0667,265.33332 h 207.7333 z"
     style="font-style:normal;font-variant:normal;font-weight:bold;font-stretch:normal;font-size:266.66665649px;line-height:1.5;font-family:'BD SPACY 125';-inkscape-font-specification:'BD SPACY 125 Bold';font-variant-ligatures:normal;font-variant-caps:normal;font-variant-numeric:normal;font-feature-settings:normal;text-align:center;letter-spacing:0px;word-spacing:0px;writing-mode:lr-tb;text-anchor:middle;fill:#0044af;fill-opacity:1;stroke:#e11011;stroke-width:15;stroke-linecap:round;stroke-linejoin:round;stroke-miterlimit:4;stroke-dasharray:none;stroke-opacity:1"
     id="path876"
     inkscape:connector-curvature="0" /><path
     d="m 1643.1241,678.4487 32.5334,41.6 h 109.3333 l -18.6667,61.86666 h -127.9999 l -41.0667,48 h 179.7333 l 40.2667,-39.46667 25.3333,-79.19999 -36.2667,-40.53333 h -106.6666 l 17.3333,-55.73334 h 125.6 l 49.8667,-50.39999 h -175.4667 l -50.9333,39.99999 z"
     style="font-style:normal;font-variant:normal;font-weight:bold;font-stretch:normal;font-size:266.66665649px;line-height:1.5;font-family:'BD SPACY 125';-inkscape-font-specification:'BD SPACY 125 Bold';font-variant-ligatures:normal;font-variant-caps:normal;font-variant-numeric:normal;font-feature-settings:normal;text-align:center;letter-spacing:0px;word-spacing:0px;writing-mode:lr-tb;text-anchor:middle;fill:#0044af;fill-opacity:1;stroke:#e11011;stroke-width:15;stroke-linecap:round;stroke-linejoin:round;stroke-miterlimit:4;stroke-dasharray:none;stroke-opacity:1"
     id="path878"
     inkscape:connector-curvature="0" /></g><ellipse
   style="fill:#0044af;fill-opacity:1;stroke:none;stroke-width:6;stroke-linecap:round;stroke-linejoin:round;stroke-miterlimit:4;stroke-dasharray:none;stroke-opacity:1;paint-order:stroke fill markers"
   id="path938"
   cx="1255.6276"
   cy="502.11606"
   rx="36.517532"
   ry="35.066505" /></svg>