<?xml version="1.0" encoding="UTF-8" standalone="no"?>
<!-- Created with Inkscape (http://www.inkscape.org/) -->

<svg
   xmlns:dc="http://purl.org/dc/elements/1.1/"
   xmlns:cc="http://creativecommons.org/ns#"
   xmlns:rdf="http://www.w3.org/1999/02/22-rdf-syntax-ns#"
   xmlns:svg="http://www.w3.org/2000/svg"
   xmlns="http://www.w3.org/2000/svg"
   xmlns:xlink="http://www.w3.org/1999/xlink"
   xmlns:sodipodi="http://sodipodi.sourceforge.net/DTD/sodipodi-0.dtd"
   xmlns:inkscape="http://www.inkscape.org/namespaces/inkscape"
   version="1.1"
   viewBox="0 0 735 171.60001"
   id="svg24"
   sodipodi:docname="system.svg"
   inkscape:version="0.92.3 (2405546, 2018-03-11)"
   width="735"
   height="171.60001">
  <defs
     id="defs28">
    <linearGradient
       inkscape:collect="always"
       id="linearGradient825">
      <stop
         style="stop-color:#c39412;stop-opacity:1"
         offset="0"
         id="stop821" />
      <stop
         id="stop945"
         offset="0.5169282"
         style="stop-color:#c3940f;stop-opacity:1" />
      <stop
         style="stop-color:#876e0b;stop-opacity:1"
         offset="1"
         id="stop823" />
    </linearGradient>
    <linearGradient
       inkscape:collect="always"
       xlink:href="#linearGradient825"
       id="linearGradient827"
       x1="1035.4241"
       y1="352.18213"
       x2="1035.7351"
       y2="477.7193"
       gradientUnits="userSpaceOnUse" />
    <linearGradient
       inkscape:collect="always"
       xlink:href="#linearGradient825"
       id="linearGradient955"
       gradientUnits="userSpaceOnUse"
       x1="1035.4241"
       y1="352.18213"
       x2="1035.7351"
       y2="477.7193" />
    <linearGradient
       inkscape:collect="always"
       xlink:href="#linearGradient825"
       id="linearGradient957"
       gradientUnits="userSpaceOnUse"
       x1="1035.4241"
       y1="352.18213"
       x2="1035.7351"
       y2="477.7193" />
    <linearGradient
       inkscape:collect="always"
       xlink:href="#linearGradient825"
       id="linearGradient959"
       gradientUnits="userSpaceOnUse"
       x1="1035.4241"
       y1="352.18213"
       x2="1035.7351"
       y2="477.7193" />
    <linearGradient
       inkscape:collect="always"
       xlink:href="#linearGradient825"
       id="linearGradient961"
       gradientUnits="userSpaceOnUse"
       x1="1035.4241"
       y1="352.18213"
       x2="1035.7351"
       y2="477.7193" />
    <linearGradient
       inkscape:collect="always"
       xlink:href="#linearGradient825"
       id="linearGradient963"
       gradientUnits="userSpaceOnUse"
       x1="1035.4241"
       y1="352.18213"
       x2="1035.7351"
       y2="477.7193" />
    <linearGradient
       inkscape:collect="always"
       xlink:href="#linearGradient825"
       id="linearGradient965"
       gradientUnits="userSpaceOnUse"
       x1="1035.4241"
       y1="352.18213"
       x2="1035.7351"
       y2="477.7193" />
    <linearGradient
       inkscape:collect="always"
       xlink:href="#linearGradient825"
       id="linearGradient967"
       gradientUnits="userSpaceOnUse"
       x1="1035.4241"
       y1="352.18213"
       x2="1035.7351"
       y2="477.7193" />
    <linearGradient
       inkscape:collect="always"
       xlink:href="#linearGradient825"
       id="linearGradient969"
       gradientUnits="userSpaceOnUse"
       x1="1035.4241"
       y1="352.18213"
       x2="1035.7351"
       y2="477.7193" />
    <linearGradient
       inkscape:collect="always"
       xlink:href="#linearGradient825"
       id="linearGradient971"
       gradientUnits="userSpaceOnUse"
       x1="1035.4241"
       y1="352.18213"
       x2="1035.7351"
       y2="477.7193" />
  </defs>
  <sodipodi:namedview
     pagecolor="#ffffff"
     bordercolor="#666666"
     borderopacity="1"
     objecttolerance="10"
     gridtolerance="10"
     guidetolerance="10"
     inkscape:pageopacity="0"
     inkscape:pageshadow="2"
     inkscape:window-width="1920"
     inkscape:window-height="1015"
     id="namedview26"
     showgrid="false"
     inkscape:zoom="1.3968967"
     inkscape:cx="382.31804"
     inkscape:cy="34.650079"
     inkscape:window-x="0"
     inkscape:window-y="0"
     inkscape:window-maximized="1"
     inkscape:current-layer="svg24" />
  <metadata
     id="metadata2">
    <rdf:RDF>
      <cc:Work
         rdf:about="">
        <dc:format>image/svg+xml</dc:format>
        <dc:type
           rdf:resource="http://purl.org/dc/dcmitype/StillImage" />
        <dc:title />
      </cc:Work>
    </rdf:RDF>
  </metadata>
  <g
     transform="matrix(0.9,0,0,0.9,-576.09673,-306.27794)"
     id="g22"
     style="fill:url(#linearGradient827);fill-opacity:1">
    <g
       transform="matrix(0.93403196,0,0,0.93403196,69.311262,27.640521)"
       id="g20"
       style="fill:url(#linearGradient971);fill-opacity:1;fill-rule:nonzero">
      <g
         transform="translate(1.5605469e-5)"
         id="g10"
         style="fill:url(#linearGradient961);fill-opacity:1">
        <path
           d="m 1142,431.7 h 2.911 c 2.715,0 7.366,0.5594 9.28,1.683 1.916,1.114 3.177,2.364 3.786,3.747 0.6111,1.385 0.9201,4.436 0.9201,9.148 v 18.5 c 0,5.583 -5.899,8.427 -8.743,9.044 -2.851,0.6168 -5.624,0.9258 -8.329,0.9258 -7.789,0 -14.51,-2.026 -20.18,-6.081 -5.662,-4.058 -9.764,-10.4 -12.31,-19.05 -2.541,-8.637 -3.806,-18.68 -3.806,-30.15 0,-9.462 1.161,-18.69 3.485,-27.68 2.325,-8.994 6.283,-16 11.87,-21.03 5.587,-5.023 12.59,-7.537 21,-7.537 8.804,0 13.95,2.228 20.43,8.962 6.624,6.881 12.98,14.7 16.69,26.18 h 5.417 v -42.15 h -3.081 c -1.112,3.376 -2.326,5.667 -3.653,6.879 -1.331,1.215 -2.772,1.819 -4.318,1.819 -0.997,0 -4.227,-1.097 -9.675,-3.291 -5.451,-2.197 -9.396,-3.531 -11.83,-4.001 -4.483,-0.935 -7.966,-1.407 -13.55,-1.407 -18.04,0 -33.02,6.2 -44.92,18.6 -11.9,12.41 -17.85,27.6 -17.85,45.58 0,10.05 1.934,19.13 5.809,27.24 3.045,6.288 7.267,11.94 12.66,16.97 5.397,5.024 11.63,9.082 18.68,12.17 7.057,3.081 15.93,4.624 26.61,4.624 8.36,0 16.42,-0.8638 24.2,-2.59 7.78,-1.732 15.26,-4.296 22.47,-7.691 v -24.86 c 0,-4.358 0.2446,-7.098 0.7431,-8.214 0.8833,-2.122 2.139,-3.635 3.771,-4.551 1.629,-0.9166 6.074,-1.514 10.22,-1.813 v -4.07 h -58.73 v 4.07 z"
           id="path4"
           inkscape:connector-curvature="0"
           style="fill:url(#linearGradient955);fill-opacity:1" />
        <path
           d="m 1277,463.9 c -6.694,5.127 -15.6,7.687 -26.71,7.687 h -6.334 c -3.393,0 -5.844,-0.4629 -7.367,-1.396 -1.517,-0.9338 -2.559,-2.127 -3.112,-3.585 -0.5548,-1.456 -0.8351,-5.447 -0.8351,-11.97 v -33.39 c 5.706,0 12.39,0.742 15.39,2.235 2.994,1.485 5.627,4.391 7.886,8.711 2.27,4.32 3.754,9.089 4.459,15.86 h 4.816 v -61.45 h -4.816 c -0.9407,9.233 -3.115,15.43 -6.529,20.16 -3.408,4.731 -8.909,7.096 -16.49,7.096 h -4.717 v -41.22 c -0.04,-7.164 6.347,-6.334 6.347,-6.334 h 7.462 c 9.025,0 15.17,0.5272 18.45,1.579 5.622,1.748 9.971,4.492 13.05,8.221 3.078,3.736 5.461,9.886 7.162,18.46 h 4.037 v -35.1 h -100.4 v 4.808 h 3.167 c 3.856,0 6.9,0.8155 9.117,2.444 1.58,1.108 2.664,2.687 3.246,4.725 0.2929,1.219 0.4411,4.514 0.4411,9.876 v 74.26 c 0,5.944 -0.3205,9.615 -0.966,11.02 -0.819,1.979 -1.989,3.379 -3.507,4.194 -2.108,1.227 -4.884,1.836 -8.331,1.836 h -3.167 v 5.586 h 102.1 l 6.135,-37.76 h -5.604 c -2.924,10.51 -7.735,18.33 -14.43,23.45"
           id="path6"
           inkscape:connector-curvature="0"
           style="fill:url(#linearGradient957);fill-opacity:1" />
        <path
           d="m 1356,357.6 c -17.11,-0.7064 -31.53,4.871 -43.24,16.74 -11.73,11.86 -17.58,26.69 -17.58,44.47 0,15.84 4.503,29.53 13.52,41.07 11.4,14.6 27.54,21.91 48.42,21.91 20.81,0 36.93,-7.656 48.34,-22.97 8.61,-11.53 12.92,-24.9 12.92,-40.1 0,-17.78 -5.778,-32.59 -17.32,-44.43 -11.55,-11.84 -26.56,-17.4 -45.04,-16.69 m 27.29,95.04 c -2.792,8.27 -6.7,14.29 -11.72,18.05 -3.934,2.946 -8.841,4.415 -14.72,4.415 -8.728,0 -15.51,-3.415 -20.37,-10.24 -6.956,-9.769 -10.44,-24.86 -10.44,-45.29 0,-17.19 2.251,-30.37 6.758,-39.55 5.531,-11.18 13.6,-16.77 24.21,-16.77 5.76,0 10.85,1.621 15.27,4.858 4.42,3.236 8.055,8.785 10.91,16.64 2.851,7.861 4.278,19.7 4.278,35.54 0,13.3 -1.396,24.09 -4.194,32.36"
           id="path8"
           inkscape:connector-curvature="0"
           style="fill:url(#linearGradient959);fill-opacity:1" />
      </g>
      <path
         d="m 976.9,481.1 c 20.81,0 36.93,-7.657 48.34,-22.97 8.61,-11.54 12.92,-24.9 12.92,-40.1 0,-17.78 -5.778,-32.59 -17.32,-44.43 -11.55,-11.84 -26.56,-17.4 -45.04,-16.69 -17.11,-0.7052 -31.53,4.871 -43.24,16.74 -11.73,11.86 -17.58,26.69 -17.58,44.47 0,15.84 4.503,29.53 13.52,41.07 11.4,14.6 27.54,21.91 48.42,21.91 m -24.5,-101.7 c 5.531,-11.18 13.6,-16.77 24.21,-16.77 5.76,0 10.85,1.618 15.27,4.856 4.42,3.237 8.055,8.786 10.91,16.64 2.851,7.861 4.278,19.7 4.278,35.53 0,13.3 -1.396,24.09 -4.194,32.36 -2.792,8.271 -6.7,14.29 -11.72,18.06 -3.934,2.944 -8.841,4.414 -14.72,4.414 -8.728,0 -15.51,-3.415 -20.37,-10.24 -6.956,-9.769 -10.44,-24.86 -10.44,-45.29 0,-17.19 2.251,-30.37 6.758,-39.55"
         id="path12"
         inkscape:connector-curvature="0"
         style="fill:url(#linearGradient963);fill-opacity:1" />
      <path
         d="m 916.6,439.5 h -5.605 c -2.923,10.51 -7.736,18.33 -14.43,23.45 -6.694,5.126 -15.6,7.687 -26.7,7.687 h -6.334 c -3.392,0 -5.842,-0.4652 -7.367,-1.396 -1.518,-0.9338 -2.558,-2.128 -3.114,-3.586 -0.5536,-1.458 -0.8339,-5.447 -0.8339,-11.97 v -33.39 c 5.705,0 12.39,0.742 15.39,2.236 2.997,1.484 5.629,4.39 7.889,8.71 2.267,4.32 3.753,9.089 4.459,15.86 h 4.816 v -61.45 h -4.816 c -0.9442,9.229 -3.119,15.43 -6.531,20.16 -3.405,4.731 -8.908,7.095 -16.49,7.095 h -4.72 v -41.22 c -0.0391,-7.165 6.352,-6.334 6.352,-6.334 h 7.456 c 9.027,0 15.18,0.5261 18.46,1.578 5.626,1.747 9.975,4.491 13.05,8.221 3.077,3.735 5.463,9.889 7.163,18.46 h 4.036 v -35.13 h -100.4 v 4.839 h 3.164 c 3.858,0 6.899,0.8167 9.121,2.444 1.578,1.107 2.659,2.685 3.241,4.724 0.2952,1.22 0.4434,4.513 0.4434,9.875 v 74.26 c 0,5.942 -0.3205,9.615 -0.966,11.01 -0.8167,1.979 -1.991,3.382 -3.504,4.195 -2.108,1.227 -4.884,1.836 -8.336,1.836 h -3.164 v 5.587 h 102.1 l 6.138,-37.76 z"
         id="path14"
         inkscape:connector-curvature="0"
         style="fill:url(#linearGradient965);fill-opacity:1" />
      <path
         d="m 723.9,471.6 h -2.71 c -3.888,0 -7.341,-1.193 -10.36,-3.58 -3.014,-2.388 -4.523,-6.986 -4.523,-13.8 V 382.5 l 77.69,96.85 5.037,0.006 v -98.78 c 0,-5.616 0.4664,-7.246 1.393,-9.557 0.9269,-2.311 2.223,-3.979 3.878,-5.003 1.656,-1.023 4.906,-1.856 9.738,-2.501 v -5.026 h -38.54 v 5.026 c 6.354,-0.116 10.89,1.521 13.58,4.915 1.97,2.515 2.954,5.008 2.954,12.15 v 51.73 l -60.48,-73.82 h -36.8 v 3.988 c 3.498,0.116 3.622,1.289 5.485,2.277 l 9.858,9.921 -0.0138,79.54 c 0,6.289 -1.242,10.74 -3.723,13.36 -2.483,2.621 -6.885,3.959 -13.2,4.018 v 4.808 h 40.72 v -4.808 z"
         id="path16"
         inkscape:connector-curvature="0"
         style="fill:url(#linearGradient967);fill-opacity:1" />
      <path
         style="color:#000000;fill:url(#linearGradient969);fill-opacity:1;stroke:#000000;stroke-width:0.133;stroke-linecap:butt;stroke-linejoin:miter;stroke-miterlimit:4;stroke-dasharray:none;stroke-dashoffset:0;enable-background:accumulate"
         d="m 527.9,9.648 c 0,8.679 -7.036,15.71 -15.71,15.71 -8.679,0 -15.71,-7.036 -15.71,-15.71 0,-8.679 7.036,-15.71 15.71,-15.71 8.679,0 15.71,7.036 15.71,15.71 z"
         transform="matrix(0.90945731,0,0,0.90945731,591.21077,410.2244)"
         stroke-miterlimit="4"
         id="path18"
         inkscape:connector-curvature="0" />
    </g>
  </g>
  <g
     aria-label="ADVANCED ENTERTAINMENT SYSTEM"
     style="font-style:normal;font-variant:normal;font-weight:normal;font-stretch:normal;font-size:40px;line-height:1.25;font-family:'NES Cyrillic';-inkscape-font-specification:'NES Cyrillic';letter-spacing:0px;word-spacing:0px;fill:#5ef7e5;fill-opacity:1;stroke:none"
     id="text883">
    <path
       d="m 66.422146,151.58082 h 8.68 l 1.52,5.92 h 5.36 l -8.32,-28.72 h -5.68 l -8.4,28.72 h 5.2 z m 4.36,-16.44 2.96,11.52 h -6 z"
       style="font-style:normal;font-variant:normal;font-weight:bold;font-stretch:condensed;font-family:'Nimbus Sans L';-inkscape-font-specification:'Nimbus Sans L Bold Condensed';fill:#5ef7e5;fill-opacity:1"
       id="path845"
       inkscape:connector-curvature="0" />
    <path
       d="m 85.094021,157.50082 h 10.2 c 2.6,0 4.879999,-1.08 6.439999,-3 2.16,-2.76 3.36,-7 3.36,-11.96 0,-8.72 -3.52,-13.76 -9.599999,-13.76 h -10.4 z m 4.8,-23.8 h 4.72 c 1.6,0 2.8,0.52 3.64,1.52 1.2,1.48 1.839999,4.08 1.839999,7.48 0,6.24 -1.999999,9.88 -5.399999,9.88 h -4.8 z"
       style="font-style:normal;font-variant:normal;font-weight:bold;font-stretch:condensed;font-family:'Nimbus Sans L';-inkscape-font-specification:'Nimbus Sans L Bold Condensed';fill:#5ef7e5;fill-opacity:1"
       id="path847"
       inkscape:connector-curvature="0" />
    <path
       d="m 117.2859,150.70082 -5.08,-21.92 h -5.28 l 7.92,28.72 h 4.68 l 8,-28.72 h -5.12 z"
       style="font-style:normal;font-variant:normal;font-weight:bold;font-stretch:condensed;font-family:'Nimbus Sans L';-inkscape-font-specification:'Nimbus Sans L Bold Condensed';fill:#5ef7e5;fill-opacity:1"
       id="path849"
       inkscape:connector-curvature="0" />
    <path
       d="m 135.6409,151.58082 h 8.68 l 1.52,5.92 h 5.36 l -8.32,-28.72 h -5.68 l -8.4,28.72 h 5.2 z m 4.36,-16.44 2.96,11.52 h -6 z"
       style="font-style:normal;font-variant:normal;font-weight:bold;font-stretch:condensed;font-family:'Nimbus Sans L';-inkscape-font-specification:'Nimbus Sans L Bold Condensed';fill:#5ef7e5;fill-opacity:1"
       id="path851"
       inkscape:connector-curvature="0" />
    <path
       d="m 168.71277,148.94082 -9.44,-20.16 h -5.16 v 28.72 h 4.56 v -20.6 l 9.72,20.6 h 4.88 v -28.72 h -4.56 z"
       style="font-style:normal;font-variant:normal;font-weight:bold;font-stretch:condensed;font-family:'Nimbus Sans L';-inkscape-font-specification:'Nimbus Sans L Bold Condensed';fill:#5ef7e5;fill-opacity:1"
       id="path853"
       inkscape:connector-curvature="0" />
    <path
       d="m 197.94465,138.18082 c -0.24,-2.28 -0.6,-3.48 -1.48,-5.08 -1.8,-3.24 -4.88,-5.08 -8.6,-5.08 -6.72,0 -10.92,5.84 -10.92,15.2 0,9.32 4.12,15.04 10.8,15.04 3.12,0 5.76,-1.28 7.56,-3.72 1.36,-1.84 2,-3.48 2.64,-6.88 h -4.92 c -0.36,1.6 -0.6,2.32 -1.12,3.16 -0.96,1.48 -2.36,2.24 -4.08,2.24 -3.68,0 -5.88,-3.68 -5.88,-9.8 0,-6.32 2.24,-10.04 6.04,-10.04 1.64,0 3.04,0.72 3.88,1.92 0.52,0.84 0.8,1.48 1.16,3.04 z"
       style="font-style:normal;font-variant:normal;font-weight:bold;font-stretch:condensed;font-family:'Nimbus Sans L';-inkscape-font-specification:'Nimbus Sans L Bold Condensed';fill:#5ef7e5;fill-opacity:1"
       id="path855"
       inkscape:connector-curvature="0" />
    <path
       d="m 218.97652,128.78082 h -17.32 v 28.72 h 17.88 v -5.08 h -13.08 v -7.44 h 11.52 v -5.08 h -11.52 v -6.04 h 12.52 z"
       style="font-style:normal;font-variant:normal;font-weight:bold;font-stretch:condensed;font-family:'Nimbus Sans L';-inkscape-font-specification:'Nimbus Sans L Bold Condensed';fill:#5ef7e5;fill-opacity:1"
       id="path857"
       inkscape:connector-curvature="0" />
    <path
       d="m 223.53152,157.50082 h 10.2 c 2.6,0 4.88,-1.08 6.44,-3 2.16,-2.76 3.36,-7 3.36,-11.96 0,-8.72 -3.52,-13.76 -9.6,-13.76 h -10.4 z m 4.8,-23.8 h 4.72 c 1.6,0 2.8,0.52 3.64,1.52 1.2,1.48 1.84,4.08 1.84,7.48 0,6.24 -2,9.88 -5.4,9.88 h -4.8 z"
       style="font-style:normal;font-variant:normal;font-weight:bold;font-stretch:condensed;font-family:'Nimbus Sans L';-inkscape-font-specification:'Nimbus Sans L Bold Condensed';fill:#5ef7e5;fill-opacity:1"
       id="path859"
       inkscape:connector-curvature="0" />
    <path
       d="m 273.66402,128.78082 h -17.32 v 28.72 h 17.88 v -5.08 h -13.08 v -7.44 h 11.52 v -5.08 h -11.52 v -6.04 h 12.52 z"
       style="font-style:normal;font-variant:normal;font-weight:bold;font-stretch:condensed;font-family:'Nimbus Sans L';-inkscape-font-specification:'Nimbus Sans L Bold Condensed';fill:#5ef7e5;fill-opacity:1"
       id="path861"
       inkscape:connector-curvature="0" />
    <path
       d="m 292.61902,148.94082 -9.44,-20.16 h -5.16 v 28.72 h 4.56 v -20.6 l 9.72,20.6 h 4.88 v -28.72 h -4.56 z"
       style="font-style:normal;font-variant:normal;font-weight:bold;font-stretch:condensed;font-family:'Nimbus Sans L';-inkscape-font-specification:'Nimbus Sans L Bold Condensed';fill:#5ef7e5;fill-opacity:1"
       id="path863"
       inkscape:connector-curvature="0" />
    <path
       d="m 311.8909,133.86082 h 7.12 v -5.08 h -19.16 v 5.08 h 7.12 v 23.64 h 4.92 z"
       style="font-style:normal;font-variant:normal;font-weight:bold;font-stretch:condensed;font-family:'Nimbus Sans L';-inkscape-font-specification:'Nimbus Sans L Bold Condensed';fill:#5ef7e5;fill-opacity:1"
       id="path865"
       inkscape:connector-curvature="0" />
    <path
       d="m 339.28902,128.78082 h -17.32 v 28.72 h 17.88 v -5.08 h -13.08 v -7.44 h 11.52 v -5.08 h -11.52 v -6.04 h 12.52 z"
       style="font-style:normal;font-variant:normal;font-weight:bold;font-stretch:condensed;font-family:'Nimbus Sans L';-inkscape-font-specification:'Nimbus Sans L Bold Condensed';fill:#5ef7e5;fill-opacity:1"
       id="path867"
       inkscape:connector-curvature="0" />
    <path
       d="m 343.84402,157.50082 h 4.8 v -11.2 h 5.08 c 1.8,0 2.8,0.36 3.32,1.28 0.4,0.68 0.52,1.6 0.52,4.16 0.04,2.72 0.16,4.12 0.56,5.76 h 5.44 v -0.76 c -0.84,-0.4 -1,-1.04 -1.04,-3.56 0.04,-6.72 -0.36,-8.04 -3,-9.44 0.92,-0.44 1.32,-0.72 1.8,-1.28 1.2,-1.4 1.84,-3.32 1.84,-5.52 0,-4.96 -2.92,-8.16 -7.44,-8.16 h -11.88 z m 4.8,-16.08 v -7.72 h 6.16 c 2.2,0 3.44,1.4 3.44,3.88 0,2.64 -1.2,3.84 -3.8,3.84 z"
       style="font-style:normal;font-variant:normal;font-weight:bold;font-stretch:condensed;font-family:'Nimbus Sans L';-inkscape-font-specification:'Nimbus Sans L Bold Condensed';fill:#5ef7e5;fill-opacity:1"
       id="path869"
       inkscape:connector-curvature="0" />
    <path
       d="m 377.5159,133.86082 h 7.12 v -5.08 h -19.16 v 5.08 h 7.12 v 23.64 h 4.92 z"
       style="font-style:normal;font-variant:normal;font-weight:bold;font-stretch:condensed;font-family:'Nimbus Sans L';-inkscape-font-specification:'Nimbus Sans L Bold Condensed';fill:#5ef7e5;fill-opacity:1"
       id="path871"
       inkscape:connector-curvature="0" />
    <path
       d="m 392.59402,151.58082 h 8.68 l 1.52,5.92 h 5.36 l -8.32,-28.72 h -5.68 l -8.4,28.72 h 5.2 z m 4.36,-16.44 2.96,11.52 h -6 z"
       style="font-style:normal;font-variant:normal;font-weight:bold;font-stretch:condensed;font-family:'Nimbus Sans L';-inkscape-font-specification:'Nimbus Sans L Bold Condensed';fill:#5ef7e5;fill-opacity:1"
       id="path873"
       inkscape:connector-curvature="0" />
    <path
       d="m 415.7859,128.78082 h -4.92 v 28.72 h 4.92 z"
       style="font-style:normal;font-variant:normal;font-weight:bold;font-stretch:condensed;font-family:'Nimbus Sans L';-inkscape-font-specification:'Nimbus Sans L Bold Condensed';fill:#5ef7e5;fill-opacity:1"
       id="path875"
       inkscape:connector-curvature="0" />
    <path
       d="m 434.80652,148.94082 -9.44,-20.16 h -5.16 v 28.72 h 4.56 v -20.6 l 9.72,20.6 h 4.88 v -28.72 h -4.56 z"
       style="font-style:normal;font-variant:normal;font-weight:bold;font-stretch:condensed;font-family:'Nimbus Sans L';-inkscape-font-specification:'Nimbus Sans L Bold Condensed';fill:#5ef7e5;fill-opacity:1"
       id="path877"
       inkscape:connector-curvature="0" />
    <path
       d="m 466.6784,128.78082 h -7.08 l -4.24,22.8 -4.32,-22.8 h -7.16 v 28.72 h 4.56 v -24.36 l 4.36,24.36 h 4.84 l 4.48,-24.36 v 24.36 h 4.56 z"
       style="font-style:normal;font-variant:normal;font-weight:bold;font-stretch:condensed;font-family:'Nimbus Sans L';-inkscape-font-specification:'Nimbus Sans L Bold Condensed';fill:#5ef7e5;fill-opacity:1"
       id="path879"
       inkscape:connector-curvature="0" />
    <path
       d="m 488.74215,128.78082 h -17.32 v 28.72 h 17.88 v -5.08 h -13.08 v -7.44 h 11.52 v -5.08 h -11.52 v -6.04 h 12.52 z"
       style="font-style:normal;font-variant:normal;font-weight:bold;font-stretch:condensed;font-family:'Nimbus Sans L';-inkscape-font-specification:'Nimbus Sans L Bold Condensed';fill:#5ef7e5;fill-opacity:1"
       id="path881"
       inkscape:connector-curvature="0" />
    <path
       d="m 507.69715,148.94082 -9.44,-20.16 h -5.16 v 28.72 h 4.56 v -20.6 l 9.72,20.6 h 4.88 v -28.72 h -4.56 z"
       style="font-style:normal;font-variant:normal;font-weight:bold;font-stretch:condensed;font-family:'Nimbus Sans L';-inkscape-font-specification:'Nimbus Sans L Bold Condensed';fill:#5ef7e5;fill-opacity:1"
       id="path883"
       inkscape:connector-curvature="0" />
    <path
       d="m 526.96902,133.86082 h 7.12 v -5.08 h -19.16 v 5.08 h 7.12 v 23.64 h 4.92 z"
       style="font-style:normal;font-variant:normal;font-weight:bold;font-stretch:condensed;font-family:'Nimbus Sans L';-inkscape-font-specification:'Nimbus Sans L Bold Condensed';fill:#5ef7e5;fill-opacity:1"
       id="path885"
       inkscape:connector-curvature="0" />
    <path
       d="m 544.98777,148.66082 c 0.08,2.32 0.36,3.48 1.08,4.92 1.52,3.04 4.6,4.68 8.72,4.68 5.92,0 9.56,-3.56 9.56,-9.32 0,-4.24 -1.76,-6.48 -6.16,-7.8 l -5.76,-1.72 c -1.8,-0.56 -2.48,-1.36 -2.48,-3 0,-2.16 1.6,-3.48 4.2,-3.48 2.92,0 4.36,1.32 4.72,4.36 h 4.72 c -0.36,-6 -3.64,-9.28 -9.28,-9.28 -5.6,0 -8.96,3.4 -8.96,9 0,2.48 0.68,4.44 2,5.72 1,1.04 2.48,1.72 5.48,2.56 l 2.52,0.72 c 3.32,0.96 4.28,1.76 4.28,3.64 0,2.32 -1.76,3.68 -4.8,3.68 -3.28,0 -4.92,-1.52 -5.12,-4.68 z"
       style="font-style:normal;font-variant:normal;font-weight:bold;font-stretch:condensed;font-family:'Nimbus Sans L';-inkscape-font-specification:'Nimbus Sans L Bold Condensed';fill:#5ef7e5;fill-opacity:1"
       id="path887"
       inkscape:connector-curvature="0" />
    <path
       d="m 579.10277,146.74082 7.88,-17.96 h -5.56 l -4.68,12.48 -4.88,-12.48 h -5.8 l 8.12,17.88 v 10.84 h 4.92 z"
       style="font-style:normal;font-variant:normal;font-weight:bold;font-stretch:condensed;font-family:'Nimbus Sans L';-inkscape-font-specification:'Nimbus Sans L Bold Condensed';fill:#5ef7e5;fill-opacity:1"
       id="path889"
       inkscape:connector-curvature="0" />
    <path
       d="m 588.73777,148.66082 c 0.08,2.32 0.36,3.48 1.08,4.92 1.52,3.04 4.6,4.68 8.72,4.68 5.92,0 9.56,-3.56 9.56,-9.32 0,-4.24 -1.76,-6.48 -6.16,-7.8 l -5.76,-1.72 c -1.8,-0.56 -2.48,-1.36 -2.48,-3 0,-2.16 1.6,-3.48 4.2,-3.48 2.92,0 4.36,1.32 4.72,4.36 h 4.72 c -0.36,-6 -3.64,-9.28 -9.28,-9.28 -5.6,0 -8.96,3.4 -8.96,9 0,2.48 0.68,4.44 2,5.72 1,1.04 2.48,1.72 5.48,2.56 l 2.52,0.72 c 3.32,0.96 4.28,1.76 4.28,3.64 0,2.32 -1.76,3.68 -4.8,3.68 -3.28,0 -4.92,-1.52 -5.12,-4.68 z"
       style="font-style:normal;font-variant:normal;font-weight:bold;font-stretch:condensed;font-family:'Nimbus Sans L';-inkscape-font-specification:'Nimbus Sans L Bold Condensed';fill:#5ef7e5;fill-opacity:1"
       id="path891"
       inkscape:connector-curvature="0" />
    <path
       d="m 621.81277,133.86082 h 7.12 v -5.08 h -19.16 v 5.08 h 7.12 v 23.64 h 4.92 z"
       style="font-style:normal;font-variant:normal;font-weight:bold;font-stretch:condensed;font-family:'Nimbus Sans L';-inkscape-font-specification:'Nimbus Sans L Bold Condensed';fill:#5ef7e5;fill-opacity:1"
       id="path893"
       inkscape:connector-curvature="0" />
    <path
       d="m 649.2109,128.78082 h -17.32 v 28.72 h 17.88 v -5.08 h -13.08 v -7.44 h 11.52 v -5.08 h -11.52 v -6.04 h 12.52 z"
       style="font-style:normal;font-variant:normal;font-weight:bold;font-stretch:condensed;font-family:'Nimbus Sans L';-inkscape-font-specification:'Nimbus Sans L Bold Condensed';fill:#5ef7e5;fill-opacity:1"
       id="path895"
       inkscape:connector-curvature="0" />
    <path
       d="m 676.3659,128.78082 h -7.08 l -4.24,22.8 -4.32,-22.8 h -7.16 v 28.72 h 4.56 v -24.36 l 4.36,24.36 h 4.84 l 4.48,-24.36 v 24.36 h 4.56 z"
       style="font-style:normal;font-variant:normal;font-weight:bold;font-stretch:condensed;font-family:'Nimbus Sans L';-inkscape-font-specification:'Nimbus Sans L Bold Condensed';fill:#5ef7e5;fill-opacity:1"
       id="path897"
       inkscape:connector-curvature="0" />
  </g>
</svg>
