<?xml version="1.0" encoding="UTF-8" standalone="no"?>
<!-- Created with Inkscape (http://www.inkscape.org/) -->

<svg
   xmlns:dc="http://purl.org/dc/elements/1.1/"
   xmlns:cc="http://creativecommons.org/ns#"
   xmlns:rdf="http://www.w3.org/1999/02/22-rdf-syntax-ns#"
   xmlns:svg="http://www.w3.org/2000/svg"
   xmlns="http://www.w3.org/2000/svg"
   xmlns:sodipodi="http://sodipodi.sourceforge.net/DTD/sodipodi-0.dtd"
   xmlns:inkscape="http://www.inkscape.org/namespaces/inkscape"
   width="397.32849"
   height="103.70829"
   viewBox="0 0 105.12649 27.439486"
   version="1.1"
   id="svg9136"
   inkscape:version="0.92.4 (5da689c313, 2019-01-14)"
   sodipodi:docname="system.svg">
  <defs
     id="defs9130" />
  <sodipodi:namedview
     id="base"
     pagecolor="#ffffff"
     bordercolor="#666666"
     borderopacity="1.0"
     inkscape:pageopacity="0.0"
     inkscape:pageshadow="2"
     inkscape:zoom="2.466473"
     inkscape:cx="160.65403"
     inkscape:cy="51.854154"
     inkscape:document-units="px"
     inkscape:current-layer="layer1"
     showgrid="false"
     units="px"
     inkscape:window-width="1440"
     inkscape:window-height="837"
     inkscape:window-x="-8"
     inkscape:window-y="-8"
     inkscape:window-maximized="1"
     fit-margin-top="0"
     fit-margin-left="0"
     fit-margin-right="0"
     fit-margin-bottom="0"
     inkscape:snap-global="false"
     inkscape:pagecheckerboard="true" />
  <metadata
     id="metadata9133">
    <rdf:RDF>
      <cc:Work
         rdf:about="">
        <dc:format>image/svg+xml</dc:format>
        <dc:type
           rdf:resource="http://purl.org/dc/dcmitype/StillImage" />
        <dc:title></dc:title>
      </cc:Work>
    </rdf:RDF>
  </metadata>
  <g
     inkscape:label="Layer 1"
     inkscape:groupmode="layer"
     id="layer1"
     transform="translate(-10.547501,-271.9401)">
    <path
       d="m 107.65002,279.81827 q 0.34995,0 0.673,0.0808 0.10768,0.0269 0.13459,0.0269 0.0538,-0.0269 0.10768,-0.16152 0.43073,-1.04989 0.83454,-2.07285 0.43072,-1.02297 0.78068,-1.88442 0.37688,-0.88837 0.64609,-1.50753 0.2692,-0.64609 0.40379,-0.88837 0.16153,-0.34996 0.29613,-0.45764 0.16153,-0.10768 0.29612,-0.10768 0.21536,0 0.43072,0.10768 0.2423,0.10768 0.56534,0.48456 0.29611,0.34997 0.29611,0.67301 0.0269,0.29612 -0.18844,0.8076 -0.29612,0.69993 -0.78069,1.74982 -0.48456,1.02297 -1.15756,2.85354 -0.29613,0.80761 -0.56532,1.69597 -0.24229,0.88837 -0.43073,1.7229 -0.18845,0.83452 -0.32304,1.56137 -0.13461,0.72685 -0.16152,1.23833 -0.13461,1.34601 0.51148,1.34601 0.32304,0 0.88836,-0.45764 0.56533,-0.45765 1.15758,-1.07681 0.61916,-0.61917 1.13064,-1.21141 0.51149,-0.59225 0.69993,-0.88837 0.24229,-0.34996 0.45765,-0.4038 0.21536,-0.0538 0.34996,0.16152 0.10768,0.18844 0.0269,0.5384 -0.0808,0.32305 -0.2692,0.69993 -0.32304,0.64609 -0.94222,1.45369 -0.61916,0.80761 -1.39984,1.53445 -0.7807,0.72685 -1.64213,1.21141 -0.86145,0.48457 -1.64215,0.48457 -0.40379,0 -0.69991,-0.18845 -0.29613,-0.18844 -0.48456,-0.48456 -0.18845,-0.32304 -0.26921,-0.673 -0.0808,-0.37689 -0.0538,-0.72685 0.0269,-0.45764 0.0538,-0.72685 0.0269,-0.29612 0.0808,-0.5384 0.0269,-0.16152 -0.0538,-0.16152 -0.0538,-0.0269 -0.16153,0.10768 -0.24227,0.29612 -0.59224,0.64608 -0.34996,0.34997 -0.72684,0.69993 -0.34996,0.32304 -0.69993,0.61917 -0.34996,0.2692 -0.59225,0.43072 -0.88836,0.61916 -1.64213,0.88837 -0.75377,0.2692 -1.21141,0.2692 -0.45763,0 -0.83452,-0.34997 -0.37688,-0.37688 -0.37688,-1.39985 0,-0.43072 0.13459,-1.02296 0.13461,-0.61917 0.45766,-1.34602 0.32304,-0.72684 0.83452,-1.50753 0.51148,-0.8076 1.26524,-1.64213 1.10373,-1.21141 2.18054,-1.69597 1.07681,-0.51149 2.20747,-0.51149 z m -0.53841,1.56138 q -0.37688,0 -1.15757,0.64608 -0.75376,0.64609 -1.53446,1.74981 -0.86144,1.21141 -1.0768,1.77674 -0.21536,0.5384 -0.21536,0.83452 0,0.45765 0.34996,0.45765 0.24229,0 0.69992,-0.2692 0.48457,-0.29613 1.13066,-0.91529 0.34995,-0.34996 0.69992,-0.83453 0.37687,-0.48456 0.69992,-0.96913 0.32304,-0.48456 0.56533,-0.86144 0.24228,-0.40381 0.29612,-0.56533 0.13461,-0.2692 0.10768,-0.43072 0,-0.18844 -0.0807,-0.32304 -0.16153,-0.29612 -0.48457,-0.29612 z m -14.940943,5.1956 q 0,-0.91529 0.484566,-2.2613 0.484565,-1.34601 1.372928,-2.63818 0.18845,-0.2692 0.538406,-0.67301 0.349971,-0.43072 0.753768,-0.78068 0.430725,-0.37689 0.888363,-0.64609 0.457653,-0.2692 0.888377,-0.2692 0.37687,0 0.592232,0.16152 0.215362,0.1346 0.349972,0.37688 0.161521,0.21536 0.403797,0.24229 0.699927,0.0538 1.130652,0.48456 0.430722,0.4038 0.430722,1.18449 0,0.72684 -0.323041,1.31909 -0.296115,0.56532 -0.699927,1.02297 -0.430725,0.43072 -1.157566,0.86144 -0.699928,0.40381 -1.803653,0.40381 -0.215362,0 -0.430725,-0.0538 -0.215362,-0.0808 -0.403812,-0.16152 -0.242275,-0.10769 -0.349956,0.1346 -0.107681,0.21536 -0.161522,0.4038 -0.05384,0.18844 -0.05384,0.48456 0,0.45765 0.29613,0.72685 0.323029,0.2692 0.915276,0.2692 0.592246,0 1.346015,-0.18844 0.780681,-0.18844 1.642131,-0.59225 0.888362,-0.43072 1.85749,-1.13064 0.96913,-0.69993 1.99211,-1.74982 0.21536,-0.21536 0.37688,-0.21536 0.18843,0 0.2692,0.1346 0.10768,0.18844 0,0.51148 -0.0808,0.32305 -0.34997,0.67301 -0.69993,0.88837 -1.64213,1.72289 -0.9422,0.83453 -2.045928,1.48062 -1.076812,0.64608 -2.288218,1.04988 -1.184493,0.37689 -2.368986,0.37689 -0.457638,0 -0.915291,-0.18844 -0.430725,-0.16153 -0.780681,-0.51149 -0.349956,-0.34996 -0.565319,-0.83452 -0.18845,-0.48457 -0.18845,-1.13065 z m 3.634234,-2.77279 q 0.323044,0 0.673,-0.18844 0.376884,-0.21536 0.673015,-0.51148 0.323029,-0.29612 0.511478,-0.61917 0.215363,-0.34996 0.215363,-0.64608 0,-0.29612 -0.18845,-0.43072 -0.161522,-0.16153 -0.43071,-0.16153 -0.215362,0 -0.457652,0.21537 -0.242276,0.21536 -0.511479,0.5384 -0.24229,0.32304 -0.457652,0.69993 -0.215363,0.37688 -0.323044,0.69992 -0.08075,0.24228 -0.02691,0.32304 0.05384,0.0808 0.323044,0.0808 z m -11.690529,-1.29217 q 0.02693,-0.43072 -0.02691,-0.61916 -0.02693,-0.18844 -0.08077,-0.32304 -0.05384,-0.1346 -0.02691,-0.34997 0.05384,-0.24228 0.242275,-0.56532 0.24229,-0.43072 0.592247,-0.86145 0.376884,-0.45764 0.834537,-0.45764 0.269203,0 0.457637,0.2692 0.188435,0.24228 0.269203,0.64609 0.107682,0.4038 0.134594,0.86144 0.02693,0.45765 0.02693,0.86145 0,0.4038 -0.05384,0.94221 -0.05384,0.51148 -0.134609,1.07681 -0.05384,0.5384 -0.107682,1.04988 -0.05384,0.51149 -0.08075,0.83453 -0.05384,0.51148 0.05384,0.75377 0.107681,0.24228 0.242275,0.24228 0.08077,0 0.699928,-0.75377 0.619174,-0.78068 1.722899,-2.6651 0.296116,-0.51148 0.349956,-0.80761 0.05384,-0.29612 0,-0.5384 -0.05384,-0.21536 -0.02691,-0.48456 0.02691,-0.29613 0.215362,-0.61917 0.188435,-0.32304 0.376884,-0.61916 0.188435,-0.29612 0.484566,-0.67301 0.215362,-0.21536 0.376869,-0.34996 0.18845,-0.16152 0.484565,-0.16152 0.107682,0 0.269203,0.1346 0.18845,0.10768 0.349972,0.32304 0.188435,0.18844 0.323044,0.43073 0.134594,0.24228 0.134594,0.51148 0,0.24228 -0.107682,0.64608 -0.08075,0.37689 -0.269203,0.83453 -0.188434,0.45764 -0.565319,1.15757 -0.376884,0.69992 -0.834521,1.48061 -0.457653,0.78069 -0.996059,1.56137 -0.511478,0.75377 -0.969131,1.31909 -2.180537,2.69203 -3.553465,4.33416 -1.346,1.64213 -1.561363,1.99209 -0.376884,0.51149 -0.29613,0.61917 0.403812,0.1346 0.403812,0.51148 0,0.29613 -0.269203,0.56533 -0.242291,0.2692 -0.592247,0.51148 -0.323044,0.24228 -0.673015,0.4038 -0.349957,0.18845 -0.565319,0.29613 -0.403797,0.18844 -0.592247,0.4038 -0.215362,0.21536 -0.457637,0.59225 -0.242291,0.37688 -0.565334,0.51148 -0.323044,0.1346 -0.699913,0.1346 -0.430725,0 -0.726856,-0.29612 -0.323043,-0.2692 -0.188434,-0.64609 0.107681,-0.37688 0.296115,-0.69992 0.161522,-0.32305 0.430725,-0.67301 0.403812,-0.5384 0.699928,-0.72684 0.296116,-0.18845 0.457638,-0.24229 0.376884,-0.1346 0.592247,-0.56532 0.161521,-0.34996 0.484565,-0.80761 0.296131,-0.45764 0.942203,-1.37293 0.484566,-0.61916 1.157581,-1.50753 0.699912,-0.88837 1.615203,-1.9921 0.161522,-0.18844 0.08077,-0.18844 h -0.188449 q -0.376885,0 -0.565319,-0.59224 -0.18845,-0.61917 -0.134609,-1.9921 z m -5.043957,-3.0689 q 0.296116,0 0.484566,0.21536 0.215362,0.18844 0.349956,0.34996 0.08077,0.24229 0.349972,0.0538 0.323043,-0.29612 0.646072,-0.0808 0.565334,0.32305 0.565334,0.56533 0.02691,0.24228 -0.02693,0.43072 -0.538406,1.21141 -0.861435,2.44974 -0.323043,1.21141 -0.323043,2.42282 0,0.69993 0.188434,1.02297 0.18845,0.29612 0.484566,0.29612 0.242275,0 0.673,-0.29612 0.430724,-0.29612 0.996058,-0.80761 0.565319,-0.5384 1.184479,-1.26525 0.646087,-0.72684 1.292174,-1.61521 0.215363,-0.21536 0.403797,-0.18844 0.18845,0 0.269203,0.1346 0.107681,0.18844 0.02693,0.5384 -0.08077,0.32305 -0.269203,0.69993 -0.457638,0.88837 -1.130653,1.74981 -0.673,0.86145 -1.426768,1.56137 -0.753769,0.69993 -1.53445,1.13065 -0.753768,0.43073 -1.399856,0.43073 -0.753768,0 -1.265246,-0.56533 -0.484566,-0.56532 -0.565319,-1.39985 -0.05384,-0.29612 -0.05384,-0.51148 0,-0.21536 0,-0.43073 -0.02693,-0.29612 -0.24229,-0.0808 -0.134594,0.1346 -0.430725,0.43073 -0.296116,0.29612 -0.673,0.61916 -0.349972,0.32304 -0.753769,0.64609 -0.376884,0.32304 -0.646087,0.51148 -1.049884,0.78069 -1.857493,0.78069 -0.134594,0 -0.376884,-0.10768 -0.215363,-0.10768 -0.430725,-0.29613 -0.215363,-0.21536 -0.403797,-0.51148 -0.161522,-0.29612 -0.161522,-0.67301 0,-0.4038 0.188434,-1.10372 0.18845,-0.69993 0.834537,-1.93826 0.538406,-1.07681 1.319088,-2.01902 0.780681,-0.96912 1.642131,-1.74981 0.565318,-0.48456 1.049884,-0.75376 0.484565,-0.29613 0.86145,-0.43073 0.376884,-0.1346 0.646087,-0.16152 0.269203,-0.0538 0.376884,-0.0538 z m -0.996044,2.01902 q -0.188449,0 -0.538406,0.2692 -0.323043,0.2692 -0.91529,0.96913 -0.349956,0.4038 -0.673,0.88836 -0.296131,0.45765 -0.538406,0.91529 -0.24229,0.43072 -0.403812,0.83453 -0.161522,0.4038 -0.215363,0.673 -0.05384,0.2692 -0.02691,0.51149 0.05384,0.21536 0.215362,0.21536 0.161522,0 0.430725,-0.16152 0.296116,-0.18845 0.592247,-0.45765 0.349956,-0.29612 0.673,-0.69992 0.349956,-0.43073 0.969131,-1.13065 0.296115,-0.32304 0.565318,-0.78069 0.269203,-0.45764 0.349972,-0.59224 0.134594,-0.21536 0.161507,-0.43073 0.05384,-0.24228 0,-0.45764 -0.05384,-0.18844 -0.215348,-0.37688 -0.161521,-0.18844 -0.430725,-0.18844 z m -11.769816,6.03012 q 0,-0.29612 0.08077,-0.83452 0.08075,-0.56533 0.296116,-1.4537 0.24229,-0.88836 0.646087,-2.15361 0.430725,-1.26525 1.130653,-2.98815 1.238319,-3.09582 1.965175,-4.60335 0.72684,-1.53445 1.022971,-1.91134 0.323044,-0.4038 0.699913,-0.4038 0.296131,0 0.484566,0.18844 0.673015,0.56533 0.646087,1.04989 -0.02691,0.45764 -0.457638,1.29217 -0.753768,1.45369 -1.346015,2.85354 -0.592247,1.37293 -1.076812,2.61126 -0.457638,1.23833 -0.807609,2.28822 -0.323029,1.04989 -0.565319,1.80366 -0.323044,1.04988 -0.215362,1.42677 0.107681,0.34996 0.430724,0.34996 0.323044,0 0.834522,-0.2692 0.511494,-0.29612 1.130653,-0.78069 0.646087,-0.51148 1.319087,-1.18449 0.699928,-0.69992 1.372943,-1.50753 0.188435,-0.21536 0.323029,-0.21536 0.161522,0 0.24229,0.1346 0.161522,0.34996 -0.188449,1.04989 -0.296116,0.59224 -1.022957,1.45369 -0.699928,0.86145 -1.642131,1.64213 -0.91529,0.78069 -1.96519,1.34601 -1.049884,0.56533 -1.965174,0.56533 -0.592232,0 -0.996044,-0.51149 -0.376884,-0.51148 -0.376884,-1.23833 z m 0.540506,-7.56458 q 0,0.45765 -0.215362,0.94221 -0.188435,0.48456 -0.511478,0.94221 -0.323044,0.43072 -0.726841,0.8076 -0.376884,0.37689 -0.753768,0.61917 -0.215363,0.16152 -0.538406,0.34996 -0.323044,0.18844 -0.699928,0.37689 -0.376885,0.18844 -0.780682,0.34996 -0.403812,0.16152 -0.780696,0.2692 -0.242275,0.0538 -0.457638,0.0808 -0.215362,0.0269 -0.376884,0.0269 -0.161522,0 -0.349956,-0.10768 -0.161522,-0.1346 -0.161522,-0.34996 0,-0.18844 0.08075,-0.40381 0.107682,-0.21536 0.242291,-0.34996 0.161521,-0.21536 0.511478,-0.45764 0.349956,-0.2692 0.780681,-0.56533 0.349972,-0.24228 0.753769,-0.45764 0.403812,-0.24228 0.753768,-0.51148 0.349956,-0.26921 0.592247,-0.59225 0.242275,-0.34996 0.242275,-0.75376 0,-0.43073 -0.242275,-0.72685 -0.242291,-0.32304 -0.592247,-0.51149 -0.323044,-0.18844 -0.699928,-0.2692 -0.349956,-0.0808 -0.592246,-0.0808 -0.349957,0 -0.484566,0.29613 -0.242275,0.5384 -0.484565,1.2114 -0.242276,0.64609 -0.726841,1.96518 -0.430725,1.18449 -0.807609,2.31514 -0.376884,1.13065 -0.673,2.2613 -0.134609,0.32304 -0.05384,0.45764 0.08075,0.10768 0.376884,0.18844 0.376885,0.10768 0.996044,0.18844 0.646087,0.0538 1.103725,0.10768 0.457653,0.0538 0.430725,0.32305 -0.02691,0.2692 -0.403797,0.5384 -0.296131,0.21536 -0.996044,0.4038 -0.673015,0.18845 -1.534465,0.18845 -0.215362,0 -0.457637,0.0269 -0.215363,0.0538 -0.376885,0.24228 -0.134593,0.1346 -0.403797,0.24228 -0.24229,0.10768 -0.538406,0.10768 -0.673015,0 -1.130652,-0.32304 -0.457638,-0.29612 -0.673,-0.75377 -0.323044,-0.72684 0.753768,-1.15757 0.215363,-0.0808 0.349957,-0.18844 0.161521,-0.1346 0.269203,-0.34996 0.161521,-0.67301 0.457637,-1.64214 0.296131,-0.96912 0.619175,-1.99209 0.323043,-1.04989 0.646087,-2.04594 0.323029,-1.02296 0.565319,-1.80365 0.107681,-0.29612 0.08075,-0.37688 -0.02691,-0.10768 -0.242275,0.0269 -0.296116,0.16152 -0.726841,0.37688 -0.403812,0.21536 -0.538406,0.21536 -0.161522,0 -0.376884,-0.0538 -0.215362,-0.0538 -0.376884,-0.24228 -0.134609,-0.1346 -0.161522,-0.37688 0,-0.26921 0.349956,-0.56533 0.457653,-0.4038 1.10374,-0.72684 0.673,-0.32305 1.265247,-0.53841 0.188435,-0.0808 0.242275,-0.1346 0.08077,-0.0538 0.134609,-0.18844 0.107682,-0.2692 0.349957,-0.61917 0.269203,-0.34996 0.646087,-0.34996 0.215362,0 0.565319,0.18844 0.376884,0.16152 0.834537,0.61917 0.134594,0.1346 0.215362,0.18844 0.08075,0.0269 0.242275,0.0269 0.349972,0 0.86145,0.1346 0.511478,0.1346 1.022972,0.37688 0.538406,0.24228 0.996043,0.56533 0.484566,0.32304 0.780682,0.69992 0.24229,0.32305 0.323043,0.69993 0.107681,0.37688 0.107681,0.61916 z m -21.101241,7.21462 q 0.349971,0 0.726856,-0.10768 0.403797,-0.1346 0.780681,-0.29612 0.403797,-0.16152 0.753768,-0.34997 0.349957,-0.18844 0.592247,-0.34996 0.242275,-0.16152 0.376869,-0.10768 0.134609,0.0269 0.161522,0.18844 0.02693,0.1346 -0.05384,0.34997 -0.05384,0.18844 -0.215362,0.37688 -0.376869,0.37688 -1.265247,1.02297 -0.861449,0.64608 -2.476653,1.15757 -0.619174,0.21536 -1.157565,0.21536 -0.592247,0 -1.157581,-0.40381 -0.565318,-0.4038 -0.565318,-1.10372 0,-0.43073 0.296115,-1.21141 0.107682,-0.26921 0.296131,-0.83453 0.188435,-0.59224 0.376884,-1.18449 0.215363,-0.59225 0.376885,-1.07681 0.188434,-0.51148 0.242275,-0.64608 0.05384,-0.13461 0.02693,-0.21537 0,-0.0808 -0.215363,-0.0538 -0.161522,0.0269 -0.430725,0.0538 -0.24229,0 -0.511493,0.0538 -0.215362,0.0269 -0.376884,-0.0538 -0.161522,-0.10768 -0.296116,-0.21536 -0.134594,-0.1346 -0.134594,-0.37688 0.02691,-0.2692 0.188435,-0.45764 0.188434,-0.21537 0.323043,-0.32305 0.161522,-0.1346 0.457638,-0.18844 0.24229,-0.0538 0.565334,-0.10768 0.349956,-0.0808 0.753768,-0.16152 0.188435,-0.0538 0.296116,-0.10768 0.134594,-0.0808 0.215363,-0.29612 0.05384,-0.10768 0.215362,-0.53841 0.161522,-0.43072 0.349956,-0.9422 0.18845,-0.53841 0.376885,-1.02297 0.188449,-0.48457 0.296131,-0.69993 0.188434,-0.37688 0.646072,-0.64608 0.457652,-0.26921 0.753768,-0.26921 0.349972,0 0.646087,0.29613 0.592247,0.59224 0.161522,1.34601 -0.457637,0.8076 -0.753768,1.53445 -0.296116,0.72685 -0.376884,0.91529 -0.05384,0.16152 0.05384,0.18844 0.134609,0 0.269203,0 0.457653,0 0.996059,-0.0269 0.565319,-0.0269 1.103725,-0.0538 0.565319,-0.0269 1.022971,-0.0269 0.484566,-0.0269 0.753754,-0.0269 0.24229,0 0.323043,0.10768 0.08077,0.0808 0.02693,0.24228 -0.02693,0.1346 -0.161522,0.2692 -0.107681,0.1346 -0.24229,0.21536 -0.349956,0.18845 -1.507522,0.48457 -1.130652,0.2692 -2.934305,0.51148 -0.269203,0.0538 -0.376884,0.1346 -0.107682,0.0538 -0.215363,0.2692 -0.134594,0.32305 -0.323044,0.75377 -0.161521,0.43072 -0.323043,0.88837 -0.134594,0.45764 -0.269203,0.88837 -0.107681,0.4038 -0.134594,0.69992 -0.107681,0.61917 0,0.96913 0.134594,0.34996 0.673,0.34996 z m -5.596673,-7.7261 q 0.511493,0 0.834537,0.10768 0.323044,0.0808 0.592247,0.2692 0.269188,0.18844 0.349956,0.40381 0.107681,0.18844 0.107681,0.43072 0,0.37688 -0.269203,0.56532 -0.242275,0.16152 -0.592247,0.16152 -0.619159,0 -1.265246,0.13461 -0.61916,0.10768 -1.130653,0.32304 -0.511478,0.21536 -0.834522,0.48456 -0.296131,0.2692 -0.296131,0.59225 0,0.37688 0.215363,0.83452 0.24229,0.43073 0.592246,0.88837 0.457653,0.59224 0.726856,1.15757 0.296116,0.56532 0.296116,1.10373 0,0.29612 -0.215363,0.72684 -0.215362,0.43073 -0.457637,0.64609 -0.134609,0.1346 -0.376884,0.29612 -0.242291,0.1346 -0.538406,0.29612 -0.269203,0.16153 -0.565319,0.29613 -0.269203,0.16152 -0.484566,0.24228 -0.619174,0.24228 -1.022971,0.24228 -0.269203,0 -0.592247,-0.0808 -0.296116,-0.0538 -0.565319,-0.18844 -0.269203,-0.1346 -0.484565,-0.32304 -0.18845,-0.18845 -0.215363,-0.40381 0,-0.1346 0.02691,-0.2692 0.05384,-0.16152 0.18845,-0.29612 0.296116,-0.32304 0.538406,-0.48457 0.242275,-0.18844 0.43071,-0.2692 0.349971,-0.18844 0.673015,0.0538 0.215362,0.0808 0.349956,0.1346 0.161522,0.0269 0.457653,0.0269 0.269203,0 0.403797,-0.10768 0.161522,-0.1346 0.161522,-0.2692 0,-0.21536 -0.161522,-0.5384 -0.161522,-0.34997 -0.457638,-0.72685 -0.215362,-0.2692 -0.484565,-0.72684 -0.269203,-0.48457 -0.403812,-0.78069 -0.107682,-0.24228 -0.188435,-0.53841 -0.08077,-0.32304 -0.08077,-0.59224 0,-0.72685 0.511493,-1.45369 0.511478,-0.72685 1.103725,-1.18449 0.323043,-0.2692 0.699928,-0.48456 0.403797,-0.21537 0.834522,-0.37689 0.430724,-0.16152 0.834537,-0.24228 0.430709,-0.0808 0.753753,-0.0808 z m -10.421686,0.0269 q 0.296116,0 0.484566,0.21536 0.215347,0.18844 0.349956,0.34996 0.08075,0.24229 0.349956,0.0538 0.323044,-0.29612 0.646088,-0.0808 0.565334,0.32305 0.565334,0.56533 0.02691,0.24228 -0.02693,0.43072 -0.538406,1.21141 -0.86145,2.44974 -0.323044,1.21141 -0.323044,2.42282 0,0.69993 0.18845,1.02297 0.188435,0.29612 0.484565,0.29612 0.242276,0 0.673,-0.29612 0.430725,-0.29612 0.996044,-0.80761 0.565334,-0.5384 1.184494,-1.26525 0.646087,-0.72684 1.292174,-1.61521 0.215363,-0.21536 0.403797,-0.18844 0.18845,0 0.269203,0.1346 0.107681,0.18844 0.02693,0.5384 -0.08077,0.32305 -0.269203,0.69993 -0.457653,0.88837 -1.130653,1.74981 -0.673,0.86145 -1.426768,1.56137 -0.753769,0.69993 -1.53445,1.13065 -0.753769,0.43073 -1.399856,0.43073 -0.753768,0 -1.265247,-0.56533 -0.484565,-0.56532 -0.565334,-1.39985 -0.05384,-0.29612 -0.05384,-0.51148 0,-0.21536 0,-0.43073 -0.02691,-0.29612 -0.242275,-0.0808 -0.134609,0.1346 -0.430725,0.43073 -0.296116,0.29612 -0.673,0.61916 -0.349972,0.32304 -0.753769,0.64609 -0.376884,0.32304 -0.646087,0.51148 -1.049884,0.78069 -1.857493,0.78069 -0.134609,0 -0.376885,-0.10768 -0.215362,-0.10768 -0.430724,-0.29613 -0.215363,-0.21536 -0.403797,-0.51148 -0.161522,-0.29612 -0.161522,-0.67301 0,-0.4038 0.188434,-1.10372 0.18845,-0.69993 0.834522,-1.93826 0.538406,-1.07681 1.319103,-2.01902 0.780681,-0.96912 1.642131,-1.74981 0.565318,-0.48456 1.049884,-0.75376 0.484565,-0.29613 0.86145,-0.43073 0.376884,-0.1346 0.646087,-0.16152 0.269203,-0.0538 0.376884,-0.0538 z m -0.996059,2.01902 q -0.188434,0 -0.538406,0.2692 -0.323028,0.2692 -0.915275,0.96913 -0.349972,0.4038 -0.673015,0.88836 -0.296116,0.45765 -0.538406,0.91529 -0.242275,0.43072 -0.403797,0.83453 -0.161522,0.4038 -0.215363,0.673 -0.05384,0.2692 -0.02691,0.51149 0.05384,0.21536 0.215362,0.21536 0.161522,0 0.43071,-0.16152 0.296131,-0.18845 0.592246,-0.45765 0.349972,-0.29612 0.673016,-0.69992 0.349956,-0.43073 0.969115,-1.13065 0.296131,-0.32304 0.565334,-0.78069 0.269203,-0.45764 0.349957,-0.59224 0.134609,-0.21536 0.161522,-0.43073 0.05384,-0.24228 0,-0.45764 -0.05384,-0.18844 -0.215363,-0.37688 -0.161522,-0.18844 -0.430725,-0.18844 z m -10.100969,5.92244 q 0.753768,0 1.561378,-0.1346 0.834521,-0.1346 1.534449,-0.43072 0.511494,-0.21536 0.538406,0.0538 0.05384,0.2692 -0.242275,0.59224 -0.807609,0.94221 -2.126696,1.37293 -1.319103,0.43073 -2.718943,0.43073 -0.538406,0 -1.103725,-0.0538 -0.565334,-0.0269 -0.996059,-0.0808 -0.457638,-0.0808 -0.699928,-0.1346 -0.242275,-0.0269 -0.376869,-0.0269 -0.215362,0 -0.430725,0.0808 -0.215362,0.10768 -0.511493,0.2692 -0.296116,0.16152 -0.673,0.0808 -0.349972,-0.0808 -0.430725,-0.45765 -0.05384,-0.18844 -0.161522,-0.4038 -0.107681,-0.24228 -0.242275,-0.48456 -0.134609,-0.21536 -0.08077,-0.56533 0.05384,-0.34996 0.296131,-0.56532 0.403797,-0.4038 0.753754,-0.4038 0.107681,0 0.188449,-0.0538 0.08075,-0.0539 0.161522,-0.26921 0.296116,-0.64608 0.61916,-1.53445 0.323043,-0.88837 0.619159,-1.83057 0.323044,-0.94221 0.592247,-1.8575 0.296131,-0.94221 0.484565,-1.66905 0.134609,-0.45764 -0.08075,-0.48456 -0.296131,-0.0539 -0.673015,-0.26921 -0.349957,-0.24228 -0.349957,-0.56532 0,-0.32304 0.430725,-0.40381 0.61916,-0.1346 1.103725,-0.4038 0.484566,-0.29612 0.726841,-0.59224 0.296131,-0.37689 0.834537,-0.37689 0.457637,0 0.91529,0.29613 0.457638,0.29612 0.619159,0.69992 0.188435,0.45765 -0.161521,0.88837 -0.215363,0.24228 -0.403797,0.673 -0.18845,0.40381 -0.323044,0.75377 -0.08077,0.21536 -0.18845,0.5384 -0.107681,0.32305 -0.323043,0.88837 -0.188435,0.53841 -0.484566,1.31909 -0.296116,0.78069 -0.72684,1.88442 -0.376885,0.94221 -0.61916,1.50753 -0.215362,0.56532 -0.323044,0.78069 -0.05384,0.1346 -0.02693,0.2692 0.02693,0.1346 0.215362,0.18844 0.18845,0.0808 0.592247,0.16152 0.403797,0.0808 0.861449,0.16152 0.484566,0.0808 0.969131,0.1346 0.484566,0.0269 0.861435,0.0269 z"
       style="font-style:italic;font-variant:normal;font-weight:bold;font-stretch:normal;font-size:medium;line-height:111.34337616px;font-family:'Caflisch Script';-inkscape-font-specification:'Caflisch Script Bold Italic';letter-spacing:0px;word-spacing:0px;fill:#ff0000;fill-opacity:1;stroke:none;stroke-width:0.6730054px;stroke-linecap:butt;stroke-linejoin:miter;stroke-opacity:1"
       id="path7980"
       inkscape:connector-curvature="0" />
  </g>
</svg>
