<?xml version="1.0" encoding="UTF-8" standalone="no"?>
<!-- Created with Inkscape (http://www.inkscape.org/) -->

<svg
   xmlns:dc="http://purl.org/dc/elements/1.1/"
   xmlns:cc="http://creativecommons.org/ns#"
   xmlns:rdf="http://www.w3.org/1999/02/22-rdf-syntax-ns#"
   xmlns:svg="http://www.w3.org/2000/svg"
   xmlns="http://www.w3.org/2000/svg"
   xmlns:sodipodi="http://sodipodi.sourceforge.net/DTD/sodipodi-0.dtd"
   xmlns:inkscape="http://www.inkscape.org/namespaces/inkscape"
   version="1.1"
   id="svg2"
   xml:space="preserve"
   width="502.82324"
   height="88.35733"
   viewBox="0 0 502.82325 88.357331"
   sodipodi:docname="system.svg"
   inkscape:version="0.92.3 (2405546, 2018-03-11)"><metadata
     id="metadata8"><rdf:RDF><cc:Work
         rdf:about=""><dc:format>image/svg+xml</dc:format><dc:type
           rdf:resource="http://purl.org/dc/dcmitype/StillImage" /><dc:title></dc:title></cc:Work></rdf:RDF></metadata><defs
     id="defs6" /><sodipodi:namedview
     pagecolor="#ffffff"
     bordercolor="#666666"
     borderopacity="1"
     objecttolerance="10"
     gridtolerance="10"
     guidetolerance="10"
     inkscape:pageopacity="0"
     inkscape:pageshadow="2"
     inkscape:window-width="1897"
     inkscape:window-height="895"
     id="namedview4"
     showgrid="false"
     inkscape:zoom="1.6920393"
     inkscape:cx="209.40856"
     inkscape:cy="-5.2741777"
     inkscape:window-x="83"
     inkscape:window-y="45"
     inkscape:window-maximized="0"
     inkscape:current-layer="g10"
     fit-margin-top="0"
     fit-margin-left="0"
     fit-margin-right="0"
     fit-margin-bottom="0" /><g
     id="g10"
     inkscape:groupmode="layer"
     inkscape:label="ink_ext_XXXXXX"
     transform="matrix(1.3333333,0,0,-1.3333333,-111.25053,519.39732)"><g
       id="g866"
       transform="matrix(0.99336598,0,0,0.98322081,-77.754887,5.6479007)"><path
         d="m 343.56,342.82 h 13.148 l 0.917,5.744 h -6.475 l 2.662,15.649 h 6.475 l 0.916,4.854 h -6.476 l 2.836,14.361 h 6.475 l 0.917,5.745 H 352.698 L 343.56,342.82"
         style="fill:#ee252c;fill-opacity:1;fill-rule:nonzero;stroke:#ffffff;stroke-width:0.75;stroke-miterlimit:4;stroke-dasharray:none;stroke-opacity:1"
         id="path166"
         inkscape:connector-curvature="0" /><path
         d="m 225.894,342.82 h 13.148 l 0.916,5.744 h -6.474 l 2.661,15.649 h 6.476 l 0.916,4.854 h -6.476 l 2.836,14.361 h 6.475 l 0.916,5.745 h -12.257 l -9.137,-46.353"
         style="fill:#ee252c;fill-opacity:1;fill-rule:nonzero;stroke:#ffffff;stroke-width:0.75;stroke-miterlimit:4;stroke-dasharray:none;stroke-opacity:1"
         id="path168"
         inkscape:connector-curvature="0" /><path
         d="m 331.972,342.82 h 6.685 l 7.317,40.608 h 3.517 l 0.904,5.745 h -13.743 l -1.102,-5.745 h 3.64 l -7.218,-40.608"
         style="fill:#ee252c;fill-opacity:1;fill-rule:nonzero;stroke:#ffffff;stroke-width:0.75;stroke-miterlimit:4;stroke-dasharray:none;stroke-opacity:1"
         id="path170"
         inkscape:connector-curvature="0" /><path
         d="m 380.925,389.173 -4.532,-24.205 -3.032,24.205 h -5.844 l -8.803,-46.353 h 6.736 l 5.422,26.878 2.142,-26.878 h 5.844 l 8.803,46.353 h -6.736"
         style="fill:#ee252c;fill-opacity:1;fill-rule:nonzero;stroke:#ffffff;stroke-width:0.75;stroke-miterlimit:4;stroke-dasharray:none;stroke-opacity:1"
         id="path172"
         inkscape:connector-curvature="0" /><path
         d="m 295.35,389.173 -4.531,-24.205 -3.033,24.205 h -5.845 l -8.803,-46.353 h 6.736 l 5.423,26.878 2.142,-26.878 h 5.843 l 8.802,46.353 h -6.734"
         style="fill:#ee252c;fill-opacity:1;fill-rule:nonzero;stroke:#ffffff;stroke-width:0.75;stroke-miterlimit:4;stroke-dasharray:none;stroke-opacity:1"
         id="path174"
         inkscape:connector-curvature="0" /><path
         d="m 327.44,389.173 -4.53,-24.205 -3.034,24.205 h -5.843 l -8.804,-46.353 h 6.735 l 5.423,26.878 2.143,-26.878 h 5.843 l 8.803,46.353 h -6.736"
         style="fill:#ee252c;fill-opacity:1;fill-rule:nonzero;stroke:#ffffff;stroke-width:0.75;stroke-miterlimit:4;stroke-dasharray:none;stroke-opacity:1"
         id="path176"
         inkscape:connector-curvature="0" /><path
         d="m 310.962,389.173 h -5.843 l -8.803,-46.353 h 5.843 l 8.803,46.353"
         style="fill:#ee252c;fill-opacity:1;fill-rule:nonzero;stroke:#ffffff;stroke-width:0.75;stroke-miterlimit:4;stroke-dasharray:none;stroke-opacity:1"
         id="path178"
         inkscape:connector-curvature="0" /><path
         d="m 416.125,380.704 c 0.295,1.721 1.484,3.119 3.206,3.119 1.72,0 2.884,-1.398 2.586,-3.119 l -5.459,-30.308 c -0.297,-1.721 -1.931,-3.12 -3.652,-3.12 -1.722,0 -2.439,1.399 -2.141,3.12 z m -5.708,3.851 -6.549,-37.427 c -0.422,-2.389 1.2,-4.308 3.601,-4.308 h 9.609 c 2.414,0 4.729,1.919 5.174,4.308 l 7.094,37.427 c 0.484,2.551 -1.151,4.618 -3.651,4.618 h -9.943 c -2.501,0 -4.89,-2.067 -5.335,-4.618"
         style="fill:#ee252c;fill-opacity:1;fill-rule:nonzero;stroke:#ffffff;stroke-width:0.75;stroke-miterlimit:4;stroke-dasharray:none;stroke-opacity:1"
         id="path180"
         inkscape:connector-curvature="0" /><path
         d="m 191.81,348.291 7.243,40.882 h -5.856 l -7.28,-42.045 c -0.421,-2.389 1.201,-4.308 3.602,-4.308 h 8.716 c 2.415,0 4.73,1.919 5.176,4.308 l 7.799,42.045 h -5.472 l -7.428,-40.882 c -0.111,-0.593 -0.693,-1.077 -1.288,-1.077 h -4.309 c -0.606,0 -1.003,0.484 -0.903,1.077"
         style="fill:#ee252c;fill-opacity:1;fill-rule:nonzero;stroke:#ffffff;stroke-width:0.75;stroke-miterlimit:4;stroke-dasharray:none;stroke-opacity:1"
         id="path182"
         inkscape:connector-curvature="0" /><path
         d="m 388.874,347.276 6.834,36.547 h 2.674 c 1.721,0 2.885,-1.398 2.587,-3.119 l -5.768,-30.308 c -0.297,-1.721 -1.932,-3.12 -3.653,-3.12 z m 1.82,41.897 -8.803,-46.353 h 13.347 c 2.414,0 4.729,1.919 5.175,4.308 l 7.094,37.427 c 0.482,2.551 -1.151,4.618 -3.652,4.618 h -13.161"
         style="fill:#ee252c;fill-opacity:1;fill-rule:nonzero;stroke:#ffffff;stroke-width:0.75;stroke-miterlimit:4;stroke-dasharray:none;stroke-opacity:1"
         id="path184"
         inkscape:connector-curvature="0" /><path
         d="m 217.128,368.2 c -0.519,0 -0.878,0.346 -0.916,0.83 0,0.074 0,0.161 0.013,0.247 l 2.698,14.015 c 0.248,0.21 0.558,0.346 0.868,0.346 h 2.846 c 0.619,0 1.92,-1.399 1.809,-2.029 l -2.427,-11.441 c -0.111,-0.593 -0.879,-1.968 -1.474,-1.968 z m 2.91,20.973 h -5.844 l -8.802,-46.353 h 5.843 l 3.987,20.985 h 7.428 c 2.414,0 4.729,1.931 5.175,4.308 l 3.182,16.442 c 0.483,2.551 -1.151,4.618 -3.652,4.618 z m -3.826,-20.143 0.013,0.247 c -0.013,-0.086 -0.013,-0.173 -0.013,-0.247"
         style="fill:#ee252c;fill-opacity:1;fill-rule:nonzero;stroke:#ffffff;stroke-width:0.75;stroke-miterlimit:4;stroke-dasharray:none;stroke-opacity:1"
         id="path186"
         inkscape:connector-curvature="0" /><path
         d="m 255.471,383.292 c 0.248,0.21 0.558,0.346 0.867,0.346 H 259 c 0.62,0 1.918,-1.399 1.795,-2.029 l -2.414,-11.441 c -0.111,-0.593 -1.585,-1.968 -2.178,-1.968 h -2.527 c -0.52,0 -0.879,0.346 -0.916,0.83 0,0.074 0,0.161 0.013,0.247 z m 4.123,-18.682 h -0.371 c 1.671,0.656 4.816,1.733 5.151,3.503 l 3.181,16.442 c 0.483,2.551 -1.151,4.618 -3.652,4.618 h -7.318 -5.842 l -8.804,-46.353 h 5.844 l 3.987,20.985 h 4.147 c 0.545,-0.508 0.594,-1.449 0.668,-1.919 0.113,-0.682 0.224,-1.548 0.137,-2.229 -0.074,-0.681 -3.194,-16.837 -3.194,-16.837 h 5.844 c 0,0 3.305,17.593 3.305,17.878 0.013,0.284 0.013,1.2 -0.309,1.696 -0.211,0.321 -0.594,1.076 -1.016,1.349 -0.816,0.52 -1.758,0.867 -1.758,0.867 z m -6.834,4.42 0.013,0.247 c -0.013,-0.086 -0.013,-0.173 -0.013,-0.247"
         style="fill:#ee252c;fill-opacity:1;fill-rule:nonzero;stroke:#ffffff;stroke-width:0.75;stroke-miterlimit:4;stroke-dasharray:none;stroke-opacity:1"
         id="path188"
         inkscape:connector-curvature="0" /><path
         d="m 251.498,336.852 -0.545,-10.301 h -1.734 l 0.223,2.377 h -1.027 l -0.905,-2.377 h -1.535 l 3.789,10.301 z m 127.794,-0.632 c 0.099,0.57 0.619,1.028 1.175,1.028 h 2.006 c 0.545,0 0.903,-0.458 0.805,-1.028 l -0.483,-2.538 h -1.251 l 0.285,1.684 c 0.062,0.384 -0.186,0.694 -0.57,0.694 -0.383,0 -0.743,-0.31 -0.804,-0.694 l -0.21,-1.225 c -0.049,-0.074 0.049,-0.422 0.123,-0.459 0.162,-0.099 1.77,-2.773 1.77,-2.971 0.05,-0.099 0.063,-0.161 0.063,-0.198 -0.063,-0.334 -0.495,-2.612 -0.495,-2.612 -0.1,-0.521 -0.607,-0.955 -1.139,-0.955 h -1.932 c -0.532,0 -0.891,0.434 -0.792,0.955 l 0.446,2.612 h 1.349 l -0.335,-1.882 c -0.061,-0.384 0.198,-0.693 0.57,-0.693 0.384,0 0.743,0.309 0.817,0.693 l 0.261,1.524 c -0.249,0.631 -1.858,2.908 -1.957,3.454 -0.075,0.061 -0.111,0.395 -0.099,0.643 0.012,0.273 0.397,1.968 0.397,1.968 z m -25.406,0 c 0.099,0.57 0.619,1.028 1.176,1.028 h 2.006 c 0.544,0 0.916,-0.458 0.805,-1.028 l -0.483,-2.538 h -1.251 l 0.285,1.684 c 0.063,0.384 -0.185,0.694 -0.569,0.694 -0.385,0 -0.743,-0.31 -0.805,-0.694 l -0.211,-1.225 c -0.037,-0.074 0.062,-0.422 0.124,-0.459 0.173,-0.099 1.783,-2.773 1.783,-2.971 0.037,-0.099 0.062,-0.161 0.05,-0.198 -0.05,-0.334 -0.496,-2.612 -0.496,-2.612 -0.098,-0.521 -0.606,-0.955 -1.139,-0.955 h -1.932 c -0.531,0 -0.891,0.434 -0.792,0.955 l 0.458,2.612 h 1.351 l -0.348,-1.882 c -0.062,-0.384 0.198,-0.693 0.582,-0.693 0.371,0 0.743,0.309 0.805,0.693 l 0.26,1.524 c -0.248,0.631 -1.857,2.908 -1.956,3.454 -0.075,0.061 -0.112,0.395 -0.099,0.643 0.012,0.273 0.396,1.968 0.396,1.968 z m 46.91,-9.274 2.019,10.302 h 2.711 l -0.21,-1.275 h -1.425 l -0.631,-3.194 h 1.437 l -0.198,-1.077 h -1.437 l -0.594,-3.479 h 1.436 l -0.198,-1.277 z m -10.981,0 1.597,9.027 h -0.805 l 0.236,1.275 h 3.045 l -0.198,-1.275 h -0.779 l -1.623,-9.027 z m 28.822,10.252 1.634,0.025 -1.745,-10.277 h -1.288 l 0.83,5.449 -2.291,-5.449 h -0.891 l -0.285,5.586 -1.003,-5.586 h -1.486 l 1.944,10.302 h 1.696 l 0.273,-5.968 z m -52.655,-5.584 -0.669,5.634 h 1.659 l 0.198,-3.913 2.129,3.913 h 1.611 l -3.343,-5.955 -0.83,-4.347 h -1.486 z M 223.48,331.293 c 0,0 0.558,-0.087 0.606,-0.198 0.062,-0.111 0.075,-0.409 0.075,-0.471 0,-0.061 -0.731,-4.073 -0.731,-4.073 h -1.3 c 0,0 0.694,3.59 0.718,3.739 0.013,0.16 -0.013,0.347 -0.037,0.496 -0.012,0.111 -0.024,0.321 -0.148,0.433 h -0.916 l -0.879,-4.668 h -1.288 l 1.944,10.301 h 1.287 1.622 c 0.545,0 0.916,-0.457 0.805,-1.029 l -0.705,-3.651 c -0.075,-0.396 -0.769,-0.73 -1.14,-0.879 z m -16.813,-4.742 2.017,10.301 h 2.712 l -0.198,-1.275 h -1.436 l -0.632,-3.195 h 1.437 l -0.198,-1.077 h -1.437 l -0.594,-3.478 h 1.437 l -0.198,-1.276 z m 86.665,10.251 1.646,0.025 -1.745,-10.276 h -1.288 l 0.83,5.447 -2.291,-5.447 h -0.903 l -0.273,5.583 -1.003,-5.583 h -1.485 l 1.943,10.301 h 1.684 l 0.284,-5.968 z m -30.123,0.05 -1.957,-10.301 h -1.287 l 1.945,10.301 z m 58.277,0 h 1.485 l -1.944,-10.301 h -1.287 l -0.484,5.981 -1.2,-5.981 h -1.485 l 1.956,10.301 h 1.287 l 0.669,-5.373 z m -44.88,0 h 1.485 l -1.943,-10.301 h -1.301 l -0.471,5.981 -1.201,-5.981 h -1.485 l 1.943,10.301 h 1.301 l 0.669,-5.373 z m 54.437,-10.301 1.598,9.026 h -0.805 l 0.247,1.275 h 3.034 l -0.199,-1.275 h -0.78 l -1.609,-9.026 z m -146.365,10.301 h 1.499 l -1.957,-10.301 h -1.287 l -0.471,5.981 -1.201,-5.981 h -1.485 l 1.943,10.301 h 1.288 l 0.681,-5.373 z m 118.596,-10.301 2.018,10.301 h 2.711 l -0.198,-1.275 h -1.436 l -0.631,-3.195 h 1.436 l -0.199,-1.077 h -1.436 l -0.594,-3.478 h 1.435 l -0.197,-1.276 z m -136.164,0 2.018,10.301 h 2.712 l -0.199,-1.275 h -1.435 l -0.62,-3.195 h 1.424 l -0.198,-1.077 h -1.437 l -0.581,-3.478 h 1.424 l -0.198,-1.276 z m 66.448,0 1.597,9.026 h -0.805 l 0.247,1.275 h 3.034 l -0.198,-1.275 h -0.78 l -1.61,-9.026 z m -39.211,0 1.598,9.026 h -0.805 l 0.248,1.275 h 3.033 l -0.198,-1.275 h -0.78 l -1.61,-9.026 z m -30.852,12.257 v -15.153 h 260.293 v 15.153 z m 85.291,-8.889 h 0.743 l 0.247,2.613 z m -26.619,2.277 h 0.558 c 0.136,0 0.457,0.299 0.483,0.434 l 0.532,2.538 c 0.024,0.149 -0.26,0.458 -0.396,0.458 h -0.583 c -0.074,0 -0.148,-0.037 -0.198,-0.087 l -0.594,-3.107 c 0,-0.025 0,-0.037 0,-0.062 0,-0.098 0.087,-0.174 0.198,-0.174"
         style="fill:#ee252c;fill-opacity:1;fill-rule:nonzero;stroke:#ffffff;stroke-width:0.75;stroke-miterlimit:4;stroke-dasharray:none;stroke-opacity:1"
         id="path190"
         inkscape:connector-curvature="0" /><path
         d="m 171.072,384.555 c 0,0 -1.733,-7.639 -1.782,-8.864 -0.05,-1.114 0.111,-2.625 0.458,-2.911 0.445,-2.451 8.604,-13.791 8.369,-15.525 -0.223,-1.733 -1.164,-6.859 -1.164,-6.859 -0.297,-1.721 -1.486,-3.12 -3.206,-3.12 -1.721,0 -2.885,1.399 -2.588,3.12 l 1.522,8.47 h -6.102 l -2.056,-11.738 c -0.421,-2.389 1.201,-4.308 3.602,-4.308 h 8.717 c 2.413,0 4.729,1.919 5.175,4.308 0,0 2.24,10.957 2.228,11.738 -0.012,0.779 -0.247,0.866 -0.247,0.866 v 0.024 c 0,0.892 -7.281,12.925 -8.023,13.371 -0.321,0.186 -0.569,1.35 -0.582,2.069 -0.013,0.717 0.94,5.508 0.94,5.508 0.298,1.721 1.932,3.119 3.654,3.119 1.721,0 2.438,-1.398 2.141,-3.119 l -1.312,-7.577 h 6.128 l 2.167,11.428 c 0.482,2.551 -1.152,4.618 -3.653,4.618 h -9.05 c -2.501,0 -4.89,-2.067 -5.336,-4.618"
         style="fill:#ee252c;fill-opacity:1;fill-rule:nonzero;stroke:#ffffff;stroke-width:0.75;stroke-miterlimit:4;stroke-dasharray:none;stroke-opacity:1"
         id="path192"
         inkscape:connector-curvature="0" /></g><g
       id="g939"
       transform="matrix(0.08437594,0,0,-0.12947576,351.81606,388.35281)"><rect
         y="0"
         x="-0.00087286026"
         height="496"
         width="1280.0017"
         id="rect825"
         style="fill:#000000;stroke:none;stroke-width:0.69162124;stroke-opacity:1" /><path
         style="fill:#ffffff;stroke:#ffffff;stroke-width:1"
         d="m 148,296 c 0,0 228,-228 228,-228 0,0 28,0 28,0 0,0 0,156 0,156 0,0 156,-156 156,-156 0,0 28,0 28,0 0,0 0,228 0,228 0,0 -40,0 -40,0 0,0 0,-160 0,-160 0,0 -160,160 -160,160 0,0 -28,0 -28,0 0,0 0,-160 0,-160 0,0 -160,160 -160,160 0,0 -52,0 -52,0 z M 1132,68 c 0,0 -24,0 -24,0 0,0 -64,64 -64,64 0,0 0,24 0,24 0,0 48,0 48,0 0,0 0,140 0,140 0,0 40,0 40,0 0,0 0,-228 0,-228 z m -328,0 c 0,0 -148,0 -148,0 -25,0 -44,31 -44,56 0,0 0,24 0,24 0,25 19,56 44,56 0,0 84,0 84,0 20,0 24,14 24,24 0,10 -4,24 -24,24 0,0 -128,0 -128,0 0,0 0,44 0,44 0,0 148,0 148,0 25,0 44,-31 44,-56 0,0 0,-24 0,-24 0,-25 -19,-56 -44,-56 0,0 -84,0 -84,0 -20,0 -24,-14 -24,-24 0,-10 4,-24 24,-24 0,0 128,0 128,0 0,0 0,-44 0,-44 z m 64,155 c 0,25 15,33 30,33 0,0 52,0 52,0 15,0 30,-8 30,-33 0,0 0,-155 0,-155 0,0 44,0 44,0 0,0 0,172 0,172 0,30 -13,56 -48,56 0,0 -104,0 -104,0 -35,0 -48,-26 -48,-56 0,0 0,-172 0,-172 0,0 44,0 44,0 0,0 0,155 0,155 z m 266,93 c 0,0 0,28 0,28 0,0 -994,0 -994,0 0,0 0,-28 0,-28 0,0 994,0 994,0 z M 827,421 c 0,10 -8,19 -18,19 0,0 -19,0 -19,0 -10,0 -18,-9 -18,-19 0,0 0,-39 0,-39 0,-10 8,-19 18,-19 0,0 19,0 19,0 10,0 18,9 18,19 0,0 -0.17,7.88 0,10 0,0 -22,0 -22,0 0,-10 0,-13 -4.5,-13 -4.5,0 -4.5,3 -4.5,13 0,0 0,18 0,18 0,10 0,13 4.53,13 4.47,0 4.47,-3 4.47,-13 0,0 22,0 22,0 0,4.31 0,11 0,11 z M 173,363 c 0,0 9.48,39 9.48,39 0,0 9.52,-39 9.52,-39 0,0 30,0 30,0 0,0 0,76 0,76 0,0 -22,0 -22,0 0,0 0,-46 0,-46 0,0 -13,46 -13,46 0,0 -9,0 -9,0 0,0 -13,-46 -13,-46 0,0 0,46 0,46 0,0 -22,0 -22,0 0,0 0,-76 0,-76 0,0 30,0 30,0 z m 101,0 c 0,0 0,17 0,17 0,0 -21,0 -21,0 0,0 0,12 0,12 0,0 18,0 18,0 0,0 0,17 0,17 0,0 -18,0 -18,0 0,0 0,13 0,13 0,0 21,0 21,0 0,0 0,17 0,17 0,0 -45,0 -45,0 0,0 0,-76 0,-76 0,0 45,0 45,0 z m 6,76 c 0,0 0,-76 0,-76 5.01,0 29,0 29,0 26,0 26,18 26,18 0,0 0,40 0,40 0,0 0,18 -20,18 0,0 -35,0 -35,0 z m 86,-76 c 0,0 0,76 0,76 0,0 -24,0 -24,0 0,0 0,-76 0,-76 0,0 24,0 24,0 z m 20,0 c 0,0 33,0 33,0 0,0 15,76 15,76 0,0 -24,0 -24,0 0,0 -2,-14 -2,-14 0,0 -11,0 -11,0 0,0 -2,14 -2,14 0,0 -24,0 -24,0 0,0 15,-76 15,-76 z m 99,46 c 0,0 0,13 0,13 0,0 21,0 21,0 0,0 0,17 0,17 0,0 -45,0 -45,0 0,0 0,-76 0,-76 0,0 45,0 45,0 0,0 0,17 0,17 0,0 -21,0 -21,0 0,0 0,12 0,12 0,0 18,0 18,0 0,0 0,17 0,17 0,0 -18,0 -18,0 z m 50,-46 c 0,0 13,38 13,38 0,0 0,-38 0,-38 0,0 22,0 22,0 0,0 0,76 0,76 0,0 -22,0 -22,0 0,0 -15,-41 -15,-41 0,0 0,41 0,41 0,0 -22,0 -22,0 0,0 0,-76 0,-76 0,0 24,0 24,0 z m 66,76 c 0,0 -24,0 -24,0 0,0 0,-76 0,-76 0,0 24,0 24,0 0,0 0,29 0,29 0,0 10,0 10,0 0,0 0,-29 0,-29 0,0 24,0 24,0 0,0 0,76 0,76 0,0 -24,0 -24,0 0,0 0,-30 0,-30 0,0 -10,0 -10,0 0,0 0,30 0,30 z m 54,-76 c 0,0 33,0 33,0 0,0 15,76 15,76 0,0 -24,0 -24,0 0,0 -2,-14 -2,-14 0,0 -11,0 -11,0 0,0 -2,14 -2,14 0,0 -24,0 -24,0 0,0 15,-76 15,-76 z m 74,35 c 0,0 0,41 0,41 0,0 -22,0 -22,0 0,0 0,-76 0,-76 0,0 24,0 24,0 0,0 13,38 13,38 0,0 0,-38 0,-38 0,0 22,0 22,0 0,0 0,76 0,76 0,0 -22,0 -22,0 0,0 -15,-41 -15,-41 z m 128,11 c 0,0 0,13 0,13 0,0 21,0 21,0 0,0 0,17 0,17 0,0 -45,0 -45,0 0,0 0,-76 0,-76 0,0 45,0 45,0 0,0 0,17 0,17 0,0 -21,0 -21,0 0,0 0,12 0,12 0,0 18,0 18,0 0,0 0,17 0,17 0,0 -18,0 -18,0 z m 55,-46 c 0,0 10.53,39 10.53,39 0,0 10.47,-39 10.47,-39 0,0 29,0 29,0 0,0 0,76 0,76 0,0 -22,0 -22,0 0,0 0,-46 0,-46 0,0 -13,46 -13,46 0,0 -9,0 -9,0 0,0 -13,-45 -13,-45 0,0 0,45 0,45 0,0 -22,0 -22,0 0,0 0,-76 0,-76 0,0 29,0 29,0 z m 102,0 c 0,0 0,17 0,17 0,0 -21,0 -21,0 0,0 0,12 0,12 0,0 18,0 18,0 0,0 0,17 0,17 0,0 -18,0 -18,0 0,0 0,13 0,13 0,0 21,0 21,0 0,0 0,17 0,17 0,0 -45,0 -45,0 0,0 0,-76 0,-76 0,0 45,0 45,0 z m 29,0 c 0,0 13,38 13,38 0,0 0,-38 0,-38 0,0 22,0 22,0 0,0 0,76 0,76 0,0 -22,0 -22,0 0,0 -15,-41 -15,-41 0,0 0,41 0,41 0,0 -22,0 -22,0 0,0 0,-76 0,-76 0,0 24,0 24,0 z m 90,0 c 0,0 0,17 0,17 0,0 -13,0 -13,0 0,0 0,59 0,59 0,0 -24,0 -24,0 0,0 0,-59 0,-59 0,0 -13,0 -13,0 0,0 0,-17 0,-17 0,0 50,0 50,0 z m -820,29 c 0.04,-10.02 -2,-12 -10,-12 0,0 0,42 0,42 8,0 10,-2 10,-12 0,0 0,-18 0,-18 z m 86,16 c 0,0 7,0 7,0 0,0 -3.53,-29 -3.53,-29 0,0 -3.47,29 -3.47,29 z m 269,0 c 0,0 7,0 7,0 0,0 -3.49,-29 -3.49,-29 0,0 -3.51,29 -3.51,29 z"
         id="MSU-1"
         inkscape:connector-curvature="0" /><path
         inkscape:connector-curvature="0"
         id="path827"
         d="M 140,330 V 316 H 636.99999 1134 v 14 14 H 636.99999 140 Z"
         style="fill:#ff0000;stroke:#ff0000;stroke-width:1.61332715;stroke-opacity:1" /></g></g></svg>