<?xml version="1.0" encoding="UTF-8" standalone="no"?>
<svg
   xmlns:dc="http://purl.org/dc/elements/1.1/"
   xmlns:cc="http://creativecommons.org/ns#"
   xmlns:rdf="http://www.w3.org/1999/02/22-rdf-syntax-ns#"
   xmlns:svg="http://www.w3.org/2000/svg"
   xmlns="http://www.w3.org/2000/svg"
   xmlns:sodipodi="http://sodipodi.sourceforge.net/DTD/sodipodi-0.dtd"
   xmlns:inkscape="http://www.inkscape.org/namespaces/inkscape"
   height="429"
   width="1363"
   viewBox="-222.20805 -101.87375 2187.3855 327.77959"
   version="1.1"
   id="svg855"
   sodipodi:docname="system.svg"
   inkscape:version="0.92.3 (2405546, 2018-03-11)">
  <metadata
     id="metadata859">
    <rdf:RDF>
      <cc:Work
         rdf:about="">
        <dc:format>image/svg+xml</dc:format>
        <dc:type
           rdf:resource="http://purl.org/dc/dcmitype/StillImage" />
        <dc:title></dc:title>
      </cc:Work>
    </rdf:RDF>
  </metadata>
  <sodipodi:namedview
     pagecolor="#ffffff"
     bordercolor="#666666"
     borderopacity="1"
     objecttolerance="10"
     gridtolerance="10"
     guidetolerance="10"
     inkscape:pageopacity="0"
     inkscape:pageshadow="2"
     inkscape:window-width="1841"
     inkscape:window-height="913"
     id="namedview857"
     showgrid="false"
     inkscape:zoom="0.5"
     inkscape:cx="191.12712"
     inkscape:cy="366.89689"
     inkscape:window-x="0"
     inkscape:window-y="0"
     inkscape:window-maximized="0"
     inkscape:current-layer="g853" />
  <defs
     id="defs347">
    <clipPath
       clipPathUnits="userSpaceOnUse"
       id="c">
      <path
         d="m 641.597,119.844 v -8.683 c 0,3.04 -0.108,5.974 -0.333,8.792 -0.216,2.828 -0.658,5.318 -1.324,7.49 -0.666,2.171 -1.511,3.909 -2.538,5.211 -1.034,1.303 -2.429,1.95 -4.203,1.95 -3.825,0 -6.255,-1.045 -7.289,-3.146 -1.026,-2.101 -1.549,-4.157 -1.549,-6.187 v 8.683 c 0,2.029 0.523,4.086 1.549,6.187 1.034,2.1 3.464,3.146 7.289,3.146 1.774,0 3.169,-0.647 4.203,-1.95 1.027,-1.303 1.872,-3.04 2.538,-5.211 0.666,-2.172 1.108,-4.662 1.324,-7.49 0.225,-2.819 0.333,-5.752 0.333,-8.792"
         id="path8"
         inkscape:connector-curvature="0" />
    </clipPath>
    <clipPath
       clipPathUnits="userSpaceOnUse"
       id="d">
      <path
         d="m 583.88,113.629 v -8.682 c 0,4.395 -0.019,8.674 -0.055,12.835 -0.071,8.322 -0.216,16.539 -0.44,24.64 -0.217,8.1 -0.549,16.574 -0.99,25.402 v 8.683 c 0.441,-8.828 0.773,-17.302 0.99,-25.403 0.224,-8.101 0.369,-16.317 0.44,-24.639 0.036,-4.162 0.055,-8.441 0.055,-12.836"
         id="path11"
         inkscape:connector-curvature="0" />
    </clipPath>
    <clipPath
       clipPathUnits="userSpaceOnUse"
       id="e">
      <path
         d="m 700.357,126.792 v -8.683 c 0,5.931 -0.845,10.167 -2.538,12.702 -1.691,2.526 -4.085,3.793 -7.181,3.793 -5.004,0 -8.101,-3.394 -9.279,-10.201 -1.179,-6.807 -1.764,-17.151 -1.764,-31.04 v 8.683 c 0,13.889 0.585,24.232 1.764,31.04 1.178,6.807 4.275,10.201 9.279,10.201 3.096,0 5.49,-1.267 7.181,-3.794 1.693,-2.535 2.538,-6.771 2.538,-12.701"
         id="path14"
         inkscape:connector-curvature="0" />
    </clipPath>
    <clipPath
       clipPathUnits="userSpaceOnUse"
       id="f">
      <path
         d="m 692.362,67.899 v 8.683 c 0,-1.88 1.369,-3.459 3.379,-3.705 v -8.683 c -2.01,0.246 -3.379,1.826 -3.379,3.705"
         id="path17"
         inkscape:connector-curvature="0" />
    </clipPath>
    <clipPath
       clipPathUnits="userSpaceOnUse"
       id="g">
      <path
         d="M 623.129,74.322 V 65.64 c -0.045,-2.305 -1.998,-4.219 -4.338,-4.255 v 8.682 c 2.34,0.036 4.293,1.951 4.338,4.255"
         id="path20"
         inkscape:connector-curvature="0" />
    </clipPath>
    <clipPath
       clipPathUnits="userSpaceOnUse"
       id="h">
      <path
         d="m 587.966,69.553 v -8.682 c -2.386,0.009 -4.248,1.853 -4.239,4.121 v 8.683 c -0.009,-2.269 1.853,-4.112 4.239,-4.122"
         id="path23"
         inkscape:connector-curvature="0" />
    </clipPath>
    <clipPath
       clipPathUnits="userSpaceOnUse"
       id="i">
      <path
         d="m 737.914,118.975 v -8.683 c 0,-7.958 -0.558,-16.131 -1.655,-24.523 -0.316,-2.403 -0.64,-4.805 -0.99,-7.198 -0.415,-2.854 -0.784,-5.664 -1.027,-8.545 -0.152,-1.87 -0.342,-3.74 -0.666,-5.6 -0.215,-1.233 -0.152,-3.059 -1.061,-4.051 -0.427,-0.465 -0.965,-0.604 -1.536,-0.604 -0.702,0 -1.454,0.211 -2.11,0.285 -1.907,0.212 -3.807,0.63 -5.723,0.85 -3.168,0.365 -6.336,0.692 -9.496,1.081 -4.976,0.621 -9.954,1.224 -14.93,1.835 v 8.683 c 4.976,-0.611 9.954,-1.214 14.93,-1.835 3.16,-0.39 6.328,-0.718 9.496,-1.081 1.916,-0.222 3.816,-0.639 5.723,-0.851 0.656,-0.073 1.408,-0.284 2.11,-0.284 0.571,0 1.109,0.138 1.536,0.604 0.909,0.992 0.846,2.818 1.061,4.049 0.324,1.862 0.514,3.732 0.666,5.602 0.243,2.881 0.612,5.69 1.027,8.544 0.35,2.393 0.674,4.796 0.99,7.197 1.097,8.394 1.655,16.566 1.655,24.525"
         id="path26"
         inkscape:connector-curvature="0" />
    </clipPath>
    <clipPath
       clipPathUnits="userSpaceOnUse"
       id="j">
      <path
         d="M 640.873,63.518 V 72.2 c 0,-2.197 1.773,-4.022 4.161,-4.109 v -8.683 c -2.388,0.087 -4.161,1.912 -4.161,4.11"
         id="path29"
         inkscape:connector-curvature="0" />
    </clipPath>
    <clipPath
       clipPathUnits="userSpaceOnUse"
       id="k">
      <path
         d="m 680.927,68.985 v -8.682 c 0,-0.721 -0.179,-1.316 -1.17,-1.541 -0.592,-0.135 -1.222,-0.181 -1.866,-0.181 -1.267,0 -2.586,0.178 -3.768,0.207 l -8.749,0.187 c -3.087,0.061 -6.174,0.132 -9.27,0.194 v 8.683 c 3.096,-0.062 6.183,-0.133 9.27,-0.196 2.917,-0.061 5.833,-0.124 8.749,-0.186 1.182,-0.029 2.501,-0.206 3.768,-0.206 0.644,0 1.274,0.046 1.866,0.179 0.991,0.227 1.17,0.822 1.17,1.542"
         id="path32"
         inkscape:connector-curvature="0" />
    </clipPath>
    <clipPath
       clipPathUnits="userSpaceOnUse"
       id="l">
      <path
         d="m 474.799,119.844 v -8.683 c 0,3.04 -0.108,5.974 -0.332,8.792 -0.217,2.828 -0.657,5.318 -1.323,7.49 -0.666,2.171 -1.512,3.909 -2.539,5.211 -1.035,1.303 -2.429,1.95 -4.193,1.95 -3.834,0 -6.265,-1.045 -7.29,-3.146 -1.035,-2.101 -1.548,-4.157 -1.548,-6.187 v 8.683 c 0,2.029 0.513,4.086 1.548,6.187 1.025,2.1 3.456,3.146 7.29,3.146 1.764,0 3.158,-0.647 4.193,-1.95 1.027,-1.303 1.873,-3.04 2.539,-5.211 0.666,-2.172 1.106,-4.662 1.323,-7.49 0.224,-2.819 0.332,-5.752 0.332,-8.792"
         id="path35"
         inkscape:connector-curvature="0" />
    </clipPath>
    <clipPath
       clipPathUnits="userSpaceOnUse"
       id="m">
      <path
         d="m 417.092,113.628 v -8.683 c 0,4.397 -0.018,8.676 -0.054,12.837 -0.081,8.322 -0.225,16.539 -0.441,24.64 -0.225,8.1 -0.558,16.565 -0.999,25.393 v 8.683 c 0.441,-8.828 0.774,-17.293 0.999,-25.394 0.216,-8.101 0.36,-16.317 0.441,-24.639 0.036,-4.162 0.054,-8.441 0.054,-12.837"
         id="path38"
         inkscape:connector-curvature="0" />
    </clipPath>
    <clipPath
       clipPathUnits="userSpaceOnUse"
       id="n">
      <path
         d="m 533.57,126.792 v -8.683 c 0,5.931 -0.856,10.167 -2.547,12.702 -1.692,2.526 -4.086,3.793 -7.173,3.793 -5.014,0 -8.1,-3.403 -9.28,-10.201 -1.178,-6.807 -1.773,-17.151 -1.773,-31.04 v 8.683 c 0,13.889 0.595,24.232 1.773,31.04 1.18,6.798 4.266,10.201 9.28,10.201 3.087,0 5.481,-1.267 7.173,-3.794 1.691,-2.535 2.547,-6.771 2.547,-12.701"
         id="path41"
         inkscape:connector-curvature="0" />
    </clipPath>
    <clipPath
       clipPathUnits="userSpaceOnUse"
       id="o">
      <path
         d="m 525.572,67.885 v 8.682 c 0,-1.872 1.375,-3.454 3.381,-3.699 v -8.682 c -2.006,0.245 -3.381,1.827 -3.381,3.699"
         id="path44"
         inkscape:connector-curvature="0" />
    </clipPath>
    <clipPath
       clipPathUnits="userSpaceOnUse"
       id="p">
      <path
         d="M 456.332,74.322 V 65.64 c -0.045,-2.305 -1.999,-4.219 -4.338,-4.255 v 8.682 c 2.339,0.036 4.293,1.951 4.338,4.255"
         id="path47"
         inkscape:connector-curvature="0" />
    </clipPath>
    <clipPath
       clipPathUnits="userSpaceOnUse"
       id="q">
      <path
         d="m 421.178,69.553 v -8.682 c -2.394,0.009 -4.248,1.853 -4.248,4.121 v 8.683 c 0,-2.269 1.854,-4.112 4.248,-4.122"
         id="path50"
         inkscape:connector-curvature="0" />
    </clipPath>
    <clipPath
       clipPathUnits="userSpaceOnUse"
       id="r">
      <path
         d="m 571.126,118.975 v -8.683 c 0,-7.958 -0.558,-16.14 -1.664,-24.533 A 541.988,541.988 0 0 0 565.376,59.71 v 8.682 a 542.381,542.381 0 0 1 4.086,26.049 c 1.106,8.394 1.664,16.575 1.664,24.534"
         id="path53"
         inkscape:connector-curvature="0" />
    </clipPath>
    <clipPath
       clipPathUnits="userSpaceOnUse"
       id="s">
      <path
         d="m 474.076,63.519 v 8.682 c 0,-2.198 1.771,-4.023 4.09,-4.11 v -8.683 c -2.319,0.087 -4.09,1.913 -4.09,4.111"
         id="path56"
         inkscape:connector-curvature="0" />
    </clipPath>
    <clipPath
       clipPathUnits="userSpaceOnUse"
       id="t">
      <path
         d="m 361.355,116.732 v -8.682 c 0,6.675 -0.037,12.479 -0.108,17.416 a 478.524,478.524 0 0 1 -0.442,14.368 601.64,601.64 0 0 1 -0.89,14.589 c -0.37,5.078 -0.774,11.105 -1.215,18.072 v 8.682 c 0.441,-6.966 0.845,-12.993 1.215,-18.072 0.369,-5.079 0.666,-9.945 0.89,-14.588 0.216,-4.645 0.361,-9.431 0.442,-14.369 0.071,-4.936 0.108,-10.742 0.108,-17.416"
         id="path59"
         inkscape:connector-curvature="0" />
    </clipPath>
    <clipPath
       clipPathUnits="userSpaceOnUse"
       id="u">
      <path
         d="m 334.791,173.996 v -8.683 c 0,-0.218 -0.02,-0.442 -0.059,-0.67 -0.075,-0.447 -1.511,-8.917 -2.402,-15.883 a 1061.32,1061.32 0 0 1 -2.214,-20.031 c -0.757,-7.383 -1.107,-14.458 -1.107,-21.982 v 8.683 c 0,7.524 0.35,14.597 1.107,21.981 0.738,7.259 1.476,13.933 2.214,20.03 0.891,6.967 2.327,15.438 2.402,15.884 0.039,0.228 0.059,0.452 0.059,0.671"
         id="path62"
         inkscape:connector-curvature="0" />
    </clipPath>
    <clipPath
       clipPathUnits="userSpaceOnUse"
       id="v">
      <path
         d="m 364.727,73.536 v -8.682 c 0,1.108 -0.217,2.102 -1.032,2.38 a 1.155,1.155 0 0 1 -0.38,0.062 c -1.251,0 -2.669,-1.836 -3.517,-2.463 a 41.984,41.984 0 0 0 -6.75,-4.023 40.063,40.063 0 0 0 -7.651,-2.722 c -2.654,-0.655 -5.237,-0.976 -7.749,-0.976 -8.72,0 -16.208,1.189 -22.49,3.564 -6.273,2.384 -11.403,5.77 -15.39,10.166 -3.988,4.405 -6.949,9.741 -8.866,16.025 -1.916,6.284 -2.879,13.348 -2.879,21.183 v 8.682 c 0,-7.835 0.963,-14.898 2.879,-21.182 1.917,-6.284 4.878,-11.62 8.866,-16.026 3.987,-4.395 9.117,-7.782 15.39,-10.166 6.282,-2.376 13.77,-3.563 22.49,-3.563 2.512,0 5.095,0.319 7.749,0.976 a 40.194,40.194 0 0 1 7.651,2.72 42.063,42.063 0 0 1 6.75,4.024 c 0.848,0.628 2.266,2.464 3.517,2.464 0.129,0 0.255,-0.02 0.38,-0.062 0.815,-0.278 1.032,-1.272 1.032,-2.381"
         id="path65"
         inkscape:connector-curvature="0" />
    </clipPath>
    <clipPath
       clipPathUnits="userSpaceOnUse"
       id="w">
      <path
         d="m 368.716,66.105 v -8.682 c -2.412,0 -4.265,1.844 -4.265,4.103 v 8.683 c 0,-2.26 1.853,-4.104 4.265,-4.104"
         id="path68"
         inkscape:connector-curvature="0" />
    </clipPath>
    <clipPath
       clipPathUnits="userSpaceOnUse"
       id="x">
      <path
         d="m 253.273,134.751 v -8.682 a 4.584,4.584 0 0 0 -1.1,-0.131 c -1.958,0 -3.934,1.185 -4.713,2.958 -0.068,0.156 -1.368,3.102 -4.393,6.143 -3.014,3.04 -7.613,4.565 -13.805,4.565 -2.061,0 -4.158,-0.479 -6.292,-1.418 -2.141,-0.941 -4.058,-2.314 -5.741,-4.123 v 8.683 c 1.683,1.809 3.6,3.182 5.741,4.121 2.134,0.941 4.231,1.419 6.292,1.419 6.192,0 10.791,-1.524 13.805,-4.564 3.025,-3.041 4.325,-5.988 4.393,-6.143 0.779,-1.773 2.755,-2.959 4.713,-2.959 0.37,0 0.74,0.042 1.1,0.131"
         id="path71"
         inkscape:connector-curvature="0" />
    </clipPath>
    <clipPath
       clipPathUnits="userSpaceOnUse"
       id="y">
      <path
         d="m 217.229,142.746 v -8.683 c -1.701,-1.807 -3.096,-4.085 -4.204,-6.841 -1.107,-2.748 -1.655,-6 -1.655,-9.768 v 8.682 c 0,3.767 0.548,7.02 1.655,9.768 1.108,2.756 2.503,5.034 4.204,6.842"
         id="path74"
         inkscape:connector-curvature="0" />
    </clipPath>
    <clipPath
       clipPathUnits="userSpaceOnUse"
       id="z">
      <path
         d="m 278.575,106.834 v -8.683 c 0,-0.395 -0.059,-0.798 -0.182,-1.198 -0.143,-0.462 -2.853,-9.235 -6.165,-14.447 -3.312,-5.202 -7.182,-9.51 -11.592,-12.914 a 46.883,46.883 0 0 0 -14.58,-7.595 54.712,54.712 0 0 0 -16.354,-2.5 c -9.864,0 -18.332,1.524 -25.407,4.565 -7.064,3.04 -12.915,7.126 -17.558,12.257 -4.635,5.141 -8.064,11.116 -10.27,17.913 -2.213,6.798 -3.311,13.96 -3.311,21.494 v 8.682 c 0,-7.534 1.098,-14.695 3.311,-21.493 2.206,-6.799 5.635,-12.772 10.27,-17.913 4.643,-5.132 10.494,-9.218 17.558,-12.258 7.075,-3.04 15.543,-4.564 25.407,-4.564 a 54.68,54.68 0 0 1 16.354,2.5 46.88,46.88 0 0 1 14.58,7.594 c 4.41,3.405 8.28,7.712 11.592,12.914 3.312,5.212 6.022,13.986 6.165,14.448 0.123,0.399 0.182,0.802 0.182,1.198"
         id="path77"
         inkscape:connector-curvature="0" />
    </clipPath>
    <clipPath
       clipPathUnits="userSpaceOnUse"
       id="A">
      <path
         d="m 149.999,174.778 v -8.682 c -0.744,-1.128 -1.897,-1.722 -3.084,-1.722 -0.853,0 -1.724,0.308 -2.469,0.941 -0.16,0.137 -3.204,2.731 -6.75,4.991 -3.547,2.242 -7.021,4.165 -10.423,5.77 -3.401,1.595 -6.578,2.791 -9.53,3.598 -2.961,0.789 -5.544,1.197 -7.767,1.197 -2.656,0 -4.617,-0.656 -5.868,-1.959 -1.26,-1.312 -1.891,-2.978 -1.891,-5.016 v 8.682 c 0,2.039 0.631,3.704 1.891,5.016 1.251,1.303 3.212,1.959 5.868,1.959 2.223,0 4.806,-0.407 7.767,-1.196 2.952,-0.807 6.129,-2.003 9.53,-3.599 3.402,-1.604 6.876,-3.528 10.423,-5.77 3.546,-2.26 6.59,-4.854 6.75,-4.99 0.745,-0.634 1.616,-0.941 2.469,-0.941 1.187,0 2.34,0.593 3.084,1.721"
         id="path80"
         inkscape:connector-curvature="0" />
    </clipPath>
    <clipPath
       clipPathUnits="userSpaceOnUse"
       id="B">
      <path
         d="m 115.97,108.711 v -8.682 c 0,2.756 -1.522,5.371 -4.545,7.844 -3.033,2.464 -6.804,5.043 -11.313,7.737 -4.509,2.686 -9.387,5.584 -14.634,8.713 a 85.455,85.455 0 0 0 -14.634,10.999 59.127,59.127 0 0 0 -11.313,14.491 c -3.025,5.452 -4.545,11.736 -4.545,18.853 v 8.682 c 0,-7.117 1.52,-13.401 4.545,-18.852 a 59.127,59.127 0 0 1 11.313,-14.491 85.512,85.512 0 0 1 14.634,-11 c 5.247,-3.128 10.125,-6.026 14.634,-8.712 4.509,-2.694 8.28,-5.273 11.313,-7.737 3.023,-2.474 4.545,-5.088 4.545,-7.845"
         id="path83"
         inkscape:connector-curvature="0" />
    </clipPath>
    <clipPath
       clipPathUnits="userSpaceOnUse"
       id="C">
      <path
         d="m 163.643,113.284 v -8.681 c 0,-7.845 -1.665,-14.633 -4.986,-20.369 -3.33,-5.743 -7.65,-10.458 -12.978,-14.163 -5.32,-3.705 -11.34,-6.47 -18.072,-8.287 -6.724,-1.808 -13.491,-2.721 -20.287,-2.721 -13.598,0 -25.02,2.473 -34.262,7.41 -9.234,4.936 -17.55,12.417 -24.939,22.441 v 8.683 c 7.389,-10.025 15.705,-17.505 24.939,-22.442 9.242,-4.936 20.664,-7.41 34.262,-7.41 6.796,0 13.563,0.913 20.287,2.722 6.732,1.816 12.752,4.582 18.072,8.286 5.328,3.706 9.648,8.421 12.978,14.164 3.321,5.734 4.986,12.523 4.986,20.367"
         id="path86"
         inkscape:connector-curvature="0" />
    </clipPath>
    <clipPath
       clipPathUnits="userSpaceOnUse"
       id="S">
      <path
         d="m 613.791,79.322 h 4.338 V 66.385 h -4.338 z"
         id="path134"
         inkscape:connector-curvature="0" />
    </clipPath>
    <clipPath
       clipPathUnits="userSpaceOnUse"
       id="ba">
      <path
         d="M 168.156,129.408 H 273.575 V 64.498 H 168.156 Z"
         id="path314"
         inkscape:connector-curvature="0" />
    </clipPath>
  </defs>
  <g
     clip-path="none"
     transform="matrix(1.33333,0,0,-1.33333,-35.973,-168.31314)"
     id="g853">
    <g
       id="g1985"
       transform="matrix(1.25,0,0,1.25,-41.488055,-386.73743)">
      <path
         style="fill:#333333"
         inkscape:connector-curvature="0"
         id="path515"
         d="m 1090.589,36.459 -18.134,1.876 -2.935,0.305 -16.442,1.7 c -2.692,0.279 -4.708,2.715 -4.475,5.412 l 6.648,77.296 0.253,2.953 4.323,50.235 c 0.232,2.697 -0.687,2.986 -2.038,0.641 L 985.384,51.311 c -1.353,-2.346 -4.663,-4.029 -7.354,-3.745 l -20.878,2.223 c -2.692,0.286 -5.517,2.647 -6.272,5.248 l -15.037,51.634 -0.861,2.953 -25.724,88.326 c -0.758,2.6 -1.682,2.532 -2.055,-0.149 l -10.992,-79.075 -0.41,-2.956 -2.844,-20.456 -0.407,-2.923 -4.22,-30.354 c -0.37,-2.682 -2.882,-4.684 -5.58,-4.449 l -31.301,2.732 c -2.698,0.236 -4.58,2.619 -4.18,5.299 l 4.707,31.598 0.434,2.92 2.92,19.605 0.444,2.954 15.335,102.938 0.437,2.953 9.512,63.839 c 0.397,2.678 2.927,4.647 5.62,4.376 l 38.817,-3.907 c 2.695,-0.271 5.477,-2.633 6.18,-5.248 l 10.72,-39.747 0.797,-2.952 21.554,-79.938 0.798,-2.953 12.839,-47.613 c 0.704,-2.611 2.348,-2.809 3.646,-0.434 l 67.715,123.663 1.616,2.955 17.946,32.773 c 1.3,2.375 4.57,4.127 7.27,3.894 l 11.595,-1.009 3.025,-0.263 20.595,-1.792 a 4.925,4.925 0 0 0 4.468,-5.331 l -5.708,-63.995 -0.26,-2.954 -11.398,-127.823 -0.266,-2.955 -2.703,-30.318 a 4.853,4.853 0 0 0 -5.264,-4.403 l -0.071,0.007 m 37.367,246.784 c -3.722,4.439 -8.95,7.163 -14.715,7.665 l -35.215,3.062 c -9.298,0.81 -18.922,-4.345 -23.403,-12.531 L 984.983,154.26 c -12.097,44.851 -37.145,137.746 -37.145,137.746 -2.521,9.359 -11.02,16.574 -20.667,17.544 l -38.814,3.908 c -11.653,1.172 -22.131,-6.982 -23.858,-18.564 L 830.71,68.086 c -0.867,-5.823 0.716,-11.8 4.344,-16.398 3.627,-4.598 9.07,-7.528 14.938,-8.042 l 31.3,-2.733 c 11.635,-1.016 22.01,7.25 23.62,18.817 0,0 4.409,31.727 8.778,63.142 l 21.114,-72.516 c 2.66,-9.13 11.12,-16.208 20.574,-17.213 l 20.879,-2.221 c 9.259,-0.985 18.975,3.959 23.626,12.022 0,0 18.628,32.31 37.229,64.563 l -5.19,-60.321 a 21.475,21.475 0 0 1 -0.08,-1.854 c 0,-10.978 8.404,-20.492 19.512,-21.642 l 37.515,-3.883 c 5.794,-0.599 11.462,1.111 15.957,4.817 4.495,3.706 7.256,8.94 7.773,14.746 l 20.333,228.042 c 0.513,5.767 -1.256,11.388 -4.977,15.831" />
      <path
         style="fill:#b5b5b5"
         inkscape:connector-curvature="0"
         id="path517"
         d="m 1095.924,40.855 2.703,30.318 0.266,2.954 11.398,127.823 0.26,2.954 5.708,63.995 a 4.925,4.925 0 0 1 -4.468,5.331 l -20.595,1.792 -3.025,0.263 -11.595,1.01 c -2.7,0.232 -5.97,-1.52 -7.27,-3.895 l -17.946,-32.773 -1.616,-2.955 -67.715,-123.663 c -1.298,-2.375 -2.942,-2.176 -3.646,0.435 l -12.84,47.612 -0.797,2.953 -21.554,79.938 -0.797,2.952 -10.72,39.748 c -0.703,2.614 -3.485,4.976 -6.18,5.247 l -38.816,3.907 c -2.693,0.271 -5.224,-1.697 -5.621,-4.376 l -9.512,-63.839 -0.437,-2.953 -15.335,-102.937 -0.444,-2.953 -2.92,-19.606 -0.434,-2.92 -4.707,-31.597 c -0.4,-2.68 1.482,-5.064 4.18,-5.3 l 31.3,-2.732 c 2.699,-0.235 5.21,1.767 5.582,4.45 l 4.219,30.353 0.407,2.924 2.844,20.455 0.41,2.956 10.992,79.075 c 0.373,2.68 1.297,2.749 2.055,0.149 l 25.724,-88.325 0.86,-2.954 15.038,-51.633 c 0.755,-2.602 3.58,-4.962 6.273,-5.248 l 20.877,-2.223 c 2.69,-0.284 6,1.398 7.354,3.744 l 72.405,125.566 c 1.35,2.345 2.27,2.056 2.038,-0.641 l -4.323,-50.234 -0.253,-2.954 -6.648,-77.296 c -0.233,-2.697 1.783,-5.132 4.475,-5.412 l 16.442,-1.7 2.935,-0.305 18.134,-1.875 0.07,-0.007 a 4.852,4.852 0 0 1 5.265,4.403" />
      <path
         style="fill:#333333"
         inkscape:connector-curvature="0"
         id="path519"
         d="m 1085.349,74.128 -0.405,-0.823 -2.442,-4.954 -9.802,-1.292 -1.196,-0.158 -0.085,-1.201 -1.9,-27.06 2.936,-0.305 1.824,25.952 9.39,1.236 0.783,0.104 0.349,0.708 2.386,4.838 h 11.44 l 0.266,2.955 h -10e-4 z m -233.373,23.089 40.574,-4.826 0.407,2.924 -40.546,4.822 z m 93.227,64.84 h 20.341 l -0.798,2.953 h -22.5 v -55.386 h -7.265 l 0.862,-2.953 h 9.36 z m 133.547,76.627 12.446,37.339 -3.025,0.263 -11.886,-35.658 h -24.926 l -1.615,-2.955 h 28.67 z m 4.623,-33.67 -0.302,-1.087 -8.779,-31.73 -0.053,-0.19 -10e-4,-0.2 -0.121,-45.806 h -18.613 l -0.253,-2.953 h 21.816 v 1.474 l 0.124,47.08 8.426,30.449 24.67,-0.1 0.26,2.954 -26.05,0.104 z m -190.727,21.65 5.814,18.284 h 44.731 l -0.797,2.952 H 896.3 l -0.327,-1.028 -5.815,-18.285 h -18.612 l -0.437,-2.953 h 21.21 z m -23.53,-104.23 -0.326,0.177 -0.37,0.005 -12.647,0.08 -0.443,-2.953 12.7,-0.081 6.822,-3.71 0.33,-0.182 h 20.62 l 0.41,2.956 h -20.28 z m -54.312,-57.8 c -0.45,-2.67 -2.998,-5.267 -5.657,-5.77 l -21.015,-3.97 c -2.66,-0.501 -5.97,0.992 -7.35,3.32 l -14.862,25.039 -1.536,2.584 -32.741,55.163 -1.525,2.575 -50.943,85.824 -1.753,2.954 -17.091,28.796 c -1.38,2.328 -0.341,4.682 2.31,5.23 l 41.503,8.577 c 2.65,0.548 5.905,-0.936 7.232,-3.295 l 8.699,-15.48 1.662,-2.953 44.63,-79.412 1.47,-2.62 17.478,-31.09 c 1.325,-2.36 2.715,-2.097 3.084,0.585 l 13.83,100.495 0.41,2.955 6.239,45.347 c 0.369,2.683 2.844,5.313 5.497,5.85 l 13.68,2.756 2.949,0.595 19.404,3.909 c 2.66,0.536 4.463,-1.212 4.012,-3.882 l -15.87,-93.768 -0.501,-2.952 -6.918,-40.877 -0.502,-2.957 -5.387,-31.833 -0.73,-4.335 z m 52.088,250.956 h -0.001 a 16.738,16.738 0 0 1 -14.956,4.39 l -45.69,-9.205 a 16.738,16.738 0 0 1 -13.277,-14.127 c 0,0 -8.592,-62.422 -15.032,-109.237 -23.248,41.36 -54.376,96.745 -54.376,96.745 a 16.742,16.742 0 0 1 -17.981,8.19 l -51.145,-10.57 c -9.053,-1.87 -14.877,-10.722 -13.01,-19.775 a 16.749,16.749 0 0 1 2,-5.161 l 125.48,-211.4 a 16.737,16.737 0 0 1 17.502,-7.904 l 30.687,5.797 a 16.739,16.739 0 0 1 13.399,13.655 l 41.256,243.792 a 16.742,16.742 0 0 1 -4.856,14.81" />
      <path
         style="fill:#b5b5b5"
         inkscape:connector-curvature="0"
         id="path521"
         d="m 825.242,126.33 5.387,31.832 0.502,2.957 6.918,40.877 0.502,2.952 15.87,93.768 c 0.45,2.67 -1.353,4.418 -4.013,3.882 l -19.404,-3.909 -2.949,-0.595 -13.68,-2.756 c -2.654,-0.537 -5.128,-3.167 -5.497,-5.85 l -6.24,-45.347 -0.409,-2.956 L 788.4,140.69 c -0.37,-2.68 -1.76,-2.944 -3.085,-0.585 l -17.477,31.092 -1.469,2.62 -44.632,79.41 -1.66,2.955 -8.7,15.48 c -1.327,2.357 -4.582,3.842 -7.233,3.293 l -41.503,-8.576 c -2.65,-0.549 -3.689,-2.903 -2.309,-5.23 l 17.091,-28.797 1.753,-2.953 50.943,-85.824 1.524,-2.575 32.743,-55.164 1.536,-2.584 14.86,-25.037 c 1.382,-2.329 4.691,-3.823 7.351,-3.32 l 21.014,3.97 c 2.66,0.502 5.207,3.1 5.658,5.77 l 9.71,57.36 z" />
      <path
         style="fill:#333333"
         inkscape:connector-curvature="0"
         id="path523"
         d="m 694.757,229.4 v 19.658 h 13.94 l 0.443,0.605 2.61,3.565 h 9.986 l -1.661,2.954 h -9.823 l -0.44,-0.604 -2.612,-3.566 h -15.4 v -19.66 h -14.378 l 1.753,-2.953 h 14.105 z m 122.349,12.132 5.526,4.636 0.528,0.44 v 23.915 l 3.522,3.766 0.4,0.426 v 8.122 l 3.424,3.037 0.497,0.439 v 12.376 l -2.948,-0.595 V 287.64 l -3.427,-3.036 -0.497,-0.44 v -8.284 l -3.522,-3.765 -0.399,-0.427 v -23.7 l -4.588,-3.848 h -12.984 l -0.409,-2.955 h 14.465 z m 3.488,-45.906 -3.883,-3.798 -0.44,-0.434 -0.004,-0.618 -0.093,-31.134 -0.005,-1.48 h 14.46 l 0.502,2.957 h -11.998 l 0.086,29.032 3.887,3.801 0.442,0.435 v 7.609 h 14.5 l 0.503,2.952 h -17.957 z m -16.998,-78.004 -0.507,0.004 -0.403,-0.31 -8.381,-6.42 -0.578,-0.44 v -13.79 l -29.342,-10.83 1.536,-2.585 29.796,11 0.967,0.354 v 14.388 l 7.397,5.667 10.46,-0.085 0.52,-0.005 0.405,0.32 9.047,7.103 0.729,4.335 -11.196,-8.792 z m -37.228,56.194 -36.25,-30.241 1.524,-2.575 36.195,30.197 z" />
      <path
         style="fill:#333333"
         inkscape:connector-curvature="0"
         id="path525"
         d="m 716.597,190.83 c 29.608,-11.83 37.399,-50.61 32.642,-94.561 -2.063,-19.06 -2.481,-42.98 -21.121,-45.6 -6.34,-0.891 -13.5,0.63 -20.161,1.438 -5.978,0.73 -12.82,3.12 -18.718,2.4 -3.59,-0.44 -6.321,-3.36 -9.603,-4.32 -7.29,-2.14 -16.358,-0.96 -26.397,-0.96 -6.142,0 -12.371,-0.1 -17.76,0.96 -3.25,0.642 -6.58,3.102 -10.08,3.36 -3.201,0.24 -6.442,-1.53 -10.08,-1.92 -9.772,-1.04 -22.881,-1.36 -33.121,-0.48 -3.67,0.32 -7.721,2.45 -11.04,2.4 -3.271,-0.05 -6.94,-2.48 -10.561,-2.88 -12.83,-1.42 -26.32,4.949 -37.44,3.84 -5.181,-0.521 -10.42,-5.12 -17.28,-5.76 -9.9,-0.932 -26.16,-0.352 -36,1.438 -3.688,0.67 -7.48,3.12 -11.04,3.36 -3.228,0.22 -6.908,-1.58 -10.56,-1.92 -9.33,-0.87 -20.99,-0.95 -30.721,-0.48 -2.8,0.143 -5.608,1.12 -8.16,0.96 -4.42,-0.28 -8.79,-3.34 -12.96,-3.84 -11.14,-1.34 -23.55,-1.54 -34.08,-0.48 -3.738,0.38 -7.54,2.359 -11.52,2.399 -5.39,0.063 -10.39,-2.49 -14.88,-2.88 -25.94,-2.26 -45.47,10.2 -58.56,24.48 -5.79,-2.78 -9.5,-7.922 -14.88,-11.521 -24.061,-16.11 -65.12,-11.47 -86.4,5.28 -3.02,2.38 -7.33,9.66 -11.04,9.6 -3.16,-0.05 -8.67,-7.41 -11.52,-9.6 -11.33,-8.682 -26.59,-15.04 -45.601,-16.32 -28.6,-1.92 -51.45,8.77 -66.238,22.562 -7.58,7.078 -18.512,18.698 -13.441,33.118 2.61,7.42 10.25,15.012 15.84,21.602 2.062,2.43 5.15,4.8 5.28,7.2 0.24,4.318 -6.82,10.75 -8.64,13.92 -8.25,14.39 -10.89,38.14 -2.881,56.16 9.552,21.479 34.78,37.02 69.12,34.56 13.09,-0.94 26.53,-4.97 37.92,-11.521 16.27,-9.351 33.15,-18 27.84,-42.721 6.86,1.47 10.8,6.352 16.8,9.12 20.86,9.63 54.24,8.95 73.44,-3.36 2.41,-1.55 6.102,-5.25 8.16,-5.278 3.82,-0.05 8.51,7.648 12,9.12 7.82,3.3 32.96,3.479 44.16,2.398 4.46,-0.43 9.03,-3.55 12.48,-3.358 3.76,0.21 8.61,4.868 11.52,5.76 8.95,2.74 36.5,3.858 46.56,0.96 3.312,-0.95 6.84,-4.84 10.562,-5.28 3.539,-0.42 8.149,1.27 12,1.44 7.149,0.33 15.18,0.818 22.08,0.479 4.979,-0.24 9.688,-3.08 14.398,-3.358 4.38,-0.262 9.61,1.96 14.4,1.92 3.84,-0.03 8.25,-0.95 12,-1.92 3.569,-0.921 7.14,-3.382 10.079,-3.36 4.38,0.03 9.08,3.32 12.96,4.32 13.439,3.448 28.39,2.688 42.242,-2.4 3.1,-1.14 8.719,-6.26 12,-6.24 3.89,0.02 8.469,6.78 12,8.16 9.827,3.83 24.328,3.33 35.999,2.88 5.26,-0.2 9.98,-3.108 14.882,-3.358 4.349,-0.222 9.01,1.85 13.437,1.92 4.2,0.068 8.24,-0.95 12,-1.92 3.789,-0.98 7.78,-3.32 10.563,-3.36 3.719,-0.05 7.379,2.92 10.558,3.84 14.502,4.173 31.743,3.523 46.562,-2.398" />
      <path
         d="m 731.033,147.534 c 1.252,-7.17 1.881,-15.023 1.881,-23.56 0,-7.959 -0.558,-16.13 -1.655,-24.524 -0.316,-2.4 -0.64,-4.804 -0.99,-7.197 -0.415,-2.854 -0.784,-5.663 -1.027,-8.544 -0.152,-1.87 -0.342,-3.74 -0.666,-5.602 -0.215,-1.23 -0.152,-3.057 -1.062,-4.05 -0.426,-0.465 -0.964,-0.603 -1.535,-0.603 -0.702,0 -1.454,0.211 -2.11,0.284 -1.907,0.212 -3.807,0.63 -5.724,0.851 -3.168,0.363 -6.336,0.691 -9.495,1.081 -4.976,0.621 -9.954,1.223 -14.93,1.835 l -2.979,0.372 c -2.322,0.284 -3.79,2.348 -3.276,4.6 0.22,0.95 4.391,18.958 5.796,27.715 1.404,8.758 2.096,15.954 2.096,21.6 0,5.93 -0.845,10.166 -2.538,12.701 -1.69,2.526 -4.085,3.794 -7.182,3.794 -5.003,0 -8.1,-3.395 -9.278,-10.2 -1.18,-6.809 -1.764,-17.153 -1.764,-31.04 0,-1.88 0.036,-4.344 0.107,-7.384 0.072,-3.04 0.153,-6.222 0.226,-9.546 0.072,-3.332 0.215,-6.594 0.44,-9.768 0.117,-1.753 0.451,-3.482 0.505,-5.247 0.035,-1.169 0.36,-2.322 -1.116,-2.659 -0.592,-0.134 -1.222,-0.18 -1.867,-0.18 -1.266,0 -2.586,0.178 -3.767,0.207 -2.916,0.062 -5.832,0.125 -8.749,0.186 -3.087,0.063 -6.174,0.134 -9.27,0.195 l -7.569,0.161 -3.5,0.08 c -2.448,0.088 -4.249,2.002 -4.158,4.271 0.006,0.172 0.126,3.447 0.278,6.567 0.153,3.324 0.262,6.657 0.334,9.98 0.071,3.546 0.107,7.712 0.107,12.49 v 18.444 c 0,3.04 -0.107,5.973 -0.333,8.792 -0.215,2.828 -0.657,5.318 -1.323,7.49 -0.666,2.171 -1.51,3.908 -2.538,5.211 -1.034,1.302 -2.43,1.95 -4.203,1.95 -3.825,0 -6.255,-1.046 -7.289,-3.147 -1.026,-2.1 -1.549,-4.157 -1.549,-6.186 l -1.232,-59.632 c -0.045,-2.305 -1.998,-4.22 -4.338,-4.255 l -30.825,-0.514 c -2.386,0.01 -4.248,1.853 -4.24,4.122 0.002,0.858 0.027,17.16 0.1,26.421 0.071,9.253 0.071,18.045 0,26.37 -0.073,8.321 -0.217,16.537 -0.442,24.638 -0.216,8.101 -0.549,16.575 -0.99,25.403 l 31.761,0.761 c 2.391,0.001 4.45,-1.805 4.69,-4.059 0.125,-1.143 0.243,-2.278 0.36,-3.42 0.08,-0.879 0.1,-1.782 0.332,-2.633 0.127,-0.497 0.46,-1.32 1.017,-1.445 0.605,-0.019 1.026,0.355 1.306,0.637 0.225,0.223 0.423,0.461 0.63,0.71 1.251,1.516 2.871,2.97 4.86,4.343 1.99,1.374 4.23,2.49 6.731,3.368 2.503,0.86 5.157,1.294 7.957,1.294 5.598,0 10.232,-1.267 13.913,-3.794 1.944,-1.338 3.753,-2.924 5.148,-4.82 0.577,-0.772 1.431,-1.844 2.403,-2.12 1.568,-0.05 2.555,1.59 3.348,2.314 a 35.557,35.557 0 0 0 3.313,2.685 51.277,51.277 0 0 0 3.798,2.482 c 5.075,3.04 11.15,4.556 18.224,4.556 9.423,0 17.082,-1.444 22.978,-4.334 5.886,-2.898 10.52,-6.914 13.914,-12.055 3.384,-5.13 5.705,-11.282 6.956,-18.443"
         id="path627"
         inkscape:connector-curvature="0"
         style="fill:#00c832" />
      <path
         d="m 557.29,165.977 c 3.383,-5.13 5.705,-11.282 6.956,-18.453 1.251,-7.16 1.88,-15.014 1.88,-23.55 0,-7.959 -0.558,-16.14 -1.664,-24.533 a 542.225,542.225 0 0 0 -4.086,-26.05 l -36.423,4.477 c -2.322,0.284 -3.798,2.358 -3.276,4.6 0.22,0.948 4.392,18.967 5.787,27.724 1.403,8.759 2.106,15.955 2.106,21.6 0,5.93 -0.856,10.165 -2.547,12.701 -1.692,2.526 -4.087,3.794 -7.173,3.794 -5.014,0 -8.1,-3.404 -9.28,-10.202 -1.178,-6.807 -1.773,-17.15 -1.773,-31.04 0,-1.886 0.036,-4.341 0.117,-7.381 0.072,-3.04 0.145,-6.223 0.217,-9.556 0.072,-3.323 0.224,-6.585 0.441,-9.767 0.225,-3.181 0.476,-5.858 0.773,-8.03 l -36.18,0.78 c -2.375,0.088 -4.175,2.002 -4.085,4.272 0.006,0.172 0.135,3.447 0.28,6.558 0.152,3.332 0.26,6.657 0.331,9.99 0.073,3.545 0.108,7.702 0.108,12.478 v 18.454 c 0,3.04 -0.108,5.974 -0.332,8.792 -0.217,2.828 -0.657,5.32 -1.324,7.49 -0.666,2.171 -1.51,3.91 -2.538,5.211 -1.035,1.303 -2.429,1.951 -4.193,1.951 -3.834,0 -6.265,-1.046 -7.29,-3.147 -1.035,-2.1 -1.548,-4.156 -1.548,-6.185 l -1.242,-59.633 c -0.045,-2.305 -1.999,-4.22 -4.338,-4.255 l -30.816,-0.514 c -2.394,0.01 -4.248,1.853 -4.248,4.121 10e-4,0.858 0.027,17.151 0.108,26.413 0.072,9.262 0.072,18.054 0,26.377 -0.08,8.323 -0.225,16.538 -0.44,24.64 -0.226,8.101 -0.559,16.565 -1,25.393 l 31.761,0.771 c 2.4,0.001 4.45,-1.805 4.69,-4.059 l 0.215,-2.003 0.288,-2.73 c 0.08,-0.762 -0.08,-2.199 1.061,-2.269 1.133,-0.004 1.454,0.795 2.206,1.382 1.602,1.242 3.05,2.651 4.734,3.811 1.988,1.374 4.23,2.491 6.74,3.36 2.503,0.87 5.15,1.302 7.947,1.302 5.598,0 10.243,-1.267 13.924,-3.793 2.115,-1.454 4.022,-3.226 5.5,-5.327 0.521,-0.744 0.8,-1.426 1.826,-1.515 0.401,-0.007 0.641,0.044 0.882,0.09 1.115,0.185 1.791,1.292 2.556,2.002 a 36.388,36.388 0 0 0 3.285,2.694 c 1.278,0.922 2.6,1.79 3.951,2.597 5.084,3.04 11.16,4.556 18.234,4.556 9.423,0 17.081,-1.445 22.968,-4.334 5.895,-2.899 10.53,-6.914 13.923,-12.055"
         id="path717"
         inkscape:connector-curvature="0"
         style="fill:#00c832" />
      <path
         d="m 396.341,129.355 c 0.37,-9.005 0.738,-18.16 1.107,-27.484 0.37,-9.326 0.703,-19.324 1,-29.995 l -34.732,-0.77 c -2.412,0 -4.266,1.843 -4.266,4.102 0,1.277 0.981,5.115 -0.755,5.708 a 1.182,1.182 0 0 1 -0.38,0.062 c -1.25,0 -2.669,-1.836 -3.517,-2.464 a 42.101,42.101 0 0 0 -6.75,-4.023 40.197,40.197 0 0 0 -7.65,-2.72 c -2.656,-0.657 -5.239,-0.977 -7.75,-0.977 -8.72,0 -16.208,1.188 -22.49,3.564 -6.274,2.384 -11.403,5.77 -15.39,10.166 -3.988,4.405 -6.949,9.741 -8.866,16.025 -1.916,6.284 -2.879,13.348 -2.879,21.183 0,5.513 0.252,11.762 0.774,18.72 a 453.562,453.562 0 0 0 1.88,19.81 536.567,536.567 0 0 0 2.664,21.776 l 37.827,0.39 c 2.372,0 3.95,-1.843 3.564,-4.104 -0.075,-0.446 -1.512,-8.917 -2.402,-15.883 a 1059.784,1059.784 0 0 1 -2.215,-20.03 212.016,212.016 0 0 1 -1.107,-21.982 c 0,-4.21 1.251,-7.8 3.762,-10.777 2.511,-2.979 6.282,-4.468 11.304,-4.468 4.725,0 8.784,1.49 12.186,4.468 3.393,2.977 5.095,7.002 5.095,12.08 0,6.674 -0.037,12.48 -0.109,17.416 a 478.486,478.486 0 0 1 -0.44,14.368 c -0.226,4.644 -0.523,9.51 -0.892,14.59 -0.369,5.078 -0.774,11.104 -1.215,18.071 l 36.28,0.771 c 2.394,0.001 4.32,-1.823 4.383,-4.104 0.024,-0.829 0.504,-16.592 0.872,-25.95 0.37,-9.36 0.738,-18.543 1.107,-27.54"
         id="path767"
         inkscape:connector-curvature="0"
         style="fill:#00c832" />
      <path
         d="m 212.229,147.746 c -1.701,-1.808 -3.096,-4.086 -4.204,-6.842 -1.107,-2.748 -1.655,-6 -1.655,-9.768 0,-7.09 1.8,-12.807 5.408,-17.15 3.61,-4.334 8.289,-6.506 14.032,-6.506 1.62,0 3.384,0.4 5.3,1.188 1.909,0.798 3.79,1.888 5.635,3.262 a 26.226,26.226 0 0 1 4.967,4.883 14.496,14.496 0 0 1 2.872,6.293 l 25.956,-7.31 c 2.277,-0.685 3.527,-2.98 2.853,-5.16 -0.143,-0.462 -2.853,-9.236 -6.165,-14.448 -3.312,-5.202 -7.182,-9.509 -11.592,-12.914 a 46.88,46.88 0 0 0 -14.58,-7.594 54.68,54.68 0 0 0 -16.354,-2.5 c -9.864,0 -18.332,1.524 -25.407,4.564 -7.064,3.04 -12.915,7.126 -17.558,12.258 -4.635,5.14 -8.064,11.114 -10.27,17.913 -2.213,6.798 -3.311,13.96 -3.311,21.493 0,8.678 1.215,16.53 3.645,23.55 2.43,7.02 5.993,13.03 10.709,18.02 4.717,4.99 10.531,8.827 17.451,11.503 6.922,2.677 14.805,4.015 23.643,4.015 14.428,0 25.92,-3.687 34.461,-11.07 8.542,-7.383 14.212,-17.079 17.01,-29.089 l -26.802,-6.586 a 4.584,4.584 0 0 0 -1.1,-0.13 c -1.958,0 -3.934,1.185 -4.713,2.958 -0.068,0.155 -1.368,3.102 -4.393,6.143 -3.014,3.04 -7.613,4.564 -13.805,4.564 -2.061,0 -4.158,-0.478 -6.292,-1.419 -2.141,-0.939 -4.058,-2.312 -5.741,-4.12"
         id="path807"
         inkscape:connector-curvature="0"
         style="fill:#00c832" />
      <path
         d="m 142.677,154.456 c 4.58,-4.219 8.388,-9.263 11.42,-15.139 3.025,-5.885 4.546,-12.896 4.546,-21.033 0,-7.844 -1.665,-14.633 -4.986,-20.367 -3.33,-5.743 -7.65,-10.458 -12.978,-14.164 -5.32,-3.704 -11.34,-6.47 -18.072,-8.286 -6.723,-1.809 -13.491,-2.722 -20.286,-2.722 -13.6,0 -25.02,2.474 -34.263,7.41 -9.234,4.937 -17.55,12.417 -24.94,22.442 l 15.75,19.58 c 0.754,0.938 1.78,1.41 2.81,1.41 0.965,0 1.934,-0.412 2.69,-1.243 0.09,-0.1 1.809,-1.994 4.913,-4.387 a 61.704,61.704 0 0 1 10.09,-6.32 72.196,72.196 0 0 1 11.088,-4.467 c 3.77,-1.16 7.28,-1.745 10.53,-1.745 3.249,0 5.733,0.585 7.434,1.745 1.69,1.161 2.547,3.342 2.547,6.541 0,2.757 -1.522,5.371 -4.545,7.845 -3.033,2.463 -6.804,5.043 -11.313,7.737 -4.51,2.685 -9.387,5.584 -14.634,8.712 a 85.512,85.512 0 0 0 -14.634,11 59.175,59.175 0 0 0 -11.313,14.491 c -3.024,5.451 -4.545,11.735 -4.545,18.852 0,6.976 1.332,13.074 3.996,18.303 2.654,5.23 6.246,9.617 10.755,13.18 4.509,3.554 9.72,6.248 15.633,8.065 5.904,1.817 12.195,2.721 18.846,2.721 11.826,0 22.428,-2.144 31.815,-6.426 9.387,-4.289 18.297,-10.644 26.72,-19.065 L 145,179.778 c -0.743,-1.128 -1.897,-1.72 -3.084,-1.72 -0.853,0 -1.723,0.306 -2.47,0.94 -0.16,0.136 -3.203,2.73 -6.75,4.99 -3.545,2.242 -7.02,4.166 -10.421,5.77 -3.402,1.595 -6.58,2.792 -9.531,3.6 -2.961,0.787 -5.544,1.195 -7.767,1.195 -2.655,0 -4.617,-0.656 -5.868,-1.959 -1.26,-1.312 -1.89,-2.977 -1.89,-5.016 0,-2.615 1.512,-5.043 4.545,-7.295 3.033,-2.26 6.84,-4.582 11.42,-6.975 a 491.678,491.678 0 0 0 14.743,-8.066 80.056,80.056 0 0 0 14.75,-10.786"
         id="path849"
         inkscape:connector-curvature="0"
         style="fill:#00c832" />
    </g>
  </g>
</svg>
