<?xml version="1.0" encoding="UTF-8" standalone="no"?>
<svg
   xmlns:dc="http://purl.org/dc/elements/1.1/"
   xmlns:cc="http://creativecommons.org/ns#"
   xmlns:rdf="http://www.w3.org/1999/02/22-rdf-syntax-ns#"
   xmlns:svg="http://www.w3.org/2000/svg"
   xmlns="http://www.w3.org/2000/svg"
   xmlns:sodipodi="http://sodipodi.sourceforge.net/DTD/sodipodi-0.dtd"
   xmlns:inkscape="http://www.inkscape.org/namespaces/inkscape"
   width="1063pt"
   height="241pt"
   viewBox="0 0 1063 241"
   version="1.1"
   id="svg909"
   sodipodi:docname="system.svg"
   inkscape:version="0.92.4 (5da689c313, 2019-01-14)">
  <metadata
     id="metadata915">
    <rdf:RDF>
      <cc:Work
         rdf:about="">
        <dc:format>image/svg+xml</dc:format>
        <dc:type
           rdf:resource="http://purl.org/dc/dcmitype/StillImage" />
      </cc:Work>
    </rdf:RDF>
  </metadata>
  <defs
     id="defs913" />
  <sodipodi:namedview
     pagecolor="#ffffff"
     bordercolor="#666666"
     borderopacity="1"
     objecttolerance="10"
     gridtolerance="10"
     guidetolerance="10"
     inkscape:pageopacity="0"
     inkscape:pageshadow="2"
     inkscape:window-width="1920"
     inkscape:window-height="1017"
     id="namedview911"
     showgrid="false"
     inkscape:zoom="0.69646359"
     inkscape:cx="934.81797"
     inkscape:cy="63.136471"
     inkscape:window-x="-8"
     inkscape:window-y="-8"
     inkscape:window-maximized="1"
     inkscape:current-layer="svg909" />
  <g
     id="g940"
     transform="matrix(0.9,0,0,0.9,53.20662,12.094476)">
    <g
       id="#fefefeff">
      <path
         style="opacity:1;fill:#fefefe"
         inkscape:connector-curvature="0"
         id="path866"
         d="m 844.5,6.08 c 0.18,-3.17 3.37,-4.92 6.25,-4.97 25.07,-0.04 50.15,0.01 75.22,-0.02 3,0.03 6.13,-0.28 8.98,0.91 3.65,2.2 2.79,7.07 3.31,10.66 2.57,-3.85 6.91,-5.89 9.88,-9.37 1.41,-1.76 3.7,-2.33 5.88,-2.2 34.02,0.03 68.05,-0.01 102.07,0.02 2.65,-0.09 5.86,1.01 6.44,3.96 0.89,2.28 -0.6,4.69 -2.26,6.19 -34.14,29.88 -68.12,60 -102.42,89.66 -5.17,4.79 -10.81,9.08 -15.81,14.07 1.53,10.58 0.04,21.37 1,32.01 1.81,11.5 -0.07,23.21 1.38,34.73 4.83,-0.89 9.7,0.5 14.53,-0.27 3.59,-0.45 6.04,3.1 5.98,6.36 0.03,5.33 1.85,10.9 -0.07,16.07 -1.74,3.21 -6.13,3.18 -9.08,1.86 -2.42,1.14 -5.09,0.78 -7.65,0.84 -1.7,0.19 -2.85,-0.91 -3.59,-2.26 0.41,3.16 -2.5,5.58 -5.49,5.45 -27.7,0.06 -55.39,0.01 -83.09,0.03 -2.45,0.09 -5.34,-0.78 -6.23,-3.32 -1.23,-3.81 -0.5,-7.87 -0.71,-11.8 -2.89,2.13 -5.1,5.03 -8.11,7 -4.09,2.9 -7.15,8.24 -12.78,8.1 -25.68,0.04 -51.37,0 -77.05,0.02 -4.09,-0.04 -8.03,1.31 -12.12,1.26 -16.8,2.22 -36.13,-0.53 -47.95,-13.82 -4.94,3.92 -10.95,5.89 -16.57,8.56 -8.09,3.51 -16.96,4.15 -25.61,5.1 -4.94,8.36 -9.87,16.72 -14.73,25.13 -1.57,2.34 -4.25,3.89 -7.11,3.68 -28.67,-0.02 -57.34,0.03 -86.01,-0.02 -6.38,-0.27 -12.62,1.67 -19.01,0.96 -7.34,-1.05 -14.85,-0.82 -21.98,-3.15 -5.47,-1.39 -11.03,-2.77 -15.96,-5.64 -4.62,-2.73 -9.62,-4.73 -14.15,-7.64 -3.16,-2.07 -7.72,-2.83 -9.31,-6.65 -0.94,-2 -0.4,-4.15 0.14,-6.17 -12.53,0.25 -25.07,0.06 -37.61,0.1 -4.12,0.16 -8.81,-4.3 -6.14,-8.44 -8.06,5.27 -17.7,6.99 -26.82,9.45 -8.93,2 -18.11,1.16 -27.18,1.25 -10.36,-1.72 -21.31,-4.31 -29.4,-11.43 -2.98,-1.83 -5.13,-4.59 -7.18,-7.34 -1.69,4.73 -4.89,8.66 -7.34,12.99 -1.33,2.54 -4.45,2.95 -7.03,2.99 -99.67,0.01 -199.34,-0.02 -299.02,0.01 -3.35,-0.1 -7.31,0.6 -10.07,-1.77 -2.58,-2.41 -1.69,-6.4 0.4,-8.82 19.45,-33.87 39.09,-67.63 58.45,-101.56 1.64,-2.42 2.91,-5.06 4.69,-7.39 -4.44,0.17 -8.88,0.2 -13.31,0.06 -3.68,-0.37 -7.38,-4.66 -5.27,-8.3 11.47,-19.43 22.47,-39.1 33.93,-58.53 3.04,-4.58 4.94,-9.97 8.8,-13.97 2.28,-2.16 5.61,-1.52 8.44,-1.61 111.31,0.03 222.62,0.01 333.92,0.01 7.36,-0.9 14.59,-3.34 22.08,-3.13 5.69,0.08 11.37,-0.07 17.06,0.06 10.3,1.2 20.8,4.53 28.7,11.47 1.88,-2.7 3.3,-5.97 6.33,-7.62 2.14,-0.97 4.57,-0.47 6.85,-0.58 40.68,0.02 81.36,0.02 122.04,0 2.65,0.05 5.43,-0.31 7.94,0.79 3.18,1.92 3.39,6.52 1.55,9.47 -4.57,7.53 -8.87,15.23 -13.17,22.93 23.88,-0.42 47.78,-0.02 71.67,-0.2 16.56,-3.32 35.61,-0.42 47.86,12.05 4.66,-1.97 8.87,-4.86 13.64,-6.58 13.9,-5 28.82,-8.36 43.59,-5.92 10.06,1.46 19.83,5.79 26.96,13.14 6.04,7.35 10.73,16.36 10.5,26.1 -0.01,-8.68 -0.44,-17.4 -1.11,-26.07 0.02,-10.66 0.03,-21.33 -0.43,-31.98 -0.82,-5.61 -1,-11.32 -0.53,-16.96 m 5,0.32 c 0.05,3.88 0.05,7.77 0.34,11.65 1.43,13.09 0.45,26.33 0.79,39.49 l 0.7,-0.05 c -0.01,11.81 0.95,23.61 0.74,35.42 -5.07,3.88 -9.33,8.87 -14.93,11.99 0.25,-0.43 0.76,-1.31 1.01,-1.74 0.27,-1.38 0.55,-2.76 0.99,-4.1 3.02,-10.09 3.66,-21.45 -0.87,-31.21 -4.12,-9.17 -12.35,-15.99 -21.9,-18.92 -5.31,-1.59 -10.86,-2.5 -16.4,-2.61 -5.44,-0.47 -10.7,1.17 -16.09,1.3 -7.35,2.46 -15.16,3.75 -21.98,7.67 -3.81,1.97 -7.81,3.67 -11.13,6.44 -4.52,-7.52 -12.73,-11.29 -20.68,-14.05 -2.01,-0.14 -4.06,-0.21 -5.93,-1 -5.33,-0.35 -10.87,-0.89 -16.07,0.53 -4.02,0.38 -8.06,0.43 -12.08,0.43 -24.2,-0.05 -48.4,0.06 -72.59,-0.05 5.95,-11.15 12.77,-21.82 18.51,-33.07 -44.26,-0.06 -88.52,0.09 -132.78,-0.08 -2.54,3.64 -4.72,7.52 -7,11.31 -4.3,-4.48 -9.31,-8.19 -15.1,-10.47 -1.31,-0.54 -2.63,-1.07 -3.91,-1.62 -9.77,-3.05 -20.12,-2.95 -30.23,-2.43 -5.34,0.61 -10.77,1.17 -15.87,2.99 -13,0.23 -26.01,0.03 -39.02,0.1 C 296.76,14.25 195.5,14.45 94.25,14.22 88.94,22.11 84.66,30.64 79.7,38.76 70.53,54.54 61.6,70.47 52.21,86.11 c 7.5,0.16 15.03,0.27 22.53,-0.09 -0.28,1.26 -0.75,2.45 -1.42,3.55 -19.91,34.39 -39.67,68.86 -59.54,103.27 -2.61,4.16 -4.67,8.65 -7.47,12.7 102.71,0.16 205.43,0.06 308.14,0.06 3.97,-6.71 7.84,-13.47 11.78,-20.19 2.27,3.44 4.52,6.93 7.29,10 2.55,2.5 5.56,4.47 8.43,6.58 4.33,2.6 9.4,3.32 13.95,5.38 3.43,-0.05 6.67,1.32 10.09,1.32 4,0 8,-0.06 12.01,0.01 4.09,0.14 7.98,-1.49 12.08,-1.35 3.14,-1.4 6.6,-1.76 9.87,-2.78 11.08,-3.19 21.21,-8.91 30.74,-15.3 -0.25,0.36 -0.74,1.07 -0.99,1.43 -2.65,5.23 -5.77,10.22 -8.78,15.25 15.91,0.8 31.96,-0.11 47.86,0.44 0.5,3.51 -3.51,5.87 -3.75,9.22 7.81,4.55 15.93,8.54 23.88,12.84 4.64,2.43 9.93,3 14.78,4.85 1.49,0.11 3.01,0.08 4.47,0.51 4.13,1.38 8.56,0.33 12.77,1.34 3.32,0.19 6.7,0.43 9.99,-0.29 16.99,-0.92 34.02,-0.31 51.02,-0.48 15.67,-0.16 31.39,0.31 47.03,-0.23 5.83,-9.35 11.07,-19.09 16.81,-28.51 6.79,-0.38 13.67,-0.74 20.26,-2.62 9.33,-2.62 17.96,-7.17 25.99,-12.51 3.19,3.74 6.78,7.04 10.78,9.92 0.28,0.05 0.83,0.14 1.11,0.18 1.04,0.71 2.13,1.37 3.22,2.04 13.45,5.28 28.27,4.21 42.22,1.86 26.83,-0.43 53.71,0.26 80.52,-0.34 8.16,-6.53 15.7,-13.9 24.07,-20.17 0.34,6.79 0.08,13.6 0.16,20.4 28.63,-0.02 57.27,-0.01 85.9,-0.01 -0.25,-8.8 -0.46,-17.62 -1.19,-26.39 -0.11,-8.7 0,-17.41 -0.66,-26.09 -1.47,-11.55 0.38,-23.34 -1.39,-34.83 0.11,-1.54 -0.64,-3.39 0.27,-4.74 19.38,-17.41 39.3,-34.19 58.93,-51.3 20.61,-18.41 41.63,-36.35 62.2,-54.79 -35.25,0.26 -70.5,0.04 -105.75,0.11 -5.52,5.63 -11.89,10.37 -17.41,16.03 -0.49,0.12 -1.46,0.35 -1.95,0.47 C 932.8,17.38 932.9,11.89 932.53,6.42 904.86,6.31 877.18,6.35 849.5,6.4 m -3.52,85.08 c 1.73,-0.14 1.56,-2.97 1.03,-4.17 -1.17,0.59 -1.65,2.96 -1.03,4.17 m 99.31,96.31 c 0.54,0.32 1.63,0.95 2.17,1.26 0.51,4.38 -1.2,9.31 1.13,13.3 l 0.07,-1.59 0.69,-0.02 c -0.07,-4.03 -0.07,-8.06 0,-12.08 0.93,-0.11 2.78,-0.34 3.7,-0.46 l 0.21,1.15 c -1.24,4.23 -1.27,8.69 -1.17,13.07 1.94,-2.23 2.64,-5.2 2.58,-8.1 l 0.4,0.73 c 0.78,-2.98 -0.28,-5.93 -1.01,-8.79 -0.38,0.43 -1.16,1.29 -1.54,1.72 -2.07,-1.44 -5.24,-2.09 -7.23,-0.19 m 12.76,0.31 c -0.52,2.67 -0.73,5.64 -2.67,7.73 -0.02,1.83 0.07,3.69 0.76,5.42 1.54,-3.2 1.48,-6.76 1.93,-10.2 0.69,3.5 1.19,7.06 1.25,10.64 l 1.05,-0.04 c -0.07,-2.2 -0.13,-4.4 -0.49,-6.57 -0.11,-2.84 -0.07,-5.68 0.02,-8.52 -0.93,0.09 -2.17,0.09 -1.85,1.54 z" />
      <path
         style="opacity:1;fill:#fefefe"
         inkscape:connector-curvature="0"
         id="path868"
         d="m 444.11,34.02 c 11.49,-2.6 23.88,-3.34 35.16,0.62 4.18,1.98 7.76,5.15 9.71,9.4 0.62,3.26 1.6,6.57 1.07,9.92 -0.83,7.26 -4.56,13.69 -7.84,20.08 -4.37,7.97 -8.85,15.88 -13.53,23.67 -4.41,7.87 -8.99,15.64 -13.41,23.51 -6.27,10.71 -12.33,21.55 -19.19,31.89 -15.65,23.14 -44.14,37.51 -72.17,34.13 -1.67,-0.52 -3.39,-0.79 -5.11,-1.04 -3.89,-1.48 -7.99,-2.99 -10.79,-6.23 -2.67,-2.65 -3.48,-6.43 -4.32,-9.94 0.01,-3.08 0.74,-6.08 1.13,-9.11 1.32,-3.34 2.71,-6.66 4.33,-9.87 2.57,-5.06 5.32,-10.03 8.02,-15.02 2.1,-3.57 3.99,-7.27 6.12,-10.82 2.12,-3.82 4.29,-7.62 6.45,-11.42 9.88,-17.23 19.58,-34.61 30.93,-50.94 6.51,-9.2 15.56,-16.32 25.33,-21.79 3.57,-1.86 7.28,-3.42 11.03,-4.88 2.33,-0.81 4.69,-1.53 7.08,-2.16 m -4.56,27.48 c -3.95,5.21 -6.99,11.04 -10.28,16.68 -6.53,11.19 -12.98,22.42 -19.49,33.62 -2.22,3.77 -4.34,7.59 -6.56,11.36 -2.36,3.98 -4.62,8.03 -6.95,12.04 -4.48,7.51 -8.74,15.16 -12.9,22.85 0.15,1.75 1.65,2.82 2.65,4.1 2.02,-0.56 3.93,-1.42 5.83,-2.32 5.57,-3.64 7.93,-10.33 11.37,-15.76 2.14,-3.77 4.32,-7.51 6.48,-11.27 8.9,-15.16 17.65,-30.42 26.56,-45.58 2.17,-3.78 4.33,-7.57 6.54,-11.34 2.35,-3.79 4.3,-7.82 6.52,-11.7 0.43,-1.35 0.88,-2.69 1.3,-4.05 -0.96,-0.87 -1.89,-1.77 -2.8,-2.7 -3.01,0.61 -6.36,1.47 -8.27,4.07 z" />
      <path
         style="opacity:1;fill:#fefefe"
         inkscape:connector-curvature="0"
         id="path870"
         d="m 105.81,35.51 c 29.76,-0.26 59.53,-0.21 89.3,-0.03 -7.19,9.78 -13.95,19.87 -20.96,29.78 -7.81,0.04 -15.62,-0.06 -23.42,0.06 -1.49,2.63 -3.01,5.25 -4.51,7.87 -2.4,3.95 -4.64,8 -6.96,12 -6.4,10.92 -12.7,21.9 -19.08,32.83 -2.37,3.99 -4.59,8.07 -6.98,12.04 -10.36,18.15 -21.17,36.05 -31.3,54.32 -12.95,0.34 -25.92,0.09 -38.88,0.12 1.31,-2.49 2.7,-4.94 4.16,-7.35 4.5,-7.79 9.06,-15.55 13.52,-23.37 6.56,-11.16 12.97,-22.41 19.52,-33.57 2.34,-4.02 4.6,-8.09 6.99,-12.08 2.22,-3.76 4.36,-7.56 6.53,-11.35 6.12,-10.47 12.24,-20.94 18.23,-31.48 -7.58,-0.09 -15.16,0.02 -22.73,-0.06 1.25,-2.44 2.59,-4.83 3.97,-7.2 4.18,-7.52 8.66,-14.88 12.6,-22.53 z" />
      <path
         style="opacity:1;fill:#fefefe"
         inkscape:connector-curvature="0"
         id="path872"
         d="m 199.88,35.48 c 18.85,-0.16 37.71,-0.25 56.56,0.04 -1.73,3.37 -3.11,6.91 -4.62,10.38 -2.08,4.63 -3.98,9.35 -6,14 -2.96,6.71 -5.74,13.48 -8.69,20.19 -2,4.67 -3.96,9.35 -6,14 -1.44,3.23 -2.76,6.51 -4.18,9.75 -2.78,6.31 -5.35,12.72 -8.19,19 -1.96,4.69 -3.92,9.37 -5.96,14.02 -2.92,6.73 -5.73,13.52 -8.7,20.24 -3.32,7.94 -6.79,15.82 -10.15,23.74 -0.56,1.25 -1.13,2.5 -1.7,3.76 -13.07,-0.17 -26.14,0 -39.21,-0.09 1.77,-4.27 3.96,-8.35 6.04,-12.47 2.29,-4.82 4.93,-9.47 6.92,-14.42 -4.69,-0.02 -9.38,-0.06 -14.07,0.04 -5.82,9 -11.83,17.88 -17.68,26.86 -13.2,0.03 -26.4,0.01 -39.6,0.01 1.93,-3.61 4.52,-6.78 6.84,-10.13 15.09,-21.31 30.25,-42.58 45.31,-63.91 17.7,-25 35.61,-49.86 53.08,-75.01 m 9.62,33.83 c -1.14,2.69 -2.82,5.1 -4.6,7.41 -12.69,18.06 -25.75,35.9 -37.73,54.45 4.39,0.09 8.78,0.01 13.17,0.07 1.96,-3.72 3.63,-7.58 5.41,-11.4 4.31,-9.02 8.66,-18.01 12.97,-27.03 2.19,-4.23 4.16,-8.58 6.38,-12.8 1.86,-3.48 3.39,-7.12 5.43,-10.5 0.76,-1.46 -0.5,-1.14 -1.03,-0.2 z" />
      <path
         style="opacity:1;fill:#fefefe"
         inkscape:connector-curvature="0"
         id="path874"
         d="m 283.64,35.34 c 12.87,0.07 25.74,-0.02 38.62,0.05 -1.59,2.99 -3.31,5.9 -5.01,8.82 -4.2,7.17 -8.32,14.38 -12.53,21.54 -2.34,4.01 -4.58,8.07 -6.99,12.03 -2.17,3.77 -4.3,7.56 -6.52,11.3 -2.38,4.01 -4.64,8.09 -7,12.11 -8.7,14.93 -17.35,29.9 -26.03,44.85 -2.17,3.61 -4.18,7.32 -6.34,10.95 -5.38,9.17 -10.6,18.44 -16.06,27.56 -12.9,-0.07 -25.8,0.05 -38.7,-0.06 0.69,-1.16 1.38,-2.31 2.08,-3.45 6.36,-10.96 12.69,-21.93 19.07,-32.87 2.34,-4 4.61,-8.04 6.95,-12.04 2.26,-3.74 4.36,-7.57 6.58,-11.34 6.54,-11.17 12.97,-22.41 19.51,-33.58 2.33,-3.98 4.54,-8.02 6.96,-11.95 8.4,-14.68 16.96,-29.27 25.41,-43.92 z" />
      <path
         style="opacity:1;fill:#fefefe"
         inkscape:connector-curvature="0"
         id="path876"
         d="m 324.73,38.79 c 1.02,-1.11 1.23,-3.68 3.16,-3.4 27.99,0.02 55.99,-0.17 83.98,0.1 -3.2,4.65 -5.71,9.72 -8.66,14.52 -2.37,4.05 -4.68,8.13 -7.02,12.19 -0.67,1.03 -1.34,2.06 -2.01,3.09 -7.58,0.1 -15.2,-0.31 -22.75,0.18 -7.05,11.67 -13.7,23.61 -20.63,35.35 -2.2,3.79 -4.38,7.59 -6.55,11.4 -2.43,3.94 -4.64,8 -6.97,12 -4.23,7.16 -8.33,14.39 -12.54,21.56 -2.36,3.99 -4.61,8.06 -6.98,12.04 -2.22,3.75 -4.33,7.56 -6.55,11.31 -2.38,4 -4.64,8.06 -6.98,12.09 -0.7,1.1 -1.38,2.21 -2.06,3.33 -12.76,-0.06 -25.51,0.03 -38.27,-0.05 4.31,-8.66 9.58,-16.84 14.36,-25.26 2.16,-3.81 4.34,-7.6 6.54,-11.39 8.87,-15.18 17.63,-30.44 26.5,-45.62 4.09,-7.18 8.32,-14.28 12.4,-21.47 2.94,-5.13 6.16,-10.12 8.68,-15.48 -7.43,-0.04 -14.87,0.01 -22.31,-0.03 1.92,-4.58 4.79,-8.69 7.14,-13.06 2.51,-4.46 5.06,-8.91 7.52,-13.4 z" />
      <path
         style="opacity:1;fill:#fefefe"
         inkscape:connector-curvature="0"
         id="path878"
         d="m 508.73,56.79 c 4.12,-6.99 8.23,-13.99 12.19,-21.07 28.23,-0.09 56.46,-0.04 84.68,-0.03 -4.1,7.19 -8.29,14.33 -12.43,21.49 -1.67,2.83 -3.3,5.68 -4.9,8.55 -7.55,0.03 -15.11,0.1 -22.65,-0.04 -1.45,1.94 -2.66,4.03 -3.86,6.12 -4.84,8.46 -9.71,16.9 -14.59,25.34 -4.16,7.22 -8.28,14.45 -12.48,21.64 -2.17,3.74 -4.27,7.53 -6.48,11.25 -6.47,11.26 -12.94,22.52 -19.46,33.75 -4.1,7.19 -8.24,14.37 -12.42,21.51 -13.03,-0.12 -26.06,0.04 -39.09,-0.08 1.85,-3.14 3.69,-6.27 5.47,-9.45 4.27,-7.14 8.31,-14.42 12.57,-21.57 2.32,-4 4.57,-8.05 6.94,-12.02 2.24,-3.78 4.38,-7.61 6.58,-11.4 2.38,-3.95 4.61,-7.99 6.95,-11.96 4.2,-7.19 8.33,-14.42 12.54,-21.6 1.98,-3.39 3.89,-6.83 5.91,-10.21 2.57,-4.36 5.03,-8.79 7.61,-13.14 1.61,-2.62 3.13,-5.3 4.41,-8.11 -7.56,0 -15.11,-0.01 -22.66,0.01 1.73,-2.99 3.48,-5.96 5.17,-8.98 z" />
      <path
         style="opacity:1;fill:#fefefe"
         inkscape:connector-curvature="0"
         id="path880"
         d="m 703.13,69.1 c 2.57,-0.61 5.23,-0.62 7.79,-1.31 3.72,-0.34 7.46,-0.32 11.18,-0.07 4.88,0.94 10.46,2.8 12.51,7.8 2.66,7.62 -0.35,15.61 -3.45,22.59 -1.69,3.66 -3.38,7.32 -5.33,10.84 -2.21,4.04 -4.32,8.13 -6.59,12.13 -2.02,3.37 -3.97,6.77 -5.97,10.14 -9.33,15.14 -18.14,31.63 -33.29,41.79 -13.14,9.68 -30.06,13.66 -46.12,10.56 -0.29,0.55 -0.88,1.65 -1.18,2.2 -1.86,3.12 -3.61,6.31 -5.44,9.45 -3.1,5.25 -6.04,10.6 -9.08,15.89 -0.65,1.12 -1.52,2.57 -3.07,2.16 -11.69,0 -23.37,-0.03 -35.06,0.01 0.27,-1.29 0.72,-2.5 1.37,-3.63 3.97,-6.8 7.89,-13.63 11.84,-20.44 2.34,-4 4.59,-8.06 6.95,-12.05 2.22,-3.78 4.35,-7.6 6.55,-11.39 6.5,-11.2 12.94,-22.43 19.45,-33.63 0.28,-0.48 0.83,-1.45 1.11,-1.94 8.65,-15.02 17.29,-30.03 26.01,-45.01 2.15,-3.79 4.29,-7.58 6.5,-11.33 0.85,-1.46 1.63,-2.98 2.59,-4.38 10.57,-0.19 21.19,-0.35 31.76,0.1 -0.45,0.57 -1.35,1.7 -1.8,2.27 3.72,-0.31 7.22,-1.69 10.77,-2.75 m -17.29,24.42 c -4.43,7.94 -9.09,15.74 -13.6,23.63 -4.2,7.19 -8.32,14.43 -12.54,21.61 -2.18,3.76 -4.3,7.56 -6.53,11.3 -1.98,3.44 -4.03,6.84 -5.86,10.36 -0.25,0.24 -0.76,0.72 -1.01,0.96 3.19,0.29 6.75,0.7 9.46,-1.44 4.55,-4.07 6.99,-9.82 10.42,-14.76 5.77,-9.61 11.88,-19.03 17.02,-29 3.08,-5.98 6.83,-11.64 9.03,-18.03 0.1,-0.93 0.29,-2.79 0.38,-3.71 -1.99,-1.47 -4.47,-1.16 -6.77,-0.92 z" />
      <path
         style="opacity:1;fill:#fefefe"
         inkscape:connector-curvature="0"
         id="path882"
         d="m 785.95,68.84 c 2.33,-0.27 4.69,-0.42 6.97,-1.06 7.93,-0.59 16.94,-0.58 23.4,4.73 5.67,5.19 4.45,13.75 2.71,20.43 -2.01,6.29 -4.74,12.32 -7.82,18.14 -3.96,7.07 -7.96,14.1 -11.95,21.14 -14.27,-0.02 -28.53,-0.05 -42.8,0.02 -4.62,8.14 -9.25,16.29 -13.04,24.87 0.85,1.2 1.7,2.4 2.54,3.62 1.24,-0.1 2.48,-0.2 3.74,-0.3 3.12,-2.78 5.52,-6.28 7.07,-10.16 6.38,-0.84 12.85,-0.22 19.28,-0.41 3.26,0.18 6.66,-0.45 9.85,0.38 -4.62,9.1 -11.25,17.22 -19.24,23.57 -12.27,9.57 -28.51,12.72 -43.75,11.37 -4.29,-0.72 -8.77,-1.97 -11.91,-5.15 -2.09,-1.88 -3.07,-4.56 -4.25,-7.02 -0.48,-4.35 -0.47,-8.74 0.05,-13.09 1.45,-5.39 2.93,-10.8 5.25,-15.9 0.62,-1.36 1.25,-2.71 1.87,-4.07 7.16,-14.77 16.01,-28.79 26.69,-41.28 8.37,-9.49 18.06,-17.98 29.31,-23.88 5.06,-2.71 10.57,-4.28 16.03,-5.95 m -6.88,26.39 c -3.34,4.23 -6.01,8.93 -9.05,13.36 3.47,0.09 6.93,0.06 10.41,0.06 1.85,-3.55 3.8,-7.04 5.52,-10.66 0.5,-1.03 1.01,-2.05 1.54,-3.07 -0.81,-0.94 -1.63,-1.88 -2.42,-2.82 -2.08,0.86 -4.62,1.15 -6,3.13 z" />
      <path
         style="opacity:1;fill:#fefefe"
         inkscape:connector-curvature="0"
         id="path884"
         d="m 569.93,69.29 c 12.42,0.05 24.84,-0.01 37.26,0.04 -1.86,3.97 -4.22,7.67 -6.42,11.45 -2.36,4.01 -4.61,8.07 -7,12.06 -2.23,3.75 -4.34,7.55 -6.57,11.3 -2.38,3.99 -4.63,8.06 -7,12.05 -5.89,10.24 -12.01,20.34 -17.72,30.68 1.37,2.93 2.35,6.01 3.26,9.11 1.79,-0.4 3.19,-1.61 4.64,-2.66 1.43,-2.53 2.89,-5.03 4.34,-7.54 4.2,-7.16 8.27,-14.39 12.49,-21.54 2.19,-3.8 4.34,-7.62 6.55,-11.41 6.52,-11.2 12.94,-22.45 19.48,-33.64 1.85,-3.27 3.8,-6.48 5.54,-9.81 12.49,-0.14 24.98,-0.06 37.47,-0.04 -0.71,1.56 -1.5,3.08 -2.37,4.55 -2.67,4.36 -5.09,8.86 -7.68,13.27 -6.56,11.18 -12.95,22.45 -19.51,33.63 -4.07,7.19 -8.29,14.29 -12.37,21.47 -6.91,11.83 -13.71,23.72 -20.6,35.55 -11.05,18.98 -31.14,32 -52.81,35 -4.53,1.15 -9.25,0.77 -13.87,0.96 -5.33,-0.11 -10.75,0.26 -16,-0.86 -5.97,-0.84 -11.72,-2.8 -17.09,-5.52 3.59,-7.28 8.09,-14.13 12.32,-21.06 3.53,0.44 6.69,2.35 10.19,3.03 8.37,1.98 17.21,3.18 25.73,1.5 6.47,-1.27 10.87,-6.54 14.85,-11.36 -7.06,-0.43 -14.13,-0.11 -21.19,-0.18 -0.29,-0.53 -0.86,-1.58 -1.15,-2.1 -0.13,-0.57 -0.4,-1.7 -0.54,-2.26 -2.38,-5.81 -4.06,-11.87 -6.44,-17.67 -0.17,-0.56 -0.49,-1.67 -0.66,-2.22 -0.94,-2.33 -1.74,-4.71 -2.53,-7.08 3.3,-5.56 6.44,-11.23 9.74,-16.79 2.33,-4.04 4.57,-8.13 6.98,-12.13 2.54,-4.4 5,-8.84 7.6,-13.21 7.02,-12.19 14,-24.4 21.08,-36.57 z" />
    </g>
    <g
       id="#000000ff">
      <path
         style="opacity:1;fill:#000000"
         inkscape:connector-curvature="0"
         id="path887"
         d="m 849.5,6.4 c 27.68,-0.05 55.36,-0.09 83.03,0.02 0.37,5.47 0.27,10.96 0.53,16.44 0.49,-0.12 1.46,-0.35 1.95,-0.47 5.52,-5.66 11.89,-10.4 17.41,-16.03 35.25,-0.07 70.5,0.15 105.75,-0.11 -20.57,18.44 -41.59,36.38 -62.2,54.79 -19.63,17.11 -39.55,33.89 -58.93,51.3 -0.91,1.35 -0.16,3.2 -0.27,4.74 1.77,11.49 -0.08,23.28 1.39,34.83 0.66,8.68 0.55,17.39 0.66,26.09 0.73,8.77 0.94,17.59 1.19,26.39 -28.63,0 -57.27,-0.01 -85.9,0.01 -0.08,-6.8 0.18,-13.61 -0.16,-20.4 -8.37,6.27 -15.91,13.64 -24.07,20.17 -26.81,0.6 -53.69,-0.09 -80.52,0.34 -13.95,2.35 -28.77,3.42 -42.22,-1.86 -1.09,-0.67 -2.18,-1.33 -3.22,-2.04 -0.28,-0.04 -0.83,-0.13 -1.11,-0.18 -4,-2.88 -7.59,-6.18 -10.78,-9.92 -8.03,5.34 -16.66,9.89 -25.99,12.51 -6.59,1.88 -13.47,2.24 -20.26,2.62 -5.74,9.42 -10.98,19.16 -16.81,28.51 -15.64,0.54 -31.36,0.07 -47.03,0.23 -17,0.17 -34.03,-0.44 -51.02,0.48 -3.29,0.72 -6.67,0.48 -9.99,0.29 -4.21,-1.01 -8.64,0.04 -12.77,-1.34 -1.46,-0.43 -2.98,-0.4 -4.47,-0.51 -4.85,-1.85 -10.14,-2.42 -14.78,-4.85 -7.95,-4.3 -16.07,-8.29 -23.88,-12.84 0.24,-3.35 4.25,-5.71 3.75,-9.22 -15.9,-0.55 -31.95,0.36 -47.86,-0.44 3.01,-5.03 6.13,-10.02 8.78,-15.25 0.25,-0.36 0.74,-1.07 0.99,-1.43 -9.53,6.39 -19.66,12.11 -30.74,15.3 -3.27,1.02 -6.73,1.38 -9.87,2.78 -4.1,-0.14 -7.99,1.49 -12.08,1.35 -4.01,-0.07 -8.01,-0.01 -12.01,-0.01 -3.42,0 -6.66,-1.37 -10.09,-1.32 -4.55,-2.06 -9.62,-2.78 -13.95,-5.38 -2.87,-2.11 -5.88,-4.08 -8.43,-6.58 -2.77,-3.07 -5.02,-6.56 -7.29,-10 -3.94,6.72 -7.81,13.48 -11.78,20.19 -102.71,0 -205.43,0.1 -308.14,-0.06 2.8,-4.05 4.86,-8.54 7.47,-12.7 19.87,-34.41 39.63,-68.88 59.54,-103.27 0.67,-1.1 1.14,-2.29 1.42,-3.55 -7.5,0.36 -15.03,0.25 -22.53,0.09 9.39,-15.64 18.32,-31.57 27.49,-47.35 4.96,-8.12 9.24,-16.65 14.55,-24.54 101.25,0.23 202.51,0.03 303.77,0.1 13.01,-0.07 26.02,0.13 39.02,-0.1 5.1,-1.82 10.53,-2.38 15.87,-2.99 10.11,-0.52 20.46,-0.62 30.23,2.43 1.28,0.55 2.6,1.08 3.91,1.62 5.79,2.28 10.8,5.99 15.1,10.47 2.28,-3.79 4.46,-7.67 7,-11.31 44.26,0.17 88.52,0.02 132.78,0.08 -5.74,11.25 -12.56,21.92 -18.51,33.07 24.19,0.11 48.39,0 72.59,0.05 4.02,0 8.06,-0.05 12.08,-0.43 5.2,-1.42 10.74,-0.88 16.07,-0.53 1.87,0.79 3.92,0.86 5.93,1 7.95,2.76 16.16,6.53 20.68,14.05 3.32,-2.77 7.32,-4.47 11.13,-6.44 6.82,-3.92 14.63,-5.21 21.98,-7.67 5.39,-0.13 10.65,-1.77 16.09,-1.3 5.54,0.11 11.09,1.02 16.4,2.61 9.55,2.93 17.78,9.75 21.9,18.92 4.53,9.76 3.89,21.12 0.87,31.21 -0.44,1.34 -0.72,2.72 -0.99,4.1 -0.25,0.43 -0.76,1.31 -1.01,1.74 5.6,-3.12 9.86,-8.11 14.93,-11.99 0.21,-11.81 -0.75,-23.61 -0.74,-35.42 l -0.7,0.05 c -0.34,-13.16 0.64,-26.4 -0.79,-39.49 -0.29,-3.88 -0.29,-7.77 -0.34,-11.65 m 110.98,21.14 c -15.47,13.77 -30.8,27.71 -46.19,41.58 -1.63,-13.82 -0.92,-27.87 -2.61,-41.67 -13.32,0.23 -26.66,0.08 -39.98,0.08 -0.31,10.18 0.73,20.32 0.71,30.49 0.29,14.69 0.34,29.39 0.9,44.07 -22.36,19.72 -45.06,39.05 -67.58,58.58 -8.57,7.59 -17.5,14.78 -25.83,22.61 13.38,0.12 26.76,0.05 40.14,0.05 2.52,0.23 4.07,-2.1 5.87,-3.47 14.92,-13.06 30.1,-25.82 44.62,-39.33 1.12,-1.14 2.48,-1.99 3.93,-2.69 0.06,15.21 0.65,30.4 0.98,45.6 13.95,-0.27 27.91,0.06 41.86,-0.16 1.91,-0.71 0.84,-2.84 0.91,-4.33 -1.09,-10.29 -0.15,-20.7 -1.4,-30.99 -0.46,-8.32 -0.24,-16.68 -0.65,-25.01 -0.81,-6.57 -0.78,-13.19 -0.85,-19.8 23.62,-20.34 47.15,-40.79 70.74,-61.17 5.3,-4.89 11.22,-9.14 16.14,-14.42 -13.91,-0.03 -27.81,0.03 -41.71,-0.02 m -516.37,6.48 c -2.39,0.63 -4.75,1.35 -7.08,2.16 -3.75,1.46 -7.46,3.02 -11.03,4.88 -9.77,5.47 -18.82,12.59 -25.33,21.79 -11.35,16.33 -21.05,33.71 -30.93,50.94 -2.16,3.8 -4.33,7.6 -6.45,11.42 -2.13,3.55 -4.02,7.25 -6.12,10.82 -2.7,4.99 -5.45,9.96 -8.02,15.02 -1.62,3.21 -3.01,6.53 -4.33,9.87 -0.39,3.03 -1.12,6.03 -1.13,9.11 0.84,3.51 1.65,7.29 4.32,9.94 2.8,3.24 6.9,4.75 10.79,6.23 1.72,0.25 3.44,0.52 5.11,1.04 28.03,3.38 56.52,-10.99 72.17,-34.13 6.86,-10.34 12.92,-21.18 19.19,-31.89 4.42,-7.87 9,-15.64 13.41,-23.51 4.68,-7.79 9.16,-15.7 13.53,-23.67 3.28,-6.39 7.01,-12.82 7.84,-20.08 0.53,-3.35 -0.45,-6.66 -1.07,-9.92 -1.95,-4.25 -5.53,-7.42 -9.71,-9.4 -11.28,-3.96 -23.67,-3.22 -35.16,-0.62 m -338.3,1.49 c -3.94,7.65 -8.42,15.01 -12.6,22.53 -1.38,2.37 -2.72,4.76 -3.97,7.2 7.57,0.08 15.15,-0.03 22.73,0.06 -5.99,10.54 -12.11,21.01 -18.23,31.48 -2.17,3.79 -4.31,7.59 -6.53,11.35 -2.39,3.99 -4.65,8.06 -6.99,12.08 -6.55,11.16 -12.96,22.41 -19.52,33.57 -4.46,7.82 -9.02,15.58 -13.52,23.37 -1.46,2.41 -2.85,4.86 -4.16,7.35 12.96,-0.03 25.93,0.22 38.88,-0.12 10.13,-18.27 20.94,-36.17 31.3,-54.32 2.39,-3.97 4.61,-8.05 6.98,-12.04 6.38,-10.93 12.68,-21.91 19.08,-32.83 2.32,-4 4.56,-8.05 6.96,-12 1.5,-2.62 3.02,-5.24 4.51,-7.87 7.8,-0.12 15.61,-0.02 23.42,-0.06 7.01,-9.91 13.77,-20 20.96,-29.78 -29.77,-0.18 -59.54,-0.23 -89.3,0.03 m 94.07,-0.03 c -17.47,25.15 -35.38,50.01 -53.08,75.01 -15.06,21.33 -30.22,42.6 -45.31,63.91 -2.32,3.35 -4.91,6.52 -6.84,10.13 13.2,0 26.4,0.02 39.6,-0.01 5.85,-8.98 11.86,-17.86 17.68,-26.86 4.69,-0.1 9.38,-0.06 14.07,-0.04 -1.99,4.95 -4.63,9.6 -6.92,14.42 -2.08,4.12 -4.27,8.2 -6.04,12.47 13.07,0.09 26.14,-0.08 39.21,0.09 0.57,-1.26 1.14,-2.51 1.7,-3.76 3.36,-7.92 6.83,-15.8 10.15,-23.74 2.97,-6.72 5.78,-13.51 8.7,-20.24 2.04,-4.65 4,-9.33 5.96,-14.02 2.84,-6.28 5.41,-12.69 8.19,-19 1.42,-3.24 2.74,-6.52 4.18,-9.75 2.04,-4.65 4,-9.33 6,-14 2.95,-6.71 5.73,-13.48 8.69,-20.19 2.02,-4.65 3.92,-9.37 6,-14 1.51,-3.47 2.89,-7.01 4.62,-10.38 -18.85,-0.29 -37.71,-0.2 -56.56,-0.04 m 83.76,-0.14 c -8.45,14.65 -17.01,29.24 -25.41,43.92 -2.42,3.93 -4.63,7.97 -6.96,11.95 -6.54,11.17 -12.97,22.41 -19.51,33.58 -2.22,3.77 -4.32,7.6 -6.58,11.34 -2.34,4 -4.61,8.04 -6.95,12.04 -6.38,10.94 -12.71,21.91 -19.07,32.87 -0.7,1.14 -1.39,2.29 -2.08,3.45 12.9,0.11 25.8,-0.01 38.7,0.06 5.46,-9.12 10.68,-18.39 16.06,-27.56 2.16,-3.63 4.17,-7.34 6.34,-10.95 8.68,-14.95 17.33,-29.92 26.03,-44.85 2.36,-4.02 4.62,-8.1 7,-12.11 2.22,-3.74 4.35,-7.53 6.52,-11.3 2.41,-3.96 4.65,-8.02 6.99,-12.03 4.21,-7.16 8.33,-14.37 12.53,-21.54 1.7,-2.92 3.42,-5.83 5.01,-8.82 -12.88,-0.07 -25.75,0.02 -38.62,-0.05 m 41.09,3.45 c -2.46,4.49 -5.01,8.94 -7.52,13.4 -2.35,4.37 -5.22,8.48 -7.14,13.06 7.44,0.04 14.88,-0.01 22.31,0.03 -2.52,5.36 -5.74,10.35 -8.68,15.48 -4.08,7.19 -8.31,14.29 -12.4,21.47 -8.87,15.18 -17.63,30.44 -26.5,45.62 -2.2,3.79 -4.38,7.58 -6.54,11.39 -4.78,8.42 -10.05,16.6 -14.36,25.26 12.76,0.08 25.51,-0.01 38.27,0.05 0.68,-1.12 1.36,-2.23 2.06,-3.33 2.34,-4.03 4.6,-8.09 6.98,-12.09 2.22,-3.75 4.33,-7.56 6.55,-11.31 2.37,-3.98 4.62,-8.05 6.98,-12.04 4.21,-7.17 8.31,-14.4 12.54,-21.56 2.33,-4 4.54,-8.06 6.97,-12 2.17,-3.81 4.35,-7.61 6.55,-11.4 6.93,-11.74 13.58,-23.68 20.63,-35.35 7.55,-0.49 15.17,-0.08 22.75,-0.18 0.67,-1.03 1.34,-2.06 2.01,-3.09 2.34,-4.06 4.65,-8.14 7.02,-12.19 2.95,-4.8 5.46,-9.87 8.66,-14.52 -27.99,-0.27 -55.99,-0.08 -83.98,-0.1 -1.93,-0.28 -2.14,2.29 -3.16,3.4 m 184,18 c -1.69,3.02 -3.44,5.99 -5.17,8.98 7.55,-0.02 15.1,-0.01 22.66,-0.01 -1.28,2.81 -2.8,5.49 -4.41,8.11 -2.58,4.35 -5.04,8.78 -7.61,13.14 -2.02,3.38 -3.93,6.82 -5.91,10.21 -4.21,7.18 -8.34,14.41 -12.54,21.6 -2.34,3.97 -4.57,8.01 -6.95,11.96 -2.2,3.79 -4.34,7.62 -6.58,11.4 -2.37,3.97 -4.62,8.02 -6.94,12.02 -4.26,7.15 -8.3,14.43 -12.57,21.57 -1.78,3.18 -3.62,6.31 -5.47,9.45 13.03,0.12 26.06,-0.04 39.09,0.08 4.18,-7.14 8.32,-14.32 12.42,-21.51 6.52,-11.23 12.99,-22.49 19.46,-33.75 2.21,-3.72 4.31,-7.51 6.48,-11.25 4.2,-7.19 8.32,-14.42 12.48,-21.64 4.88,-8.44 9.75,-16.88 14.59,-25.34 1.2,-2.09 2.41,-4.18 3.86,-6.12 7.54,0.14 15.1,0.07 22.65,0.04 1.6,-2.87 3.23,-5.72 4.9,-8.55 4.14,-7.16 8.33,-14.3 12.43,-21.49 -28.22,-0.01 -56.45,-0.06 -84.68,0.03 -3.96,7.08 -8.07,14.08 -12.19,21.07 m 194.4,12.31 c -3.55,1.06 -7.05,2.44 -10.77,2.75 0.45,-0.57 1.35,-1.7 1.8,-2.27 -10.57,-0.45 -21.19,-0.29 -31.76,-0.1 -0.96,1.4 -1.74,2.92 -2.59,4.38 -2.21,3.75 -4.35,7.54 -6.5,11.33 -8.72,14.98 -17.36,29.99 -26.01,45.01 -0.28,0.49 -0.83,1.46 -1.11,1.94 -6.51,11.2 -12.95,22.43 -19.45,33.63 -2.2,3.79 -4.33,7.61 -6.55,11.39 -2.36,3.99 -4.61,8.05 -6.95,12.05 -3.95,6.81 -7.87,13.64 -11.84,20.44 -0.65,1.13 -1.1,2.34 -1.37,3.63 11.69,-0.04 23.37,-0.01 35.06,-0.01 1.55,0.41 2.42,-1.04 3.07,-2.16 3.04,-5.29 5.98,-10.64 9.08,-15.89 1.83,-3.14 3.58,-6.33 5.44,-9.45 0.3,-0.55 0.89,-1.65 1.18,-2.2 16.06,3.1 32.98,-0.88 46.12,-10.56 15.15,-10.16 23.96,-26.65 33.29,-41.79 2,-3.37 3.95,-6.77 5.97,-10.14 2.27,-4 4.38,-8.09 6.59,-12.13 1.95,-3.52 3.64,-7.18 5.33,-10.84 3.1,-6.98 6.11,-14.97 3.45,-22.59 -2.05,-5 -7.63,-6.86 -12.51,-7.8 -3.72,-0.25 -7.46,-0.27 -11.18,0.07 -2.56,0.69 -5.22,0.7 -7.79,1.31 m 82.82,-0.26 c -5.46,1.67 -10.97,3.24 -16.03,5.95 -11.25,5.9 -20.94,14.39 -29.31,23.88 -10.68,12.49 -19.53,26.51 -26.69,41.28 -0.62,1.36 -1.25,2.71 -1.87,4.07 -2.32,5.1 -3.8,10.51 -5.25,15.9 -0.52,4.35 -0.53,8.74 -0.05,13.09 1.18,2.46 2.16,5.14 4.25,7.02 3.14,3.18 7.62,4.43 11.91,5.15 15.24,1.35 31.48,-1.8 43.75,-11.37 7.99,-6.35 14.62,-14.47 19.24,-23.57 -3.19,-0.83 -6.59,-0.2 -9.85,-0.38 -6.43,0.19 -12.9,-0.43 -19.28,0.41 -1.55,3.88 -3.95,7.38 -7.07,10.16 -1.26,0.1 -2.5,0.2 -3.74,0.3 -0.84,-1.22 -1.69,-2.42 -2.54,-3.62 3.79,-8.58 8.42,-16.73 13.04,-24.87 14.27,-0.07 28.53,-0.04 42.8,-0.02 3.99,-7.04 7.99,-14.07 11.95,-21.14 3.08,-5.82 5.81,-11.85 7.82,-18.14 1.74,-6.68 2.96,-15.24 -2.71,-20.43 -6.46,-5.31 -15.47,-5.32 -23.4,-4.73 -2.28,0.64 -4.64,0.79 -6.97,1.06 m -216.02,0.45 c -7.08,12.17 -14.06,24.38 -21.08,36.57 -2.6,4.37 -5.06,8.81 -7.6,13.21 -2.41,4 -4.65,8.09 -6.98,12.13 -3.3,5.56 -6.44,11.23 -9.74,16.79 0.79,2.37 1.59,4.75 2.53,7.08 0.17,0.55 0.49,1.66 0.66,2.22 2.38,5.8 4.06,11.86 6.44,17.67 0.14,0.56 0.41,1.69 0.54,2.26 0.29,0.52 0.86,1.57 1.15,2.1 7.06,0.07 14.13,-0.25 21.19,0.18 -3.98,4.82 -8.38,10.09 -14.85,11.36 -8.52,1.68 -17.36,0.48 -25.73,-1.5 -3.5,-0.68 -6.66,-2.59 -10.19,-3.03 -4.23,6.93 -8.73,13.78 -12.32,21.06 5.37,2.72 11.12,4.68 17.09,5.52 5.25,1.12 10.67,0.75 16,0.86 4.62,-0.19 9.34,0.19 13.87,-0.96 21.67,-3 41.76,-16.02 52.81,-35 6.89,-11.83 13.69,-23.72 20.6,-35.55 4.08,-7.18 8.3,-14.28 12.37,-21.47 6.56,-11.18 12.95,-22.45 19.51,-33.63 2.59,-4.41 5.01,-8.91 7.68,-13.27 0.87,-1.47 1.66,-2.99 2.37,-4.55 -12.49,-0.02 -24.98,-0.1 -37.47,0.04 -1.74,3.33 -3.69,6.54 -5.54,9.81 -6.54,11.19 -12.96,22.44 -19.48,33.64 -2.21,3.79 -4.36,7.61 -6.55,11.41 -4.22,7.15 -8.29,14.38 -12.49,21.54 -1.45,2.51 -2.91,5.01 -4.34,7.54 -1.45,1.05 -2.85,2.26 -4.64,2.66 -0.91,-3.1 -1.89,-6.18 -3.26,-9.11 5.71,-10.34 11.83,-20.44 17.72,-30.68 2.37,-3.99 4.62,-8.06 7,-12.05 2.23,-3.75 4.34,-7.55 6.57,-11.3 2.39,-3.99 4.64,-8.05 7,-12.06 2.2,-3.78 4.56,-7.48 6.42,-11.45 -12.42,-0.05 -24.84,0.01 -37.26,-0.04 z" />
      <path
         style="opacity:1;fill:#000000"
         inkscape:connector-curvature="0"
         id="path889"
         d="m 439.55,61.5 c 1.91,-2.6 5.26,-3.46 8.27,-4.07 0.91,0.93 1.84,1.83 2.8,2.7 -0.42,1.36 -0.87,2.7 -1.3,4.05 -2.22,3.88 -4.17,7.91 -6.52,11.7 -2.21,3.77 -4.37,7.56 -6.54,11.34 -8.91,15.16 -17.66,30.42 -26.56,45.58 -2.16,3.76 -4.34,7.5 -6.48,11.27 -3.44,5.43 -5.8,12.12 -11.37,15.76 -1.9,0.9 -3.81,1.76 -5.83,2.32 -1,-1.28 -2.5,-2.35 -2.65,-4.1 4.16,-7.69 8.42,-15.34 12.9,-22.85 2.33,-4.01 4.59,-8.06 6.95,-12.04 2.22,-3.77 4.34,-7.59 6.56,-11.36 6.51,-11.2 12.96,-22.43 19.49,-33.62 3.29,-5.64 6.33,-11.47 10.28,-16.68 z" />
      <path
         style="opacity:1;fill:#000000"
         inkscape:connector-curvature="0"
         id="path891"
         d="m 209.5,69.31 c 0.53,-0.94 1.79,-1.26 1.03,0.2 -2.04,3.38 -3.57,7.02 -5.43,10.5 -2.22,4.22 -4.19,8.57 -6.38,12.8 -4.31,9.02 -8.66,18.01 -12.97,27.03 -1.78,3.82 -3.45,7.68 -5.41,11.4 -4.39,-0.06 -8.78,0.02 -13.17,-0.07 11.98,-18.55 25.04,-36.39 37.73,-54.45 1.78,-2.31 3.46,-4.72 4.6,-7.41 z" />
      <path
         style="opacity:1;fill:#000000"
         inkscape:connector-curvature="0"
         id="path893"
         d="m 685.84,93.52 c 2.3,-0.24 4.78,-0.55 6.77,0.92 -0.09,0.92 -0.28,2.78 -0.38,3.71 -2.2,6.39 -5.95,12.05 -9.03,18.03 -5.14,9.97 -11.25,19.39 -17.02,29 -3.43,4.94 -5.87,10.69 -10.42,14.76 -2.71,2.14 -6.27,1.73 -9.46,1.44 0.25,-0.24 0.76,-0.72 1.01,-0.96 1.83,-3.52 3.88,-6.92 5.86,-10.36 2.23,-3.74 4.35,-7.54 6.53,-11.3 4.22,-7.18 8.34,-14.42 12.54,-21.61 4.51,-7.89 9.17,-15.69 13.6,-23.63 z" />
      <path
         style="opacity:1;fill:#000000"
         inkscape:connector-curvature="0"
         id="path895"
         d="m 779.07,95.23 c 1.38,-1.98 3.92,-2.27 6,-3.13 0.79,0.94 1.61,1.88 2.42,2.82 -0.53,1.02 -1.04,2.04 -1.54,3.07 -1.72,3.62 -3.67,7.11 -5.52,10.66 -3.48,0 -6.94,0.03 -10.41,-0.06 3.04,-4.43 5.71,-9.13 9.05,-13.36 z" />
      <path
         sodipodi:nodetypes="cccccccccccccc"
         style="opacity:1;fill:#000000"
         inkscape:connector-curvature="0"
         id="path897"
         d="m 945.29,187.79 c 1.99,-1.9 5.16,-1.25 7.23,0.19 0.38,-0.43 1.16,-1.29 1.54,-1.72 0.73,2.86 1.79,5.81 1.01,8.79 l 0.31,0.78 c -0.13,-0.28 -1.11,-2.35 -1.24,-2.64 -0.36,-1.27 -0.65,-2.55 -0.88,-3.84 l -0.21,-1.15 c -0.92,0.12 -2.77,0.35 -3.7,0.46 -0.07,4.02 -0.14,9.64 -0.07,13.67 l -0.69,0.02 c 0.15,-3.67 0.15,-8.93 0.11,-12.6 -0.31,-0.17 -0.93,-0.52 -1.24,-0.7 -0.54,-0.31 -1.63,-0.94 -2.17,-1.26 z" />
      <path
         sodipodi:nodetypes="ccccccccc"
         style="opacity:1;fill:#000000"
         inkscape:connector-curvature="0"
         id="path899"
         d="m 958.05,188.1 c -0.32,-1.45 0.92,-1.45 1.85,-1.54 -0.09,2.84 -0.13,5.68 -0.02,8.52 0.36,2.17 0.32482,5.41701 0.39482,7.61701 l -1.05,0.04 c -0.06,-3.58 -0.46482,-8.18701 -1.15482,-11.68701 -0.45,3.44 -0.86591,6.90482 -1.93,10.2 -0.69,-1.73 -0.78,-3.59 -0.76,-5.42 1.65445,-4.94548 2.15,-5.06 2.67,-7.73 z" />
    </g>
    <g
       id="#2a7fbdff">
      <path
         style="opacity:1;fill:#2a7fbd"
         inkscape:connector-curvature="0"
         id="path902"
         d="m 960.48,27.54 c 13.9,0.05 27.8,-0.01 41.71,0.02 -4.92,5.28 -10.84,9.53 -16.14,14.42 -23.59,20.38 -47.12,40.83 -70.74,61.17 0.07,6.61 0.04,13.23 0.85,19.8 0.41,8.33 0.19,16.69 0.65,25.01 1.25,10.29 0.31,20.7 1.4,30.99 -0.07,1.49 1,3.62 -0.91,4.33 -13.95,0.22 -27.91,-0.11 -41.86,0.16 -0.33,-15.2 -0.92,-30.39 -0.98,-45.6 -1.45,0.7 -2.81,1.55 -3.93,2.69 -14.52,13.51 -29.7,26.27 -44.62,39.33 -1.8,1.37 -3.35,3.7 -5.87,3.47 -13.38,0 -26.76,0.07 -40.14,-0.05 8.33,-7.83 17.26,-15.02 25.83,-22.61 22.52,-19.53 45.22,-38.86 67.58,-58.58 -0.56,-14.68 -0.61,-29.38 -0.9,-44.07 0.02,-10.17 -1.02,-20.31 -0.71,-30.49 13.32,0 26.66,0.15 39.98,-0.08 1.69,13.8 0.98,27.85 2.61,41.67 15.39,-13.87 30.72,-27.81 46.19,-41.58 z" />
      <path
         sodipodi:nodetypes="ccccc"
         inkscape:connector-curvature="0"
         style="opacity:1;fill:#000000"
         id="path904"
         d="m 947.46,189.05 c 0.31,0.18 0.93,0.53 1.24,0.7 0.04,3.67 0.04,8.93 -0.11,12.6 v 0 c -2.33,-3.99 -0.62,-8.92 -1.13,-13.3 z" />
      <path
         sodipodi:nodetypes="ccccc"
         inkscape:connector-curvature="0"
         style="opacity:1;fill:#000000"
         id="path906"
         d="m 952.09,202.42 c -0.1,-4.38 0.57664,-8.65744 0.96,-14.22 0.23,1.29 0.73,3.72 1.09,4.99 0.93,1.86 1.11,2.36 1.24,2.64 0.06,2.9 -1.35,4.36 -3.29,6.59 z" />
    </g>
  </g>
</svg>
