<?xml version="1.0" encoding="UTF-8" standalone="no"?>
<!-- Generator: Adobe Illustrator 13.0.0, SVG Export Plug-In . SVG Version: 6.00 Build 14948)  -->

<svg
   xmlns:dc="http://purl.org/dc/elements/1.1/"
   xmlns:cc="http://creativecommons.org/ns#"
   xmlns:rdf="http://www.w3.org/1999/02/22-rdf-syntax-ns#"
   xmlns:svg="http://www.w3.org/2000/svg"
   xmlns="http://www.w3.org/2000/svg"
   xmlns:sodipodi="http://sodipodi.sourceforge.net/DTD/sodipodi-0.dtd"
   xmlns:inkscape="http://www.inkscape.org/namespaces/inkscape"
   version="1.2"
   id="svg2"
   inkscape:version="0.92.3 (2405546, 2018-03-11)"
   sodipodi:docname="system.svg"
   x="0px"
   y="0px"
   width="566.928px"
   height="234.744px"
   viewBox="-25.928 -4 566.928 234.744"
   xml:space="preserve"><metadata
   id="metadata10"><rdf:RDF><cc:Work
       rdf:about=""><dc:format>image/svg+xml</dc:format><dc:type
         rdf:resource="http://purl.org/dc/dcmitype/StillImage" /></cc:Work></rdf:RDF></metadata>
<defs
   id="defs4">
	
	
		<inkscape:perspective
   id="perspective10"
   inkscape:persp3d-origin="372.04724 : 350.78739 : 1"
   inkscape:vp_z="744.09448 : 526.18109 : 1"
   inkscape:vp_x="0 : 526.18109 : 1"
   sodipodi:type="inkscape:persp3d"
   inkscape:vp_y="0 : 1000 : 0">
		</inkscape:perspective>
	
		<inkscape:perspective
   id="perspective2824"
   inkscape:persp3d-origin="0.5 : 0.33333333 : 1"
   inkscape:vp_z="1 : 0.5 : 1"
   inkscape:vp_x="0 : 0.5 : 1"
   sodipodi:type="inkscape:persp3d"
   inkscape:vp_y="0 : 1000 : 0">
		</inkscape:perspective>
</defs>
<sodipodi:namedview
   id="base"
   bordercolor="#666666"
   inkscape:cx="280.22174"
   inkscape:zoom="2"
   inkscape:cy="142.45913"
   pagecolor="#ffffff"
   borderopacity="1.0"
   inkscape:window-x="0"
   inkscape:pageshadow="2"
   inkscape:current-layer="svg2"
   inkscape:window-width="1920"
   inkscape:window-y="0"
   inkscape:pageopacity="0.0"
   inkscape:window-height="1015"
   inkscape:window-maximized="1"
   inkscape:document-units="px"
   showgrid="false">
	</sodipodi:namedview>
<rect
   id="rect3604"
   x="30.228798"
   y="19.4744"
   width="453.54239"
   height="187.7952"
   style="fill:#003e99;stroke-width:0.80000001" />
<path
   id="path2830"
   sodipodi:nodetypes="cccccccccccccccccccccccccccccccccccc"
   d="M 59.980798,180.648 94.431998,45.0392 H 126.3776 l 16.5992,59.1928 17.2248,-59.1928 h 30.0664 l 28.1864,99.9064 68.772,-0.1296 c 7.2184,-0.0704 7.6616,-14.9984 -0.5352,-14.9952 l -40.0504,-0.5344 c -17.1976,0.1656 -35.3336,-18.44 -34.4504,-43.2192 0.1832,-22.7296 20.0032,-40.6288 45.3584,-40.6224 l 102.152,-0.0912 25.9952,35.3904 25.3672,-35.7032 42.28,0.3136 -46.3504,65.1424 50.1096,70.6336 -42.0576,-0.1288 -29.1656,-40.5296 -27.744,40.5296 -42.9064,-0.0384 48.8576,-69.84 -21.2984,-31.0056 -88.7992,0.1296 c -9.6912,0.0888 -9.3352,15.3352 0.076,15.0496 l 37.4144,0.5728 c 15.8136,0.1016 38.0832,16.5344 37.5288,42.1888 0.2408,29.8232 -26.62,43.4496 -39.5528,42.7208 l -97.9352,0.1304 -16.2856,-61.0168 -16.2856,60.8864 h -30.9152 l -17.004,-60.5744 -14.941602,60.6664 z"
   inkscape:connector-curvature="0"
   style="fill:#ffffff;stroke-width:0.80000001" />
</svg>