<?xml version="1.0" encoding="UTF-8" standalone="no"?>
<!-- Created with Inkscape (http://www.inkscape.org/) -->

<svg
   xmlns:dc="http://purl.org/dc/elements/1.1/"
   xmlns:cc="http://creativecommons.org/ns#"
   xmlns:rdf="http://www.w3.org/1999/02/22-rdf-syntax-ns#"
   xmlns:svg="http://www.w3.org/2000/svg"
   xmlns="http://www.w3.org/2000/svg"
   xmlns:sodipodi="http://sodipodi.sourceforge.net/DTD/sodipodi-0.dtd"
   xmlns:inkscape="http://www.inkscape.org/namespaces/inkscape"
   width="272.08038mm"
   height="77.454735mm"
   viewBox="0 0 272.08038 77.454735"
   version="1.1"
   id="svg8"
   sodipodi:docname="system.svg"
   inkscape:version="0.92.3 (2405546, 2018-03-11)">
  <defs
     id="defs2" />
  <sodipodi:namedview
     id="base"
     pagecolor="#ffffff"
     bordercolor="#666666"
     borderopacity="1.0"
     inkscape:pageopacity="0.0"
     inkscape:pageshadow="2"
     inkscape:zoom="0.35"
     inkscape:cx="56.502036"
     inkscape:cy="1.6109393"
     inkscape:document-units="mm"
     inkscape:current-layer="g913"
     showgrid="false"
     inkscape:measure-start="0,0"
     inkscape:measure-end="0,0"
     fit-margin-top="0"
     fit-margin-left="0"
     fit-margin-right="0"
     fit-margin-bottom="0"
     inkscape:window-width="1920"
     inkscape:window-height="1015"
     inkscape:window-x="0"
     inkscape:window-y="0"
     inkscape:window-maximized="1" />
  <metadata
     id="metadata5">
    <rdf:RDF>
      <cc:Work
         rdf:about="">
        <dc:format>image/svg+xml</dc:format>
        <dc:type
           rdf:resource="http://purl.org/dc/dcmitype/StillImage" />
        <dc:title />
      </cc:Work>
    </rdf:RDF>
  </metadata>
  <g
     inkscape:label="Layer 1"
     inkscape:groupmode="layer"
     id="layer1"
     transform="translate(142.85556,-76.639879)">
    <g
       id="g913"
       transform="matrix(0.8,0,0,0.8,-1.363075,23.073449)">
      <path
         sodipodi:nodetypes="ccccccccccc"
         inkscape:connector-curvature="0"
         id="path826"
         d="m -123.96237,132.42879 h -2.60587 l -13.61463,-19.5775 v 19.5775 h -2.67269 v -23.58654 h 3.27405 l 12.96257,18.70887 v -18.70887 h 2.65657 z"
         style="fill:#ffffff;fill-opacity:1;stroke:none;stroke-width:0.26499999;stroke-linecap:butt;stroke-linejoin:miter;stroke-miterlimit:4;stroke-dasharray:none;stroke-opacity:1" />
      <path
         inkscape:connector-curvature="0"
         id="path833"
         d="m -108.26027,132.42879 h -13.16303 l -0.0507,-23.58654 h 13.16303 v 2.66593 h -10.51529 v 7.46503 h 9.82738 v 2.64584 h -9.82738 v 8.59895 h 10.53608 z"
         style="fill:#ffffff;fill-opacity:1;stroke:none;stroke-width:0.26458332px;stroke-linecap:butt;stroke-linejoin:miter;stroke-opacity:1" />
      <path
         id="path837"
         transform="scale(0.26458333)"
         d="m -358.22461,408.83398 a 47.111303,47.111303 0 0 0 -47.11133,47.11133 47.111303,47.111303 0 0 0 47.11133,47.11133 47.111303,47.111303 0 0 0 47.11133,-47.11133 47.111303,47.111303 0 0 0 -47.11133,-47.11133 z m 0.125,10.36524 a 36.872255,36.872255 0 0 1 36.87305,36.87305 36.872255,36.872255 0 0 1 -36.87305,36.87109 36.872255,36.872255 0 0 1 -36.87109,-36.87109 36.872255,36.872255 0 0 1 36.87109,-36.87305 z"
         style="opacity:1;fill:#ffffff;fill-opacity:1;fill-rule:nonzero;stroke:none;stroke-width:0.97569197;stroke-linecap:round;stroke-linejoin:round;stroke-miterlimit:4;stroke-dasharray:none;stroke-opacity:1;paint-order:stroke fill markers"
         inkscape:connector-curvature="0" />
      <path
         id="path837-2"
         d="m -27.962878,108.17066 a 12.464866,12.464866 0 0 0 -12.46488,12.46487 12.464866,12.464866 0 0 0 12.46488,12.46487 12.464866,12.464866 0 0 0 12.464872,-12.46487 12.464866,12.464866 0 0 0 -12.464872,-12.46487 z m 0.03307,2.74247 a 9.7557841,9.7557841 0 0 1 9.755997,9.75599 9.7557841,9.7557841 0 0 1 -9.755994,9.75547 9.7557841,9.7557841 0 0 1 -9.755483,-9.75547 9.7557841,9.7557841 0 0 1 9.755483,-9.75599 z"
         style="opacity:1;fill:#ffffff;fill-opacity:1;fill-rule:nonzero;stroke:none;stroke-width:0.25815183;stroke-linecap:round;stroke-linejoin:round;stroke-miterlimit:4;stroke-dasharray:none;stroke-opacity:1;paint-order:stroke fill markers"
         inkscape:connector-curvature="0" />
      <path
         inkscape:connector-curvature="0"
         id="path861"
         d="m -68.348798,108.04405 c -1.331712,0.0192 -2.679706,0.25275 -3.995105,0.71985 -6.013257,2.13533 -9.481738,8.48463 -8.050673,14.71848 1.431062,6.23385 7.324071,10.41976 13.662215,9.69554 6.338147,-0.72422 11.140408,-6.65016 11.140406,-12.10211 h -2.956925 c 0,4.12047 -3.65728,8.60874 -8.519377,9.1643 -4.862097,0.55557 -9.341993,-2.62234 -10.44329,-7.4197 -1.101299,-4.79735 1.543855,-9.631 6.158281,-11.2696 4.126169,-1.46521 8.617839,0.048 11.056688,3.54811 h 3.419946 c -2.098191,-4.2942 -6.367999,-6.90797 -10.902693,-7.05022 -0.18945,-0.006 -0.37923,-0.007 -0.569473,-0.005 z"
         style="color:#000000;font-style:normal;font-variant:normal;font-weight:normal;font-stretch:normal;font-size:medium;line-height:normal;font-family:sans-serif;font-variant-ligatures:normal;font-variant-position:normal;font-variant-caps:normal;font-variant-numeric:normal;font-variant-alternates:normal;font-feature-settings:normal;text-indent:0;text-align:start;text-decoration:none;text-decoration-line:none;text-decoration-style:solid;text-decoration-color:#000000;letter-spacing:normal;word-spacing:normal;text-transform:none;writing-mode:lr-tb;direction:ltr;text-orientation:mixed;dominant-baseline:auto;baseline-shift:baseline;text-anchor:start;white-space:normal;shape-padding:0;clip-rule:nonzero;display:inline;overflow:visible;visibility:visible;opacity:1;isolation:auto;mix-blend-mode:normal;color-interpolation:sRGB;color-interpolation-filters:linearRGB;solid-color:#000000;solid-opacity:1;vector-effect:none;fill:#ffffff;fill-opacity:1;fill-rule:nonzero;stroke:none;stroke-width:2.95699978;stroke-linecap:butt;stroke-linejoin:miter;stroke-miterlimit:4;stroke-dasharray:none;stroke-dashoffset:0;stroke-opacity:1;paint-order:stroke fill markers;color-rendering:auto;image-rendering:auto;shape-rendering:auto;text-rendering:auto;enable-background:accumulate" />
      <path
         sodipodi:nodetypes="ccccc"
         inkscape:connector-curvature="0"
         id="path871"
         d="m -55.591797,121.07561 h -16.50716 v 2.66955 h 14.457589 z"
         style="fill:#ffffff;fill-opacity:1;stroke:none;stroke-width:0.26458332px;stroke-linecap:butt;stroke-linejoin:miter;stroke-opacity:1" />
      <path
         inkscape:connector-curvature="0"
         id="path833-0"
         d="m -40.908349,132.42879 h -13.16303 l -0.0507,-23.58654 h 13.16303 v 2.66593 h -10.51529 v 7.46503 h 9.82738 v 2.64584 h -9.82738 v 8.59895 h 10.53608 z"
         style="fill:#ffffff;fill-opacity:1;stroke:none;stroke-width:0.26458332px;stroke-linecap:butt;stroke-linejoin:miter;stroke-opacity:1"
         inkscape:label="path833-0" />
      <path
         id="path837-2-9"
         d="m 26.827372,108.17066 a 12.464866,12.464866 0 0 0 -12.46488,12.46487 12.464866,12.464866 0 0 0 12.46488,12.46487 12.464866,12.464866 0 0 0 12.464872,-12.46487 12.464866,12.464866 0 0 0 -12.464872,-12.46487 z m 0.03307,2.74247 a 9.7557841,9.7557841 0 0 1 9.755997,9.75599 9.7557841,9.7557841 0 0 1 -9.755994,9.75547 9.7557841,9.7557841 0 0 1 -9.755483,-9.75547 9.7557841,9.7557841 0 0 1 9.755483,-9.75599 z"
         style="opacity:1;fill:#ffffff;fill-opacity:1;fill-rule:nonzero;stroke:none;stroke-width:0.25815183;stroke-linecap:round;stroke-linejoin:round;stroke-miterlimit:4;stroke-dasharray:none;stroke-opacity:1;paint-order:stroke fill markers"
         inkscape:connector-curvature="0" />
      <path
         id="path861-6"
         transform="scale(0.26458333)"
         d="m 205.33398,408.35352 v 0.002 c -5.03323,0.0726 -10.12801,0.95528 -15.0996,2.7207 -22.72727,8.07054 -35.83649,32.0679 -30.42774,55.62891 5.40874,23.56101 27.68153,39.38174 51.63672,36.64453 16.67987,-1.9059 30.53637,-13.34655 37.41992,-27.07422 h -12.77734 c -5.76476,8.28165 -15.04015,14.72844 -25.91211,15.9707 -18.37643,2.0998 -35.30833,-9.91121 -39.47071,-28.04297 -4.16238,-18.13171 5.83505,-36.40061 23.2754,-42.59374 15.59497,-5.53781 32.57136,0.18139 41.78906,13.41015 h 12.92578 c -7.93017,-16.23005 -24.06803,-26.10885 -41.20703,-26.64648 -0.71603,-0.0227 -1.43331,-0.0271 -2.15235,-0.0195 z"
         style="color:#000000;font-style:normal;font-variant:normal;font-weight:normal;font-stretch:normal;font-size:medium;line-height:normal;font-family:sans-serif;font-variant-ligatures:normal;font-variant-position:normal;font-variant-caps:normal;font-variant-numeric:normal;font-variant-alternates:normal;font-feature-settings:normal;text-indent:0;text-align:start;text-decoration:none;text-decoration-line:none;text-decoration-style:solid;text-decoration-color:#000000;letter-spacing:normal;word-spacing:normal;text-transform:none;writing-mode:lr-tb;direction:ltr;text-orientation:mixed;dominant-baseline:auto;baseline-shift:baseline;text-anchor:start;white-space:normal;shape-padding:0;clip-rule:nonzero;display:inline;overflow:visible;visibility:visible;opacity:1;isolation:auto;mix-blend-mode:normal;color-interpolation:sRGB;color-interpolation-filters:linearRGB;solid-color:#000000;solid-opacity:1;vector-effect:none;fill:#ffffff;fill-opacity:1;fill-rule:nonzero;stroke:none;stroke-width:11.17606258;stroke-linecap:butt;stroke-linejoin:miter;stroke-miterlimit:4;stroke-dasharray:none;stroke-dashoffset:0;stroke-opacity:1;paint-order:stroke fill markers;color-rendering:auto;image-rendering:auto;shape-rendering:auto;text-rendering:auto;enable-background:accumulate"
         inkscape:connector-curvature="0" />
      <path
         inkscape:connector-curvature="0"
         id="path833-1"
         d="M 105.82262,132.42879 H 92.659592 l -0.0507,-23.58654 h 13.163028 v 2.66593 H 95.256632 v 7.46503 h 9.827378 v 2.64584 h -9.827378 v 8.59895 h 10.536078 z"
         style="fill:#ffffff;fill-opacity:1;stroke:none;stroke-width:0.26458332px;stroke-linecap:butt;stroke-linejoin:miter;stroke-opacity:1" />
      <path
         inkscape:connector-curvature="0"
         id="rect945"
         d="m 68.872604,108.84225 h 2.688807 v 23.58654 h -2.688807 z"
         style="opacity:1;fill:#ffffff;fill-opacity:1;fill-rule:nonzero;stroke:none;stroke-width:2.89033055;stroke-linecap:butt;stroke-linejoin:miter;stroke-miterlimit:4;stroke-dasharray:none;stroke-opacity:1;paint-order:stroke fill markers" />
      <path
         sodipodi:nodetypes="ccccc"
         inkscape:connector-curvature="0"
         id="path947"
         d="m 84.858068,132.42879 h 3.541328 l -12.227582,-12.69531 -2.204972,1.67044 z"
         style="fill:#ffffff;fill-opacity:1;stroke:none;stroke-width:0.26458332px;stroke-linecap:butt;stroke-linejoin:miter;stroke-opacity:1" />
      <path
         sodipodi:nodetypes="ccccc"
         inkscape:connector-curvature="0"
         id="path949"
         d="m 84.791251,108.84225 h 3.47451 l -18.107512,18.77569 0.734992,-4.87768 z"
         style="fill:#ffffff;fill-opacity:1;stroke:none;stroke-width:0.26458332px;stroke-linecap:butt;stroke-linejoin:miter;stroke-opacity:1" />
      <path
         sodipodi:nodetypes="ccccc"
         inkscape:connector-curvature="0"
         id="rect957"
         d="m 109.98141,108.84225 h 19.2434 v 2.66593 h -19.2434 z"
         style="opacity:1;fill:#ffffff;fill-opacity:1;fill-rule:nonzero;stroke:none;stroke-width:2.95699978;stroke-linecap:butt;stroke-linejoin:miter;stroke-miterlimit:4;stroke-dasharray:none;stroke-opacity:1;paint-order:stroke fill markers" />
      <path
         sodipodi:nodetypes="ccccc"
         inkscape:connector-curvature="0"
         id="rect960"
         d="m 118.19994,108.84225 h 2.72339 v 23.58654 h -2.72339 z"
         style="opacity:1;fill:#ffffff;fill-opacity:1;fill-rule:nonzero;stroke:none;stroke-width:2.95699978;stroke-linecap:butt;stroke-linejoin:miter;stroke-miterlimit:4;stroke-dasharray:none;stroke-opacity:1;paint-order:stroke fill markers" />
      <path
         sodipodi:nodetypes="cccccccssccccccsscc"
         inkscape:connector-curvature="0"
         id="path990"
         d="m -7.4688739,109.64881 3.3759716,-9.731326 8.9644502,0.02691 0.076547,4.362966 -5.91644503,-0.0476 -1.20871527,4.47863 6.0750432,4.39447 c 2.9937379,-1.22995 5.1306044,-3.90547 5.5700017,-6.97404 0.4393962,-3.06857 -0.8889904,-6.0392 -3.4625967,-7.743262 -2.5736075,-1.704075 -5.96733008,-1.816107 -8.8674945,-0.376889 l -9.7559903,4.841441 14.7025554,29.62709 -3.830573,1.90094 -16.6925974,-33.63722 13.8858273,-6.890886 c 4.54854388,-2.257231 9.9614941,-1.709992 13.828379,1.398015 3.8668847,3.10801 5.4682927,8.198561 4.0910817,13.004741 -1.377209,4.80619 -5.655911,8.37354 -10.2058519,9.8062 z"
         style="fill:#e81a2e;fill-opacity:1;stroke:none;stroke-width:0.26458332px;stroke-linecap:butt;stroke-linejoin:miter;stroke-opacity:1" />
      <path
         inkscape:connector-curvature="0"
         id="path1001"
         d="M 3.7325149,76.639879 2.1733631,88.2154 5.1026784,88.782365 9.2131696,77.443078 Z"
         style="fill:#e81a2e;fill-opacity:1;stroke:none;stroke-width:0.26458332px;stroke-linecap:butt;stroke-linejoin:miter;stroke-opacity:1" />
      <path
         inkscape:connector-curvature="0"
         id="path1003"
         d="m 15.213541,80.2779 -5.7641363,10.016368 2.5513393,1.700893 7.276042,-8.835192 z"
         style="fill:#008c84;fill-opacity:1;stroke:none;stroke-width:0.26458332px;stroke-linecap:butt;stroke-linejoin:miter;stroke-opacity:1" />
      <path
         inkscape:connector-curvature="0"
         id="path1005"
         d="m 22.914806,87.223213 -8.362723,7.46503 1.937128,2.882067 9.21317,-5.764136 z"
         style="fill:#00adf7;fill-opacity:1;stroke:none;stroke-width:0.26458332px;stroke-linecap:butt;stroke-linejoin:miter;stroke-opacity:1" />
      <path
         id="path861-6-8"
         d="m -46.936113,138.94314 v 3.1e-4 c -0.796842,0.0111 -1.603428,0.15124 -2.390511,0.43073 -3.598093,1.2777 -5.673494,5.07687 -4.817199,8.80696 0.856288,3.73008 4.38243,6.23476 8.174923,5.80141 2.640693,-0.30172 4.834399,-2.11298 5.924177,-4.28627 h -2.022859 c -0.912655,1.31112 -2.381098,2.33174 -4.102305,2.5284 -2.909285,0.33244 -5.589878,-1.5691 -6.248849,-4.43964 -0.658973,-2.87055 0.923781,-5.76281 3.684871,-6.74328 2.468934,-0.87672 5.15657,0.0288 6.615881,2.12304 h 2.04636 c -1.255474,-2.56947 -3.810357,-4.13345 -6.523737,-4.21857 -0.11336,-0.004 -0.226917,-0.004 -0.340752,-0.002 z"
         style="color:#000000;font-style:normal;font-variant:normal;font-weight:normal;font-stretch:normal;font-size:medium;line-height:normal;font-family:sans-serif;font-variant-ligatures:normal;font-variant-position:normal;font-variant-caps:normal;font-variant-numeric:normal;font-variant-alternates:normal;font-feature-settings:normal;text-indent:0;text-align:start;text-decoration:none;text-decoration-line:none;text-decoration-style:solid;text-decoration-color:#000000;letter-spacing:normal;word-spacing:normal;text-transform:none;writing-mode:lr-tb;direction:ltr;text-orientation:mixed;dominant-baseline:auto;baseline-shift:baseline;text-anchor:start;white-space:normal;shape-padding:0;clip-rule:nonzero;display:inline;overflow:visible;visibility:visible;opacity:1;isolation:auto;mix-blend-mode:normal;color-interpolation:sRGB;color-interpolation-filters:linearRGB;solid-color:#000000;solid-opacity:1;vector-effect:none;fill:#e81a2e;fill-opacity:1;fill-rule:nonzero;stroke:none;stroke-width:1.76935077;stroke-linecap:butt;stroke-linejoin:miter;stroke-miterlimit:4;stroke-dasharray:none;stroke-dashoffset:0;stroke-opacity:1;paint-order:stroke fill markers;color-rendering:auto;image-rendering:auto;shape-rendering:auto;text-rendering:auto;enable-background:accumulate"
         inkscape:connector-curvature="0" />
      <path
         id="path837-6"
         d="m -22.838723,139.17764 a 7.458479,7.458479 0 0 0 -7.458483,7.45848 7.458479,7.458479 0 0 0 7.458483,7.45849 7.458479,7.458479 0 0 0 7.458483,-7.45849 7.458479,7.458479 0 0 0 -7.458483,-7.45848 z m 0.01979,1.64098 a 5.8374724,5.8374724 0 0 1 5.8376,5.8376 5.8374724,5.8374724 0 0 1 -5.837598,5.83729 5.8374724,5.8374724 0 0 1 -5.837289,-5.83729 5.8374724,5.8374724 0 0 1 5.837287,-5.8376 z"
         style="opacity:1;fill:#e81a2e;fill-opacity:1;fill-rule:nonzero;stroke:none;stroke-width:0.15446776;stroke-linecap:round;stroke-linejoin:round;stroke-miterlimit:4;stroke-dasharray:none;stroke-opacity:1;paint-order:stroke fill markers"
         inkscape:connector-curvature="0" />
      <rect
         y="139.43709"
         x="-4.6025357"
         height="14.113252"
         width="1.5689024"
         id="rect1094"
         style="opacity:1;fill:#e81a2e;fill-opacity:1;fill-rule:nonzero;stroke:none;stroke-width:0.16649607;stroke-linecap:butt;stroke-linejoin:miter;stroke-miterlimit:4;stroke-dasharray:none;stroke-opacity:1;paint-order:stroke fill markers" />
      <rect
         y="152.22748"
         x="-4.6025357"
         height="1.3228486"
         width="7.8583355"
         id="rect1096"
         style="opacity:1;fill:#e81a2e;fill-opacity:1;fill-rule:nonzero;stroke:none;stroke-width:0.15856543;stroke-linecap:butt;stroke-linejoin:miter;stroke-miterlimit:4;stroke-dasharray:none;stroke-opacity:1;paint-order:stroke fill markers" />
      <path
         id="path837-6-3"
         d="m 18.635612,139.17764 a 7.458479,7.458479 0 0 0 -7.458483,7.45848 7.458479,7.458479 0 0 0 7.458483,7.45849 7.458479,7.458479 0 0 0 7.458482,-7.45849 7.458479,7.458479 0 0 0 -7.458482,-7.45848 z m 0.01979,1.64098 a 5.8374724,5.8374724 0 0 1 5.8376,5.8376 5.8374724,5.8374724 0 0 1 -5.837598,5.83729 5.8374724,5.8374724 0 0 1 -5.837289,-5.83729 5.8374724,5.8374724 0 0 1 5.837287,-5.8376 z"
         style="opacity:1;fill:#e81a2e;fill-opacity:1;fill-rule:nonzero;stroke:none;stroke-width:0.15446776;stroke-linecap:round;stroke-linejoin:round;stroke-miterlimit:4;stroke-dasharray:none;stroke-opacity:1;paint-order:stroke fill markers"
         inkscape:connector-curvature="0" />
      <path
         style="opacity:1;fill:#e81a2e;fill-opacity:1;fill-rule:nonzero;stroke:none;stroke-width:0.16649607;stroke-linecap:butt;stroke-linejoin:miter;stroke-miterlimit:4;stroke-dasharray:none;stroke-opacity:1;paint-order:stroke fill markers"
         d="m 36.38264,139.43708 h 1.568902 v 14.11325 H 36.38264 Z"
         id="rect1094-1"
         inkscape:connector-curvature="0" />
      <path
         sodipodi:nodetypes="cccccccsccccccc"
         inkscape:connector-curvature="0"
         id="path868"
         d="m 41.888093,148.80319 c 2.3429,-0.55676 3.897798,-2.77952 3.617512,-5.17129 -0.280288,-2.39178 -2.306958,-4.19482 -4.715103,-4.19482 H 36.38264 l 0.877583,1.57877 h 3.509081 c 1.125736,0 2.16596,0.60057 2.72883,1.57549 0.56287,0.97492 0.56287,2.17606 0,3.15098 -0.56287,0.97492 -1.603094,1.57549 -2.72883,1.57549 h -3.479808 l -0.05855,1.69844 h 2.648424 l 3.331965,4.53408 h 2.029339 z"
         style="opacity:1;fill:#e81a2e;fill-opacity:1;fill-rule:nonzero;stroke:none;stroke-width:0.39890927;stroke-linecap:round;stroke-linejoin:round;stroke-miterlimit:4;stroke-dasharray:none;stroke-opacity:1;paint-order:stroke fill markers" />
    </g>
  </g>
</svg>
